<svg width="24" height="24" viewBox="0 0 24 24" fill="none" xmlns="http://www.w3.org/2000/svg">
<path d="M18.3548 4.78531C17.7008 3.05846 16.1806 1 12.6553 1C9.93841 1 8.01805 1.73415 6.94824 3.18236C5.3722 5.31536 6.22788 8.18375 6.26485 8.30484C6.29681 8.40947 6.40786 8.4679 6.51218 8.43594C6.61681 8.40399 6.6757 8.29294 6.64359 8.18862C6.63497 8.16074 5.81048 5.38599 7.26855 3.41539C8.26005 2.07524 10.0724 1.39578 12.6553 1.39578C15.2668 1.39578 17.1097 2.61628 17.9843 4.92531C18.6141 6.58812 18.7173 8.81414 18.2684 11.0334C17.8596 13.0508 17.0423 14.8027 16.1346 15.6053C13.2097 18.192 12.9793 19.1021 12.8854 19.8364C12.7918 20.5706 11.8863 22.481 9.67513 22.6038C8.67377 22.6038 7.89488 22.2105 7.35949 21.436C6.82944 20.668 6.5494 19.5157 6.5494 18.1029C6.5494 17.9934 6.46027 17.9049 6.3511 17.9049C6.24161 17.9049 6.15312 17.9934 6.15312 18.1029C6.15312 21.2155 7.43717 22.9659 9.67482 23C12.2824 22.9195 13.0203 20.9392 13.2738 19.9128C13.527 18.887 13.5718 18.4002 16.3964 15.9018C18.4337 14.0999 19.7638 8.50459 18.3547 4.78472L18.3548 4.78531Z" fill="#363636" stroke="#363636" stroke-width="0.5"/>
<path d="M14.9421 14.2214C14.9633 14.2286 14.9847 14.2322 15.0057 14.2322C15.0883 14.2322 15.1653 14.1802 15.1932 14.0975C16.7517 9.50027 16.9003 6.41635 15.6473 4.6689C14.8834 3.60286 13.5877 3.0625 11.7965 3.0625C10.386 3.0625 9.3051 3.49764 8.58382 4.35517C7.21689 5.98021 7.63932 8.51691 7.65812 8.62397C7.6766 8.73174 7.77967 8.80395 7.88727 8.78515C7.99503 8.76666 8.06693 8.6636 8.04845 8.556C8.04422 8.53156 7.63744 6.0958 8.88689 4.6103C9.52953 3.84608 10.5084 3.45873 11.7965 3.45873C13.4529 3.45873 14.6401 3.94368 15.3254 4.89977C16.4823 6.51322 16.3114 9.56514 14.8182 13.9703C14.783 14.0738 14.8383 14.1864 14.9421 14.2215L14.9421 14.2214Z" fill="#363636" stroke="#363636" stroke-width="0.5"/>
<path d="M9.14755 15.1942C8.75863 15.4362 8.34387 15.6888 8.44929 16.2438C8.70413 17.585 9.94874 17.8819 11.8939 16.7276C11.9881 16.6718 12.0227 16.5533 11.9691 16.4577C11.9154 16.3622 11.7945 16.329 11.6992 16.3825C10.6048 17 9.05763 17.5848 8.84006 16.1786C8.79761 15.9047 8.92918 15.7964 9.35696 15.5303C9.90205 15.1912 10.7095 14.6768 10.9045 13.1395C11.2223 10.6376 8.70413 10.7366 8.17031 10.6843C8.06161 10.6735 7.98016 10.7889 7.98893 10.8978C7.99801 11.0066 8.09403 11.0879 8.20242 11.0792C8.21495 11.0784 10.8121 11.0196 10.5108 13.0936C10.3157 14.4388 9.6851 14.8599 9.14755 15.1942Z" fill="#363636" stroke="#363636" stroke-width="0.5"/>
</svg>
