<svg width="24" height="24" viewBox="0 0 24 24" fill="none" xmlns="http://www.w3.org/2000/svg">
<path fill-rule="evenodd" clip-rule="evenodd" d="M2.00024 11.7183C2.00024 11.7183 4.25742 9.5047 7.53809 8.54824C7.01317 9.20408 6.67204 10.0785 6.67204 11.0078C6.67204 13.1393 8.35174 14.861 10.399 14.861C12.4462 14.861 14.0998 13.1394 14.0998 11.0078C14.0998 10.0786 13.7848 9.20408 13.2599 8.54824C14.966 9.0948 16.7769 10.1879 18.5616 12.0736C18.5616 12.0736 11.8161 21.3377 2.21 12.3469C12.3151 25.2459 22.0526 12.0463 21.9998 11.9642C21.9998 11.9642 11.8685 -1.28984 2 11.7183L2.00024 11.7183ZM11.3439 9.77808C11.8689 9.77808 12.2888 10.2426 12.2888 10.7892C12.2888 10.9532 12.2626 11.1171 12.1838 11.2811C12.2364 11.2538 12.315 11.2538 12.3676 11.2538C12.7351 11.2538 13.05 11.5545 13.05 11.9369C13.05 12.3469 12.735 12.6475 12.3676 12.6475C12 12.6475 11.6851 12.3469 11.6851 11.9369C11.6851 11.8549 11.7113 11.7729 11.7377 11.691C11.6065 11.7458 11.4751 11.8003 11.3439 11.8003C10.7928 11.8003 10.3729 11.3358 10.3729 10.7893C10.3729 10.2427 10.7928 9.77821 11.3439 9.77821L11.3439 9.77808Z" fill="#363636"/>
</svg>
