<svg width="24" height="24" viewBox="0 0 24 24" fill="none" xmlns="http://www.w3.org/2000/svg">
<path d="M10.9322 1.00027C10.0559 1.01848 9.35298 1.23601 8.79626 1.51704C8.2394 1.80702 7.8286 2.16053 7.52743 2.4778C7.21709 2.79508 7.00719 3.07615 6.91592 3.14861C6.87926 3.18483 6.76066 3.23016 6.59642 3.25746C6.12167 3.29368 5.65622 3.30279 5.19983 3.42056C5.04457 3.47499 4.90764 3.56564 4.81636 3.71964C4.59731 4.21823 4.77072 4.70772 4.92598 5.16099C5.08105 5.62334 5.19067 6.03129 5.08105 6.25774C3.931 8.74157 3 11.588 3 13.6725C3 16.8543 6.01223 18.9302 7.82887 20.1175C10.5125 21.8488 13.753 23 16.1355 23C17.167 23 17.9611 22.5287 18.5179 21.7944C19.1294 20.9332 19.4308 19.9633 19.6315 18.9572C20.0604 16.7365 19.9966 14.044 19.9966 11.9956C19.9966 10.5363 19.2664 9.4122 18.2168 8.5148C17.2949 7.73518 16.1265 7.09169 14.9215 6.44801L16.1082 6.1036C16.1447 6.0945 16.1812 6.07648 16.2178 6.04008C16.6651 5.60502 16.866 4.97955 16.9025 4.36319C16.9388 3.74684 16.8108 3.13939 16.5097 2.69522C16.1537 2.23304 15.6151 2.06977 15.2226 1.93377C13.8533 1.55314 12.2742 0.991196 10.9324 1.0001L10.9322 1.00027ZM10.9413 1.49886C12.2375 1.56238 13.1139 1.79794 14.1361 2.15144C13.6432 2.17856 13.0955 2.28742 12.6939 2.47782C12.0092 2.8042 11.6532 3.29367 11.3156 3.62899C10.5305 4.40861 10.2933 5.76823 8.3673 7.18225C8.02048 5.84977 7.56405 4.38134 7.60053 3.15749C7.68266 3.05774 7.77394 2.94906 7.89254 2.83111C8.17556 2.54113 8.54072 2.22385 9.03363 1.96989C9.71828 1.69794 10.3663 1.52573 10.9415 1.49863L10.9413 1.49886ZM15.5328 2.73157C15.4323 2.98532 15.3594 3.26638 15.3594 3.55656C15.4415 4.16382 15.8796 4.50841 16.2996 4.8619C16.2083 5.16098 16.0713 5.43294 15.8796 5.63243C15.2863 5.81374 14.6564 5.95882 14.0905 6.16724C13.3877 6.36675 12.9586 6.86514 12.7761 7.41818C12.63 8.06186 12.6575 8.73262 12.8125 9.29456C13.3419 10.3551 14.1726 11.4338 15.77 12.2224C15.8886 12.3039 16.0712 12.2495 16.1351 12.1226C16.1991 11.9958 16.126 11.8145 15.989 11.7691C14.5103 11.0348 13.7983 10.0741 13.2963 9.08598C13.1685 8.62362 13.1229 8.03454 13.269 7.57218C13.4059 7.12802 13.6798 6.80165 14.2456 6.64765C15.6057 7.38196 16.92 8.089 17.8785 8.90466C18.6545 9.56634 19.193 10.2825 19.3938 11.1799C19.0195 11.5425 18.7091 12.0229 18.3807 12.4399L17.5409 12.0229C17.4223 11.9685 17.2762 12.0138 17.2033 12.1227L16.4821 13.31L14.7752 13.7995C14.6291 13.8267 14.5287 13.9808 14.5743 14.1259C14.6108 14.2619 14.7842 14.3434 14.9211 14.289L16.7194 13.7724C16.7833 13.7542 16.838 13.718 16.8655 13.6635L17.5226 12.5848L18.3442 12.9928C18.4446 13.0381 18.5816 13.011 18.6545 12.9203C18.9192 12.603 19.4853 11.9958 19.4853 11.9958C19.4853 14.0535 19.5401 16.7276 19.1201 18.8578C19.0472 19.2567 18.9559 19.6374 18.8371 19.991C18.4171 19.6013 18.0155 19.2658 17.6323 18.8578C17.5501 18.7763 17.4862 18.6947 17.4497 18.6403C17.3949 18.3955 16.8746 17.7611 16.5824 17.4438C16.546 17.4167 16.5095 17.3894 16.4728 17.3803L14.2367 16.637C14.0725 16.3922 13.908 16.2111 13.6982 16.0116C13.406 15.7758 13.1596 15.8303 12.8674 15.9844C12.5662 16.1566 12.2924 16.3471 12.0185 16.5374L10.6311 15.3861C10.5763 15.3408 10.5125 15.3136 10.4485 15.3136C10.2386 15.3318 10.1473 15.6489 10.3116 15.776L11.8543 17.0541C11.9456 17.1265 12.0733 17.1265 12.1646 17.0632C12.5846 16.7821 12.8766 16.5375 13.2965 16.3653C13.4607 16.4559 13.5885 16.6463 13.6981 16.7823L12.8857 18.3958H11.7538C11.6261 18.3958 11.4983 18.5136 11.4983 18.6496C11.4983 19.0666 11.5348 19.411 11.6169 19.8008C11.6352 19.9276 11.7173 19.973 11.7722 20.0545C11.5713 20.4715 11.3341 20.8522 11.0694 21.251C10.0561 20.8158 9.04274 20.29 8.11175 19.6917C5.98487 18.323 4.26894 16.5917 3.71204 14.842L4.93524 15.5399C4.97172 15.567 5.01736 15.5761 5.063 15.5852H5.98484L6.42294 16.0112C6.45025 16.0474 6.49589 16.0747 6.54154 16.0836L8.60447 16.6002C8.73223 16.6274 8.87832 16.5458 8.9148 16.4098C8.95128 16.283 8.86 16.1379 8.73223 16.1017L6.74226 15.6031L6.27667 15.1407C6.23103 15.0954 6.15807 15.0683 6.0941 15.0683H5.13559L3.55642 14.1708C3.52947 14.0081 3.51114 13.8359 3.51114 13.6726C3.51114 11.7418 4.41486 8.91382 5.55571 6.47526C5.78393 5.98577 5.56488 5.46005 5.40962 5.00678C5.27269 4.66237 5.20872 4.34511 5.25436 4.00961C5.55553 4.19092 5.93901 4.3269 6.34977 4.3269C6.69659 4.3269 6.93395 4.10027 7.09823 3.87363C7.18035 5.66847 7.81936 7.14604 8.40354 8.7142C9.01505 10.2915 8.19366 11.8415 7.67326 12.621C7.6003 12.7388 7.63678 12.9021 7.75538 12.9745C7.86499 13.0561 8.0384 13.0198 8.11136 12.9021C9.09756 11.4065 9.4262 10.0016 8.88765 8.54204C8.79636 8.27919 8.67758 7.98009 8.55899 7.67192C10.704 6.15812 11.0875 4.58082 11.6808 3.99161C12.0641 3.61098 12.3471 3.21216 12.9039 2.94017C13.8259 2.60468 14.6018 2.60468 15.5328 2.73174L15.5328 2.73157ZM16.0165 2.94C16.2995 3.3026 16.3908 3.87366 16.3817 4.25443C16.1443 4.07312 15.98 3.80117 15.8796 3.55653C15.8796 3.35703 15.9344 3.13058 16.0165 2.94018L16.0165 2.94ZM14.0997 17.1351L16.2447 17.8421C16.5459 18.1232 16.7103 18.3678 16.911 18.676C16.9475 18.9026 17.1301 19.0566 17.267 19.2108C17.7143 19.6821 18.1432 20.0629 18.6453 20.498C18.49 20.8697 18.3166 21.205 18.1067 21.477C17.6322 22.1206 17.0205 22.4922 16.1351 22.4922C14.8481 22.4922 13.2142 22.1024 11.562 21.4497C11.8267 21.0417 12.0366 20.6882 12.2375 20.2623C12.3653 19.9903 12.3105 19.8906 12.1371 19.7093C12.0458 19.4645 12.0366 19.1474 12.0275 18.9025H13.0406C13.141 18.9025 13.2323 18.8481 13.278 18.7666L14.0997 17.1351Z" fill="#363636" stroke="#363636" stroke-width="0.5"/>
</svg>
