<svg width="24" height="24" viewBox="0 0 24 24" fill="none" xmlns="http://www.w3.org/2000/svg">
<path d="M13.1112 0C12.1696 1.0799 11.9333 2.31064 12.1812 3.97442C11.9823 6.09427 16.2767 14.1876 16.3647 14.1378C16.2025 14.2325 18.0154 15.9602 18.2076 18.2148C18.3978 19.3651 17.7061 20.26 16.822 20.7781C16.0104 21.2596 15.0527 21.4033 14.628 21.5731C13.1455 22.1441 11.819 22.4999 11.4492 24C12.2746 22.9527 13.4271 23.082 14.9156 22.5013C15.3228 22.3302 16.2191 22.2438 17.3273 21.6162C17.8776 21.317 18.3461 20.8315 18.7629 20.2531C19.1902 19.5785 19.2208 18.8164 19.1829 18.141C19.0891 16.7923 18.4837 15.5591 17.9499 14.8509C17.4811 14.135 17.2078 13.6443 17.2043 13.6478C17.1289 13.7399 12.898 5.64985 13.1432 3.83541C12.9187 2.22519 12.7451 1.39862 13.1112 0.000177959L13.1112 0Z" fill="#363636"/>
<path d="M5.54925 17.4492C5.2165 17.8742 4.99202 17.918 4.73864 18.3253C4.63578 18.4751 3.98489 19.3661 4.00851 20.2643C3.94248 21.1272 4.28201 21.9098 4.2933 21.8997C4.28583 21.8766 4.61632 22.7332 5.4429 23.1744C5.79094 23.4046 6.35933 23.5496 6.54887 23.5904C7.00673 23.7459 7.29497 23.7199 7.45956 23.7294C8.01123 23.7105 8.42776 23.4801 8.62824 22.9664C8.12226 22.9246 7.91252 22.7367 7.46441 22.7579C7.35824 22.755 7.08179 22.7449 6.90299 22.6785C6.44531 22.5529 6.2342 22.5084 5.93688 22.331C5.38174 22.0396 5.18415 21.4945 5.17979 21.5027C5.17527 21.5135 4.93861 20.9858 4.98466 20.3159C4.97215 19.6403 5.39073 19.1401 5.56191 18.841C5.84705 18.3962 5.86462 17.8758 5.54925 17.4492Z" fill="#363636"/>
<path d="M13.9922 21.1654C14.2991 19.8245 11.2081 19.9272 9.83001 20.1882C8.58903 20.4233 6.56001 21.687 8.936 22.087C10.61 22.369 13.9923 21.1654 13.9923 21.1654H13.9922Z" fill="#363636"/>
</svg>
