<svg width="25" height="26" viewBox="0 0 25 26" fill="none" xmlns="http://www.w3.org/2000/svg">
<path d="M2.9286 13.445C3.13915 13.7931 3.35699 14.1529 3.55104 14.5172C4.12588 15.5363 4.50043 16.6559 4.65487 17.8158C4.77143 19.1352 4.99345 20.4432 5.31865 21.7273C5.56881 22.6571 6.03525 24.3875 7.52161 24.3875C8.68745 24.3875 9.58924 22.1606 10.2009 17.7691C10.4069 16.3145 11.0358 16.1717 11.352 16.133C11.3645 16.133 11.3747 16.138 11.3869 16.1399C11.4081 16.1986 11.4286 16.2582 11.451 16.3156C11.6376 16.7568 11.8619 17.1812 12.1212 17.5839C12.2506 17.7979 12.3808 18.0123 12.5006 18.2359C12.8451 18.8469 13.0697 19.5179 13.1625 20.213C13.2292 20.8825 13.3321 21.5479 13.4703 22.2061C13.4726 22.215 13.4703 22.224 13.4738 22.2327C13.4771 22.2415 13.4799 22.2483 13.4829 22.257C13.5124 22.3854 13.5395 22.5139 13.5751 22.6414C13.7269 23.2081 14.0448 24.3872 15.0719 24.3872C15.4023 24.3872 16.2801 24.3872 16.865 20.1889C16.9727 19.4297 17.2585 19.3334 17.4289 19.3088L17.476 19.3171C17.5898 19.3406 17.8935 19.4024 18.0072 20.1899C18.5909 24.3875 19.4684 24.3875 19.7985 24.3875C20.8231 24.3875 21.1297 23.2524 21.2949 22.6453C21.497 21.8467 21.6354 21.0335 21.7089 20.213C21.8025 19.5172 22.0278 18.8456 22.373 18.2343C22.4926 18.0085 22.6235 17.7922 22.7524 17.5763C23.0102 17.1755 23.2328 16.753 23.4174 16.3137C24.0541 14.6974 24.2242 12.4831 22.7924 11.1145C22.3553 10.7037 21.8234 10.4075 21.244 10.2523C22.0209 7.39585 21.5333 4.7909 19.9039 3.22863C17.7119 1.12417 13.8042 1.08091 11.3622 3.06985C8.92007 1.08091 5.01273 1.12417 2.81898 3.22967C0.584405 5.37113 0.856974 8.86605 1.85917 11.4224C2.1571 12.1259 2.51479 12.8027 2.9286 13.445V13.445ZM22.7127 16.0385C22.5433 16.4377 22.3402 16.8216 22.1055 17.1861C21.9674 17.4138 21.8291 17.6416 21.704 17.8796C21.3137 18.5752 21.0595 19.3388 20.9553 20.1296C20.8855 20.9103 20.7546 21.6842 20.5639 22.4444C20.4072 23.0172 20.2073 23.6285 19.8065 23.6285C19.6546 23.5818 19.1408 22.8298 18.7586 20.0825C18.633 19.2096 18.2527 18.7008 17.6263 18.5729C17.5769 18.5621 17.5269 18.5538 17.4767 18.5482C17.4628 18.5487 17.4487 18.55 17.435 18.552C17.4204 18.5498 17.4056 18.5484 17.3909 18.5479C16.6764 18.6274 16.2464 19.1436 16.1135 20.0825C15.7306 22.8317 15.2145 23.5834 15.0719 23.6285C14.6609 23.6285 14.4619 23.0176 14.3068 22.4422C14.1168 21.6818 13.9863 20.9079 13.9166 20.1274C13.8136 19.3364 13.5598 18.5725 13.1689 17.8773C13.0439 17.6419 12.9068 17.4154 12.7697 17.1896C12.534 16.8239 12.3297 16.4389 12.1591 16.0385C11.615 14.6503 11.4456 12.7718 12.6035 11.663C13.7613 10.5541 15.9401 10.573 17.1796 11.7031C17.2912 11.8117 18.7226 13.1768 20.0057 13.1768C20.2152 13.1768 20.3851 13.0069 20.3851 12.7972C20.3851 12.5877 20.2152 12.4178 20.0057 12.4178C19.3545 12.4178 18.5298 11.8549 18.03 11.4425C18.8232 10.9299 19.7811 10.7367 20.7109 10.9021C21.2951 10.9943 21.8383 11.2598 22.2702 11.664C23.4303 12.7748 23.2342 14.713 22.7127 16.0385V16.0385ZM3.34449 3.77724C5.30684 1.89393 9.00519 1.92416 11.105 3.83961C11.253 3.98379 13.5318 6.17164 15.5368 6.17164C15.7463 6.17164 15.9162 6.00174 15.9162 5.79206C15.9162 5.58255 15.7463 5.41265 15.5368 5.41265C14.2043 5.41265 12.6059 4.15265 11.9428 3.57503C14.0817 1.92919 17.5147 1.98652 19.381 3.77776C20.8163 5.15415 21.2235 7.50634 20.4982 10.113C19.4118 9.99715 18.321 10.2904 17.4392 10.9358C15.8771 9.74109 13.4511 9.79737 12.0776 11.1149C10.9038 12.2397 10.8096 13.9365 11.1668 15.4034C10.2198 15.5764 9.64049 16.3309 9.45183 17.6631C8.79186 22.3819 7.90085 23.6285 7.52161 23.6285C6.68671 23.6285 6.32519 22.5454 6.05037 21.5269C5.73819 20.2804 5.52382 19.0117 5.40899 17.7319C5.24482 16.4763 4.84144 15.2639 4.22074 14.16C4.01731 13.7775 3.7939 13.4087 3.57571 13.0519C3.18449 12.4463 2.84591 11.8084 2.56396 11.1449C1.65349 8.81776 1.37866 5.66003 3.34449 3.77724Z" fill="#363636"/>
<path d="M3.29893 9.55584C3.41724 9.55584 3.52876 9.50077 3.60069 9.40661C3.67243 9.31263 3.69623 9.19033 3.66514 9.07619C2.81772 5.96954 4.7978 4.94528 4.88779 4.90011C5.07019 4.8056 5.14437 4.58307 5.0549 4.39805C4.96544 4.21304 4.74499 4.13278 4.55771 4.21704C4.53218 4.22955 1.91368 5.53541 2.93255 9.27614C2.97772 9.44135 3.12764 9.55584 3.29893 9.55584Z" fill="#363636"/>
<path d="M6.42891 3.89503C6.42891 4.10471 6.25901 4.27461 6.04933 4.27461C5.83982 4.27461 5.66992 4.10471 5.66992 3.89503C5.66992 3.68552 5.83982 3.51562 6.04933 3.51562C6.25901 3.51562 6.42891 3.68552 6.42891 3.89503Z" fill="#363636"/>
<path d="M13.6083 12.0776C13.0261 12.4077 12.0986 13.5325 12.757 15.4271C12.8013 15.5555 12.9108 15.6504 13.0442 15.6761C13.1776 15.7016 13.3145 15.654 13.4033 15.5512C13.4919 15.4483 13.519 15.3059 13.474 15.1777C12.8668 13.4321 13.9331 12.7675 13.9856 12.7364C14.1675 12.6323 14.2305 12.4004 14.1263 12.2183C14.0221 12.0365 13.7901 11.9734 13.6083 12.0776V12.0776Z" fill="#363636"/>
<path d="M15.1574 11.864C15.1574 12.0735 14.9875 12.2434 14.778 12.2434C14.5683 12.2434 14.3984 12.0735 14.3984 11.864C14.3984 11.6543 14.5683 11.4844 14.778 11.4844C14.9875 11.4844 15.1574 11.6543 15.1574 11.864V11.864Z" fill="#363636"/>
</svg>
