<svg width="24" height="24" viewBox="0 0 24 24" fill="none" xmlns="http://www.w3.org/2000/svg">
<path d="M20.0199 23C19.7672 23 19.5623 22.7951 19.5623 22.5422C19.5623 21.3371 19.2451 20.1532 18.6425 19.1094C18.04 18.0658 17.1732 17.199 16.1295 16.5964C15.0857 15.9938 13.9019 15.6766 12.6967 15.6766H7.66164C7.29736 15.6758 6.94502 15.546 6.66733 15.3102C6.38949 15.0745 6.20404 14.7481 6.14398 14.3887C6.08391 14.0293 6.15286 13.6603 6.33891 13.3469L6.39378 13.2736C6.49906 13.1225 7.09858 12.1843 6.56772 11.5618H5.89033C5.38812 11.5618 4.90662 11.3621 4.552 11.0066C4.19738 10.651 3.99875 10.1691 4.00001 9.66689C4.00001 9.10846 4.00001 9.10846 5.75306 6.21124L7.66163 3.03021C7.90744 2.6227 7.92476 2.117 7.70745 1.69372C7.64186 1.58461 7.62454 1.45327 7.65979 1.33098C7.69504 1.20868 7.77963 1.10662 7.89304 1.04915C8.0066 0.991836 8.13901 0.984327 8.25839 1.02831C8.37762 1.07244 8.47325 1.16424 8.52214 1.28178C8.88258 1.98475 8.85484 2.82396 8.44888 3.50162C7.64325 4.84274 7.01628 5.87717 6.53109 6.70564C4.91535 9.36484 4.91535 9.37406 4.91535 9.64868C4.9129 9.90967 5.01435 10.161 5.19718 10.3472C5.38001 10.5336 5.62936 10.6395 5.89034 10.6419H6.74623C6.85534 10.6419 6.96078 10.6808 7.04369 10.7518C8.24286 11.7816 7.50145 13.3333 7.09855 13.8459H7.0987C6.99587 14.0292 6.99587 14.253 7.0987 14.4363C7.1531 14.5374 7.23448 14.6214 7.33394 14.6788C7.4334 14.7362 7.54681 14.7648 7.66159 14.7613H12.6967C14.7604 14.7613 16.7395 15.5811 18.1986 17.0403C19.6578 18.4995 20.4776 20.4787 20.4776 22.5422C20.4776 22.6636 20.4293 22.7801 20.3435 22.8659C20.2577 22.9517 20.1412 23 20.0198 23L20.0199 23Z" fill="#363636" stroke="#363636" stroke-width="0.2"/>
<path d="M18.1927 23.0005C17.9398 23.0005 17.7349 22.7956 17.7349 22.5428C17.7349 21.2075 17.2045 19.9269 16.2602 18.9828C15.316 18.0384 14.0354 17.508 12.7002 17.508H9.95389C7.40443 17.508 7.38618 17.508 7.20764 17.6912C6.89639 17.9978 6.99247 18.2542 7.44564 18.9132L7.56916 19.0963C7.62402 19.166 7.65743 19.2503 7.66524 19.3389C7.66524 19.8244 7.85819 20.2901 8.20147 20.6334C8.5449 20.9768 9.01063 21.1696 9.49613 21.1696H11.327C11.6911 21.1696 12.0404 21.3143 12.2979 21.5719C12.5555 21.8294 12.7002 22.1786 12.7002 22.5428C12.7002 22.7956 12.4951 23.0005 12.2424 23.0005C11.9897 23.0005 11.7846 22.7956 11.7846 22.5428C11.7846 22.4214 11.7365 22.3051 11.6507 22.2191C11.5647 22.1333 11.4484 22.0852 11.327 22.0852H9.49613C8.79238 22.0861 8.11519 21.817 7.60423 21.3332C7.09316 20.8495 6.78742 20.188 6.74987 19.4852L6.70865 19.4258C6.34713 18.9039 5.67421 17.9291 6.57133 17.032C7.0291 16.5742 7.1526 16.5742 9.97214 16.5742L12.7002 16.5926C14.2782 16.5926 15.7917 17.2194 16.9074 18.3354C18.0234 19.4512 18.6502 20.9647 18.6502 22.5426C18.6502 22.664 18.6021 22.7805 18.5162 22.8663C18.4303 22.9521 18.314 23.0004 18.1926 23.0004L18.1927 23.0005Z" fill="#363636" stroke="#363636" stroke-width="0.2"/>
</svg>
