<svg width="19" height="19" viewBox="0 0 19 19" fill="none" xmlns="http://www.w3.org/2000/svg">
<path d="M16.2315 3.06575V16.0929C16.2321 16.3192 16.1746 16.5417 16.0645 16.7393C15.9544 16.9369 15.7954 17.1029 15.6027 17.2215C15.41 17.3401 15.1901 17.4071 14.9641 17.4162C14.7381 17.4254 14.5135 17.3763 14.3119 17.2738L9.82872 15.0117C9.7266 14.9604 9.61386 14.9337 9.49955 14.9337C9.38523 14.9337 9.2725 14.9604 9.17037 15.0117L4.68727 17.2738C4.48552 17.3756 4.26105 17.424 4.03526 17.4145C3.80947 17.405 3.58987 17.3378 3.3974 17.2194C3.20493 17.101 3.046 16.9352 2.93575 16.7379C2.8255 16.5406 2.7676 16.3184 2.76758 16.0925V14.4118C2.76758 14.3333 2.7988 14.2579 2.85438 14.2023C2.90995 14.1467 2.98533 14.1155 3.06393 14.1155C3.14253 14.1155 3.21791 14.1467 3.27348 14.2023C3.32906 14.2579 3.36028 14.3333 3.36028 14.4118V16.0931C3.36031 16.2179 3.39229 16.3407 3.45318 16.4495C3.51407 16.5584 3.60184 16.65 3.70813 16.7153C3.81442 16.7807 3.93568 16.8179 4.06036 16.8231C4.18505 16.8283 4.30899 16.8015 4.42039 16.7453L8.90326 14.4825C9.08836 14.3896 9.29253 14.3412 9.49955 14.3412C9.70657 14.3412 9.91074 14.3896 10.0958 14.4825L14.5787 16.7453C14.6901 16.8015 14.814 16.8283 14.9387 16.8231C15.0634 16.8179 15.1847 16.7807 15.291 16.7153C15.3972 16.65 15.485 16.5584 15.5459 16.4495C15.6068 16.3407 15.6388 16.2179 15.6388 16.0931V3.06575C15.6384 2.82998 15.5446 2.60398 15.3778 2.43731C15.2111 2.27064 14.985 2.17692 14.7492 2.17669H4.24986C4.01408 2.17692 3.78802 2.27064 3.62126 2.43731C3.4545 2.60398 3.36065 2.82998 3.36028 3.06575V10.4039C3.36028 10.4826 3.32906 10.5579 3.27348 10.6135C3.21791 10.6691 3.14253 10.7003 3.06393 10.7003C2.98533 10.7003 2.90995 10.6691 2.85438 10.6135C2.7988 10.5579 2.76758 10.4826 2.76758 10.4039V3.06575C2.76812 2.67284 2.92447 2.29618 3.20235 2.0184C3.48023 1.74062 3.85694 1.58439 4.24986 1.58398H14.7492C15.1422 1.58439 15.5188 1.74062 15.7967 2.0184C16.0747 2.29618 16.231 2.67284 16.2315 3.06575ZM3.06444 12.7325C3.10336 12.7325 3.14191 12.7249 3.17788 12.71C3.21384 12.6951 3.24652 12.6733 3.27405 12.6457C3.30157 12.6182 3.32339 12.5855 3.33828 12.5495C3.35317 12.5136 3.36081 12.475 3.36079 12.4362V12.2951C3.36079 12.2165 3.32957 12.1411 3.27399 12.0855C3.21842 12.0299 3.14303 11.9987 3.06444 11.9987C2.98584 11.9987 2.91047 12.0299 2.85488 12.0855C2.79931 12.1411 2.76808 12.2165 2.76808 12.2951V12.4362C2.76806 12.475 2.77572 12.5136 2.7906 12.5495C2.80548 12.5855 2.82731 12.6182 2.85484 12.6457C2.88236 12.6733 2.91504 12.6951 2.95101 12.71C2.98697 12.7249 3.02552 12.7325 3.06444 12.7325Z" fill="#363636" stroke="#363636" stroke-width="0.8"/>
<path d="M12.8534 5.50203C11.9429 4.55101 10.5079 4.50728 9.54883 5.34087C8.59004 4.50753 7.15506 4.55068 6.24428 5.50203C5.40196 6.38188 5.30624 7.75778 6.01149 8.84806C6.44819 9.52304 7.49643 10.4361 9.21633 11.6395L9.55286 11.875L9.99849 11.5557C11.2272 10.6776 12.5549 9.66918 13.0862 8.84798C13.7914 7.75778 13.6957 6.3818 12.8534 5.50203ZM12.096 8.1491C11.6692 8.80887 10.2807 9.83749 9.54669 10.3657C7.8488 9.15198 7.22394 8.49268 7.00164 8.1491C6.6214 7.56137 6.65742 6.83575 7.0892 6.38467C7.58233 5.86964 8.37969 5.8696 8.8729 6.38471L9.54883 7.09065L10.2248 6.38463C10.718 5.8696 11.5153 5.8696 12.0084 6.38463C12.4402 6.83576 12.4763 7.56137 12.096 8.1491Z" fill="#363636"/>
</svg>
