<?xml version="1.0" standalone="no"?>
<!DOCTYPE svg PUBLIC "-//W3C//DTD SVG 20010904//EN"
 "http://www.w3.org/TR/2001/REC-SVG-20010904/DTD/svg10.dtd">
<svg version="1.0" xmlns="http://www.w3.org/2000/svg"
 width="84.000000pt" height="85.000000pt" viewBox="0 0 84.000000 85.000000"
 preserveAspectRatio="xMidYMid meet">

<g transform="translate(0.000000,85.000000) scale(0.100000,-0.100000)"
fill="#000000" stroke="none">
<path d="M198 673 c-69 -74 -74 -138 -22 -242 71 -142 284 -331 372 -331 68 0
152 64 152 115 0 39 -133 140 -168 128 -7 -3 -19 -18 -27 -34 -9 -16 -23 -29
-31 -29 -20 0 -136 115 -158 157 -16 32 -16 32 13 48 16 8 32 24 36 34 7 23
-24 88 -67 144 -36 45 -64 48 -100 10z m77 -34 c14 -18 35 -49 45 -69 l20 -38
-35 -21 c-21 -12 -35 -28 -35 -40 0 -31 79 -140 131 -181 66 -52 88 -58 111
-30 10 12 18 28 18 36 0 8 6 14 14 14 18 0 114 -71 121 -89 7 -18 -38 -66 -77
-82 -43 -18 -94 1 -178 67 -124 97 -240 261 -240 339 0 31 51 125 69 125 5 0
21 -14 36 -31z"/>
</g>
</svg>
