<svg width="28" height="28" viewBox="0 0 28 28" fill="none" xmlns="http://www.w3.org/2000/svg">
<g filter="url(#filter0_d_432_16513)">
<path d="M22 11.3985C21.9921 11.5952 21.8925 11.8198 21.6992 11.9971C20.9253 12.7066 20.1511 13.4154 19.3764 14.1235C19.0147 14.4547 18.6525 14.7854 18.2898 15.1156C18.2379 15.1626 18.2247 15.2043 18.2407 15.2772C18.5191 16.547 18.7953 17.8173 19.0692 19.0881C19.1246 19.3435 19.1792 19.5994 19.2391 19.8539C19.3264 20.2308 19.2149 20.6033 18.9334 20.8141C18.6237 21.046 18.2949 21.0611 17.9675 20.8585C16.9247 20.2115 15.8833 19.562 14.8432 18.9099C14.6003 18.7585 14.3546 18.6106 14.1158 18.4536C14.0359 18.4011 13.9779 18.4006 13.8959 18.4521C12.6311 19.2444 11.3634 20.0319 10.1001 20.8241C9.83176 20.9921 9.55772 21.0553 9.26115 20.9283C8.86878 20.7602 8.66378 20.3297 8.76129 19.8823C9.03703 18.6159 9.3132 17.3495 9.5898 16.0831C9.648 15.8171 9.70005 15.5491 9.76314 15.285C9.78141 15.2087 9.76867 15.1637 9.71322 15.1134C9.23793 14.682 8.76384 14.2491 8.29095 13.8147C7.62836 13.2076 6.96322 12.6048 6.30445 11.9934C6.0355 11.7442 5.93353 11.426 6.04379 11.0622C6.15404 10.6984 6.40047 10.4793 6.76799 10.4399C7.41932 10.3702 8.07172 10.3119 8.72369 10.2496C9.36865 10.188 10.0136 10.1268 10.6586 10.0661C10.8736 10.0459 11.0885 10.0233 11.3037 10.0062C11.373 10.0009 11.41 9.96918 11.4359 9.90333C12.0201 8.47068 12.6053 7.03861 13.1915 5.60713C13.3533 5.21139 13.6425 4.99035 14.01 5.00032C14.3775 5.0103 14.6426 5.19764 14.7884 5.54993C15.185 6.50836 15.5765 7.46901 15.9697 8.42922C16.1698 8.91697 16.3704 9.40605 16.5671 9.89602C16.5973 9.9714 16.6404 10.0007 16.7158 10.0069C17.2341 10.0527 17.7524 10.1007 18.2704 10.151C19.0247 10.2225 19.7789 10.2946 20.5331 10.3674C20.7727 10.3895 21.0126 10.4117 21.2516 10.4396C21.6862 10.4933 22.0034 10.8717 22 11.3985Z" fill="#FFE600"/>
</g>
<defs>
<filter id="filter0_d_432_16513" x="0.7" y="0.7" width="26.6" height="26.6" filterUnits="userSpaceOnUse" color-interpolation-filters="sRGB">
<feFlood flood-opacity="0" result="BackgroundImageFix"/>
<feColorMatrix in="SourceAlpha" type="matrix" values="0 0 0 0 0 0 0 0 0 0 0 0 0 0 0 0 0 0 127 0" result="hardAlpha"/>
<feOffset dy="1"/>
<feGaussianBlur stdDeviation="2.65"/>
<feComposite in2="hardAlpha" operator="out"/>
<feColorMatrix type="matrix" values="0 0 0 0 1 0 0 0 0 0.9 0 0 0 0 0 0 0 0 1 0"/>
<feBlend mode="normal" in2="BackgroundImageFix" result="effect1_dropShadow_432_16513"/>
<feBlend mode="normal" in="SourceGraphic" in2="effect1_dropShadow_432_16513" result="shape"/>
</filter>
</defs>
</svg>
