<svg width="42" height="42" viewBox="0 0 42 42" fill="none" xmlns="http://www.w3.org/2000/svg">
<path d="M21.0348 35.9269C16.9573 35.9269 12.8798 35.2794 9.01227 33.9844C7.54227 33.4769 6.42227 32.4444 5.93227 31.0969C5.42477 29.7494 5.59977 28.2619 6.40477 26.9319L8.41727 23.5894C8.83727 22.8894 9.22227 21.4894 9.22227 20.6669V15.6094C9.22227 9.09937 14.5248 3.79688 21.0348 3.79688C27.5448 3.79688 32.8473 9.09937 32.8473 15.6094V20.6669C32.8473 21.4719 33.2323 22.8894 33.6523 23.6069L35.6473 26.9319C36.3998 28.1919 36.5398 29.7144 36.0323 31.0969C35.5248 32.4794 34.4223 33.5294 33.0398 33.9844C29.1898 35.2794 25.1123 35.9269 21.0348 35.9269ZM21.0348 6.42188C15.9773 6.42188 11.8473 10.5344 11.8473 15.6094V20.6669C11.8473 21.9444 11.3223 23.8344 10.6748 24.9369L8.66227 28.2794C8.27727 28.9269 8.17227 29.6094 8.39977 30.1869C8.60977 30.7819 9.13477 31.2369 9.85227 31.4819C17.1673 33.9319 24.9198 33.9319 32.2348 31.4819C32.8648 31.2719 33.3548 30.7994 33.5823 30.1694C33.8098 29.5394 33.7573 28.8569 33.4073 28.2794L31.3948 24.9369C30.7298 23.7994 30.2223 21.9269 30.2223 20.6494V15.6094C30.2223 10.5344 26.1098 6.42188 21.0348 6.42188Z" fill="#211B53"/>
<path d="M24.2901 6.89641C24.1676 6.89641 24.0451 6.87891 23.9226 6.84391C23.4151 6.70391 22.9251 6.59891 22.4526 6.52891C20.9651 6.33641 19.5301 6.44141 18.1826 6.84391C17.6926 7.00141 17.1676 6.84391 16.8351 6.47641C16.5026 6.10891 16.3976 5.58391 16.5901 5.11141C17.3076 3.27391 19.0576 2.06641 21.0526 2.06641C23.0476 2.06641 24.7976 3.25641 25.5151 5.11141C25.6901 5.58391 25.6026 6.10891 25.2701 6.47641C25.0076 6.75641 24.6401 6.89641 24.2901 6.89641Z" fill="#211B53"/>
<path d="M21.0352 39.918C19.3027 39.918 17.6227 39.218 16.3977 37.993C15.1727 36.768 14.4727 35.088 14.4727 33.3555H17.0977C17.0977 34.388 17.5177 35.403 18.2527 36.138C18.9877 36.873 20.0027 37.293 21.0352 37.293C23.2052 37.293 24.9727 35.5255 24.9727 33.3555H27.5977C27.5977 36.978 24.6577 39.918 21.0352 39.918Z" fill="#211B53"/>
<g filter="url(#filter0_d_2722_13324)">
<circle cx="30" cy="10" r="6" fill="#FF0079"/>
<circle cx="30" cy="10" r="6.5" stroke="white"/>
</g>
<defs>
<filter id="filter0_d_2722_13324" x="22" y="2" width="16" height="16" filterUnits="userSpaceOnUse" color-interpolation-filters="sRGB">
<feFlood flood-opacity="0" result="BackgroundImageFix"/>
<feColorMatrix in="SourceAlpha" type="matrix" values="0 0 0 0 0 0 0 0 0 0 0 0 0 0 0 0 0 0 127 0" result="hardAlpha"/>
<feOffset/>
<feGaussianBlur stdDeviation="0.5"/>
<feComposite in2="hardAlpha" operator="out"/>
<feColorMatrix type="matrix" values="0 0 0 0 1 0 0 0 0 0 0 0 0 0 0.47451 0 0 0 1 0"/>
<feBlend mode="normal" in2="BackgroundImageFix" result="effect1_dropShadow_2722_13324"/>
<feBlend mode="normal" in="SourceGraphic" in2="effect1_dropShadow_2722_13324" result="shape"/>
</filter>
</defs>
</svg>
