<svg width="21" height="21" viewBox="0 0 21 21" fill="none" xmlns="http://www.w3.org/2000/svg">
<path d="M8.73539 14.6476H5.82816C2.91325 14.6476 2.02344 13.773 2.02344 10.9079V6.38421C2.02344 3.51913 2.91325 2.64453 5.82816 2.64453H13.9055C16.8204 2.64453 17.7102 3.51913 17.7102 6.38421C17.7102 6.69334 17.4494 6.94969 17.1349 6.94969C16.8204 6.94969 16.5596 6.69334 16.5596 6.38421C16.5596 4.16755 16.1607 3.77548 13.9055 3.77548H5.82816C3.57294 3.77548 3.17406 4.16755 3.17406 6.38421V10.9079C3.17406 13.1246 3.57294 13.5167 5.82816 13.5167H8.73539C9.0499 13.5167 9.3107 13.773 9.3107 14.0822C9.3107 14.3913 9.0499 14.6476 8.73539 14.6476Z" fill="#363636" stroke="#363636" stroke-width="0.4"/>
<path d="M8.73547 18.0523C8.42096 18.0523 8.16016 17.7959 8.16016 17.4868V14.0713C8.16016 13.7622 8.42096 13.5059 8.73547 13.5059C9.04997 13.5059 9.31078 13.7622 9.31078 14.0713V17.4868C9.31078 17.8035 9.04997 18.0523 8.73547 18.0523Z" fill="#363636" stroke="#363636" stroke-width="0.4"/>
<path d="M8.73539 11.631H2.59875C2.28424 11.631 2.02344 11.3746 2.02344 11.0655C2.02344 10.7563 2.28424 10.5 2.59875 10.5H8.73539C9.0499 10.5 9.3107 10.7563 9.3107 11.0655C9.3107 11.3746 9.0499 11.631 8.73539 11.631Z" fill="#363636" stroke="#363636" stroke-width="0.4"/>
<path d="M8.7342 18.0567H6.23351C5.91901 18.0567 5.6582 17.8004 5.6582 17.4913C5.6582 17.1821 5.91901 16.9258 6.23351 16.9258H8.7342C9.0487 16.9258 9.30951 17.1821 9.30951 17.4913C9.30951 17.8004 9.0487 18.0567 8.7342 18.0567Z" fill="#363636" stroke="#363636" stroke-width="0.4"/>
<path d="M15.6706 18.0539H12.9474C10.8226 18.0539 10.1016 17.3451 10.1016 15.2566V10.9515C10.1016 8.863 10.8226 8.1543 12.9474 8.1543H15.6706C17.7954 8.1543 18.5164 8.863 18.5164 10.9515V15.2566C18.5164 17.3527 17.7954 18.0539 15.6706 18.0539ZM12.9474 9.28522C11.444 9.28522 11.2522 9.47371 11.2522 10.9515V15.2566C11.2522 16.7344 11.444 16.9229 12.9474 16.9229H15.6706C17.174 16.9229 17.3658 16.7344 17.3658 15.2566V10.9515C17.3658 9.47371 17.174 9.28522 15.6706 9.28522H12.9474Z" fill="#363636" stroke="#363636" stroke-width="0.4"/>
<path d="M14.3354 15.6066C14.136 15.6066 13.9366 15.5312 13.7908 15.388C13.7218 15.3201 13.6681 15.2372 13.6297 15.1467C13.5914 15.0487 13.5684 14.9507 13.5684 14.8526C13.5684 14.6566 13.6527 14.4606 13.7908 14.3249C13.9672 14.1515 14.2357 14.0685 14.4889 14.1138C14.5349 14.1288 14.5809 14.1439 14.6269 14.159C14.673 14.1816 14.719 14.2042 14.7573 14.2268C14.8034 14.257 14.8417 14.2872 14.8801 14.3249C15.0181 14.4606 15.1025 14.6566 15.1025 14.8526C15.1025 14.9507 15.0795 15.0487 15.0412 15.1467C15.0028 15.2372 14.9491 15.3201 14.8801 15.388C14.8417 15.4257 14.8034 15.4558 14.7573 15.4784C14.719 15.5086 14.673 15.5312 14.6269 15.5538C14.5809 15.5689 14.5349 15.584 14.4889 15.5915C14.4352 15.6066 14.3891 15.6066 14.3354 15.6066Z" fill="#363636" stroke="#363636" stroke-width="0.4"/>
</svg>
