<svg width="40" height="38" viewBox="0 0 40 38" fill="none" xmlns="http://www.w3.org/2000/svg">
<path d="M17.4893 35.5504L16.7073 33.7096L17.4893 35.5504L20.0868 34.4471L22.6512 35.5444C24.4866 36.3297 26.62 35.6416 27.6506 33.9318L29.071 31.5753L31.7609 30.9923C33.7424 30.5629 35.0893 28.7187 34.8953 26.7005L34.6396 24.0388L36.4205 22.0663C37.7925 20.5467 37.7956 18.2364 36.4276 16.7131L34.6287 14.7099L34.889 12.0877C35.0894 10.0691 33.747 8.22001 31.7655 7.78544L29.0447 7.18874L27.6491 4.8574C26.6238 3.14451 24.4926 2.44983 22.6548 3.22949L20.056 4.33203L17.4905 3.23555C15.6554 2.45125 13.5229 3.13959 12.4927 4.8488L11.0719 7.20599L8.38204 7.78893C6.40042 8.21839 5.05358 10.0626 5.24761 12.081L5.50323 14.7399L3.72238 16.7124C2.35037 18.232 2.34728 20.5423 3.71522 22.0655L5.51418 24.0688L5.25372 26.6937C5.05343 28.7123 6.39587 30.5612 8.3773 30.9958L11.0982 31.5925L12.4933 33.9232C13.519 35.6367 15.6512 36.3311 17.4893 35.5504Z" fill="#42FEF4" stroke="#017DA1" stroke-width="4"/>
<path fill-rule="evenodd" clip-rule="evenodd" d="M18.8785 6.00376C19.629 6.32452 20.4778 6.32564 21.2291 6.00688L22.6345 5.41066C24.0128 4.82591 25.6112 5.34693 26.3802 6.63159L27.1067 7.8453C27.5315 8.5549 28.2303 9.05769 29.0382 9.23485L30.4683 9.54849C31.9544 9.87441 32.9613 11.2612 32.811 12.7752L32.6821 14.0735C32.5988 14.9122 32.8722 15.7473 33.4353 16.3743L34.338 17.3795C35.3639 18.5219 35.3616 20.2547 34.3326 21.3944L33.4505 22.3714C32.886 22.9966 32.6103 23.8303 32.6909 24.6688L32.8195 26.007C32.965 27.5207 31.9548 28.9038 30.4687 29.2259L29.0692 29.5292C28.2616 29.7043 27.5619 30.2047 27.1353 30.9125L26.3871 32.1537C25.6142 33.436 24.0141 33.9521 22.6376 33.3631L21.2656 32.776C20.5144 32.4546 19.6646 32.4535 18.9125 32.7729L17.509 33.3691C16.1305 33.9546 14.5313 33.4338 13.762 32.1487L13.0361 30.936C12.6114 30.2263 11.9125 29.7236 11.1047 29.5464L9.67445 29.2327C8.18837 28.9068 7.18155 27.5201 7.33177 26.0062L7.46086 24.7051C7.54408 23.8664 7.2707 23.0314 6.7076 22.4044L5.8049 21.3992C4.77895 20.2567 4.78126 18.524 5.81027 17.3843L6.69235 16.4073C7.25686 15.7821 7.53249 14.9483 7.45188 14.1098L7.32349 12.7743C7.17797 11.2606 8.18809 9.87739 9.67431 9.5553L11.0736 9.25203C11.8813 9.077 12.581 8.57655 13.0076 7.86877L13.7563 6.62657C14.529 5.34466 16.1283 4.8284 17.5047 5.41663L18.8785 6.00376Z" fill="#42FEF4"/>
</svg>
