<svg width="26" height="26" viewBox="0 0 26 26" fill="none" xmlns="http://www.w3.org/2000/svg">
<path d="M2.07155 12.8339C2.07126 10.8137 2.63779 8.83417 3.70626 7.1221C4.77473 5.41003 6.30194 4.0346 8.11303 3.15331C9.92411 2.27202 11.9458 1.92051 13.9467 2.13901C15.9476 2.35752 17.8467 3.13721 19.4266 4.38881H17.7963C17.6551 4.39019 17.5201 4.44746 17.4207 4.54819C17.3213 4.64892 17.2656 4.78495 17.2656 4.92671C17.2656 5.06848 17.3213 5.20451 17.4207 5.30524C17.5201 5.40596 17.6551 5.46324 17.7963 5.46461H20.8277C20.9698 5.46461 21.1061 5.40794 21.2066 5.30706C21.3071 5.20618 21.3636 5.06935 21.3636 4.92669V1.88376C21.3643 1.81268 21.3509 1.74218 21.3243 1.67631C21.2977 1.61045 21.2583 1.55053 21.2085 1.50003C21.1587 1.44953 21.0994 1.40943 21.034 1.38208C20.9687 1.35472 20.8985 1.34063 20.8277 1.34063C20.7569 1.34063 20.6868 1.35472 20.6214 1.38208C20.5561 1.40943 20.4968 1.44953 20.447 1.50003C20.3971 1.55053 20.3578 1.61045 20.3311 1.67631C20.3045 1.74218 20.2912 1.81268 20.2918 1.88376V3.70525C17.9551 1.77036 14.9661 0.812543 11.9447 1.03045C8.92324 1.24836 6.10132 2.62527 4.06417 4.87561C2.02702 7.12594 0.930981 10.077 1.00337 13.1168C1.07576 16.1565 2.31102 19.0516 4.45296 21.2017C4.50251 21.2526 4.56162 21.2931 4.62688 21.3209C4.69213 21.3487 4.76224 21.3632 4.83313 21.3636C4.90401 21.364 4.97428 21.3503 5.03985 21.3233C5.10542 21.2962 5.165 21.2564 5.21512 21.2061C5.26525 21.1558 5.30493 21.096 5.33187 21.0302C5.35881 20.9643 5.37247 20.8938 5.37206 20.8227C5.37165 20.7515 5.35718 20.6811 5.32949 20.6156C5.3018 20.5501 5.26143 20.4908 5.21073 20.4411C4.21237 19.4444 3.42087 18.2589 2.88203 16.9531C2.34319 15.6474 2.06771 14.2473 2.07155 12.8339Z" fill="white" stroke="white" stroke-width="0.4"/>
<path d="M8.0527 22.6123C7.83279 22.4767 7.61514 22.3256 7.40591 22.1638C7.31818 22.0959 7.21276 22.0749 7.11285 22.1056C7.01295 22.1362 6.92673 22.216 6.87317 22.3273C6.81962 22.4386 6.8031 22.5724 6.82727 22.6991C6.85144 22.8259 6.9143 22.9353 7.00204 23.0032C7.23237 23.1817 7.47194 23.3476 7.71401 23.4969C7.75979 23.5251 7.8095 23.5416 7.8603 23.5455C7.91111 23.5493 7.96201 23.5404 8.01011 23.5193C8.05821 23.4982 8.10256 23.4653 8.14062 23.4224C8.17869 23.3796 8.20974 23.3276 8.23198 23.2695C8.25422 23.2114 8.26723 23.1484 8.27026 23.0839C8.2733 23.0195 8.26629 22.9549 8.24965 22.8938C8.23301 22.8328 8.20706 22.7765 8.17328 22.7282C8.13949 22.6799 8.09855 22.6406 8.05277 22.6123H8.0527Z" fill="white" stroke="white" stroke-width="0.4"/>
<path d="M22.6093 8.05433C22.6375 8.10013 22.6769 8.14111 22.7252 8.17493C22.7734 8.20875 22.8297 8.23475 22.8908 8.25145C22.9518 8.26815 23.0164 8.27521 23.081 8.27224C23.1455 8.26928 23.2086 8.25633 23.2668 8.23415C23.325 8.21197 23.377 8.18098 23.42 8.14296C23.4629 8.10494 23.4959 8.06063 23.5171 8.01256C23.5383 7.96449 23.5473 7.91361 23.5436 7.86281C23.5398 7.81201 23.5233 7.76229 23.4952 7.7165C23.3469 7.47525 23.1811 7.23575 23.0026 7.0045C22.969 6.96102 22.9248 6.92317 22.8727 6.89312C22.8205 6.86307 22.7613 6.84141 22.6985 6.82937C22.5717 6.80505 22.4378 6.82139 22.3262 6.87481C22.2147 6.92823 22.1347 7.01434 22.1038 7.11421C22.0729 7.21407 22.0937 7.31951 22.1615 7.40732C22.3238 7.61754 22.4745 7.83525 22.6093 8.05433Z" fill="white" stroke="white" stroke-width="0.4"/>
<path d="M14.2061 23.5498C13.8597 23.6007 13.5093 23.631 13.1643 23.6414C13.0215 23.6481 12.8864 23.7237 12.7878 23.852C12.6893 23.9802 12.6351 24.1511 12.6368 24.3281C12.6384 24.5051 12.6958 24.6744 12.7967 24.7998C12.8977 24.9252 13.0341 24.9968 13.1771 24.9995C13.1813 24.9995 13.1859 24.9995 13.1902 24.9991C13.5695 24.9882 13.9544 24.9546 14.3348 24.899C14.4792 24.8777 14.6108 24.7863 14.7008 24.6448C14.7908 24.5034 14.8318 24.3235 14.8148 24.1447C14.7977 23.9659 14.7241 23.8028 14.61 23.6912C14.4959 23.5796 14.3506 23.5286 14.2062 23.5495L14.2061 23.5498Z" fill="white" stroke="white" stroke-width="0.4"/>
<path d="M11.4473 23.8073C11.1039 23.7449 10.7587 23.6637 10.4212 23.5653C10.2798 23.5242 10.1291 23.5458 10.0023 23.6256C9.87555 23.7053 9.7831 23.8365 9.74529 23.9903C9.70748 24.1442 9.72741 24.308 9.8007 24.4459C9.87399 24.5838 9.99464 24.6843 10.1361 24.7254C10.5075 24.8333 10.8875 24.9227 11.2656 24.9913C11.3371 25.0043 11.4103 25.0018 11.4809 24.984C11.5515 24.9662 11.6182 24.9335 11.6772 24.8877C11.7362 24.8419 11.7863 24.7839 11.8247 24.717C11.863 24.6502 11.8889 24.5757 11.9009 24.498C11.9128 24.4202 11.9105 24.3407 11.8942 24.2639C11.8778 24.1871 11.8477 24.1145 11.8056 24.0504C11.7635 23.9862 11.7102 23.9317 11.6487 23.89C11.5872 23.8482 11.5187 23.8201 11.4473 23.8071V23.8073Z" fill="white" stroke="white" stroke-width="0.4"/>
<path d="M24.3399 12.6369C24.16 12.6334 23.9857 12.6875 23.8554 12.7874C23.725 12.8873 23.6493 13.0248 23.6448 13.1697C23.6338 13.5152 23.6027 13.8642 23.5516 14.2073C23.5304 14.3512 23.5809 14.496 23.6922 14.6099C23.8035 14.7239 23.9663 14.7975 24.145 14.8148C24.1721 14.8172 24.1993 14.8185 24.2265 14.8185C24.3924 14.8183 24.5524 14.7692 24.6764 14.6805C24.8003 14.5918 24.8797 14.4696 24.8994 14.337C24.9551 13.96 24.9896 13.5766 25.0012 13.1969C25.0035 13.1252 24.9882 13.0538 24.9561 12.9868C24.9241 12.9198 24.876 12.8586 24.8146 12.8065C24.7532 12.7545 24.6797 12.7128 24.5982 12.6837C24.5168 12.6546 24.429 12.6387 24.3399 12.6369Z" fill="white" stroke="white" stroke-width="0.4"/>
<path d="M22.6193 19.2512C22.5198 19.1912 22.3976 19.1688 22.2795 19.1888C22.1615 19.2088 22.0571 19.2697 21.9895 19.3581C21.8283 19.569 21.6541 19.7756 21.4712 19.9719C21.4323 20.0125 21.4029 20.0597 21.3847 20.1106C21.3665 20.1614 21.3598 20.215 21.365 20.2682C21.3702 20.3214 21.3873 20.3731 21.4152 20.4204C21.4431 20.4676 21.4813 20.5095 21.5275 20.5436C21.5737 20.5776 21.6271 20.6032 21.6845 20.6187C21.7419 20.6343 21.8023 20.6395 21.862 20.6342C21.9217 20.6288 21.9796 20.613 22.0324 20.5875C22.0852 20.5621 22.1318 20.5276 22.1694 20.4861C22.3704 20.2702 22.5624 20.0432 22.7395 19.8112C22.7729 19.7674 22.7963 19.7182 22.8084 19.6664C22.8205 19.6145 22.821 19.5611 22.8098 19.5091C22.7986 19.4571 22.7761 19.4075 22.7434 19.3633C22.7107 19.319 22.6685 19.2809 22.6193 19.2512Z" fill="white" stroke="white" stroke-width="0.4"/>
<path d="M23.567 10.4205C23.6644 10.7566 23.7454 11.1018 23.8079 11.4467C23.8312 11.5756 23.9035 11.6927 24.0119 11.7772C24.1203 11.8617 24.2578 11.9082 24.4 11.9084C24.4331 11.9083 24.4662 11.9058 24.4989 11.9008C24.5767 11.889 24.6513 11.8631 24.7183 11.8248C24.7853 11.7865 24.8434 11.7364 24.8893 11.6774C24.9352 11.6185 24.968 11.5518 24.9859 11.4812C25.0037 11.4106 25.0062 11.3374 24.9933 11.2659C24.9249 10.8865 24.8355 10.5063 24.7285 10.1365C24.6875 9.99501 24.587 9.87431 24.4491 9.80093C24.3112 9.72755 24.1472 9.70748 23.9932 9.74515C23.8392 9.78282 23.7077 9.87514 23.6278 10.0018C23.5479 10.1285 23.5261 10.2791 23.5671 10.4205H23.567Z" fill="white" stroke="white" stroke-width="0.4"/>
<path d="M19.9762 21.4675C19.7786 21.6514 19.5716 21.8261 19.361 21.9867C19.317 22.0202 19.2794 22.0631 19.2502 22.113C19.221 22.1629 19.2008 22.2187 19.1908 22.2774C19.1808 22.336 19.1812 22.3963 19.1919 22.4548C19.2026 22.5133 19.2234 22.5688 19.2532 22.6183C19.283 22.6677 19.3212 22.71 19.3655 22.7429C19.4098 22.7757 19.4595 22.7984 19.5116 22.8097C19.5637 22.8209 19.6173 22.8205 19.6693 22.8085C19.7213 22.7964 19.7706 22.773 19.8146 22.7395C20.0463 22.5629 20.2739 22.3709 20.4914 22.1688C20.574 22.092 20.6262 21.9813 20.6363 21.8612C20.6465 21.7411 20.6138 21.6214 20.5455 21.5284C20.4772 21.4354 20.3788 21.3767 20.272 21.3653C20.1653 21.3539 20.0589 21.3907 19.9762 21.4675Z" fill="white" stroke="white" stroke-width="0.4"/>
<path d="M23.8967 16.2998C23.7609 16.2548 23.6134 16.2678 23.4868 16.3361C23.3601 16.4044 23.2646 16.5223 23.2212 16.6639C23.1183 17.0006 22.998 17.3369 22.8638 17.6638C22.8345 17.7317 22.8184 17.8051 22.8166 17.8796C22.8147 17.9541 22.8271 18.0283 22.853 18.0977C22.8789 18.1672 22.9178 18.2305 22.9675 18.2841C23.0171 18.3377 23.0765 18.3805 23.1421 18.4098C23.2078 18.4392 23.2784 18.4546 23.3498 18.4552C23.4212 18.4558 23.492 18.4416 23.5581 18.4133C23.6242 18.385 23.6842 18.3433 23.7346 18.2905C23.7851 18.2377 23.8249 18.175 23.8519 18.106C24 17.7462 24.1323 17.3755 24.2454 17.0048C24.2669 16.9346 24.275 16.8607 24.2691 16.7873C24.2632 16.7138 24.2435 16.6423 24.2111 16.5769C24.1787 16.5114 24.1343 16.4532 24.0803 16.4057C24.0264 16.3581 23.964 16.3222 23.8967 16.2998Z" fill="white" stroke="white" stroke-width="0.4"/>
<path d="M17.67 22.8619C17.345 22.9952 17.0072 23.1155 16.6657 23.2198C16.5952 23.2413 16.5299 23.2759 16.4733 23.3216C16.4168 23.3673 16.3702 23.4232 16.3363 23.4861C16.3023 23.5491 16.2816 23.6178 16.2754 23.6883C16.2692 23.7589 16.2776 23.8299 16.3001 23.8974C16.3225 23.9649 16.3587 24.0275 16.4064 24.0816C16.4541 24.1357 16.5126 24.1803 16.5783 24.2128C16.644 24.2453 16.7158 24.2651 16.7895 24.271C16.8633 24.2769 16.9375 24.2689 17.008 24.2474C17.3835 24.1328 17.7556 24.0004 18.1135 23.8537C18.2509 23.7974 18.3593 23.6911 18.4149 23.5583C18.4704 23.4255 18.4686 23.277 18.4097 23.1455C18.3509 23.0139 18.2399 22.9102 18.1011 22.857C17.9623 22.8038 17.8072 22.8056 17.6698 22.8619H17.67Z" fill="white" stroke="white" stroke-width="0.4"/>
<path d="M17.0668 12.1686C17.0668 11.3639 16.5377 10.7191 15.7188 10.5257C15.2689 10.4192 14.7962 10.4683 14.3778 10.665C13.9594 10.8617 13.62 11.1944 13.4151 11.6089C13.3577 11.7253 13.3487 11.8596 13.3901 11.9826C13.4315 12.1056 13.5199 12.2072 13.6359 12.2652C13.752 12.3233 13.8863 12.333 14.0095 12.2923C14.1327 12.2516 14.2348 12.1638 14.2935 12.0481C14.3983 11.8305 14.5747 11.6556 14.793 11.5524C15.0114 11.4493 15.2585 11.4242 15.4931 11.4815C15.632 11.5142 16.0848 11.6607 16.0848 12.1686C16.0848 12.6806 15.4934 13.0756 14.8672 13.4939C14.1621 13.9645 13.3633 14.4979 13.3633 15.3811C13.3633 15.5113 13.415 15.6362 13.5071 15.7283C13.5992 15.8204 13.7241 15.8721 13.8543 15.8721H16.5758C16.6407 15.8727 16.7051 15.8605 16.7652 15.8361C16.8253 15.8117 16.88 15.7756 16.9261 15.73C16.9722 15.6843 17.0088 15.63 17.0337 15.5701C17.0587 15.5102 17.0716 15.446 17.0716 15.3811C17.0716 15.3162 17.0587 15.252 17.0337 15.1921C17.0088 15.1322 16.9722 15.0779 16.9261 15.0322C16.88 14.9866 16.8253 14.9505 16.7652 14.9261C16.7051 14.9017 16.6407 14.8895 16.5758 14.8901H14.6306C14.8363 14.6952 15.1271 14.501 15.4124 14.3104C16.188 13.7926 17.0668 13.2057 17.0668 12.1686Z" fill="white"/>
<path d="M21.3574 13.7856C21.3574 13.6554 21.3057 13.5305 21.2136 13.4385C21.1215 13.3464 20.9966 13.2947 20.8664 13.2947H20.4675V10.6863C20.4674 10.5846 20.4359 10.4854 20.3771 10.4024C20.3183 10.3195 20.2352 10.2568 20.1392 10.2231C20.0433 10.1894 19.9393 10.1863 19.8415 10.2142C19.7437 10.2422 19.657 10.2998 19.5934 10.3791L17.1078 13.4786C17.0499 13.5508 17.0137 13.6378 17.0032 13.7297C16.9927 13.8217 17.0083 13.9147 17.0484 13.9981C17.0884 14.0815 17.1512 14.1519 17.2295 14.2011C17.3078 14.2504 17.3984 14.2766 17.4909 14.2766H19.4855V15.6575C19.4849 15.7224 19.4971 15.7868 19.5215 15.8469C19.5459 15.907 19.582 15.9617 19.6276 16.0078C19.6733 16.0539 19.7276 16.0905 19.7875 16.1155C19.8474 16.1404 19.9116 16.1533 19.9765 16.1533C20.0414 16.1533 20.1056 16.1404 20.1655 16.1155C20.2254 16.0905 20.2797 16.0539 20.3253 16.0078C20.371 15.9617 20.4071 15.907 20.4315 15.8469C20.4559 15.7868 20.4681 15.7224 20.4675 15.6575V14.2766H20.8664C20.9966 14.2766 21.1215 14.2249 21.2136 14.1328C21.3057 14.0407 21.3574 13.9158 21.3574 13.7856ZM19.4855 13.2947H18.5143L19.4855 12.0832V13.2947Z" fill="white"/>
<path d="M12.1452 9.92963C12.0819 9.91685 12.0168 9.91669 11.9535 9.92914C11.8902 9.94159 11.83 9.96643 11.7763 10.0022C11.7226 10.038 11.6765 10.084 11.6407 10.1377C11.6048 10.1913 11.5799 10.2515 11.5674 10.3148L10.4627 15.8384C10.4371 15.9661 10.4633 16.0987 10.5355 16.207C10.6077 16.3154 10.72 16.3906 10.8477 16.4162C10.8795 16.4225 10.9119 16.4257 10.9444 16.4257C11.0578 16.4256 11.1676 16.3862 11.2553 16.3143C11.343 16.2424 11.403 16.1423 11.4253 16.0311L12.53 10.5075C12.5427 10.4443 12.5428 10.3792 12.5304 10.3159C12.5179 10.2527 12.4931 10.1925 12.4573 10.1388C12.4216 10.0852 12.3756 10.0391 12.3221 10.0032C12.2685 9.96727 12.2084 9.94228 12.1452 9.92963Z" fill="white"/>
<path d="M7.46638 16.1433C7.56334 16.1433 7.65812 16.1145 7.73879 16.0607C7.81945 16.0069 7.88241 15.9305 7.91973 15.841L9.76094 11.4221C9.79207 11.3475 9.8043 11.2663 9.79653 11.1859C9.78876 11.1054 9.76124 11.0281 9.7164 10.9608C9.67157 10.8936 9.61081 10.8384 9.53954 10.8003C9.46826 10.7621 9.38866 10.7422 9.30782 10.7422H6.82219C6.69279 10.7434 6.56913 10.7957 6.47807 10.8877C6.38702 10.9796 6.33594 11.1038 6.33594 11.2332C6.33594 11.3626 6.38702 11.4867 6.47807 11.5787C6.56913 11.6706 6.69279 11.7229 6.82219 11.7241H8.57133L7.01349 15.4634C6.9825 15.538 6.97039 15.6191 6.9782 15.6995C6.98602 15.7799 7.01354 15.8571 7.05831 15.9244C7.10309 15.9916 7.16375 16.0468 7.23492 16.085C7.30609 16.1232 7.38559 16.1431 7.46638 16.1433Z" fill="white"/>
</svg>
