<svg width="18" height="16" viewBox="0 0 18 16" fill="none" xmlns="http://www.w3.org/2000/svg">
<path d="M3.24883 0H14.7505C16.0033 0 17.0169 1.01139 17.0169 2.26153V13.7385C17.0169 14.9886 16.0033 16 14.7505 16H3.24883C1.996 16 0.982422 14.9886 0.982422 13.7385V2.26587C0.982422 1.01574 1.996 0 3.24883 0Z" fill="white"/>
<path d="M4.89231 1.04492C4.64 1.04492 4.43555 1.24894 4.43555 1.5007C4.43555 1.75246 4.64 1.95214 4.89231 1.95214C5.14461 1.95214 5.34907 1.74812 5.34907 1.5007C5.34472 1.24894 5.14461 1.04492 4.89231 1.04492ZM13.0531 1.04492C12.8008 1.04492 12.5963 1.24894 12.5963 1.5007C12.5963 1.75246 12.8008 1.95214 13.0531 1.95214C13.3054 1.95214 13.5099 1.74812 13.5099 1.5007C13.5099 1.24894 13.3054 1.04492 13.0531 1.04492Z" fill="#026985"/>
<path d="M4.87445 1.4375C4.71349 1.44618 4.72219 1.67624 4.72219 1.67624C5.57481 3.33441 7.1452 4.14613 8.95485 4.14613C10.7601 4.14179 12.3479 3.32139 13.1962 1.66756C13.1962 1.66756 13.231 1.35503 12.896 1.46354C12.0217 2.90901 10.5557 3.7598 8.95485 3.76414C7.34531 3.76414 5.88802 2.9177 5.01365 1.47223C4.95275 1.44618 4.90925 1.4375 4.87445 1.4375ZM10.6383 7.87483L10.1511 9.31596L9.68131 7.87483H9.2202L9.96407 9.96707H10.3208L10.808 8.59106L11.2952 9.96707H11.6563L12.4001 7.87483H11.9521L11.4779 9.31596L10.995 7.87483H10.6383ZM8.06307 7.87483L7.12345 9.96707H7.56716L7.74987 9.56338L7.76292 9.533H8.74169L8.93309 9.97141H9.38551L8.45458 7.88785L8.44588 7.87483H8.06307ZM14.8753 7.87483V9.96707H15.306V7.87483H14.8753ZM2.62109 7.87917V9.97575H3.0561V9.12497H4.03053V9.97575H4.46554V7.87917H4.03053V8.72562H3.05175V7.87917H2.62109ZM6.47094 7.87917V9.07722C6.47094 9.42014 6.29693 9.59811 5.98372 9.59811C5.67052 9.59811 5.49651 9.41146 5.49651 9.05986V7.87483H5.0615V9.07288C5.0615 9.66322 5.39646 10.0018 5.97502 10.0018C6.56229 10.0018 6.9016 9.65888 6.9016 9.05552V7.87483C6.90595 7.87917 6.47094 7.87917 6.47094 7.87917ZM12.7481 7.87917V9.97141H14.362V9.58943H13.1788V9.06854H13.9662V8.68655H13.1788V8.25682H14.3229V7.87483H12.7481V7.87917ZM8.25013 8.40874L8.55899 9.11195L8.58074 9.15969H7.92387L7.94562 9.11195L8.25013 8.40874Z" fill="#026985"/>
</svg>
