<svg width="14" height="16" viewBox="0 0 14 16" fill="none" xmlns="http://www.w3.org/2000/svg">
<path d="M11.5047 8.33874C11.5129 7.72547 11.6811 7.12416 11.9936 6.59076C12.3062 6.05736 12.753 5.60921 13.2924 5.28799C12.9497 4.81396 12.4977 4.42385 11.9721 4.14865C11.4465 3.87344 10.8619 3.72073 10.2647 3.70263C8.9908 3.57312 7.75582 4.44093 7.10665 4.44093C6.44494 4.44093 5.44547 3.71549 4.3692 3.73693C3.67304 3.75872 2.99458 3.95479 2.39992 4.30605C1.80526 4.6573 1.31468 5.15176 0.975983 5.74125C-0.491139 8.20151 0.603204 11.8173 2.00861 13.806C2.71177 14.7798 3.53355 15.8676 4.60885 15.829C5.6611 15.7867 6.05409 15.1791 7.32423 15.1791C8.58259 15.1791 8.95129 15.829 10.0484 15.8045C11.1775 15.7867 11.8889 14.8263 12.5674 13.8433C13.0726 13.1494 13.4614 12.3825 13.7193 11.5711C13.0633 11.3023 12.5035 10.8525 12.1097 10.2777C11.7159 9.70294 11.5055 9.02858 11.5047 8.33874Z" fill="white"/>
<path d="M9.43162 2.56475C10.0473 1.84895 10.3506 0.928903 10.2771 0C9.33657 0.0956794 8.46776 0.531064 7.84381 1.2194C7.53874 1.55568 7.30509 1.94689 7.15621 2.37067C7.00734 2.79445 6.94616 3.2425 6.97617 3.6892C7.44662 3.69389 7.91203 3.59513 8.33735 3.40036C8.76268 3.20558 9.13682 2.91988 9.43162 2.56475Z" fill="white"/>
</svg>
