<svg width="26" height="26" viewBox="0 0 26 26" fill="none" xmlns="http://www.w3.org/2000/svg">
<path d="M17.0963 2.16602H8.9063C4.8113 2.16602 3.79297 3.26018 3.79297 7.62602V19.8243C3.79297 22.706 5.37464 23.3885 7.29214 21.3302L7.30297 21.3193C8.1913 20.3769 9.54547 20.4527 10.3146 21.4818L11.4088 22.9443C12.2863 24.1035 13.7055 24.1035 14.583 22.9443L15.6771 21.4818C16.4571 20.4418 17.8113 20.366 18.6996 21.3193C20.628 23.3777 22.1988 22.6952 22.1988 19.8135V7.62602C22.2096 3.26018 21.1913 2.16602 17.0963 2.16602ZM16.2513 12.7285H9.7513C9.30714 12.7285 8.9388 12.3602 8.9388 11.916C8.9388 11.4718 9.30714 11.1035 9.7513 11.1035H16.2513C16.6955 11.1035 17.0638 11.4718 17.0638 11.916C17.0638 12.3602 16.6955 12.7285 16.2513 12.7285ZM17.3346 8.39518H8.66797C8.2238 8.39518 7.85547 8.02685 7.85547 7.58268C7.85547 7.13852 8.2238 6.77018 8.66797 6.77018H17.3346C17.7788 6.77018 18.1471 7.13852 18.1471 7.58268C18.1471 8.02685 17.7788 8.39518 17.3346 8.39518Z" fill="#026985"/>
</svg>
