<svg width="29" height="28" viewBox="0 0 29 28" fill="none" xmlns="http://www.w3.org/2000/svg">
<path d="M22.5 13.81H19.61C17.24 13.81 15.31 15.74 15.31 18.11V21C15.31 21.55 14.86 22 14.31 22H10.07C6.99 22 4.5 20 4.5 16.43V7.57C4.5 4 6.99 2 10.07 2H17.93C21.01 2 23.5 4 23.5 7.57V12.81C23.5 13.36 23.05 13.81 22.5 13.81ZM13.5 6.25H9.5C9.09 6.25 8.75 6.59 8.75 7C8.75 7.41 9.09 7.75 9.5 7.75H13.5C13.91 7.75 14.25 7.41 14.25 7C14.25 6.59 13.91 6.25 13.5 6.25ZM15.5 10.25H9.5C9.09 10.25 8.75 10.59 8.75 11C8.75 11.41 9.09 11.75 9.5 11.75H15.5C15.91 11.75 16.25 11.41 16.25 11C16.25 10.59 15.91 10.25 15.5 10.25Z" fill="#3D79AF"/>
<rect x="13" y="11.5" width="16" height="16" rx="8" fill="white"/>
<path d="M20.9987 12.834C17.3254 12.834 14.332 15.8273 14.332 19.5007C14.332 23.174 17.3254 26.1673 20.9987 26.1673C24.672 26.1673 27.6654 23.174 27.6654 19.5007C27.6654 15.8273 24.672 12.834 20.9987 12.834ZM24.1854 17.9673L20.4054 21.7473C20.312 21.8407 20.1854 21.894 20.052 21.894C19.9187 21.894 19.792 21.8407 19.6987 21.7473L17.812 19.8607C17.6187 19.6673 17.6187 19.3473 17.812 19.154C18.0054 18.9607 18.3254 18.9607 18.5187 19.154L20.052 20.6873L23.4787 17.2607C23.672 17.0673 23.992 17.0673 24.1854 17.2607C24.3787 17.454 24.3787 17.7673 24.1854 17.9673Z" fill="#3D79AF"/>
</svg>
