<svg width="21" height="21" viewBox="0 0 21 21" fill="none" xmlns="http://www.w3.org/2000/svg">
<path d="M13.9679 19.0103H3.56539C2.81331 19.0103 2.11664 18.662 1.66539 18.0524C1.20623 17.4349 1.07165 16.6591 1.30123 15.9228L4.63414 5.21153C4.93498 4.21403 5.85332 3.5332 6.89832 3.5332H16.6358C17.5937 3.5332 18.4567 4.10327 18.8208 4.98994C19.0187 5.44911 19.0583 5.97162 18.9396 6.4862L16.2717 17.1974C16.0183 18.2661 15.0683 19.0103 13.9679 19.0103ZM6.90622 4.72863C6.39164 4.72863 5.92456 5.06909 5.77415 5.56784L2.44124 16.2791C2.3304 16.6512 2.39373 17.0391 2.63123 17.3558C2.85289 17.6566 3.20123 17.8307 3.57331 17.8307H13.9758C14.5221 17.8307 14.9971 17.4587 15.1237 16.9282L17.7916 6.20904C17.855 5.94779 17.8392 5.68658 17.7362 5.457C17.5462 5.00575 17.1267 4.7207 16.6437 4.7207H6.90622V4.72863Z" fill="#363636"/>
<path d="M17.4502 19.0112H13.666C13.3414 19.0112 13.0723 18.742 13.0723 18.4174C13.0723 18.0928 13.3414 17.8237 13.666 17.8237H17.4502C17.7748 17.8237 18.0756 17.6891 18.2973 17.4516C18.5189 17.2141 18.6298 16.8974 18.606 16.5729L17.8223 5.79037C17.7985 5.46579 18.0439 5.18075 18.3685 5.157C18.6931 5.14116 18.9781 5.37862 19.0018 5.7032L19.7856 16.4858C19.8331 17.135 19.6035 17.7841 19.1602 18.2591C18.7248 18.742 18.0993 19.0112 17.4502 19.0112Z" fill="#363636"/>
<path d="M8.66372 6.64432C8.61622 6.64432 8.56872 6.63638 8.52122 6.62847C8.20456 6.5493 8.00665 6.23261 8.08582 5.90802L8.90913 2.48807C8.9883 2.1714 9.30497 1.97344 9.62955 2.05261C9.94622 2.13178 10.1441 2.44847 10.065 2.77305L9.24164 6.19311C9.17831 6.46227 8.93288 6.64432 8.66372 6.64432Z" fill="#363636"/>
<path d="M13.9684 6.65254C13.9288 6.65254 13.8813 6.65253 13.8417 6.63669C13.525 6.56544 13.3192 6.24876 13.3825 5.9321L14.1267 2.49629C14.1979 2.17171 14.5146 1.97383 14.8313 2.03716C15.1479 2.10049 15.3538 2.42499 15.2904 2.74166L14.5463 6.17756C14.4909 6.46256 14.2455 6.65254 13.9684 6.65254Z" fill="#363636"/>
<path d="M13.429 11.0938H7.0957C6.77112 11.0938 6.50195 10.8246 6.50195 10.5C6.50195 10.1754 6.77112 9.90625 7.0957 9.90625H13.429C13.7536 9.90625 14.0228 10.1754 14.0228 10.5C14.0228 10.8246 13.7536 11.0938 13.429 11.0938Z" fill="black"/>
<path d="M12.638 14.2598H6.30469C5.9801 14.2598 5.71094 13.9906 5.71094 13.666C5.71094 13.3414 5.9801 13.0723 6.30469 13.0723H12.638C12.9626 13.0723 13.2318 13.3414 13.2318 13.666C13.2318 13.9906 12.9626 14.2598 12.638 14.2598Z" fill="black"/>
</svg>
