<svg width="30" height="31" viewBox="0 0 30 31" fill="none" xmlns="http://www.w3.org/2000/svg">
<path d="M15 29.4258C7.5875 29.4258 1.5625 23.4008 1.5625 15.9883C1.5625 8.57578 7.5875 2.55078 15 2.55078C22.4125 2.55078 28.4375 8.57578 28.4375 15.9883C28.4375 23.4008 22.4125 29.4258 15 29.4258ZM15 4.42578C8.625 4.42578 3.4375 9.61328 3.4375 15.9883C3.4375 22.3633 8.625 27.5508 15 27.5508C21.375 27.5508 26.5625 22.3633 26.5625 15.9883C26.5625 9.61328 21.375 4.42578 15 4.42578Z" fill="#363636"/>
<path d="M13.425 21.3375C13.1875 21.3375 12.95 21.25 12.7625 21.0625C12.4 20.7 12.4 20.1 12.7625 19.7375L16.5125 15.9875L12.7625 12.2375C12.4 11.875 12.4 11.275 12.7625 10.9125C13.125 10.55 13.725 10.55 14.0875 10.9125L18.5 15.325C18.8625 15.6875 18.8625 16.2875 18.5 16.65L14.0875 21.0625C13.9 21.25 13.6625 21.3375 13.425 21.3375Z" fill="#363636"/>
</svg>
