<svg width="20" height="20" viewBox="0 0 20 20" fill="none" xmlns="http://www.w3.org/2000/svg">
<path d="M12.5013 18.9577H7.5013C2.9763 18.9577 1.04297 17.0243 1.04297 12.4993V7.49935C1.04297 2.97435 2.9763 1.04102 7.5013 1.04102H12.5013C17.0263 1.04102 18.9596 2.97435 18.9596 7.49935V12.4993C18.9596 17.0243 17.0263 18.9577 12.5013 18.9577ZM7.5013 2.29102C3.65964 2.29102 2.29297 3.65768 2.29297 7.49935V12.4993C2.29297 16.341 3.65964 17.7077 7.5013 17.7077H12.5013C16.343 17.7077 17.7096 16.341 17.7096 12.4993V7.49935C17.7096 3.65768 16.343 2.29102 12.5013 2.29102H7.5013Z" fill="#026985" fill-opacity="0.5"/>
<path d="M9.99818 12.4259C9.83984 12.4259 9.68151 12.3676 9.55651 12.2426L6.61484 9.30091C6.37318 9.05924 6.37318 8.65924 6.61484 8.41758C6.85651 8.17591 7.25651 8.17591 7.49818 8.41758L9.99818 10.9176L12.4982 8.41758C12.7398 8.17591 13.1398 8.17591 13.3815 8.41758C13.6232 8.65924 13.6232 9.05924 13.3815 9.30091L10.4398 12.2426C10.3148 12.3676 10.1565 12.4259 9.99818 12.4259Z" fill="#026985" fill-opacity="0.5"/>
</svg>
