<svg width="30" height="30" viewBox="0 0 30 30" fill="none" xmlns="http://www.w3.org/2000/svg">
<path d="M11.668 9.79102C11.3263 9.79102 11.043 9.50768 11.043 9.16602V6.66602C11.043 6.32435 11.3263 6.04102 11.668 6.04102C12.0096 6.04102 12.293 6.32435 12.293 6.66602V9.16602C12.293 9.50768 12.0096 9.79102 11.668 9.79102Z" fill="#363636"/>
<path d="M18.332 9.79102C17.9904 9.79102 17.707 9.50768 17.707 9.16602V6.66602C17.707 6.32435 17.9904 6.04102 18.332 6.04102C18.6737 6.04102 18.957 6.32435 18.957 6.66602V9.16602C18.957 9.50768 18.6737 9.79102 18.332 9.79102Z" fill="#363636"/>
<path d="M12.0833 17.0839C11.975 17.0839 11.8667 17.0589 11.7667 17.0173C11.6583 16.9756 11.575 16.9172 11.4917 16.8422C11.3417 16.6839 11.25 16.4756 11.25 16.2506C11.25 16.1423 11.275 16.0339 11.3167 15.9339C11.3583 15.8339 11.4167 15.7423 11.4917 15.6589C11.575 15.5839 11.6583 15.5256 11.7667 15.4839C12.0667 15.3589 12.4417 15.4256 12.675 15.6589C12.825 15.8173 12.9167 16.0339 12.9167 16.2506C12.9167 16.3006 12.9083 16.3589 12.9 16.4173C12.8917 16.4673 12.875 16.5173 12.85 16.5673C12.8333 16.6173 12.8083 16.6672 12.775 16.7172C12.75 16.7589 12.7083 16.8006 12.675 16.8422C12.5167 16.9922 12.3 17.0839 12.0833 17.0839Z" fill="#363636"/>
<path d="M15.0013 17.0837C14.893 17.0837 14.7846 17.0587 14.6846 17.0171C14.5763 16.9754 14.493 16.917 14.4096 16.842C14.2596 16.6837 14.168 16.4754 14.168 16.2504C14.168 16.142 14.193 16.0337 14.2346 15.9337C14.2763 15.8337 14.3346 15.7421 14.4096 15.6587C14.493 15.5837 14.5763 15.5254 14.6846 15.4837C14.9846 15.3504 15.3596 15.4254 15.593 15.6587C15.743 15.8171 15.8346 16.0337 15.8346 16.2504C15.8346 16.3004 15.8263 16.3587 15.818 16.4171C15.8096 16.4671 15.793 16.5171 15.768 16.5671C15.7513 16.6171 15.7263 16.667 15.693 16.717C15.668 16.7587 15.6263 16.8004 15.593 16.842C15.4346 16.992 15.218 17.0837 15.0013 17.0837Z" fill="#363636"/>
<path d="M12.0833 20C11.975 20 11.8667 19.975 11.7667 19.9333C11.6667 19.8917 11.575 19.8333 11.4917 19.7583C11.3417 19.6 11.25 19.3833 11.25 19.1667C11.25 19.0583 11.275 18.95 11.3167 18.85C11.3583 18.7417 11.4167 18.65 11.4917 18.575C11.8 18.2667 12.3667 18.2667 12.675 18.575C12.825 18.7333 12.9167 18.95 12.9167 19.1667C12.9167 19.3833 12.825 19.6 12.675 19.7583C12.5167 19.9083 12.3 20 12.0833 20Z" fill="#363636"/>
<path d="M22.0846 13.1992H7.91797C7.5763 13.1992 7.29297 12.9159 7.29297 12.5742C7.29297 12.2326 7.5763 11.9492 7.91797 11.9492H22.0846C22.4263 11.9492 22.7096 12.2326 22.7096 12.5742C22.7096 12.9159 22.4263 13.1992 22.0846 13.1992Z" fill="#363636"/>
<path fill-rule="evenodd" clip-rule="evenodd" d="M23.125 14.9722V12.0827C23.125 9.04102 21.375 7.29102 18.3333 7.29102H11.6667C8.625 7.29102 6.875 9.04102 6.875 12.0827V19.166C6.875 22.2077 8.625 23.9577 11.6667 23.9577H13.2581C13.1491 23.5535 13.073 23.1358 13.033 22.7077H11.6667C9.28333 22.7077 8.125 21.5493 8.125 19.166V12.0827C8.125 9.69935 9.28333 8.54102 11.6667 8.54102H18.3333C20.7167 8.54102 21.875 9.69935 21.875 12.0827V14.6258C22.3057 14.7056 22.7235 14.8222 23.125 14.9722Z" fill="#363636"/>
<path d="M19.0894 21.9381C18.4922 21.3789 17.6689 22.2636 18.2059 22.8561L18.2042 22.8511C18.5703 23.1615 19.0813 23.6623 19.4295 23.9961C19.5524 24.1074 19.7125 24.1655 19.8763 24.1583C20.0401 24.1512 20.1949 24.0793 20.3081 23.9577L22.7911 21.0084C23.3476 20.3992 22.4543 19.5112 21.8832 20.1154L19.8184 22.6191C19.6068 22.4238 19.3009 22.135 19.0894 21.9381Z" fill="#363636"/>
<path d="M16.7559 17.2212C16.7179 17.3653 16.7373 17.519 16.8098 17.6485L17.0831 18.1325C17.1577 18.2576 17.2769 18.3479 17.4153 18.3841C17.5538 18.4204 17.7006 18.3998 17.8244 18.3267C17.9483 18.2536 18.0394 18.1338 18.0785 17.9928C18.1175 17.8518 18.1013 17.7007 18.0334 17.5717L17.7617 17.0877C17.6892 16.9582 17.5695 16.8636 17.429 16.8246C17.2884 16.7856 17.1386 16.8055 17.0124 16.8799C16.8861 16.9543 16.7939 17.077 16.7559 17.2212Z" fill="#363636"/>
<path d="M15.0215 19.7614C15.0654 19.8202 15.1201 19.8696 15.1826 19.9068L15.1875 19.9118L15.6594 20.1922C15.7856 20.2672 15.9357 20.2878 16.0767 20.2493C16.1465 20.2302 16.212 20.1972 16.2694 20.1522C16.3267 20.1072 16.3749 20.051 16.4111 19.9869C16.4474 19.9228 16.4709 19.852 16.4805 19.7785C16.49 19.7051 16.4853 19.6304 16.4668 19.5588C16.4482 19.4872 16.416 19.4201 16.3721 19.3612C16.3283 19.3024 16.2735 19.2529 16.211 19.2158L15.7342 18.9304C15.6717 18.8932 15.6027 18.8691 15.5311 18.8593C15.4595 18.8495 15.3867 18.8543 15.3169 18.8733C15.2471 18.8924 15.1817 18.9254 15.1243 18.9704C15.0669 19.0154 15.0187 19.0716 14.9825 19.1357C14.9463 19.1998 14.9227 19.2706 14.9132 19.344C14.9037 19.4175 14.9083 19.4921 14.9269 19.5638C14.9455 19.6354 14.9776 19.7025 15.0215 19.7614Z" fill="#363636"/>
<path d="M15.5695 25.6947C15.707 25.7348 15.8542 25.7182 15.9799 25.6485L15.9848 25.6452L16.4583 25.3664C16.5845 25.2921 16.6768 25.1693 16.7148 25.0252C16.7528 24.881 16.7334 24.7273 16.6609 24.5978C16.5884 24.4683 16.4687 24.3737 16.3282 24.3347C16.1877 24.2957 16.0378 24.3156 15.9116 24.39L15.4332 24.6737C15.3113 24.7502 15.2233 24.8725 15.188 25.0145C15.1526 25.1565 15.1727 25.3071 15.244 25.4341C15.3152 25.5612 15.432 25.6547 15.5695 25.6947Z" fill="#363636"/>
<path d="M14.3247 22.4326C14.4275 22.5381 14.567 22.5974 14.7124 22.5974H15.2591C15.4046 22.5974 15.544 22.5381 15.6469 22.4326C15.7497 22.3272 15.8075 22.1841 15.8075 22.0349C15.8075 21.8857 15.7497 21.7426 15.6469 21.6372C15.544 21.5317 15.4046 21.4724 15.2591 21.4724H14.7124C14.567 21.4724 14.4275 21.5317 14.3247 21.6372C14.2218 21.7426 14.1641 21.8857 14.1641 22.0349C14.1641 22.1841 14.2218 22.3272 14.3247 22.4326Z" fill="#363636"/>
<path d="M20.6887 28.1505C20.7909 28.0513 20.8521 27.9157 20.8597 27.7716V27.2175C20.8521 27.0734 20.7909 26.9377 20.6887 26.8385C20.5866 26.7393 20.4512 26.684 20.3106 26.684C20.1699 26.684 20.0345 26.7393 19.9324 26.8385C19.8302 26.9377 19.7691 27.0734 19.7614 27.2175V27.7716C19.7691 27.9157 19.8302 28.0513 19.9324 28.1505C20.0345 28.2498 20.1699 28.3051 20.3106 28.3051C20.4512 28.3051 20.5866 28.2498 20.6887 28.1505Z" fill="#363636"/>
<path d="M19.7943 16.0631C19.7685 16.135 19.7573 16.2116 19.7614 16.2882V16.2932V16.8473C19.7691 16.9914 19.8302 17.1271 19.9324 17.2263C20.0345 17.3255 20.1699 17.3808 20.3106 17.3808C20.4512 17.3808 20.5866 17.3255 20.6887 17.2263C20.7909 17.1271 20.8521 16.9914 20.8597 16.8473V16.2882C20.8638 16.2116 20.8526 16.135 20.8268 16.0631C20.8011 15.9911 20.7613 15.9253 20.7099 15.8696C20.6585 15.8139 20.5966 15.7696 20.5279 15.7393C20.4593 15.709 20.3853 15.6934 20.3106 15.6934C20.2358 15.6934 20.1619 15.709 20.0932 15.7393C20.0245 15.7696 19.9626 15.8139 19.9112 15.8696C19.8598 15.9253 19.8201 15.9911 19.7943 16.0631Z" fill="#363636"/>
<path d="M17.8495 27.4666C17.9069 27.4177 17.9539 27.3574 17.9878 27.2892V27.2909L18.2596 26.8069C18.2957 26.7429 18.3191 26.6722 18.3286 26.5989C18.3381 26.5256 18.3334 26.4511 18.3148 26.3796C18.2963 26.3082 18.2641 26.2412 18.2203 26.1824C18.1765 26.1237 18.1218 26.0744 18.0594 26.0374C17.997 26.0004 17.9281 25.9763 17.8567 25.9666C17.7852 25.9568 17.7126 25.9616 17.6429 25.9807C17.5733 25.9998 17.508 26.0327 17.4507 26.0777C17.3935 26.1226 17.3454 26.1787 17.3093 26.2427L17.036 26.7267C16.9955 26.791 16.9682 26.863 16.9557 26.9385C16.9432 27.0139 16.9458 27.0911 16.9634 27.1655C16.9809 27.2398 17.013 27.3098 17.0577 27.371C17.1024 27.4322 17.1588 27.4835 17.2234 27.5217C17.288 27.5599 17.3595 27.5842 17.4336 27.5931C17.5077 27.6021 17.5827 27.5955 17.6542 27.5737C17.7257 27.552 17.7922 27.5156 17.8495 27.4666Z" fill="#363636"/>
<path d="M23.9025 26.9349C23.8933 26.8616 23.87 26.7909 23.8341 26.7267L23.5673 26.2427C23.4948 26.1132 23.3751 26.0186 23.2346 25.9796C23.0941 25.9406 22.9442 25.9605 22.818 26.0349C22.6917 26.1093 22.5995 26.232 22.5615 26.3762C22.5235 26.5203 22.5429 26.674 22.6154 26.8035L22.8822 27.2876C22.9181 27.3517 22.966 27.4079 23.0231 27.453C23.0802 27.4982 23.1454 27.5313 23.2149 27.5506C23.2845 27.5699 23.3571 27.575 23.4286 27.5655C23.5001 27.556 23.569 27.5322 23.6315 27.4954C23.694 27.4585 23.7489 27.4094 23.7929 27.3509C23.8369 27.2923 23.8692 27.2255 23.888 27.1541C23.9068 27.0827 23.9117 27.0082 23.9025 26.9349Z" fill="#363636"/>
<path d="M25.689 25.016C25.6515 24.8717 25.5596 24.7486 25.4336 24.6737V24.6704L24.9617 24.39C24.8351 24.3143 24.6843 24.2933 24.5425 24.3317C24.4008 24.37 24.2797 24.4645 24.2059 24.5945C24.1321 24.7244 24.1117 24.8791 24.1491 25.0245C24.1864 25.1699 24.2786 25.2941 24.4052 25.3698L24.8836 25.6485C25.0096 25.7233 25.1595 25.7437 25.3001 25.7052C25.4408 25.6667 25.5608 25.5725 25.6337 25.4432C25.7067 25.3139 25.7265 25.1603 25.689 25.016Z" fill="#363636"/>
<path d="M25.5508 18.8751C25.4103 18.8361 25.2604 18.856 25.1342 18.9304V18.9354L24.6623 19.2158C24.5483 19.2958 24.4679 19.4171 24.4373 19.5553C24.4067 19.6935 24.428 19.8385 24.4971 19.9612C24.5662 20.084 24.6779 20.1754 24.8099 20.2173C24.9419 20.2592 25.0845 20.2485 25.209 20.1872L25.6809 19.9068C25.8071 19.8324 25.8994 19.7097 25.9374 19.5655C25.9754 19.4214 25.956 19.2677 25.8835 19.1382C25.811 19.0087 25.6913 18.9141 25.5508 18.8751Z" fill="#363636"/>
<path d="M23.5519 17.0356C23.4109 17.0741 23.2906 17.1685 23.2174 17.298H23.2126L22.9408 17.782C22.9046 17.8464 22.8811 17.9174 22.8716 17.991C22.8622 18.0647 22.8669 18.1395 22.8857 18.2113C22.9044 18.2831 22.9367 18.3503 22.9808 18.4093C23.0249 18.4682 23.0799 18.5177 23.1426 18.5548C23.2053 18.592 23.2745 18.6161 23.3463 18.6258C23.4181 18.6355 23.4911 18.6306 23.5611 18.6114C23.631 18.5922 23.6966 18.559 23.7541 18.5138C23.8115 18.4686 23.8597 18.4122 23.896 18.3479L24.1693 17.8638C24.2425 17.7343 24.2625 17.5804 24.2249 17.4357C24.1874 17.2911 24.0954 17.1677 23.9692 17.0927C23.8429 17.0177 23.6928 16.9971 23.5519 17.0356Z" fill="#363636"/>
<path d="M26.6723 21.6355C26.5695 21.53 26.43 21.4707 26.2846 21.4707H25.707C25.5615 21.4707 25.422 21.53 25.3192 21.6355C25.2164 21.741 25.1586 21.884 25.1586 22.0332C25.1586 22.1824 25.2164 22.3255 25.3192 22.431C25.422 22.5365 25.5615 22.5957 25.707 22.5957H26.2846C26.43 22.5957 26.5695 22.5365 26.6723 22.431C26.7752 22.3255 26.8329 22.1824 26.8329 22.0332C26.8329 21.884 26.7752 21.741 26.6723 21.6355Z" fill="#363636"/>
</svg>
