<svg width="34" height="34" viewBox="0 0 34 34" fill="none" xmlns="http://www.w3.org/2000/svg">
<path d="M16.9969 3.89689C17.1183 3.943 17.2475 3.96331 17.3767 3.9566C19.8901 3.9577 22.3467 4.72311 24.4361 6.15609C26.5256 7.58907 28.1539 9.62528 29.1155 12.0074C30.077 14.3895 30.3285 17.0105 29.8382 19.5392C29.3479 22.0678 28.1378 24.3907 26.3609 26.214C24.1915 28.4405 21.3102 29.7868 18.2488 30.0044C15.1874 30.2219 12.1526 29.296 9.70465 27.3976C7.25673 25.4993 5.56097 22.7565 4.9304 19.6758C4.29983 16.5951 4.77704 13.3843 6.27393 10.6363L6.43501 11.1746C6.47842 11.3385 6.55343 11.4917 6.6556 11.6253C6.75777 11.7589 6.88503 11.87 7.02984 11.9523C7.17465 12.0345 7.33406 12.0861 7.49866 12.104C7.66325 12.1219 7.82967 12.1057 7.98807 12.0565C8.14647 12.0072 8.29362 11.9259 8.42083 11.8173C8.54804 11.7087 8.65271 11.575 8.72864 11.4241C8.80458 11.2732 8.85025 11.1083 8.86293 10.939C8.87562 10.7697 8.85506 10.5995 8.80249 10.4385L7.7896 7.06113C7.70346 6.76723 7.51606 6.5155 7.26233 6.35289C7.0086 6.19028 6.70587 6.12788 6.41061 6.17734C6.27959 6.18346 6.15031 6.21049 6.02742 6.25746L2.80081 7.50928C2.49301 7.62913 2.24424 7.8695 2.10921 8.17751C1.97418 8.48552 1.96396 8.83594 2.0808 9.15167C2.19764 9.46741 2.43197 9.7226 2.73223 9.86111C3.0325 9.99962 3.3741 10.0101 3.6819 9.89025L4.72652 9.47965C3.11199 12.3374 2.46217 15.6619 2.8779 18.9372C3.29364 22.2126 4.75168 25.2555 7.02576 27.5939C9.29983 29.9323 12.2628 31.4353 15.4547 31.8697C18.6467 32.3041 21.8892 31.6456 24.679 29.9963C27.4688 28.3471 29.6499 25.7993 30.8838 22.7485C32.1177 19.6977 32.3354 16.3144 31.5031 13.1236C30.6708 9.9329 28.8351 7.11319 26.2808 5.1021C23.7266 3.09101 20.5966 2.00101 17.3767 2.00125C17.2475 1.99454 17.1183 2.01486 16.9969 2.06096C16.8756 2.10706 16.7647 2.17799 16.6709 2.26944C16.5771 2.36088 16.5025 2.47094 16.4514 2.5929C16.4004 2.71487 16.3741 2.84621 16.3741 2.97893C16.3741 3.11165 16.4004 3.24298 16.4514 3.36495C16.5025 3.48692 16.5771 3.59697 16.6709 3.68841C16.7647 3.77986 16.8756 3.85079 16.9969 3.89689Z" fill="#717171" stroke="#017D9F" stroke-width="2.4"/>
<circle cx="17.5" cy="17.1797" r="7.5" fill="#67DEFF"/>
</svg>
