<svg width="21" height="22" viewBox="0 0 21 22" fill="none" xmlns="http://www.w3.org/2000/svg">
<path d="M7 5.41797C6.64125 5.41797 6.34375 5.12047 6.34375 4.76172V2.13672C6.34375 1.77797 6.64125 1.48047 7 1.48047C7.35875 1.48047 7.65625 1.77797 7.65625 2.13672V4.76172C7.65625 5.12047 7.35875 5.41797 7 5.41797Z" fill="#363636"/>
<path d="M14 5.41797C13.6413 5.41797 13.3438 5.12047 13.3438 4.76172V2.13672C13.3438 1.77797 13.6413 1.48047 14 1.48047C14.3587 1.48047 14.6562 1.77797 14.6562 2.13672V4.76172C14.6562 5.12047 14.3587 5.41797 14 5.41797Z" fill="#363636"/>
<path d="M7.4375 13.075C7.21 13.075 6.98249 12.9787 6.81624 12.8212C6.78124 12.7775 6.7375 12.7337 6.71125 12.69C6.67625 12.6375 6.65 12.585 6.6325 12.5325C6.60625 12.48 6.58875 12.4275 6.58 12.375C6.57125 12.3138 6.5625 12.2525 6.5625 12.2C6.5625 11.9725 6.65874 11.745 6.81624 11.5787C7.13999 11.255 7.72626 11.255 8.05876 11.5787C8.21626 11.745 8.3125 11.9725 8.3125 12.2C8.3125 12.2525 8.30375 12.3138 8.295 12.375C8.28625 12.4275 8.26875 12.48 8.2425 12.5325C8.225 12.585 8.19875 12.6375 8.16375 12.69C8.12875 12.7337 8.09376 12.7775 8.05876 12.8212C7.89251 12.9787 7.665 13.075 7.4375 13.075Z" fill="#363636"/>
<path d="M10.5 13.0733C10.3863 13.0733 10.2725 13.047 10.1675 13.0033C10.0537 12.9595 9.95749 12.8982 9.87874 12.8195C9.84374 12.7757 9.8 12.732 9.77375 12.6883C9.73875 12.6358 9.7125 12.5833 9.695 12.5308C9.66875 12.4783 9.65125 12.4258 9.6425 12.3733C9.63375 12.312 9.625 12.2508 9.625 12.1983C9.625 11.9708 9.72124 11.7433 9.87874 11.577C9.95749 11.4983 10.0537 11.437 10.1675 11.3932C10.4825 11.2532 10.8763 11.332 11.1213 11.577C11.2788 11.7433 11.375 11.9708 11.375 12.1983C11.375 12.2508 11.3662 12.312 11.3575 12.3733C11.3487 12.4258 11.3312 12.4783 11.305 12.5308C11.2875 12.5833 11.2613 12.6358 11.2263 12.6883C11.1913 12.732 11.1563 12.7757 11.1213 12.8195C10.955 12.977 10.7275 13.0733 10.5 13.0733Z" fill="#363636"/>
<path d="M7.4375 16.1367C7.20125 16.1367 6.98249 16.0405 6.81624 15.883C6.65874 15.7167 6.5625 15.4892 6.5625 15.2617C6.5625 15.0342 6.65874 14.8067 6.81624 14.6405C6.85999 14.6055 6.90375 14.5617 6.9475 14.5355C7 14.5005 7.0525 14.4742 7.105 14.4567C7.1575 14.4305 7.21 14.413 7.2625 14.4042C7.4375 14.3692 7.6125 14.3867 7.77 14.4567C7.88375 14.5005 7.97126 14.5617 8.05876 14.6405C8.21626 14.8067 8.3125 15.0342 8.3125 15.2617C8.3125 15.4892 8.21626 15.7167 8.05876 15.883C7.97126 15.9617 7.88375 16.023 7.77 16.0667C7.665 16.1105 7.55125 16.1367 7.4375 16.1367Z" fill="#363636"/>
<path d="M17.9375 8.99609H3.0625C2.70375 8.99609 2.40625 8.69859 2.40625 8.33984C2.40625 7.98109 2.70375 7.68359 3.0625 7.68359H17.9375C18.2963 7.68359 18.5938 7.98109 18.5938 8.33984C18.5938 8.69859 18.2963 8.99609 17.9375 8.99609Z" fill="#363636"/>
<path fill-rule="evenodd" clip-rule="evenodd" d="M19.0312 12.5017V7.82422C19.0312 4.63047 17.1938 2.79297 14 2.79297H7C3.80625 2.79297 1.96875 4.63047 1.96875 7.82422V15.2617C1.96875 18.4555 3.80625 20.293 7 20.293H11.2987C10.9519 19.9013 10.6601 19.4597 10.4354 18.9805H7C4.4975 18.9805 3.28125 17.7642 3.28125 15.2617V7.82422C3.28125 5.32172 4.4975 4.10547 7 4.10547H14C16.5025 4.10547 17.7188 5.32172 17.7188 7.82422V11.6513C18.1973 11.8721 18.6388 12.1595 19.0312 12.5017Z" fill="#363636"/>
<path d="M12.6493 20.1484C12.4634 20.1484 12.2775 20.08 12.1308 19.9333C11.847 19.6497 11.847 19.1802 12.1308 18.8966L17.6681 13.3612C17.9519 13.0775 18.4215 13.0775 18.7052 13.3612C18.9889 13.6448 18.9889 14.1142 18.7052 14.3978L13.1678 19.9333C13.0308 20.08 12.8352 20.1484 12.6493 20.1484Z" fill="#363636"/>
<path d="M18.1867 20.1484C18.0008 20.1484 17.8149 20.08 17.6681 19.9333L12.1308 14.3978C11.847 14.1142 11.847 13.6448 12.1308 13.3612C12.4145 13.0775 12.8841 13.0775 13.1678 13.3612L18.7052 18.8966C18.9889 19.1802 18.9889 19.6497 18.7052 19.9333C18.5584 20.08 18.3725 20.1484 18.1867 20.1484Z" fill="#363636"/>
</svg>
