<svg width="22" height="22" viewBox="0 0 22 22" fill="none" xmlns="http://www.w3.org/2000/svg">
<path d="M7.33203 5.27148C6.9562 5.27148 6.64453 4.95982 6.64453 4.58398V1.83398C6.64453 1.45815 6.9562 1.14648 7.33203 1.14648C7.70786 1.14648 8.01953 1.45815 8.01953 1.83398V4.58398C8.01953 4.95982 7.70786 5.27148 7.33203 5.27148Z" fill="#363636" fill-opacity="0.7"/>
<path d="M14.668 5.27148C14.2921 5.27148 13.9805 4.95982 13.9805 4.58398V1.83398C13.9805 1.45815 14.2921 1.14648 14.668 1.14648C15.0438 1.14648 15.3555 1.45815 15.3555 1.83398V4.58398C15.3555 4.95982 15.0438 5.27148 14.668 5.27148Z" fill="#363636" fill-opacity="0.7"/>
<path d="M7.79167 13.2911C7.6725 13.2911 7.55333 13.2637 7.44333 13.2178C7.32417 13.172 7.2325 13.1078 7.14083 13.0253C6.97583 12.8511 6.875 12.622 6.875 12.3745C6.875 12.2553 6.9025 12.1361 6.94833 12.0261C6.99417 11.9161 7.05833 11.8153 7.14083 11.7236C7.2325 11.6411 7.32417 11.577 7.44333 11.5311C7.77333 11.3936 8.18583 11.467 8.4425 11.7236C8.6075 11.8978 8.70833 12.1361 8.70833 12.3745C8.70833 12.4295 8.69917 12.4936 8.69 12.5578C8.68083 12.6128 8.6625 12.6678 8.635 12.7228C8.61666 12.7778 8.58917 12.8328 8.5525 12.8878C8.525 12.9336 8.47917 12.9795 8.4425 13.0253C8.26833 13.1903 8.03 13.2911 7.79167 13.2911Z" fill="#363636" fill-opacity="0.7"/>
<path d="M10.9987 13.2913C10.8795 13.2913 10.7604 13.2638 10.6504 13.218C10.5312 13.1722 10.4395 13.108 10.3479 13.0255C10.1829 12.8513 10.082 12.6221 10.082 12.3746C10.082 12.2555 10.1095 12.1363 10.1554 12.0263C10.2012 11.9163 10.2654 11.8155 10.3479 11.7238C10.4395 11.6413 10.5312 11.5771 10.6504 11.5313C10.9804 11.3846 11.3929 11.4671 11.6495 11.7238C11.8145 11.898 11.9154 12.1363 11.9154 12.3746C11.9154 12.4296 11.9062 12.4938 11.897 12.558C11.8879 12.613 11.8695 12.668 11.842 12.723C11.8237 12.778 11.7962 12.833 11.7595 12.888C11.732 12.9338 11.6862 12.9796 11.6495 13.0255C11.4754 13.1905 11.237 13.2913 10.9987 13.2913Z" fill="#363636" fill-opacity="0.7"/>
<path d="M14.2096 13.2913C14.0905 13.2913 13.9713 13.2638 13.8613 13.218C13.7421 13.1722 13.6505 13.108 13.5588 13.0255C13.5221 12.9796 13.4855 12.9338 13.4488 12.888C13.4121 12.833 13.3846 12.778 13.3663 12.723C13.3388 12.668 13.3205 12.613 13.3113 12.558C13.3021 12.4938 13.293 12.4296 13.293 12.3746C13.293 12.1363 13.3938 11.898 13.5588 11.7238C13.6505 11.6413 13.7421 11.5771 13.8613 11.5313C14.2005 11.3846 14.6038 11.4671 14.8605 11.7238C15.0255 11.898 15.1263 12.1363 15.1263 12.3746C15.1263 12.4296 15.1171 12.4938 15.108 12.558C15.0988 12.613 15.0805 12.668 15.053 12.723C15.0346 12.778 15.0071 12.833 14.9705 12.888C14.943 12.9338 14.8971 12.9796 14.8605 13.0255C14.6863 13.1905 14.448 13.2913 14.2096 13.2913Z" fill="#363636" fill-opacity="0.7"/>
<path d="M7.79167 16.4996C7.6725 16.4996 7.55333 16.4721 7.44333 16.4263C7.33333 16.3804 7.2325 16.3163 7.14083 16.2338C6.97583 16.0596 6.875 15.8213 6.875 15.5829C6.875 15.4638 6.9025 15.3446 6.94833 15.2346C6.99417 15.1154 7.05833 15.0146 7.14083 14.9321C7.48 14.5929 8.10333 14.5929 8.4425 14.9321C8.6075 15.1063 8.70833 15.3446 8.70833 15.5829C8.70833 15.8213 8.6075 16.0596 8.4425 16.2338C8.26833 16.3988 8.03 16.4996 7.79167 16.4996Z" fill="#363636" fill-opacity="0.7"/>
<path d="M10.9987 16.4996C10.7604 16.4996 10.522 16.3988 10.3479 16.2338C10.1829 16.0596 10.082 15.8213 10.082 15.5829C10.082 15.4638 10.1095 15.3446 10.1554 15.2346C10.2012 15.1154 10.2654 15.0146 10.3479 14.9321C10.687 14.5929 11.3104 14.5929 11.6495 14.9321C11.732 15.0146 11.7962 15.1154 11.842 15.2346C11.8879 15.3446 11.9154 15.4638 11.9154 15.5829C11.9154 15.8213 11.8145 16.0596 11.6495 16.2338C11.4754 16.3988 11.237 16.4996 10.9987 16.4996Z" fill="#363636" fill-opacity="0.7"/>
<path d="M14.2096 16.5002C13.9713 16.5002 13.733 16.3993 13.5588 16.2343C13.4763 16.1518 13.4121 16.051 13.3663 15.9318C13.3205 15.8218 13.293 15.7027 13.293 15.5835C13.293 15.4643 13.3205 15.3452 13.3663 15.2352C13.4121 15.116 13.4763 15.0152 13.5588 14.9327C13.7696 14.7218 14.0905 14.621 14.3838 14.6852C14.448 14.6943 14.503 14.7127 14.558 14.7402C14.613 14.7585 14.668 14.786 14.723 14.8227C14.7688 14.8502 14.8146 14.896 14.8605 14.9327C15.0255 15.1068 15.1263 15.3452 15.1263 15.5835C15.1263 15.8218 15.0255 16.0602 14.8605 16.2343C14.6863 16.3993 14.448 16.5002 14.2096 16.5002Z" fill="#363636" fill-opacity="0.7"/>
<path d="M18.7904 9.01953H3.20703C2.8312 9.01953 2.51953 8.70786 2.51953 8.33203C2.51953 7.9562 2.8312 7.64453 3.20703 7.64453H18.7904C19.1662 7.64453 19.4779 7.9562 19.4779 8.33203C19.4779 8.70786 19.1662 9.01953 18.7904 9.01953Z" fill="#363636" fill-opacity="0.7"/>
<path d="M14.6667 20.8548H7.33333C3.9875 20.8548 2.0625 18.9298 2.0625 15.584V7.79232C2.0625 4.44648 3.9875 2.52148 7.33333 2.52148H14.6667C18.0125 2.52148 19.9375 4.44648 19.9375 7.79232V15.584C19.9375 18.9298 18.0125 20.8548 14.6667 20.8548ZM7.33333 3.89648C4.71167 3.89648 3.4375 5.17065 3.4375 7.79232V15.584C3.4375 18.2057 4.71167 19.4798 7.33333 19.4798H14.6667C17.2883 19.4798 18.5625 18.2057 18.5625 15.584V7.79232C18.5625 5.17065 17.2883 3.89648 14.6667 3.89648H7.33333Z" fill="#363636" fill-opacity="0.7"/>
</svg>
