<svg width="30" height="30" viewBox="0 0 30 30" fill="none" xmlns="http://www.w3.org/2000/svg">
<path d="M14.5161 29.0323C13.6654 29.0323 12.8687 28.7079 12.2746 28.0994L10.2221 26.044C10.06 25.8817 9.62791 25.7059 9.41185 25.7059H6.49512C4.73969 25.7059 3.32182 24.286 3.32182 22.5281V19.6074C3.32182 19.391 3.14627 18.9583 2.98423 18.7961L0.931733 16.7407C0.337584 16.1457 0 15.3478 0 14.4959C0 13.644 0.324081 12.8462 0.931733 12.2512L2.98423 10.1958C3.14627 10.0335 3.32182 9.60082 3.32182 9.38446V6.46379C3.32182 4.7059 4.73969 3.28593 6.49512 3.28593H9.41185C9.62791 3.28593 10.06 3.11014 10.2221 2.94787L12.2746 0.892467C13.4629 -0.297489 15.5694 -0.297489 16.7577 0.892467L18.8102 2.94787C18.9722 3.11014 19.4044 3.28593 19.6204 3.28593H22.5371C24.2926 3.28593 25.7104 4.7059 25.7104 6.46379V9.38446C25.7104 9.60082 25.886 10.0335 26.048 10.1958L28.1005 12.2512C28.6947 12.8462 29.0323 13.644 29.0323 14.4959C29.0323 15.3478 28.7082 16.1457 28.1005 16.7407L26.048 18.7961C25.886 18.9583 25.7104 19.391 25.7104 19.6074V22.5281C25.7104 24.286 24.2926 25.7059 22.5371 25.7059H19.6204C19.4044 25.7059 18.9722 25.8817 18.8102 26.044L16.7577 28.0994C16.1635 28.7079 15.3668 29.0323 14.5161 29.0323ZM4.41559 17.3626C4.95573 17.9035 5.34732 18.8502 5.34732 19.6074V22.5281C5.34732 23.1636 5.86047 23.6776 6.49512 23.6776H9.41185C10.168 23.6776 11.1133 24.0696 11.6534 24.6105L13.7059 26.6659C14.138 27.0986 14.8942 27.0986 15.3263 26.6659L17.3788 24.6105C17.919 24.0696 18.8642 23.6776 19.6204 23.6776H22.5371C23.1718 23.6776 23.6849 23.1636 23.6849 22.5281V19.6074C23.6849 18.8502 24.0765 17.9035 24.6167 17.3626L26.6692 15.3072C26.8852 15.0908 27.0068 14.8069 27.0068 14.4959C27.0068 14.1849 26.8852 13.901 26.6692 13.6847L24.6167 11.6292C24.0765 11.0883 23.6849 10.1417 23.6849 9.38446V6.46379C23.6849 5.82824 23.1718 5.31426 22.5371 5.31426H19.6204C18.8642 5.31426 17.919 4.9222 17.3788 4.38131L15.3263 2.3259C14.8942 1.89319 14.138 1.89319 13.7059 2.3259L11.6534 4.38131C11.1133 4.9222 10.168 5.31426 9.41185 5.31426H6.49512C5.86047 5.31426 5.34732 5.82824 5.34732 6.46379V9.38446C5.34732 10.1417 4.95573 11.0883 4.41559 11.6292L2.36309 13.6847C2.14704 13.901 2.02551 14.1849 2.02551 14.4959C2.02551 14.8069 2.14704 15.0908 2.36309 15.3072L4.41559 17.3626Z" fill="white"/>
<path d="M18.2801 19.4943C17.5833 19.4943 17.0234 18.9344 17.0234 18.2501C17.0234 17.5658 17.5833 17.0059 18.2677 17.0059C18.952 17.0059 19.5119 17.5658 19.5119 18.2501C19.5119 18.9344 18.9645 19.4943 18.2801 19.4943Z" fill="white"/>
<path d="M10.827 12.0275C10.1302 12.0275 9.57031 11.4676 9.57031 10.7833C9.57031 10.099 10.1302 9.53906 10.8146 9.53906C11.4989 9.53906 12.0588 10.099 12.0588 10.7833C12.0588 11.4676 11.5113 12.0275 10.827 12.0275Z" fill="white"/>
<path d="M10.8168 19.1822C10.5804 19.1822 10.344 19.0951 10.1573 18.9085C9.79651 18.5476 9.79651 17.9504 10.1573 17.5896L17.6228 10.1241C17.9836 9.76331 18.5808 9.76331 18.9417 10.1241C19.3025 10.485 19.3025 11.0822 18.9417 11.443L11.4762 18.9085C11.2896 19.0951 11.0532 19.1822 10.8168 19.1822Z" fill="white"/>
</svg>
