<svg width="21" height="21" viewBox="0 0 21 21" fill="none" xmlns="http://www.w3.org/2000/svg">
<path fill-rule="evenodd" clip-rule="evenodd" d="M8.77389 18.7963C9.15019 19.1816 9.65476 19.3871 10.1935 19.3871C10.7323 19.3871 11.2369 19.1816 11.6132 18.7963L12.5245 17.8837C12.2954 17.4712 12.1382 17.0133 12.0698 16.5269C12.0479 16.5465 12.0268 16.5664 12.0066 16.5866L10.7067 17.8884C10.433 18.1624 9.95409 18.1624 9.68042 17.8884L8.3805 16.5866C8.03841 16.2441 7.43976 15.9958 6.96084 15.9958H5.11358C4.71163 15.9958 4.38664 15.6703 4.38664 15.2678V13.418C4.38664 12.9384 4.13863 12.3389 3.79654 11.9963L2.49662 10.6946C2.35979 10.5575 2.28282 10.3777 2.28282 10.1807C2.28282 9.98374 2.35979 9.80398 2.49662 9.66696L3.79654 8.36513C4.13863 8.02257 4.38664 7.42308 4.38664 6.94349V5.09373C4.38664 4.69122 4.71163 4.3657 5.11358 4.3657H6.96084C7.43976 4.3657 8.03841 4.11739 8.3805 3.77483L9.68042 2.47307C9.95409 2.19902 10.433 2.19902 10.7067 2.47307L12.0066 3.77483C12.3487 4.11739 12.9473 4.3657 13.4263 4.3657H15.2735C15.6755 4.3657 16.0005 4.69122 16.0005 5.09373V6.94349C16.0005 7.42308 16.2485 8.02257 16.5905 8.36513L17.8905 9.66696C18.0273 9.80398 18.1043 9.98374 18.1043 10.1807C18.1043 10.3777 18.0273 10.5575 17.8905 10.6946L16.5905 11.9963C16.5668 12.0201 16.5435 12.0451 16.5207 12.0712C17.0068 12.139 17.4645 12.2955 17.8769 12.5238L18.797 11.6024C19.1818 11.2256 19.3871 10.7203 19.3871 10.1807C19.3871 9.64118 19.1733 9.1359 18.797 8.75908L17.4971 7.45734C17.3944 7.35457 17.2833 7.08052 17.2833 6.94349V5.09373C17.2833 3.9804 16.3853 3.08109 15.2735 3.08109H13.4263C13.2894 3.08109 13.0158 2.96975 12.9131 2.86699L11.6132 1.56523C10.8606 0.81159 9.52648 0.81159 8.77389 1.56523L7.47397 2.86699C7.37134 2.96975 7.09767 3.08109 6.96084 3.08109H5.11358C4.0018 3.08109 3.10382 3.9804 3.10382 5.09373V6.94349C3.10382 7.08052 2.99264 7.35457 2.89001 7.45734L1.5901 8.75908C1.20525 9.1359 1 9.64118 1 10.1807C1 10.7203 1.2138 11.2256 1.5901 11.6024L2.89001 12.9042C2.99264 13.0069 3.10382 13.281 3.10382 13.418V15.2678C3.10382 16.3811 4.0018 17.2804 5.11358 17.2804H6.96084C7.09767 17.2804 7.37134 17.3918 7.47397 17.4945L8.77389 18.7963Z" fill="#363636"/>
<path d="M11.9443 13.3456C11.503 13.3456 11.1484 12.991 11.1484 12.5575C11.1484 12.1241 11.503 11.7695 11.9365 11.7695C12.3699 11.7695 12.7245 12.1241 12.7245 12.5575C12.7245 12.991 12.3777 13.3456 11.9443 13.3456Z" fill="#363636"/>
<path d="M7.22559 8.61705C6.7843 8.61705 6.42969 8.26244 6.42969 7.82903C6.42969 7.39562 6.7843 7.04102 7.21771 7.04102C7.65112 7.04102 8.00572 7.39562 8.00572 7.82903C8.00572 8.26244 7.659 8.61705 7.22559 8.61705Z" fill="#363636"/>
<path d="M7.21404 13.1484C7.06432 13.1484 6.9146 13.0932 6.79639 12.975C6.56787 12.7465 6.56787 12.3683 6.79639 12.1397L11.5245 7.41163C11.753 7.1831 12.1313 7.1831 12.3598 7.41163C12.5883 7.64015 12.5883 8.0184 12.3598 8.24693L7.63169 12.975C7.51349 13.0932 7.36377 13.1484 7.21404 13.1484Z" fill="#363636"/>
<path d="M19.0847 15.1528C18.9989 14.8786 18.7879 14.6735 18.5199 14.6044L17.3091 14.2901L16.648 13.1877C16.3547 12.6973 15.5893 12.6984 15.2966 13.1877L14.6354 14.2901L13.4246 14.6044C13.1566 14.6735 12.9451 14.8786 12.8598 15.1528C12.7744 15.4272 12.8292 15.7227 13.0072 15.9438L13.8094 16.9387L13.722 18.2353C13.7026 18.5228 13.8247 18.7954 14.0484 18.9649C14.1874 19.0702 14.3506 19.1245 14.5159 19.1245C14.6164 19.1245 14.718 19.1041 14.8154 19.063L15.9725 18.576L17.1291 19.063C17.3855 19.1717 17.6718 19.1343 17.8961 18.9654C18.1198 18.7959 18.242 18.5234 18.223 18.2353L18.1357 16.9387L18.9379 15.9432C19.1153 15.7227 19.1706 15.4272 19.0847 15.1528ZM17.2865 16.4566C17.2075 16.5548 17.168 16.681 17.177 16.8093L17.2612 18.0543L16.1505 17.5865C16.0936 17.5624 16.0331 17.5503 15.973 17.5503C15.913 17.5503 15.8525 17.5624 15.7956 17.5865L14.6854 18.0543L14.7691 16.8093C14.7775 16.6815 14.738 16.5548 14.6596 16.4566L13.8894 15.5012L15.0518 15.1989C15.1708 15.1677 15.274 15.0904 15.3387 14.9818L15.9736 13.9237L16.6085 14.9818C16.6737 15.0904 16.7764 15.1682 16.8954 15.1989L18.0577 15.5012L17.2865 16.4566Z" fill="#363636"/>
</svg>
