<svg width="28" height="28" viewBox="0 0 28 28" fill="none" xmlns="http://www.w3.org/2000/svg">
<path d="M19.7476 11.4004H19.2002C18.9734 11.4004 18.7897 11.5842 18.7897 11.8109C18.7897 12.0376 18.9734 12.2214 19.2002 12.2214H19.7476C19.9743 12.2214 20.1581 12.0376 20.1581 11.8109C20.1581 11.5842 19.9743 11.4004 19.7476 11.4004Z" fill="white" stroke="white" stroke-width="0.4"/>
<path d="M16.874 14.0004C16.874 13.7736 16.6903 13.5898 16.4635 13.5898H7.70556C7.47877 13.5898 7.29504 13.7736 7.29504 14.0004C7.29504 14.2271 7.47877 14.4109 7.70556 14.4109H16.4634C16.6902 14.4109 16.874 14.2271 16.874 14.0004Z" fill="white" stroke="white" stroke-width="0.4"/>
<path d="M7.70556 21.8008C7.47877 21.8008 7.29504 21.9846 7.29504 22.2113C7.29504 22.438 7.47877 22.6218 7.70556 22.6218H9.89504C10.1218 22.6218 10.3056 22.438 10.3056 22.2113C10.3056 21.9846 10.1218 21.8008 9.89504 21.8008H7.70556Z" fill="white" stroke="white" stroke-width="0.4"/>
<path d="M18.5435 23.1137C18.8262 23.4908 19.2764 23.7158 19.7477 23.7158C20.219 23.7158 20.6692 23.4908 20.9519 23.1137L26.6993 15.4506C27.1973 14.7866 27.0622 13.8413 26.3981 13.3431C25.7341 12.8452 24.7887 12.9803 24.2908 13.6443L23.9897 14.0458V2.50526C23.9897 1.67529 23.3145 1 22.4845 1H4.96882C4.13875 1 3.46351 1.67529 3.46351 2.50526V2.64211H2.50562C1.6756 2.64211 1.00037 3.3174 1.00037 4.14737V23.8526C1.00037 24.6826 1.6756 25.3579 2.50562 25.3579H3.46351V25.4947C3.46351 26.3247 4.13875 27 4.96877 27H22.4844C23.3144 27 23.9897 26.3247 23.9897 25.4947V21.1158C23.9897 20.889 23.806 20.7053 23.5792 20.7053C23.3524 20.7053 23.1687 20.889 23.1687 21.1158V25.4947C23.1687 25.872 22.8617 26.179 22.4844 26.179H4.96882C4.59151 26.179 4.28459 25.872 4.28459 25.4947V7.97897C4.28459 7.75218 4.10082 7.56845 3.87408 7.56845C3.64734 7.56845 3.46356 7.75223 3.46356 7.97897V24.5369H2.50562C2.12832 24.5369 1.8214 24.2299 1.8214 23.8526V4.14737C1.8214 3.77007 2.12832 3.46314 2.50562 3.46314H3.46351V6.3368C3.46351 6.56359 3.64729 6.74732 3.87403 6.74732C4.10076 6.74732 4.28454 6.56354 4.28454 6.3368V2.50526C4.28454 2.12795 4.59146 1.82103 4.96877 1.82103H22.4844C22.8617 1.82103 23.1687 2.12795 23.1687 2.50526V15.0947C23.1687 15.1092 23.1694 15.1234 23.1708 15.1376L19.7477 19.7018L18.4888 18.0232C18.2476 17.7015 17.8955 17.493 17.4975 17.4362C17.0992 17.3793 16.703 17.481 16.3814 17.7222C16.0597 17.9634 15.8513 18.3155 15.7945 18.7135C15.7376 19.1116 15.8392 19.5079 16.0804 19.8295L18.5435 23.1137ZM16.6072 18.8296C16.6331 18.6488 16.7279 18.4887 16.8741 18.379C16.9938 18.2892 17.1362 18.242 17.2831 18.242C17.3157 18.242 17.3485 18.2443 17.3813 18.249C17.5622 18.2749 17.7223 18.3697 17.832 18.5159L19.4193 20.6324C19.4968 20.7358 19.6185 20.7966 19.7477 20.7966C19.8768 20.7966 19.9986 20.7358 20.0761 20.6324L24.9477 14.1369C25.174 13.835 25.6038 13.7737 25.9056 14.0001C26.2074 14.2264 26.2688 14.6561 26.0424 14.9579L20.2951 22.6211V22.6212C20.1665 22.7925 19.9619 22.8948 19.7477 22.8948C19.5335 22.8948 19.3289 22.7925 19.2004 22.6211L16.7372 19.3369C16.6275 19.1907 16.5814 19.0105 16.6072 18.8296Z" fill="white" stroke="white" stroke-width="0.4"/>
<path d="M14.1372 20.0218C14.1372 19.7951 13.9534 19.6113 13.7266 19.6113H7.70556C7.47877 19.6113 7.29504 19.7951 7.29504 20.0218C7.29504 20.2486 7.47877 20.4324 7.70556 20.4324H13.7266C13.9533 20.4324 14.1372 20.2486 14.1372 20.0218Z" fill="white" stroke="white" stroke-width="0.4"/>
<path d="M10.7161 8.11523C10.4893 8.11523 10.3055 8.29896 10.3055 8.52575C10.3055 8.75254 10.4893 8.93627 10.7161 8.93627H16.7371C16.9639 8.93627 17.1477 8.75254 17.1477 8.52575C17.1477 8.29896 16.9639 8.11523 16.7371 8.11523H10.7161Z" fill="white" stroke="white" stroke-width="0.4"/>
<path d="M7.70556 12.2214H16.4634C16.6902 12.2214 16.874 12.0376 16.874 11.8109C16.874 11.5842 16.6902 11.4004 16.4634 11.4004H7.70556C7.47877 11.4004 7.29504 11.5842 7.29504 11.8109C7.29504 12.0376 7.47882 12.2214 7.70556 12.2214Z" fill="white" stroke="white" stroke-width="0.4"/>
<path d="M19.7476 5.92578H7.70556C7.47877 5.92578 7.29504 6.10951 7.29504 6.3363C7.29504 6.56309 7.47877 6.74681 7.70556 6.74681H19.7476C19.9744 6.74681 20.1581 6.56309 20.1581 6.3363C20.1581 6.10951 19.9744 5.92578 19.7476 5.92578Z" fill="white" stroke="white" stroke-width="0.4"/>
<path d="M19.7476 13.5898H19.2002C18.9734 13.5898 18.7897 13.7736 18.7897 14.0004C18.7897 14.2271 18.9734 14.4109 19.2002 14.4109H19.7476C19.9743 14.4109 20.1581 14.2271 20.1581 14.0004C20.1581 13.7736 19.9743 13.5898 19.7476 13.5898Z" fill="white" stroke="white" stroke-width="0.4"/>
</svg>
