<svg width="44" height="44" viewBox="0 0 44 44" fill="none" xmlns="http://www.w3.org/2000/svg">
<path d="M11.7501 29.5857H11.239C6.05837 29.5857 1.84375 25.3711 1.84375 20.1907C1.84375 17.1232 3.34131 14.2416 5.84967 12.4827C5.99167 12.3832 6.18789 12.4174 6.28754 12.5595C6.38718 12.7016 6.3526 12.8976 6.2106 12.9973C3.86983 14.6388 2.47232 17.3279 2.47232 20.1907C2.47232 25.0246 6.40499 28.9571 11.239 28.9571H11.7501C11.9236 28.9571 12.0644 29.0978 12.0644 29.2714C12.0644 29.445 11.9236 29.5857 11.7501 29.5857Z" fill="white" stroke="white" stroke-width="0.6"/>
<path d="M36.748 29.5866H31.908C31.7345 29.5866 31.5938 29.4459 31.5938 29.2723C31.5938 29.0987 31.7345 28.958 31.908 28.958H36.748C39.1949 28.958 41.1858 26.9616 41.1858 24.5078C41.1858 22.7282 40.1267 21.1191 38.4878 20.4087C38.3628 20.3545 38.2868 20.2259 38.2999 20.0902C38.3114 19.9708 38.311 19.8669 38.311 19.7474C38.311 17.9374 37.3986 16.2741 35.8706 15.298C35.7243 15.2045 35.6815 15.0102 35.775 14.8639C35.8685 14.7176 36.0629 14.6748 36.209 14.7682C37.9188 15.8604 38.9396 17.7218 38.9396 19.7474C38.9396 19.8086 38.9396 19.8666 38.9383 19.9239C40.6927 20.7752 41.8144 22.551 41.8144 24.5078C41.8144 27.3082 39.5415 29.5866 36.748 29.5866Z" fill="white" stroke="white" stroke-width="0.6"/>
<path d="M32.0081 9.61562C31.8892 9.61562 31.7756 9.5479 31.7224 9.43301C30.0023 5.70762 26.2357 3.30045 22.1269 3.30045C18.3401 3.30045 14.8255 5.33829 12.9545 8.61885C12.8686 8.76955 12.676 8.82183 12.5259 8.7362C12.3751 8.65016 12.3225 8.45823 12.4086 8.30743C14.3911 4.83126 18.1149 2.67188 22.1269 2.67188C26.4801 2.67188 30.4706 5.22238 32.2933 9.16947C32.366 9.32702 32.2972 9.51383 32.1397 9.58657C32.0969 9.60632 32.0521 9.61562 32.0081 9.61562Z" fill="white" stroke="white" stroke-width="0.6"/>
<path d="M25.9279 41.3371C25.8225 41.3371 25.7196 41.2841 25.66 41.1877C25.569 41.0399 25.615 40.8463 25.7627 40.7552C25.9674 40.6291 26.1669 40.4996 26.3616 40.3669C26.5055 40.2695 26.7007 40.3064 26.7983 40.4496C26.8961 40.5932 26.8591 40.7887 26.7156 40.8864C26.5131 41.0244 26.3054 41.1592 26.0926 41.2903C26.0412 41.322 25.9841 41.3371 25.9279 41.3371Z" fill="white" stroke="white" stroke-width="0.6"/>
<path d="M27.627 40.1281C27.5359 40.1281 27.4457 40.0888 27.3835 40.0129C27.2736 39.8786 27.2935 39.6805 27.4277 39.5707C29.5193 37.8587 31.1373 35.586 32.2369 32.8158C32.301 32.6542 32.4841 32.5752 32.6451 32.6396C32.8064 32.7036 32.8854 32.8863 32.8213 33.0476C31.6818 35.9183 30.0011 38.2767 27.8259 40.057C27.7674 40.1048 27.697 40.1281 27.627 40.1281Z" fill="white" stroke="white" stroke-width="0.6"/>
<path d="M21.8328 41.3353C21.6673 41.3353 21.5019 41.3078 21.3479 41.2528C10.3558 37.2609 10.5478 24.4921 10.8682 20.6737C10.9343 19.9256 11.5766 19.3558 12.3287 19.38C16.6692 19.5133 19.6058 17.8088 20.9714 16.7816C21.4737 16.3959 22.1837 16.3954 22.695 16.7821C24.0545 17.8093 26.9866 19.5156 31.3307 19.38C32.0772 19.3605 32.7256 19.9256 32.7915 20.6724C33.1121 24.492 33.3044 37.2606 22.3196 41.2522C22.319 41.2524 22.3183 41.2526 22.3177 41.2528C22.1636 41.3078 21.9983 41.3353 21.8328 41.3353ZM12.2862 20.0079C11.8761 20.0079 11.5305 20.3198 11.4945 20.7277C11.1835 24.4323 10.9897 36.8224 21.5607 40.6615C21.7327 40.7228 21.9322 40.7231 22.1057 40.6611C32.6703 36.8222 32.4764 24.4323 32.1651 20.7263C32.1287 20.3121 31.7749 19.9924 31.3496 20.0083C26.8129 20.1481 23.7416 18.3608 22.3159 17.2835C22.0249 17.0633 21.6376 17.0627 21.3515 17.2821C19.918 18.3608 16.8431 20.144 12.3099 20.0083C12.3019 20.008 12.2941 20.0079 12.2862 20.0079Z" fill="white"/>
<path d="M22.2121 40.9568H22.2162M21.8328 41.3353C21.6673 41.3353 21.5019 41.3078 21.3479 41.2528C10.3558 37.2609 10.5478 24.4921 10.8682 20.6737C10.9343 19.9256 11.5766 19.3558 12.3287 19.38C16.6692 19.5133 19.6058 17.8088 20.9714 16.7816C21.4737 16.3959 22.1837 16.3954 22.695 16.7821C24.0545 17.8093 26.9866 19.5156 31.3307 19.38C32.0772 19.3605 32.7256 19.9256 32.7915 20.6724C33.1121 24.492 33.3044 37.2606 22.3196 41.2522C22.319 41.2524 22.3183 41.2526 22.3177 41.2528C22.1636 41.3078 21.9983 41.3353 21.8328 41.3353ZM12.2862 20.0079C11.8761 20.0079 11.5305 20.3198 11.4945 20.7277C11.1835 24.4323 10.9897 36.8224 21.5607 40.6615C21.7327 40.7228 21.9322 40.7231 22.1057 40.6611C32.6703 36.8222 32.4764 24.4323 32.1651 20.7263C32.1287 20.3121 31.7749 19.9924 31.3496 20.0083C26.8129 20.1481 23.7416 18.3608 22.3159 17.2835C22.0249 17.0633 21.6376 17.0627 21.3515 17.2821C19.918 18.3608 16.8431 20.144 12.3099 20.0083C12.3019 20.008 12.2941 20.0079 12.2862 20.0079Z" stroke="white" stroke-width="0.6"/>
<path d="M21.8317 38.2125C21.6917 38.2125 21.552 38.184 21.4216 38.1269C14.599 35.0845 13.6384 27.458 13.6727 23.1825C13.6727 22.6747 14.066 22.2524 14.5874 22.2028C17.6091 21.9244 19.9128 20.8702 21.3136 20.0349C21.6387 19.8477 22.0334 19.8481 22.3487 20.0341C23.7497 20.8666 26.0533 21.9182 29.0758 22.2028C29.5927 22.252 29.9882 22.6722 29.9962 23.1801C30.0305 27.4582 29.0691 35.0851 22.2436 38.1261C22.243 38.1264 22.2423 38.1266 22.2417 38.1269C22.1114 38.184 21.9716 38.2125 21.8317 38.2125ZM21.8341 20.5219C21.7652 20.5219 21.6956 20.5403 21.6314 20.5772C20.179 21.4434 17.784 22.5395 14.6461 22.8286C14.4468 22.8476 14.3013 22.9975 14.3013 23.185C14.2682 27.3093 15.1822 34.6562 21.6758 37.5519C21.7742 37.5952 21.889 37.5951 21.989 37.5513C28.4863 34.6557 29.4007 27.3092 29.3676 23.1876C29.3647 22.9996 29.217 22.8476 29.0165 22.8285C25.8779 22.533 23.4839 21.4399 22.0283 20.575C21.9684 20.5396 21.9017 20.5219 21.8341 20.5219Z" fill="white"/>
<path d="M22.1157 37.839H22.1198M21.8317 38.2125C21.6917 38.2125 21.552 38.184 21.4216 38.1269C14.599 35.0845 13.6384 27.458 13.6727 23.1825C13.6727 22.6747 14.066 22.2524 14.5874 22.2028C17.6091 21.9244 19.9128 20.8702 21.3136 20.0349C21.6387 19.8477 22.0334 19.8481 22.3487 20.0341C23.7497 20.8666 26.0533 21.9182 29.0758 22.2028C29.5927 22.252 29.9882 22.6722 29.9962 23.1801C30.0305 27.4582 29.0691 35.0851 22.2436 38.1261C22.243 38.1264 22.2423 38.1266 22.2417 38.1269C22.1114 38.184 21.9716 38.2125 21.8317 38.2125ZM21.8341 20.5219C21.7652 20.5219 21.6956 20.5403 21.6314 20.5772C20.179 21.4434 17.784 22.5395 14.6461 22.8286C14.4468 22.8476 14.3013 22.9975 14.3013 23.185C14.2682 27.3093 15.1822 34.6562 21.6758 37.5519C21.7742 37.5952 21.889 37.5951 21.989 37.5513C28.4863 34.6557 29.4007 27.3092 29.3676 23.1876C29.3647 22.9996 29.217 22.8476 29.0165 22.8285C25.8779 22.533 23.4839 21.4399 22.0283 20.575C21.9684 20.5396 21.9017 20.5219 21.8341 20.5219Z" stroke="white" stroke-width="0.6"/>
<path d="M38.9719 15.3464H25.3146C23.5623 15.3464 22.1367 13.9207 22.1367 12.1682C22.1367 11.3172 22.4678 10.5175 23.0689 9.91659C23.6703 9.31544 24.4679 8.98438 25.3146 8.98438H38.9719C40.7275 8.98438 42.1559 10.4126 42.1559 12.1682C42.1559 13.0097 41.8156 13.8287 41.2224 14.4152C40.6225 15.0152 39.8227 15.3464 38.9719 15.3464ZM25.3146 9.61295C24.6357 9.61295 23.996 9.87864 23.5134 10.3611C23.0309 10.8434 22.7653 11.4852 22.7653 12.1682C22.7653 13.5741 23.9089 14.7178 25.3146 14.7178H38.9719C39.6549 14.7178 40.2967 14.452 40.7792 13.9695C41.2552 13.499 41.5273 12.8429 41.5273 12.1682C41.5273 10.7592 40.3808 9.61295 38.9719 9.61295H25.3146Z" fill="white" stroke="white" stroke-width="0.6"/>
<path d="M25.5629 13.1257C26.0938 13.1257 26.5242 12.6953 26.5242 12.1644C26.5242 11.6335 26.0938 11.2031 25.5629 11.2031C25.0319 11.2031 24.6016 11.6335 24.6016 12.1644C24.6016 12.6953 25.0319 13.1257 25.5629 13.1257Z" fill="white" stroke="white" stroke-width="0.6"/>
<path d="M28.8558 13.1257C29.3867 13.1257 29.8171 12.6953 29.8171 12.1644C29.8171 11.6335 29.3867 11.2031 28.8558 11.2031C28.3249 11.2031 27.8945 11.6335 27.8945 12.1644C27.8945 12.6953 28.3249 13.1257 28.8558 13.1257Z" fill="white" stroke="white" stroke-width="0.6"/>
<path d="M32.1449 13.1257C32.6758 13.1257 33.1062 12.6953 33.1062 12.1644C33.1062 11.6335 32.6758 11.2031 32.1449 11.2031C31.614 11.2031 31.1836 11.6335 31.1836 12.1644C31.1836 12.6953 31.614 13.1257 32.1449 13.1257Z" fill="white" stroke="white" stroke-width="0.6"/>
<path d="M35.4379 13.1257C35.9688 13.1257 36.3992 12.6953 36.3992 12.1644C36.3992 11.6335 35.9688 11.2031 35.4379 11.2031C34.9069 11.2031 34.4766 11.6335 34.4766 12.1644C34.4766 12.6953 34.9069 13.1257 35.4379 13.1257Z" fill="white" stroke="white" stroke-width="0.6"/>
<path d="M38.7269 13.1257C39.2578 13.1257 39.6882 12.6953 39.6882 12.1644C39.6882 11.6335 39.2578 11.2031 38.7269 11.2031C38.196 11.2031 37.7656 11.6335 37.7656 12.1644C37.7656 12.6953 38.196 13.1257 38.7269 13.1257Z" fill="white" stroke="white" stroke-width="0.6"/>
<path d="M37.5172 6.48871C36.463 6.48871 35.6055 5.63107 35.6055 4.5768C35.6055 3.52427 36.463 2.66797 37.5172 2.66797C38.5697 2.66797 39.426 3.52427 39.426 4.5768C39.426 5.63107 38.5697 6.48871 37.5172 6.48871ZM37.5172 3.29654C36.8096 3.29654 36.234 3.87089 36.234 4.5768C36.234 5.28446 36.8096 5.86014 37.5172 5.86014C38.2231 5.86014 38.7974 5.28446 38.7974 4.5768C38.7974 3.87089 38.2231 3.29654 37.5172 3.29654Z" fill="white" stroke="white" stroke-width="0.6"/>
<path d="M5.47113 39.8995C5.28084 39.8995 5.12022 39.7674 5.08093 39.5782C4.93464 38.8577 4.58086 38.2029 4.05746 37.6833C3.5357 37.1577 2.88237 36.804 2.16622 36.6587C1.97573 36.619 1.84375 36.4585 1.84375 36.2681C1.84375 36.0776 1.97573 35.9171 2.16479 35.8778C2.88093 35.7324 3.5359 35.3783 4.06073 34.8536C4.58229 34.332 4.93484 33.677 5.08073 32.9593C5.12022 32.7687 5.28084 32.6367 5.47113 32.6367C5.66163 32.6367 5.82225 32.7687 5.86153 32.9578C6.00763 33.677 6.36018 34.332 6.88173 34.8536C7.40677 35.3784 8.06194 35.7324 8.77625 35.8774C8.96674 35.9171 9.09872 36.0776 9.09872 36.2681C9.09872 36.4585 8.96674 36.619 8.77768 36.6583C8.77747 36.6584 8.77727 36.6584 8.77706 36.6585C7.30897 36.9608 6.16456 38.1066 5.86153 39.5777C5.82225 39.7674 5.66163 39.8995 5.47113 39.8995ZM3.04299 36.268C3.58562 36.4864 4.08119 36.815 4.50188 37.2389C4.92461 37.6584 5.25301 38.1548 5.47174 38.6999C5.91596 37.5919 6.79416 36.7128 7.9005 36.2684C7.35828 36.0502 6.86127 35.7218 6.43731 35.2981C6.01622 34.8768 5.68925 34.3809 5.47134 33.8377C5.25342 34.3806 4.92645 34.8767 4.50515 35.298C4.08181 35.7214 3.58542 36.0496 3.04299 36.268Z" fill="white"/>
<path d="M8.71363 36.3507H8.71773M5.47113 39.8995C5.28084 39.8995 5.12022 39.7674 5.08093 39.5782C4.93464 38.8577 4.58086 38.2029 4.05746 37.6833C3.5357 37.1577 2.88237 36.804 2.16622 36.6587C1.97573 36.619 1.84375 36.4585 1.84375 36.2681C1.84375 36.0776 1.97573 35.9171 2.16479 35.8778C2.88093 35.7324 3.5359 35.3783 4.06073 34.8536C4.58229 34.332 4.93484 33.677 5.08073 32.9593C5.12022 32.7687 5.28084 32.6367 5.47113 32.6367C5.66163 32.6367 5.82225 32.7687 5.86153 32.9578C6.00763 33.677 6.36017 34.332 6.88173 34.8536C7.40677 35.3784 8.06194 35.7324 8.77625 35.8774C8.96674 35.9171 9.09872 36.0776 9.09872 36.2681C9.09872 36.4585 8.96674 36.619 8.77768 36.6583C8.77747 36.6584 8.77727 36.6584 8.77706 36.6585C7.30897 36.9608 6.16456 38.1066 5.86153 39.5777C5.82225 39.7674 5.66163 39.8995 5.47113 39.8995ZM3.04299 36.268C3.58562 36.4864 4.08119 36.815 4.50188 37.2389C4.92461 37.6584 5.25301 38.1548 5.47174 38.6999C5.91596 37.5919 6.79416 36.7128 7.9005 36.2684C7.35828 36.0502 6.86127 35.7218 6.43731 35.2981C6.01622 34.8768 5.68925 34.3809 5.47134 33.8377C5.25342 34.3806 4.92645 34.8767 4.50515 35.298C4.08181 35.7214 3.58542 36.0496 3.04299 36.268Z" stroke="white" stroke-width="0.6"/>
<path d="M4.54476 5.80015C4.46517 5.80015 4.38537 5.77007 4.32419 5.70981C4.2006 5.58796 4.19897 5.38898 4.32092 5.26529C5.48414 4.08416 7.03531 3.43359 8.68859 3.43359C8.8621 3.43359 9.00287 3.57427 9.00287 3.74788C9.00287 3.92149 8.8621 4.06217 8.68859 4.06217C7.20494 4.06217 5.81296 4.64613 4.76861 5.70644C4.70723 5.76884 4.626 5.80015 4.54476 5.80015Z" fill="white" stroke="white" stroke-width="0.6"/>
<path d="M3.1581 8.06546C3.12557 8.06546 3.09242 8.06034 3.05989 8.0496C2.89497 7.99538 2.80535 7.81778 2.85957 7.65286C2.95942 7.34921 3.08403 7.0516 3.22992 6.76821C3.30952 6.61383 3.49899 6.55306 3.65327 6.63266C3.80755 6.71205 3.86831 6.90162 3.78893 7.0559C3.65797 7.31003 3.54625 7.57695 3.45663 7.84929C3.41305 7.98157 3.29028 8.06546 3.1581 8.06546Z" fill="white" stroke="white" stroke-width="0.6"/>
<path d="M8.68633 14.0211C6.22933 14.0211 4.23047 12.0222 4.23047 9.56523C4.23047 7.10824 6.22933 5.10938 8.68633 5.10938C11.1433 5.10938 13.1422 7.10824 13.1422 9.56523C13.1422 12.0222 11.1433 14.0211 8.68633 14.0211ZM8.68633 5.73795C6.57595 5.73795 4.85904 7.45485 4.85904 9.56523C4.85904 11.6756 6.57595 13.3925 8.68633 13.3925C10.7967 13.3925 12.5136 11.6756 12.5136 9.56523C12.5136 7.45485 10.7967 5.73795 8.68633 5.73795Z" fill="white" stroke="white" stroke-width="0.6"/>
<path d="M7.97699 11.0528C7.89658 11.0528 7.81616 11.0221 7.75478 10.9607L6.82645 10.0325C6.70368 9.90982 6.70368 9.71084 6.82645 9.58807C6.94922 9.4653 7.1481 9.4653 7.27087 9.58807L7.97699 10.2941L10.1009 8.1702C10.2236 8.04743 10.4225 8.04743 10.5453 8.1702C10.6681 8.29287 10.6681 8.49195 10.5453 8.61462L8.1992 10.9607C8.13782 11.0221 8.0574 11.0528 7.97699 11.0528Z" fill="white" stroke="white" stroke-width="0.6"/>
<path d="M22.9485 32.042H20.8465C20.5932 32.042 20.3579 31.928 20.201 31.7294C20.0436 31.5299 19.9872 31.2732 20.0465 31.025L20.5744 28.8894C20.2476 28.547 20.0635 28.094 20.0635 27.619C20.0635 26.6056 20.8862 25.7812 21.8974 25.7812C22.9088 25.7812 23.7316 26.6056 23.7316 27.619C23.7316 28.094 23.5474 28.547 23.2207 28.8894L23.7482 31.0224C23.8079 31.2734 23.7514 31.5302 23.5939 31.7296C23.4371 31.9281 23.2018 32.042 22.9485 32.042ZM21.8974 26.4098C21.2328 26.4098 20.6921 26.9523 20.6921 27.619C20.6921 27.9753 20.8504 28.3136 21.1264 28.547C21.2177 28.6241 21.2572 28.7464 21.2285 28.8624L20.6573 31.1733C20.6382 31.2529 20.6724 31.3119 20.6945 31.3399C20.7162 31.3674 20.7647 31.4134 20.8465 31.4134H22.9485C23.0304 31.4134 23.0791 31.3674 23.1008 31.34C23.1229 31.312 23.1568 31.2528 23.1374 31.1708L22.5665 28.8624C22.5379 28.7464 22.5774 28.6242 22.6686 28.547C22.9446 28.3136 23.103 27.9753 23.103 27.619C23.103 26.9523 22.5622 26.4098 21.8974 26.4098Z" fill="white" stroke="white" stroke-width="0.6"/>
</svg>
