<svg width="17" height="16" viewBox="0 0 17 16" fill="none" xmlns="http://www.w3.org/2000/svg">
<path d="M8.5026 15.0667C4.6045 15.0667 1.43594 11.8981 1.43594 8C1.43594 4.10189 4.6045 0.933328 8.5026 0.933328C12.4007 0.933328 15.5693 4.10189 15.5693 8C15.5693 11.8981 12.4007 15.0667 8.5026 15.0667ZM8.5026 1.73333C5.04738 1.73333 2.23594 4.54477 2.23594 8C2.23594 11.4552 5.04738 14.2667 8.5026 14.2667C11.9578 14.2667 14.7693 11.4552 14.7693 8C14.7693 4.54477 11.9578 1.73333 8.5026 1.73333Z" fill="#0DE0FE" stroke="white" stroke-width="0.2"/>
<path d="M8.5 11.0667C8.2819 11.0667 8.1 10.8848 8.1 10.6667V5.33333C8.1 5.11522 8.2819 4.93333 8.5 4.93333C8.7181 4.93333 8.9 5.11522 8.9 5.33333V10.6667C8.9 10.8848 8.7181 11.0667 8.5 11.0667Z" fill="#0DE0FE" stroke="white" stroke-width="0.2"/>
<path d="M11.1693 8.4H5.83594C5.61783 8.4 5.43594 8.2181 5.43594 8C5.43594 7.7819 5.61783 7.6 5.83594 7.6H11.1693C11.3874 7.6 11.5693 7.7819 11.5693 8C11.5693 8.2181 11.3874 8.4 11.1693 8.4Z" fill="#0DE0FE" stroke="white" stroke-width="0.2"/>
<path d="M8.20293 7.5H8.50293H8.80293V8.5H8.20293V7.5Z" fill="#0DE0FE"/>
</svg>
