<svg width="17" height="17" viewBox="0 0 17 17" fill="none" xmlns="http://www.w3.org/2000/svg">
<path d="M8.4987 15.7958C4.60059 15.7958 1.43203 12.6273 1.43203 8.72917C1.43203 4.83106 4.60059 1.6625 8.4987 1.6625C12.3968 1.6625 15.5654 4.83106 15.5654 8.72917C15.5654 12.6273 12.3968 15.7958 8.4987 15.7958ZM8.4987 2.4625C5.04347 2.4625 2.23203 5.27394 2.23203 8.72917C2.23203 12.1844 5.04347 14.9958 8.4987 14.9958C11.9539 14.9958 14.7654 12.1844 14.7654 8.72917C14.7654 5.27394 11.9539 2.4625 8.4987 2.4625Z" fill="#0DE0FE" stroke="#0DE0FE" stroke-width="0.2"/>
<path d="M8.5 11.7958C8.2819 11.7958 8.1 11.6139 8.1 11.3958V6.0625C8.1 5.8444 8.2819 5.6625 8.5 5.6625C8.7181 5.6625 8.9 5.8444 8.9 6.0625V11.3958C8.9 11.6139 8.7181 11.7958 8.5 11.7958Z" fill="#0DE0FE" stroke="white" stroke-width="0.2"/>
<path d="M11.1654 9.12852H5.83203C5.61393 9.12852 5.43203 8.94662 5.43203 8.72852C5.43203 8.51041 5.61393 8.32852 5.83203 8.32852H11.1654C11.3835 8.32852 11.5654 8.51041 11.5654 8.72852C11.5654 8.94662 11.3835 9.12852 11.1654 9.12852Z" fill="#0DE0FE" stroke="white" stroke-width="0.2"/>
<path d="M8.19902 8.22852H8.49902H8.79902V9.22852H8.19902V8.22852Z" fill="#0DE0FE"/>
</svg>
