<svg width="28" height="28" viewBox="0 0 28 28" fill="none" xmlns="http://www.w3.org/2000/svg">
<path d="M2.20881 8.75463C2.29401 8.96245 2.5068 9.10009 2.73141 9.09227C2.95781 9.0844 3.1572 8.93445 3.2313 8.72133C3.30513 8.50914 3.23327 8.26524 3.06051 8.1231C2.87934 7.97402 2.61476 7.95877 2.41755 8.08597C2.19853 8.22712 2.10851 8.5139 2.20881 8.75463Z" fill="#2E9CB7" stroke="#2E9CB7" stroke-width="0.5"/>
<path fill-rule="evenodd" clip-rule="evenodd" d="M13.9994 24.9455C13.6487 24.9455 13.3106 24.8186 13.0472 24.588C12.0521 23.7187 11.0928 22.9018 10.2464 22.1812L10.242 22.1774C7.76049 20.0646 5.6176 18.24 4.12661 16.4426C2.45991 14.4332 1.68359 12.528 1.68359 10.4467C1.68359 10.431 1.68363 10.4153 1.68369 10.3996C2.10022 10.7474 2.6253 10.9026 3.13882 10.8627C3.23544 12.4485 3.89403 13.9033 5.23743 15.5227C6.64827 17.2237 8.74666 19.0104 11.1763 21.0791L11.1777 21.0804L11.1822 21.0841C12.0318 21.8075 12.9949 22.6277 13.9973 23.5034L14.1007 23.4135C14.3542 23.827 14.6466 24.2141 14.9729 24.5697L14.9514 24.5884C14.6881 24.8186 14.3499 24.9455 13.9994 24.9455ZM4.03793 7.04756C4.22982 6.73284 4.45044 6.43915 4.69827 6.17055C5.69709 5.08832 7.07006 4.49238 8.56462 4.49238C9.65928 4.49238 10.6645 4.84011 11.552 5.5258C12.3432 6.13713 12.8942 6.90994 13.2171 7.45068C13.3832 7.72875 13.6756 7.89473 13.9994 7.89473C14.3232 7.89473 14.6156 7.72875 14.7817 7.45068C15.1048 6.90994 15.6557 6.13713 16.4467 5.5258C17.3343 4.84011 18.3395 4.49238 19.4343 4.49238C20.9287 4.49238 22.3019 5.08832 23.3005 6.17055C24.3142 7.26912 24.8725 8.7877 24.8725 10.4467C24.8725 11.3471 24.7002 12.1986 24.3342 13.0528C24.7577 13.3052 25.1543 13.5982 25.5185 13.9263C26.0569 12.7892 26.3152 11.6473 26.3152 10.4467C26.3152 8.42458 25.6214 6.55902 24.3613 5.19347C23.0863 3.81176 21.3365 3.05078 19.4343 3.05078C18.0125 3.05078 16.7104 3.4999 15.5642 4.38555C14.9856 4.8326 14.4615 5.37972 13.9994 6.01791C13.5375 5.37972 13.0132 4.8326 12.4347 4.38555C11.2886 3.4999 9.98645 3.05078 8.56462 3.05078C6.66226 3.05078 4.77506 3.6183 3.5 5C3.0607 5.47609 2.70693 6.03647 2.43245 6.6502C2.98721 6.55109 3.57437 6.68461 4.03793 7.04756Z" fill="#2E9CB7"/>
<path d="M13.0472 24.588L13.146 24.4751L13.1459 24.4751L13.0472 24.588ZM10.2464 22.1812L10.148 22.2944L10.1491 22.2954L10.2464 22.1812ZM10.242 22.1774L10.3404 22.0642L10.3393 22.0632L10.242 22.1774ZM4.12661 16.4426L4.01115 16.5383L4.01116 16.5383L4.12661 16.4426ZM1.68369 10.3996L1.77984 10.2845L1.53506 10.0801L1.5337 10.399L1.68369 10.3996ZM3.13882 10.8627L3.28855 10.8536L3.27927 10.7014L3.1272 10.7132L3.13882 10.8627ZM5.23743 15.5227L5.35288 15.427L5.35287 15.427L5.23743 15.5227ZM11.1763 21.0791L11.2737 20.9651L11.2735 20.9649L11.1763 21.0791ZM11.1777 21.0804L11.0803 21.1944L11.0817 21.1956L11.1777 21.0804ZM11.1822 21.0841L11.2795 20.9699L11.2782 20.9688L11.1822 21.0841ZM13.9973 23.5034L13.8986 23.6163L13.9971 23.7023L14.0957 23.6166L13.9973 23.5034ZM14.1007 23.4135L14.2286 23.3351L14.136 23.184L14.0023 23.3003L14.1007 23.4135ZM14.9729 24.5697L15.0716 24.6826L15.1873 24.5815L15.0834 24.4682L14.9729 24.5697ZM14.9514 24.5884L14.8527 24.4754L14.8527 24.4755L14.9514 24.5884ZM4.03793 7.04756L3.94546 7.16567L4.07822 7.26962L4.166 7.12565L4.03793 7.04756ZM4.69827 6.17055L4.58804 6.06882L4.58803 6.06883L4.69827 6.17055ZM11.552 5.5258L11.6438 5.4071L11.6438 5.40709L11.552 5.5258ZM13.2171 7.45068L13.0883 7.52758L13.0883 7.52761L13.2171 7.45068ZM14.7817 7.45068L14.9105 7.52761L14.9105 7.52761L14.7817 7.45068ZM16.4467 5.5258L16.355 5.40709L16.355 5.40711L16.4467 5.5258ZM23.3005 6.17055L23.4107 6.06883L23.4107 6.06883L23.3005 6.17055ZM24.3342 13.0528L24.1963 12.9937L24.1446 13.1144L24.2574 13.1816L24.3342 13.0528ZM25.5185 13.9263L25.4181 14.0378L25.5678 14.1727L25.6541 13.9905L25.5185 13.9263ZM24.3613 5.19347L24.4716 5.09175L24.4716 5.09174L24.3613 5.19347ZM15.5642 4.38555L15.6559 4.50425L15.6559 4.50424L15.5642 4.38555ZM13.9994 6.01791L13.8779 6.10586L13.9994 6.2737L14.1209 6.10588L13.9994 6.01791ZM12.4347 4.38555L12.5265 4.26686L12.5264 4.26685L12.4347 4.38555ZM3.5 5L3.38977 4.89827L3.38976 4.89828L3.5 5ZM2.43245 6.6502L2.29552 6.58896L2.1798 6.84771L2.45883 6.79786L2.43245 6.6502ZM12.9484 24.7009C13.2393 24.9554 13.6124 25.0955 13.9994 25.0955V24.7955C13.685 24.7955 13.382 24.6817 13.146 24.4751L12.9484 24.7009ZM10.1491 22.2954C10.9956 23.016 11.9542 23.8324 12.9485 24.701L13.1459 24.4751C12.15 23.605 11.1899 22.7875 10.3436 22.067L10.1491 22.2954ZM10.1436 22.2906L10.148 22.2944L10.3447 22.0679L10.3404 22.0642L10.1436 22.2906ZM4.01116 16.5383C5.51226 18.3479 7.66664 20.1817 10.1448 22.2916L10.3393 22.0632C7.85435 19.9475 5.72293 18.132 4.24206 16.3468L4.01116 16.5383ZM1.53359 10.4467C1.53359 12.5711 2.32796 14.5091 4.01115 16.5383L4.24206 16.3468C2.59185 14.3573 1.83359 12.4849 1.83359 10.4467H1.53359ZM1.5337 10.399C1.53363 10.4149 1.53359 10.4308 1.53359 10.4467H1.83359C1.83359 10.4312 1.83363 10.4157 1.83369 10.4003L1.5337 10.399ZM3.1272 10.7132C2.65131 10.7502 2.16525 10.6063 1.77984 10.2845L1.58755 10.5147C2.03519 10.8886 2.59928 11.0551 3.15045 11.0123L3.1272 10.7132ZM5.35287 15.427C4.02306 13.8239 3.38267 12.3984 3.28855 10.8536L2.9891 10.8719C3.08821 12.4985 3.765 13.9827 5.12198 15.6185L5.35287 15.427ZM11.2735 20.9649C8.84028 18.8931 6.75356 17.1157 5.35288 15.427L5.12197 15.6185C6.54299 17.3317 8.65304 19.1277 11.0791 21.1934L11.2735 20.9649ZM11.2751 20.9663L11.2737 20.9651L11.0789 21.1932L11.0803 21.1944L11.2751 20.9663ZM11.2782 20.9688L11.2737 20.9651L11.0817 21.1956L11.0863 21.1994L11.2782 20.9688ZM14.096 23.3904C13.0928 22.514 12.129 21.6933 11.2795 20.9699L11.085 21.1983C11.9346 21.9218 12.8971 22.7413 13.8986 23.6163L14.096 23.3904ZM14.0023 23.3003L13.8989 23.3902L14.0957 23.6166L14.1991 23.5267L14.0023 23.3003ZM15.0834 24.4682C14.7636 24.1198 14.477 23.7404 14.2286 23.3351L13.9728 23.4918C14.2313 23.9137 14.5296 24.3085 14.8624 24.6711L15.0834 24.4682ZM15.0501 24.7014L15.0716 24.6826L14.8742 24.4567L14.8527 24.4754L15.0501 24.7014ZM13.9994 25.0955C14.3861 25.0955 14.7595 24.9555 15.0501 24.7013L14.8527 24.4755C14.6168 24.6817 14.3136 24.7955 13.9994 24.7955V25.0955ZM4.166 7.12565C4.35288 6.81916 4.56756 6.53341 4.80851 6.27227L4.58803 6.06883C4.33331 6.34488 4.10677 6.64653 3.90986 6.96948L4.166 7.12565ZM4.8085 6.27229C5.77844 5.22134 7.11122 4.64238 8.56462 4.64238V4.34238C7.0289 4.34238 5.61573 4.95531 4.58804 6.06882L4.8085 6.27229ZM8.56462 4.64238C9.62522 4.64238 10.5983 4.97856 11.4603 5.6445L11.6438 5.40709C10.7306 4.70165 9.69334 4.34238 8.56462 4.34238V4.64238ZM11.4603 5.64449C12.2311 6.24009 12.7707 6.99568 13.0883 7.52758L13.3458 7.37379C13.0177 6.8242 12.4553 6.03417 11.6438 5.4071L11.4603 5.64449ZM13.0883 7.52761C13.2815 7.85098 13.6228 8.04473 13.9994 8.04473V7.74473C13.7284 7.74473 13.4849 7.60652 13.3458 7.37375L13.0883 7.52761ZM13.9994 8.04473C14.376 8.04473 14.7173 7.85098 14.9105 7.52761L14.6529 7.37375C14.5139 7.60652 14.2704 7.74473 13.9994 7.74473V8.04473ZM14.9105 7.52761C15.2283 6.99568 15.7678 6.24009 16.5384 5.64448L16.355 5.40711C15.5437 6.03418 14.9812 6.8242 14.6529 7.37375L14.9105 7.52761ZM16.5384 5.6445C17.4004 4.97856 18.3735 4.64238 19.4343 4.64238V4.34238C18.3054 4.34238 17.2681 4.70165 16.355 5.40709L16.5384 5.6445ZM19.4343 4.64238C20.8875 4.64238 22.2205 5.22134 23.1903 6.27228L23.4107 6.06883C22.3832 4.9553 20.9699 4.34238 19.4343 4.34238V4.64238ZM23.1903 6.27227C24.1755 7.34001 24.7225 8.82092 24.7225 10.4467H25.0225C25.0225 8.75448 24.4528 7.19823 23.4107 6.06883L23.1903 6.27227ZM24.7225 10.4467C24.7225 11.3268 24.5543 12.1581 24.1963 12.9937L24.472 13.1119C24.846 12.2391 25.0225 11.3675 25.0225 10.4467H24.7225ZM24.2574 13.1816C24.6724 13.429 25.0611 13.7161 25.4181 14.0378L25.6189 13.8149C25.2474 13.4802 24.843 13.1814 24.411 12.9239L24.2574 13.1816ZM25.6541 13.9905C26.2017 12.834 26.4652 11.6701 26.4652 10.4467H26.1652C26.1652 11.6244 25.9122 12.7445 25.3829 13.8621L25.6541 13.9905ZM26.4652 10.4467C26.4652 8.39051 25.7595 6.48756 24.4716 5.09175L24.2511 5.29519C25.4832 6.63048 26.1652 8.45865 26.1652 10.4467H26.4652ZM24.4716 5.09174C23.1677 3.67886 21.3778 2.90078 19.4343 2.90078V3.20078C21.2952 3.20078 23.0048 3.94467 24.2511 5.29519L24.4716 5.09174ZM19.4343 2.90078C17.9786 2.90078 16.6444 3.36132 15.4725 4.26685L15.6559 4.50424C16.7764 3.63847 18.0464 3.20078 19.4343 3.20078V2.90078ZM15.4725 4.26685C14.8817 4.72335 14.3477 5.28108 13.8779 5.92993L14.1209 6.10588C14.5753 5.47836 15.0895 4.94185 15.6559 4.50425L15.4725 4.26685ZM14.1209 5.92996C13.6512 5.28107 13.1171 4.72334 12.5265 4.26686L12.343 4.50423C12.9092 4.94185 13.4237 5.47837 13.8779 6.10586L14.1209 5.92996ZM12.5264 4.26685C11.3546 3.36132 10.0203 2.90078 8.56462 2.90078V3.20078C9.95259 3.20078 11.2226 3.63847 12.343 4.50424L12.5264 4.26685ZM8.56462 2.90078C6.63573 2.90078 4.70218 3.47609 3.38977 4.89827L3.61023 5.10173C4.84795 3.7605 6.6888 3.20078 8.56462 3.20078V2.90078ZM3.38976 4.89828C2.9379 5.38798 2.57566 5.96258 2.29552 6.58896L2.56938 6.71144C2.8382 6.11037 3.1835 5.56421 3.61024 5.10172L3.38976 4.89828ZM2.45883 6.79786C2.97292 6.70602 3.51656 6.82986 3.94546 7.16567L4.1304 6.92946C3.63217 6.53936 3.00151 6.39616 2.40607 6.50254L2.45883 6.79786Z" fill="#2E9CB7"/>
<path d="M18.9214 16.0352C18.9287 16.0666 18.9605 16.0983 18.9919 16.1057L21.9165 16.7957C21.9478 16.803 21.9478 16.8152 21.9165 16.8225L18.9919 17.5123C18.9605 17.5197 18.9288 17.5515 18.9214 17.5828L18.2315 20.5074C18.2241 20.5388 18.212 20.5388 18.2046 20.5074L17.5149 17.5828C17.5075 17.5515 17.4757 17.5198 17.4444 17.5123L14.5196 16.8225C14.4882 16.8152 14.4882 16.803 14.5196 16.7957L17.4444 16.1057C17.4757 16.0983 17.5074 16.0666 17.5149 16.0352L18.2046 13.1107C18.212 13.0793 18.2241 13.0793 18.2315 13.1107L18.9214 16.0352Z" fill="#2E9CB7"/>
<path d="M20.8678 22.3753C20.8752 22.4066 20.9069 22.4384 20.9383 22.4458L23.2108 22.9819C23.2421 22.9893 23.2421 23.0014 23.2108 23.0088L20.9383 23.5448C20.9069 23.5522 20.8752 23.5839 20.8678 23.6153L20.3318 25.8877C20.3244 25.919 20.3123 25.919 20.3049 25.8877L19.769 23.6153C19.7616 23.5839 19.7298 23.5522 19.6985 23.5448L17.4259 23.0088C17.3945 23.0014 17.3945 22.9893 17.4259 22.9819L19.6985 22.4458C19.7298 22.4384 19.7615 22.4066 19.769 22.3753L20.3049 20.1029C20.3123 20.0715 20.3244 20.0715 20.3318 20.1029L20.8678 22.3753Z" fill="#2E9CB7"/>
<path d="M24.6776 18.3386C24.685 18.37 24.7167 18.4017 24.7481 18.4091L26.4799 18.8176C26.5112 18.825 26.5112 18.8372 26.4799 18.8445L24.7481 19.2531C24.7167 19.2604 24.685 19.2922 24.6776 19.3235L24.269 21.0553C24.2617 21.0867 24.2495 21.0867 24.2422 21.0553L23.8337 19.3235C23.8263 19.2922 23.7946 19.2605 23.7633 19.2531L22.0313 18.8445C22 18.8372 22 18.825 22.0313 18.8176L23.7633 18.4091C23.7946 18.4017 23.8263 18.37 23.8337 18.3386L24.2422 16.6068C24.2495 16.5754 24.2617 16.5754 24.269 16.6068L24.6776 18.3386Z" fill="#2E9CB7"/>
<g opacity="0.02">
<path d="M21.9181 16.7961C21.9494 16.8035 21.9494 16.8156 21.9181 16.823L18.9934 17.5127C18.9621 17.5201 18.9304 17.5518 18.9229 17.5832L18.233 20.5078C18.2256 20.5392 18.2135 20.5392 18.2061 20.5078L18.1266 20.171C18.1192 20.1396 18.1192 20.0883 18.1266 20.0569L18.7425 17.4464C18.7499 17.415 18.7816 17.3833 18.813 17.3759L21.5378 16.7333C21.5691 16.7259 21.6204 16.7259 21.6518 16.7333L21.9181 16.7961Z" fill="#2E9CB7"/>
<path d="M23.2137 22.9836C23.245 22.991 23.245 23.0031 23.2137 23.0105L20.9412 23.5464C20.9099 23.5538 20.8781 23.5855 20.8707 23.6169L20.3346 25.8893C20.3271 25.9207 20.315 25.9207 20.3076 25.8893L20.2282 25.5531C20.2208 25.5217 20.2208 25.4704 20.2282 25.439L20.6903 23.48C20.6977 23.4487 20.7294 23.4169 20.7607 23.4096L22.8334 22.9208C22.8648 22.9134 22.9161 22.9134 22.9475 22.9208L23.2137 22.9836Z" fill="#2E9CB7"/>
<path d="M26.4787 18.8156C26.51 18.823 26.51 18.8351 26.4787 18.8425L24.7471 19.2509C24.7157 19.2583 24.684 19.2901 24.6766 19.3214L24.2681 21.0534C24.2608 21.0847 24.2486 21.0847 24.2412 21.0534L24.1618 20.7166C24.1544 20.6852 24.1544 20.6339 24.1618 20.6025L24.4961 19.1849C24.5035 19.1535 24.5352 19.1218 24.5666 19.1144L26.0987 18.7529C26.1301 18.7455 26.1814 18.7455 26.2128 18.7529L26.4787 18.8156Z" fill="#2E9CB7"/>
</g>
</svg>
