<svg width="33" height="33" viewBox="0 0 33 33" fill="none" xmlns="http://www.w3.org/2000/svg">
<path fill-rule="evenodd" clip-rule="evenodd" d="M11.25 28.6416H18.75C19.141 28.6416 19.5191 28.632 19.8844 28.6125C19.565 28.0406 19.3234 27.4192 19.1742 26.7628C19.0351 26.7653 18.8937 26.7666 18.75 26.7666H11.25C5.4875 26.7666 3.4375 24.7166 3.4375 18.9541V11.4541C3.4375 5.6916 5.4875 3.6416 11.25 3.6416H18.75C24.5125 3.6416 26.5625 5.6916 26.5625 11.4541V18.2264C27.217 18.2784 27.8461 18.4205 28.4375 18.6402V11.4541C28.4375 4.6666 25.5375 1.7666 18.75 1.7666H11.25C4.4625 1.7666 1.5625 4.6666 1.5625 11.4541V18.9541C1.5625 25.7416 4.4625 28.6416 11.25 28.6416Z" fill="#026985"/>
<path d="M13.2891 9.85483C13.2995 9.89876 13.3439 9.94314 13.3878 9.95351L17.4823 10.9194C17.5262 10.9298 17.5262 10.9467 17.4823 10.9571L13.3878 11.9228C13.3439 11.9331 13.2995 11.9776 13.2891 12.0215L12.3233 16.1159C12.313 16.1598 12.296 16.1598 12.2856 16.1159L11.32 12.0215C11.3097 11.9776 11.2653 11.9332 11.2213 11.9228L7.1267 10.9571C7.08277 10.9467 7.08277 10.9298 7.1267 10.9194L11.2213 9.95351C11.2653 9.94318 11.3096 9.89876 11.32 9.85483L12.2856 5.76048C12.296 5.71656 12.313 5.71656 12.3233 5.76048L13.2891 9.85483Z" fill="#026985"/>
<path d="M16.0157 18.7348C16.0261 18.7787 16.0705 18.8231 16.1144 18.8335L19.2959 19.5841C19.3398 19.5944 19.3398 19.6114 19.2959 19.6217L16.1144 20.3722C16.0705 20.3825 16.0261 20.4269 16.0157 20.4708L15.2653 23.6522C15.255 23.6961 15.238 23.6961 15.2277 23.6522L14.4773 20.4708C14.467 20.4269 14.4226 20.3825 14.3786 20.3722L11.197 19.6217C11.1531 19.6114 11.1531 19.5944 11.197 19.5841L14.3786 18.8335C14.4226 18.8231 14.4669 18.7787 14.4773 18.7348L15.2277 15.5534C15.238 15.5095 15.255 15.5095 15.2653 15.5534L16.0157 18.7348Z" fill="#026985"/>
<path d="M21.3471 13.0795C21.3574 13.1235 21.4018 13.1678 21.4457 13.1782L23.8703 13.7502C23.9142 13.7606 23.9142 13.7775 23.8703 13.7879L21.4457 14.3598C21.4018 14.3701 21.3574 14.4145 21.3471 14.4585L20.7751 16.883C20.7648 16.9269 20.7478 16.9269 20.7375 16.883L20.1657 14.4585C20.1553 14.4145 20.1109 14.3702 20.067 14.3598L17.6423 13.7879C17.5984 13.7775 17.5984 13.7606 17.6423 13.7502L20.067 13.1782C20.1109 13.1679 20.1553 13.1235 20.1657 13.0795L20.7375 10.655C20.7478 10.6111 20.7648 10.6111 20.7751 10.655L21.3471 13.0795Z" fill="#026985"/>
<g opacity="0.02">
<path d="M17.4837 10.9208C17.5276 10.9312 17.5276 10.9482 17.4837 10.9585L13.3893 11.9241C13.3453 11.9344 13.3009 11.9788 13.2906 12.0228L12.3246 16.1172C12.3142 16.1611 12.2973 16.1611 12.287 16.1172L12.1757 15.6457C12.1654 15.6018 12.1654 15.5299 12.1757 15.486L13.0379 11.8312C13.0482 11.7873 13.0927 11.7429 13.1366 11.7325L16.9513 10.8329C16.9952 10.8226 17.067 10.8226 17.111 10.8329L17.4837 10.9208Z" fill="black"/>
<path d="M19.2968 19.5849C19.3407 19.5953 19.3407 19.6122 19.2968 19.6225L16.1153 20.3728C16.0715 20.3832 16.027 20.4276 16.0167 20.4715L15.266 23.6529C15.2557 23.6968 15.2387 23.6968 15.2283 23.6529L15.1171 23.1822C15.1068 23.1383 15.1068 23.0664 15.1171 23.0225L15.764 20.2799C15.7744 20.236 15.8188 20.1916 15.8627 20.1812L18.7645 19.497C18.8083 19.4867 18.8802 19.4866 18.9241 19.497L19.2968 19.5849Z" fill="black"/>
<path d="M23.8725 13.7489C23.9164 13.7593 23.9164 13.7762 23.8725 13.7866L21.4482 14.3584C21.4043 14.3687 21.3599 14.4132 21.3496 14.4571L20.7777 16.8818C20.7674 16.9257 20.7504 16.9257 20.7401 16.8818L20.6288 16.4103C20.6185 16.3664 20.6185 16.2945 20.6288 16.2506L21.0969 14.266C21.1073 14.222 21.1517 14.1777 21.1956 14.1673L23.3406 13.6611C23.3844 13.6507 23.4563 13.6507 23.5002 13.6611L23.8725 13.7489Z" fill="black"/>
</g>
<path d="M26 30.4541C25.903 30.4558 25.8088 30.4118 25.7347 30.3302C25.6607 30.2486 25.6119 30.1349 25.5972 30.0101L24.3773 20.4866L23.4914 28.17C23.4774 28.2911 23.4318 28.4021 23.3622 28.4844C23.2925 28.5667 23.2032 28.6152 23.1093 28.6217C23.0153 28.6282 22.9226 28.5923 22.8466 28.5201C22.7707 28.4478 22.7163 28.3437 22.6925 28.2253L21.8662 24.1043L21.3405 25.6453C21.3083 25.739 21.2559 25.8185 21.1896 25.8743C21.1234 25.9301 21.0462 25.9597 20.9673 25.9596H20.0792C20.025 25.9596 19.9731 25.9316 19.9348 25.8818C19.8965 25.8319 19.875 25.7644 19.875 25.6939C19.875 25.6234 19.8965 25.5559 19.9348 25.506C19.9731 25.4562 20.025 25.4282 20.0792 25.4282H20.9673L21.4932 23.8873C21.5276 23.7866 21.5852 23.7023 21.658 23.6461C21.7308 23.5898 21.8152 23.5644 21.8996 23.5734C21.984 23.5824 22.0641 23.6252 22.129 23.6961C22.1938 23.7669 22.2401 23.8622 22.2615 23.9689L23.0876 28.0898L23.9734 20.4069C23.9878 20.2817 24.0361 20.1673 24.1095 20.0843C24.1829 20.0013 24.2767 19.9551 24.374 19.9541C24.4712 19.9531 24.5656 19.9973 24.6401 20.0787C24.7145 20.1602 24.7642 20.2735 24.7801 20.3984L26 29.9227L27.0566 21.6731C27.0721 21.5516 27.1196 21.4408 27.191 21.3599C27.2624 21.2789 27.3532 21.2327 27.4478 21.2292C27.5425 21.2257 27.6351 21.2652 27.7099 21.3408C27.7847 21.4164 27.8369 21.5234 27.8577 21.6436L28.8843 27.5598L29.4996 24.8376C29.5241 24.7291 29.5746 24.6335 29.6438 24.5649C29.7129 24.4963 29.7971 24.4582 29.884 24.4562C29.9709 24.4542 30.0561 24.4883 30.1271 24.5536C30.1981 24.6189 30.2512 24.712 30.2787 24.8193L30.6958 26.4476L30.8639 25.7914C30.891 25.6856 30.943 25.5936 31.0126 25.5284C31.0821 25.4632 31.1657 25.4282 31.2514 25.4282H31.9208C31.975 25.4282 32.0269 25.4562 32.0652 25.506C32.1035 25.5559 32.125 25.6234 32.125 25.6939C32.125 25.7644 32.1035 25.8319 32.0652 25.8818C32.0269 25.9316 31.975 25.9596 31.9208 25.9596H31.2514L31.0838 26.6158C31.0566 26.7215 31.0046 26.8135 30.9351 26.8786C30.8656 26.9438 30.7821 26.9788 30.6964 26.9788C30.6108 26.9788 30.5273 26.9438 30.4578 26.8786C30.3883 26.8135 30.3363 26.7215 30.3091 26.6158L29.8914 24.9875L29.2761 27.7099C29.2505 27.8227 29.1969 27.9214 29.1236 27.9903C29.0504 28.0593 28.9616 28.0946 28.8712 28.0908C28.7806 28.0882 28.6933 28.046 28.6234 27.9709C28.5535 27.8958 28.505 27.7922 28.4859 27.6769L27.4594 21.7619L26.4028 30.0101C26.3881 30.1349 26.3393 30.2486 26.2653 30.3302C26.1912 30.4118 26.097 30.4558 26 30.4541Z" fill="#026985" stroke="#026985" stroke-width="0.5"/>
</svg>
