<svg width="22" height="20" viewBox="0 0 22 20" fill="none" xmlns="http://www.w3.org/2000/svg">
<path d="M21.5846 9.72276L12.3926 0.688506C11.6044 -0.0862869 10.3219 -0.0862446 9.53377 0.688464L0.34179 9.72276C0.0922534 9.96803 0.0887905 10.3691 0.33402 10.6186C0.579249 10.868 0.980307 10.8716 1.2298 10.6263L1.94513 9.92326V17.136C1.94513 18.6562 3.18196 19.8931 4.7022 19.8931H17.2242C18.7445 19.8931 19.9813 18.6562 19.9813 17.136V9.92326L20.6966 10.6263C20.82 10.7475 20.9803 10.808 21.1406 10.808C21.3045 10.808 21.4684 10.7448 21.5924 10.6186C21.8376 10.3691 21.8342 9.96803 21.5846 9.72276ZM18.7143 17.136C18.7143 17.9577 18.0458 18.6262 17.2242 18.6262H4.7022C3.88053 18.6262 3.21203 17.9577 3.21203 17.136V8.67811L10.4218 1.59202C10.4964 1.51866 10.5828 1.46364 10.675 1.42694C10.9285 1.32609 11.2262 1.36389 11.4465 1.54041C11.4665 1.55646 11.4859 1.57365 11.5046 1.59202L18.7144 8.67807V17.136H18.7143Z" fill="#363636"/>
<path d="M9.06659 7.50845V9.54693H7.02798C6.67815 9.54693 6.39453 9.83055 6.39453 10.1804V12.7085C6.39453 13.0583 6.67815 13.342 7.02798 13.342H9.06659V15.3804C9.06659 15.7302 9.3502 16.0139 9.70004 16.0139H12.2282C12.578 16.0139 12.8616 15.7302 12.8616 15.3804V13.342H14.8999C15.2497 13.342 15.5333 13.0583 15.5333 12.7085V10.1804C15.5333 9.83055 15.2497 9.54693 14.8999 9.54693H12.8616V7.50845C12.8616 7.15862 12.578 6.875 12.2282 6.875H9.70004C9.3502 6.875 9.06659 7.15862 9.06659 7.50845ZM10.3335 10.1804V8.1419H11.5947V10.1804C11.5947 10.5302 11.8783 10.8138 12.2282 10.8138H14.2664V12.0751H12.2282C11.8783 12.0751 11.5947 12.3587 11.5947 12.7085V14.747H10.3335V12.7085C10.3335 12.3587 10.0499 12.0751 9.70004 12.0751H7.66143V10.8138H9.70004C10.0499 10.8138 10.3335 10.5302 10.3335 10.1804Z" fill="#363636"/>
</svg>
