<svg width="21" height="22" viewBox="0 0 21 22" fill="none" xmlns="http://www.w3.org/2000/svg">
<path d="M10.5001 19.0237C6.07571 19.0237 2.47656 15.4245 2.47656 11.0001C2.47656 6.5757 6.07571 2.97656 10.5001 2.97656C10.8692 2.97656 11.1687 3.2761 11.1687 3.64515C11.1687 3.86631 10.8691 4 10.5 4C6.81317 4 3.83247 6.78138 3.73407 10.8568C3.73407 14.5437 6.51437 17.8124 10.2012 17.8124C15.2955 17.8124 17.4367 14.5437 17.4367 10.8568C17.4367 10.4878 17.8313 10.3635 17.8431 10.3474C18.3525 10.3474 18.5235 10.6309 18.5235 10.9999C18.5235 15.4244 14.9246 19.0237 10.5001 19.0237ZM16.6783 8.43917C16.5379 8.09822 16.6976 7.70364 17.0394 7.56328C17.3803 7.42292 17.7749 7.58332 17.9153 7.9244C18.0557 8.26534 17.8953 8.65993 17.5542 8.80028C17.4672 8.83375 17.3803 8.85379 17.3001 8.85379C17.0327 8.85379 16.7846 8.69987 16.6783 8.43917ZM15.2267 6.27275C14.9659 6.01194 14.9659 5.58402 15.2267 5.32331C15.4882 5.0625 15.9094 5.0625 16.1694 5.32331C16.4309 5.58412 16.4309 6.01204 16.1694 6.27275C16.043 6.3998 15.8692 6.46662 15.7021 6.46662C15.5282 6.46662 15.3612 6.3998 15.2267 6.27275ZM13.061 4.82184C12.7193 4.68147 12.5595 4.28689 12.6999 3.94595C12.8402 3.60501 13.2281 3.44448 13.5757 3.58483C13.9167 3.7252 14.0772 4.11978 13.9301 4.46072C13.8298 4.71481 13.5757 4.8686 13.315 4.8686C13.2281 4.8686 13.1412 4.8553 13.061 4.82184ZM13.1739 13.0058C13.0736 13.0058 12.9713 12.9831 12.8757 12.9356L10.2012 11.5983C9.97453 11.4847 9.83148 11.2533 9.83148 10.9999V6.3196C9.83148 5.95054 10.2016 5.76252 10.2016 5.76252C10.711 5.76252 10.8511 6.27275 10.8511 6.27275V10.6504L13.1558 11.8289C13.4861 11.994 13.9374 12.3064 13.7723 12.6367C13.6553 12.8707 13.4193 13.0058 13.1739 13.0058Z" fill="#363636"/>
</svg>
