<svg width="20" height="21" viewBox="0 0 20 21" fill="none" xmlns="http://www.w3.org/2000/svg">
<path d="M15.4526 4.16432L10.8693 2.44766C10.3943 2.27266 9.61927 2.27266 9.14427 2.44766L4.56094 4.16432C3.6776 4.49766 2.96094 5.53099 2.96094 6.47266V13.2227C2.96094 13.8977 3.4026 14.7893 3.94427 15.1893L8.5276 18.6143C9.33594 19.2227 10.6609 19.2227 11.4693 18.6143L16.0526 15.1893C16.5943 14.781 17.0359 13.8977 17.0359 13.2227V6.47266C17.0443 5.53099 16.3276 4.49766 15.4526 4.16432ZM12.2359 12.3727C12.1109 12.4977 11.9526 12.556 11.7943 12.556C11.6359 12.556 11.4776 12.4977 11.3526 12.3727L10.0276 11.0477L8.66094 12.4143C8.53594 12.5393 8.3776 12.5977 8.21927 12.5977C8.06094 12.5977 7.9026 12.5393 7.7776 12.4143C7.53594 12.1727 7.53594 11.7727 7.7776 11.531L9.14427 10.1643L7.81094 8.83099C7.56927 8.58932 7.56927 8.18932 7.81094 7.94766C8.0526 7.70599 8.4526 7.70599 8.69427 7.94766L10.0193 9.27266L11.3109 7.98099C11.5526 7.73932 11.9526 7.73932 12.1943 7.98099C12.4359 8.22266 12.4359 8.62266 12.1943 8.86432L10.9026 10.156L12.2276 11.481C12.4776 11.731 12.4776 12.1227 12.2359 12.3727Z" fill="#C10000"/>
</svg>
