<svg width="10" height="10" viewBox="0 0 10 10" fill="none" xmlns="http://www.w3.org/2000/svg">
<path d="M1.73555 9.13365C1.51632 9.13365 1.29709 9.05288 1.12401 8.87981C0.789393 8.54519 0.789393 7.99135 1.12401 7.65673L7.65478 1.12596C7.98939 0.791346 8.54324 0.791346 8.87785 1.12596C9.21247 1.46058 9.21247 2.01442 8.87785 2.34904L2.34708 8.87981C2.18555 9.05288 1.95478 9.13365 1.73555 9.13365Z" fill="#999999"/>
<path d="M8.39132 9.25865C8.17208 9.25865 7.95285 9.17788 7.77978 9.00481L1.24901 2.47404C0.914393 2.13942 0.914393 1.58558 1.24901 1.25096C1.58362 0.916346 2.13747 0.916346 2.47208 1.25096L9.00285 7.78173C9.33747 8.11635 9.33747 8.67019 9.00285 9.00481C8.82978 9.17788 8.61055 9.25865 8.39132 9.25865Z" fill="#999999"/>
</svg>
