<svg width="21" height="21" viewBox="0 0 21 21" fill="none" xmlns="http://www.w3.org/2000/svg">
<g clip-path="url(#clip0_72_16013)">
<path d="M19.6117 13.1163L18.0808 8.70811C18.0377 8.58412 17.9208 8.50102 17.7896 8.50102H17.2699V0.924656C17.2699 0.414791 16.8551 0 16.3453 0H14.7196C14.5493 0 14.4113 0.137977 14.4113 0.308232C14.4113 0.478488 14.5493 0.616465 14.7196 0.616465H16.3453C16.5152 0.616465 16.6535 0.754729 16.6535 0.924697V8.50106H15.8147C15.8768 8.36649 15.9117 8.21682 15.9117 8.05912C15.9117 7.47551 15.4369 7.00075 14.8533 7.00075C14.2697 7.00075 13.795 7.47551 13.795 8.05912C13.795 8.21682 13.8299 8.36645 13.892 8.50106H12.9209C12.9831 8.36649 13.018 8.21682 13.018 8.05912C13.018 7.47551 12.5432 7.00075 11.9596 7.00075C11.376 7.00075 10.9012 7.47551 10.9012 8.05912C10.9012 8.21682 10.9362 8.36645 10.9983 8.50106H10.1594V0.924656C10.1594 0.754688 10.2977 0.616424 10.4677 0.616424H13.4868C13.657 0.616424 13.795 0.478447 13.795 0.308191C13.795 0.137936 13.6569 0 13.4867 0H10.4676C9.9577 0 9.54291 0.414791 9.54291 0.924656V8.50102H8.50957V3.93168H8.58606C8.75627 3.93168 8.89429 3.7937 8.89429 3.62344V2.20082C8.89429 2.03056 8.75627 1.89258 8.58606 1.89258H3.68797C3.51776 1.89258 3.37974 2.03056 3.37974 2.20082V3.62348C3.37974 3.79374 3.51776 3.93172 3.68797 3.93172H3.76447V8.50106H3.21511C3.08386 8.50106 2.967 8.58416 2.92394 8.70815L1.39299 13.1163C1.32018 13.3085 1.47863 13.5313 1.68416 13.5256H2.90691V20.0753C2.90691 20.5852 3.3217 21 3.83157 21H11.0355C11.2057 21 11.3437 20.862 11.3437 20.6918C11.3437 20.5215 11.2057 20.3835 11.0355 20.3835H3.83157C3.6616 20.3835 3.52334 20.2453 3.52334 20.0753V13.5256H6.10059C6.27081 13.5256 6.40883 13.3876 6.40883 13.2174C6.40883 13.0471 6.27081 12.9091 6.10059 12.9091H2.11749L3.43433 9.11745H17.5704L18.8873 12.9091H7.33344C7.16323 12.9091 7.02521 13.0471 7.02521 13.2174C7.02521 13.3876 7.16323 13.5256 7.33344 13.5256H17.4814V20.0753C17.4814 20.2453 17.3431 20.3836 17.1731 20.3836H12.2683C12.0981 20.3836 11.9601 20.5216 11.9601 20.6918C11.9601 20.8621 12.0981 21 12.2683 21H17.1732C17.683 21 18.0978 20.5853 18.0978 20.0754V13.5256H19.3205C19.5262 13.5313 19.6845 13.3085 19.6117 13.1163ZM14.4113 8.05908C14.4113 7.8154 14.6096 7.61713 14.8533 7.61713C15.097 7.61713 15.2952 7.8154 15.2952 8.05908C15.2952 8.30275 15.097 8.50102 14.8533 8.50102C14.6096 8.50102 14.4113 8.30279 14.4113 8.05908ZM11.5177 8.05908C11.5177 7.8154 11.7159 7.61713 11.9596 7.61713C12.2033 7.61713 12.4015 7.8154 12.4015 8.05908C12.4015 8.30275 12.2033 8.50102 11.9596 8.50102C11.7159 8.50102 11.5177 8.30279 11.5177 8.05908ZM6.62572 6.11129H4.38093V5.19824H7.89318V8.50102H6.93395V6.41952C6.93391 6.24926 6.79593 6.11129 6.62572 6.11129ZM3.99621 2.50901H8.27783V3.31525H3.99621V2.50901ZM7.89314 3.93168V4.58177H4.38089V3.93168H7.89314ZM4.38089 6.72771H6.31749V8.50102H4.38089V6.72771Z" fill="#363636"/>
<path d="M13.9098 17.5908H16.0089C16.1791 17.5908 16.3171 17.4529 16.3171 17.2826C16.3171 17.1123 16.1791 16.9744 16.0089 16.9744H13.9098C13.7395 16.9744 13.6016 17.1123 13.6016 17.2826C13.6016 17.4529 13.7395 17.5908 13.9098 17.5908Z" fill="#363636"/>
<path d="M13.9098 18.9558H16.0089C16.1791 18.9558 16.3171 18.8178 16.3171 18.6476C16.3171 18.4773 16.1791 18.3394 16.0089 18.3394H13.9098C13.7395 18.3394 13.6016 18.4773 13.6016 18.6476C13.6016 18.8178 13.7395 18.9558 13.9098 18.9558Z" fill="#363636"/>
<path d="M14.8513 1.57666C14.2677 1.57666 13.793 2.05142 13.793 2.63503C13.793 3.21864 14.2677 3.69344 14.8513 3.69344C15.4349 3.69344 15.9097 3.21868 15.9097 2.63507C15.9097 2.05146 15.4349 1.57666 14.8513 1.57666ZM14.8513 3.07701C14.6077 3.07701 14.4094 2.87874 14.4094 2.63507C14.4094 2.39139 14.6077 2.19312 14.8513 2.19312C15.095 2.19312 15.2933 2.39139 15.2933 2.63507C15.2933 2.87874 15.0951 3.07701 14.8513 3.07701Z" fill="#363636"/>
<path d="M14.8513 4.28882C14.2677 4.28882 13.793 4.76357 13.793 5.34719C13.793 5.9308 14.2677 6.40555 14.8513 6.40555C15.4349 6.40555 15.9097 5.9308 15.9097 5.34719C15.9097 4.76357 15.4349 4.28882 14.8513 4.28882ZM14.8513 5.78913C14.6077 5.78913 14.4094 5.59086 14.4094 5.34719C14.4094 5.10351 14.6077 4.90524 14.8513 4.90524C15.095 4.90524 15.2933 5.10351 15.2933 5.34719C15.2933 5.59086 15.0951 5.78913 14.8513 5.78913Z" fill="#363636"/>
<path d="M11.9568 1.57666C11.3732 1.57666 10.8984 2.05142 10.8984 2.63503C10.8984 3.21864 11.3732 3.69344 11.9568 3.69344C12.5404 3.69344 13.0152 3.21868 13.0152 2.63507C13.0152 2.05146 12.5404 1.57666 11.9568 1.57666ZM11.9568 3.07701C11.7131 3.07701 11.5149 2.87874 11.5149 2.63507C11.5149 2.39139 11.7131 2.19312 11.9568 2.19312C12.2005 2.19312 12.3987 2.39139 12.3987 2.63507C12.3987 2.87874 12.2005 3.07701 11.9568 3.07701Z" fill="#363636"/>
<path d="M11.9568 4.28882C11.3732 4.28882 10.8984 4.76357 10.8984 5.34719C10.8984 5.9308 11.3732 6.40555 11.9568 6.40555C12.5404 6.40555 13.0152 5.9308 13.0152 5.34719C13.0152 4.76357 12.5404 4.28882 11.9568 4.28882ZM11.9568 5.78913C11.7131 5.78913 11.5149 5.59086 11.5149 5.34719C11.5149 5.10351 11.7131 4.90524 11.9568 4.90524C12.2005 4.90524 12.3987 5.10351 12.3987 5.34719C12.3987 5.59086 12.2005 5.78913 11.9568 5.78913Z" fill="#363636"/>
</g>
<defs>
<clipPath id="clip0_72_16013">
<rect width="21" height="21" fill="white"/>
</clipPath>
</defs>
</svg>
