<svg width="29" height="27" viewBox="0 0 29 27" fill="none" xmlns="http://www.w3.org/2000/svg">
<path d="M11 25C10.7153 25 10.4408 24.8899 10.2268 24.6898C9.41888 23.9354 8.63992 23.2265 7.95267 22.6011L7.94916 22.5979C5.93423 20.7644 4.19427 19.181 2.98364 17.6212C1.63034 15.8775 1 14.2242 1 12.4181C1 10.6633 1.56351 9.04441 2.58661 7.8594C3.62192 6.66037 5.04251 6 6.58716 6C7.74164 6 8.79892 6.38974 9.72955 7.15829C10.1992 7.54624 10.6249 8.02103 11 8.57484C11.3752 8.02103 11.8008 7.54624 12.2706 7.15829C13.2012 6.38974 14.2585 6 15.413 6C16.9575 6 18.3782 6.66037 19.4135 7.8594C20.4366 9.04441 21 10.6633 21 12.4181C21 14.2242 20.3698 15.8775 19.0165 17.6211C17.8059 19.181 16.0661 20.7642 14.0515 22.5975C13.363 23.2239 12.5828 23.9339 11.773 24.6901C11.5592 24.8899 11.2846 25 11 25ZM6.58716 7.251C5.37363 7.251 4.25882 7.76815 3.44781 8.7073C2.62476 9.66063 2.17142 10.9784 2.17142 12.4181C2.17142 13.9371 2.70013 15.2957 3.88559 16.823C5.03137 18.2994 6.73563 19.8502 8.70889 21.6459L8.71255 21.6491C9.4024 22.2769 10.1844 22.9886 10.9983 23.7485C11.8171 22.9871 12.6003 22.2743 13.2916 21.6455C15.2647 19.8498 16.9688 18.2994 18.1146 16.823C19.2999 15.2957 19.8286 13.9371 19.8286 12.4181C19.8286 10.9784 19.3752 9.66063 18.5522 8.7073C17.7413 7.76815 16.6264 7.251 15.413 7.251C14.524 7.251 13.7078 7.55276 12.9872 8.14779C12.3449 8.6783 11.8975 9.34893 11.6352 9.81818C11.5003 10.0595 11.2629 10.2035 11 10.2035C10.7371 10.2035 10.4997 10.0595 10.3648 9.81818C10.1026 9.34893 9.65524 8.6783 9.01285 8.14779C8.29218 7.55276 7.47598 7.251 6.58716 7.251Z" fill="#363636" stroke="#363636" stroke-width="0.3"/>
<g filter="url(#filter0_d_882_20328)">
<path d="M18.5984 3H21.3091C21.3947 3 21.4767 3.03433 21.5372 3.09544C21.5977 3.15654 21.6317 3.23942 21.6317 3.32584V6.30482H24.5859C24.6714 6.30482 24.7534 6.33915 24.8139 6.40026C24.8744 6.46137 24.9084 6.54424 24.9084 6.63066V9.36852C24.9084 9.45494 24.8744 9.53782 24.8139 9.59893C24.7534 9.66003 24.6714 9.69436 24.5859 9.69436H21.6308V12.6742C21.6308 12.7606 21.5969 12.8435 21.5364 12.9046C21.4759 12.9657 21.3939 13 21.3083 13H18.5984C18.5129 13 18.4309 12.9657 18.3704 12.9046C18.3099 12.8435 18.2759 12.7606 18.2759 12.6742V9.69436H15.3225C15.237 9.69436 15.1549 9.66003 15.0945 9.59893C15.034 9.53782 15 9.45494 15 9.36852V6.62985C15 6.54343 15.034 6.46055 15.0945 6.39944C15.1549 6.33834 15.237 6.30401 15.3225 6.30401H18.2759V3.32584C18.2759 3.23942 18.3099 3.15654 18.3704 3.09544C18.4309 3.03433 18.5129 3 18.5984 3Z" fill="white"/>
<path d="M21.3817 6.30482V6.55482H21.6317H24.5859C24.6043 6.55482 24.6224 6.56218 24.6362 6.57613C24.6501 6.59015 24.6584 6.60972 24.6584 6.63066V9.36852C24.6584 9.38946 24.6501 9.40903 24.6362 9.42306C24.6224 9.437 24.6043 9.44436 24.5859 9.44436H21.6308H21.3808V9.69436V12.6742C21.3808 12.6951 21.3726 12.7147 21.3587 12.7287C21.3449 12.7426 21.3267 12.75 21.3083 12.75H18.5984C18.58 12.75 18.5619 12.7426 18.5481 12.7287C18.5342 12.7147 18.5259 12.6951 18.5259 12.6742V9.69436V9.44436H18.2759H15.3225C15.3041 9.44436 15.2859 9.437 15.2721 9.42306C15.2583 9.40903 15.25 9.38946 15.25 9.36852V6.62985C15.25 6.60891 15.2583 6.58934 15.2721 6.57531C15.2859 6.56137 15.3041 6.55401 15.3225 6.55401H18.2759H18.5259V6.30401V3.32584C18.5259 3.3049 18.5342 3.28533 18.5481 3.2713C18.5619 3.25736 18.58 3.25 18.5984 3.25H21.3091C21.3275 3.25 21.3457 3.25736 21.3595 3.2713C21.3734 3.28533 21.3817 3.3049 21.3817 3.32584V6.30482Z" stroke="#363636" stroke-width="0.5"/>
</g>
<g filter="url(#filter1_d_882_20328)">
<path d="M16.1591 0H17.7855C17.8368 0 17.886 0.0205976 17.9223 0.0572616C17.9586 0.0939256 17.979 0.143653 17.979 0.195503V1.98289H19.7515C19.8028 1.98289 19.8521 2.00349 19.8883 2.04016C19.9246 2.07682 19.945 2.12655 19.945 2.1784V3.82111C19.945 3.87297 19.9246 3.92269 19.8883 3.95936C19.8521 3.99602 19.8028 4.01662 19.7515 4.01662H17.9785V5.8045C17.9785 5.85635 17.9581 5.90607 17.9218 5.94274C17.8855 5.9794 17.8363 6 17.785 6H16.1591C16.1077 6 16.0585 5.9794 16.0222 5.94274C15.9859 5.90607 15.9656 5.85635 15.9656 5.8045V4.01662H14.1935C14.1422 4.01662 14.093 3.99602 14.0567 3.95936C14.0204 3.92269 14 3.87297 14 3.82111V2.17791C14 2.12606 14.0204 2.07633 14.0567 2.03967C14.093 2.003 14.1422 1.9824 14.1935 1.9824H15.9656V0.195503C15.9656 0.143653 15.9859 0.0939256 16.0222 0.0572616C16.0585 0.0205976 16.1077 0 16.1591 0Z" fill="white"/>
<path d="M17.729 1.98289V2.23289H17.979H19.695V3.76662H17.9785H17.7285V4.01662V5.75H16.2155V4.01662V3.76662H15.9656H14.25V2.2324H15.9656H16.2155V1.9824V0.25H17.729V1.98289Z" stroke="#363636" stroke-width="0.5"/>
</g>
<defs>
<filter id="filter0_d_882_20328" x="11" y="3" width="17.9102" height="18" filterUnits="userSpaceOnUse" color-interpolation-filters="sRGB">
<feFlood flood-opacity="0" result="BackgroundImageFix"/>
<feColorMatrix in="SourceAlpha" type="matrix" values="0 0 0 0 0 0 0 0 0 0 0 0 0 0 0 0 0 0 127 0" result="hardAlpha"/>
<feOffset dy="4"/>
<feGaussianBlur stdDeviation="2"/>
<feComposite in2="hardAlpha" operator="out"/>
<feColorMatrix type="matrix" values="0 0 0 0 0 0 0 0 0 0 0 0 0 0 0 0 0 0 0.25 0"/>
<feBlend mode="normal" in2="BackgroundImageFix" result="effect1_dropShadow_882_20328"/>
<feBlend mode="normal" in="SourceGraphic" in2="effect1_dropShadow_882_20328" result="shape"/>
</filter>
<filter id="filter1_d_882_20328" x="10" y="0" width="13.9453" height="14" filterUnits="userSpaceOnUse" color-interpolation-filters="sRGB">
<feFlood flood-opacity="0" result="BackgroundImageFix"/>
<feColorMatrix in="SourceAlpha" type="matrix" values="0 0 0 0 0 0 0 0 0 0 0 0 0 0 0 0 0 0 127 0" result="hardAlpha"/>
<feOffset dy="4"/>
<feGaussianBlur stdDeviation="2"/>
<feComposite in2="hardAlpha" operator="out"/>
<feColorMatrix type="matrix" values="0 0 0 0 0 0 0 0 0 0 0 0 0 0 0 0 0 0 0.25 0"/>
<feBlend mode="normal" in2="BackgroundImageFix" result="effect1_dropShadow_882_20328"/>
<feBlend mode="normal" in="SourceGraphic" in2="effect1_dropShadow_882_20328" result="shape"/>
</filter>
</defs>
</svg>
