<svg width="16" height="16" viewBox="0 0 16 16" fill="none" xmlns="http://www.w3.org/2000/svg">
<path d="M16 6.39851C15.9921 6.59517 15.8925 6.81975 15.6992 6.99712C14.9253 7.70658 14.1511 8.41537 13.3764 9.12349C13.0147 9.45472 12.6525 9.78543 12.2898 10.1156C12.2379 10.1626 12.2247 10.2043 12.2407 10.2772C12.5191 11.547 12.7953 12.8173 13.0692 14.0881C13.1246 14.3435 13.1792 14.5994 13.2391 14.8539C13.3264 15.2308 13.2149 15.6033 12.9334 15.8141C12.6237 16.046 12.2949 16.0611 11.9675 15.8585C10.9247 15.2115 9.88326 14.562 8.84316 13.9099C8.60035 13.7585 8.35456 13.6106 8.11578 13.4536C8.0359 13.4011 7.97791 13.4006 7.89591 13.4521C6.63105 14.2444 5.36344 15.0319 4.10007 15.8241C3.83176 15.9921 3.55772 16.0553 3.26115 15.9283C2.86878 15.7602 2.66378 15.3297 2.76129 14.8823C3.03703 13.6159 3.3132 12.3495 3.5898 11.0831C3.648 10.8171 3.70005 10.5491 3.76314 10.285C3.78141 10.2087 3.76867 10.1637 3.71322 10.1134C3.23793 9.68197 2.76384 9.24905 2.29095 8.81466C1.62836 8.20763 0.963218 7.60481 0.304449 6.99335C0.0355027 6.74415 -0.0664673 6.42601 0.0437878 6.06219C0.154043 5.69837 0.40047 5.47933 0.767987 5.43986C1.41932 5.37025 2.07172 5.31194 2.72369 5.24964C3.36865 5.188 4.01361 5.12681 4.65857 5.06607C4.87356 5.04589 5.08854 5.02328 5.30374 5.00621C5.373 5.00089 5.40996 4.96918 5.43588 4.90333C6.02008 3.47068 6.60528 2.03861 7.19146 0.607131C7.35334 0.211387 7.64247 -0.00965302 8.00998 0.000323712C8.3775 0.0103004 8.64262 0.197641 8.78836 0.549931C9.18498 1.50836 9.5765 2.46901 9.96972 3.42922C10.1698 3.91697 10.3704 4.40605 10.5671 4.89602C10.5973 4.9714 10.6404 5.00066 10.7158 5.00687C11.2341 5.05269 11.7524 5.10073 12.2704 5.15098C13.0247 5.22252 13.7789 5.29464 14.5331 5.36736C14.7727 5.38953 15.0126 5.4117 15.2516 5.43964C15.6862 5.49329 16.0034 5.87174 16 6.39851Z" fill="#D9D9D9"/>
</svg>
