<svg width="23" height="23" viewBox="0 0 23 23" fill="none" xmlns="http://www.w3.org/2000/svg">
<path d="M11.2487 21.5853C10.5337 21.5853 9.83703 21.2186 9.36036 20.577L8.43453 19.3395C8.24203 19.0828 7.98536 18.9361 7.71036 18.9178C7.43536 18.9086 7.16036 19.0278 6.94036 19.257L6.41786 18.7895L6.92203 19.257C5.60203 20.6686 4.58453 20.5586 4.0987 20.3661C3.6037 20.1736 2.76953 19.5411 2.76953 17.5061V7.18445C2.76953 3.11445 3.94286 1.87695 7.7837 1.87695H14.7137C18.5545 1.87695 19.7279 3.11445 19.7279 7.18445V17.5061C19.7279 19.532 18.8937 20.1645 18.3987 20.3661C17.9129 20.5586 16.9045 20.6686 15.5754 19.257C15.3554 19.0186 15.0804 18.8903 14.7962 18.9178C14.5212 18.9361 14.2554 19.0828 14.0629 19.3395L13.137 20.577C12.6604 21.2186 11.9637 21.5853 11.2487 21.5853ZM7.65536 17.5336C7.69203 17.5336 7.73786 17.5336 7.77453 17.5336C8.45286 17.5703 9.09453 17.9278 9.52536 18.5053L10.4512 19.7428C10.9004 20.3386 11.5879 20.3386 12.037 19.7428L12.9629 18.5053C13.4029 17.9278 14.0354 17.5703 14.7229 17.5336C15.4012 17.497 16.0795 17.7811 16.5745 18.3128C17.2712 19.0553 17.7204 19.147 17.8854 19.0828C18.1054 18.9911 18.3437 18.4595 18.3437 17.5061V7.18445C18.3437 3.87529 17.7662 3.25195 14.7045 3.25195H7.7837C4.72203 3.25195 4.14453 3.87529 4.14453 7.18445V17.5061C4.14453 18.4686 4.38286 19.0003 4.60286 19.0828C4.7587 19.147 5.21703 19.0553 5.9137 18.3128C6.4087 17.8086 7.02286 17.5336 7.65536 17.5336Z" fill="#363636"/>
<path d="M15.1276 11.502H10.0859C9.7101 11.502 9.39844 11.1903 9.39844 10.8145C9.39844 10.4386 9.7101 10.127 10.0859 10.127H15.1276C15.5034 10.127 15.8151 10.4386 15.8151 10.8145C15.8151 11.1903 15.5034 11.502 15.1276 11.502Z" fill="#363636"/>
<path d="M15.1276 7.83398H10.0859C9.7101 7.83398 9.39844 7.52232 9.39844 7.14648C9.39844 6.77065 9.7101 6.45898 10.0859 6.45898H15.1276C15.5034 6.45898 15.8151 6.77065 15.8151 7.14648C15.8151 7.52232 15.5034 7.83398 15.1276 7.83398Z" fill="#363636"/>
<path d="M7.38151 8.0638C6.87734 8.0638 6.46484 7.6513 6.46484 7.14714C6.46484 6.64297 6.87734 6.23047 7.38151 6.23047C7.88568 6.23047 8.29818 6.64297 8.29818 7.14714C8.29818 7.6513 7.88568 8.0638 7.38151 8.0638Z" fill="#363636"/>
<path d="M7.38151 11.7298C6.87734 11.7298 6.46484 11.3173 6.46484 10.8132C6.46484 10.309 6.87734 9.89648 7.38151 9.89648C7.88568 9.89648 8.29818 10.309 8.29818 10.8132C8.29818 11.3173 7.88568 11.7298 7.38151 11.7298Z" fill="#363636"/>
</svg>
