<svg width="25" height="25" viewBox="0 0 25 25" fill="none" xmlns="http://www.w3.org/2000/svg">
<path d="M12.918 23.1367C12.138 23.1367 11.378 22.7367 10.858 22.0367L9.84797 20.6867C9.63797 20.4067 9.35797 20.2467 9.05797 20.2267C8.75797 20.2167 8.45797 20.3467 8.21797 20.5967L7.64797 20.0867L8.19797 20.5967C6.75797 22.1367 5.64797 22.0167 5.11797 21.8067C4.57797 21.5967 3.66797 20.9067 3.66797 18.6867V7.42672C3.66797 2.98672 4.94797 1.63672 9.13797 1.63672H16.698C20.888 1.63672 22.168 2.98672 22.168 7.42672V18.6867C22.168 20.8967 21.258 21.5867 20.718 21.8067C20.188 22.0167 19.088 22.1367 17.638 20.5967C17.398 20.3367 17.098 20.1967 16.788 20.2267C16.488 20.2467 16.198 20.4067 15.988 20.6867L14.978 22.0367C14.458 22.7367 13.698 23.1367 12.918 23.1367ZM8.99797 18.7167C9.03797 18.7167 9.08797 18.7167 9.12797 18.7167C9.86797 18.7567 10.568 19.1467 11.038 19.7767L12.048 21.1267C12.538 21.7767 13.288 21.7767 13.778 21.1267L14.788 19.7767C15.268 19.1467 15.958 18.7567 16.708 18.7167C17.448 18.6767 18.188 18.9867 18.728 19.5667C19.488 20.3767 19.978 20.4767 20.158 20.4067C20.398 20.3067 20.658 19.7267 20.658 18.6867V7.42672C20.658 3.81672 20.028 3.13672 16.688 3.13672H9.13797C5.79797 3.13672 5.16797 3.81672 5.16797 7.42672V18.6867C5.16797 19.7367 5.42797 20.3167 5.66797 20.4067C5.83797 20.4767 6.33797 20.3767 7.09797 19.5667C7.63797 19.0167 8.30797 18.7167 8.99797 18.7167Z" fill="#363636"/>
<path d="M17.1484 12.1367H11.6484C11.2384 12.1367 10.8984 11.7967 10.8984 11.3867C10.8984 10.9767 11.2384 10.6367 11.6484 10.6367H17.1484C17.5584 10.6367 17.8984 10.9767 17.8984 11.3867C17.8984 11.7967 17.5584 12.1367 17.1484 12.1367Z" fill="#363636"/>
<path d="M17.1484 8.13672H11.6484C11.2384 8.13672 10.8984 7.79672 10.8984 7.38672C10.8984 6.97672 11.2384 6.63672 11.6484 6.63672H17.1484C17.5584 6.63672 17.8984 6.97672 17.8984 7.38672C17.8984 7.79672 17.5584 8.13672 17.1484 8.13672Z" fill="#363636"/>
<path d="M8.69824 8.38672C8.14824 8.38672 7.69824 7.93672 7.69824 7.38672C7.69824 6.83672 8.14824 6.38672 8.69824 6.38672C9.24824 6.38672 9.69824 6.83672 9.69824 7.38672C9.69824 7.93672 9.24824 8.38672 8.69824 8.38672Z" fill="#363636"/>
<path d="M8.69824 12.3867C8.14824 12.3867 7.69824 11.9367 7.69824 11.3867C7.69824 10.8367 8.14824 10.3867 8.69824 10.3867C9.24824 10.3867 9.69824 10.8367 9.69824 11.3867C9.69824 11.9367 9.24824 12.3867 8.69824 12.3867Z" fill="#363636"/>
</svg>
