<svg width="30" height="31" viewBox="0 0 30 31" fill="none" xmlns="http://www.w3.org/2000/svg">
<path d="M4.4604 28.8848L4.46463 28.8872C4.98182 29.1828 5.55559 29.3281 6.1627 29.3281C6.91466 29.3281 7.68516 29.0973 8.41802 28.6902L14.5167 25.3034C14.5169 25.3033 14.5171 25.3032 14.5172 25.3031C14.5964 25.2596 14.7705 25.2156 14.9939 25.2156C15.2174 25.2156 15.3915 25.2596 15.4707 25.3031C15.4708 25.3032 15.471 25.3033 15.4712 25.3034L21.5699 28.6902C21.5699 28.6902 21.5699 28.6902 21.57 28.6902C22.9167 29.4384 24.3727 29.5472 25.5275 28.8723C26.6865 28.195 27.2877 26.862 27.2877 25.3281V7.71562C27.2877 4.26448 24.4763 1.45312 21.0252 1.45312H8.9627C5.51155 1.45312 2.7002 4.26448 2.7002 7.71562V25.3406C2.7002 26.8745 3.30141 28.2075 4.4604 28.8848ZM7.03245 26.1785L7.03244 26.1785L7.02804 26.181C6.45187 26.5086 6.06992 26.4771 5.9217 26.3931C5.79346 26.3204 5.5877 26.0211 5.5877 25.3281V7.71562C5.5877 5.85427 7.11384 4.32812 8.97519 4.32812H21.0252C22.8866 4.32812 24.4127 5.85427 24.4127 7.71562V25.3281C24.4127 26.0006 24.2105 26.3138 24.0679 26.3994C23.9302 26.482 23.5598 26.515 22.9723 26.181L22.9724 26.181L22.9679 26.1785L16.8679 22.791L16.8675 22.7908C16.3167 22.4856 15.6484 22.3437 15.0002 22.3437C14.352 22.3437 13.6837 22.4856 13.1329 22.7908L13.1324 22.791L7.03245 26.1785Z" fill="#1877C4" stroke="#1877C4"/>
<path d="M18.2119 7.27344H11.7852C10.3719 7.27344 9.21191 8.43344 9.21191 9.84677V19.2401C9.21191 20.4401 10.0719 20.9468 11.1252 20.3668L14.3786 18.5601C14.7252 18.3668 15.2852 18.3668 15.6252 18.5601L18.8786 20.3668C19.9319 20.9534 20.7919 20.4468 20.7919 19.2401V9.84677C20.7852 8.43344 19.6319 7.27344 18.2119 7.27344ZM17.4119 12.0201L14.7452 14.6868C14.6452 14.7868 14.5186 14.8334 14.3919 14.8334C14.2652 14.8334 14.1386 14.7868 14.0386 14.6868L13.0386 13.6868C12.8452 13.4934 12.8452 13.1734 13.0386 12.9801C13.2319 12.7868 13.5519 12.7868 13.7452 12.9801L14.3919 13.6268L16.7052 11.3134C16.8986 11.1201 17.2186 11.1201 17.4119 11.3134C17.6052 11.5068 17.6052 11.8268 17.4119 12.0201Z" fill="#67DEFF"/>
<path d="M14.1818 12.2222H12V13.3333L12.5455 13.8889L13.0909 14.4444L13.6364 15H14.1818H15L15.8182 13.8889L17.4545 12.7778L18 11.1111V10.5556L16.9091 10L14.1818 12.2222Z" fill="#67DEFF"/>
</svg>
