<svg width="19" height="19" viewBox="0 0 19 19" fill="none" xmlns="http://www.w3.org/2000/svg">
<path d="M13 15.6797H5.5C2.1925 15.6797 1.1875 14.6747 1.1875 11.3672V10.9922C1.1875 10.6847 1.4425 10.4297 1.75 10.4297C2.47 10.4297 3.0625 9.83719 3.0625 9.11719C3.0625 8.39719 2.47 7.80469 1.75 7.80469C1.4425 7.80469 1.1875 7.54969 1.1875 7.24219V6.86719C1.1875 3.55969 2.1925 2.55469 5.5 2.55469H13C16.3075 2.55469 17.3125 3.55969 17.3125 6.86719V7.61719C17.3125 7.92469 17.0575 8.17969 16.75 8.17969C16.03 8.17969 15.4375 8.77219 15.4375 9.49219C15.4375 10.2122 16.03 10.8047 16.75 10.8047C17.0575 10.8047 17.3125 11.0597 17.3125 11.3672C17.3125 14.6747 16.3075 15.6797 13 15.6797ZM2.3125 11.4872C2.3275 14.0672 2.86 14.5547 5.5 14.5547H13C15.505 14.5547 16.1125 14.1122 16.18 11.8622C15.1075 11.6072 14.3125 10.6397 14.3125 9.49219C14.3125 8.34469 15.115 7.37719 16.1875 7.12219V6.86719C16.1875 4.18969 15.6775 3.67969 13 3.67969H5.5C2.86 3.67969 2.3275 4.16719 2.3125 6.74719C3.385 7.00219 4.1875 7.96969 4.1875 9.11719C4.1875 10.2647 3.385 11.2322 2.3125 11.4872Z" fill="#363636"/>
<path d="M11.4997 12.0273C11.0797 12.0273 10.7422 11.6898 10.7422 11.2773C10.7422 10.8648 11.0797 10.5273 11.4922 10.5273C11.9047 10.5273 12.2422 10.8648 12.2422 11.2773C12.2422 11.6898 11.9197 12.0273 11.4997 12.0273Z" fill="#363636"/>
<path d="M6.99969 8.27734C6.57969 8.27734 6.24219 7.93984 6.24219 7.52734C6.24219 7.11484 6.57969 6.77734 6.99219 6.77734C7.40469 6.77734 7.74219 7.11484 7.74219 7.52734C7.74219 7.93984 7.41969 8.27734 6.99969 8.27734Z" fill="#363636"/>
<path d="M6.72078 12.4402C6.57828 12.4402 6.43578 12.3877 6.32328 12.2752C6.10578 12.0577 6.10578 11.6977 6.32328 11.4802L11.3708 6.43266C11.5883 6.21516 11.9483 6.21516 12.1658 6.43266C12.3833 6.65016 12.3833 7.01016 12.1658 7.22766L7.11828 12.2752C7.01328 12.3877 6.86328 12.4402 6.72078 12.4402Z" fill="#363636"/>
</svg>
