<svg width="15" height="15" viewBox="0 0 15 15" fill="none" xmlns="http://www.w3.org/2000/svg">
<path d="M3.41732 6.71875C2.97357 6.71875 2.52357 6.55625 2.17982 6.225C1.02982 5.13125 0.567321 3.9375 0.836071 2.76875C1.15482 1.39375 2.36107 0.78125 3.41732 0.78125C4.47357 0.78125 5.68607 1.4 5.99857 2.76875C6.26732 3.9375 5.79857 5.13125 4.65482 6.225C4.31107 6.55625 3.86732 6.71875 3.41732 6.71875ZM1.74857 2.98125C1.51107 4.025 2.20482 4.95 2.82982 5.54375C3.16107 5.8625 3.67982 5.85625 4.01107 5.54375C4.63607 4.95 5.32982 4.025 5.08607 2.975C4.87357 2.05 4.05482 1.71875 3.42357 1.71875C2.78607 1.71875 1.96732 2.05 1.74857 2.98125Z" fill="#363636"/>
<path d="M3.44531 3.875C3.10156 3.875 2.82031 3.59375 2.82031 3.25C2.82031 2.90625 3.09531 2.625 3.44531 2.625H3.45156C3.79531 2.625 4.07656 2.90625 4.07656 3.25C4.07656 3.59375 3.79531 3.875 3.44531 3.875Z" fill="#363636"/>
<path d="M11.5571 14.2191C11.1133 14.2191 10.6633 14.0566 10.3133 13.7254C9.15709 12.6316 8.68834 11.4379 8.96334 10.2629C9.28209 8.89414 10.4946 8.27539 11.5571 8.27539C12.6196 8.27539 13.8321 8.89414 14.1508 10.2629C14.4196 11.4316 13.9508 12.6316 12.7946 13.7191C12.4508 14.0566 12.0071 14.2191 11.5571 14.2191ZM11.5571 9.21914C10.9196 9.21914 10.0946 9.55039 9.87584 10.4816C9.63209 11.5254 10.3321 12.4566 10.9571 13.0504C11.2883 13.3691 11.8133 13.3691 12.1508 13.0504C12.7758 12.4566 13.4758 11.5316 13.2321 10.4879C13.0258 9.55039 12.2008 9.21914 11.5571 9.21914Z" fill="#363636"/>
<path d="M11.582 11.375C11.2383 11.375 10.957 11.0938 10.957 10.75C10.957 10.4062 11.232 10.125 11.582 10.125H11.5883C11.932 10.125 12.2133 10.4062 12.2133 10.75C12.2133 11.0938 11.9258 11.375 11.582 11.375Z" fill="#363636"/>
<path d="M7.4999 12.3438H5.8249C5.0999 12.3438 4.46865 11.9062 4.21865 11.2312C3.9624 10.5562 4.1499 9.8125 4.69365 9.33125L9.6874 4.9625C9.9874 4.7 9.99365 4.34375 9.90615 4.1C9.8124 3.85625 9.5749 3.59375 9.1749 3.59375H7.4999C7.24365 3.59375 7.03115 3.38125 7.03115 3.125C7.03115 2.86875 7.24365 2.65625 7.4999 2.65625H9.1749C9.8999 2.65625 10.5312 3.09375 10.7812 3.76875C11.0374 4.44375 10.8499 5.1875 10.3062 5.66875L5.3124 10.0375C5.0124 10.3 5.00615 10.6563 5.09365 10.9C5.1874 11.1438 5.4249 11.4062 5.8249 11.4062H7.4999C7.75615 11.4062 7.96865 11.6188 7.96865 11.875C7.96865 12.1312 7.75615 12.3438 7.4999 12.3438Z" fill="#363636"/>
<path d="M7.4999 12.3438H5.8249C5.0999 12.3438 4.46865 11.9062 4.21865 11.2312C3.9624 10.5562 4.1499 9.8125 4.69365 9.33125L9.6874 4.9625C9.9874 4.7 9.99365 4.34375 9.90615 4.1C9.8124 3.85625 9.5749 3.59375 9.1749 3.59375H7.4999C7.24365 3.59375 7.03115 3.38125 7.03115 3.125C7.03115 2.86875 7.24365 2.65625 7.4999 2.65625H9.1749C9.8999 2.65625 10.5312 3.09375 10.7812 3.76875C11.0374 4.44375 10.8499 5.1875 10.3062 5.66875L5.3124 10.0375C5.0124 10.3 5.00615 10.6563 5.09365 10.9C5.1874 11.1438 5.4249 11.4062 5.8249 11.4062H7.4999C7.75615 11.4062 7.96865 11.6188 7.96865 11.875C7.96865 12.1312 7.75615 12.3438 7.4999 12.3438Z" fill="#363636"/>
</svg>
