<svg width="25" height="25" viewBox="0 0 25 25" fill="none" xmlns="http://www.w3.org/2000/svg">
<path d="M18 22.2383L3.25 22.25C2.84 22.25 2.5 21.91 2.5 21.5C2.5 21.09 2.84 20.75 3.25 20.75L18 20.7383C20.86 20.7383 22.25 19.3483 22.25 16.4883V9.48828C22.25 6.62828 20.86 5.23828 18 5.23828H8C5.14 5.23828 3.75 6.62828 3.75 9.48828C3.75 9.89828 3.41 10.2383 3 10.2383C2.59 10.2383 2.25 9.89828 2.25 9.48828C2.25 5.83828 4.35 3.73828 8 3.73828H18C21.65 3.73828 23.75 5.83828 23.75 9.48828V16.4883C23.75 20.1383 21.65 22.2383 18 22.2383Z" fill="#363636"/>
<path d="M12.9988 13.8602C12.1588 13.8602 11.3088 13.6002 10.6588 13.0702L7.5288 10.5702C7.2088 10.3102 7.14881 9.8402 7.4088 9.5202C7.66881 9.2002 8.13879 9.14021 8.45879 9.40021L11.5888 11.9002C12.3488 12.5102 13.6388 12.5102 14.3988 11.9002L17.5288 9.40021C17.8488 9.14021 18.3288 9.1902 18.5788 9.5202C18.8388 9.8402 18.7888 10.3202 18.4588 10.5702L15.3288 13.0702C14.6888 13.6002 13.8388 13.8602 12.9988 13.8602Z" fill="#363636"/>
<path d="M7 18.2383H1C0.59 18.2383 0.25 17.8983 0.25 17.4883C0.25 17.0783 0.59 16.7383 1 16.7383H7C7.41 16.7383 7.75 17.0783 7.75 17.4883C7.75 17.8983 7.41 18.2383 7 18.2383Z" fill="#363636"/>
<path d="M4 14.2383H1C0.59 14.2383 0.25 13.8983 0.25 13.4883C0.25 13.0783 0.59 12.7383 1 12.7383H4C4.41 12.7383 4.75 13.0783 4.75 13.4883C4.75 13.8983 4.41 14.2383 4 14.2383Z" fill="#363636"/>
</svg>
