<svg width="20" height="20" viewBox="0 0 20 20" fill="none" xmlns="http://www.w3.org/2000/svg">
<path d="M1.66797 8.1263C1.3263 8.1263 1.04297 7.84297 1.04297 7.5013V5.41797C1.04297 3.0013 3.00964 1.04297 5.41797 1.04297H7.5013C7.84297 1.04297 8.1263 1.3263 8.1263 1.66797C8.1263 2.00964 7.84297 2.29297 7.5013 2.29297H5.41797C3.69297 2.29297 2.29297 3.69297 2.29297 5.41797V7.5013C2.29297 7.84297 2.00964 8.1263 1.66797 8.1263Z" fill="#2E9CB7"/>
<path d="M18.3333 8.1263C17.9917 8.1263 17.7083 7.84297 17.7083 7.5013V5.41797C17.7083 3.69297 16.3083 2.29297 14.5833 2.29297H12.5C12.1583 2.29297 11.875 2.00964 11.875 1.66797C11.875 1.3263 12.1583 1.04297 12.5 1.04297H14.5833C16.9917 1.04297 18.9583 3.0013 18.9583 5.41797V7.5013C18.9583 7.84297 18.675 8.1263 18.3333 8.1263Z" fill="#2E9CB7"/>
<path d="M14.582 18.957H13.332C12.9904 18.957 12.707 18.6737 12.707 18.332C12.707 17.9904 12.9904 17.707 13.332 17.707H14.582C16.307 17.707 17.707 16.307 17.707 14.582V13.332C17.707 12.9904 17.9904 12.707 18.332 12.707C18.6737 12.707 18.957 12.9904 18.957 13.332V14.582C18.957 16.9987 16.9904 18.957 14.582 18.957Z" fill="#2E9CB7"/>
<path d="M7.5013 18.9583H5.41797C3.00964 18.9583 1.04297 17 1.04297 14.5833V12.5C1.04297 12.1583 1.3263 11.875 1.66797 11.875C2.00964 11.875 2.29297 12.1583 2.29297 12.5V14.5833C2.29297 16.3083 3.69297 17.7083 5.41797 17.7083H7.5013C7.84297 17.7083 8.1263 17.9917 8.1263 18.3333C8.1263 18.675 7.84297 18.9583 7.5013 18.9583Z" fill="#2E9CB7"/>
<path d="M7.4987 9.3737H5.83203C4.65703 9.3737 3.95703 8.6737 3.95703 7.4987V5.83203C3.95703 4.65703 4.65703 3.95703 5.83203 3.95703H7.4987C8.6737 3.95703 9.3737 4.65703 9.3737 5.83203V7.4987C9.3737 8.6737 8.6737 9.3737 7.4987 9.3737ZM5.83203 5.20703C5.34036 5.20703 5.20703 5.34036 5.20703 5.83203V7.4987C5.20703 7.99036 5.34036 8.1237 5.83203 8.1237H7.4987C7.99036 8.1237 8.1237 7.99036 8.1237 7.4987V5.83203C8.1237 5.34036 7.99036 5.20703 7.4987 5.20703H5.83203Z" fill="#2E9CB7"/>
<path d="M14.1667 9.3737H12.5C11.325 9.3737 10.625 8.6737 10.625 7.4987V5.83203C10.625 4.65703 11.325 3.95703 12.5 3.95703H14.1667C15.3417 3.95703 16.0417 4.65703 16.0417 5.83203V7.4987C16.0417 8.6737 15.3417 9.3737 14.1667 9.3737ZM12.5 5.20703C12.0083 5.20703 11.875 5.34036 11.875 5.83203V7.4987C11.875 7.99036 12.0083 8.1237 12.5 8.1237H14.1667C14.6583 8.1237 14.7917 7.99036 14.7917 7.4987V5.83203C14.7917 5.34036 14.6583 5.20703 14.1667 5.20703H12.5Z" fill="#2E9CB7"/>
<path d="M7.4987 16.0417H5.83203C4.65703 16.0417 3.95703 15.3417 3.95703 14.1667V12.5C3.95703 11.325 4.65703 10.625 5.83203 10.625H7.4987C8.6737 10.625 9.3737 11.325 9.3737 12.5V14.1667C9.3737 15.3417 8.6737 16.0417 7.4987 16.0417ZM5.83203 11.875C5.34036 11.875 5.20703 12.0083 5.20703 12.5V14.1667C5.20703 14.6583 5.34036 14.7917 5.83203 14.7917H7.4987C7.99036 14.7917 8.1237 14.6583 8.1237 14.1667V12.5C8.1237 12.0083 7.99036 11.875 7.4987 11.875H5.83203Z" fill="#2E9CB7"/>
<path d="M14.1667 16.0417H12.5C11.325 16.0417 10.625 15.3417 10.625 14.1667V12.5C10.625 11.325 11.325 10.625 12.5 10.625H14.1667C15.3417 10.625 16.0417 11.325 16.0417 12.5V14.1667C16.0417 15.3417 15.3417 16.0417 14.1667 16.0417ZM12.5 11.875C12.0083 11.875 11.875 12.0083 11.875 12.5V14.1667C11.875 14.6583 12.0083 14.7917 12.5 14.7917H14.1667C14.6583 14.7917 14.7917 14.6583 14.7917 14.1667V12.5C14.7917 12.0083 14.6583 11.875 14.1667 11.875H12.5Z" fill="#2E9CB7"/>
</svg>
