<svg width="25" height="24" viewBox="0 0 25 24" fill="none" xmlns="http://www.w3.org/2000/svg">
<g clip-path="url(#clip0_915_9739)">
<path d="M23.7547 8.64531H19.3953V0.784375C19.3953 0.371875 19.0625 0.0390625 18.65 0.0390625H6.44375C6.03125 0.0390625 5.69844 0.371875 5.69844 0.784375V8.64531H1.24531C0.832812 8.64531 0.5 8.97812 0.5 9.39062V23.2188C0.5 23.5 1.5 23.5 1.49531 23.5H24C24.5 23.5 24.5 23.5 24.4953 23.2188V9.39531C24.5 8.98281 24.1672 8.64531 23.7547 8.64531ZM1.5 9.50469L5.70312 9.5L5.69844 22.4734L1.49531 22.4781L1.5 9.50469ZM6.72723 9.39531V1H18.3049V22.4688H15.2375V19.6328C15.2375 18.1187 14.0094 16.8906 12.4953 16.8906C10.9812 16.8906 9.75312 18.1187 9.75312 19.6328V22.4688H6.78351L6.72723 9.39531ZM11 22.4734V19.6422C11 18.5 11.5 18 12.4953 18C13.4098 18 14 18.5 13.9953 19.2375L14 22.4688L11 22.4734ZM23.4737 22.4734H19.3953L19.4216 9.5H23.5L23.4737 22.4734Z" fill="#363636"/>
<path d="M9.59306 8.28906H10.4368C10.6571 8.28906 10.8306 8.46719 10.8306 8.68281V9.52656C10.8306 9.74687 10.6524 9.92031 10.4368 9.92031H9.59306C9.37275 9.92031 9.19931 9.74219 9.19931 9.52656V8.68281C9.19462 8.46719 9.37275 8.28906 9.59306 8.28906Z" fill="#363636"/>
<path d="M14.6086 8.28906H15.4523C15.6727 8.28906 15.8461 8.46719 15.8461 8.68281V9.52656C15.8461 9.74687 15.668 9.92031 15.4523 9.92031H14.6086C14.3883 9.92031 14.2148 9.74219 14.2148 9.52656V8.68281C14.2148 8.46719 14.393 8.28906 14.6086 8.28906Z" fill="#363636"/>
<path d="M12.1008 11.1406H12.9445C13.1648 11.1406 13.3383 11.3187 13.3383 11.5344V12.3781C13.3383 12.5984 13.1602 12.7719 12.9445 12.7719H12.1008C11.8805 12.7719 11.707 12.5937 11.707 12.3781V11.5344C11.707 11.3187 11.8805 11.1406 12.1008 11.1406Z" fill="#363636"/>
<path d="M9.59306 13.9883H10.4368C10.6571 13.9883 10.8306 14.1664 10.8306 14.382V15.2258C10.8306 15.4461 10.6524 15.6195 10.4368 15.6195H9.59306C9.37275 15.6195 9.19931 15.4414 9.19931 15.2258V14.382C9.19462 14.1617 9.37275 13.9883 9.59306 13.9883Z" fill="#363636"/>
<path d="M14.6086 13.9883H15.4523C15.6727 13.9883 15.8461 14.1664 15.8461 14.382V15.2258C15.8461 15.4461 15.668 15.6195 15.4523 15.6195H14.6086C14.3883 15.6195 14.2148 15.4414 14.2148 15.2258V14.382C14.2148 14.1617 14.393 13.9883 14.6086 13.9883Z" fill="#363636"/>
<path d="M12.5 3V4.5V6M11 4.5H14" stroke="#363636" stroke-linecap="round" stroke-linejoin="round"/>
</g>
<defs>
<clipPath id="clip0_915_9739">
<rect width="24" height="24" fill="white" transform="translate(0.5)"/>
</clipPath>
</defs>
</svg>
