<svg width="21" height="20" viewBox="0 0 21 20" fill="none" xmlns="http://www.w3.org/2000/svg">
<path d="M13.0282 16.9756C12.439 17.671 11.7604 18.3612 10.9922 19.0462C11.2005 19.0167 11.4089 18.9803 11.6123 18.9387C12.1689 18.819 12.7043 18.6439 13.2218 18.4046C13.3553 18.3439 13.4855 18.2797 13.6141 18.2138C13.7101 18.3456 13.8175 18.4601 13.9331 18.5572C14.0584 18.663 14.1918 18.7462 14.3318 18.8086C14.0746 18.956 13.811 19.0896 13.5408 19.2144C12.9663 19.478 12.3756 19.6705 11.7669 19.8023C11.1582 19.9341 10.5284 20 9.88068 20C9.23295 20 8.608 19.9341 7.99445 19.8023C7.39229 19.6757 6.81291 19.485 6.2433 19.2266C6.23842 19.2266 6.22703 19.2214 6.22052 19.2144C5.65742 18.956 5.12198 18.6439 4.62235 18.2901C4.1211 17.9364 3.6589 17.5288 3.23739 17.0779C2.80936 16.6288 2.43179 16.1363 2.09979 15.6022C1.76128 15.0681 1.47485 14.4975 1.23236 13.8992C0.984983 13.2871 0.804335 12.6576 0.680648 12.009C0.561843 11.3622 0.5 10.6893 0.5 9.99913C0.5 9.30894 0.561843 8.64302 0.68553 7.98925C0.804335 7.34761 0.983355 6.73025 1.22585 6.1233C1.22585 6.1181 1.23073 6.10596 1.23724 6.09902C1.47973 5.4938 1.77267 4.92847 2.10467 4.39608C2.43668 3.86196 2.81913 3.36946 3.24227 2.92032C3.66378 2.46423 4.12598 2.06191 4.62724 1.70814C5.12849 1.34744 5.6623 1.04223 6.2254 0.783838C6.7999 0.520246 7.39066 0.327755 7.99933 0.195959C8.60638 0.0658979 9.23783 0 9.88393 0C10.5317 0 11.1566 0.0658979 11.7702 0.197694C12.3723 0.324287 12.9517 0.515044 13.5213 0.773433C13.5262 0.773433 13.5376 0.778635 13.5441 0.785572C14.1072 1.04396 14.6426 1.35611 15.1423 1.70988C15.6435 2.06364 16.1057 2.47117 16.5272 2.92205C16.9552 3.3712 17.3328 3.8637 17.6648 4.39781C18.0033 4.93193 18.2898 5.50247 18.5322 6.10075C18.7796 6.71291 18.9603 7.34241 19.084 7.99098C19.1539 8.35862 19.2044 8.7332 19.2353 9.11471L18.3842 8.87367C18.3581 8.63435 18.3239 8.39851 18.28 8.1644C18.1677 7.57132 18.0033 7.00078 17.7787 6.44932C17.6388 6.09555 17.4809 5.75913 17.3051 5.43484H14.558C15.0462 6.32446 15.3978 7.20888 15.611 8.09156L14.6866 7.82971C14.4457 7.03893 14.0828 6.24122 13.5945 5.43484H10.2957V7.06321C10.2371 7.09963 10.1785 7.14298 10.1215 7.19154C10.076 7.22969 10.032 7.27131 9.99134 7.31466C9.93601 7.37536 9.88393 7.43952 9.83999 7.50889C9.76838 7.61987 9.71142 7.743 9.66748 7.87479C9.62354 8.00832 9.5975 8.14185 9.58773 8.27192C9.5796 8.3829 9.58285 8.49736 9.59912 8.61007C9.61215 8.70372 9.63167 8.79563 9.66097 8.88581L9.66911 8.91008C9.67562 8.92916 9.68213 8.94824 9.68864 8.96558C9.6984 8.99506 9.70654 9.0124 9.70979 9.02107L9.71305 9.01933L10.3038 10.4361H10.2941V14.5634H12.0224L12.387 15.4392H10.2957V18.5225C11.2152 17.7179 12.0045 16.9063 12.662 16.093L13.0282 16.9756ZM19.2386 16.9895C19.1832 17.0485 19.1181 17.0936 19.0498 17.1265C18.9782 17.1612 18.9017 17.182 18.8252 17.1889C18.7422 17.1959 18.6576 17.1872 18.5762 17.1595C18.4981 17.1334 18.4232 17.0901 18.3565 17.0311L16.5516 15.3993L15.9316 17.0207C15.8795 17.156 15.8176 17.2808 15.7477 17.3936C15.6761 17.508 15.5963 17.6069 15.5133 17.6849C15.4466 17.7473 15.3734 17.8011 15.2969 17.841C15.2204 17.8809 15.1423 17.9069 15.0609 17.919C14.9665 17.9329 14.8721 17.926 14.781 17.8982C14.6931 17.8705 14.6084 17.8254 14.5271 17.7577C14.462 17.704 14.4018 17.6346 14.3448 17.5514C14.2927 17.4751 14.2455 17.3849 14.2016 17.2808C13.0266 14.4594 11.6253 11.4229 10.5772 8.58233C10.5642 8.54418 10.5544 8.50603 10.5496 8.46614C10.5447 8.42625 10.5431 8.38637 10.5463 8.34648C10.5496 8.29966 10.5593 8.25457 10.574 8.20949C10.5886 8.16613 10.6081 8.12278 10.6326 8.08463C10.6456 8.06555 10.6586 8.04648 10.6749 8.03087C10.6879 8.01699 10.7025 8.00312 10.7188 7.99098C10.7481 7.9667 10.779 7.94589 10.8116 7.92855L10.8197 7.92508C10.8506 7.90948 10.8832 7.89734 10.9141 7.8904L10.9288 7.88693C10.9581 7.88 10.9873 7.87653 11.0166 7.87479C11.0508 7.87306 11.0834 7.87653 11.1159 7.88173C11.1273 7.88346 11.1387 7.8852 11.1501 7.88693C14.0209 8.64649 16.908 9.51357 19.7724 10.3234C19.8749 10.3529 19.966 10.3893 20.0458 10.4309C20.132 10.4778 20.2053 10.5298 20.2655 10.5887C20.3404 10.6616 20.3973 10.7448 20.4364 10.8333C20.4771 10.9252 20.4982 11.024 20.4998 11.1263V11.1281C20.5015 11.2148 20.4901 11.3015 20.4657 11.3882C20.4413 11.4749 20.4038 11.5581 20.355 11.6396C20.2948 11.7402 20.2167 11.8408 20.1223 11.9327C20.0311 12.0229 19.9237 12.1079 19.8049 12.1859C19.3346 12.4807 18.8659 12.7929 18.3988 13.0946L20.1971 14.7368C20.2622 14.7975 20.3143 14.8686 20.3501 14.9467L20.355 14.9605C20.3892 15.0386 20.4103 15.1201 20.4168 15.2051C20.4234 15.29 20.4152 15.3785 20.3908 15.4652C20.368 15.5467 20.3306 15.6265 20.2785 15.6976C20.0035 16.0583 19.5429 16.6895 19.2386 16.9895ZM18.7666 16.36L19.6373 15.271L17.5216 13.3391L17.5102 13.327C17.5004 13.3166 17.489 13.3044 17.4809 13.294C17.4679 13.2784 17.4565 13.2611 17.4467 13.242C17.393 13.1484 17.3816 13.0408 17.4044 12.942C17.4272 12.8431 17.4858 12.753 17.5737 12.6975C18.1856 12.3385 18.8171 11.8894 19.4208 11.5026C19.4908 11.4576 19.5527 11.4073 19.6047 11.357C19.6536 11.3084 19.6943 11.2599 19.7219 11.213C19.7333 11.194 19.7415 11.1784 19.7463 11.1628C19.7333 11.1523 19.7187 11.1437 19.6975 11.1333C19.6666 11.1177 19.6259 11.1038 19.5787 11.0899L11.487 8.8043L14.8851 16.96C14.9046 17.0051 14.9242 17.045 14.9453 17.0779L14.9502 17.0866C14.9616 17.1022 14.9714 17.1161 14.9795 17.1248C14.9925 17.1178 15.0055 17.1057 15.0218 17.0901C15.0609 17.0537 15.0999 17.0034 15.1357 16.9444C15.1748 16.882 15.2106 16.8074 15.2415 16.7242L16.0553 14.5946L16.0634 14.5773C16.0699 14.5634 16.0764 14.5496 16.0829 14.5374L16.0878 14.5287C16.0959 14.5149 16.1057 14.501 16.1171 14.4871C16.1838 14.4039 16.2766 14.3553 16.371 14.3484C16.4654 14.3397 16.563 14.3709 16.6428 14.442L18.7666 16.36ZM8.78214 19.0462C7.45413 17.8583 6.38978 16.6583 5.60209 15.4409H3.00466C3.25203 15.8016 3.5287 16.1363 3.82653 16.4554C4.21549 16.8699 4.63212 17.2358 5.08781 17.5583C5.53861 17.8826 6.02848 18.1635 6.5574 18.4046C6.56229 18.4098 6.5688 18.4098 6.57368 18.4167C7.08633 18.6439 7.61525 18.8242 8.16696 18.9387C8.37039 18.9803 8.57871 19.0167 8.7854 19.0462H8.78214ZM2.46434 14.5652H5.07642C4.35057 13.2091 3.95672 11.8304 3.91115 10.4379H1.33326C1.35604 10.9182 1.40649 11.3795 1.49112 11.8356C1.60342 12.4287 1.76616 12.9992 1.99238 13.5507C2.13234 13.9044 2.29021 14.2409 2.46434 14.5652ZM1.33326 9.56213H3.92906C4.02508 8.19388 4.4531 6.82043 5.21312 5.43484H2.46434C2.29021 5.75913 2.13234 6.09382 1.99075 6.44932C1.98587 6.45452 1.98587 6.46146 1.97936 6.46666C1.76616 7.01292 1.59691 7.57652 1.4895 8.1644C1.40649 8.62048 1.34953 9.08177 1.33326 9.56213ZM2.99978 4.55909H5.74205C6.52485 3.35906 7.55504 2.15382 8.8391 0.941646C8.608 0.971126 8.38341 1.00754 8.16371 1.0561C7.60712 1.17576 7.07168 1.35091 6.55415 1.59022C6.03011 1.82953 5.54024 2.1122 5.08455 2.43649C4.62886 2.76077 4.21223 3.12668 3.82327 3.53941C3.52545 3.85676 3.24878 4.19318 3.00141 4.55389L2.99978 4.55909ZM10.932 0.941646C12.221 2.15382 13.2511 3.35906 14.0291 4.55909H16.7713C16.524 4.19839 16.2473 3.8637 15.9495 3.54461C15.5605 3.13015 15.1439 2.76424 14.6882 2.43995C14.2374 2.11567 13.7475 1.83473 13.2186 1.59369C13.2137 1.58849 13.2072 1.58849 13.2023 1.58155C12.6897 1.35437 12.1607 1.17402 11.609 1.05957C11.3844 1.01101 11.1582 0.976329 10.9336 0.945114V0.941646H10.932ZM10.2957 1.51218V4.55909H13.02C12.3056 3.55155 11.3991 2.53707 10.2957 1.51218ZM9.47381 18.5242V15.4409H6.60785C7.34509 16.4727 8.30204 17.5046 9.47381 18.5242ZM9.47381 14.5652V10.4379H4.73302C4.78347 11.8235 5.22289 13.1969 6.03336 14.5652H9.47381ZM9.47381 9.56213V5.43484H6.17495C5.3303 6.83257 4.85834 8.20602 4.75092 9.56213H9.47381ZM9.47381 4.55909V1.51218C8.37039 2.5388 7.4639 3.55155 6.74944 4.55909H9.47381Z" fill="#363636"/>
</svg>
