<svg width="25" height="24" viewBox="0 0 25 24" fill="none" xmlns="http://www.w3.org/2000/svg">
<path d="M1.75 6.55C1.75 7.68 2.02 8.87 2.54 10.1C3.05 11.3 3.75 12.51 4.6 13.69C5.46 14.86 6.42 15.99 7.47 17.06C8.54 18.12 9.67 19.08 10.83 19.93C12.03 20.79 13.23 21.48 14.39 21.97C15.63 22.49 16.83 22.75 17.96 22.75C18.74 22.75 19.48 22.61 20.17 22.34C20.88 22.06 21.54 21.61 22.11 21C22.87 20.23 23.25 19.35 23.25 18.41C23.25 18.02 23.16 17.62 23 17.28C22.82 16.89 22.55 16.56 22.19 16.32L18.92 14C18.63 13.79 18.35 13.63 18.07 13.52C17.77 13.39 17.47 13.32 17.18 13.32C16.8 13.32 16.43 13.43 16.08 13.64C15.81 13.79 15.52 14.02 15.23 14.31L14.52 14.99C14.49 14.98 14.47 14.97 14.45 14.96C14.24 14.84 13.88 14.6 13.34 14.14C12.78 13.65 12.27 13.19 11.8 12.73C11.22 12.14 10.76 11.65 10.38 11.19C9.9 10.62 9.66 10.25 9.55 10.03L9.5 10.05L10.22 9.32C10.53 9.01 10.76 8.71 10.91 8.42C11.25 7.87 11.31 7.17 11.02 6.47C10.91 6.21 10.76 5.93 10.55 5.63L8.19 2.31C7.94 1.94 7.62 1.67 7.24 1.51C6.86 1.36 6.51 1.29 6.16 1.29C5.68 1.29 5.2 1.4 4.75 1.61C4.3 1.82 3.91 2.08 3.55 2.41C2.92 2.98 2.47 3.6 2.18 4.32C1.9 5.01 1.75 5.76 1.75 6.55ZM21.75 18.41C21.75 18.96 21.51 19.47 21.03 19.96C20.6 20.42 20.13 20.74 19.62 20.94C19.1 21.15 18.55 21.25 17.96 21.25C17.03 21.25 16.02 21.03 14.98 20.59C13.92 20.14 12.82 19.51 11.72 18.71C10.62 17.91 9.55 17 8.54 16C7.55 15 6.63 13.92 5.82 12.81C5.03 11.73 4.39 10.62 3.93 9.52C3.2 7.81 3.03 6.21 3.58 4.89C3.79 4.38 4.11 3.93 4.57 3.52C4.82 3.29 5.09 3.11 5.41 2.96C5.66 2.84 5.92 2.78 6.18 2.78C6.34 2.78 6.5 2.81 6.68 2.89C6.74 2.92 6.85 2.98 6.98 3.17L9.34 6.49C9.48 6.69 9.58 6.87 9.65 7.04C9.74 7.26 9.83 7.35 9.62 7.69C9.52 7.89 9.37 8.07 9.17 8.27L8.42 9.03C8.04 9.42 7.95 10.02 8.12 10.48L8.24 10.75C8.46 11.16 8.8 11.64 9.25 12.17C9.66 12.65 10.14 13.17 10.76 13.8C11.26 14.29 11.79 14.78 12.38 15.29C12.93 15.76 13.4 16.1 13.79 16.31L14.09 16.43C14.32 16.49 14.45 16.51 14.59 16.51C14.95 16.51 15.27 16.38 15.52 16.13L16.3 15.38C16.5 15.18 16.69 15.03 16.86 14.93C16.99 14.85 17.1 14.82 17.2 14.82C17.28 14.82 17.4 14.85 17.52 14.9C17.68 14.97 17.86 15.08 18.05 15.22L21.33 17.54C21.47 17.64 21.57 17.76 21.64 17.91C21.71 18.07 21.75 18.24 21.75 18.41ZM9.49 10.05L8.81 10.21L9.51 9.94C9.52 9.99 9.51 10.03 9.49 10.05Z" fill="#363636"/>
<path d="M14.75 5.5C14.75 5.91 15.09 6.25 15.5 6.25C15.86 6.25 16.61 6.61 17.25 7.21C17.88 7.8 18.25 8.45 18.25 9C18.25 9.41 18.59 9.75 19 9.75C19.41 9.75 19.75 9.41 19.75 9C19.75 8.03 19.23 7.01 18.28 6.12C17.39 5.29 16.3 4.75 15.5 4.75C15.09 4.75 14.75 5.09 14.75 5.5Z" fill="#363636"/>
<path d="M14.75 2C14.75 2.41 15.09 2.75 15.5 2.75C18.95 2.75 21.75 5.55 21.75 9C21.75 9.41 22.09 9.75 22.5 9.75C22.91 9.75 23.25 9.41 23.25 9C23.25 4.73 19.77 1.25 15.5 1.25C15.09 1.25 14.75 1.59 14.75 2Z" fill="#363636"/>
</svg>
