<svg width="21" height="22" viewBox="0 0 21 22" fill="none" xmlns="http://www.w3.org/2000/svg">
<path d="M10.4987 10.6361C11.6934 10.6361 12.6654 9.61153 12.6654 8.35221C12.6654 7.0929 11.6934 6.06836 10.4987 6.06836C9.304 6.06836 8.33203 7.0929 8.33203 8.35221C8.33203 9.61153 9.304 10.6361 10.4987 10.6361ZM10.4987 7.59093C10.8969 7.59093 11.2209 7.93244 11.2209 8.35221C11.2209 8.77199 10.8969 9.1135 10.4987 9.1135C10.1005 9.1135 9.77648 8.77199 9.77648 8.35221C9.77648 7.93244 10.1005 7.59093 10.4987 7.59093Z" fill="#363636"/>
<path d="M17 8.35156C17 4.57361 14.0841 1.5 10.5 1.5C6.9159 1.5 4 4.57361 4 8.35156C4 9.84616 4.44857 11.2666 5.29726 12.4592L8.76602 17.334C9.17346 17.9065 9.82169 18.2483 10.5 18.2483C11.1783 18.2483 11.8265 17.9065 12.234 17.3339L15.7027 12.4592C16.5514 11.2666 17 9.84616 17 8.35156ZM14.9099 12L10.9895 17.0285C10.8514 17.2226 10.6405 17.3339 10.411 17.3339C10.1815 17.3339 9.97063 17.2226 9.83251 17.0286L6.37172 12C5.71208 11.073 4.94869 9.51408 4.94869 8.35156C4.94869 5.41316 7.71237 2.5 10.5 2.5C13.2876 2.5 16.2011 5.41316 16.2011 8.35156C16.2011 9.51408 15.5696 11.073 14.9099 12Z" fill="#363636"/>
<path d="M14.4372 20C14.4372 19.7239 14.0974 19.5 13.6782 19.5H7.60661C7.18744 19.5 6.84766 19.7239 6.84766 20C6.84766 20.2761 7.18744 20.5 7.60661 20.5H13.6782C14.0974 20.5 14.4372 20.2761 14.4372 20Z" fill="#363636"/>
</svg>
