<svg width="23" height="26" viewBox="0 0 23 26" fill="none" xmlns="http://www.w3.org/2000/svg">
<g clip-path="url(#clip0_109_16773)">
<path d="M16.161 13.9022C16.278 13.7943 16.2792 13.618 16.1638 13.5086C16.0484 13.3992 15.8599 13.398 15.743 13.506C15.6344 13.6062 15.3741 13.7233 14.9978 13.7233C14.6216 13.7233 14.3613 13.6062 14.2527 13.506C14.1356 13.398 13.9472 13.3992 13.8318 13.5086C13.7164 13.618 13.7177 13.7943 13.8347 13.9022C14.0909 14.1387 14.5257 14.2799 14.9978 14.2799C15.4699 14.2799 15.9047 14.1387 16.161 13.9022Z" fill="#363636"/>
<path fill-rule="evenodd" clip-rule="evenodd" d="M17.8545 17.8849L21.1395 18.9693C22.0197 19.2598 22.6112 20.0417 22.6112 20.9148V23.2217C22.6112 23.3754 22.4779 23.5 22.3136 23.5C22.1492 23.5 22.016 23.3754 22.016 23.2217V20.9147C22.016 20.2772 21.5842 19.7063 20.9413 19.4941L19.9235 19.1581L19.9321 19.2043C19.9796 19.4589 19.9049 19.7184 19.7271 19.9163C19.5492 20.1142 19.2887 20.2277 19.0123 20.2277H18.9364L19.2402 20.9379C19.3887 21.2852 19.2845 21.6819 18.9809 21.9253L17.1003 23.4329C17.0442 23.478 16.9754 23.5 16.9068 23.5C16.8229 23.5 16.7396 23.467 16.6807 23.4028C16.5737 23.2861 16.5882 23.1104 16.713 23.0103L18.5936 21.5027C18.7036 21.4145 18.7414 21.2706 18.6876 21.1447L18.2206 20.0528C18.184 19.9671 18.1951 19.8699 18.2505 19.7934C18.3058 19.717 18.3981 19.6712 18.4969 19.6712H19.0123C19.114 19.6712 19.206 19.6311 19.2715 19.5583C19.3369 19.4855 19.3633 19.3938 19.3458 19.3001L19.2797 18.9456L17.7596 18.4438L16.9902 19.9555C16.9959 19.8487 16.9988 19.7411 16.9988 19.6328C16.9988 19.3384 16.9776 19.049 16.9366 18.766L17.2281 18.1932C16.8457 17.9204 16.6091 17.4911 16.6091 17.0253V16.0772C16.4009 16.1535 16.185 16.2154 15.9629 16.2617C15.8451 16.0885 15.7184 15.9219 15.5836 15.7623C17.4226 15.498 18.8355 14.008 18.8355 12.2152V11.3036H18.1434C18.1531 11.3583 18.1584 11.4143 18.1584 11.4715C18.1584 12.0351 17.6682 12.4935 17.0657 12.4935H16.4296C15.827 12.4935 15.3369 12.035 15.3369 11.4715C15.3369 11.4046 15.2018 11.3036 14.9983 11.3036C14.7948 11.3036 14.6598 11.4046 14.6598 11.4715C14.6598 12.0351 14.1696 12.4935 13.5671 12.4935H12.931C12.3284 12.4935 11.8383 12.035 11.8383 11.4715C11.8383 11.4143 11.8435 11.3583 11.8533 11.3036H11.1612V12.2152C11.1612 12.7258 11.2758 13.2118 11.4823 13.652C11.3228 13.6393 11.1615 13.6328 10.9988 13.6328H10.8329C10.6603 13.1903 10.566 12.7129 10.566 12.2152V11.0721L10.9988 11V9.95654C11.1393 9.84194 11.3083 9.75477 11.4969 9.70578C12.8409 9.35665 13.8313 8.79663 14.4255 8.38832C15.071 7.94471 15.4023 7.57873 15.4061 7.57456L15.4061 7.57455C15.5117 7.45691 15.6992 7.44121 15.8252 7.53974C15.9511 7.63823 15.9681 7.81331 15.8631 7.93124C15.8054 7.99596 14.4192 9.52431 11.6563 10.2421C11.397 10.3094 11.2077 10.5103 11.1689 10.747H12.1612C12.3588 10.5632 12.6309 10.4495 12.931 10.4495H13.5671C13.9332 10.4495 14.2576 10.619 14.456 10.8783C14.608 10.7954 14.7945 10.747 14.9983 10.747C15.2022 10.747 15.3887 10.7954 15.5406 10.8783C15.739 10.619 16.0634 10.4495 16.4296 10.4495H17.0657C17.3657 10.4495 17.6378 10.5632 17.8355 10.747H18.8213C18.7708 10.2334 18.5812 9.74411 18.2645 9.31813C17.8992 8.82684 17.3924 8.45248 16.7991 8.23562C16.646 8.17969 16.5705 8.01827 16.6302 7.8751C16.69 7.73193 16.8626 7.66124 17.0157 7.7172C17.7194 7.9744 18.3201 8.41808 18.7531 9.00033C19.1963 9.59649 19.4306 10.2967 19.4306 11.0253V12.2152C19.4306 13.7504 18.5337 15.0934 17.2042 15.8098V16.7547C18.6197 16.4785 19.9395 16.0262 20.6244 15.7712C20.7093 15.7396 20.7756 15.6787 20.8111 15.5998C20.8458 15.5227 20.8461 15.4384 20.8121 15.3622C20.4908 14.6427 20.1077 13.461 20.1077 11.9177V9.83536C20.1077 7.20038 17.8156 5.05664 14.9983 5.05664C13.3804 5.05664 11.9356 5.76369 10.9988 6.86479V6.03455C12.029 5.08603 13.4419 4.5 14.9983 4.5C18.1438 4.5 20.7029 6.89344 20.7029 9.83533V11.9176C20.7029 13.4453 21.1154 14.5971 21.3613 15.1477C21.4573 15.3627 21.4567 15.5999 21.3597 15.8156C21.2619 16.0332 21.0789 16.2011 20.8445 16.2883C20.1298 16.5545 18.7412 17.0296 17.2546 17.3132C17.3482 17.575 17.5661 17.7897 17.8545 17.8849ZM9.29382 11.2842V11.9177C9.29382 12.5619 9.22047 13.1392 9.11719 13.6328H9.72523C9.82402 13.1271 9.88893 12.553 9.88893 11.9177V11.185L9.29382 11.2842ZM13.5532 11.3227C13.5532 11.4765 13.42 11.6011 13.2556 11.6011C13.0913 11.6011 12.9581 11.4765 12.9581 11.3227V11.0061H12.931C12.6566 11.0061 12.4334 11.2149 12.4334 11.4715C12.4334 11.7281 12.6566 11.9369 12.931 11.9369H13.5671C13.8415 11.9369 14.0647 11.7281 14.0647 11.4715C14.0647 11.2149 13.8414 11.0061 13.5671 11.0061H13.5532V11.3227ZM17.0386 11.3227C17.0386 11.4765 16.9054 11.6011 16.741 11.6011C16.5767 11.6011 16.4434 11.4765 16.4434 11.3227V11.0061H16.4296C16.1552 11.0061 15.932 11.2149 15.932 11.4715C15.932 11.7281 16.1552 11.9369 16.4296 11.9369H17.0657C17.3401 11.9369 17.5633 11.7281 17.5633 11.4715C17.5633 11.2149 17.3401 11.0061 17.0657 11.0061H17.0386V11.3227Z" fill="#363636"/>
</g>
<path d="M14.7013 14.2074C14.6995 14.2066 14.6976 14.2058 14.6957 14.205L10.9518 12.6973C10.7753 12.5762 10.5902 12.4668 10.3974 12.3701V11.5118C11.0979 10.9657 11.5853 10.1475 11.7096 9.21205C12.5608 9.20884 13.2522 8.49786 13.2522 7.62422C13.2522 7.18081 13.0739 6.77952 12.7872 6.49115V5.2304C12.7872 2.69529 10.7763 0.632812 8.3045 0.632812C5.8327 0.632812 3.82177 2.69529 3.82177 5.2304V6.49124C3.53519 6.77961 3.35693 7.18086 3.35693 7.62422C3.35693 8.49786 4.04843 9.20884 4.8995 9.21205C5.02376 10.1474 5.51117 10.9657 6.21154 11.5117V12.3736C6.0217 12.4693 5.83952 12.5767 5.66621 12.6956L1.91792 14.2051C1.91605 14.2059 1.91418 14.2066 1.91236 14.2075C1.83425 14.2404 0 15.039 0 17.2358V24.7755C0 24.9895 0.16901 25.1628 0.377632 25.1628H11.0524C11.261 25.1628 11.4301 24.9895 11.4301 24.7755C11.4301 24.5615 11.261 24.3882 11.0524 24.3882H6.47066V20.6442C6.47066 20.4302 6.30165 20.2569 6.09303 20.2569C5.88441 20.2569 5.7154 20.4303 5.7154 20.6442V24.3882H3.61194V20.472C3.61194 20.258 3.44293 20.0847 3.2343 20.0847C3.02568 20.0847 2.85667 20.2581 2.85667 20.472V24.3882H0.755264V17.2357C0.755264 15.5808 2.11939 14.9589 2.19787 14.9246L4.34226 14.0609C3.85578 14.8143 3.57139 15.7053 3.55079 16.643C3.55074 16.6459 3.55069 16.6488 3.55069 16.6517V17.39C3.17736 17.5441 2.91282 17.9186 2.91282 18.356C2.91282 18.9302 3.36837 19.3975 3.92833 19.3975C4.48819 19.3975 4.94374 18.9302 4.94374 18.356C4.94374 17.9186 4.67925 17.5441 4.30596 17.39V16.6563C4.33646 15.3351 4.9883 14.1236 6.02123 13.3847L6.2172 13.3058C6.2314 13.3931 6.27395 13.4735 6.33954 13.5328L7.73156 14.79L5.84466 16.4791C5.76249 16.5526 5.71535 16.659 5.71535 16.7709V19.5079C5.71535 19.7218 5.88441 19.8952 6.09299 19.8952C6.30156 19.8952 6.47062 19.7218 6.47062 19.5079V16.9469L8.52802 15.1053C8.53778 15.098 8.54731 15.0903 8.55652 15.082L10.2718 13.5327C10.2869 13.5191 10.3004 13.504 10.3131 13.4883C10.315 13.486 10.3169 13.4838 10.3187 13.4815C10.3306 13.466 10.3413 13.4496 10.3507 13.4325C10.3521 13.4299 10.3534 13.4273 10.3548 13.4247C10.3734 13.3889 10.3866 13.3503 10.3936 13.31C10.3939 13.3083 10.3946 13.3067 10.3948 13.305L10.5931 13.3849C11.1984 13.8169 11.6784 14.4133 11.9754 15.1111H11.8671C11.2232 15.1111 10.6993 15.6483 10.6993 16.3087V18.1996C10.6993 18.86 11.2231 19.3972 11.8671 19.3972C12.0757 19.3972 12.2447 19.2239 12.2447 19.0099C12.2447 18.796 12.0757 18.6226 11.8671 18.6226C11.6397 18.6226 11.4546 18.4328 11.4546 18.1996V16.3087C11.4546 16.0754 11.6397 15.8857 11.8671 15.8857H13.1839C13.4114 15.8857 13.5964 16.0754 13.5964 16.3087V18.1996C13.5964 18.4329 13.4114 18.6226 13.1839 18.6226C12.9753 18.6226 12.8063 18.796 12.8063 19.0099C12.8063 19.2239 12.9753 19.3972 13.1839 19.3972C13.8279 19.3972 14.3518 18.86 14.3518 18.1996V16.3087C14.3518 15.6483 13.8279 15.1111 13.1839 15.1111H12.7877C12.658 14.7388 12.4859 14.3873 12.2767 14.0629L14.4157 14.9244C14.4735 14.9497 15.8583 15.5788 15.8583 17.2355V24.388H13.7571V20.4718C13.7571 20.2578 13.5881 20.0844 13.3795 20.0844C13.1708 20.0844 13.0018 20.2578 13.0018 20.4718V24.388H12.1768C11.9682 24.388 11.7992 24.5613 11.7992 24.7753C11.7992 24.9892 11.9682 25.1626 12.1768 25.1626H16.2359C16.4446 25.1626 16.6136 24.9892 16.6136 24.7753V17.2357C16.6137 15.039 14.7794 14.2403 14.7013 14.2074ZM3.92837 18.6228C3.78487 18.6228 3.66813 18.5031 3.66813 18.3559C3.66813 18.2088 3.78487 18.0891 3.92837 18.0891C4.07183 18.0891 4.18847 18.2088 4.18847 18.3559C4.18852 18.5031 4.07183 18.6228 3.92837 18.6228ZM12.0437 6.88981C12.0613 6.89843 12.0785 6.90768 12.0954 6.91755C12.1001 6.92028 12.1048 6.92306 12.1095 6.92593C12.1252 6.93561 12.1405 6.94591 12.1556 6.95659C12.1603 6.95999 12.1652 6.9633 12.1699 6.9668C12.3678 7.11479 12.4969 7.35425 12.4969 7.62427C12.4969 8.05977 12.1614 8.41646 11.7416 8.43668V6.81243C11.7453 6.81257 11.7489 6.81262 11.7526 6.81291C11.7706 6.81406 11.7884 6.81583 11.8061 6.81823C11.8119 6.81899 11.8178 6.81947 11.8236 6.82038C11.8727 6.82805 11.9204 6.84022 11.9662 6.8567C11.9676 6.85723 11.9691 6.8579 11.9706 6.85842C11.9916 6.86619 12.0122 6.87481 12.0324 6.88425C12.0362 6.88602 12.0399 6.88794 12.0437 6.88981ZM4.86746 8.43663C4.44764 8.41646 4.11219 8.05972 4.11219 7.62427C4.11219 7.35425 4.24135 7.11465 4.43942 6.96665C4.44395 6.9633 4.44858 6.96014 4.45311 6.95688C4.46834 6.94605 4.48384 6.93561 4.49977 6.92583C4.50431 6.92306 4.50893 6.92032 4.51351 6.91764C4.53046 6.90772 4.5478 6.89838 4.5655 6.88976C4.56924 6.88794 4.57288 6.88602 4.57662 6.8843C4.59684 6.87481 4.61749 6.86614 4.63861 6.85838C4.64001 6.85785 4.64141 6.85723 4.64286 6.85675C4.68864 6.84022 4.73638 6.8281 4.78552 6.82038C4.79127 6.81952 4.79711 6.81899 4.8029 6.81823C4.82056 6.81583 4.83845 6.81406 4.85648 6.81291C4.86012 6.81272 4.86377 6.81267 4.86746 6.81243V8.43663V8.43663ZM4.99466 5.61899C4.91375 5.69254 4.86741 5.79803 4.86741 5.9089V6.03667C4.85947 6.03686 4.85153 6.03749 4.84359 6.03782C4.83312 6.03825 4.8227 6.03869 4.81229 6.03931C4.79594 6.04027 4.77959 6.04161 4.76333 6.04314C4.75502 6.04391 4.74665 6.04463 4.73839 6.04558C4.71863 6.04774 4.69905 6.05038 4.67948 6.0533C4.67495 6.05397 4.67042 6.05454 4.66589 6.05526C4.63613 6.06005 4.60647 6.06532 4.57708 6.07179V5.2304C4.57708 3.12241 6.24924 1.40747 8.3045 1.40747C10.3598 1.40747 12.0319 3.12245 12.0319 5.2304V6.0717C12.0024 6.06518 11.9726 6.05991 11.9427 6.05517C11.9386 6.0545 11.9344 6.05397 11.9303 6.05335C11.9104 6.05033 11.8904 6.04774 11.8703 6.04549C11.8623 6.04463 11.8541 6.04391 11.846 6.04314C11.8296 6.04161 11.8131 6.04027 11.7965 6.03926C11.7862 6.03864 11.7758 6.03816 11.7654 6.03778C11.7575 6.03749 11.7495 6.03677 11.7415 6.03663V5.90885C11.7415 5.81097 11.7054 5.71668 11.6404 5.64506L10.438 4.31953C10.3099 4.1782 10.1006 4.15616 9.94722 4.26501C9.94293 4.26808 9.93849 4.27076 9.93433 4.27402C9.91752 4.287 8.22779 5.56835 6.00227 5.56835C5.76389 5.56835 5.52448 5.5536 5.29059 5.52442C5.18305 5.51105 5.07556 5.5455 4.99466 5.61899ZM9.64214 13.0672L8.30576 14.2743L6.96938 13.0672V12.6201C6.96938 12.606 6.9683 12.592 6.96681 12.5782V11.9582C7.00581 11.9748 7.04533 11.9899 7.08495 12.0048C7.08924 12.0064 7.0934 12.0082 7.0977 12.0098C7.1418 12.0263 7.18632 12.0416 7.23102 12.0562C7.23994 12.0591 7.24872 12.0623 7.25769 12.0652C7.29843 12.0781 7.33958 12.0898 7.38074 12.1011C7.394 12.1048 7.40708 12.1089 7.4204 12.1123C7.45828 12.1222 7.49649 12.1309 7.5347 12.1394C7.55157 12.1433 7.56829 12.1475 7.58525 12.151C7.62103 12.1585 7.65709 12.1646 7.69316 12.1709C7.71278 12.1743 7.73216 12.1782 7.75192 12.1813C7.78682 12.1867 7.82195 12.1908 7.85712 12.1951C7.87819 12.1977 7.89907 12.2009 7.92023 12.203C7.9576 12.2069 7.99521 12.2092 8.03276 12.2118C8.05178 12.2131 8.07065 12.2151 8.08971 12.2161C8.14656 12.2189 8.2036 12.2205 8.26082 12.2205H8.34813C8.4053 12.2205 8.46239 12.219 8.51924 12.2161C8.53839 12.215 8.55722 12.213 8.57623 12.2118C8.61379 12.2092 8.65134 12.2069 8.68871 12.203C8.70997 12.2009 8.7309 12.1977 8.75206 12.1951C8.7871 12.1908 8.82213 12.1867 8.85698 12.1813C8.87683 12.1782 8.8964 12.1742 8.91607 12.1708C8.95204 12.1646 8.98796 12.1585 9.02361 12.1511C9.04075 12.1475 9.05761 12.1432 9.07462 12.1393C9.11269 12.1308 9.15076 12.1222 9.18846 12.1123C9.202 12.1088 9.21532 12.1046 9.22877 12.1009C9.26974 12.0897 9.31061 12.078 9.35107 12.0652C9.36036 12.0623 9.36952 12.0589 9.37881 12.0559C9.42319 12.0414 9.46729 12.0263 9.51106 12.0099C9.51578 12.0082 9.52045 12.0062 9.52522 12.0044C9.56441 11.9895 9.60351 11.9746 9.64214 11.9582V13.0672ZM9.25563 11.2808C9.25456 11.2812 9.25358 11.2816 9.25255 11.282C9.17234 11.312 9.09036 11.3383 9.00674 11.3604C9.0066 11.3605 9.00646 11.3605 9.00623 11.3605C8.9682 11.3706 8.9298 11.3795 8.89113 11.3878C8.88286 11.3896 8.87459 11.3913 8.86632 11.3931C8.83152 11.4002 8.79648 11.4067 8.76112 11.4124C8.75589 11.4132 8.75066 11.4142 8.74543 11.415C8.70586 11.4212 8.66592 11.4264 8.62579 11.4307C8.61659 11.4317 8.60725 11.4324 8.59805 11.4333C8.56661 11.4364 8.53503 11.4389 8.50331 11.4408C8.49196 11.4414 8.48065 11.4422 8.46926 11.4427C8.42904 11.4446 8.38863 11.4459 8.34794 11.4459H8.26063C8.21995 11.4459 8.17959 11.4446 8.13932 11.4427C8.12797 11.4422 8.11666 11.4414 8.10531 11.4408C8.07359 11.4389 8.04197 11.4364 8.01053 11.4333C8.00128 11.4325 7.99203 11.4318 7.98283 11.4308C7.94265 11.4264 7.90276 11.4213 7.86315 11.4151C7.85796 11.4143 7.85278 11.4133 7.84759 11.4125C7.81218 11.4067 7.7771 11.4003 7.74216 11.3931C7.73394 11.3914 7.72581 11.3897 7.71759 11.3879C7.67882 11.3795 7.64018 11.3706 7.60207 11.3605H7.60202C7.51822 11.3384 7.43609 11.312 7.35575 11.2819C7.35495 11.2816 7.3542 11.2813 7.35336 11.281C6.34444 10.9007 5.62263 9.90526 5.62263 8.74004V6.47515V6.33199C5.74894 6.33932 5.87572 6.34301 6.00222 6.34301C7.95125 6.34301 9.49294 5.48839 10.1054 5.09016L10.9862 6.06125V6.47515V8.74004C10.9863 9.90512 10.2646 10.9005 9.25563 11.2808Z" fill="#363636"/>
<defs>
<clipPath id="clip0_109_16773">
<rect width="16" height="19" fill="white" transform="translate(7 4.5)"/>
</clipPath>
</defs>
</svg>
