<svg width="20" height="20" viewBox="0 0 20 20" fill="none" xmlns="http://www.w3.org/2000/svg">
<g clip-path="url(#clip0_629_16291)">
<path d="M3.11155 2.22266C2.8758 2.22266 2.6497 2.31631 2.48301 2.48301C2.31631 2.6497 2.22266 2.8758 2.22266 3.11155V6.6671H6.6671V2.22266H3.11155ZM5.55599 5.55599H3.33377V3.33377H5.55599V5.55599Z" fill="#363636"/>
<path d="M2.22266 16.8895C2.22266 17.1253 2.31631 17.3514 2.48301 17.5181C2.6497 17.6848 2.8758 17.7784 3.11155 17.7784H6.6671V13.334H2.22266V16.8895ZM3.33377 14.4451H5.55599V16.6673H3.33377V14.4451Z" fill="#363636"/>
<path d="M13.3359 17.7784H16.8915C17.1272 17.7784 17.3533 17.6848 17.52 17.5181C17.6867 17.3514 17.7804 17.1253 17.7804 16.8895V13.334H13.3359V17.7784ZM14.447 14.4451H16.6693V16.6673H14.447V14.4451Z" fill="#363636"/>
<path d="M16.8915 2.22266H13.3359V6.6671H17.7804V3.11155C17.7804 2.8758 17.6867 2.6497 17.52 2.48301C17.3533 2.31631 17.1272 2.22266 16.8915 2.22266ZM16.6693 5.55599H14.447V3.33377H16.6693V5.55599Z" fill="#363636"/>
<path d="M11.1128 5.55642V4.44531H8.89062V6.66753H10.0017V5.55642H11.1128Z" fill="#363636"/>
<path d="M6.66406 6.66602H7.77517V7.77713H6.66406V6.66602Z" fill="#363636"/>
<path d="M7.77734 7.77734H9.99957V8.88845H7.77734V7.77734Z" fill="#363636"/>
<path d="M11.1107 3.33377V4.44488H12.2218V2.22266H7.77734V4.44488H8.88845V3.33377H11.1107Z" fill="#363636"/>
<path d="M2.22266 7.77734H3.33377V9.99957H2.22266V7.77734Z" fill="#363636"/>
<path d="M6.6671 8.88845V9.99957H5.55599V7.77734H4.44488V9.99957H3.33377V11.1107H2.22266V12.2218H4.44488V11.1107H5.55599V12.2218H6.6671V11.1107H7.77821V8.88845H6.6671Z" fill="#363636"/>
<path d="M11.1111 8.88802H12.2222V9.99913H13.3333V8.88802H14.4444V7.77691H12.2222V5.55469H11.1111V6.6658H10V7.77691H11.1111V8.88802Z" fill="#363636"/>
<path d="M9.99957 16.6658H7.77734V17.7769H12.2218V16.6658H11.1107V15.5547H9.99957V16.6658Z" fill="#363636"/>
<path d="M12.224 11.1109V9.99978H11.1128V8.88867H10.0017V9.99978H8.89062V11.1109H10.0017V12.222H11.1128V11.1109H12.224Z" fill="#363636"/>
<path d="M16.6641 11.1113H17.7752V12.2224H16.6641V11.1113Z" fill="#363636"/>
<path d="M16.6675 7.77734H15.5564V8.88845H14.4453V9.99957H15.5564V11.1107H16.6675V9.99957H17.7786V8.88845H16.6675V7.77734Z" fill="#363636"/>
<path d="M11.1094 12.2227H12.2205V15.556H11.1094V12.2227Z" fill="#363636"/>
<path d="M7.77734 15.5558H8.88845V14.4447H9.99957V13.3336H8.88845V11.1113H7.77734V15.5558Z" fill="#363636"/>
</g>
<defs>
<clipPath id="clip0_629_16291">
<rect width="20" height="20" fill="white"/>
</clipPath>
</defs>
</svg>
