<svg width="16" height="16" viewBox="0 0 16 16" fill="none" xmlns="http://www.w3.org/2000/svg">
<path d="M3.89746 1.14401C2.55566 1.30515 1.47168 2.29831 1.18164 3.63425C1.13184 3.86862 1.12891 4.11764 1.12891 7.99948C1.12891 11.8813 1.13184 12.1303 1.18164 12.3647C1.47754 13.7241 2.57031 14.7085 3.95605 14.8579C4.1377 14.8755 5.62012 14.8842 8.2041 14.8755C12.1387 14.8667 12.1768 14.8667 12.4229 14.8051C12.7334 14.726 12.8682 14.6792 13.1172 14.5561C13.5449 14.3452 13.9551 14.0083 14.2451 13.6245C14.4326 13.3784 14.6904 12.854 14.7666 12.5551C14.875 12.1333 14.8867 11.8403 14.8779 9.80124C14.8691 7.85593 14.8691 7.83835 14.8047 7.72116C14.6846 7.49557 14.4971 7.38425 14.2393 7.38425C13.9932 7.38425 13.7676 7.53952 13.6709 7.77097C13.6299 7.86764 13.624 8.14304 13.624 9.90964C13.624 12.1948 13.624 12.1772 13.4131 12.5991C13.1699 13.0883 12.6689 13.4721 12.1357 13.5805C11.9512 13.6186 11.377 13.6245 7.90234 13.6186L3.88281 13.6098L3.69238 13.5454C3.21484 13.3813 2.79004 13.018 2.58203 12.5962C2.36523 12.1538 2.37402 12.3969 2.37402 7.99948C2.37402 4.65085 2.38281 4.02682 2.41797 3.85397C2.5293 3.32077 2.91602 2.82272 3.39941 2.58249C3.82422 2.37448 3.80664 2.37448 6.09473 2.37448C8.01367 2.37448 8.13672 2.36862 8.24805 2.31882C8.47363 2.21335 8.61426 1.99362 8.61426 1.7446C8.61426 1.50143 8.5 1.311 8.27734 1.19382C8.16016 1.12936 8.14844 1.12936 6.12402 1.12643C5.00488 1.1235 4.00293 1.13229 3.89746 1.14401Z" fill="#211B53"/>
<path d="M11.9102 1.13184C11.8779 1.1377 11.7783 1.1582 11.6904 1.17578C11.6025 1.19336 11.418 1.26074 11.2803 1.3252L11.0312 1.44238L8.11328 4.36035C4.94336 7.5332 5.10156 7.36035 4.94629 7.85254C4.88477 8.05762 4.87891 8.11914 4.87891 8.79004C4.87891 9.60156 4.89355 9.69238 5.0752 10.0791C5.24219 10.4277 5.57031 10.7559 5.92188 10.9229C6.30566 11.1045 6.39941 11.1191 7.20801 11.1191C7.87891 11.1191 7.94043 11.1133 8.14551 11.0518C8.6377 10.8965 8.46484 11.0547 11.6348 7.88477C14.8076 4.71191 14.6494 4.88477 14.7988 4.39551C14.8926 4.09082 14.8926 3.67481 14.7988 3.37012C14.667 2.93652 14.6055 2.85449 13.876 2.12207C13.1494 1.39844 13.0615 1.33106 12.6455 1.20508C12.4521 1.14649 12.0303 1.10254 11.9102 1.13184ZM12.3789 2.43262C12.4521 2.46777 12.7041 2.69629 13.0264 3.02442C13.5713 3.57813 13.624 3.6543 13.624 3.88281C13.624 4.09082 13.5596 4.19922 13.2314 4.53613L12.9092 4.86719L12.0215 3.97949L11.1338 3.0918L11.4355 2.79004C11.5996 2.62305 11.7871 2.45899 11.8516 2.42969C12.0068 2.35645 12.2266 2.35938 12.3789 2.43262ZM9.98535 7.78223C8.23047 9.53125 7.9375 9.80957 7.83496 9.83887C7.6709 9.88574 6.70996 9.88574 6.55176 9.83887C6.39648 9.79199 6.19727 9.59277 6.15625 9.44629C6.1123 9.29102 6.11523 8.31543 6.15918 8.16309C6.18848 8.06055 6.4668 7.76758 8.21582 6.0127L10.2402 3.98535L11.125 4.87012L12.0127 5.75781L9.98535 7.78223Z" fill="#211B53"/>
</svg>
