<svg width="19" height="19" viewBox="0 0 19 19" fill="none" xmlns="http://www.w3.org/2000/svg">
<path d="M6.25 4.42969C5.9425 4.42969 5.6875 4.17469 5.6875 3.86719V1.61719C5.6875 1.30969 5.9425 1.05469 6.25 1.05469C6.5575 1.05469 6.8125 1.30969 6.8125 1.61719V3.86719C6.8125 4.17469 6.5575 4.42969 6.25 4.42969Z" fill="#363636"/>
<path d="M12.25 4.42969C11.9425 4.42969 11.6875 4.17469 11.6875 3.86719V1.61719C11.6875 1.30969 11.9425 1.05469 12.25 1.05469C12.5575 1.05469 12.8125 1.30969 12.8125 1.61719V3.86719C12.8125 4.17469 12.5575 4.42969 12.25 4.42969Z" fill="#363636"/>
<path d="M6.625 10.9926C6.43 10.9926 6.23499 10.9101 6.09249 10.7751C6.06249 10.7376 6.025 10.7001 6.0025 10.6626C5.9725 10.6176 5.95 10.5726 5.935 10.5276C5.9125 10.4826 5.8975 10.4376 5.89 10.3926C5.8825 10.3401 5.875 10.2876 5.875 10.2426C5.875 10.0476 5.95749 9.85258 6.09249 9.71008C6.36999 9.43258 6.87251 9.43258 7.15751 9.71008C7.29251 9.85258 7.375 10.0476 7.375 10.2426C7.375 10.2876 7.3675 10.3401 7.36 10.3926C7.3525 10.4376 7.3375 10.4826 7.315 10.5276C7.3 10.5726 7.2775 10.6176 7.2475 10.6626C7.2175 10.7001 7.18751 10.7376 7.15751 10.7751C7.015 10.9101 6.82 10.9926 6.625 10.9926Z" fill="#363636"/>
<path d="M9.25 10.9914C9.1525 10.9914 9.055 10.9689 8.965 10.9314C8.8675 10.8939 8.78499 10.8414 8.71749 10.7739C8.68749 10.7364 8.65 10.6989 8.6275 10.6614C8.5975 10.6164 8.575 10.5714 8.56 10.5264C8.5375 10.4814 8.5225 10.4364 8.515 10.3914C8.5075 10.3389 8.5 10.2864 8.5 10.2414C8.5 10.0464 8.58249 9.85137 8.71749 9.70887C8.78499 9.64137 8.8675 9.58885 8.965 9.55135C9.235 9.43135 9.5725 9.49887 9.78251 9.70887C9.91751 9.85137 10 10.0464 10 10.2414C10 10.2864 9.9925 10.3389 9.985 10.3914C9.9775 10.4364 9.9625 10.4814 9.94 10.5264C9.925 10.5714 9.9025 10.6164 9.8725 10.6614C9.8425 10.6989 9.81251 10.7364 9.78251 10.7739C9.64 10.9089 9.445 10.9914 9.25 10.9914Z" fill="#363636"/>
<path d="M6.625 13.6172C6.4225 13.6172 6.23499 13.5347 6.09249 13.3997C5.95749 13.2572 5.875 13.0622 5.875 12.8672C5.875 12.6722 5.95749 12.4772 6.09249 12.3347C6.12999 12.3047 6.1675 12.2672 6.205 12.2447C6.25 12.2147 6.295 12.1922 6.34 12.1772C6.385 12.1547 6.43 12.1397 6.475 12.1322C6.625 12.1022 6.775 12.1172 6.91 12.1772C7.0075 12.2147 7.0825 12.2672 7.15751 12.3347C7.29251 12.4772 7.375 12.6722 7.375 12.8672C7.375 13.0622 7.29251 13.2572 7.15751 13.3997C7.0825 13.4672 7.0075 13.5197 6.91 13.5572C6.82 13.5947 6.7225 13.6172 6.625 13.6172Z" fill="#363636"/>
<path d="M15.625 7.49609H2.875C2.5675 7.49609 2.3125 7.24109 2.3125 6.93359C2.3125 6.62609 2.5675 6.37109 2.875 6.37109H15.625C15.9325 6.37109 16.1875 6.62609 16.1875 6.93359C16.1875 7.24109 15.9325 7.49609 15.625 7.49609Z" fill="#363636"/>
<path fill-rule="evenodd" clip-rule="evenodd" d="M16.5625 11.7254V6.49219C16.5625 3.75469 14.9875 2.17969 12.25 2.17969H6.25C3.5125 2.17969 1.9375 3.75469 1.9375 6.49219V12.8672C1.9375 15.6047 3.5125 17.1797 6.25 17.1797H10.7583C10.4968 16.8434 10.2879 16.4643 10.1437 16.0547H6.25C4.105 16.0547 3.0625 15.0122 3.0625 12.8672V6.49219C3.0625 4.34719 4.105 3.30469 6.25 3.30469H12.25C14.395 3.30469 15.4375 4.34719 15.4375 6.49219V11.0253C15.852 11.1956 16.2316 11.4336 16.5625 11.7254Z" fill="#363636"/>
<path d="M12.6679 16.7305C12.5617 16.7305 12.4555 16.6913 12.3716 16.6075C12.2095 16.4455 12.2095 16.1772 12.3716 16.0151L15.5358 12.852C15.6979 12.69 15.9663 12.69 16.1284 12.852C16.2905 13.0141 16.2905 13.2823 16.1284 13.4444L12.9642 16.6075C12.8859 16.6913 12.7741 16.7305 12.6679 16.7305Z" fill="#363636"/>
<path d="M15.8321 16.7305C15.7259 16.7305 15.6197 16.6913 15.5358 16.6075L12.3716 13.4444C12.2095 13.2823 12.2095 13.0141 12.3716 12.852C12.5337 12.69 12.8021 12.69 12.9642 12.852L16.1284 16.0151C16.2905 16.1772 16.2905 16.4455 16.1284 16.6075C16.0445 16.6913 15.9383 16.7305 15.8321 16.7305Z" fill="#363636"/>
</svg>
