<svg width="20" height="20" viewBox="0 0 20 20" fill="none" xmlns="http://www.w3.org/2000/svg">
<path d="M11.4122 20H8.02645C7.46092 20 7.00089 19.5648 7.00089 19.0298V11.8057H5.02557C4.46004 11.8057 4 11.3704 4 10.8356V7.74002C4 7.20505 4.46004 6.76987 5.02557 6.76987H7.00089V5.21973C7.00089 3.68271 7.51109 2.37503 8.47617 1.43829C9.4456 0.497284 10.8004 0 12.3941 0L14.9762 0.00396727C15.5408 0.00488281 16 0.440064 16 0.974121V3.84827C16 4.38324 15.5401 4.81842 14.9748 4.81842L13.2362 4.81903C12.706 4.81903 12.571 4.91959 12.5421 4.95041C12.4946 5.00153 12.4379 5.14603 12.4379 5.54504V6.76971H14.8441C15.0252 6.76971 15.2007 6.81198 15.3516 6.89163C15.6769 7.0636 15.8792 7.38876 15.8792 7.74017L15.8779 10.8357C15.8779 11.3704 15.4179 11.8056 14.8523 11.8056H12.4379V19.0298C12.4379 19.5648 11.9777 20 11.4122 20ZM8.24034 18.8275H11.1983V11.2808C11.1983 10.9236 11.5056 10.6331 11.8831 10.6331H14.6384L14.6396 7.94235H11.8829C11.5054 7.94235 11.1983 7.65182 11.1983 7.29462V5.54504C11.1983 5.08698 11.2475 4.56604 11.613 4.1745C12.0547 3.70117 12.7507 3.64655 13.2359 3.64655L14.7605 3.64594V1.17615L12.3931 1.17249C9.83192 1.17249 8.24034 2.72339 8.24034 5.21973V7.29462C8.24034 7.65167 7.93322 7.94235 7.55577 7.94235H5.23945V10.6331H7.55577C7.93322 10.6331 8.24034 10.9236 8.24034 11.2808V18.8275Z" fill="#363636"/>
</svg>
