<svg width="22" height="22" viewBox="0 0 22 22" fill="none" xmlns="http://www.w3.org/2000/svg">
<g clip-path="url(#clip0_328_16491)">
<path fill-rule="evenodd" clip-rule="evenodd" d="M10.964 0.333984C12.9472 0.356615 14.7388 0.844013 16.3388 1.79618C17.9197 2.72934 19.2348 4.05248 20.1583 5.63907C21.1047 7.24872 21.5892 9.05116 21.6117 11.0464C21.5555 13.7763 20.6945 16.108 19.0286 18.0413C17.3627 19.9746 15.2291 21.1707 13.0204 21.6292V13.9753H15.1085L15.5807 10.9675H12.4188V8.99747C12.4013 8.58907 12.5304 8.18786 12.7829 7.8664C13.0358 7.54405 13.4811 7.37463 14.1188 7.35813H16.0282V4.72336C16.0008 4.71454 15.7408 4.67969 15.2483 4.61879C14.6897 4.55343 14.128 4.51853 13.5656 4.51422C12.2928 4.52009 11.2862 4.87913 10.5457 5.59134C9.80529 6.30334 9.42704 7.33346 9.41101 8.68169V10.9675H7.00476V13.9753H9.41101V21.6292C6.69904 21.1707 4.56542 19.9746 2.89952 18.0413C1.23363 16.108 0.372618 13.7763 0.316406 11.0464C0.338896 9.05107 0.823349 7.24863 1.76976 5.63907C2.69328 4.05248 4.00839 2.72934 5.58933 1.79618C7.1893 0.844197 8.98087 0.356798 10.964 0.333984Z" fill="white"/>
</g>
<defs>
<clipPath id="clip0_328_16491">
<rect width="22" height="22" fill="white"/>
</clipPath>
</defs>
</svg>
