<svg width="22" height="22" viewBox="0 0 22 22" fill="none" xmlns="http://www.w3.org/2000/svg">
<g clip-path="url(#clip0_410_17040)">
<path d="M11 19C10.7437 19 10.4967 18.9072 10.3042 18.7388C9.577 18.1035 8.87593 17.5065 8.2574 16.9799L8.25424 16.9772C6.44081 15.4332 4.87485 14.0998 3.78528 12.7863C2.56731 11.3179 2 9.92567 2 8.40473C2 6.92701 2.50716 5.56372 3.42795 4.56581C4.35973 3.5561 5.63826 3 7.02844 3C8.06747 3 9.01903 3.3282 9.8566 3.97541C10.2793 4.3021 10.6624 4.70192 11 5.16828C11.3377 4.70192 11.7207 4.3021 12.1435 3.97541C12.9811 3.3282 13.9327 3 14.9717 3C16.3617 3 17.6404 3.5561 18.5722 4.56581C19.493 5.56372 20 6.92701 20 8.40473C20 9.92567 19.4328 11.3179 18.2149 12.7862C17.1253 14.0998 15.5595 15.433 13.7463 16.9769C13.1267 17.5043 12.4245 18.1023 11.6957 18.739C11.5033 18.9072 11.2561 19 11 19ZM7.02844 4.05348C5.93626 4.05348 4.93294 4.48897 4.20303 5.27983C3.46228 6.08263 3.05428 7.19236 3.05428 8.40473C3.05428 9.68391 3.53012 10.8279 4.59703 12.1141C5.62824 13.3574 7.16206 14.6633 8.938 16.1755L8.9413 16.1782C9.56216 16.7069 10.266 17.3062 10.9985 17.9461C11.7354 17.3049 12.4403 16.7047 13.0624 16.1752C14.8382 14.663 16.3719 13.3574 17.4031 12.1141C18.4699 10.8279 18.9457 9.68391 18.9457 8.40473C18.9457 7.19236 18.5377 6.08263 17.797 5.27983C17.0672 4.48897 16.0637 4.05348 14.9717 4.05348C14.1716 4.05348 13.437 4.30758 12.7884 4.80866C12.2104 5.25541 11.8078 5.82016 11.5717 6.21531C11.4503 6.41852 11.2366 6.53981 11 6.53981C10.7634 6.53981 10.5497 6.41852 10.4283 6.21531C10.1924 5.82016 9.78972 5.25541 9.21156 4.80866C8.56296 4.30758 7.82838 4.05348 7.02844 4.05348Z" fill="#363636" stroke="#363636" stroke-width="0.3"/>
</g>
<defs>
<clipPath id="clip0_410_17040">
<rect width="19" height="19" fill="white" transform="translate(1.5 1.5)"/>
</clipPath>
</defs>
</svg>
