<svg width="16" height="19" viewBox="0 0 16 19" fill="none" xmlns="http://www.w3.org/2000/svg">
<mask id="mask0_234_15847" style="mask-type:luminance" maskUnits="userSpaceOnUse" x="0" y="0" width="16" height="19">
<path d="M16 0H0V19H16V0Z" fill="white"/>
</mask>
<g mask="url(#mask0_234_15847)">
<path d="M9.161 9.40221C9.278 9.29431 9.2792 9.11801 9.1638 9.00861C9.0484 8.89921 8.8599 8.89801 8.743 9.00601C8.6344 9.10621 8.3741 9.22331 7.9978 9.22331C7.6216 9.22331 7.3613 9.10621 7.2527 9.00601C7.1356 8.89801 6.9472 8.89921 6.8318 9.00861C6.7164 9.11801 6.7177 9.29431 6.8347 9.40221C7.0909 9.63871 7.5257 9.77991 7.9978 9.77991C8.4699 9.77991 8.9047 9.63871 9.161 9.40221Z" fill="#363636"/>
<path d="M14.1407 14.4693L10.8558 13.3849C10.5674 13.2897 10.3494 13.075 10.2559 12.8132C11.7425 12.5296 13.1311 12.0545 13.8457 11.7883C14.0801 11.7011 14.2631 11.5332 14.3609 11.3156C14.458 11.0999 14.4585 10.8627 14.3625 10.6477C14.1166 10.0971 13.7041 8.9453 13.7041 7.4176V5.33533C13.7041 2.39344 11.145 0 7.9996 0C4.8541 0 2.29506 2.39344 2.29506 5.33536V7.4177C2.29506 8.9453 1.88254 10.0971 1.63666 10.6477C1.54064 10.8627 1.5412 11.0999 1.63821 11.3156C1.73605 11.5332 1.91904 11.7011 2.15342 11.7884C2.86808 12.0545 4.2567 12.5296 5.7433 12.8132C5.6497 13.075 5.4318 13.2897 5.1434 13.3849L1.85846 14.4693C0.978139 14.7599 0.386719 15.5417 0.386719 16.4149V18.7217C0.386719 18.8754 0.519949 19 0.684299 19C0.848639 19 0.981869 18.8754 0.981869 18.7217V16.4148C0.981869 15.7772 1.41376 15.2063 2.05652 14.9942L3.0744 14.6582L3.0658 14.7043C3.0183 14.959 3.093 15.2185 3.2708 15.4164C3.4486 15.6143 3.7091 15.7278 3.9855 15.7278H4.0614L3.7577 16.438C3.6092 16.7852 3.7134 17.182 4.017 17.4253L5.8976 18.933C5.9537 18.978 6.0226 19 6.0911 19C6.1749 19 6.2583 18.967 6.3172 18.9028C6.4241 18.7861 6.4097 18.6104 6.2849 18.5104L4.4043 17.0027C4.2942 16.9145 4.2565 16.7706 4.3103 16.6447L4.7773 15.5529C4.814 15.4671 4.8028 15.3699 4.7474 15.2935C4.6921 15.217 4.5997 15.1712 4.501 15.1712H3.9856C3.8839 15.1712 3.7919 15.1311 3.7264 15.0583C3.661 14.9855 3.6346 14.8938 3.6521 14.8001L3.7182 14.4457L5.2383 13.9439L6.1911 15.8159C6.2421 15.9161 6.3488 15.9747 6.46 15.9747C6.5028 15.9747 6.5464 15.966 6.5877 15.9476C6.7361 15.8815 6.7991 15.7155 6.7284 15.5767L6.5601 15.2458C7.0135 15.3752 7.5009 15.4427 7.9995 15.4427C8.4982 15.4427 8.9856 15.3752 9.439 15.2458L7.9996 18.0741L7.2746 16.6497C7.204 16.5109 7.0265 16.4519 6.878 16.518C6.7296 16.5841 6.6666 16.7501 6.7372 16.889L7.7309 18.8413C7.7802 18.9382 7.8848 19 7.9996 19C8.1144 19 8.2189 18.9382 8.2683 18.8413L10.7608 13.9438L12.2809 14.4456L12.3471 14.8001C12.3646 14.8938 12.3381 14.9855 12.2727 15.0583C12.2073 15.1311 12.1153 15.1712 12.0136 15.1712H11.4981C11.3994 15.1712 11.3071 15.217 11.2517 15.2934C11.1964 15.3699 11.1852 15.4671 11.2219 15.5528L11.6888 16.6447C11.7427 16.7706 11.7049 16.9145 11.5948 17.0027L9.7142 18.5103C9.5894 18.6104 9.575 18.7861 9.682 18.9028C9.7408 18.967 9.8242 19 9.908 19C9.9766 19 10.0454 18.978 10.1015 18.9329L11.9822 17.4253C12.2857 17.1819 12.3899 16.7852 12.2414 16.4379L11.9377 15.7277H12.0136C12.29 15.7277 12.5505 15.6142 12.7283 15.4163C12.9062 15.2184 12.9809 14.9589 12.9333 14.7043L12.9247 14.6581L13.9426 14.9941C14.5854 15.2063 15.0172 15.7772 15.0172 16.4147V18.7217C15.0172 18.8754 15.1505 19 15.3148 19C15.4792 19 15.6124 18.8754 15.6124 18.7217V16.4148C15.6124 15.5417 15.021 14.7598 14.1407 14.4693ZM4.1625 7.7152V6.8036H4.8545C4.8448 6.8583 4.8395 6.9143 4.8395 6.9715C4.8395 7.535 5.3297 7.9935 5.9322 7.9935H6.5683C7.1708 7.9935 7.6611 7.5351 7.6611 6.9715C7.6611 6.9046 7.7961 6.8036 7.9996 6.8036C8.2031 6.8036 8.3381 6.9046 8.3381 6.9715C8.3381 7.535 8.8283 7.9935 9.4308 7.9935H10.0669C10.6695 7.9935 11.1596 7.5351 11.1596 6.9715C11.1596 6.9143 11.1544 6.8583 11.1447 6.8036H11.8367V7.7152C11.8367 9.694 10.1154 11.304 7.9996 11.304C5.8838 11.304 4.1625 9.694 4.1625 7.7152ZM6.2569 7.1011C6.4212 7.1011 6.5545 6.9765 6.5545 6.8227V6.5061H6.5683C6.8427 6.5061 7.0659 6.7149 7.0659 6.9715C7.0659 7.2281 6.8427 7.4369 6.5683 7.4369H5.9322C5.6578 7.4369 5.4347 7.2281 5.4347 6.9715C5.4347 6.7149 5.6578 6.5061 5.9322 6.5061H5.9593V6.8227C5.9593 6.9765 6.0925 7.1011 6.2569 7.1011ZM9.7423 7.1011C9.9066 7.1011 10.0398 6.9765 10.0398 6.8227V6.5061H10.0669C10.3413 6.5061 10.5645 6.7149 10.5645 6.9715C10.5645 7.2281 10.3413 7.4369 10.0669 7.4369H9.4308C9.1565 7.4369 8.9333 7.2281 8.9333 6.9715C8.9333 6.7149 9.1564 6.5061 9.4308 6.5061H9.4447V6.8227C9.4447 6.9765 9.5779 7.1011 9.7423 7.1011ZM2.18678 11.0998C2.15215 11.0227 2.15179 10.9384 2.18579 10.8622C2.50714 10.1427 2.89018 8.9611 2.89018 7.4177V5.33536C2.89022 2.70038 5.1823 0.55664 7.9996 0.55664C10.8169 0.55664 13.1089 2.70038 13.1089 5.33536V7.4177C13.1089 8.961 13.492 10.1427 13.8133 10.8622C13.8473 10.9384 13.847 11.0227 13.8123 11.0998C13.7768 11.1787 13.7105 11.2396 13.6256 11.2712C12.9407 11.5262 11.6209 11.9785 10.2055 12.2547V11.3098C11.5349 10.5934 12.4319 9.2504 12.4319 7.7152V6.5253C12.4319 5.7967 12.1976 5.09649 11.7543 4.50033C11.3214 3.91808 10.7206 3.4744 10.017 3.2172C9.8639 3.16124 9.6913 3.23193 9.6315 3.3751C9.5717 3.51827 9.6472 3.67969 9.8003 3.73562C10.3937 3.95248 10.9004 4.32684 11.2657 4.81813C11.5824 5.24411 11.772 5.7334 11.8225 6.247H10.8368C10.6391 6.0632 10.367 5.9495 10.0669 5.9495H9.4308C9.0647 5.9495 8.7403 6.119 8.5419 6.3783C8.3899 6.2954 8.2034 6.247 7.9996 6.247C7.7957 6.247 7.6092 6.2954 7.4573 6.3783C7.2589 6.119 6.9345 5.9495 6.5683 5.9495H5.9322C5.6322 5.9495 5.3601 6.0632 5.1624 6.247H4.1702C4.2089 6.0103 4.3983 5.8094 4.6575 5.7421C7.4205 5.02431 8.8066 3.49596 8.8643 3.43124C8.9694 3.31331 8.9523 3.13823 8.8264 3.03974C8.7005 2.94121 8.5129 2.95691 8.4074 3.07455C8.4041 3.07819 8.0727 3.44438 7.4267 3.88832C6.8325 4.29663 5.8421 4.85665 4.4982 5.20578C3.9501 5.34817 3.5673 5.8131 3.5673 6.3366V7.7152C3.5673 9.2504 4.4642 10.5934 5.7937 11.3099V12.2548C4.3783 11.9785 3.0584 11.5263 2.3735 11.2713C2.28859 11.2396 2.22229 11.1787 2.18678 11.0998ZM7.9996 14.8861C7.3489 14.8861 6.7227 14.7573 6.1876 14.5138L5.7699 13.6932C6.1523 13.4204 6.3889 12.9911 6.3889 12.5253V11.5772C6.8883 11.7601 7.4316 11.8607 7.9996 11.8607C8.5676 11.8607 9.1109 11.7601 9.6104 11.5772V12.5253C9.6104 12.9911 9.8469 13.4204 10.2293 13.6932L9.8117 14.5138C9.2764 14.7572 8.6503 14.8861 7.9996 14.8861Z" fill="#363636"/>
</g>
</svg>
