<svg width="52" height="77" viewBox="0 0 52 77" fill="none" xmlns="http://www.w3.org/2000/svg">
<path d="M22.5906 62.8844L22.5878 62.8794C22.2904 62.357 21.9936 61.8346 21.6978 61.314C19.8141 57.9985 17.9703 54.7533 16.2512 52.0151C15.17 50.2942 13.9828 48.5916 12.7307 46.796C12.1427 45.9527 11.5403 45.0889 10.9279 44.193C9.06195 41.4633 7.17583 38.535 5.72082 35.4418C2.75811 29.1433 1.51777 21.974 5.63122 14.0961C9.35688 6.96004 17.2417 3.27105 24.9228 3.01461C32.6505 2.75661 40.9022 5.94224 45.3964 13.4625L45.3965 13.4626C50.2631 21.6067 49.6247 28.8281 46.8689 35.2755C45.5326 38.402 43.7084 41.3368 41.8781 44.0754C41.223 45.0556 40.5788 45.9945 39.9494 46.9119C38.7632 48.6409 37.6295 50.2933 36.5741 52.0013L22.5906 62.8844ZM22.5906 62.8844C22.8523 63.3419 23.2102 63.8911 23.6936 64.3628C24.1764 64.8339 25.0277 65.4598 26.2337 65.52C27.4793 65.5822 28.4246 65.0107 29.0038 64.4944C29.5607 63.9982 29.975 63.39 30.2893 62.8467L30.2916 62.8428M22.5906 62.8844L30.2916 62.8428M30.2916 62.8428C30.9481 61.7038 31.5909 60.5708 32.2283 59.4475M30.2916 62.8428L32.2283 59.4475M32.2283 59.4475C33.6727 56.9015 35.089 54.4051 36.5739 52.0016L32.2283 59.4475Z" fill="white" stroke="#FC58A6" stroke-width="6"/>
<path d="M27.6644 25.3691C27.8133 25.227 27.8149 24.9951 27.668 24.8512C27.521 24.7072 27.2811 24.7057 27.1322 24.8477C26.9939 24.9796 26.6625 25.1336 26.1835 25.1336C25.7045 25.1336 25.3731 24.9796 25.2348 24.8477C25.0858 24.7056 24.8459 24.7072 24.699 24.8512C24.5521 24.9951 24.5537 25.227 24.7026 25.3691C25.0289 25.6802 25.5825 25.866 26.1835 25.866C26.7845 25.866 27.3381 25.6802 27.6644 25.3691Z" fill="#415A77"/>
<path d="M34.003 32.0385L29.8208 30.6117C29.4536 30.4865 29.1762 30.204 29.0571 29.8595C30.9497 29.4863 32.7176 28.8611 33.6275 28.511C33.9259 28.3961 34.1589 28.1752 34.2835 27.889C34.407 27.6051 34.4077 27.293 34.2855 27.0101C33.9724 26.2856 33.4472 24.7701 33.4472 22.7601V20.0202C33.4472 16.1493 30.1891 13 26.1845 13C22.1798 13 18.9218 16.1493 18.9218 20.0202V22.7601C18.9218 24.7702 18.3966 26.2856 18.0836 27.0102C17.9613 27.293 17.962 27.6051 18.0855 27.889C18.2101 28.1753 18.4431 28.3962 18.7415 28.511C19.6513 28.8612 21.4193 29.4864 23.3119 29.8595C23.1928 30.204 22.9153 30.4865 22.5481 30.6118L18.3659 32.0386C17.2452 32.4209 16.4922 33.4497 16.4922 34.5985V37.6338C16.4922 37.836 16.6618 38 16.871 38C17.0803 38 17.2499 37.836 17.2499 37.6338V34.5984C17.2499 33.7595 17.7998 33.0084 18.6181 32.7292L19.914 32.2871L19.903 32.3478C19.8425 32.6829 19.9376 33.0244 20.164 33.2848C20.3905 33.5452 20.7221 33.6945 21.074 33.6945H21.1707L20.7839 34.629C20.5949 35.0858 20.7275 35.6079 21.114 35.9281L23.5083 37.9118C23.5798 37.971 23.6674 38 23.7547 38C23.8614 38 23.9676 37.9566 24.0425 37.8721C24.1787 37.7186 24.1603 37.4874 24.0014 37.3558L21.6072 35.372C21.467 35.2559 21.4189 35.0666 21.4875 34.901L22.082 33.4643C22.1287 33.3515 22.1145 33.2236 22.044 33.123C21.9735 33.0224 21.856 32.9621 21.7303 32.9621H21.0741C20.9446 32.9621 20.8275 32.9093 20.7442 32.8136C20.6609 32.7178 20.6273 32.5971 20.6495 32.4738L20.7337 32.0075L22.669 31.3472L23.882 33.8104C23.9469 33.9422 24.0828 34.0193 24.2244 34.0193C24.2789 34.0193 24.3344 34.0079 24.3869 33.9837C24.5758 33.8968 24.6561 33.6783 24.5661 33.4956L24.3518 33.0603C24.929 33.2306 25.5496 33.3194 26.1844 33.3194C26.8193 33.3194 27.4398 33.2306 28.0171 33.0603L26.1845 36.7817L25.2615 34.9075C25.1716 34.7249 24.9456 34.6473 24.7565 34.7342C24.5676 34.8211 24.4873 35.0396 24.5773 35.2223L25.8424 37.7912C25.9052 37.9188 26.0383 38 26.1845 38C26.3306 38 26.4637 37.9188 26.5266 37.7912L29.7 31.3472L31.6353 32.0074L31.7195 32.4738C31.7418 32.5971 31.7081 32.7177 31.6248 32.8135C31.5415 32.9093 31.4244 32.9621 31.2949 32.9621H30.6387C30.5129 32.9621 30.3954 33.0223 30.325 33.1229C30.2545 33.2236 30.2403 33.3514 30.2869 33.4643L30.8814 34.9009C30.95 35.0666 30.9019 35.2559 30.7618 35.372L28.3675 37.3557C28.2086 37.4873 28.1902 37.7185 28.3264 37.8721C28.4013 37.9565 28.5075 38 28.6142 38C28.7015 38 28.7892 37.971 28.8606 37.9118L31.2549 35.928C31.6414 35.6078 31.774 35.0857 31.585 34.6289L31.1983 33.6944H31.2949C31.6468 33.6944 31.9785 33.545 32.2049 33.2847C32.4313 33.0243 32.5264 32.6828 32.4659 32.3477L32.4549 32.287L33.7508 32.7291C34.5692 33.0083 35.119 33.7594 35.119 34.5983V37.6338C35.119 37.836 35.2886 38 35.4979 38C35.7071 38 35.8767 37.836 35.8767 37.6338V34.5984C35.8768 33.4496 35.1238 32.4208 34.003 32.0385ZM21.2993 23.1515V21.9521H22.1803C22.168 22.024 22.1612 22.0978 22.1612 22.173C22.1612 22.9145 22.7853 23.5178 23.5524 23.5178H24.3623C25.1294 23.5178 25.7535 22.9146 25.7535 22.173C25.7535 22.0851 25.9254 21.9521 26.1845 21.9521C26.4436 21.9521 26.6155 22.0851 26.6155 22.173C26.6155 22.9145 27.2395 23.5178 28.0067 23.5178H28.8166C29.5837 23.5178 30.2077 22.9146 30.2077 22.173C30.2077 22.0978 30.201 22.024 30.1886 21.9521H31.0697V23.1515C31.0697 25.7553 28.8782 27.8736 26.1845 27.8736C23.4908 27.8736 21.2993 25.7553 21.2993 23.1515ZM23.9658 22.3435C24.175 22.3435 24.3446 22.1795 24.3446 21.9773V21.5607H24.3623C24.7116 21.5607 24.9958 21.8354 24.9958 22.173C24.9958 22.5106 24.7116 22.7854 24.3623 22.7854H23.5524C23.2031 22.7854 22.919 22.5107 22.919 22.173C22.919 21.8354 23.2031 21.5607 23.5524 21.5607H23.5869V21.9773C23.5869 22.1795 23.7565 22.3435 23.9658 22.3435ZM28.4032 22.3435C28.6124 22.3435 28.7821 22.1795 28.7821 21.9773V21.5607H28.8166C29.1659 21.5607 29.45 21.8354 29.45 22.173C29.45 22.5106 29.1659 22.7854 28.8166 22.7854H28.0067C27.6574 22.7854 27.3732 22.5107 27.3732 22.173C27.3732 21.8354 27.6573 21.5607 28.0067 21.5607H28.0243V21.9773C28.0243 22.1795 28.194 22.3435 28.4032 22.3435ZM18.7839 27.605C18.7398 27.5036 18.7394 27.3926 18.7827 27.2924C19.1918 26.3457 19.6795 24.7909 19.6795 22.7601V20.0202C19.6795 16.5531 22.5976 13.7324 26.1845 13.7324C29.7713 13.7324 32.6895 16.5531 32.6895 20.0202V22.7601C32.6895 24.7908 33.1772 26.3457 33.5862 27.2924C33.6295 27.3926 33.6291 27.5036 33.585 27.605C33.5398 27.7088 33.4554 27.7889 33.3473 27.8305C32.4753 28.1661 30.795 28.7612 28.9929 29.1247V27.8813C30.6855 26.9386 31.8274 25.1716 31.8274 23.1516V21.5859C31.8274 20.6272 31.5291 19.7059 30.9648 18.9215C30.4136 18.1554 29.6488 17.5716 28.7529 17.2332C28.558 17.1595 28.3383 17.2525 28.2622 17.4409C28.186 17.6293 28.2822 17.8417 28.4771 17.9153C29.2325 18.2006 29.8777 18.6932 30.3428 19.3396C30.746 19.9001 30.9874 20.544 31.0517 21.2197H29.7966C29.545 20.9779 29.1985 20.8283 28.8166 20.8283H28.0067C27.5405 20.8283 27.1275 21.0513 26.8749 21.3925C26.6814 21.2834 26.444 21.2197 26.1845 21.2197C25.9249 21.2197 25.6875 21.2834 25.4941 21.3925C25.2415 21.0513 24.8284 20.8283 24.3623 20.8283H23.5524C23.1704 20.8283 22.824 20.9779 22.5723 21.2197H21.3091C21.3584 20.9083 21.5995 20.644 21.9295 20.5554C25.4472 19.6109 27.212 17.6 27.2854 17.5148C27.4192 17.3596 27.3975 17.1292 27.2372 16.9997C27.0768 16.87 26.838 16.8907 26.7037 17.0455C26.6995 17.0502 26.2776 17.5321 25.4552 18.1162C24.6986 18.6535 23.4377 19.3903 21.7267 19.8497C21.0289 20.0371 20.5415 20.6489 20.5415 21.3376V23.1516C20.5415 25.1716 21.6834 26.9387 23.376 27.8814V29.1248C21.574 28.7612 19.8937 28.1662 19.0217 27.8306C18.9136 27.7889 18.8291 27.7088 18.7839 27.605ZM26.1845 32.5869C25.356 32.5869 24.5589 32.4175 23.8775 32.0971L23.3458 31.0174C23.8326 30.6584 24.1338 30.0936 24.1338 29.4807V28.2332C24.7697 28.4738 25.4614 28.6062 26.1845 28.6062C26.9077 28.6062 27.5993 28.4738 28.2353 28.2332V29.4807C28.2353 30.0936 28.5364 30.6584 29.0233 31.0174L28.4916 32.0971C27.81 32.4174 27.013 32.5869 26.1845 32.5869Z" fill="#415A77"/>
<circle cx="26" cy="75" r="1.5" fill="#FC58A6" stroke="#FC58A6"/>
</svg>
