<svg width="32" height="32" viewBox="0 0 32 32" fill="none" xmlns="http://www.w3.org/2000/svg">
<path d="M24.721 5.49378L17.3877 2.74711C16.6277 2.46711 15.3877 2.46711 14.6277 2.74711L7.29437 5.49378C5.88104 6.02711 4.73438 7.68044 4.73438 9.18711V19.9871C4.73438 21.0671 5.44104 22.4938 6.30771 23.1338L13.641 28.6138C14.9344 29.5871 17.0544 29.5871 18.3477 28.6138L25.681 23.1338C26.5477 22.4804 27.2544 21.0671 27.2544 19.9871V9.18711C27.2677 7.68044 26.121 6.02711 24.721 5.49378ZM20.641 12.9604L14.9077 18.6938C14.7077 18.8938 14.4544 18.9871 14.201 18.9871C13.9477 18.9871 13.6944 18.8938 13.4944 18.6938L11.361 16.5338C10.9744 16.1471 10.9744 15.5071 11.361 15.1204C11.7477 14.7338 12.3877 14.7338 12.7744 15.1204L14.2144 16.5604L19.241 11.5338C19.6277 11.1471 20.2677 11.1471 20.6544 11.5338C21.041 11.9204 21.041 12.5738 20.641 12.9604Z" fill="#FF0079"/>
</svg>
