<svg width="26" height="26" viewBox="0 0 26 26" fill="none" xmlns="http://www.w3.org/2000/svg">
<path d="M22.3372 9.15482C21.1997 4.14982 16.8339 1.89648 12.9989 1.89648C12.9989 1.89648 12.9989 1.89648 12.988 1.89648C9.16388 1.89648 4.78722 4.13898 3.64972 9.14398C2.38222 14.734 5.80555 19.4681 8.90388 22.4473C10.0522 23.5523 11.5255 24.1048 12.9989 24.1048C14.4722 24.1048 15.9455 23.5523 17.083 22.4473C20.1814 19.4681 23.6047 14.7448 22.3372 9.15482ZM12.9989 14.5823C11.1139 14.5823 9.58638 13.0548 9.58638 11.1698C9.58638 9.28482 11.1139 7.75732 12.9989 7.75732C14.8839 7.75732 16.4114 9.28482 16.4114 11.1698C16.4114 13.0548 14.8839 14.5823 12.9989 14.5823Z" fill="#026985"/>
</svg>
