<svg width="28" height="28" viewBox="0 0 28 28" fill="none" xmlns="http://www.w3.org/2000/svg">
<path d="M9.5 6.96875C9.03875 6.96875 8.65625 6.58625 8.65625 6.125V2.75C8.65625 2.28875 9.03875 1.90625 9.5 1.90625C9.96125 1.90625 10.3438 2.28875 10.3438 2.75V6.125C10.3438 6.58625 9.96125 6.96875 9.5 6.96875Z" fill="white"/>
<path d="M18.5 6.96875C18.0387 6.96875 17.6562 6.58625 17.6562 6.125V2.75C17.6562 2.28875 18.0387 1.90625 18.5 1.90625C18.9612 1.90625 19.3438 2.28875 19.3438 2.75V6.125C19.3438 6.58625 18.9612 6.96875 18.5 6.96875Z" fill="white"/>
<path d="M10.0625 16.8121C9.91625 16.8121 9.77 16.7784 9.635 16.7221C9.48875 16.6659 9.37625 16.5871 9.26375 16.4859C9.06125 16.2721 8.9375 15.9909 8.9375 15.6871C8.9375 15.5409 8.97125 15.3946 9.0275 15.2596C9.08375 15.1246 9.1625 15.0009 9.26375 14.8884C9.37625 14.7871 9.48875 14.7084 9.635 14.6521C10.04 14.4834 10.5462 14.5734 10.8612 14.8884C11.0637 15.1021 11.1875 15.3946 11.1875 15.6871C11.1875 15.7546 11.1762 15.8334 11.165 15.9121C11.1537 15.9796 11.1312 16.0471 11.0975 16.1146C11.075 16.1821 11.0413 16.2496 10.9963 16.3171C10.9625 16.3734 10.9062 16.4296 10.8612 16.4859C10.6475 16.6884 10.355 16.8121 10.0625 16.8121Z" fill="white"/>
<path d="M14 16.8132C13.8537 16.8132 13.7075 16.7795 13.5725 16.7232C13.4262 16.667 13.3138 16.5882 13.2013 16.487C12.9988 16.2732 12.875 15.992 12.875 15.6882C12.875 15.542 12.9088 15.3957 12.965 15.2607C13.0213 15.1257 13.1 15.002 13.2013 14.8895C13.3138 14.7882 13.4262 14.7094 13.5725 14.6532C13.9775 14.4732 14.4837 14.5745 14.7987 14.8895C15.0012 15.1032 15.125 15.3957 15.125 15.6882C15.125 15.7557 15.1137 15.8345 15.1025 15.9132C15.0912 15.9807 15.0687 16.0482 15.035 16.1157C15.0125 16.1832 14.9788 16.2507 14.9338 16.3182C14.9 16.3745 14.8437 16.4307 14.7987 16.487C14.585 16.6895 14.2925 16.8132 14 16.8132Z" fill="white"/>
<path d="M17.9375 16.8132C17.7912 16.8132 17.645 16.7795 17.51 16.7232C17.3637 16.667 17.2513 16.5882 17.1388 16.487C17.0938 16.4307 17.0487 16.3745 17.0037 16.3182C16.9587 16.2507 16.925 16.1832 16.9025 16.1157C16.8688 16.0482 16.8463 15.9807 16.835 15.9132C16.8238 15.8345 16.8125 15.7557 16.8125 15.6882C16.8125 15.3957 16.9363 15.1032 17.1388 14.8895C17.2513 14.7882 17.3637 14.7094 17.51 14.6532C17.9262 14.4732 18.4212 14.5745 18.7362 14.8895C18.9387 15.1032 19.0625 15.3957 19.0625 15.6882C19.0625 15.7557 19.0512 15.8345 19.04 15.9132C19.0287 15.9807 19.0062 16.0482 18.9725 16.1157C18.95 16.1832 18.9163 16.2507 18.8713 16.3182C18.8375 16.3745 18.7812 16.4307 18.7362 16.487C18.5225 16.6895 18.23 16.8132 17.9375 16.8132Z" fill="white"/>
<path d="M10.0625 20.7496C9.91625 20.7496 9.77 20.7159 9.635 20.6596C9.5 20.6034 9.37625 20.5246 9.26375 20.4233C9.06125 20.2096 8.9375 19.9171 8.9375 19.6246C8.9375 19.4783 8.97125 19.3321 9.0275 19.1971C9.08375 19.0508 9.1625 18.9271 9.26375 18.8259C9.68 18.4096 10.445 18.4096 10.8612 18.8259C11.0637 19.0396 11.1875 19.3321 11.1875 19.6246C11.1875 19.9171 11.0637 20.2096 10.8612 20.4233C10.6475 20.6258 10.355 20.7496 10.0625 20.7496Z" fill="white"/>
<path d="M14 20.7496C13.7075 20.7496 13.415 20.6258 13.2013 20.4233C12.9988 20.2096 12.875 19.9171 12.875 19.6246C12.875 19.4783 12.9088 19.3321 12.965 19.1971C13.0213 19.0508 13.1 18.9271 13.2013 18.8259C13.6175 18.4096 14.3825 18.4096 14.7987 18.8259C14.9 18.9271 14.9787 19.0508 15.035 19.1971C15.0912 19.3321 15.125 19.4783 15.125 19.6246C15.125 19.9171 15.0012 20.2096 14.7987 20.4233C14.585 20.6258 14.2925 20.7496 14 20.7496Z" fill="white"/>
<path d="M17.9375 20.751C17.645 20.751 17.3525 20.6272 17.1388 20.4247C17.0375 20.3235 16.9588 20.1998 16.9025 20.0535C16.8463 19.9185 16.8125 19.7723 16.8125 19.626C16.8125 19.4798 16.8463 19.3335 16.9025 19.1985C16.9588 19.0522 17.0375 18.9285 17.1388 18.8273C17.3975 18.5685 17.7912 18.4447 18.1512 18.5235C18.23 18.5347 18.2975 18.5572 18.365 18.591C18.4325 18.6135 18.5 18.6473 18.5675 18.6923C18.6238 18.726 18.68 18.7823 18.7362 18.8273C18.9387 19.041 19.0625 19.3335 19.0625 19.626C19.0625 19.9185 18.9387 20.211 18.7362 20.4247C18.5225 20.6272 18.23 20.751 17.9375 20.751Z" fill="white"/>
<path d="M23.5625 11.5703H4.4375C3.97625 11.5703 3.59375 11.1878 3.59375 10.7266C3.59375 10.2653 3.97625 9.88281 4.4375 9.88281H23.5625C24.0238 9.88281 24.4062 10.2653 24.4062 10.7266C24.4062 11.1878 24.0238 11.5703 23.5625 11.5703Z" fill="white"/>
<path d="M18.5 26.0938H9.5C5.39375 26.0938 3.03125 23.7313 3.03125 19.625V10.0625C3.03125 5.95625 5.39375 3.59375 9.5 3.59375H18.5C22.6063 3.59375 24.9688 5.95625 24.9688 10.0625V19.625C24.9688 23.7313 22.6063 26.0938 18.5 26.0938ZM9.5 5.28125C6.2825 5.28125 4.71875 6.845 4.71875 10.0625V19.625C4.71875 22.8425 6.2825 24.4062 9.5 24.4062H18.5C21.7175 24.4062 23.2812 22.8425 23.2812 19.625V10.0625C23.2812 6.845 21.7175 5.28125 18.5 5.28125H9.5Z" fill="white"/>
</svg>
