<svg width="20" height="20" viewBox="0 0 20 20" fill="none" xmlns="http://www.w3.org/2000/svg">
<path d="M10.0013 1.66602C5.40964 1.66602 1.66797 5.40768 1.66797 9.99935C1.66797 14.591 5.40964 18.3327 10.0013 18.3327C14.593 18.3327 18.3346 14.591 18.3346 9.99935C18.3346 5.40768 14.593 1.66602 10.0013 1.66602ZM12.8013 11.916C13.043 12.1577 13.043 12.5577 12.8013 12.7993C12.6763 12.9243 12.518 12.9827 12.3596 12.9827C12.2013 12.9827 12.043 12.9243 11.918 12.7993L10.0013 10.8827L8.08464 12.7993C7.95964 12.9243 7.8013 12.9827 7.64297 12.9827C7.48464 12.9827 7.3263 12.9243 7.2013 12.7993C6.95964 12.5577 6.95964 12.1577 7.2013 11.916L9.11797 9.99935L7.2013 8.08268C6.95964 7.84102 6.95964 7.44102 7.2013 7.19935C7.44297 6.95768 7.84297 6.95768 8.08464 7.19935L10.0013 9.11602L11.918 7.19935C12.1596 6.95768 12.5596 6.95768 12.8013 7.19935C13.043 7.44102 13.043 7.84102 12.8013 8.08268L10.8846 9.99935L12.8013 11.916Z" fill="#2E9CB7"/>
</svg>
