<svg width="19" height="13" viewBox="0 0 19 13" fill="none" xmlns="http://www.w3.org/2000/svg">
<path d="M1.01111 13C0.45837 13 0 12.5347 0 11.9737V1.02632C0 0.465263 0.45837 0 1.01111 0C1.56385 0 2.02222 0.465263 2.02222 1.02632V11.9737C2.02222 12.5347 1.56385 13 1.01111 13Z" fill="white"/>
<path d="M5.05408 7.52632C4.50134 7.52632 4.04297 7.06105 4.04297 6.5V1.02632C4.04297 0.465263 4.50134 0 5.05408 0C5.60682 0 6.06519 0.465263 6.06519 1.02632V6.5C6.06519 7.06105 5.60682 7.52632 5.05408 7.52632Z" fill="white"/>
<path d="M5.05408 13.0011C4.50134 13.0011 4.04297 12.5359 4.04297 11.9748V10.6064C4.04297 10.0453 4.50134 9.58008 5.05408 9.58008C5.60682 9.58008 6.06519 10.0453 6.06519 10.6064V11.9748C6.06519 12.5359 5.60682 13.0011 5.05408 13.0011Z" fill="white"/>
<path d="M13.1439 3.42105C12.5912 3.42105 12.1328 2.95579 12.1328 2.39474V1.02632C12.1328 0.465263 12.5912 0 13.1439 0C13.6967 0 14.155 0.465263 14.155 1.02632V2.39474C14.155 2.95579 13.6967 3.42105 13.1439 3.42105Z" fill="white"/>
<path d="M9.10095 13C8.54821 13 8.08984 12.5347 8.08984 11.9737V1.02632C8.08984 0.465263 8.54821 0 9.10095 0C9.6537 0 10.1121 0.465263 10.1121 1.02632V11.9737C10.1121 12.5347 9.6537 13 9.10095 13Z" fill="white"/>
<path d="M13.1439 13.0009C12.5912 13.0009 12.1328 12.5357 12.1328 11.9746V6.50093C12.1328 5.93987 12.5912 5.47461 13.1439 5.47461C13.6967 5.47461 14.155 5.93987 14.155 6.50093V11.9746C14.155 12.5357 13.6967 13.0009 13.1439 13.0009Z" fill="white"/>
<path d="M17.1908 13C16.6381 13 16.1797 12.5347 16.1797 11.9737V1.02632C16.1797 0.465263 16.6381 0 17.1908 0C17.7435 0 18.2019 0.465263 18.2019 1.02632V11.9737C18.2019 12.5347 17.7435 13 17.1908 13Z" fill="white"/>
</svg>
