<svg width="32" height="32" viewBox="0 0 32 32" fill="none" xmlns="http://www.w3.org/2000/svg">
<path d="M15.0162 3.02645C13.131 3.2043 11.698 3.60573 10.133 4.39334C8.99475 4.96246 7.94291 5.70942 6.98761 6.63423C5.83414 7.74705 5.01604 8.85987 4.31481 10.2827C3.67455 11.5937 3.28329 12.8792 3.06479 14.3986C2.9784 14.9982 2.9784 17.0002 3.06479 17.5998C3.27821 19.0988 3.67455 20.4098 4.29448 21.6649C4.99063 23.0877 5.67661 24.043 6.80468 25.1762C7.92766 26.2941 8.89821 26.9902 10.2651 27.661C11.2204 28.1285 11.8352 28.3571 12.8058 28.601C13.8017 28.85 14.5487 28.9567 15.5751 28.9923C18.5223 29.0939 21.3831 28.1894 23.7816 26.3957C24.4828 25.8723 25.7074 24.6731 26.2054 24.0278C28.7257 20.7554 29.5743 16.7411 28.5835 12.7979C28.2837 11.6038 27.6586 10.1302 27.0286 9.13935C25.9564 7.44725 24.2999 5.82121 22.6789 4.85575C20.5803 3.60573 18.253 2.97056 15.88 3.00105C15.504 3.00105 15.1127 3.01629 15.0162 3.02645ZM17.0792 4.26631C20.5193 4.60168 23.5834 6.38016 25.621 9.23081C27.2064 11.4514 27.9839 14.363 27.7145 17.0968C27.4554 19.7848 26.3273 22.229 24.4523 24.165C23.5732 25.0745 22.7704 25.6945 21.7236 26.2839C18.187 28.2656 13.9135 28.286 10.3413 26.3347C9.28947 25.7605 8.59841 25.2422 7.66851 24.3123C6.50488 23.1436 5.74775 22.041 5.14307 20.6131C3.87781 17.6557 3.88797 14.3071 5.1634 11.3396C5.77824 9.90156 6.62175 8.69219 7.79555 7.55396C9.46732 5.92792 11.444 4.88624 13.695 4.44416C14.8587 4.2155 15.9715 4.15452 17.0792 4.26631Z" fill="white"/>
<path d="M17.5276 10.0794C16.8619 10.3182 16.3487 10.7806 16.0743 11.3904L15.9015 11.7715L12.1413 11.7816C8.64533 11.7969 8.37094 11.802 8.24899 11.8884C8.0813 12.0001 8 12.178 8 12.4371C8 12.6048 8.03557 12.6811 8.17277 12.8183L8.34553 12.991H12.1362C15.307 12.991 15.9269 13.0012 15.9269 13.0622C15.9269 13.0977 16.0082 13.2908 16.1048 13.4839C16.5062 14.2868 17.3701 14.8203 18.2644 14.8203C19.1587 14.8203 20.0225 14.2868 20.424 13.4839C20.5205 13.2908 20.6018 13.0977 20.6018 13.0622C20.6018 13.0063 20.8051 12.991 21.6994 12.991H22.797L22.9697 12.8183C23.1069 12.6811 23.1425 12.6048 23.1425 12.4371C23.1425 12.178 23.0612 12.0001 22.8935 11.8884C22.7817 11.8071 22.614 11.7969 21.6892 11.7816L20.612 11.7664L20.5205 11.5276C20.3071 10.9534 19.8853 10.5011 19.2959 10.2115C18.925 10.0286 18.8792 10.0184 18.3457 10.0032C17.9087 9.99301 17.7258 10.0133 17.5276 10.0794ZM18.8081 11.3192C19.3874 11.5987 19.6313 12.3508 19.3315 12.9351C18.8843 13.8142 17.6445 13.8142 17.1973 12.9351C16.8975 12.3508 17.1363 11.6089 17.7156 11.3192C18.0103 11.1719 18.5083 11.1719 18.8081 11.3192Z" fill="white"/>
<path d="M13.0153 17.0449C12.2379 17.1923 11.4808 17.8376 11.2318 18.5795L11.1505 18.8133H10.0123C8.78764 18.8133 8.66569 18.8336 8.498 19.0775C8.39129 19.2249 8.39129 19.6212 8.498 19.7686C8.66569 20.0125 8.78764 20.0328 10.0123 20.0328H11.1505L11.2318 20.2665C11.5875 21.3082 12.7562 21.9993 13.8639 21.8164C14.7379 21.6741 15.5255 21.0287 15.7796 20.2462L15.8508 20.0328H19.4789C23.3966 20.0328 23.2899 20.0379 23.4779 19.7686C23.5846 19.6212 23.5846 19.2249 23.4779 19.0775C23.2899 18.8082 23.3966 18.8133 19.4789 18.8133H15.8508L15.7796 18.5998C15.744 18.483 15.6272 18.2594 15.5306 18.107C14.992 17.2736 14.0011 16.8569 13.0153 17.0449ZM14.0367 18.3458C14.4635 18.5643 14.6871 18.9403 14.6871 19.423C14.6871 20.1192 14.1993 20.6121 13.4981 20.6121C12.7968 20.6121 12.309 20.1243 12.309 19.423C12.309 18.8488 12.6241 18.4322 13.1932 18.2492C13.3863 18.1832 13.8182 18.234 14.0367 18.3458Z" fill="white"/>
</svg>
