<svg width="26" height="26" viewBox="0 0 26 26" fill="none" xmlns="http://www.w3.org/2000/svg">
<path d="M13 0C5.8206 0 0 5.8206 0 13C0 20.1794 5.8206 26 13 26C20.1794 26 26 20.1794 26 13C26.0002 5.8206 20.1794 0 13 0ZM20.3128 19.5003C20.3128 19.9487 19.9489 20.3129 19.5002 20.3129C11.8838 20.3129 5.68769 14.1167 5.68769 6.50033C5.68769 6.0519 6.05162 5.68774 6.50027 5.68774H9.50012C9.94855 5.68774 10.3127 6.05167 10.3127 6.50033C10.3127 7.90437 10.6183 9.24175 11.2212 10.4733C11.317 10.6683 11.3301 10.8909 11.2585 11.0957C11.1886 11.3005 11.0391 11.4678 10.8439 11.5619L9.6316 12.147C10.6408 13.9036 12.0968 15.3612 13.8517 16.367L14.4367 15.1564C14.5308 14.9615 14.6983 14.8135 14.9031 14.7421C15.1079 14.6722 15.3321 14.6852 15.5255 14.7794C16.7606 15.3822 18.0962 15.6878 19.4985 15.6878C19.9469 15.6878 20.3111 16.0518 20.3111 16.5004L20.3113 19.5003H20.3128Z" fill="white"/>
</svg>
