<svg width="237" height="75" viewBox="0 0 237 75" fill="none" xmlns="http://www.w3.org/2000/svg">
<path d="M47.3025 12.4542C31.3 -5.8203 6.97307 4.39912 3.87969 22.7755C1.66816 35.8638 13.4369 48.0947 24.1944 57.5957H24.2775C-7.35805 23.1741 25.8935 -0.508978 42.4777 16.4075C50.2435 24.2076 44.6708 24.1752 51.3885 16.5651C63.8082 2.16985 84.1691 9.49724 86.8331 26.1774C87.5903 7.87975 63.859 -3.89691 47.3025 12.4542Z" fill="white"/>
<path d="M174.605 62.5699L198.531 61.4159C198.969 61.4159 199.943 59.8957 200.548 58.9549C200.696 58.7185 200.83 58.4914 200.955 58.3338C201.052 58.1864 201.202 58.0818 201.373 58.0413C201.545 58.0008 201.725 58.0275 201.878 58.116C202.289 58.306 202.414 59.3813 202.547 60.5585C202.603 61.0219 202.658 61.4854 202.723 61.9813L202.94 61.5642L203.18 61.1007C203.554 60.3916 203.817 60.0533 204.353 60.1135C204.879 60.1784 205.013 60.577 205.142 61.3139C205.188 61.5734 205.23 61.8422 205.272 62.125C205.544 60.2711 205.899 57.6293 206.255 54.9922C206.915 50.0331 207.585 45.0741 207.996 44.6848C208.118 44.5534 208.286 44.4744 208.465 44.4641C208.643 44.4537 208.819 44.5128 208.956 44.6291C209.418 45.0231 209.667 51.1177 209.902 57.4347C210.022 60.6048 210.147 63.8444 210.253 66.375C210.318 65.5685 210.383 64.7296 210.447 63.9232C210.646 61.3046 210.826 58.9919 211.08 58.6814C211.191 58.5225 211.359 58.4139 211.55 58.3792C211.74 58.3445 211.936 58.3865 212.095 58.496C212.442 58.6861 212.58 59.219 212.737 59.8586C212.839 60.4085 212.993 60.9471 213.199 61.4668C213.975 61.6337 232.978 62.5189 232.978 62.5189C232.978 62.5189 213.776 62.6997 212.857 62.5189C212.646 62.45 212.453 62.3337 212.293 62.1787C212.133 62.0237 212.01 61.8341 211.934 61.6244C211.878 62.3335 211.814 63.1539 211.749 64.0066C211.481 67.4456 211.177 71.4221 210.678 71.8856C210.551 72.0278 210.374 72.1146 210.184 72.1276C209.994 72.1406 209.807 72.0787 209.662 71.9551C209.104 71.5658 208.831 64.3681 208.573 57.4718C208.466 54.6539 208.365 51.9102 208.277 49.718C208.056 51.3262 207.815 53.2218 207.548 55.1127C206.892 60.0069 206.236 64.8919 205.844 65.3461C205.73 65.488 205.565 65.5791 205.384 65.5999C205.204 65.6208 205.022 65.5695 204.879 65.4573C204.38 65.1375 204.159 63.6729 203.956 62.417V62.3335L203.905 62.4262C203.379 63.4319 202.981 63.9418 202.441 63.9232C201.813 63.9232 201.573 63.3439 201.407 62.1991C201.347 61.7774 201.282 61.2027 201.218 60.6558C201.199 60.502 201.192 60.3472 201.195 60.1923C200.461 61.2768 199.486 62.5096 198.489 62.5096L174.605 62.5699Z" fill="white"/>
<path d="M134.996 52.9179C135.109 52.833 135.248 52.7904 135.389 52.7974C135.551 52.8012 135.71 52.8458 135.851 52.9272L136.04 52.6306C135.837 52.5096 135.606 52.447 135.37 52.4498C135.113 52.4415 134.861 52.5217 134.655 52.6769C134.56 52.7495 134.485 52.8438 134.434 52.9519C134.383 53.0599 134.359 53.1786 134.364 53.2979V53.5714H133.967V53.8819H134.364V56.0139H134.826V53.8819H135.74V53.5714H134.849V53.247C134.844 53.1841 134.855 53.121 134.881 53.0634C134.906 53.0059 134.946 52.9559 134.996 52.9179Z" fill="white"/>
<path d="M138.618 53.8448C138.282 53.6138 137.884 53.4902 137.477 53.4902C137.07 53.4902 136.673 53.6138 136.337 53.8448C136.191 53.9501 136.072 54.0895 135.992 54.251C135.912 54.4125 135.871 54.5912 135.875 54.7717C135.873 54.9519 135.914 55.13 135.995 55.2911C136.075 55.4523 136.192 55.592 136.337 55.6987C136.665 55.9464 137.068 56.0726 137.477 56.0555C137.887 56.071 138.289 55.9451 138.618 55.6987C138.762 55.592 138.88 55.4523 138.96 55.2911C139.04 55.13 139.081 54.9519 139.079 54.7717C139.084 54.5911 139.044 54.4123 138.963 54.2507C138.883 54.0891 138.764 53.9498 138.618 53.8448ZM138.281 55.4391C138.052 55.6185 137.767 55.7105 137.477 55.6987C137.186 55.7104 136.9 55.6185 136.669 55.4391C136.568 55.3585 136.487 55.2554 136.433 55.138C136.378 55.0205 136.352 54.892 136.355 54.7625C136.351 54.6335 136.378 54.5055 136.432 54.3888C136.487 54.272 136.568 54.1698 136.669 54.0904C136.898 53.9076 137.185 53.8137 137.477 53.8262C137.768 53.8136 138.054 53.9075 138.281 54.0904C138.381 54.1705 138.462 54.2729 138.516 54.3895C138.571 54.506 138.598 54.6337 138.595 54.7625C138.597 54.8918 138.57 55.02 138.516 55.1373C138.461 55.2546 138.381 55.3578 138.281 55.4391Z" fill="white"/>
<path d="M140.356 54.0593V53.5031H139.895V56.0151H140.356V54.6896C140.366 54.5715 140.402 54.4569 140.46 54.3538C140.518 54.2506 140.598 54.1612 140.693 54.0917C140.924 53.9349 141.2 53.8584 141.478 53.8739V53.4985C141.258 53.4797 141.037 53.522 140.839 53.621C140.641 53.7199 140.474 53.8715 140.356 54.0593Z" fill="white"/>
<path d="M148.875 53.4836C148.628 53.4533 148.376 53.5002 148.156 53.6179C147.935 53.7356 147.756 53.9184 147.643 54.1417C147.573 53.944 147.433 53.779 147.25 53.6782C147.025 53.5556 146.772 53.4963 146.516 53.5067C146.283 53.4823 146.048 53.5241 145.837 53.6273C145.627 53.7306 145.449 53.8911 145.325 54.0907V53.5253H144.863V56.0373H145.325V54.7998C145.32 54.6762 145.342 54.553 145.389 54.4387C145.436 54.3243 145.507 54.2214 145.597 54.1371C145.808 53.9602 146.075 53.8663 146.35 53.8729C146.578 53.8589 146.804 53.9262 146.987 54.0629C147.063 54.1266 147.122 54.2071 147.162 54.298C147.201 54.3889 147.219 54.4877 147.213 54.5866V56.0373H147.675V54.7998C147.671 54.6766 147.692 54.554 147.738 54.4397C147.785 54.3255 147.854 54.2224 147.943 54.1371C148.153 53.9587 148.421 53.8646 148.695 53.8729C148.923 53.8612 149.148 53.9283 149.333 54.0629C149.408 54.1266 149.468 54.2071 149.507 54.298C149.546 54.3889 149.564 54.4877 149.559 54.5866V56.0373H150.02V54.4847C150.025 54.3499 150 54.2158 149.947 54.0917C149.894 53.9676 149.816 53.8566 149.716 53.7663C149.477 53.5763 149.18 53.4763 148.875 53.4836Z" fill="white"/>
<path d="M153.413 53.8633C153.262 53.7274 153.085 53.6239 152.893 53.5593C152.701 53.4948 152.497 53.4705 152.295 53.4879C151.893 53.4712 151.497 53.5976 151.178 53.8448C151.044 53.9561 150.935 54.0959 150.861 54.2541C150.787 54.4124 150.748 54.5852 150.748 54.7601C150.748 54.9351 150.787 55.1079 150.861 55.2661C150.935 55.4243 151.044 55.5641 151.178 55.6755C151.497 55.9226 151.893 56.049 152.295 56.0323C152.755 56.0547 153.206 55.9043 153.56 55.6106L153.302 55.3927C153.028 55.6101 152.685 55.7205 152.337 55.7033C152.066 55.7139 151.798 55.6393 151.57 55.4901C151.472 55.4225 151.389 55.3354 151.325 55.2341C151.262 55.1329 151.219 55.0197 151.201 54.9015H153.745C153.768 54.7146 153.751 54.5248 153.693 54.3455C153.636 54.1662 153.54 54.0016 153.413 53.8633ZM151.201 54.5956C151.215 54.4812 151.253 54.3712 151.313 54.2729C151.372 54.1746 151.452 54.0902 151.547 54.0255C151.768 53.8758 152.029 53.7995 152.295 53.8077C152.559 53.7962 152.819 53.8728 153.034 54.0255C153.125 54.0908 153.2 54.1761 153.252 54.2749C153.305 54.3738 153.335 54.4835 153.339 54.5956H151.201Z" fill="white"/>
<path d="M156.979 54.0397C156.86 53.8554 156.69 53.7103 156.489 53.6225C156.259 53.5226 156.01 53.4736 155.76 53.4789C155.367 53.463 154.982 53.5897 154.675 53.8357C154.543 53.951 154.437 54.0934 154.364 54.2533C154.291 54.4133 154.254 54.5869 154.254 54.7627C154.254 54.9384 154.291 55.1121 154.364 55.272C154.437 55.4319 154.543 55.5743 154.675 55.6896C154.933 55.8793 155.236 55.9982 155.554 56.0348C155.873 56.0714 156.195 56.0243 156.489 55.8982C156.689 55.8121 156.86 55.6686 156.979 55.4857V56.0233H157.44V52.4824H156.979V54.0397ZM156.66 55.4301C156.428 55.6101 156.14 55.7021 155.847 55.6896C155.555 55.7005 155.267 55.6087 155.035 55.4301C154.933 55.3507 154.852 55.2486 154.796 55.1319C154.741 55.0153 154.714 54.8872 154.716 54.758C154.714 54.6269 154.741 54.4968 154.796 54.3779C154.851 54.259 154.933 54.1544 155.035 54.0721C155.266 53.89 155.554 53.7964 155.847 53.8079C156.141 53.7947 156.43 53.8885 156.66 54.0721C156.762 54.1544 156.844 54.259 156.899 54.3779C156.954 54.4968 156.981 54.6269 156.979 54.758C156.981 54.8904 156.951 55.0212 156.892 55.1397C156.834 55.2583 156.748 55.361 156.642 55.4393L156.66 55.4301Z" fill="white"/>
<path d="M158.826 52.5139C158.747 52.5111 158.669 52.5375 158.609 52.588C158.582 52.611 158.561 52.6395 158.547 52.6715C158.532 52.7035 158.525 52.7383 158.526 52.7734C158.524 52.8086 158.531 52.8436 158.546 52.8757C158.56 52.9079 158.582 52.9363 158.609 52.9588C158.668 53.0114 158.746 53.038 158.826 53.0329C158.903 53.0368 158.979 53.0102 159.038 52.9588C159.066 52.9365 159.088 52.9083 159.103 52.8762C159.118 52.8441 159.126 52.8089 159.126 52.7734C159.125 52.738 159.117 52.7031 159.102 52.6711C159.087 52.6391 159.065 52.6107 159.038 52.588C158.979 52.5382 158.903 52.5118 158.826 52.5139Z" fill="url(#paint0_linear_57_22506)"/>
<path d="M159.031 53.502H158.578V56.0186H159.031V53.502Z" fill="white"/>
<path d="M161.414 55.6933C161.126 55.7053 160.842 55.6132 160.616 55.4338C160.518 55.3511 160.44 55.2482 160.387 55.1321C160.333 55.016 160.305 54.8897 160.305 54.7617C160.305 54.6338 160.333 54.5074 160.387 54.3914C160.44 54.2753 160.518 54.1724 160.616 54.0897C160.842 53.9103 161.126 53.8182 161.414 53.8302C161.746 53.8231 162.07 53.9257 162.338 54.1222L162.587 53.858C162.244 53.5945 161.818 53.463 161.387 53.4872C160.984 53.4705 160.588 53.5969 160.269 53.8441C160.133 53.9544 160.024 54.0939 159.948 54.2523C159.873 54.4107 159.834 54.5839 159.834 54.7594C159.834 54.9349 159.873 55.1082 159.948 55.2666C160.024 55.4249 160.133 55.5644 160.269 55.6748C160.62 55.9197 161.04 56.0444 161.467 56.0302C161.893 56.016 162.304 55.8637 162.638 55.596L162.37 55.3689C162.105 55.5963 161.763 55.7124 161.414 55.6933Z" fill="white"/>
<path d="M165.56 53.7169C165.297 53.5473 164.986 53.4661 164.674 53.4851C164.451 53.4816 164.228 53.5097 164.013 53.5686C163.799 53.6318 163.592 53.7172 163.395 53.8235L163.593 54.0969C163.892 53.9172 164.233 53.8182 164.581 53.8096C164.802 53.7961 165.021 53.8512 165.209 53.9671C165.278 54.015 165.334 54.0797 165.371 54.1551C165.408 54.2305 165.426 54.3141 165.422 54.3982V54.5465H164.397C164.098 54.5341 163.801 54.603 163.538 54.7458C163.444 54.7968 163.366 54.8725 163.311 54.9647C163.257 55.057 163.228 55.1623 163.229 55.2695C163.228 55.3788 163.255 55.4865 163.307 55.5828C163.358 55.6791 163.433 55.7609 163.524 55.821C163.749 55.9752 164.018 56.0516 164.29 56.0388C164.499 56.0554 164.708 56.028 164.905 55.9586C165.103 55.8892 165.283 55.7791 165.435 55.6356V56.0157H165.897V54.3564C165.899 54.23 165.869 54.105 165.81 53.9932C165.752 53.8814 165.665 53.7863 165.56 53.7169ZM165.426 55.1536C165.36 55.3336 165.228 55.4813 165.057 55.5661C164.845 55.6734 164.61 55.726 164.374 55.719C164.191 55.7287 164.009 55.6835 163.852 55.5893C163.794 55.5552 163.746 55.5064 163.713 55.4478C163.679 55.3893 163.662 55.323 163.663 55.2556C163.663 54.9868 163.926 54.8524 164.452 54.8524H165.426V55.1536Z" fill="white"/>
<path d="M167.407 52.4746H166.945V56.0201H167.407V52.4746Z" fill="white"/>
<path d="M173.066 53.485C172.829 53.4587 172.589 53.4989 172.373 53.6012C172.157 53.7034 171.973 53.8637 171.843 54.0643V52.4746H171.381V56.0155H171.843V54.778C171.838 54.6535 171.86 54.5294 171.909 54.4148C171.958 54.3001 172.031 54.1978 172.124 54.1153C172.344 53.9367 172.622 53.8445 172.904 53.8557C173.135 53.8434 173.363 53.9105 173.551 54.0458C173.627 54.1083 173.687 54.1878 173.727 54.2779C173.767 54.368 173.786 54.4663 173.782 54.5648V56.0155H174.243V54.4629C174.249 54.3271 174.223 54.1918 174.169 54.0673C174.115 53.9428 174.033 53.8324 173.929 53.7445C173.679 53.5618 173.375 53.4702 173.066 53.485Z" fill="white"/>
<path d="M177.639 53.8633C177.488 53.7274 177.311 53.6239 177.119 53.5593C176.927 53.4948 176.723 53.4705 176.521 53.4879C176.119 53.4712 175.723 53.5976 175.404 53.8448C175.268 53.9551 175.158 54.0946 175.083 54.253C175.008 54.4113 174.969 54.5846 174.969 54.7601C174.969 54.9356 175.008 55.1089 175.083 55.2673C175.158 55.4256 175.268 55.5651 175.404 55.6755C175.723 55.9226 176.119 56.049 176.521 56.0323C176.981 56.0547 177.432 55.9043 177.786 55.6106L177.528 55.3927C177.254 55.6094 176.911 55.7196 176.563 55.7033C176.292 55.7139 176.024 55.6393 175.797 55.4901C175.698 55.4225 175.615 55.3354 175.551 55.2341C175.488 55.1329 175.445 55.0197 175.427 54.9015H177.98C178.001 54.7139 177.982 54.524 177.923 54.3448C177.864 54.1656 177.767 54.0013 177.639 53.8633ZM175.446 54.5956C175.459 54.4812 175.497 54.3712 175.557 54.2729C175.617 54.1746 175.697 54.0902 175.792 54.0255C176.012 53.8758 176.274 53.7995 176.54 53.8077C176.803 53.7962 177.063 53.8728 177.279 54.0255C177.369 54.091 177.443 54.1765 177.495 54.2754C177.547 54.3742 177.576 54.4838 177.579 54.5956H175.446Z" fill="white"/>
<path d="M180.841 53.7169C180.578 53.5473 180.267 53.4661 179.955 53.4851C179.732 53.4816 179.51 53.5097 179.295 53.5686C179.08 53.6318 178.873 53.7172 178.676 53.8235L178.875 54.0969C179.174 53.9172 179.514 53.8182 179.863 53.8096C180.083 53.7961 180.302 53.8512 180.49 53.9671C180.559 54.0156 180.614 54.0804 180.651 54.1557C180.688 54.2309 180.706 54.3143 180.703 54.3982V54.5465H179.678C179.379 54.5341 179.082 54.603 178.819 54.7458C178.725 54.796 178.646 54.8715 178.591 54.9639C178.537 55.0563 178.508 55.1621 178.51 55.2695C178.51 55.3788 178.536 55.4865 178.588 55.5828C178.64 55.6791 178.714 55.7609 178.805 55.821C179.03 55.9752 179.299 56.0516 179.572 56.0388C179.78 56.0554 179.989 56.028 180.187 55.9586C180.384 55.8892 180.564 55.7791 180.717 55.6356V56.0157H181.178V54.3564C181.18 54.23 181.151 54.105 181.092 53.9932C181.033 53.8814 180.947 53.7863 180.841 53.7169ZM180.707 55.1536C180.641 55.335 180.507 55.4831 180.334 55.5661C180.124 55.6742 179.89 55.7268 179.655 55.719C179.472 55.7287 179.29 55.6835 179.133 55.5893C179.075 55.5552 179.027 55.5064 178.994 55.4478C178.961 55.3893 178.943 55.323 178.944 55.2556C178.944 54.9868 179.207 54.8524 179.733 54.8524H180.707V55.1536Z" fill="white"/>
<path d="M182.687 52.4746H182.225V56.0201H182.687V52.4746Z" fill="white"/>
<path d="M184.825 55.6724C184.768 55.6802 184.711 55.6747 184.656 55.6562C184.602 55.6377 184.553 55.6067 184.512 55.5658C184.472 55.5249 184.442 55.4751 184.424 55.4204C184.406 55.3657 184.401 55.3076 184.41 55.2507V53.8834H185.398V53.5729H184.41V52.9102H183.948V53.5729H183.486V53.8742H183.948V55.3109C183.942 55.4111 183.958 55.5115 183.995 55.6046C184.033 55.6977 184.091 55.7811 184.165 55.8485C184.332 55.9758 184.538 56.0399 184.747 56.0293C184.994 56.0232 185.236 55.958 185.453 55.8393L185.319 55.5334C185.169 55.6208 184.999 55.6687 184.825 55.6724Z" fill="white"/>
<path d="M187.873 53.485C187.635 53.4592 187.396 53.4997 187.18 53.6019C186.964 53.7041 186.78 53.8641 186.649 54.0643V52.4746H186.188V56.0155H186.649V54.778C186.645 54.6536 186.668 54.5298 186.717 54.4153C186.766 54.3008 186.839 54.1984 186.931 54.1153C187.151 53.9367 187.428 53.8445 187.711 53.8557C187.942 53.8434 188.17 53.9105 188.357 54.0458C188.434 54.1076 188.495 54.1869 188.536 54.2772C188.576 54.3675 188.594 54.4661 188.588 54.5648V56.0155H189.05V54.4629C189.056 54.3271 189.03 54.1918 188.976 54.0673C188.921 53.9428 188.839 53.8324 188.736 53.7445C188.486 53.5618 188.182 53.4702 187.873 53.485Z" fill="white"/>
<path d="M194.137 55.6933C193.848 55.7053 193.565 55.6132 193.338 55.4338C193.241 55.3511 193.163 55.2482 193.109 55.1321C193.056 55.016 193.028 54.8897 193.028 54.7617C193.028 54.6338 193.056 54.5074 193.109 54.3914C193.163 54.2753 193.241 54.1724 193.338 54.0897C193.565 53.9103 193.848 53.8182 194.137 53.8302C194.468 53.8231 194.793 53.9257 195.06 54.1222L195.31 53.858C194.966 53.5945 194.541 53.463 194.109 53.4872C193.707 53.4705 193.311 53.5969 192.992 53.8441C192.856 53.9544 192.746 54.0939 192.671 54.2523C192.596 54.4107 192.557 54.5839 192.557 54.7594C192.557 54.9349 192.596 55.1082 192.671 55.2666C192.746 55.4249 192.856 55.5644 192.992 55.6748C193.342 55.9197 193.762 56.0444 194.189 56.0302C194.616 56.016 195.027 55.8637 195.36 55.596L195.093 55.3689C194.827 55.5963 194.485 55.7124 194.137 55.6933Z" fill="white"/>
<path d="M198.279 53.7169C198.015 53.5473 197.705 53.4661 197.392 53.4851C197.169 53.4816 196.947 53.5097 196.732 53.5686C196.518 53.6328 196.311 53.7182 196.113 53.8235L196.312 54.0969C196.613 53.9167 196.955 53.8177 197.305 53.8096C197.524 53.7968 197.741 53.8518 197.928 53.9671C197.997 54.015 198.053 54.0797 198.09 54.1551C198.127 54.2305 198.144 54.3141 198.14 54.3982V54.5465H197.115C196.816 54.5341 196.52 54.603 196.257 54.7458C196.163 54.7968 196.084 54.8725 196.03 54.9647C195.975 55.057 195.947 55.1623 195.947 55.2695C195.947 55.3788 195.974 55.4865 196.025 55.5828C196.077 55.6791 196.152 55.7609 196.243 55.821C196.468 55.9752 196.737 56.0516 197.009 56.0388C197.217 56.0556 197.427 56.0284 197.624 55.959C197.821 55.8895 198.002 55.7794 198.154 55.6356V56.0157H198.616V54.3564C198.619 54.2297 198.59 54.1043 198.531 53.9923C198.472 53.8802 198.385 53.7854 198.279 53.7169ZM198.15 55.149C198.081 55.3286 197.947 55.4758 197.776 55.5615C197.564 55.6688 197.329 55.7214 197.092 55.7144C196.911 55.7251 196.73 55.6798 196.575 55.5846C196.516 55.5515 196.467 55.5031 196.433 55.4444C196.399 55.3857 196.381 55.3189 196.381 55.2509C196.381 54.9821 196.644 54.8477 197.171 54.8477H198.15V55.149Z" fill="white"/>
<path d="M200.095 54.059V53.5028H199.633V56.0148H200.095V54.6893C200.105 54.5709 200.142 54.4562 200.201 54.3531C200.26 54.2499 200.34 54.1607 200.436 54.0914C200.667 53.9346 200.943 53.8581 201.221 53.8736V53.4982C201 53.4801 200.779 53.5227 200.58 53.6215C200.382 53.7203 200.214 53.8716 200.095 54.059Z" fill="white"/>
<path d="M204.195 53.8633C204.045 53.7274 203.868 53.6239 203.675 53.5593C203.483 53.4948 203.28 53.4705 203.078 53.4879C202.675 53.4712 202.28 53.5976 201.961 53.8448C201.825 53.9551 201.715 54.0946 201.64 54.253C201.564 54.4113 201.525 54.5846 201.525 54.7601C201.525 54.9356 201.564 55.1089 201.64 55.2673C201.715 55.4256 201.825 55.5651 201.961 55.6755C202.28 55.9226 202.675 56.049 203.078 56.0323C203.537 56.0547 203.988 55.9043 204.343 55.6106L204.085 55.3927C203.811 55.6094 203.468 55.7196 203.12 55.7033C202.848 55.7139 202.58 55.6393 202.353 55.4901C202.254 55.4231 202.17 55.3362 202.107 55.2348C202.043 55.1335 202.001 55.0199 201.984 54.9015H204.532C204.554 54.7143 204.535 54.5246 204.477 54.3454C204.419 54.1662 204.323 54.0017 204.195 53.8633ZM201.984 54.5956C201.998 54.4812 202.036 54.3712 202.095 54.2729C202.155 54.1746 202.235 54.0902 202.33 54.0255C202.55 53.8758 202.812 53.7995 203.078 53.8077C203.341 53.7962 203.601 53.8728 203.817 54.0255C203.906 54.0917 203.98 54.1774 204.032 54.2761C204.084 54.3748 204.113 54.484 204.117 54.5956H201.984Z" fill="white"/>
<path d="M82.4749 30.4723V30.375H78.5458L72.1744 37.4938V30.375H69.0117V47.2081H72.1744V39.7509L79.1922 47.2081H83.0981V47.0134L75.0277 38.5274L82.4749 30.4723Z" fill="white"/>
<path d="M95.5292 40.0432C95.5292 42.9259 94.0425 44.6778 91.4293 44.6778C88.8161 44.6778 87.0939 43.065 87.0939 40.0432V30.3984H83.959V40.0432C83.959 45.1135 87.3848 47.5652 91.4062 47.5652C95.6215 47.5652 98.6641 45.0208 98.6641 40.0432V30.3984H95.5292V40.0432Z" fill="white"/>
<path d="M115.794 35.9559C115.794 33.0453 113.707 30.3943 109.755 30.3943C107.1 30.3943 104.441 30.3711 101.781 30.3711V47.2273H104.944V41.5823H107.982L112.871 47.2088H116.629V46.991L111.551 41.244C114.737 40.5951 115.794 38.2639 115.794 35.9559ZM104.944 38.7367V33.3326H109.755C111.745 33.3326 112.631 34.6813 112.631 36.0254C112.631 37.3694 111.768 38.7181 109.755 38.7181L104.944 38.7367Z" fill="white"/>
<path d="M124.296 30.375H117.73V47.2081H124.319C130.187 47.2081 132.773 42.9025 132.699 38.6479C132.606 34.4859 130.044 30.375 124.296 30.375ZM124.296 44.1538H120.847V33.369H124.296C127.934 33.369 129.467 35.9876 129.541 38.6108C129.61 41.3638 128.1 44.1538 124.296 44.1538Z" fill="white"/>
<path d="M138.169 30.375H135.029V47.2034H138.169V30.375Z" fill="white"/>
<path d="M154.978 42.277C154.978 38.2634 151.723 37.3504 148.223 36.9147C146.215 36.6737 144.488 36.2659 144.488 34.8013C144.488 33.55 145.615 32.5628 147.96 32.5628C149.784 32.5628 151.363 33.4897 151.94 34.4166L154.451 33.1189C153.182 30.5189 150.476 29.7773 147.868 29.7773C144.774 29.7773 141.376 31.2187 141.376 34.6808C141.376 38.4534 144.539 39.3711 147.96 39.7789C150.19 40.0199 151.843 40.6688 151.843 42.2538C151.843 44.0799 149.973 44.7797 147.988 44.7797C146.002 44.7797 144.008 43.9594 143.269 42.1102L140.633 43.5006C141.879 46.578 144.511 47.6347 147.937 47.6347C151.677 47.6393 154.978 46.0265 154.978 42.277Z" fill="white"/>
<path d="M156.443 33.2624H161.762V47.2081H164.925V33.2624H170.239V30.375H156.443V33.2624Z" fill="white"/>
<path d="M181.4 30.375H177.951L170.43 47.2081H173.855L175.291 44.0287H184.064L185.476 47.2034H188.925L181.4 30.375ZM176.561 41.0764L179.678 33.9112L182.789 41.0764H176.561Z" fill="white"/>
<path d="M201.38 30.3535V40.8139L193.167 30.3767H190.6V47.2098H193.762V35.8595L202.576 47.2329V47.2098H204.543V30.3535H201.38Z" fill="white"/>
<path d="M36.8345 30.3711H36.4744V33.3697H36.8345C40.4773 33.3697 42.0148 35.9976 42.0794 38.6208C42.1533 41.3599 40.6297 44.1546 36.8345 44.1546H33.3856V36.3637H30.2461V47.2088H36.8345C42.7027 47.2088 45.2929 42.9032 45.219 38.644C45.1497 34.482 42.5827 30.3711 36.8345 30.3711Z" fill="white"/>
<path d="M61.3394 35.9522C61.3394 33.0416 59.2526 30.3906 55.3004 30.3906C52.641 30.3906 49.9817 30.3906 47.3223 30.3906V47.2515H50.4849V41.5787H53.5275L58.4169 47.2098H62.1751V46.992L57.0964 41.245C60.2821 40.5915 61.3394 38.2603 61.3394 35.9522ZM50.4849 38.733V33.329H55.3004C57.2903 33.329 58.1768 34.6777 58.1768 36.0217C58.1768 37.3658 57.3134 38.7191 55.3004 38.7191L50.4849 38.733Z" fill="white"/>
<path d="M30.2449 35.7143H33.3845V33.3691H35.8038V30.3705H33.3845V28.0254H30.2449V30.3705H27.7656V33.3691H30.2449V35.7143Z" fill="white"/>
<defs>
<linearGradient id="paint0_linear_57_22506" x1="158.507" y1="52.7734" x2="159.107" y2="52.7734" gradientUnits="userSpaceOnUse">
<stop stop-color="#41B3CD"/>
<stop offset="0.26" stop-color="#3EB0CA"/>
<stop offset="0.47" stop-color="#37A6C1"/>
<stop offset="0.66" stop-color="#2995B2"/>
<stop offset="0.84" stop-color="#177E9D"/>
<stop offset="1" stop-color="#006184"/>
</linearGradient>
</defs>
</svg>
