<svg width="18" height="18" viewBox="0 0 18 18" fill="none" xmlns="http://www.w3.org/2000/svg">
<path d="M11.25 17.0625H6.75C2.6775 17.0625 0.9375 15.3225 0.9375 11.25V6.75C0.9375 2.6775 2.6775 0.9375 6.75 0.9375H11.25C15.3225 0.9375 17.0625 2.6775 17.0625 6.75V11.25C17.0625 15.3225 15.3225 17.0625 11.25 17.0625ZM6.75 2.0625C3.2925 2.0625 2.0625 3.2925 2.0625 6.75V11.25C2.0625 14.7075 3.2925 15.9375 6.75 15.9375H11.25C14.7075 15.9375 15.9375 14.7075 15.9375 11.25V6.75C15.9375 3.2925 14.7075 2.0625 11.25 2.0625H6.75Z" fill="#999999"/>
<path d="M12.3 14.4375H9.45C8.01 14.4375 7.3125 13.74 7.3125 12.3V10.95C7.3125 9.51 8.01 8.8125 9.45 8.8125H12.3C13.74 8.8125 14.4375 9.51 14.4375 10.95V12.3C14.4375 13.74 13.74 14.4375 12.3 14.4375ZM9.45 9.9375C8.64 9.9375 8.4375 10.14 8.4375 10.95V12.3C8.4375 13.11 8.64 13.3125 9.45 13.3125H12.3C13.11 13.3125 13.3125 13.11 13.3125 12.3V10.95C13.3125 10.14 13.11 9.9375 12.3 9.9375H9.45Z" fill="#999999"/>
</svg>
