<svg width="32" height="32" viewBox="0 0 32 32" fill="none" xmlns="http://www.w3.org/2000/svg">
<path d="M5.04348 8.69565L15.4783 4L26.4348 8.17391L28 10.7826V20.1739L27.4783 22.7826L18.3661 28H13.913L4 21.7391V12.8696L5.04348 8.69565Z" fill="#67DEFF"/>
<path d="M16 31C14.6636 31 13.3503 30.7114 12.2904 30.1563L4.91707 26.2044C2.70509 25.0277 1 22.2081 1 19.766V12.2396C1 9.81962 2.72814 7 4.91707 5.80111L12.2904 1.84921C14.4102 0.716929 17.5898 0.716929 19.7096 1.84921L27.0829 5.80111C29.2949 6.9778 31 9.79741 31 12.2396V19.766C31 22.1859 29.2719 25.0055 27.0829 26.2044L19.7096 30.1563C18.6497 30.7336 17.3364 31 16 31ZM16 4.358C15.2396 4.358 14.5023 4.49121 13.9723 4.77983L6.59912 8.73173C5.47009 9.33117 4.45622 11.0185 4.45622 12.2396V19.766C4.45622 21.0093 5.47009 22.6744 6.59912 23.2738L13.9723 27.2257C15.0322 27.803 16.9678 27.803 18.0277 27.2257L25.4009 23.2738C26.5299 22.6744 27.5438 20.9871 27.5438 19.766V12.2396C27.5438 10.9963 26.5299 9.33117 25.4009 8.73173L18.0277 4.77983C17.4977 4.49121 16.7604 4.358 16 4.358Z" fill="#017D9F" stroke="#017D9F"/>
<path d="M16 27C15.02 27 14.0569 26.7883 13.2796 26.3813L7.87252 23.4832C6.2504 22.6203 5 20.5526 5 18.7617V13.2424C5 11.4677 6.2673 9.4 7.87252 8.52081L13.2796 5.62276C14.8341 4.79241 17.1659 4.79241 18.7204 5.62276L24.1275 8.52081C25.7496 9.38372 27 11.4514 27 13.2424V18.7617C27 20.5364 25.7327 22.6041 24.1275 23.4832L18.7204 26.3813C17.9431 26.8046 16.98 27 16 27ZM16 7.46253C15.4424 7.46253 14.9017 7.56022 14.5131 7.77188L9.10602 10.6699C8.27807 11.1095 7.53456 12.3469 7.53456 13.2424V18.7617C7.53456 19.6735 8.27807 20.8945 9.10602 21.3341L14.5131 24.2322C15.2903 24.6555 16.7097 24.6555 17.4869 24.2322L22.894 21.3341C23.7219 20.8945 24.4654 19.6572 24.4654 18.7617V13.2424C24.4654 12.3306 23.7219 11.1095 22.894 10.6699L17.4869 7.77188C17.0983 7.56022 16.5576 7.46253 16 7.46253Z" fill="white" stroke="white"/>
</svg>
