<svg width="30" height="27" viewBox="0 0 30 27" fill="none" xmlns="http://www.w3.org/2000/svg">
<path d="M17.1319 26.5026H9.76528C3.09845 26.5026 0.25 23.9893 0.25 18.1068V11.6068C0.25 5.72427 3.09845 3.21094 9.76528 3.21094H17.1319C23.7988 3.21094 26.6472 5.72427 26.6472 11.6068V18.1068C26.6472 23.9893 23.7988 26.5026 17.1319 26.5026ZM9.76528 4.83594C4.10522 4.83594 2.09167 6.6126 2.09167 11.6068V18.1068C2.09167 23.1009 4.10522 24.8776 9.76528 24.8776H17.1319C22.792 24.8776 24.8056 23.1009 24.8056 18.1068V11.6068C24.8056 6.6126 22.792 4.83594 17.1319 4.83594H9.76528Z" fill="#363636"/>
<path d="M1.98736 23.1998C1.6927 23.1998 1.39803 23.0698 1.22614 22.8423C0.943753 22.474 1.05425 21.9648 1.48398 21.7157L7.53692 18.1298C8.86292 17.339 10.6923 17.4365 11.8955 18.3357L12.3007 18.6498C12.9146 19.1157 13.9582 19.1157 14.5598 18.6498L19.6674 14.7823C20.9688 13.7965 23.0192 13.7965 24.3329 14.7823L26.3342 16.299C26.7148 16.5915 26.7639 17.1007 26.4324 17.4473C26.1009 17.7832 25.5239 17.8265 25.131 17.534L23.1297 16.0173C22.5158 15.5515 21.4722 15.5515 20.8583 16.0173L15.7508 19.8848C14.4493 20.8707 12.3989 20.8707 11.0852 19.8848L10.68 19.5707C10.1153 19.1482 9.18214 19.1048 8.55598 19.484L2.50303 23.0698C2.34342 23.1565 2.15925 23.1998 1.98736 23.1998Z" fill="#363636"/>
<path d="M11.4356 10.6363L11.4363 10.6368C11.9377 10.9471 12.0561 11.2661 12.0561 11.4616C12.0561 11.657 11.9377 11.976 11.4363 12.2864L11.4356 12.2868L10.3884 12.9368L9.3419 13.5864C9.34185 13.5864 9.34179 13.5864 9.34174 13.5865C8.8337 13.9009 8.5632 13.8225 8.46324 13.7606C8.3427 13.6859 8.125 13.4281 8.125 12.7616V11.4538V10.1616C8.125 9.49501 8.3427 9.23724 8.46324 9.16258C8.56319 9.10068 8.83363 9.02225 9.34154 9.33656C9.34166 9.33663 9.34178 9.3367 9.3419 9.33678L10.3884 9.98631L11.4356 10.6363Z" stroke="#363636" stroke-width="1.5"/>
<path fill-rule="evenodd" clip-rule="evenodd" d="M25.7268 22.5709C28.6014 21.4523 29.8864 18.9901 29.8864 14.8958V8.39583C29.8864 2.51333 27.2338 0 21.0252 0H14.165C9.09733 0 6.39879 1.67448 5.57812 5.48885C6.06199 4.6836 6.91312 4.12416 7.89981 4.04223C8.91527 2.3146 10.8811 1.625 14.165 1.625H21.0252C26.2962 1.625 28.1713 3.40167 28.1713 8.39583V14.8958C28.1713 17.9427 27.4734 19.792 25.7322 20.7709V22.389C25.7322 22.45 25.7304 22.5107 25.7268 22.5709Z" fill="#363636"/>
</svg>
