<svg width="20" height="20" viewBox="0 0 20 20" fill="none" xmlns="http://www.w3.org/2000/svg">
<path d="M12.5013 18.9596H7.5013C2.9763 18.9596 1.04297 17.0263 1.04297 12.5013V7.5013C1.04297 2.9763 2.9763 1.04297 7.5013 1.04297H12.5013C17.0263 1.04297 18.9596 2.9763 18.9596 7.5013V12.5013C18.9596 17.0263 17.0263 18.9596 12.5013 18.9596ZM7.5013 2.29297C3.65964 2.29297 2.29297 3.65964 2.29297 7.5013V12.5013C2.29297 16.343 3.65964 17.7096 7.5013 17.7096H12.5013C16.343 17.7096 17.7096 16.343 17.7096 12.5013V7.5013C17.7096 3.65964 16.343 2.29297 12.5013 2.29297H7.5013Z" fill="white"/>
<path d="M7.4987 8.95833C6.23203 8.95833 5.20703 7.93333 5.20703 6.66667C5.20703 5.4 6.23203 4.375 7.4987 4.375C8.76536 4.375 9.79036 5.4 9.79036 6.66667C9.79036 7.93333 8.76536 8.95833 7.4987 8.95833ZM7.4987 5.625C6.9237 5.625 6.45703 6.09167 6.45703 6.66667C6.45703 7.24167 6.9237 7.70833 7.4987 7.70833C8.0737 7.70833 8.54036 7.24167 8.54036 6.66667C8.54036 6.09167 8.0737 5.625 7.4987 5.625Z" fill="white"/>
<path d="M2.224 16.4148C2.024 16.4148 1.824 16.3148 1.70733 16.1398C1.51566 15.8565 1.59066 15.4648 1.88233 15.2732L5.99066 12.5148C6.89066 11.9065 8.13233 11.9815 8.949 12.6732L9.224 12.9148C9.64066 13.2732 10.349 13.2732 10.7573 12.9148L14.224 9.93984C15.1073 9.18151 16.499 9.18151 17.3907 9.93984L18.749 11.1065C19.0073 11.3315 19.0407 11.7232 18.8157 11.9898C18.5907 12.2482 18.199 12.2815 17.9323 12.0565L16.574 10.8898C16.1573 10.5315 15.449 10.5315 15.0323 10.8898L11.5657 13.8648C10.6823 14.6232 9.29066 14.6232 8.399 13.8648L8.124 13.6232C7.74066 13.2982 7.10733 13.2648 6.68233 13.5565L2.574 16.3148C2.46566 16.3815 2.34066 16.4148 2.224 16.4148Z" fill="white"/>
</svg>
