<svg width="41" height="41" viewBox="0 0 41 41" fill="none" xmlns="http://www.w3.org/2000/svg">
<path d="M24.0453 6.54822L23.9775 6.4444L23.8691 6.38428C20.8507 4.71113 18.236 4.10253 15.9119 4.76893C13.5879 5.43534 11.6931 7.33703 10.0199 10.3555L6.38383 16.9151C4.71069 19.9336 4.10208 22.5482 4.76848 24.8723C5.43489 27.1963 7.33658 29.0912 10.355 30.7643L16.9147 34.4004C19.9331 36.0735 22.5478 36.6821 24.8718 36.0157C27.1959 35.3493 29.0907 33.4476 30.7639 30.4292L34.3999 23.8695C36.0731 20.8511 36.6817 18.2364 36.0153 15.9124C35.3489 13.5884 33.4472 11.6935 30.4287 10.0204L30.3235 9.96201L30.2032 9.95795L26.1831 9.82211L24.0453 6.54822ZM24.4697 12.1621L24.609 12.382L24.869 12.394L29.1366 12.5916C31.5598 13.9506 32.8389 15.2453 33.257 16.7033C33.6809 18.1816 33.2652 19.9866 31.8854 22.4757L28.2493 29.0354C26.8696 31.5245 25.5592 32.8336 24.0809 33.2575C22.6026 33.6814 20.7976 33.2656 18.3085 31.8858L11.7489 28.2498C9.25971 26.87 7.95063 25.5596 7.52674 24.0813C7.10285 22.6031 7.51861 20.7981 8.89837 18.3089L12.5344 11.7493C13.9142 9.26016 15.2246 7.95108 16.7029 7.52719C18.159 7.10964 19.9322 7.5068 22.364 8.83752L24.4697 12.1621Z" fill="#1877C4" stroke="#1877C4"/>
<path d="M14.0507 15.3322C15.6505 12.4462 19.5896 11.9382 21.8692 14.324C22.5362 15.0221 23.3948 15.5072 24.3369 15.7185L24.7514 15.8114C28.0077 16.5414 29.6485 20.1956 28.0307 23.1143L25.9359 26.8934C24.5971 29.3086 21.554 30.1812 19.1388 28.8424L13.891 25.9336C11.4759 24.5948 10.6032 21.5516 11.942 19.1364L14.0507 15.3322Z" fill="#67DEFF"/>
</svg>
