<svg width="16" height="16" viewBox="0 0 16 16" fill="none" xmlns="http://www.w3.org/2000/svg">
<path d="M0.994541 16.0007C0.744262 15.8757 0.619141 15.5633 0.619141 15.2508C0.619141 15.1883 0.619141 15.0633 0.619141 15.0008C0.619141 10.3762 0.619141 5.75149 0.619141 1.18934C0.619141 0.93936 0.681701 0.751898 0.744262 0.501913C0.806859 0.376902 0.931981 0.251928 1.05714 0.126953C3.74758 2.81423 6.37545 5.50151 9.00333 8.18882C6.31289 10.6886 3.68502 13.3134 0.994541 16.0007Z" fill="white"/>
<path d="M11.632 5.43708C10.8811 6.18703 10.0677 6.93695 9.31692 7.7494C6.81417 5.18709 4.24885 2.62479 1.74609 0.0624873C1.74609 0.0624873 1.74609 0 1.80865 0C5.06225 1.81235 8.3158 3.62473 11.632 5.43708Z" fill="white"/>
<path d="M1.74609 15.9994C4.24885 13.4996 6.81417 10.9998 9.31692 8.5C10.0052 9.18743 10.756 9.8749 11.5694 10.6248C8.3158 12.4372 5.06225 14.2496 1.80865 15.9994H1.74609Z" fill="white"/>
<path d="M12.0046 10.3766C11.1912 9.62666 10.4404 8.8767 9.62695 8.12678C10.4404 7.31434 11.2537 6.5019 12.0671 5.68945C12.3174 5.81443 12.5677 5.93944 12.8179 6.1269C13.4436 6.5019 14.1319 6.81437 14.7576 7.18933C14.9453 7.25182 15.0704 7.37683 15.1955 7.56429C15.4458 7.87676 15.4458 8.18927 15.1955 8.50174C15.0704 8.62672 14.9453 8.75173 14.7576 8.81421C13.8816 9.37667 12.9431 9.87664 12.0046 10.3766Z" fill="white"/>
</svg>
