<svg width="20" height="21" viewBox="0 0 20 21" fill="none" xmlns="http://www.w3.org/2000/svg">
<path fill-rule="evenodd" clip-rule="evenodd" d="M18.3333 10.3767C18.3333 9.74779 18.2781 9.14305 18.1755 8.5625H10V11.9934H14.6717C14.4705 13.1021 13.8589 14.0415 12.9396 14.6704V16.8958H15.745C17.3864 15.3517 18.3333 13.0779 18.3333 10.3767Z" fill="#4285F4"/>
<path fill-rule="evenodd" clip-rule="evenodd" d="M9.98165 18.9818C12.3684 18.9818 14.3694 18.1987 15.832 16.8631L12.9752 14.669C12.1836 15.1937 11.171 15.5037 9.98165 15.5037C7.67927 15.5037 5.73048 13.9654 5.03535 11.8984H2.08203V14.1642C3.53659 17.0221 6.52607 18.9818 9.98165 18.9818Z" fill="#34A853"/>
<path fill-rule="evenodd" clip-rule="evenodd" d="M5 11.817C4.82972 11.316 4.73297 10.7808 4.73297 10.2305C4.73297 9.68011 4.82972 9.14494 5 8.64393V6.48047H2.15557C1.57895 7.60775 1.25 8.88305 1.25 10.2305C1.25 11.5779 1.57895 12.8532 2.15557 13.9805L5 11.817Z" fill="#FBBC05"/>
<path fill-rule="evenodd" clip-rule="evenodd" d="M9.94489 4.95854C11.2367 4.95854 12.3965 5.39975 13.3084 6.26629L15.832 3.75811C14.3083 2.347 12.3165 1.48047 9.94489 1.48047C6.50539 1.48047 3.52982 3.44011 2.08203 6.29809L5.0216 8.5638C5.7135 6.49684 7.65322 4.95854 9.94489 4.95854Z" fill="#EA4335"/>
</svg>
