<svg width="30" height="21" viewBox="0 0 30 21" fill="none" xmlns="http://www.w3.org/2000/svg">
<path d="M29.0625 9.0625H25.5C25.0781 9.0625 24.7031 9.39062 24.5625 9.8125L23.4375 15.0625L21.0938 4.60938C21 4.1875 20.6719 3.90625 20.25 3.85937C19.8281 3.8125 19.4531 4.09375 19.3125 4.46875L17.1562 10.7031L15.0469 0.859375C14.9062 0.484375 14.5312 0.15625 14.0625 0.15625C13.5938 0.15625 13.2656 0.4375 13.125 0.859375L9.84375 13.75L7.92188 6.48438C7.82812 6.15625 7.54688 5.875 7.17188 5.78125C6.79688 5.73438 6.46875 5.875 6.23438 6.15625L4.125 9.0625H0.9375C0.421875 9.0625 0 9.48438 0 10C0 10.5156 0.421875 10.9375 0.9375 10.9375H4.59375C4.875 10.9375 5.15625 10.7969 5.34375 10.5625L6.60938 8.875L8.90625 17.7812C9 18.2031 9.375 18.4844 9.79688 18.4844C10.2188 18.4844 10.5938 18.2031 10.6875 17.7812L13.9219 5.21875L15.9375 14.4063C16.0312 14.8281 16.3594 15.1094 16.7812 15.1562C17.2031 15.2031 17.5781 14.9219 17.7188 14.5469L19.9219 8.26562L22.5 19.5625C22.5938 19.9844 22.9688 20.3125 23.4375 20.3125C23.8594 20.3125 24.2344 19.9844 24.3281 19.5625L26.25 10.9375H29.0625C29.5781 10.9375 30 10.5156 30 10C30 9.48438 29.5781 9.0625 29.0625 9.0625Z" fill="white"/>
</svg>
