<svg width="28" height="27" viewBox="0 0 28 27" fill="none" xmlns="http://www.w3.org/2000/svg">
<path fill-rule="evenodd" clip-rule="evenodd" d="M17.3423 5.73426C16.834 5.57979 16.2991 5.5 15.7488 5.5C14.5655 5.5 13.4819 5.88974 12.5281 6.65829C12.0466 7.04624 11.6104 7.52103 11.2258 8.07484C10.8414 7.52103 10.4051 7.04624 9.9237 6.65829C8.96987 5.88974 7.88624 5.5 6.70298 5.5C5.11983 5.5 3.66383 6.16037 2.60272 7.3594C1.55412 8.54441 0.976562 10.1633 0.976562 11.9181C0.976562 13.7242 1.62261 15.3775 3.00965 17.1212C4.25046 18.681 6.03378 20.2644 8.09893 22.0979L8.10253 22.1011C8.80691 22.7265 9.60529 23.4354 10.4334 24.1898C10.6526 24.3899 10.934 24.5 11.2258 24.5C11.5175 24.5 11.799 24.3899 12.0181 24.1901C12.8481 23.4339 13.6477 22.7239 14.3533 22.0975L14.3536 22.0973C16.4183 20.2641 18.2014 18.6809 19.4421 17.1211C20.8292 15.3775 21.4751 13.7242 21.4751 11.9181C21.4751 11.4049 21.4257 10.9034 21.3296 10.4209H20.6973V13.4007C20.6973 13.4871 20.6633 13.57 20.6028 13.6311C20.5423 13.6922 20.4603 13.7266 20.3747 13.7266H19.9927C19.7176 14.5784 19.235 15.4213 18.5177 16.323C17.3444 17.798 15.5999 19.347 13.58 21.1407L13.5745 21.1455C12.866 21.7743 12.0633 22.4871 11.2241 23.2485C10.3899 22.4886 9.5884 21.7769 8.88135 21.1491L8.8776 21.1459L8.87641 21.1448C6.85447 19.3496 5.10819 17.7991 3.93408 16.323C2.71907 14.7957 2.17718 13.4371 2.17718 11.9181C2.17718 10.4784 2.64182 9.16063 3.48539 8.2073C4.31661 7.26815 5.4592 6.751 6.70298 6.751C7.61396 6.751 8.4505 7.05276 9.18913 7.64779C9.84754 8.1783 10.3061 8.84893 10.5748 9.31818C10.713 9.55949 10.9564 9.70352 11.2258 9.70352C11.4953 9.70352 11.7386 9.55949 11.8769 9.31818C12.1457 8.84893 12.6042 8.1783 13.2625 7.64779C14.0011 7.05276 14.8377 6.751 15.7488 6.751C16.2838 6.751 16.8002 6.84672 17.2811 7.03057H17.3423V5.73426Z" fill="#363636"/>
<path d="M17.3423 5.73426H17.4923V5.62307L17.3859 5.59074L17.3423 5.73426ZM12.5281 6.65829L12.6222 6.7751L12.6222 6.7751L12.5281 6.65829ZM11.2258 8.07484L11.1026 8.16037L11.2258 8.33786L11.349 8.16039L11.2258 8.07484ZM9.9237 6.65829L10.0178 6.5415L10.0178 6.54149L9.9237 6.65829ZM2.60272 7.3594L2.49039 7.25999L2.49038 7.25999L2.60272 7.3594ZM3.00965 17.1212L2.89226 17.2146L2.89226 17.2146L3.00965 17.1212ZM8.09893 22.0979L8.19966 21.9867L8.19852 21.9857L8.09893 22.0979ZM8.10253 22.1011L8.00179 22.2123L8.00294 22.2133L8.10253 22.1011ZM10.4334 24.1898L10.5345 24.079L10.5344 24.0789L10.4334 24.1898ZM12.0181 24.1901L11.9171 24.0792L11.917 24.0793L12.0181 24.1901ZM14.3533 22.0975L14.2542 21.9849L14.2538 21.9854L14.3533 22.0975ZM14.3536 22.0973L14.4527 22.2099L14.4532 22.2095L14.3536 22.0973ZM19.4421 17.1211L19.3248 17.0277L19.3247 17.0277L19.4421 17.1211ZM21.3296 10.4209L21.4767 10.3916L21.4527 10.2709H21.3296V10.4209ZM20.6973 10.4209V10.2709H20.5473V10.4209H20.6973ZM20.6028 13.6311L20.4962 13.5256L20.4962 13.5256L20.6028 13.6311ZM19.9927 13.7266V13.5766H19.8835L19.85 13.6805L19.9927 13.7266ZM18.5177 16.323L18.6351 16.4164L18.6351 16.4164L18.5177 16.323ZM13.58 21.1407L13.4804 21.0285L13.4804 21.0285L13.58 21.1407ZM13.5745 21.1455L13.6741 21.2577L13.6741 21.2577L13.5745 21.1455ZM11.2241 23.2485L11.1231 23.3594L11.2239 23.4512L11.3249 23.3596L11.2241 23.2485ZM8.88135 21.1491L8.98095 21.0369L8.9797 21.0359L8.88135 21.1491ZM8.8776 21.1459L8.77799 21.258L8.77925 21.2591L8.8776 21.1459ZM8.87641 21.1448L8.97602 21.0326L8.976 21.0326L8.87641 21.1448ZM3.93408 16.323L4.05147 16.2296L4.05146 16.2296L3.93408 16.323ZM3.48539 8.2073L3.37307 8.10789L3.37306 8.1079L3.48539 8.2073ZM9.18913 7.64779L9.28325 7.53099L9.28323 7.53098L9.18913 7.64779ZM10.5748 9.31818L10.4446 9.39272L10.4446 9.39275L10.5748 9.31818ZM11.8769 9.31818L12.007 9.39275L12.007 9.39275L11.8769 9.31818ZM13.2625 7.64779L13.1684 7.53098L13.1684 7.531L13.2625 7.64779ZM17.2811 7.03057L17.2275 7.17068L17.2534 7.18057H17.2811V7.03057ZM17.3423 7.03057V7.18057H17.4923V7.03057H17.3423ZM15.7488 5.65C16.2845 5.65 16.8047 5.72767 17.2987 5.87778L17.3859 5.59074C16.8633 5.43192 16.3136 5.35 15.7488 5.35V5.65ZM12.6222 6.7751C13.5504 6.0272 14.6011 5.65 15.7488 5.65V5.35C14.53 5.35 13.4134 5.75227 12.434 6.54149L12.6222 6.7751ZM11.349 8.16039C11.7262 7.61723 12.1528 7.15327 12.6222 6.7751L12.434 6.54149C11.9403 6.93921 11.4946 7.42482 11.1026 7.98928L11.349 8.16039ZM9.82958 6.77509C10.2988 7.15327 10.7256 7.61724 11.1026 8.16037L11.349 7.98931C10.9572 7.42481 10.5113 6.93921 10.0178 6.5415L9.82958 6.77509ZM6.70298 5.65C7.85071 5.65 8.9014 6.0272 9.82959 6.7751L10.0178 6.54149C9.03834 5.75227 7.92177 5.35 6.70298 5.35V5.65ZM2.71505 7.45881C3.74807 6.29152 5.16336 5.65 6.70298 5.65V5.35C5.07631 5.35 3.5796 6.02922 2.49039 7.25999L2.71505 7.45881ZM1.12656 11.9181C1.12656 10.1957 1.69342 8.61334 2.71505 7.4588L2.49038 7.25999C1.41481 8.47548 0.826562 10.131 0.826562 11.9181H1.12656ZM3.12704 17.0279C1.75605 15.3043 1.12656 13.683 1.12656 11.9181H0.826562C0.826562 13.7655 1.48918 15.4507 2.89226 17.2146L3.12704 17.0279ZM8.19852 21.9857C6.1301 20.1493 4.358 18.5752 3.12703 17.0278L2.89226 17.2146C4.14291 18.7867 5.93747 20.3795 7.99934 22.21L8.19852 21.9857ZM8.20326 21.99L8.19966 21.9867L7.9982 22.209L8.0018 22.2123L8.20326 21.99ZM10.5344 24.0789C9.7055 23.3238 8.90644 22.6142 8.20211 21.989L8.00294 22.2133C8.70739 22.8387 9.50508 23.547 10.3324 24.3007L10.5344 24.0789ZM11.2258 24.35C10.9721 24.35 10.7266 24.2543 10.5345 24.079L10.3323 24.3006C10.5786 24.5254 10.8959 24.65 11.2258 24.65V24.35ZM11.917 24.0793C11.725 24.2543 11.4794 24.35 11.2258 24.35V24.65C11.5556 24.65 11.8729 24.5254 12.1192 24.3009L11.917 24.0793ZM14.2538 21.9854C13.5482 22.6116 12.7479 23.3223 11.9171 24.0792L12.1191 24.301C12.9483 23.5455 13.7472 22.8361 14.4529 22.2097L14.2538 21.9854ZM14.2545 21.9847L14.2542 21.9849L14.4524 22.2102L14.4527 22.2099L14.2545 21.9847ZM19.3247 17.0277C18.0938 18.5752 16.322 20.149 14.254 21.9851L14.4532 22.2095C16.5146 20.3791 18.3089 18.7867 19.5595 17.2144L19.3247 17.0277ZM21.3251 11.9181C21.3251 13.683 20.6957 15.3043 19.3248 17.0277L19.5595 17.2145C20.9626 15.4507 21.6251 13.7655 21.6251 11.9181H21.3251ZM21.1825 10.4502C21.2766 10.9228 21.3251 11.4146 21.3251 11.9181H21.6251C21.6251 11.3953 21.5748 10.884 21.4767 10.3916L21.1825 10.4502ZM21.3296 10.2709H20.6973V10.5709H21.3296V10.2709ZM20.5473 10.4209V13.4007H20.8473V10.4209H20.5473ZM20.5473 13.4007C20.5473 13.4479 20.5287 13.4927 20.4962 13.5256L20.7094 13.7366C20.7978 13.6473 20.8473 13.5264 20.8473 13.4007H20.5473ZM20.4962 13.5256C20.4637 13.5584 20.42 13.5766 20.3747 13.5766V13.8766C20.5006 13.8766 20.6209 13.8261 20.7094 13.7366L20.4962 13.5256ZM20.3747 13.5766H19.9927V13.8766H20.3747V13.5766ZM18.6351 16.4164C19.3601 15.5049 19.8534 14.6462 20.1354 13.7727L19.85 13.6805C19.5819 14.5106 19.1098 15.3377 18.4003 16.2296L18.6351 16.4164ZM13.6796 21.2528C15.696 19.4623 17.4519 17.9038 18.6351 16.4164L18.4003 16.2296C17.2369 17.6922 15.5038 19.2318 13.4804 21.0285L13.6796 21.2528ZM13.6741 21.2577L13.6796 21.2528L13.4804 21.0285L13.4749 21.0334L13.6741 21.2577ZM11.3249 23.3596C12.1634 22.5988 12.9656 21.8865 13.6741 21.2577L13.4749 21.0333C12.7665 21.6621 11.9632 22.3754 11.1233 23.1374L11.3249 23.3596ZM8.78176 21.2613C9.48887 21.8891 10.2897 22.6002 11.1231 23.3594L11.3251 23.1376C10.4901 22.377 9.68793 21.6647 8.98095 21.0369L8.78176 21.2613ZM8.77925 21.2591L8.78301 21.2624L8.9797 21.0359L8.97595 21.0326L8.77925 21.2591ZM8.77681 21.257L8.778 21.258L8.97721 21.0337L8.97602 21.0326L8.77681 21.257ZM3.81669 16.4164C5.00069 17.9049 6.75838 19.4648 8.77682 21.257L8.976 21.0326C6.95055 19.2343 5.21569 17.6933 4.05147 16.2296L3.81669 16.4164ZM2.02718 11.9181C2.02718 13.4797 2.58667 14.8702 3.81669 16.4164L4.05146 16.2296C2.85148 14.7212 2.32718 13.3946 2.32718 11.9181H2.02718ZM3.37306 8.1079C2.50202 9.09226 2.02718 10.4469 2.02718 11.9181H2.32718C2.32718 10.5099 2.78161 9.22899 3.59772 8.30671L3.37306 8.1079ZM6.70298 6.601C5.41584 6.601 4.23248 7.13688 3.37307 8.10789L3.59771 8.30672C4.40074 7.39943 5.50257 6.901 6.70298 6.901V6.601ZM9.28323 7.53098C8.51913 6.91542 7.64969 6.601 6.70298 6.601V6.901C7.57823 6.901 8.38187 7.19009 9.09503 7.7646L9.28323 7.53098ZM10.7049 9.24365C10.4313 8.7658 9.96175 8.07769 9.28325 7.53099L9.09502 7.76459C9.73333 8.27891 10.1808 8.93207 10.4446 9.39272L10.7049 9.24365ZM11.2258 9.55352C11.0122 9.55352 10.8175 9.44012 10.7049 9.24362L10.4446 9.39275C10.6085 9.67886 10.9005 9.85352 11.2258 9.85352V9.55352ZM11.7467 9.24362C11.6341 9.44012 11.4394 9.55352 11.2258 9.55352V9.85352C11.5511 9.85352 11.8431 9.67886 12.007 9.39275L11.7467 9.24362ZM13.1684 7.531C12.49 8.0777 12.0205 8.7658 11.7467 9.24362L12.007 9.39275C12.271 8.93207 12.7185 8.2789 13.3566 7.76458L13.1684 7.531ZM15.7488 6.601C14.8019 6.601 13.9325 6.91542 13.1684 7.53098L13.3566 7.7646C14.0698 7.19009 14.8734 6.901 15.7488 6.901V6.601ZM17.3346 6.89046C16.8364 6.69997 16.3018 6.601 15.7488 6.601V6.901C16.2658 6.901 16.764 6.99347 17.2275 7.17068L17.3346 6.89046ZM17.2811 7.18057H17.3423V6.88057H17.2811V7.18057ZM17.4923 7.03057V5.73426H17.1923V7.03057H17.4923Z" fill="#363636"/>
<g filter="url(#filter0_d_4025_32654)">
<path d="M20.4481 7.03138V7.28138H20.6981H23.6523C23.6707 7.28138 23.6888 7.28875 23.7026 7.30269C23.7165 7.31672 23.7248 7.33628 23.7248 7.35722V10.0951C23.7248 10.116 23.7165 10.1356 23.7026 10.1496C23.6888 10.1636 23.6707 10.1709 23.6523 10.1709H20.6973H20.4473V10.4209V13.4007C20.4473 13.4217 20.439 13.4412 20.4251 13.4553C20.4113 13.4692 20.3931 13.4766 20.3747 13.4766H17.6648C17.6464 13.4766 17.6283 13.4692 17.6145 13.4553C17.6006 13.4412 17.5923 13.4217 17.5923 13.4007V10.4209V10.1709H17.3423H14.3889C14.3705 10.1709 14.3524 10.1636 14.3385 10.1496C14.3247 10.1356 14.3164 10.116 14.3164 10.0951V7.35641C14.3164 7.33547 14.3247 7.3159 14.3385 7.30187C14.3523 7.28793 14.3705 7.28057 14.3889 7.28057H17.3423H17.5923V7.03057V4.0524C17.5923 4.03146 17.6006 4.0119 17.6145 3.99787C17.6283 3.98392 17.6464 3.97656 17.6648 3.97656H20.3755C20.3939 3.97656 20.4121 3.98392 20.4259 3.99787C20.4398 4.01189 20.4481 4.03146 20.4481 4.0524V7.03138Z" stroke="#363636" stroke-width="0.5" shape-rendering="crispEdges"/>
</g>
<g filter="url(#filter1_d_4025_32654)">
<path d="M16.729 2.48289V2.73289H16.979H18.695V4.26662H16.9785H16.7285V4.51662V6.25H15.2155V4.51662V4.26662H14.9656H13.25V2.7324H14.9656H15.2155V2.4824V0.75H16.729V2.48289Z" stroke="#363636" stroke-width="0.5" shape-rendering="crispEdges"/>
</g>
<defs>
<filter id="filter0_d_4025_32654" x="10.0664" y="3.72656" width="17.9102" height="18" filterUnits="userSpaceOnUse" color-interpolation-filters="sRGB">
<feFlood flood-opacity="0" result="BackgroundImageFix"/>
<feColorMatrix in="SourceAlpha" type="matrix" values="0 0 0 0 0 0 0 0 0 0 0 0 0 0 0 0 0 0 127 0" result="hardAlpha"/>
<feOffset dy="4"/>
<feGaussianBlur stdDeviation="2"/>
<feComposite in2="hardAlpha" operator="out"/>
<feColorMatrix type="matrix" values="0 0 0 0 0 0 0 0 0 0 0 0 0 0 0 0 0 0 0.25 0"/>
<feBlend mode="normal" in2="BackgroundImageFix" result="effect1_dropShadow_4025_32654"/>
<feBlend mode="normal" in="SourceGraphic" in2="effect1_dropShadow_4025_32654" result="shape"/>
</filter>
<filter id="filter1_d_4025_32654" x="9" y="0.5" width="13.9453" height="14" filterUnits="userSpaceOnUse" color-interpolation-filters="sRGB">
<feFlood flood-opacity="0" result="BackgroundImageFix"/>
<feColorMatrix in="SourceAlpha" type="matrix" values="0 0 0 0 0 0 0 0 0 0 0 0 0 0 0 0 0 0 127 0" result="hardAlpha"/>
<feOffset dy="4"/>
<feGaussianBlur stdDeviation="2"/>
<feComposite in2="hardAlpha" operator="out"/>
<feColorMatrix type="matrix" values="0 0 0 0 0 0 0 0 0 0 0 0 0 0 0 0 0 0 0.25 0"/>
<feBlend mode="normal" in2="BackgroundImageFix" result="effect1_dropShadow_4025_32654"/>
<feBlend mode="normal" in="SourceGraphic" in2="effect1_dropShadow_4025_32654" result="shape"/>
</filter>
</defs>
</svg>
