<svg width="39" height="40" viewBox="0 0 39 40" fill="none" xmlns="http://www.w3.org/2000/svg">
<g clip-path="url(#clip0_4070_25843)">
<path d="M19.219 0.774551C19.12 0.820255 0.625446 15.2472 0.29029 15.5443C0.0465402 15.7652 -0.0372489 16.0242 0.038923 16.3212C0.0922433 16.5574 2.79634 19.33 3.13912 19.5128C3.40572 19.6499 3.61138 19.6499 3.8856 19.5052L4.11412 19.3833V28.7982V38.2054H2.36217C0.991072 38.2054 0.556892 38.2283 0.389314 38.3121C-0.113421 38.5787 -0.113421 39.3556 0.389314 39.6222C0.709236 39.7822 38.2924 39.7822 38.6124 39.6222C39.1151 39.3556 39.1151 38.5787 38.6124 38.3121C38.4448 38.2283 38.0106 38.2054 36.6395 38.2054H34.8876V34.5873C34.8876 30.7101 34.8799 30.672 34.4991 30.4664C34.2325 30.3292 34.0192 30.3292 33.7526 30.4664C33.3717 30.672 33.3641 30.7101 33.3641 34.5873V38.2054H21.329H9.29381V34.5492C9.29381 30.6339 9.29381 30.5958 8.90533 30.3902C8.63873 30.2531 8.42545 30.2531 8.15884 30.3902C7.77037 30.5958 7.77037 30.6339 7.77037 34.5492V38.2054H6.70396H5.63756L5.65279 28.1736L5.67564 18.1494L12.592 12.7488L19.5008 7.34819L26.4172 12.7488L33.326 18.1417L33.3641 21.9046C33.387 23.9765 33.4327 25.7361 33.4708 25.8123C33.5469 25.9722 33.9049 26.1703 34.1258 26.1703C34.3772 26.1703 34.6971 25.9722 34.7962 25.7513C34.8647 25.6066 34.8876 24.7001 34.8876 22.4683V19.3833L35.1161 19.5052C35.3751 19.6423 35.596 19.6499 35.8245 19.5357C36.0606 19.4138 38.7571 16.7249 38.8942 16.4812C39.0542 16.1689 39.0237 15.9175 38.7799 15.6433C38.6581 15.5062 37.5612 14.6226 36.3501 13.6781L34.1335 11.9642V8.0642C34.1258 5.20776 34.103 4.11088 34.0344 3.96616C33.8516 3.56244 33.7221 3.54721 31.1551 3.54721C28.6567 3.54721 28.451 3.57006 28.2911 3.90522C28.253 3.98139 28.2073 4.77357 28.1844 5.65717L28.1463 7.27963L27.1942 6.53315C23.4618 3.60053 19.9731 0.888809 19.8284 0.820255C19.6608 0.728848 19.3866 0.713615 19.219 0.774551ZM28.0016 9.09252C32.6557 12.7259 36.5938 15.8033 36.7614 15.9404L37.0585 16.1841L36.2586 16.9839C35.8245 17.4257 35.436 17.7914 35.4055 17.7914C35.3827 17.7914 31.8635 15.0644 27.6055 11.7357C23.3094 8.38412 19.7522 5.66479 19.6379 5.64194C19.5161 5.61147 19.3333 5.63432 19.219 5.69526C19.0971 5.7562 15.5475 8.49838 11.3276 11.7966C7.10767 15.0949 3.62662 17.7914 3.59615 17.7914C3.56568 17.7914 3.18482 17.4333 2.74302 16.9915C2.23267 16.4812 1.97369 16.1689 2.01939 16.1232C2.16412 15.9861 19.4628 2.4808 19.5008 2.4808C19.5237 2.4808 23.3475 5.45913 28.0016 9.09252ZM32.6024 7.89662C32.6024 10.1285 32.5795 10.7074 32.511 10.6617C32.4577 10.6236 31.8026 10.1285 31.0637 9.54194L29.7079 8.49076V6.7769V5.07065H31.1551H32.6024V7.89662Z" fill="#211B53"/>
<path d="M11.8143 17.4406C11.4182 17.6615 11.4335 17.3568 11.4258 25.3929C11.4258 33.5281 11.4106 33.1929 11.8448 33.391C11.9895 33.4595 13.8786 33.4824 19.5077 33.4824C27.62 33.4824 27.2848 33.4976 27.4829 33.0634C27.6124 32.774 27.6124 18.0423 27.4829 17.7529C27.2848 17.3187 27.62 17.3339 19.4848 17.3339C13.4139 17.3415 11.9591 17.3568 11.8143 17.4406ZM18.7383 21.7519V24.6464H15.8438H12.9493V21.7519V18.8574H15.8438H18.7383V21.7519ZM26.0509 21.7519V24.6464H23.1563H20.2618V21.7519V18.8574H23.1563H26.0509V21.7519ZM18.7383 29.0644V31.9589H15.8438H12.9493V29.0644V26.1699H15.8438H18.7383V29.0644ZM26.0509 29.0644V31.9589H23.1563H20.2618V29.0644V26.1699H23.1563H26.0509V29.0644Z" fill="#211B53"/>
<path d="M8.03921 27.4867C7.90972 27.5934 7.82593 27.7609 7.79546 27.9666C7.75737 28.2408 7.78784 28.317 7.98589 28.5379C8.17632 28.7512 8.26772 28.7969 8.53433 28.7969C8.80093 28.7969 8.89233 28.7512 9.08276 28.5379C9.28081 28.317 9.31128 28.2408 9.27319 27.9666C9.21987 27.5553 8.93804 27.3115 8.53433 27.3115C8.33628 27.3115 8.1687 27.3725 8.03921 27.4867Z" fill="#211B53"/>
<path d="M33.7513 27.8C33.0886 28.1656 33.3704 29.2168 34.1245 29.2168C34.513 29.2168 34.8863 28.8436 34.8863 28.4627C34.8863 27.8914 34.254 27.5182 33.7513 27.8Z" fill="#211B53"/>
</g>
<defs>
<clipPath id="clip0_4070_25843">
<rect width="39" height="39" fill="white" transform="translate(0 0.728516)"/>
</clipPath>
</defs>
</svg>
