<svg width="18" height="18" viewBox="0 0 18 18" fill="none" xmlns="http://www.w3.org/2000/svg">
<path d="M17 15.9841V7.34921C17 7.1915 16.9639 7.03595 16.8944 6.89489C16.825 6.75384 16.7242 6.63113 16.6 6.53651L9.6 1.20317C9.4269 1.07129 9.21637 1 9 1C8.78363 1 8.5731 1.07129 8.4 1.20317L1.4 6.53651C1.2758 6.63113 1.175 6.75384 1.10557 6.89489C1.03614 7.03595 1 7.1915 1 7.34921V15.9841C1 16.2536 1.10536 16.5119 1.29289 16.7025C1.48043 16.893 1.73478 17 2 17H6C6.26522 17 6.51957 16.893 6.70711 16.7025C6.89464 16.5119 7 16.2536 7 15.9841V12.9365C7 12.6671 7.10536 12.4087 7.29289 12.2182C7.48043 12.0277 7.73478 11.9206 8 11.9206H10C10.2652 11.9206 10.5196 12.0277 10.7071 12.2182C10.8946 12.4087 11 12.6671 11 12.9365V15.9841C11 16.2536 11.1054 16.5119 11.2929 16.7025C11.4804 16.893 11.7348 17 12 17H16C16.2652 17 16.5196 16.893 16.7071 16.7025C16.8946 16.5119 17 16.2536 17 15.9841Z" stroke="#363636" stroke-linecap="round" stroke-linejoin="round"/>
</svg>
