<svg width="52" height="77" viewBox="0 0 52 77" fill="none" xmlns="http://www.w3.org/2000/svg">
<path d="M22.5906 62.8844L22.5878 62.8794C22.2904 62.357 21.9936 61.8346 21.6978 61.314C19.8141 57.9985 17.9703 54.7533 16.2512 52.0151C15.17 50.2942 13.9828 48.5916 12.7307 46.796C12.1427 45.9527 11.5403 45.0889 10.9279 44.193C9.06195 41.4633 7.17583 38.535 5.72082 35.4418C2.75811 29.1433 1.51777 21.974 5.63122 14.0961C9.35688 6.96004 17.2417 3.27105 24.9228 3.01461C32.6505 2.75661 40.9022 5.94224 45.3964 13.4625L45.3965 13.4626C50.2631 21.6067 49.6247 28.8281 46.8689 35.2755C45.5326 38.402 43.7084 41.3368 41.8781 44.0754C41.223 45.0556 40.5788 45.9945 39.9494 46.9119C38.7632 48.6409 37.6295 50.2933 36.5741 52.0013L22.5906 62.8844ZM22.5906 62.8844C22.8523 63.3419 23.2102 63.8911 23.6936 64.3628C24.1764 64.8339 25.0277 65.4598 26.2337 65.52C27.4793 65.5822 28.4246 65.0107 29.0038 64.4944C29.5607 63.9982 29.975 63.39 30.2893 62.8467L30.2916 62.8428M22.5906 62.8844L30.2916 62.8428M30.2916 62.8428C30.9481 61.7038 31.5909 60.5708 32.2283 59.4475M30.2916 62.8428L32.2283 59.4475M32.2283 59.4475C33.6727 56.9015 35.089 54.4051 36.5739 52.0016L32.2283 59.4475Z" fill="white" stroke="#13B2B2" stroke-width="6"/>
<path d="M36.3308 28.1055C36.3308 27.8951 36.1603 27.7246 35.9499 27.7246H32.5371C32.3267 27.7246 32.1562 27.8951 32.1562 28.1055V30.2751C32.1562 30.4854 32.3267 30.656 32.5371 30.656H35.9499C36.1603 30.656 36.3308 30.4854 36.3308 30.2751V28.1055ZM35.5691 29.8942H32.918V28.4863H35.5691V29.8942Z" fill="#363636"/>
<path d="M35.9499 32.2871H32.5371C32.3267 32.2871 32.1562 32.4576 32.1562 32.668V34.8361C32.1562 35.0465 32.3267 35.217 32.5371 35.217H35.9499C36.1603 35.217 36.3308 35.0465 36.3308 34.8361V32.668C36.3308 32.4576 36.1603 32.2871 35.9499 32.2871ZM35.5691 34.4553H32.918V33.0488H35.5691V34.4553Z" fill="#363636"/>
<path d="M39 20.4398C39 19.7101 38.4054 19.1164 37.6744 19.1164H31.1891V17.3122C31.9065 17.2965 32.4854 16.7094 32.4854 15.9895C32.4854 15.2597 31.8907 14.666 31.1598 14.666H20.697C19.966 14.666 19.3714 15.2597 19.3714 15.9895C19.3714 16.7193 19.966 17.3129 20.697 17.3129H20.8109V19.1164H14.3256C13.5946 19.1164 13 19.7101 13 20.4398C13 21.0343 13.3946 21.5384 13.9361 21.7049V36.9566C13.9361 37.1669 14.1065 37.3375 14.3169 37.3375H37.6831C37.8935 37.3375 38.064 37.1669 38.064 36.9566V29.8097C38.064 29.5994 37.8935 29.4288 37.6831 29.4288C37.4728 29.4288 37.3023 29.5994 37.3023 29.8097V36.5757H31.1891V21.7633H37.3023V28.0457C37.3023 28.256 37.4728 28.4266 37.6831 28.4266C37.8935 28.4266 38.064 28.256 38.064 28.0457V21.7049C38.6054 21.5384 39 21.0343 39 20.4398ZM20.1331 15.9895C20.1331 15.6797 20.3861 15.4277 20.697 15.4277H31.1598C31.4707 15.4277 31.7237 15.6797 31.7237 15.9895C31.7237 16.2992 31.4708 16.5512 31.1598 16.5512H20.697C20.3861 16.5512 20.1331 16.2992 20.1331 15.9895ZM13.7617 20.4398C13.7617 20.1301 14.0147 19.8781 14.3256 19.8781H20.811V21.0016H14.3256C14.0147 21.0016 13.7617 20.7496 13.7617 20.4398ZM14.6978 21.7633H20.811V36.5757H14.6978V21.7633ZM21.5726 17.3129H30.4273V36.5757H29.1737V31.155C29.1737 30.9447 29.0033 30.7742 28.7929 30.7742H23.2071C22.9967 30.7742 22.8262 30.9447 22.8262 31.155V36.5757H21.5726V17.3129ZM26.3801 31.5359H28.4121V36.5757H26.3801V31.5359ZM25.6184 36.5757H23.5879V31.536H25.6184V36.5757ZM37.6744 21.0016H31.1891V19.878H37.6745C37.9853 19.878 38.2383 20.13 38.2383 20.4398C38.2383 20.7496 37.9853 21.0016 37.6744 21.0016Z" fill="#363636"/>
<path d="M19.4602 23.166H16.0488C15.8384 23.166 15.668 23.3365 15.668 23.5469V25.7165C15.668 25.9268 15.8384 26.0974 16.0488 26.0974H19.4602C19.6706 26.0974 19.8411 25.9268 19.8411 25.7165V23.5469C19.8411 23.3365 19.6705 23.166 19.4602 23.166ZM19.0794 25.3356H16.4297V23.9277H19.0794V25.3356Z" fill="#363636"/>
<path d="M19.4602 27.7246H16.0488C15.8384 27.7246 15.668 27.8951 15.668 28.1055V30.2751C15.668 30.4854 15.8384 30.656 16.0488 30.656H19.4602C19.6706 30.656 19.8411 30.4854 19.8411 30.2751V28.1055C19.8411 27.8951 19.6705 27.7246 19.4602 27.7246ZM19.0794 29.8942H16.4297V28.4863H19.0794V29.8942Z" fill="#363636"/>
<path d="M19.4602 32.2871H16.0488C15.8384 32.2871 15.668 32.4576 15.668 32.668V34.8361C15.668 35.0465 15.8384 35.217 16.0488 35.217H19.4602C19.6706 35.217 19.8411 35.0465 19.8411 34.8361V32.668C19.8411 32.4576 19.6705 32.2871 19.4602 32.2871ZM19.0794 34.4553H16.4297V33.0488H19.0794V34.4553Z" fill="#363636"/>
<path d="M36.3308 23.5469C36.3308 23.3365 36.1603 23.166 35.9499 23.166H32.5371C32.3267 23.166 32.1562 23.3365 32.1562 23.5469V25.7165C32.1562 25.9268 32.3267 26.0974 32.5371 26.0974H35.9499C36.1603 26.0974 36.3308 25.9268 36.3308 25.7165V23.5469ZM35.5691 25.3356H32.918V23.9277H35.5691V25.3356Z" fill="#363636"/>
<path d="M23.6199 23.3657H24.693V24.4371C24.693 24.7219 24.9248 24.9536 25.2098 24.9536H26.7868C27.0726 24.9536 27.3051 24.7219 27.3051 24.4371V23.3657H28.3782C28.664 23.3657 28.8965 23.134 28.8965 22.8492V21.2758C28.8965 20.9901 28.664 20.7577 28.3782 20.7577H27.3051V19.6879C27.3051 19.4022 27.0726 19.1699 26.7868 19.1699H25.2098C24.9249 19.1699 24.693 19.4023 24.693 19.6879V20.7577H23.6199C23.3341 20.7577 23.1016 20.9901 23.1016 21.2758V22.8492C23.1016 23.134 23.3341 23.3657 23.6199 23.3657ZM23.8633 21.5195H25.0739C25.2842 21.5195 25.4547 21.3489 25.4547 21.1386V19.9316H26.5434V21.1386C26.5434 21.3489 26.7138 21.5195 26.9242 21.5195H28.1348V22.604H26.9242C26.7138 22.604 26.5434 22.7745 26.5434 22.9849V24.1919H25.4547V22.9849C25.4547 22.7745 25.2842 22.604 25.0739 22.604H23.8633V21.5195Z" fill="#363636"/>
<path d="M27.6076 26.1582H24.3887C24.1783 26.1582 24.0078 26.3287 24.0078 26.5391C24.0078 26.7494 24.1783 26.9199 24.3887 26.9199H27.6076C27.818 26.9199 27.9885 26.7494 27.9885 26.5391C27.9885 26.3287 27.818 26.1582 27.6076 26.1582Z" fill="#363636"/>
<path d="M27.6076 27.9551H24.3887C24.1783 27.9551 24.0078 28.1256 24.0078 28.3359C24.0078 28.5463 24.1783 28.7168 24.3887 28.7168H27.6076C27.818 28.7168 27.9885 28.5463 27.9885 28.3359C27.9885 28.1256 27.818 27.9551 27.6076 27.9551Z" fill="#363636"/>
<circle cx="26" cy="75" r="1.5" fill="#13B2B2" stroke="#13B2B2"/>
</svg>
