<svg width="25" height="24" viewBox="0 0 25 24" fill="none" xmlns="http://www.w3.org/2000/svg">
<g clip-path="url(#clip0_935_24594)">
<path d="M22.037 13.9453C22.037 13.7512 21.8796 13.5938 21.6854 13.5938H18.5352C18.341 13.5938 18.1836 13.7512 18.1836 13.9453V15.948C18.1836 16.1422 18.341 16.2996 18.5352 16.2996H21.6854C21.8796 16.2996 22.037 16.1422 22.037 15.948V13.9453ZM21.3339 15.5965H18.8867V14.2969H21.3339V15.5965Z" fill="black"/>
<path d="M21.6854 17.8047H18.5352C18.341 17.8047 18.1836 17.9621 18.1836 18.1562V20.1576C18.1836 20.3518 18.341 20.5092 18.5352 20.5092H21.6854C21.8796 20.5092 22.037 20.3518 22.037 20.1576V18.1562C22.037 17.9621 21.8796 17.8047 21.6854 17.8047ZM21.3339 19.8061H18.8867V18.5078H21.3339V19.8061Z" fill="black"/>
<path d="M24.5 6.86875C24.5 6.19511 23.9511 5.64709 23.2764 5.64709H17.2899V3.98167C17.9522 3.96723 18.4865 3.42527 18.4865 2.76072C18.4865 2.08708 17.9376 1.53906 17.2629 1.53906H7.60489C6.93017 1.53906 6.38127 2.08708 6.38127 2.76072C6.38127 3.43436 6.93017 3.98237 7.60489 3.98237H7.71008V5.64709H1.72362C1.04891 5.64709 0.5 6.19511 0.5 6.86875C0.5 7.41751 0.864266 7.8828 1.36405 8.0365V22.115C1.36405 22.3091 1.52141 22.4665 1.71561 22.4665H23.2844C23.4786 22.4665 23.636 22.3091 23.636 22.115V15.5178C23.636 15.3237 23.4786 15.1663 23.2844 15.1663C23.0902 15.1663 22.9329 15.3237 22.9329 15.5178V21.7634H17.2899V8.09041H22.9329V13.8895C22.9329 14.0837 23.0902 14.2411 23.2844 14.2411C23.4786 14.2411 23.636 14.0837 23.636 13.8895V8.0365C24.1357 7.8828 24.5 7.41747 24.5 6.86875ZM7.08444 2.76072C7.08444 2.47478 7.31792 2.24219 7.60494 2.24219H17.2629C17.5499 2.24219 17.7834 2.47478 17.7834 2.76072C17.7834 3.04666 17.5499 3.27925 17.2629 3.27925H7.60489C7.31792 3.27925 7.08444 3.04666 7.08444 2.76072ZM1.20312 6.86875C1.20312 6.58281 1.43661 6.35022 1.72362 6.35022H7.71012V7.38733H1.72362C1.43661 7.38728 1.20312 7.15469 1.20312 6.86875ZM2.06717 8.09041H7.71012V21.7634H2.06717V8.09041ZM8.4132 3.98237H16.5868V21.7634H15.4296V16.7597C15.4296 16.5655 15.2722 16.4081 15.078 16.4081H9.92192C9.72772 16.4081 9.57036 16.5655 9.57036 16.7597V21.7634H8.4132V3.98237ZM12.8509 17.1113H14.7265V21.7634H12.8509V17.1113ZM12.1477 21.7634H10.2735V17.1113H12.1477V21.7634ZM23.2764 7.38728H17.2899V6.35017H23.2764C23.5634 6.35017 23.7969 6.58277 23.7969 6.8687C23.7969 7.15469 23.5634 7.38728 23.2764 7.38728Z" fill="black"/>
<path d="M6.46342 9.38281H3.31445C3.12025 9.38281 2.96289 9.54022 2.96289 9.73438V11.7371C2.96289 11.9313 3.12025 12.0887 3.31445 12.0887H6.46342C6.65762 12.0887 6.81498 11.9313 6.81498 11.7371V9.73438C6.81498 9.54022 6.65758 9.38281 6.46342 9.38281ZM6.11186 11.3855H3.66602V10.0859H6.11186V11.3855Z" fill="black"/>
<path d="M6.46342 13.5938H3.31445C3.12025 13.5938 2.96289 13.7512 2.96289 13.9453V15.948C2.96289 16.1422 3.12025 16.2996 3.31445 16.2996H6.46342C6.65762 16.2996 6.81498 16.1422 6.81498 15.948V13.9453C6.81498 13.7512 6.65758 13.5938 6.46342 13.5938ZM6.11186 15.5965H3.66602V14.2969H6.11186V15.5965Z" fill="black"/>
<path d="M6.46342 17.8047H3.31445C3.12025 17.8047 2.96289 17.9621 2.96289 18.1562V20.1576C2.96289 20.3518 3.12025 20.5092 3.31445 20.5092H6.46342C6.65762 20.5092 6.81498 20.3518 6.81498 20.1576V18.1562C6.81498 17.9621 6.65758 17.8047 6.46342 17.8047ZM6.11186 19.8061H3.66602V18.5078H6.11186V19.8061Z" fill="black"/>
<path d="M22.037 9.73438C22.037 9.54022 21.8796 9.38281 21.6854 9.38281H18.5352C18.341 9.38281 18.1836 9.54022 18.1836 9.73438V11.7371C18.1836 11.9313 18.341 12.0887 18.5352 12.0887H21.6854C21.8796 12.0887 22.037 11.9313 22.037 11.7371V9.73438ZM21.3339 11.3855H18.8867V10.0859H21.3339V11.3855Z" fill="black"/>
<path d="M10.3046 9.56836H11.2952V10.5573C11.2952 10.8202 11.5092 11.0341 11.7723 11.0341H13.2279C13.4917 11.0341 13.7063 10.8202 13.7063 10.5573V9.56836H14.6969C14.9607 9.56836 15.1754 9.35447 15.1754 9.09155V7.63917C15.1754 7.3755 14.9607 7.161 14.6969 7.161H13.7063V6.17344C13.7063 5.90977 13.4917 5.69531 13.2279 5.69531H11.7723C11.5092 5.69531 11.2952 5.90981 11.2952 6.17344V7.161H10.3046C10.0408 7.161 9.82617 7.3755 9.82617 7.63917V9.09155C9.82617 9.35447 10.0408 9.56836 10.3046 9.56836ZM10.5293 7.86412H11.6468C11.841 7.86412 11.9983 7.70672 11.9983 7.51256V6.39839H13.0032V7.51256C13.0032 7.70672 13.1606 7.86412 13.3548 7.86412H14.4722V8.86523H13.3548C13.1606 8.86523 13.0032 9.02264 13.0032 9.2168V10.331H11.9983V9.2168C11.9983 9.02264 11.841 8.86523 11.6468 8.86523H10.5293V7.86412Z" fill="black"/>
<path d="M13.985 12.1484H11.0137C10.8195 12.1484 10.6621 12.3058 10.6621 12.5C10.6621 12.6942 10.8195 12.8516 11.0137 12.8516H13.985C14.1792 12.8516 14.3366 12.6942 14.3366 12.5C14.3366 12.3058 14.1792 12.1484 13.985 12.1484Z" fill="black"/>
<path d="M13.985 13.8047H11.0137C10.8195 13.8047 10.6621 13.9621 10.6621 14.1562C10.6621 14.3504 10.8195 14.5078 11.0137 14.5078H13.985C14.1792 14.5078 14.3366 14.3504 14.3366 14.1562C14.3366 13.9621 14.1792 13.8047 13.985 13.8047Z" fill="black"/>
</g>
<defs>
<clipPath id="clip0_935_24594">
<rect width="24" height="24" fill="white" transform="translate(0.5)"/>
</clipPath>
</defs>
</svg>
