<svg width="33" height="32" viewBox="0 0 33 32" fill="none" xmlns="http://www.w3.org/2000/svg">
<path fill-rule="evenodd" clip-rule="evenodd" d="M11.25 28.4375H18.75C19.141 28.4375 19.5191 28.4279 19.8844 28.4084C19.565 27.8365 19.3234 27.2151 19.1742 26.5587C19.0351 26.5612 18.8937 26.5625 18.75 26.5625H11.25C5.4875 26.5625 3.4375 24.5125 3.4375 18.75V11.25C3.4375 5.4875 5.4875 3.4375 11.25 3.4375H18.75C24.5125 3.4375 26.5625 5.4875 26.5625 11.25V18.0223C27.217 18.0743 27.8461 18.2164 28.4375 18.4361V11.25C28.4375 4.4625 25.5375 1.5625 18.75 1.5625H11.25C4.4625 1.5625 1.5625 4.4625 1.5625 11.25V18.75C1.5625 25.5375 4.4625 28.4375 11.25 28.4375Z" fill="#026985"/>
<path d="M27.4954 30H24.5038C24.2297 30 24.0078 29.7781 24.0078 29.504V26.9917H21.4959C21.2219 26.9917 21 26.7697 21 26.4957V23.5056C21 23.2315 21.2222 23.0097 21.4959 23.0097H24.0078V20.4959C24.0078 20.2219 24.23 20 24.5038 20H27.4954C27.7695 20 27.9916 20.2219 27.9916 20.4959V23.0097H30.5038C30.7778 23.0097 31 23.2315 31 23.5056V26.496C31 26.77 30.7778 26.9919 30.5038 26.9919H27.9916V29.5044C27.9916 29.7781 27.7695 30 27.4954 30ZM25 29.0084H26.9998V26.496C26.9998 26.2219 27.2217 26 27.4958 26H30.0079V24.0015H27.4958C27.2217 24.0015 26.9998 23.7796 26.9998 23.5056V20.9917H25V23.5056C25 23.7796 24.7777 24.0015 24.504 24.0015H21.9921V26H24.504C24.7781 26 25 26.2219 25 26.496V29.0084Z" fill="#026985"/>
<path d="M20 20.25V10.25C20 9.55969 19.4409 9 18.75 9C18.0591 9 17.5 9.55969 17.5 10.25V14H12.5V10.25C12.5 9.55969 11.9403 9 11.25 9C10.5597 9 10 9.55969 10 10.25V20.25C10 20.9403 10.5597 21.5 11.25 21.5C11.9403 21.5 12.5 20.9403 12.5 20.25V16.5H17.5V20.25C17.5 20.9403 18.0591 21.5 18.75 21.5C19.4409 21.5 20 20.9403 20 20.25Z" fill="#026985"/>
</svg>
