<svg width="45" height="45" viewBox="0 0 45 45" fill="none" xmlns="http://www.w3.org/2000/svg">
<g clip-path="url(#clip0_2229_46759)">
<path d="M10.8275 15.3556H7.4164C7.07662 15.3556 6.80117 15.0802 6.80117 14.7404V11.3293C6.80117 10.9895 7.07662 10.714 7.4164 10.714H10.8275C11.1673 10.714 11.4428 10.9895 11.4428 11.3293V14.7404C11.4428 15.0803 11.1673 15.3556 10.8275 15.3556ZM10.2123 11.9446H8.03164V14.1253H10.2123V11.9446ZM10.8275 21.8524H7.4164C7.07662 21.8524 6.80117 21.577 6.80117 21.2372V17.8262C6.80117 17.4864 7.07662 17.2109 7.4164 17.2109H10.8275C11.1673 17.2109 11.4428 17.4864 11.4428 17.8262V21.2372C11.4428 21.5771 11.1673 21.8524 10.8275 21.8524ZM10.2123 18.4414H8.03164V20.622H10.2123V18.4414ZM10.8275 28.3493H7.4164C7.07662 28.3493 6.80117 28.0738 6.80117 27.7341V24.323C6.80117 23.9832 7.07662 23.7078 7.4164 23.7078H10.8275C11.1673 23.7078 11.4428 23.9832 11.4428 24.323V27.7341C11.4428 28.0738 11.1673 28.3493 10.8275 28.3493ZM10.2123 24.9383H8.03164V27.1188H10.2123V24.9383ZM10.8275 34.8462H7.4164C7.07662 34.8462 6.80117 34.5707 6.80117 34.2309V30.8198C6.80117 30.48 7.07662 30.2046 7.4164 30.2046H10.8275C11.1673 30.2046 11.4428 30.48 11.4428 30.8198V34.2309C11.4428 34.5707 11.1673 34.8462 10.8275 34.8462ZM10.2123 31.435H8.03164V33.6157H10.2123V31.435ZM37.5876 15.3556H34.1765C33.8367 15.3556 33.5612 15.0802 33.5612 14.7404V11.3293C33.5612 10.9895 33.8367 10.714 34.1765 10.714H37.5876C37.9274 10.714 38.2028 10.9895 38.2028 11.3293V14.7404C38.2028 15.0803 37.9274 15.3556 37.5876 15.3556ZM36.9724 11.9446H34.7917V14.1253H36.9724V11.9446ZM37.5876 21.8524H34.1765C33.8367 21.8524 33.5612 21.577 33.5612 21.2372V17.8262C33.5612 17.4864 33.8367 17.2109 34.1765 17.2109H37.5876C37.9274 17.2109 38.2028 17.4864 38.2028 17.8262V21.2372C38.2028 21.5771 37.9274 21.8524 37.5876 21.8524ZM36.9724 18.4414H34.7917V20.622H36.9724V18.4414ZM37.5876 28.3493H34.1765C33.8367 28.3493 33.5612 28.0738 33.5612 27.7341V24.323C33.5612 23.9832 33.8367 23.7078 34.1765 23.7078H37.5876C37.9274 23.7078 38.2028 23.9832 38.2028 24.323V27.7341C38.2028 28.0738 37.9274 28.3493 37.5876 28.3493ZM36.9724 24.9383H34.7917V27.1188H36.9724V24.9383ZM37.5876 34.8462H34.1765C33.8367 34.8462 33.5612 34.5707 33.5612 34.2309V30.8198C33.5612 30.48 33.8367 30.2046 34.1765 30.2046H37.5876C37.9274 30.2046 38.2028 30.48 38.2028 30.8198V34.2309C38.2028 34.5707 37.9274 34.8462 37.5876 34.8462ZM36.9724 31.435H34.7917V33.6157H36.9724V31.435ZM16.4792 24.2758C16.4792 23.936 16.7546 23.6606 17.0944 23.6606H27.9095C28.2493 23.6606 28.5247 23.936 28.5247 24.2758V27.7341C28.5247 28.0738 28.2493 28.3493 27.9095 28.3493H17.0943C16.7545 28.3493 16.4791 28.0738 16.4791 27.7341V24.2758H16.4792ZM17.7096 27.1188H27.2943V24.8911H17.7095V27.1188H17.7096ZM22.502 20.0947C19.0584 20.0947 16.2569 17.2932 16.2569 13.8496C16.2569 10.4061 19.0584 7.60456 22.502 7.60456C25.9455 7.60456 28.747 10.4061 28.747 13.8496C28.747 17.2932 25.9455 20.0947 22.502 20.0947ZM22.502 8.83503C19.7369 8.83503 17.4874 11.0846 17.4874 13.8496C17.4874 16.6147 19.7369 18.8642 22.502 18.8642C25.267 18.8642 27.5166 16.6147 27.5166 13.8496C27.5166 11.0846 25.267 8.83503 22.502 8.83503ZM24.3646 15.7123V17.073C24.3646 17.4128 24.0892 17.6883 23.7494 17.6883H21.2544C20.9146 17.6883 20.6392 17.4128 20.6392 17.073V15.7123H19.2785C18.9387 15.7123 18.6632 15.4368 18.6632 15.0971V12.6021C18.6632 12.2623 18.9387 11.9869 19.2785 11.9869H20.6392V10.6262C20.6392 10.2864 20.9146 10.0109 21.2544 10.0109H23.7494C24.0892 10.0109 24.3646 10.2864 24.3646 10.6262V11.9869H25.7253C26.0651 11.9869 26.3406 12.2623 26.3406 12.6021V15.0971C26.3406 15.4368 26.0651 15.7123 25.7253 15.7123H24.3646ZM25.1102 13.2173H23.7495C23.4097 13.2173 23.1342 12.9419 23.1342 12.6021V11.2414H21.8698V12.6021C21.8698 12.9419 21.5943 13.2173 21.2545 13.2173H19.8938V14.4818H21.2545C21.5943 14.4818 21.8698 14.7573 21.8698 15.0971V16.4578H23.1342V15.0971C23.1342 14.7573 23.4097 14.4818 23.7495 14.4818H25.1102V13.2173ZM2.28711 40.4826H3.42969V9.72527H3.31262C2.48882 9.72527 1.81857 9.05502 1.81857 8.23113V7.49294C1.81857 6.66905 2.48882 5.9988 3.31262 5.9988H13.5837V4.51283C12.803 4.46458 12.1823 3.81604 12.1823 3.02335V2.28516C12.1823 1.46127 12.8525 0.791016 13.6763 0.791016H31.3276C32.1514 0.791016 32.8216 1.46127 32.8216 2.28516V3.02335C32.8216 3.81595 32.2009 4.46449 31.4203 4.51283V5.9988H41.6913C42.5152 5.9988 43.1854 6.66905 43.1854 7.49294V8.23113C43.1854 9.05502 42.5152 9.72527 41.6913 9.72527H41.5742V40.4826H42.7168C43.5407 40.4826 44.2109 41.1529 44.2109 41.9767V42.7148C44.2109 43.5387 43.5407 44.209 42.7168 44.209H2.28711C1.46322 44.209 0.792969 43.5387 0.792969 42.7148V41.9767C0.792969 41.1529 1.46322 40.4826 2.28711 40.4826ZM13.5837 40.4826V37.7061H4.66016V40.4826H13.5837ZM27.2943 40.4826V31.4351H23.1172V40.4826H27.2943ZM21.8867 31.435H17.7096V40.4825H21.8867V31.435ZM17.0944 30.2046H27.9095C28.2493 30.2046 28.5247 30.48 28.5247 30.8198V40.4825H30.1897V4.51749H14.8142V40.4826H16.4791V30.8199C16.4792 30.48 16.7545 30.2046 17.0944 30.2046ZM4.66016 36.4756H13.5837V9.72519H4.66016V36.4756ZM3.31262 7.22918C3.16734 7.22918 3.04903 7.34748 3.04903 7.49285V8.23104C3.04903 8.37642 3.16734 8.49472 3.31262 8.49472H13.5837V7.22918H3.31262ZM31.5912 3.02335V2.28516C31.5912 2.13979 31.4729 2.02148 31.3276 2.02148H13.6763C13.531 2.02148 13.4127 2.13979 13.4127 2.28516V3.02335C13.4127 3.16872 13.531 3.28702 13.6763 3.28702H31.3276C31.4729 3.28702 31.5912 3.16872 31.5912 3.02335ZM41.955 8.23104V7.49285C41.955 7.34748 41.8367 7.22918 41.6913 7.22918H31.4203V8.49472H41.6913C41.8367 8.49472 41.955 8.3765 41.955 8.23104ZM31.4203 9.72519V36.4756H40.3438V9.72519H31.4203ZM40.3438 37.706H31.4203V40.4825H40.3438V37.706ZM2.02344 42.7148C2.02344 42.8602 2.14174 42.9785 2.28711 42.9785H42.7168C42.8622 42.9785 42.9805 42.8602 42.9805 42.7148V41.9767C42.9805 41.8313 42.8622 41.713 42.7168 41.713H2.28711C2.14174 41.713 2.02344 41.8313 2.02344 41.9767V42.7148Z" fill="black"/>
</g>
<defs>
<clipPath id="clip0_2229_46759">
<rect width="45" height="45" fill="white" transform="matrix(-1 0 0 1 45 0)"/>
</clipPath>
</defs>
</svg>
