<svg width="22" height="22" viewBox="0 0 22 22" fill="none" xmlns="http://www.w3.org/2000/svg">
<path d="M0.521167 21.5043H20.6224C20.7627 21.5043 20.8972 21.449 20.9964 21.3505C21.0956 21.252 21.1514 21.1184 21.1514 20.9791V8.37295C21.1514 8.23365 21.0956 8.10005 20.9964 8.00154C20.8972 7.90304 20.7627 7.8477 20.6224 7.8477H17.9775V3.12041C17.9775 2.98111 17.9218 2.84751 17.8226 2.749C17.7234 2.6505 17.5888 2.59516 17.4485 2.59516H14.8036V2.0699C14.8036 1.65199 14.6364 1.25118 14.3388 0.955671C14.0412 0.660158 13.6376 0.494141 13.2167 0.494141H7.92688C7.506 0.494141 7.10235 0.660158 6.80474 0.955671C6.50714 1.25118 6.33994 1.65199 6.33994 2.0699V2.59516H3.69504C3.55475 2.59516 3.4202 2.6505 3.321 2.749C3.2218 2.84751 3.16606 2.98111 3.16606 3.12041V7.8477H0.521167C0.380873 7.8477 0.246325 7.90304 0.147122 8.00154C0.0479192 8.10005 -0.0078125 8.23365 -0.0078125 8.37295V20.9791C-0.0078125 21.1184 0.0479192 21.252 0.147122 21.3505C0.246325 21.449 0.380873 21.5043 0.521167 21.5043ZM17.9775 8.89821H20.0934V20.4538H17.9775V8.89821ZM12.1587 20.4538H8.98484V16.777H12.1587V20.4538ZM7.3979 2.0699C7.3979 1.9306 7.45363 1.797 7.55283 1.69849C7.65204 1.59999 7.78659 1.54465 7.92688 1.54465H13.2167C13.357 1.54465 13.4915 1.59999 13.5907 1.69849C13.6899 1.797 13.7457 1.9306 13.7457 2.0699V7.32245C13.7457 7.46175 13.6899 7.59535 13.5907 7.69386C13.4915 7.79236 13.357 7.8477 13.2167 7.8477H7.92688C7.78659 7.8477 7.65204 7.79236 7.55283 7.69386C7.45363 7.59535 7.3979 7.46175 7.3979 7.32245V2.0699ZM4.22402 3.64567H6.33994V7.32245C6.33994 7.74036 6.50714 8.14117 6.80474 8.43668C7.10235 8.73219 7.506 8.89821 7.92688 8.89821H13.2167C13.6376 8.89821 14.0412 8.73219 14.3388 8.43668C14.6364 8.14117 14.8036 7.74036 14.8036 7.32245V3.64567H16.9195V20.4538H13.2167V16.2518C13.2167 16.1125 13.1609 15.9789 13.0617 15.8804C12.9625 15.7819 12.828 15.7265 12.6877 15.7265H8.45586C8.31557 15.7265 8.18102 15.7819 8.08181 15.8804C7.98261 15.9789 7.92688 16.1125 7.92688 16.2518V20.4538H4.22402V3.64567ZM1.05015 8.89821H3.16606V20.4538H1.05015V8.89821Z" fill="#363636"/>
<path d="M8.98601 5.22197H10.044V6.27248C10.044 6.41179 10.0997 6.54539 10.1989 6.64389C10.2981 6.7424 10.4327 6.79774 10.5729 6.79774C10.7132 6.79774 10.8478 6.7424 10.947 6.64389C11.0462 6.54539 11.1019 6.41179 11.1019 6.27248V5.22197H12.1599C12.3002 5.22197 12.4347 5.16663 12.5339 5.06813C12.6331 4.96963 12.6889 4.83603 12.6889 4.69672C12.6889 4.55741 12.6331 4.42381 12.5339 4.32531C12.4347 4.2268 12.3002 4.17147 12.1599 4.17147H11.1019V3.12096C11.1019 2.98165 11.0462 2.84805 10.947 2.74955C10.8478 2.65104 10.7132 2.5957 10.5729 2.5957C10.4327 2.5957 10.2981 2.65104 10.1989 2.74955C10.0997 2.84805 10.044 2.98165 10.044 3.12096V4.17147H8.98601C8.84572 4.17147 8.71117 4.2268 8.61197 4.32531C8.51276 4.42381 8.45703 4.55741 8.45703 4.69672C8.45703 4.83603 8.51276 4.96963 8.61197 5.06813C8.71117 5.16663 8.84572 5.22197 8.98601 5.22197Z" fill="#363636"/>
<path d="M6.86882 11.5251H7.92678C8.06708 11.5251 8.20162 11.4698 8.30083 11.3713C8.40003 11.2728 8.45576 11.1392 8.45576 10.9999C8.45576 10.8606 8.40003 10.727 8.30083 10.6285C8.20162 10.5299 8.06708 10.4746 7.92678 10.4746H6.86882C6.72853 10.4746 6.59398 10.5299 6.49478 10.6285C6.39557 10.727 6.33984 10.8606 6.33984 10.9999C6.33984 11.1392 6.39557 11.2728 6.49478 11.3713C6.59398 11.4698 6.72853 11.5251 6.86882 11.5251Z" fill="#363636"/>
<path d="M8.45576 13.6249C8.45576 13.4856 8.40003 13.352 8.30083 13.2535C8.20162 13.1549 8.06708 13.0996 7.92678 13.0996H6.86882C6.72853 13.0996 6.59398 13.1549 6.49478 13.2535C6.39557 13.352 6.33984 13.4856 6.33984 13.6249C6.33984 13.7642 6.39557 13.8978 6.49478 13.9963C6.59398 14.0948 6.72853 14.1501 6.86882 14.1501H7.92678C8.06708 14.1501 8.20162 14.0948 8.30083 13.9963C8.40003 13.8978 8.45576 13.7642 8.45576 13.6249Z" fill="#363636"/>
<path d="M10.0446 11.5251H11.1026C11.2429 11.5251 11.3774 11.4698 11.4766 11.3713C11.5758 11.2728 11.6315 11.1392 11.6315 10.9999C11.6315 10.8606 11.5758 10.727 11.4766 10.6285C11.3774 10.5299 11.2429 10.4746 11.1026 10.4746H10.0446C9.90431 10.4746 9.76976 10.5299 9.67056 10.6285C9.57136 10.727 9.51562 10.8606 9.51562 10.9999C9.51562 11.1392 9.57136 11.2728 9.67056 11.3713C9.76976 11.4698 9.90431 11.5251 10.0446 11.5251Z" fill="#363636"/>
<path d="M10.0446 14.1501H11.1026C11.2429 14.1501 11.3774 14.0948 11.4766 13.9963C11.5758 13.8978 11.6315 13.7642 11.6315 13.6249C11.6315 13.4856 11.5758 13.352 11.4766 13.2535C11.3774 13.1549 11.2429 13.0996 11.1026 13.0996H10.0446C9.90431 13.0996 9.76976 13.1549 9.67056 13.2535C9.57136 13.352 9.51562 13.4856 9.51562 13.6249C9.51562 13.7642 9.57136 13.8978 9.67056 13.9963C9.76976 14.0948 9.90431 14.1501 10.0446 14.1501Z" fill="#363636"/>
<path d="M13.2165 11.5251H14.2744C14.4147 11.5251 14.5493 11.4698 14.6485 11.3713C14.7477 11.2728 14.8034 11.1392 14.8034 10.9999C14.8034 10.8606 14.7477 10.727 14.6485 10.6285C14.5493 10.5299 14.4147 10.4746 14.2744 10.4746H13.2165C13.0762 10.4746 12.9416 10.5299 12.8424 10.6285C12.7432 10.727 12.6875 10.8606 12.6875 10.9999C12.6875 11.1392 12.7432 11.2728 12.8424 11.3713C12.9416 11.4698 13.0762 11.5251 13.2165 11.5251Z" fill="#363636"/>
<path d="M13.2165 14.1501H14.2744C14.4147 14.1501 14.5493 14.0948 14.6485 13.9963C14.7477 13.8978 14.8034 13.7642 14.8034 13.6249C14.8034 13.4856 14.7477 13.352 14.6485 13.2535C14.5493 13.1549 14.4147 13.0996 14.2744 13.0996H13.2165C13.0762 13.0996 12.9416 13.1549 12.8424 13.2535C12.7432 13.352 12.6875 13.4856 12.6875 13.6249C12.6875 13.7642 12.7432 13.8978 12.8424 13.9963C12.9416 14.0948 13.0762 14.1501 13.2165 14.1501Z" fill="#363636"/>
</svg>
