<svg width="28" height="28" viewBox="0 0 28 28" fill="none" xmlns="http://www.w3.org/2000/svg">
<path d="M2.21076 8.75463C2.29597 8.96245 2.50876 9.10009 2.73336 9.09227C2.95976 9.0844 3.15916 8.93445 3.23326 8.72133C3.30709 8.50914 3.23523 8.26524 3.06247 8.1231C2.88129 7.97402 2.61671 7.95877 2.41951 8.08597C2.20048 8.22712 2.11047 8.5139 2.21076 8.75463Z" fill="#026985" stroke="#026985" stroke-width="0.5"/>
<path fill-rule="evenodd" clip-rule="evenodd" d="M13.9994 24.9416C13.6487 24.9416 13.3106 24.8147 13.0472 24.5841C12.0521 23.7148 11.0928 22.8979 10.2464 22.1773L10.242 22.1735C7.76049 20.0607 5.6176 18.2361 4.12661 16.4387C2.45991 14.4293 1.68359 12.5241 1.68359 10.4428C1.68359 10.4274 1.68363 10.4119 1.68369 10.3964C2.10009 10.7448 2.62524 10.9005 3.13895 10.8609C3.23601 12.4458 3.89461 13.9 5.23743 15.5188C6.64827 17.2198 8.74666 19.0065 11.1763 21.0752L11.1777 21.0764L11.1822 21.0802C12.0318 21.8036 12.9949 22.6238 13.9973 23.4995C14.2602 23.2708 14.52 23.0459 14.7757 22.8255C14.9934 23.2647 15.2528 23.6796 15.5488 24.0649C15.3516 24.2357 15.1522 24.409 14.9514 24.5845C14.6881 24.8147 14.3499 24.9416 13.9994 24.9416ZM4.0376 7.0442C4.22957 6.72928 4.45029 6.4354 4.69827 6.16665C5.69709 5.08442 7.07006 4.48847 8.56462 4.48847C9.65928 4.48847 10.6645 4.8362 11.552 5.52189C12.3432 6.13323 12.8942 6.90604 13.2171 7.44678C13.3832 7.72484 13.6756 7.89082 13.9994 7.89082C14.3232 7.89082 14.6156 7.72484 14.7817 7.44678C15.1048 6.90604 15.6557 6.13323 16.4467 5.52189C17.3343 4.8362 18.3395 4.48847 19.4343 4.48847C20.9287 4.48847 22.3019 5.08442 23.3005 6.16665C24.3142 7.26522 24.8725 8.78379 24.8725 10.4428C24.8725 11.194 24.7526 11.9111 24.5003 12.6242C24.9487 12.8201 25.3742 13.0586 25.7717 13.3346C26.1382 12.3905 26.3152 11.4367 26.3152 10.4428C26.3152 8.42067 25.6214 6.55512 24.3613 5.18956C23.0863 3.80785 21.3365 3.04688 19.4343 3.04688C18.0125 3.04688 16.7104 3.49599 15.5642 4.38164C14.9856 4.82869 14.4615 5.37581 13.9994 6.014C13.5375 5.37581 13.0132 4.82869 12.4347 4.38164C11.2886 3.49599 9.98645 3.04688 8.56462 3.04688C6.66226 3.04688 4.77506 3.61439 3.5 4.99609C3.06013 5.47281 2.706 6.03403 2.43137 6.6487C2.98617 6.54886 3.57361 6.68176 4.0376 7.0442Z" fill="#026985"/>
<path d="M13.0472 24.5841L13.146 24.4712L13.1459 24.4712L13.0472 24.5841ZM10.2464 22.1773L10.148 22.2905L10.1491 22.2915L10.2464 22.1773ZM10.242 22.1735L10.3404 22.0603L10.3393 22.0593L10.242 22.1735ZM4.12661 16.4387L4.01115 16.5344L4.01116 16.5344L4.12661 16.4387ZM1.68369 10.3964L1.77995 10.2814L1.53504 10.0765L1.53369 10.3958L1.68369 10.3964ZM3.13895 10.8609L3.28867 10.8517L3.27935 10.6996L3.12742 10.7113L3.13895 10.8609ZM5.23743 15.5188L5.35288 15.4231L5.35287 15.4231L5.23743 15.5188ZM11.1763 21.0752L11.2737 20.9612L11.2735 20.961L11.1763 21.0752ZM11.1777 21.0764L11.0803 21.1905L11.0817 21.1917L11.1777 21.0764ZM11.1822 21.0802L11.2795 20.966L11.2782 20.9649L11.1822 21.0802ZM13.9973 23.4995L13.8986 23.6124L13.9971 23.6985L14.0958 23.6126L13.9973 23.4995ZM14.7757 22.8255L14.9101 22.7589L14.8243 22.5856L14.6778 22.7119L14.7757 22.8255ZM15.5488 24.0649L15.647 24.1783L15.7539 24.0857L15.6677 23.9736L15.5488 24.0649ZM14.9514 24.5845L14.8527 24.4715L14.8527 24.4716L14.9514 24.5845ZM4.0376 7.0442L3.94526 7.16241L4.07801 7.26611L4.16568 7.12228L4.0376 7.0442ZM4.69827 6.16665L4.58804 6.06492L4.58803 6.06493L4.69827 6.16665ZM11.552 5.52189L11.6438 5.4032L11.6438 5.40319L11.552 5.52189ZM13.2171 7.44678L13.0883 7.52367L13.0883 7.52371L13.2171 7.44678ZM14.7817 7.44678L14.9105 7.52371L14.9105 7.5237L14.7817 7.44678ZM16.4467 5.52189L16.355 5.40319L16.355 5.40321L16.4467 5.52189ZM23.3005 6.16665L23.4107 6.06493L23.4107 6.06493L23.3005 6.16665ZM24.5003 12.6242L24.3589 12.5742L24.3123 12.7058L24.4402 12.7616L24.5003 12.6242ZM25.7717 13.3346L25.6862 13.4578L25.8426 13.5664L25.9116 13.3889L25.7717 13.3346ZM24.3613 5.18956L24.4716 5.08784L24.4716 5.08783L24.3613 5.18956ZM15.5642 4.38164L15.6559 4.50034L15.6559 4.50033L15.5642 4.38164ZM13.9994 6.014L13.8779 6.10195L13.9994 6.2698L14.1209 6.10197L13.9994 6.014ZM12.4347 4.38164L12.5265 4.26296L12.5264 4.26295L12.4347 4.38164ZM3.5 4.99609L3.38977 4.89437L3.38976 4.89437L3.5 4.99609ZM2.43137 6.6487L2.29442 6.58751L2.17867 6.84659L2.45794 6.79633L2.43137 6.6487ZM12.9484 24.697C13.2393 24.9515 13.6124 25.0916 13.9994 25.0916V24.7916C13.685 24.7916 13.382 24.6778 13.146 24.4712L12.9484 24.697ZM10.1491 22.2915C10.9956 23.0121 11.9542 23.8285 12.9485 24.6971L13.1459 24.4712C12.15 23.6011 11.1899 22.7836 10.3436 22.0631L10.1491 22.2915ZM10.1436 22.2867L10.148 22.2905L10.3447 22.064L10.3404 22.0603L10.1436 22.2867ZM4.01116 16.5344C5.51226 18.344 7.66664 20.1778 10.1448 22.2877L10.3393 22.0593C7.85435 19.9436 5.72293 18.1281 4.24206 16.3429L4.01116 16.5344ZM1.53359 10.4428C1.53359 12.5672 2.32796 14.5052 4.01115 16.5344L4.24206 16.3429C2.59185 14.3534 1.83359 12.481 1.83359 10.4428H1.53359ZM1.53369 10.3958C1.53363 10.4115 1.53359 10.4271 1.53359 10.4428H1.83359C1.83359 10.4276 1.83363 10.4123 1.83369 10.3971L1.53369 10.3958ZM3.12742 10.7113C2.65137 10.748 2.16524 10.6038 1.77995 10.2814L1.58744 10.5115C2.03494 10.8859 2.59912 11.0529 3.15047 11.0104L3.12742 10.7113ZM5.35287 15.4231C4.02363 13.8206 3.38322 12.3957 3.28867 10.8517L2.98923 10.87C3.0888 12.4959 3.76559 13.9795 5.12198 15.6146L5.35287 15.4231ZM11.2735 20.961C8.84028 18.8892 6.75356 17.1118 5.35288 15.4231L5.12197 15.6146C6.54299 17.3278 8.65304 19.1238 11.0791 21.1895L11.2735 20.961ZM11.2751 20.9624L11.2737 20.9612L11.0789 21.1893L11.0803 21.1905L11.2751 20.9624ZM11.2782 20.9649L11.2737 20.9612L11.0817 21.1917L11.0863 21.1955L11.2782 20.9649ZM14.096 23.3865C13.0928 22.5101 12.129 21.6894 11.2795 20.966L11.085 21.1944C11.9346 21.9179 12.8971 22.7374 13.8986 23.6124L14.096 23.3865ZM14.6778 22.7119C14.422 22.9324 14.1619 23.1574 13.8989 23.3863L14.0958 23.6126C14.3584 23.3841 14.6181 23.1593 14.8736 22.9391L14.6778 22.7119ZM15.6677 23.9736C15.3776 23.5959 15.1234 23.1893 14.9101 22.7589L14.6413 22.8921C14.8633 23.3402 15.1279 23.7633 15.4298 24.1563L15.6677 23.9736ZM15.0501 24.6975C15.2507 24.5222 15.4499 24.349 15.647 24.1783L15.4506 23.9516C15.2532 24.1225 15.0537 24.2959 14.8527 24.4715L15.0501 24.6975ZM13.9994 25.0916C14.3861 25.0916 14.7595 24.9516 15.0501 24.6974L14.8527 24.4716C14.6168 24.6778 14.3136 24.7916 13.9994 24.7916V25.0916ZM4.16568 7.12228C4.35263 6.81558 4.56742 6.52965 4.80851 6.26837L4.58803 6.06493C4.33317 6.34114 4.1065 6.64297 3.90952 6.96613L4.16568 7.12228ZM4.8085 6.26838C5.77844 5.21743 7.11122 4.63847 8.56462 4.63847V4.33847C7.0289 4.33847 5.61573 4.9514 4.58804 6.06492L4.8085 6.26838ZM8.56462 4.63847C9.62522 4.63847 10.5983 4.97465 11.4603 5.64059L11.6438 5.40319C10.7306 4.69775 9.69334 4.33847 8.56462 4.33847V4.63847ZM11.4603 5.64058C12.2311 6.23619 12.7707 6.99178 13.0883 7.52367L13.3458 7.36988C13.0177 6.82029 12.4553 6.03027 11.6438 5.4032L11.4603 5.64058ZM13.0883 7.52371C13.2815 7.84707 13.6228 8.04082 13.9994 8.04082V7.74082C13.7284 7.74082 13.4849 7.60262 13.3458 7.36985L13.0883 7.52371ZM13.9994 8.04082C14.376 8.04082 14.7173 7.84707 14.9105 7.52371L14.6529 7.36985C14.5139 7.60262 14.2704 7.74082 13.9994 7.74082V8.04082ZM14.9105 7.5237C15.2283 6.99178 15.7678 6.23618 16.5384 5.64057L16.355 5.40321C15.5437 6.03027 14.9812 6.82029 14.6529 7.36985L14.9105 7.5237ZM16.5384 5.64059C17.4004 4.97466 18.3735 4.63847 19.4343 4.63847V4.33847C18.3054 4.33847 17.2681 4.69774 16.355 5.40319L16.5384 5.64059ZM19.4343 4.63847C20.8875 4.63847 22.2205 5.21743 23.1903 6.26837L23.4107 6.06493C22.3832 4.9514 20.9699 4.33847 19.4343 4.33847V4.63847ZM23.1903 6.26837C24.1755 7.33611 24.7225 8.81702 24.7225 10.4428H25.0225C25.0225 8.75057 24.4528 7.19432 23.4107 6.06493L23.1903 6.26837ZM24.7225 10.4428C24.7225 11.1773 24.6053 11.8775 24.3589 12.5742L24.6417 12.6742C24.8998 11.9447 25.0225 11.2107 25.0225 10.4428H24.7225ZM24.4402 12.7616C24.8796 12.9536 25.2966 13.1873 25.6862 13.4578L25.8573 13.2114C25.4518 12.9299 25.0177 12.6866 24.5603 12.4867L24.4402 12.7616ZM25.9116 13.3889C26.2847 12.4275 26.4652 11.4553 26.4652 10.4428H26.1652C26.1652 11.4181 25.9916 12.3535 25.6319 13.2803L25.9116 13.3889ZM26.4652 10.4428C26.4652 8.3866 25.7595 6.48366 24.4716 5.08784L24.2511 5.29128C25.4832 6.62658 26.1652 8.45474 26.1652 10.4428H26.4652ZM24.4716 5.08783C23.1677 3.67495 21.3778 2.89687 19.4343 2.89687V3.19688C21.2952 3.19688 23.0048 3.94076 24.2511 5.29129L24.4716 5.08783ZM19.4343 2.89687C17.9786 2.89687 16.6444 3.35741 15.4725 4.26295L15.6559 4.50033C16.7764 3.63457 18.0464 3.19688 19.4343 3.19688V2.89687ZM15.4725 4.26294C14.8817 4.71944 14.3477 5.27717 13.8779 5.92603L14.1209 6.10197C14.5753 5.47446 15.0895 4.93794 15.6559 4.50034L15.4725 4.26294ZM14.1209 5.92605C13.6512 5.27716 13.1171 4.71944 12.5265 4.26296L12.343 4.50033C12.9092 4.93794 13.4237 5.47447 13.8779 6.10195L14.1209 5.92605ZM12.5264 4.26295C11.3546 3.35741 10.0203 2.89687 8.56462 2.89687V3.19688C9.95259 3.19688 11.2226 3.63457 12.343 4.50033L12.5264 4.26295ZM8.56462 2.89687C6.63573 2.89687 4.70218 3.47219 3.38977 4.89437L3.61023 5.09782C4.84795 3.75659 6.6888 3.19688 8.56462 3.19688V2.89687ZM3.38976 4.89437C2.93731 5.38471 2.57471 5.96018 2.29442 6.58751L2.56832 6.70989C2.8373 6.10789 3.18294 5.5609 3.61024 5.09781L3.38976 4.89437ZM2.45794 6.79633C2.97206 6.70381 3.51597 6.82708 3.94526 7.16241L4.12994 6.92599C3.63125 6.53644 3.00028 6.39391 2.40481 6.50107L2.45794 6.79633Z" fill="#026985"/>
<path d="M21.125 23.5C21.028 23.5017 20.9338 23.4577 20.8597 23.3761C20.7857 23.2945 20.7369 23.1808 20.7222 23.056L19.5023 13.5325L18.6164 21.2159C18.6024 21.337 18.5568 21.448 18.4872 21.5303C18.4175 21.6126 18.3282 21.6611 18.2343 21.6676C18.1403 21.6741 18.0476 21.6382 17.9716 21.566C17.8957 21.4937 17.8413 21.3896 17.8175 21.2712L16.9912 17.1502L16.4655 18.6912C16.4333 18.7849 16.3809 18.8644 16.3146 18.9202C16.2484 18.976 16.1712 19.0056 16.0923 19.0055H15.2042C15.15 19.0055 15.0981 18.9775 15.0598 18.9277C15.0215 18.8778 15 18.8103 15 18.7398C15 18.6693 15.0215 18.6018 15.0598 18.5519C15.0981 18.5021 15.15 18.4741 15.2042 18.4741H16.0923L16.6182 16.9332C16.6526 16.8325 16.7102 16.7482 16.783 16.692C16.8558 16.6357 16.9402 16.6103 17.0246 16.6193C17.109 16.6283 17.1891 16.6711 17.254 16.742C17.3188 16.8128 17.3651 16.9081 17.3865 17.0148L18.2126 21.1357L19.0984 13.4528C19.1128 13.3276 19.1611 13.2132 19.2345 13.1302C19.3079 13.0472 19.4017 13.001 19.499 13C19.5962 12.999 19.6906 13.0432 19.7651 13.1246C19.8395 13.2061 19.8892 13.3194 19.9051 13.4443L21.125 22.9686L22.1816 14.719C22.1971 14.5975 22.2446 14.4867 22.316 14.4058C22.3874 14.3248 22.4782 14.2786 22.5728 14.2751C22.6675 14.2716 22.7601 14.3111 22.8349 14.3867C22.9097 14.4623 22.9619 14.5693 22.9827 14.6895L24.0093 20.6057L24.6246 17.8835C24.6491 17.775 24.6996 17.6794 24.7688 17.6108C24.8379 17.5422 24.9221 17.5041 25.009 17.5021C25.0959 17.5001 25.1811 17.5342 25.2521 17.5995C25.3231 17.6648 25.3762 17.7579 25.4037 17.8652L25.8208 19.4935L25.9889 18.8373C26.016 18.7315 26.068 18.6395 26.1376 18.5743C26.2071 18.5091 26.2907 18.4741 26.3764 18.4741H27.0458C27.1 18.4741 27.1519 18.5021 27.1902 18.5519C27.2285 18.6018 27.25 18.6693 27.25 18.7398C27.25 18.8103 27.2285 18.8778 27.1902 18.9277C27.1519 18.9775 27.1 19.0055 27.0458 19.0055H26.3764L26.2088 19.6617C26.1816 19.7674 26.1296 19.8594 26.0601 19.9245C25.9906 19.9897 25.9071 20.0247 25.8214 20.0247C25.7358 20.0247 25.6523 19.9897 25.5828 19.9245C25.5133 19.8594 25.4613 19.7674 25.4341 19.6617L25.0164 18.0334L24.4011 20.7558C24.3755 20.8686 24.3219 20.9673 24.2486 21.0362C24.1754 21.1052 24.0866 21.1405 23.9962 21.1367C23.9056 21.1341 23.8183 21.0919 23.7484 21.0168C23.6785 20.9417 23.63 20.8381 23.6109 20.7228L22.5844 14.8078L21.5278 23.056C21.5131 23.1808 21.4643 23.2945 21.3903 23.3761C21.3162 23.4577 21.222 23.5017 21.125 23.5Z" fill="#026985" stroke="#026985" stroke-width="0.5"/>
</svg>
