<svg width="22" height="22" viewBox="0 0 22 22" fill="none" xmlns="http://www.w3.org/2000/svg">
<g clip-path="url(#clip0_123_17355)">
<path d="M1.10677 10.9648H9.44002C9.54436 10.9648 9.64302 10.9135 9.70636 10.8262C9.76902 10.7385 9.78935 10.6253 9.76069 10.5198L9.40936 9.23191C9.18436 8.40684 8.40003 7.86716 7.59137 7.97964L1.06377 8.87213C0.89777 8.89448 0.773438 9.04294 0.773438 9.21829V10.6155C0.773438 10.8087 0.922436 10.9648 1.10677 10.9648ZM1.4401 9.52499L7.67771 8.67232C8.16537 8.6056 8.6337 8.92906 8.76836 9.42369L8.99803 10.2662H1.4401V9.52499Z" fill="#363636"/>
<path d="M12.7734 8.96484C12.7734 7.86204 12.1005 6.96484 11.2734 6.96484C10.4463 6.96484 9.77344 7.86204 9.77344 8.96484C9.77344 10.0676 10.4463 10.9648 11.2734 10.9648C12.1005 10.9648 12.7734 10.0676 12.7734 8.96484ZM10.3734 8.96484C10.3734 8.30324 10.7772 7.76484 11.2734 7.76484C11.7696 7.76484 12.1734 8.30324 12.1734 8.96484C12.1734 9.62644 11.7696 10.1648 11.2734 10.1648C10.7772 10.1648 10.3734 9.62644 10.3734 8.96484Z" fill="#363636"/>
<path d="M21.7734 9.35938C21.7734 4.65505 17.9465 0.828125 13.2422 0.828125C10.1272 0.828125 7.26322 2.52371 5.765 5.25355C5.73551 5.30277 5.71828 5.36019 5.71828 5.42188C5.71828 5.58233 5.83304 5.71538 5.98501 5.74409C6.00588 5.74815 6.02692 5.75012 6.04784 5.75H9.28516C9.34107 5.75115 9.39705 5.73811 9.44755 5.71071C9.44964 5.7096 9.45156 5.70825 9.45362 5.7071C9.46051 5.70316 9.4674 5.69918 9.47408 5.69467C9.482 5.68938 9.48959 5.68364 9.49701 5.67769C9.49767 5.67716 9.4984 5.6767 9.4991 5.67613C9.50845 5.6685 9.51731 5.66034 9.52576 5.65173C10.5181 4.65702 11.838 4.10938 13.2422 4.10938C16.1369 4.10938 18.4922 6.46466 18.4922 9.35938C18.4922 12.2541 16.1369 14.6094 13.2422 14.6094C11.9531 14.6094 10.7243 14.1381 9.77272 13.2969H13.4883C13.6697 13.2969 13.8164 13.1502 13.8164 12.9688C13.8164 12.7873 13.6697 12.6406 13.4883 12.6406H8.99002C8.98928 12.6406 8.98854 12.6406 8.98776 12.6406H5.88932C5.88681 12.6405 5.88427 12.6407 5.88173 12.6406H1.10156C0.920109 12.6406 0.773438 12.7873 0.773438 12.9688C0.773438 13.1502 0.920109 13.2969 1.10156 13.2969H5.67398C5.97623 13.8789 6.33749 14.4155 6.74876 14.9005L7.668 20.8933C7.69228 21.0538 7.83009 21.1719 7.99219 21.1719H18.4922C18.6543 21.1719 18.7921 21.0538 18.8164 20.8936L19.7384 14.883C21.0067 13.3935 21.7734 11.4645 21.7734 9.35938ZM8.84379 13.2969C9.96274 14.5503 11.5569 15.2656 13.2422 15.2656C16.4988 15.2656 19.1484 12.616 19.1484 9.35938C19.1484 6.10273 16.4988 3.45312 13.2422 3.45312C11.7076 3.45312 10.2625 4.03469 9.15777 5.09375H6.62313C8.06536 2.85421 10.5525 1.48438 13.2422 1.48438C17.5843 1.48438 21.1172 5.0173 21.1172 9.35938C21.1172 13.7015 17.5843 17.2344 13.2422 17.2344C10.9323 17.2344 8.80856 16.2521 7.33922 14.5797C7.31949 14.5465 7.2941 14.5175 7.26469 14.4935C6.95101 14.1258 6.66841 13.726 6.42178 13.2969H8.84379ZM18.2103 20.5156H8.27372L7.53745 15.714C9.07098 17.0971 11.0814 17.8906 13.2422 17.8906C15.4351 17.8906 17.4371 17.0588 18.9499 15.6945L18.2103 20.5156Z" fill="#363636"/>
<path d="M13.0092 19.2981C12.9498 19.3601 12.9141 19.4457 12.9141 19.5311C12.9141 19.6164 12.9498 19.7017 13.0092 19.764C13.0712 19.8231 13.1569 19.8592 13.2422 19.8592C13.3275 19.8592 13.4128 19.8231 13.4752 19.764C13.5342 19.7017 13.5703 19.6164 13.5703 19.5311C13.5703 19.4457 13.5342 19.3601 13.4752 19.2981C13.3537 19.1767 13.1306 19.1767 13.0092 19.2981Z" fill="#363636"/>
<path d="M14.3217 19.2981C14.2623 19.3601 14.2266 19.4457 14.2266 19.5311C14.2266 19.6164 14.2623 19.7017 14.3217 19.764C14.3837 19.8231 14.4694 19.8592 14.5547 19.8592C14.64 19.8592 14.7253 19.8231 14.7877 19.764C14.8467 19.7017 14.8828 19.6164 14.8828 19.5311C14.8828 19.4457 14.8467 19.3601 14.7877 19.2981C14.6662 19.1767 14.4431 19.1767 14.3217 19.2981Z" fill="#363636"/>
<path d="M11.6967 19.2981C11.6373 19.3601 11.6016 19.4457 11.6016 19.5311C11.6016 19.6164 11.6373 19.7017 11.6967 19.764C11.7587 19.8231 11.8444 19.8592 11.9297 19.8592C12.015 19.8592 12.1003 19.8231 12.1627 19.764C12.2217 19.7017 12.2578 19.6164 12.2578 19.5311C12.2578 19.4457 12.2217 19.3601 12.1627 19.2981C12.0412 19.1767 11.8181 19.1767 11.6967 19.2981Z" fill="#363636"/>
</g>
<defs>
<clipPath id="clip0_123_17355">
<rect width="21" height="21" fill="white" transform="translate(0.773438 0.5)"/>
</clipPath>
</defs>
</svg>
