<svg width="24" height="20" viewBox="0 0 24 20" fill="none" xmlns="http://www.w3.org/2000/svg">
<path d="M11.8077 18.9999C11.6286 19.0028 11.4547 18.9274 11.318 18.7875C11.1813 18.6477 11.0911 18.4528 11.064 18.2389L8.81191 1.91287L7.17644 15.0844C7.15065 15.2919 7.06636 15.4823 6.93782 15.6234C6.80928 15.7645 6.64438 15.8476 6.47097 15.8588C6.29756 15.8699 6.12629 15.8083 5.9861 15.6845C5.8459 15.5607 5.74539 15.3822 5.70154 15.1792L4.17613 8.11471L3.20555 10.7563C3.14606 10.9169 3.04932 11.0533 2.92705 11.1489C2.80477 11.2446 2.66219 11.2953 2.51654 11.2951H0.876923C0.776957 11.2951 0.681085 11.2471 0.610398 11.1617C0.539711 11.0763 0.5 10.9604 0.5 10.8397C0.5 10.7189 0.539711 10.603 0.610398 10.5176C0.681085 10.4322 0.776957 10.3842 0.876923 10.3842H2.51654L3.48749 7.74261C3.55095 7.57 3.65723 7.4255 3.79164 7.32909C3.92605 7.23269 4.08194 7.18915 4.23772 7.20451C4.39351 7.21987 4.5415 7.29336 4.6612 7.41481C4.7809 7.53627 4.86639 7.69968 4.90585 7.88243L6.43088 14.9469L8.06635 1.77623C8.0929 1.56164 8.18197 1.36554 8.31753 1.22324C8.4531 1.08094 8.62625 1.00179 8.80581 1.00003C8.98538 0.998273 9.15956 1.07403 9.29702 1.21365C9.43447 1.35328 9.52616 1.54761 9.55558 1.76166L11.8077 18.089L13.7583 3.9469C13.787 3.73854 13.8747 3.5487 14.0065 3.40988C14.1382 3.27107 14.3058 3.1919 14.4806 3.18593C14.6553 3.17995 14.8263 3.24755 14.9644 3.37714C15.1024 3.50674 15.1989 3.69027 15.2373 3.89635L17.1325 14.0383L18.2685 9.37174C18.3138 9.18567 18.407 9.02191 18.5347 8.9043C18.6623 8.7867 18.8177 8.72139 18.9782 8.71788C19.1386 8.71437 19.2959 8.77285 19.4269 8.88481C19.558 8.99676 19.6561 9.15634 19.7069 9.34032L20.4769 12.1318L20.7871 11.0068C20.8372 10.8254 20.9333 10.6677 21.0617 10.556C21.1901 10.4442 21.3443 10.3841 21.5025 10.3842H22.7385C22.8384 10.3842 22.9343 10.4322 23.005 10.5176C23.0757 10.603 23.1154 10.7189 23.1154 10.8397C23.1154 10.9604 23.0757 11.0763 23.005 11.1617C22.9343 11.2471 22.8384 11.2951 22.7385 11.2951H21.5025L21.1931 12.4201C21.143 12.6013 21.047 12.7589 20.9187 12.8706C20.7903 12.9823 20.6362 13.0424 20.4781 13.0424C20.3199 13.0424 20.1658 12.9823 20.0374 12.8706C19.9091 12.7589 19.8131 12.6013 19.763 12.4201L18.9918 9.62862L17.8558 14.2956C17.8086 14.4891 17.7097 14.6582 17.5744 14.7764C17.4391 14.8946 17.2752 14.9552 17.1084 14.9487C16.9411 14.9442 16.7799 14.8718 16.6508 14.7431C16.5218 14.6143 16.4324 14.4368 16.3971 14.2391L14.5019 4.09902L12.5514 18.2389C12.5243 18.4528 12.4341 18.6477 12.2974 18.7875C12.1607 18.9274 11.9868 19.0028 11.8077 18.9999Z" fill="#363636" stroke="#363636" stroke-width="0.5"/>
</svg>
