<svg width="26" height="26" viewBox="0 0 26 26" fill="none" xmlns="http://www.w3.org/2000/svg">
<path d="M9.77535 1.32773H16.1427C21.9051 1.32773 24.3672 3.78977 24.3672 9.55222V11.9389C24.3672 12.374 24.0064 12.7348 23.5713 12.7348C23.1362 12.7348 22.7754 12.374 22.7754 11.9389V9.55222C22.7754 4.65997 21.0349 2.91957 16.1427 2.91957H9.77535C4.88311 2.91957 3.1427 4.65997 3.1427 9.55222V15.9196C3.1427 18.9971 3.86435 20.78 5.48803 21.7033C5.65782 21.7988 6.22023 22.0534 7.83329 22.3081C8.26839 22.3718 8.56553 22.7857 8.49125 23.2208C8.41696 23.6559 8.0031 23.953 7.57861 23.8787C6.1884 23.6559 5.24389 23.4012 4.70267 23.0935C2.55899 21.873 1.55086 19.5914 1.55086 15.9196V9.55222C1.55086 3.78977 4.0129 1.32773 9.77535 1.32773Z" fill="#026985"/>
<path d="M6.59192 6.63216H14.0205C14.4556 6.63216 14.8164 6.99298 14.8164 7.42808C14.8164 7.86318 14.4556 8.224 14.0205 8.224H6.59192C6.15682 8.224 5.796 7.86318 5.796 7.42808C5.796 6.99298 6.15682 6.63216 6.59192 6.63216Z" fill="#026985"/>
<path d="M6.57765 10.877H11.8838C12.3189 10.877 12.6797 11.2379 12.6797 11.673C12.6797 12.1081 12.3189 12.4689 11.8838 12.4689H6.57765C6.14254 12.4689 5.78173 12.1081 5.78173 11.673C5.78173 11.2379 6.14254 10.877 6.57765 10.877Z" fill="#026985"/>
<path d="M18.25 23.8209C18.153 23.8226 18.0588 23.7786 17.9847 23.697C17.9107 23.6154 17.8619 23.5017 17.8472 23.3769L16.6273 13.8534L15.7414 21.5368C15.7274 21.6579 15.6818 21.7689 15.6122 21.8512C15.5425 21.9335 15.4532 21.982 15.3593 21.9885C15.2653 21.995 15.1726 21.9591 15.0966 21.8869C15.0207 21.8147 14.9663 21.7105 14.9425 21.5921L14.1162 17.4712L13.5905 19.0121C13.5583 19.1058 13.5059 19.1854 13.4396 19.2411C13.3734 19.2969 13.2962 19.3265 13.2173 19.3264H12.3292C12.275 19.3264 12.2231 19.2984 12.1848 19.2486C12.1465 19.1988 12.125 19.1312 12.125 19.0607C12.125 18.9903 12.1465 18.9227 12.1848 18.8729C12.2231 18.823 12.275 18.795 12.3292 18.795H13.2173L13.7432 17.2541C13.7776 17.1534 13.8352 17.0691 13.908 17.0129C13.9808 16.9567 14.0652 16.9313 14.1496 16.9402C14.234 16.9492 14.3141 16.992 14.379 17.0629C14.4438 17.1337 14.4901 17.2291 14.5115 17.3357L15.3376 21.4566L16.2234 13.7737C16.2378 13.6485 16.2861 13.5342 16.3595 13.4511C16.4329 13.3681 16.5267 13.322 16.624 13.3209C16.7212 13.3199 16.8156 13.3641 16.8901 13.4456C16.9645 13.527 17.0142 13.6404 17.0301 13.7652L18.25 23.2895L19.3066 15.0399C19.3221 14.9184 19.3696 14.8077 19.441 14.7267C19.5124 14.6457 19.6032 14.5995 19.6978 14.596C19.7925 14.5926 19.8851 14.632 19.9599 14.7076C20.0347 14.7832 20.0869 14.8902 20.1077 15.0105L21.1343 20.9266L21.7496 18.2044C21.7741 18.0959 21.8246 18.0004 21.8938 17.9318C21.9629 17.8632 22.0471 17.8251 22.134 17.823C22.2209 17.821 22.3061 17.8551 22.3771 17.9204C22.4481 17.9857 22.5012 18.0788 22.5287 18.1861L22.9458 19.8144L23.1139 19.1582C23.141 19.0524 23.193 18.9604 23.2626 18.8952C23.3321 18.83 23.4157 18.795 23.5014 18.795H24.1708C24.225 18.795 24.2769 18.823 24.3152 18.8729C24.3535 18.9227 24.375 18.9903 24.375 19.0607C24.375 19.1312 24.3535 19.1988 24.3152 19.2486C24.2769 19.2984 24.225 19.3264 24.1708 19.3264H23.5014L23.3338 19.9826C23.3066 20.0884 23.2546 20.1803 23.1851 20.2455C23.1156 20.3106 23.0321 20.3457 22.9464 20.3457C22.8608 20.3457 22.7773 20.3106 22.7078 20.2455C22.6383 20.1803 22.5863 20.0884 22.5591 19.9826L22.1414 18.3543L21.5261 21.0767C21.5005 21.1896 21.4469 21.2882 21.3736 21.3572C21.3004 21.4261 21.2116 21.4615 21.1212 21.4577C21.0306 21.4551 20.9433 21.4128 20.8734 21.3377C20.8035 21.2626 20.7551 21.159 20.7359 21.0437L19.7094 15.1287L18.6528 23.3769C18.6381 23.5017 18.5893 23.6154 18.5153 23.697C18.4412 23.7786 18.347 23.8226 18.25 23.8209Z" fill="#026985" stroke="#026985" stroke-width="0.5"/>
</svg>
