<svg width="29" height="30" viewBox="0 0 29 30" fill="none" xmlns="http://www.w3.org/2000/svg">
<path d="M25.8938 23.4V16.491C26.1994 15.4181 26.3604 14.2907 26.3604 13.1333C26.3604 6.44273 20.9177 1 14.2271 1C7.53648 1 2.09375 6.44273 2.09375 13.1333C2.09375 14.2902 2.25475 15.4181 2.56042 16.491V23.4C2.56042 24.4295 3.39762 25.2667 4.42708 25.2667H8.22435L8.18562 25.4711C8.16882 25.5597 8.16462 25.6489 8.16462 25.7375H8.16042V27.5995C8.16042 28.3714 8.78855 28.9995 9.56042 28.9995H18.8938C19.6656 28.9995 20.2938 28.3714 20.2938 27.5995V25.7375H20.2896C20.2896 25.6489 20.2853 25.5597 20.2685 25.4711L20.2298 25.2667H24.0271C25.0566 25.2667 25.8938 24.4295 25.8938 23.4ZM14.2271 1.93333C20.4025 1.93333 25.4271 6.95793 25.4271 13.1333C25.4271 17.1994 23.2734 20.8679 19.7706 22.8573L18.8037 17.7818C20.0459 16.5559 20.76 14.8801 20.76 13.1329C20.76 9.5302 17.8293 6.59953 14.2266 6.59953C10.624 6.59953 7.69328 9.5302 7.69328 13.1329C7.69328 14.8801 8.40775 16.5559 9.64955 17.7818L8.68262 22.8573C5.17982 20.8679 3.02615 17.1989 3.02615 13.1333C3.02708 6.95793 8.05168 1.93333 14.2271 1.93333ZM9.10262 25.6461L10.6137 17.7127C10.6557 17.4925 10.8484 17.3333 11.0715 17.3333H17.3822C17.6058 17.3333 17.7985 17.4929 17.84 17.7127L19.3511 25.6461C19.387 25.8332 19.3044 25.9671 19.2526 26.0301C19.1635 26.1379 19.0324 26.1995 18.8928 26.1995H9.56042C9.42042 26.1995 9.28975 26.1379 9.20062 26.0301C9.14882 25.9671 9.06668 25.8332 9.10262 25.6461ZM18.4094 16.8541C18.1513 16.5741 17.7845 16.4 17.3827 16.4H11.072C10.6697 16.4 10.3033 16.5741 10.0453 16.8541C9.13855 15.8325 8.62755 14.5067 8.62755 13.1333C8.62755 10.0454 11.1396 7.53333 14.2275 7.53333C17.3155 7.53333 19.8275 10.0454 19.8275 13.1333C19.8275 14.5067 19.3161 15.8325 18.4094 16.8541ZM4.42708 24.3333C3.91235 24.3333 3.49375 23.9147 3.49375 23.4V18.8145C4.59975 20.9075 6.32315 22.6552 8.50015 23.8195L8.40215 24.3333H4.42708ZM18.8938 28.0667H9.56042C9.30282 28.0667 9.09375 27.8576 9.09375 27.6V27.0447C9.24262 27.0974 9.39848 27.1333 9.56088 27.1333H18.8933C19.0557 27.1333 19.2116 27.0979 19.3604 27.0447V27.6C19.3604 27.8576 19.1514 28.0667 18.8938 28.0667ZM24.0271 24.3333H20.052L19.954 23.8195C22.131 22.6552 23.8544 20.9075 24.9604 18.8145V23.4C24.9604 23.9147 24.5418 24.3333 24.0271 24.3333Z" fill="#026985" stroke="#026985" stroke-width="0.3"/>
<path d="M12.8279 5.66719H15.6279C16.1426 5.66719 16.5612 5.24859 16.5612 4.73385V3.80052C16.5612 3.28579 16.1426 2.86719 15.6279 2.86719H12.8279C12.3131 2.86719 11.8945 3.28579 11.8945 3.80052V4.73385C11.8945 5.24859 12.3131 5.66719 12.8279 5.66719ZM12.8279 3.80052H15.6279L15.6288 4.73385H12.8279V3.80052Z" fill="#026985" stroke="#026985" stroke-width="0.3"/>
<path d="M4.4276 13.6055C4.68567 13.6055 4.89427 13.3927 4.89427 13.1346C4.89427 12.8766 4.68567 12.668 4.4276 12.668C4.16954 12.668 3.96094 12.8766 3.96094 13.1346V13.1426C3.96094 13.4006 4.16954 13.6055 4.4276 13.6055Z" fill="#026985" stroke="#026985" stroke-width="0.3"/>
<path d="M6.29479 12.668C6.03673 12.668 5.82812 12.8766 5.82812 13.1346V13.1426C5.82812 13.4006 6.03673 13.6055 6.29479 13.6055C6.55286 13.6055 6.76146 13.3927 6.76146 13.1346C6.76146 12.8766 6.55286 12.668 6.29479 12.668Z" fill="#026985" stroke="#026985" stroke-width="0.3"/>
<path d="M6.76094 15.0018C6.76094 14.7438 6.55234 14.5352 6.29427 14.5352H4.4276C4.16954 14.5352 3.96094 14.7438 3.96094 15.0018C3.96094 15.2599 4.16954 15.4685 4.4276 15.4685H6.29427C6.55234 15.4685 6.76094 15.2599 6.76094 15.0018Z" fill="#026985" stroke="#026985" stroke-width="0.3"/>
<path d="M4.4276 11.7341H6.29427C6.55234 11.7341 6.76094 11.5255 6.76094 11.2674C6.76094 11.0094 6.55234 10.8008 6.29427 10.8008H4.4276C4.16954 10.8008 3.96094 11.0094 3.96094 11.2674C3.96094 11.5255 4.16954 11.7341 4.4276 11.7341Z" fill="#026985" stroke="#026985" stroke-width="0.3"/>
<path d="M22.1581 13.6055C22.4161 13.6055 22.6247 13.3927 22.6247 13.1346C22.6247 12.8766 22.4161 12.668 22.1581 12.668C21.9 12.668 21.6914 12.8766 21.6914 13.1346V13.1426C21.6914 13.4006 21.9 13.6055 22.1581 13.6055Z" fill="#026985" stroke="#026985" stroke-width="0.3"/>
<path d="M24.0253 12.668C23.7672 12.668 23.5586 12.8766 23.5586 13.1346V13.1426C23.5586 13.4006 23.7672 13.6055 24.0253 13.6055C24.2833 13.6055 24.4919 13.3927 24.4919 13.1346C24.4919 12.8766 24.2833 12.668 24.0253 12.668Z" fill="#026985" stroke="#026985" stroke-width="0.3"/>
<path d="M22.1581 15.4685H24.0247C24.2828 15.4685 24.4914 15.2599 24.4914 15.0018C24.4914 14.7438 24.2828 14.5352 24.0247 14.5352H22.1581C21.9 14.5352 21.6914 14.7438 21.6914 15.0018C21.6914 15.2599 21.9 15.4685 22.1581 15.4685Z" fill="#026985" stroke="#026985" stroke-width="0.3"/>
<path d="M22.1581 11.7341H24.0247C24.2828 11.7341 24.4914 11.5255 24.4914 11.2674C24.4914 11.0094 24.2828 10.8008 24.0247 10.8008H22.1581C21.9 10.8008 21.6914 11.0094 21.6914 11.2674C21.6914 11.5255 21.9 11.7341 22.1581 11.7341Z" fill="#026985" stroke="#026985" stroke-width="0.3"/>
</svg>
