<svg width="22" height="17" viewBox="0 0 22 17" fill="none" xmlns="http://www.w3.org/2000/svg">
<path d="M17 3.45938C17.3834 3.39824 17.7442 3.24241 18.0479 3.0068C18.3279 2.75272 18.512 2.35187 18.6334 1.64453C18.75 2.3251 18.925 2.7221 19.1875 2.97731C19.45 3.23252 19.8 3.34595 20.2667 3.45938C19.8 3.5728 19.45 3.68623 19.1875 3.94145C18.925 4.19666 18.75 4.59366 18.6334 5.27422C18.5209 4.61861 18.3534 4.22615 18.1077 3.97003C17.8421 3.69463 17.4837 3.57689 17 3.45938Z" stroke="#363636" stroke-width="0.8" stroke-linecap="round" stroke-linejoin="round"/>
<path d="M1 14.4555C1.39967 14.3945 1.77383 14.2276 2.08053 13.9734C2.34162 13.7182 2.51676 13.3213 2.63336 12.6406C2.74996 13.3211 2.9251 13.7182 3.18745 13.9734C3.49386 14.2273 3.86753 14.3942 4.26672 14.4555C3.70736 14.5915 3.3156 14.7275 3.0412 15.1074C2.81869 15.4617 2.67948 15.8586 2.63336 16.2703C2.52405 15.6325 2.36348 15.2436 2.12752 14.9878C1.86015 14.6975 1.49604 14.5765 1 14.4555Z" stroke="#363636" stroke-width="0.6" stroke-linecap="round" stroke-linejoin="round"/>
<path d="M11 16.4765C10.8416 16.4791 10.6878 16.412 10.5669 16.2877C10.4461 16.1634 10.3663 15.9902 10.3423 15.8L8.35067 1.288L6.90433 12.9961C6.88153 13.1805 6.80699 13.3497 6.69331 13.4751C6.57964 13.6005 6.4338 13.6744 6.28045 13.6843C6.1271 13.6942 5.97563 13.6395 5.85165 13.5295C5.72767 13.4194 5.63878 13.2607 5.6 13.0803L4.251 6.80075L3.39267 9.14883C3.34005 9.29162 3.2545 9.41284 3.14637 9.49784C3.03823 9.58283 2.91214 9.62796 2.78333 9.62776H1.33333C1.24493 9.62776 1.16014 9.58511 1.09763 9.50919C1.03512 9.43327 1 9.33029 1 9.22292C1 9.11555 1.03512 9.01258 1.09763 8.93665C1.16014 8.86073 1.24493 8.81808 1.33333 8.81808H2.78333L3.642 6.46999C3.69812 6.31656 3.79211 6.18811 3.91098 6.10242C4.02984 6.01673 4.1677 5.97803 4.30547 5.99168C4.44324 6.00533 4.57411 6.07066 4.67997 6.17862C4.78583 6.28658 4.86144 6.43183 4.89633 6.59428L6.245 12.8738L7.69133 1.16655C7.71481 0.975796 7.79358 0.801486 7.91347 0.674997C8.03335 0.548509 8.18648 0.478151 8.34528 0.476589C8.50407 0.475027 8.65812 0.542364 8.77967 0.666477C8.90123 0.79059 8.98232 0.963328 9.00833 1.15359L11 15.6668L12.725 3.09603C12.7504 2.91082 12.828 2.74207 12.9445 2.61868C13.061 2.49529 13.2092 2.42492 13.3638 2.41961C13.5183 2.4143 13.6696 2.47438 13.7916 2.58958C13.9137 2.70477 13.999 2.86792 14.033 3.05109L15.709 12.0661L16.7137 7.91811C16.7537 7.75271 16.8362 7.60715 16.949 7.50261C17.0619 7.39807 17.1993 7.34002 17.3412 7.3369C17.4831 7.33378 17.6222 7.38577 17.7381 7.48528C17.854 7.58479 17.9407 7.72664 17.9857 7.89018L18.6667 10.3715L18.941 9.3715C18.9853 9.21028 19.0702 9.07008 19.1838 8.97075C19.2973 8.87142 19.4337 8.81801 19.5737 8.81808H20.6667C20.7551 8.81808 20.8399 8.86073 20.9024 8.93665C20.9649 9.01258 21 9.11555 21 9.22292C21 9.33029 20.9649 9.43327 20.9024 9.50919C20.8399 9.58511 20.7551 9.62776 20.6667 9.62776H19.5737L19.3 10.6277C19.2557 10.7888 19.1708 10.9289 19.0573 11.0282C18.9438 11.1275 18.8075 11.1809 18.6677 11.1809C18.5278 11.1809 18.3915 11.1275 18.278 11.0282C18.1645 10.9289 18.0796 10.7888 18.0353 10.6277L17.3533 8.14644L16.3487 12.2949C16.307 12.4669 16.2194 12.6172 16.0998 12.7223C15.9802 12.8273 15.8352 12.8812 15.6877 12.8754C15.5397 12.8714 15.3972 12.807 15.283 12.6926C15.1689 12.5782 15.0899 12.4204 15.0587 12.2447L13.3827 3.23125L11.6577 15.8C11.6337 15.9902 11.5539 16.1634 11.4331 16.2877C11.3122 16.412 11.1584 16.4791 11 16.4765Z" fill="#363636" stroke="#363636" stroke-width="0.5"/>
</svg>
