<svg width="24" height="24" viewBox="0 0 24 24" fill="none" xmlns="http://www.w3.org/2000/svg">
<path d="M3.59922 5.99844C2.9627 5.99844 2.35225 6.25129 1.90216 6.70138C1.45208 7.15147 1.19922 7.76192 1.19922 8.39844V20.3984C1.19922 21.035 1.45208 21.6454 1.90216 22.0955C2.35225 22.5456 2.9627 22.7984 3.59922 22.7984H20.3992C21.0357 22.7984 21.6462 22.5456 22.0963 22.0955C22.5464 21.6454 22.7992 21.035 22.7992 20.3984V8.39844C22.7992 7.76192 22.5464 7.15147 22.0963 6.70138C21.6462 6.25129 21.0357 5.99844 20.3992 5.99844H3.59922ZM3.59922 19.1984L7.79922 13.7984L10.7992 17.3984L14.9992 11.9984L20.3992 19.1984H3.59922ZM19.1992 2.39844C19.8357 2.39844 20.4462 2.65129 20.8963 3.10138C21.3464 3.55147 21.5992 4.16192 21.5992 4.79844H2.39922C2.39922 4.16192 2.65208 3.55147 3.10216 3.10138C3.55225 2.65129 4.1627 2.39844 4.79922 2.39844H19.1992Z" fill="white"/>
</svg>
