<svg width="20" height="20" viewBox="0 0 20 20" fill="none" xmlns="http://www.w3.org/2000/svg">
<path d="M10.0099 18.9509C9.4849 18.9509 8.96823 18.7759 8.5599 18.4259L7.24323 17.3009C7.1099 17.1842 6.77656 17.0676 6.60156 17.0676H5.14323C3.9099 17.0676 2.9099 16.0676 2.9099 14.8342V13.4092C2.9099 13.2342 2.79323 12.9009 2.6849 12.7759L1.55156 11.4426C0.868229 10.6342 0.868229 9.36758 1.55156 8.55091L2.6849 7.21758C2.79323 7.09258 2.9099 6.75925 2.9099 6.58425V5.16758C2.9099 3.93425 3.9099 2.93425 5.14323 2.93425H6.5849C6.7599 2.93425 7.0849 2.80925 7.22656 2.69258L8.54323 1.56758C9.3599 0.875911 10.6349 0.875911 11.4516 1.56758L12.7682 2.69258C12.9016 2.80925 13.2432 2.92591 13.4182 2.92591H14.8349C16.0682 2.92591 17.0682 3.92591 17.0682 5.15925V6.57591C17.0682 6.75091 17.1932 7.07591 17.3099 7.21758L18.4349 8.53425C19.1349 9.35925 19.1266 10.6342 18.4349 11.4426L17.3099 12.7592C17.1932 12.9009 17.0766 13.2259 17.0766 13.4009V14.8176C17.0766 16.0509 16.0766 17.0509 14.8432 17.0509H13.4266C13.2516 17.0509 12.9266 17.1759 12.7766 17.2926L11.4599 18.4176C11.0516 18.7759 10.5266 18.9509 10.0099 18.9509ZM5.14323 4.18425C4.60156 4.18425 4.1599 4.62591 4.1599 5.16758V6.58425C4.1599 7.05925 3.94323 7.65925 3.6349 8.02591L2.50156 9.35925C2.21823 9.70091 2.21823 10.3009 2.50156 10.6342L3.62656 11.9592C3.92656 12.3009 4.15156 12.9259 4.15156 13.4009V14.8259C4.15156 15.3676 4.59323 15.8092 5.1349 15.8092H6.5849C7.05156 15.8092 7.66823 16.0342 8.0349 16.3426L9.3599 17.4759C9.70156 17.7676 10.3016 17.7676 10.6432 17.4759L11.9599 16.3509C12.3349 16.0342 12.9432 15.8176 13.4099 15.8176H14.8266C15.3682 15.8176 15.8099 15.3759 15.8099 14.8342V13.4176C15.8099 12.9509 16.0349 12.3426 16.3432 11.9676L17.4766 10.6426C17.7682 10.3009 17.7682 9.70091 17.4766 9.35925L16.3516 8.04258C16.0349 7.66758 15.8182 7.05925 15.8182 6.59258V5.16758C15.8182 4.62591 15.3766 4.18425 14.8349 4.18425H13.4182C12.9432 4.18425 12.3266 3.95925 11.9599 3.65091L10.6349 2.51758C10.2932 2.22591 9.70156 2.22591 9.35156 2.51758L8.04323 3.65091C7.66823 3.95925 7.0599 4.18425 6.5849 4.18425H5.14323Z" fill="white"/>
<path d="M10.013 13.1882C9.55469 13.1882 9.17969 12.8132 9.17969 12.3548C9.17969 11.8965 9.54635 11.5215 10.013 11.5215C10.4714 11.5215 10.8464 11.8965 10.8464 12.3548C10.8464 12.8132 10.4797 13.1882 10.013 13.1882Z" fill="white"/>
<path d="M10 10.7677C9.65833 10.7677 9.375 10.4844 9.375 10.1427V6.10937C9.375 5.76771 9.65833 5.48438 10 5.48438C10.3417 5.48438 10.625 5.76771 10.625 6.10937V10.1344C10.625 10.4844 10.35 10.7677 10 10.7677Z" fill="white"/>
</svg>
