<svg width="22" height="22" viewBox="0 0 22 22" fill="none" xmlns="http://www.w3.org/2000/svg">
<g clip-path="url(#clip0_328_16481)">
<path d="M16.4996 0H5.49987C2.47521 0 0 2.47521 0 5.49987V16.5001C0 19.524 2.47521 22 5.49987 22H16.4996C19.5243 22 21.9995 19.524 21.9995 16.5001V5.49987C21.9995 2.47521 19.5243 0 16.4996 0ZM20.1661 16.5001C20.1661 18.5213 18.5219 20.1666 16.4996 20.1666H5.49987C3.4784 20.1666 1.83338 18.5213 1.83338 16.5001V5.49987C1.83338 3.47813 3.4784 1.83338 5.49987 1.83338H16.4996C18.5219 1.83338 20.1661 3.47813 20.1661 5.49987V16.5001Z" fill="white"/>
<path d="M16.9609 6.41595C17.7203 6.41595 18.3359 5.80035 18.3359 5.04098C18.3359 4.28161 17.7203 3.66602 16.9609 3.66602C16.2015 3.66602 15.5859 4.28161 15.5859 5.04098C15.5859 5.80035 16.2015 6.41595 16.9609 6.41595Z" fill="white"/>
<path d="M10.9999 5.5C7.96173 5.5 5.5 7.962 5.5 10.9999C5.5 14.0366 7.96173 16.5003 10.9999 16.5003C14.0371 16.5003 16.4997 14.0366 16.4997 10.9999C16.4997 7.962 14.0371 5.5 10.9999 5.5ZM10.9999 14.6669C8.97507 14.6669 7.33338 13.0252 7.33338 10.9999C7.33338 8.97453 8.97507 7.33338 10.9999 7.33338C13.0247 7.33338 14.6664 8.97453 14.6664 10.9999C14.6664 13.0252 13.0247 14.6669 10.9999 14.6669Z" fill="white"/>
</g>
<defs>
<clipPath id="clip0_328_16481">
<rect width="22" height="22" fill="white"/>
</clipPath>
</defs>
</svg>
