<svg width="20" height="20" viewBox="0 0 20 20" fill="none" xmlns="http://www.w3.org/2000/svg">
<g clip-path="url(#clip0_2195_49537)">
<path d="M14.9996 0H4.99988C2.25019 0 0 2.25019 0 4.99988V15.0001C0 17.7491 2.25019 20 4.99988 20H14.9996C17.7493 20 19.9995 17.7491 19.9995 15.0001V4.99988C19.9995 2.25019 17.7493 0 14.9996 0ZM18.3328 15.0001C18.3328 16.8376 16.8381 18.3333 14.9996 18.3333H4.99988C3.16218 18.3333 1.66671 16.8376 1.66671 15.0001V4.99988C1.66671 3.16193 3.16218 1.66671 4.99988 1.66671H14.9996C16.8381 1.66671 18.3328 3.16193 18.3328 4.99988V15.0001Z" fill="#363636"/>
<path d="M15.414 5.8349C16.1044 5.8349 16.664 5.27527 16.664 4.58493C16.664 3.89459 16.1044 3.33496 15.414 3.33496C14.7237 3.33496 14.1641 3.89459 14.1641 4.58493C14.1641 5.27527 14.7237 5.8349 15.414 5.8349Z" fill="#363636"/>
<path d="M9.99988 5C7.23793 5 5 7.23818 5 9.99988C5 12.7606 7.23793 15.0002 9.99988 15.0002C12.761 15.0002 14.9998 12.7606 14.9998 9.99988C14.9998 7.23818 12.761 5 9.99988 5ZM9.99988 13.3335C8.15915 13.3335 6.66671 11.8411 6.66671 9.99988C6.66671 8.15866 8.15915 6.66671 9.99988 6.66671C11.8406 6.66671 13.333 8.15866 13.333 9.99988C13.333 11.8411 11.8406 13.3335 9.99988 13.3335Z" fill="#363636"/>
</g>
<defs>
<clipPath id="clip0_2195_49537">
<rect width="20" height="20" fill="white"/>
</clipPath>
</defs>
</svg>
