<svg width="22" height="22" viewBox="0 0 22 22" fill="none" xmlns="http://www.w3.org/2000/svg">
<path d="M7.75 0.185558H13.75C19.18 0.185558 21.5 2.50556 21.5 7.93556V10.1846C21.5 10.5946 21.16 10.9346 20.75 10.9346C20.34 10.9346 20 10.5946 20 10.1846V7.93556C20 3.32556 18.36 1.68556 13.75 1.68556H7.75C3.14 1.68556 1.5 3.32556 1.5 7.93556V13.9356C1.5 16.8356 2.18002 18.5156 3.71002 19.3856C3.87002 19.4756 4.39998 19.7155 5.91998 19.9555C6.32998 20.0155 6.60998 20.4056 6.53998 20.8156C6.46998 21.2256 6.07999 21.5056 5.67999 21.4356C4.36999 21.2256 3.47997 20.9856 2.96997 20.6956C0.949971 19.5456 0 17.3956 0 13.9356V7.93556C0 2.50556 2.32 0.185558 7.75 0.185558Z" fill="#363636"/>
<path d="M16.1202 12.4412V12.6912H16.3702H20.5443C20.5988 12.6912 20.6511 12.7129 20.6897 12.7515C20.7283 12.7901 20.75 12.8426 20.75 12.8974V16.7304C20.75 16.7852 20.7283 16.8376 20.6897 16.8763C20.6511 16.9149 20.5988 16.9366 20.5443 16.9366H16.369H16.119V17.1866V21.3583C16.119 21.413 16.0973 21.4655 16.0587 21.5042C16.0201 21.5428 15.9678 21.5645 15.9133 21.5645H12.0844C12.0299 21.5645 11.9776 21.5428 11.939 21.5042C11.9004 21.4655 11.8787 21.413 11.8787 21.3583V17.1866V16.9366H11.6287H7.45569C7.40122 16.9366 7.34893 16.9149 7.31034 16.8763C7.27174 16.8376 7.25 16.7852 7.25 16.7304V12.8962C7.25 12.8415 7.27174 12.789 7.31034 12.7504C7.34893 12.7117 7.40122 12.6901 7.45569 12.6901H11.6287H11.8787V12.4401V8.27063C11.8787 8.21586 11.9004 8.16339 11.939 8.12475C11.9776 8.08611 12.0299 8.06445 12.0844 8.06445H15.9145C15.9689 8.06445 16.0212 8.08611 16.0598 8.12475C16.0984 8.16339 16.1202 8.21586 16.1202 8.27063V12.4412Z" stroke="#363636" stroke-width="0.5"/>
</svg>
