<svg width="21" height="22" viewBox="0 0 21 22" fill="none" xmlns="http://www.w3.org/2000/svg">
<path d="M12.1452 8.91381V2.99146C12.3711 2.90882 12.5614 2.74635 12.6826 2.53274C12.8038 2.31914 12.8481 2.06814 12.8075 1.82409C12.767 1.58004 12.6443 1.35864 12.4611 1.199C12.278 1.03937 12.0461 0.95176 11.8065 0.95166H8.41935C8.17973 0.95176 7.94784 1.03937 7.76466 1.199C7.58148 1.35864 7.4588 1.58004 7.41827 1.82409C7.37775 2.06814 7.42199 2.31914 7.5432 2.53274C7.6644 2.74635 7.85476 2.90882 8.08065 2.99146V8.91381L3.04014 18.6364C3.01379 18.6872 3 18.744 3 18.8017C3.00091 19.6368 3.32237 20.4375 3.89385 21.028C4.46534 21.6185 5.24018 21.9507 6.04839 21.9517H14.1774C14.9856 21.9507 15.7605 21.6185 16.332 21.028C16.9034 20.4375 17.2249 19.6368 17.2258 18.8017C17.2258 18.744 17.212 18.6872 17.1857 18.6364L12.1452 8.91381ZM8.41935 1.65166H11.8065C11.8963 1.65166 11.9824 1.68854 12.046 1.75417C12.1095 1.81981 12.1452 1.90883 12.1452 2.00166C12.1452 2.09449 12.1095 2.18351 12.046 2.24915C11.9824 2.31479 11.8963 2.35166 11.8065 2.35166H8.41935C8.32952 2.35166 8.24337 2.31479 8.17985 2.24915C8.11633 2.18351 8.08065 2.09449 8.08065 2.00166C8.08065 1.90883 8.11633 1.81981 8.17985 1.75417C8.24337 1.68854 8.32952 1.65166 8.41935 1.65166ZM8.71793 9.1669C8.74427 9.11608 8.75806 9.05932 8.75806 9.00166V3.05166H11.4677V9.00166C11.4677 9.05932 11.4815 9.11608 11.5079 9.1669L13.2529 12.5329C13.1016 12.512 12.9491 12.5016 12.7965 12.5017C11.2268 12.5017 9.94982 13.6007 9.94982 14.9517C9.94982 15.9166 8.99876 16.7017 7.82975 16.7017C7.12493 16.7017 6.46729 16.4117 6.07061 15.926C5.8455 15.6605 5.71788 15.3216 5.71006 14.9687L8.71793 9.1669ZM14.1774 21.2517H6.04839C5.43404 21.2509 4.8439 21.0041 4.40201 20.5631C3.96012 20.122 3.70089 19.5212 3.67882 18.8868L5.23832 15.8787C5.32242 16.058 5.42811 16.2255 5.5529 16.3774C6.07671 17.0188 6.92785 17.4017 7.82975 17.4017C9.37227 17.4017 10.6272 16.3026 10.6272 14.9517C10.6272 13.9867 11.6003 13.2017 12.7965 13.2017C13.0968 13.2006 13.3951 13.2521 13.6787 13.3541L16.547 18.8868C16.5249 19.5212 16.2657 20.122 15.8238 20.5631C15.3819 21.0041 14.7918 21.2509 14.1774 21.2517Z" fill="#363636"/>
<path d="M10.0983 10.6181C10.2701 10.6181 10.4094 10.4742 10.4094 10.2966C10.4094 10.119 10.2701 9.9751 10.0983 9.9751C9.92641 9.9751 9.78711 10.119 9.78711 10.2966C9.78711 10.4742 9.92641 10.6181 10.0983 10.6181Z" fill="#363636"/>
<path d="M9.16802 12.8572C9.50999 12.8572 9.78721 12.5707 9.78721 12.2173C9.78721 11.864 9.50999 11.5775 9.16802 11.5775C8.82605 11.5775 8.54883 11.864 8.54883 12.2173C8.54883 12.5707 8.82605 12.8572 9.16802 12.8572Z" fill="#363636"/>
<path d="M7.92878 15.4165C8.11248 15.4165 8.29205 15.3602 8.44479 15.2548C8.59753 15.1493 8.71657 14.9994 8.78687 14.824C8.85717 14.6487 8.87556 14.4557 8.83972 14.2695C8.80389 14.0833 8.71543 13.9123 8.58553 13.7781C8.45564 13.6439 8.29015 13.5525 8.10998 13.5155C7.92981 13.4784 7.74307 13.4974 7.57335 13.5701C7.40364 13.6427 7.25858 13.7657 7.15653 13.9235C7.05447 14.0814 7 14.2669 7 14.4568C7.00028 14.7112 7.09822 14.9552 7.27234 15.1351C7.44646 15.315 7.68254 15.4162 7.92878 15.4165ZM7.92878 14.1368C7.99002 14.1368 8.04987 14.1556 8.10079 14.1908C8.1517 14.2259 8.19138 14.2759 8.21481 14.3343C8.23824 14.3928 8.24438 14.4571 8.23243 14.5192C8.22048 14.5812 8.191 14.6382 8.1477 14.683C8.1044 14.7277 8.04924 14.7582 7.98918 14.7705C7.92913 14.7829 7.86688 14.7765 7.81031 14.7523C7.75374 14.7281 7.70538 14.6871 7.67137 14.6345C7.63735 14.5819 7.61919 14.52 7.61919 14.4568C7.61928 14.3719 7.65193 14.2906 7.70997 14.2306C7.76801 14.1707 7.8467 14.1369 7.92878 14.1368Z" fill="#363636"/>
</svg>
