<svg width="28" height="33" viewBox="0 0 28 33" fill="none" xmlns="http://www.w3.org/2000/svg">
<path d="M12.8786 18.2505C13.1136 18.2505 13.3041 18.0536 13.3041 17.8108C13.3041 17.5679 13.1136 17.3711 12.8786 17.3711C12.6436 17.3711 12.4531 17.5679 12.4531 17.8108C12.4531 18.0536 12.6436 18.2505 12.8786 18.2505Z" fill="#026985"/>
<path d="M11.6046 21.3125C12.0722 21.3125 12.4514 20.9207 12.4514 20.4375C12.4514 19.9543 12.0722 19.5625 11.6046 19.5625C11.1369 19.5625 10.7578 19.9543 10.7578 20.4375C10.7578 20.9207 11.1369 21.3125 11.6046 21.3125Z" fill="#026985"/>
<path d="M9.91079 24.8125C10.162 24.8125 10.4076 24.7355 10.6164 24.5913C10.8253 24.4471 10.9881 24.2421 11.0843 24.0023C11.1804 23.7624 11.2056 23.4985 11.1565 23.2439C11.1075 22.9893 10.9866 22.7555 10.8089 22.5719C10.6313 22.3884 10.405 22.2634 10.1586 22.2127C9.91219 22.1621 9.65681 22.1881 9.42472 22.2874C9.19263 22.3867 8.99425 22.555 8.85469 22.7708C8.71512 22.9867 8.64062 23.2404 8.64062 23.5C8.641 23.848 8.77494 24.1816 9.01306 24.4276C9.25118 24.6737 9.57403 24.8121 9.91079 24.8125ZM9.91079 23.0625C9.99452 23.0625 10.0764 23.0882 10.146 23.1362C10.2156 23.1843 10.2699 23.2526 10.3019 23.3326C10.334 23.4125 10.3424 23.5005 10.326 23.5854C10.3097 23.6702 10.2694 23.7482 10.2102 23.8094C10.151 23.8705 10.0755 23.9122 9.99339 23.9291C9.91126 23.946 9.82613 23.9373 9.74876 23.9042C9.6714 23.8711 9.60527 23.815 9.55875 23.7431C9.51223 23.6711 9.4874 23.5865 9.4874 23.5C9.48753 23.384 9.53217 23.2728 9.61155 23.1908C9.69092 23.1088 9.79854 23.0626 9.91079 23.0625Z" fill="#026985"/>
<path fill-rule="evenodd" clip-rule="evenodd" d="M15.4158 8.54975V15.9527L19.192 23.2366C19.0591 23.5042 18.9844 23.8059 18.9844 24.125V24.6889L17.3327 21.503C16.9782 21.3756 16.6053 21.3112 16.23 21.3125C14.7348 21.3125 13.5184 22.2938 13.5184 23.5C13.5184 25.1887 11.9497 26.5625 10.0216 26.5625C8.89418 26.5625 7.83026 26.0839 7.1755 25.2822C7.01952 25.0924 6.88739 24.8829 6.78228 24.6588L4.8329 28.4189C4.86049 29.2119 5.18453 29.963 5.73689 30.5142C6.28925 31.0655 7.02693 31.3741 7.79486 31.375H17.9562C18.3994 31.3745 18.8326 31.2714 19.2258 31.0784C19.3698 31.3434 19.572 31.5723 19.8151 31.7478C19.252 32.0735 18.6129 32.2492 17.9562 32.25H7.79486C6.7846 32.2488 5.81605 31.8336 5.10169 31.0954C4.38733 30.3573 3.98551 29.3564 3.98438 28.3125C3.98438 28.2404 4.00161 28.1695 4.03455 28.1059L10.3352 15.9527V8.54975C10.0528 8.44645 9.81487 8.24336 9.66337 7.97635C9.51187 7.70934 9.45656 7.3956 9.50721 7.09054C9.55787 6.78548 9.71123 6.50873 9.9402 6.30918C10.1692 6.10963 10.459 6.00012 10.7586 6H14.9924C15.292 6.00012 15.5818 6.10963 15.8108 6.30918C16.0398 6.50873 16.1931 6.78548 16.2438 7.09054C16.2945 7.3956 16.2391 7.70934 16.0876 7.97635C15.9361 8.24336 15.6982 8.44645 15.4158 8.54975ZM14.9924 6.875H10.7586C10.6463 6.875 10.5386 6.92109 10.4592 7.00314C10.3798 7.08519 10.3352 7.19647 10.3352 7.3125C10.3352 7.42853 10.3798 7.53981 10.4592 7.62186C10.5386 7.70391 10.6463 7.75 10.7586 7.75H14.9924C15.1047 7.75 15.2124 7.70391 15.2918 7.62186C15.3712 7.53981 15.4158 7.42853 15.4158 7.3125C15.4158 7.19647 15.3712 7.08519 15.2918 7.00314C15.2124 6.92109 15.1047 6.875 14.9924 6.875ZM11.182 16.0625C11.182 16.1346 11.1647 16.2055 11.1318 16.2691L7.37195 23.5213C7.38172 23.9625 7.54125 24.386 7.82264 24.7179C8.31848 25.325 9.14054 25.6875 10.0216 25.6875C11.4828 25.6875 12.6716 24.7062 12.6716 23.5C12.6716 21.8113 14.2679 20.4375 16.23 20.4375C16.4208 20.4374 16.6114 20.4505 16.8005 20.4765L14.6192 16.2691C14.5863 16.2055 14.5691 16.1346 14.5691 16.0625V8.625H11.182V16.0625Z" fill="#026985"/>
<path d="M18.8594 24.4658L19.7266 26.1025L20.0118 29.9861C20.0419 30.397 19.817 30.7843 19.4453 30.9618L18.8477 31.2471L18.8594 24.4658Z" fill="white"/>
<path d="M17.9844 17.1848C17.9847 17.4039 18.069 17.6175 18.2257 17.7963C18.3823 17.9752 18.6037 18.1105 18.8594 18.1838V30.6087C18.86 31.077 19.0907 31.5259 19.5008 31.8571C19.9109 32.1882 20.4669 32.3745 21.0469 32.375H21.9219C22.5018 32.3745 23.0579 32.1882 23.468 31.8571C23.878 31.5259 24.1087 31.077 24.1094 30.6087V18.1838C24.4011 18.1004 24.647 17.9364 24.8036 17.7208C24.9601 17.5052 25.0173 17.2519 24.9649 17.0056C24.9126 16.7592 24.7541 16.5358 24.5175 16.3746C24.2809 16.2135 23.9814 16.1251 23.6719 16.125H19.2969C18.9489 16.1253 18.6153 16.2371 18.3692 16.4358C18.1232 16.6344 17.9848 16.9038 17.9844 17.1848ZM23.2344 30.6087C23.234 30.8897 23.0956 31.159 22.8495 31.3577C22.6035 31.5564 22.2699 31.6682 21.9219 31.6685H21.0469C20.6989 31.6682 20.3653 31.5564 20.1192 31.3577C19.8732 31.159 19.7348 30.8897 19.7344 30.6087V21.5995C20.0072 21.708 20.3054 21.7686 20.6094 21.7772C20.9574 21.7769 21.291 21.6651 21.537 21.4664C21.7831 21.2677 21.9215 20.9984 21.9219 20.7174C21.922 20.6237 21.9681 20.5339 22.0502 20.4677C22.1322 20.4015 22.2434 20.3642 22.3594 20.3641C22.7189 20.3641 23.2159 20.6043 23.2344 20.7174V30.6087ZM23.2344 19.8353C22.9615 19.7268 22.6633 19.6662 22.3594 19.6576C22.0114 19.6579 21.6778 19.7697 21.4317 19.9684C21.1857 20.167 21.0473 20.4364 21.0469 20.7174C21.0467 20.811 21.0006 20.9008 20.9186 20.9671C20.8366 21.0333 20.7254 21.0705 20.6094 21.0707C20.2499 21.0707 19.7532 20.8307 19.7344 20.7166V18.2446H23.2344V19.8353ZM24.1094 17.1848C24.1092 17.2784 24.0631 17.3682 23.9811 17.4345C23.8991 17.5007 23.7879 17.5379 23.6719 17.538H19.2969C19.1808 17.538 19.0696 17.5008 18.9875 17.4346C18.9055 17.3683 18.8594 17.2785 18.8594 17.1848C18.8594 17.0911 18.9055 17.0012 18.9875 16.935C19.0696 16.8687 19.1808 16.8315 19.2969 16.8315H23.6719C23.7879 16.8316 23.8991 16.8689 23.9811 16.9351C24.0631 17.0013 24.1092 17.0911 24.1094 17.1848Z" fill="#026985"/>
<path d="M10.4241 1.75047C10.6669 1.75047 10.8638 1.55361 10.8638 1.31078C10.8638 1.06795 10.6669 0.871094 10.4241 0.871094C10.1812 0.871094 9.98438 1.06795 9.98438 1.31078C9.98438 1.55361 10.1812 1.75047 10.4241 1.75047Z" fill="#026985"/>
<path d="M13.9219 1.75C14.4051 1.75 14.7969 1.35825 14.7969 0.875C14.7969 0.391751 14.4051 0 13.9219 0C13.4386 0 13.0469 0.391751 13.0469 0.875C13.0469 1.35825 13.4386 1.75 13.9219 1.75Z" fill="#026985"/>
<path d="M10.8594 3.9375C10.8594 4.19709 10.9364 4.45085 11.0806 4.66669C11.2248 4.88253 11.4298 5.05075 11.6696 5.15009C11.9094 5.24943 12.1733 5.27542 12.4279 5.22478C12.6825 5.17414 12.9164 5.04913 13.1 4.86558C13.2835 4.68202 13.4085 4.44816 13.4592 4.19356C13.5098 3.93896 13.4838 3.67506 13.3845 3.43523C13.2851 3.1954 13.1169 2.99042 12.9011 2.8462C12.6852 2.70198 12.4315 2.625 12.1719 2.625C11.8239 2.62539 11.4903 2.7638 11.2442 3.00985C10.9982 3.25591 10.8598 3.58952 10.8594 3.9375ZM12.6094 3.9375C12.6094 4.02403 12.5837 4.10862 12.5356 4.18056C12.4876 4.25251 12.4192 4.30858 12.3393 4.3417C12.2594 4.37481 12.1714 4.38347 12.0865 4.36659C12.0017 4.34971 11.9237 4.30804 11.8625 4.24686C11.8013 4.18567 11.7597 4.10772 11.7428 4.02285C11.7259 3.93799 11.7346 3.85002 11.7677 3.77008C11.8008 3.69013 11.8569 3.62181 11.9288 3.57373C12.0008 3.52566 12.0853 3.5 12.1719 3.5C12.2879 3.50013 12.3991 3.54627 12.4811 3.62828C12.5631 3.7103 12.6092 3.82151 12.6094 3.9375Z" fill="#026985"/>
</svg>
