<svg width="29" height="30" viewBox="0 0 29 30" fill="none" xmlns="http://www.w3.org/2000/svg">
<path fill-rule="evenodd" clip-rule="evenodd" d="M22.7363 8.5C22.4563 3.78456 20.0986 1.75099 15.0148 1.75099H9.01483C3.58483 1.75099 1.26483 4.07099 1.26483 9.50099V15.501C1.26483 18.961 2.2148 21.111 4.2348 22.261C4.7448 22.551 5.63482 22.791 6.94482 23.001C7.34482 23.071 7.73481 22.791 7.80481 22.381C7.87481 21.971 7.59481 21.581 7.18481 21.521C5.66481 21.281 5.13485 21.041 4.97485 20.951C3.44485 20.081 2.76483 18.401 2.76483 15.501V9.50099C2.76483 4.89099 4.40483 3.25099 9.01483 3.25099H15.0148C19.2742 3.25099 20.9982 4.65099 21.2358 8.5H22.7363Z" fill="#026985"/>
<g clip-path="url(#clip0_50_11793)">
<path d="M20.3553 11.591C20.1103 11.3457 19.7852 11.2109 19.4384 11.2109C18.7236 11.2109 18.1418 11.7924 18.1418 12.5079C18.1418 12.854 18.2765 13.1795 18.5215 13.4248L18.6789 13.5819L9.06159 23.1992C8.36449 23.8963 7.98047 24.8233 7.98047 25.8097C7.98047 27.8449 9.63681 29.5013 11.672 29.5013C12.6581 29.5013 13.5851 29.1172 14.2825 28.4201L23.8998 18.8028L24.0573 18.9599C24.3022 19.2052 24.6274 19.34 24.9742 19.34C25.689 19.34 26.2708 18.7585 26.2708 18.043C26.2708 17.6969 26.136 17.3714 25.8911 17.1261L20.3553 11.591ZM13.8035 27.9412C13.2346 28.5103 12.4771 28.8238 11.672 28.8238C10.0101 28.8238 8.65789 27.4716 8.65789 25.8097C8.65789 25.0046 8.97146 24.2475 9.54055 23.6782L11.1691 22.0496H19.6951L13.8035 27.9412ZM24.9742 18.6626C24.8113 18.6626 24.6518 18.5966 24.5362 18.481L23.8998 17.8449L20.3725 21.3722H11.8465L13.0611 20.1576L13.8378 20.9343L14.3167 20.4553L13.5401 19.6787L14.0772 19.1415L15.5313 20.5956L16.0103 20.1166L14.5562 18.6626L15.0934 18.1254L15.87 18.902L16.349 18.4231L15.5723 17.6464L16.1095 17.1092L17.5636 18.5633L18.0425 18.0844L16.5885 16.6303L17.1256 16.0931L17.9023 16.8698L18.3812 16.3908L17.6046 15.6142L18.1418 15.077L19.5958 16.5311L20.0748 16.0521L18.6207 14.598L19.1579 14.0612L22.6442 17.5472L23.1232 17.0682L19.0004 12.9458C18.8835 12.8286 18.8192 12.6731 18.8192 12.5079C18.8192 12.166 19.0969 11.8884 19.4384 11.8884C19.6013 11.8884 19.7607 11.9543 19.8763 12.07L25.4121 17.6051C25.529 17.7223 25.5934 17.8778 25.5934 18.043C25.5934 18.3849 25.3157 18.6626 24.9742 18.6626Z" fill="#026985"/>
<path d="M27.6244 12.2266C26.8772 12.2266 26.2695 12.8342 26.2695 13.5814C26.2695 14.3286 26.8772 14.9362 27.6244 14.9362C28.3716 14.9362 28.9792 14.3286 28.9792 13.5814C28.9792 12.8342 28.3716 12.2266 27.6244 12.2266ZM27.6244 14.2588C27.2508 14.2588 26.947 13.955 26.947 13.5814C26.947 13.2078 27.2508 12.904 27.6244 12.904C27.998 12.904 28.3018 13.2078 28.3018 13.5814C28.3018 13.955 27.998 14.2588 27.6244 14.2588Z" fill="#026985"/>
<path d="M22.5435 11.5479C23.1036 11.5479 23.5596 11.0919 23.5596 10.5318C23.5596 9.97159 23.1036 9.51562 22.5435 9.51562C21.9833 9.51562 21.5273 9.97159 21.5273 10.5318C21.5273 11.0919 21.9833 11.5479 22.5435 11.5479ZM22.5435 10.193C22.7304 10.193 22.8822 10.3452 22.8822 10.5318C22.8822 10.7183 22.7304 10.8705 22.5435 10.8705C22.3566 10.8705 22.2048 10.7183 22.2048 10.5318C22.2048 10.3452 22.3566 10.193 22.5435 10.193Z" fill="#026985"/>
<path d="M26.6099 10.5323C27.17 10.5323 27.626 10.0763 27.626 9.51613C27.626 8.95597 27.17 8.5 26.6099 8.5C26.0497 8.5 25.5938 8.95597 25.5938 9.51613C25.5938 10.0763 26.0497 10.5323 26.6099 10.5323ZM26.6099 9.17742C26.7968 9.17742 26.9486 9.32957 26.9486 9.51613C26.9486 9.70268 26.7968 9.85484 26.6099 9.85484C26.423 9.85484 26.2712 9.70268 26.2712 9.51613C26.2712 9.32957 26.423 9.17742 26.6099 9.17742Z" fill="#026985"/>
<path d="M12.3838 24.0825C12.3838 23.5224 11.9279 23.0664 11.3677 23.0664C10.8075 23.0664 10.3516 23.5224 10.3516 24.0825C10.3516 24.6427 10.8075 25.0987 11.3677 25.0987C11.9279 25.0987 12.3838 24.6427 12.3838 24.0825ZM11.029 24.0825C11.029 23.896 11.1808 23.7438 11.3677 23.7438C11.5546 23.7438 11.7064 23.896 11.7064 24.0825C11.7064 24.2691 11.5546 24.4212 11.3677 24.4212C11.1808 24.4212 11.029 24.2691 11.029 24.0825Z" fill="#026985"/>
<path d="M15.0943 23.0664C14.5341 23.0664 14.0781 23.5224 14.0781 24.0825C14.0781 24.6427 14.5341 25.0987 15.0943 25.0987C15.6544 25.0987 16.1104 24.6427 16.1104 24.0825C16.1104 23.5224 15.6544 23.0664 15.0943 23.0664ZM15.0943 24.4212C14.9074 24.4212 14.7555 24.2691 14.7555 24.0825C14.7555 23.896 14.9074 23.7438 15.0943 23.7438C15.2811 23.7438 15.433 23.896 15.433 24.0825C15.433 24.2691 15.2811 24.4212 15.0943 24.4212Z" fill="#026985"/>
<path d="M12.0435 26.1133C11.4833 26.1133 11.0273 26.5692 11.0273 27.1294C11.0273 27.6896 11.4833 28.1455 12.0435 28.1455C12.6036 28.1455 13.0596 27.6896 13.0596 27.1294C13.0596 26.5692 12.6036 26.1133 12.0435 26.1133ZM12.0435 27.4681C11.8566 27.4681 11.7048 27.316 11.7048 27.1294C11.7048 26.9429 11.8566 26.7907 12.0435 26.7907C12.2304 26.7907 12.3822 26.9429 12.3822 27.1294C12.3822 27.316 12.2304 27.4681 12.0435 27.4681Z" fill="#026985"/>
</g>
<defs>
<clipPath id="clip0_50_11793">
<rect width="21" height="21" fill="white" transform="translate(7.98047 8.5)"/>
</clipPath>
</defs>
</svg>
