<svg width="23" height="24" viewBox="0 0 23 24" fill="none" xmlns="http://www.w3.org/2000/svg">
<path d="M12.9301 19.837L8.07508 12.3319V6.29924C8.07508 6.0369 7.86239 5.82422 7.60006 5.82422H5.22503C4.96269 5.82422 4.75001 6.0369 4.75001 6.29924V12.3451L0.323436 19.8702C0.111686 20.2301 1.41853e-09 20.6401 1.41853e-09 21.0577C-4.45306e-05 22.351 1.04842 23.3995 2.34172 23.3995H10.9916C11.4362 23.3994 11.8712 23.271 12.2446 23.0297C13.3155 22.3373 13.6225 20.9079 12.9301 19.837ZM10.9916 22.4495H2.34172C2.09274 22.4499 1.84817 22.3835 1.63357 22.2572C0.97111 21.8674 0.750097 21.0144 1.13993 20.3519L5.6345 12.7152C5.67743 12.6422 5.70005 12.5591 5.70005 12.4744V6.77427H7.12508V12.4744C7.12503 12.5659 7.15144 12.6554 7.20109 12.7323L12.1317 20.3528C12.2739 20.5726 12.3496 20.8287 12.3497 21.0906C12.3499 21.8408 11.7419 22.4493 10.9916 22.4495Z" fill="#363636"/>
<path d="M6.84163 14.4089L6.02273 13.9277L1.98942 20.7835C1.94641 20.8566 1.92374 20.94 1.92383 21.0248C1.9241 21.2872 2.137 21.4996 2.39934 21.4993H5.69921V20.5493H3.2292L6.84163 14.4089Z" fill="#363636"/>
<path d="M21.6531 11.5254H14.2497C13.2003 11.5254 12.3496 12.3761 12.3496 13.4254V21.0256C12.3512 22.3367 13.4136 23.3991 14.7246 23.4006H18.9997C20.3108 23.3991 21.3732 22.3366 21.3747 21.0256V14.5721L22.4644 13.4829C22.6789 13.268 22.7994 12.9768 22.7996 12.6732C22.8 12.0396 22.2867 11.5257 21.6531 11.5254ZM21.7923 12.8113L20.5639 14.0396C20.4749 14.1287 20.4248 14.2495 20.4248 14.3754V21.0255C20.4248 21.8126 19.7868 22.4506 18.9998 22.4506H14.7247C13.9377 22.4506 13.2997 21.8126 13.2997 21.0255V13.4254C13.2997 12.9008 13.725 12.4754 14.2497 12.4754H21.6531C21.7054 12.4754 21.7556 12.4961 21.7926 12.5332C21.8693 12.61 21.8692 12.7345 21.7923 12.8113Z" fill="#363636"/>
<path d="M18.5266 14.375V20.5501H17.1016V21.5001H19.0016C19.2639 21.5001 19.4766 21.2874 19.4766 21.0251V14.375H18.5266Z" fill="#363636"/>
<path d="M13.3009 7.47963V1.07463C13.3009 0.812294 13.0882 0.599609 12.8259 0.599609H9.50082C9.23848 0.599609 9.02579 0.812294 9.02579 1.07463V7.61456C8.44608 7.79304 7.8884 8.03637 7.36328 8.3399L7.8383 9.16214C8.39638 8.8399 8.9956 8.59493 9.61958 8.43395C9.82942 8.37975 9.97602 8.1904 9.97584 7.97367V1.54961H12.3509V7.86296C12.351 8.09096 12.5131 8.28677 12.737 8.32943C14.4026 8.64784 15.9003 9.5493 16.9613 10.8722L17.7018 10.2774C16.584 8.88444 15.0365 7.90068 13.3009 7.47963Z" fill="#363636"/>
<path d="M20.186 7.25C19.2677 7.25 18.5234 7.99435 18.5234 8.91251C18.5234 9.83072 19.2678 10.575 20.186 10.575C21.1042 10.575 21.8485 9.83068 21.8485 8.91251C21.8485 7.99435 21.1042 7.25 20.186 7.25ZM20.186 9.62507C19.7924 9.62507 19.4734 9.30609 19.4734 8.91256C19.4734 8.51903 19.7924 8.20005 20.186 8.20005C20.5795 8.20005 20.8985 8.51903 20.8985 8.91256C20.8985 9.30609 20.5795 9.62507 20.186 9.62507Z" fill="#363636"/>
<path d="M18.5266 3.92383C17.7396 3.92383 17.1016 4.56184 17.1016 5.34885C17.1016 6.13587 17.7396 6.77388 18.5266 6.77388C19.3136 6.77388 19.9516 6.13587 19.9516 5.34885C19.9516 4.56184 19.3136 3.92383 18.5266 3.92383ZM18.5266 5.82383C18.2642 5.82383 18.0516 5.61115 18.0516 5.34881C18.0516 5.08647 18.2642 4.87383 18.5266 4.87383C18.7889 4.87383 19.0016 5.08651 19.0016 5.34885C19.0016 5.61119 18.7889 5.82383 18.5266 5.82383Z" fill="#363636"/>
<path d="M1.66251 4.40039C0.744308 4.40039 0 5.14474 0 6.0629C0 6.98111 0.744308 7.72546 1.66251 7.72546C2.58072 7.72546 3.32503 6.98111 3.32503 6.06295C3.32503 5.14474 2.58072 4.40039 1.66251 4.40039ZM1.66251 6.77546C1.26898 6.77546 0.950001 6.45648 0.950001 6.06295C0.950001 5.66942 1.26898 5.35044 1.66251 5.35044C2.05604 5.35044 2.37503 5.66942 2.37503 6.06295C2.37503 6.45648 2.05604 6.77546 1.66251 6.77546Z" fill="#363636"/>
<path d="M3.80002 1.07422C3.01301 1.07422 2.375 1.71223 2.375 2.49924C2.375 3.28626 3.01301 3.92427 3.80002 3.92427C4.58704 3.92427 5.22505 3.28626 5.22505 2.49924C5.22505 1.71223 4.58704 1.07422 3.80002 1.07422ZM3.80002 2.97422C3.53769 2.97422 3.325 2.76154 3.325 2.4992C3.325 2.23691 3.53769 2.02422 3.80002 2.02422C4.06236 2.02422 4.27505 2.23691 4.27505 2.49924C4.27505 2.76158 4.06236 2.97422 3.80002 2.97422Z" fill="#363636"/>
<path d="M15.675 14.375H14.25V15.325H15.675V14.375Z" fill="#363636"/>
<path d="M15.2 16.2754H14.25V17.2254H15.2V16.2754Z" fill="#363636"/>
<path d="M15.675 18.1758H14.25V19.1258H15.675V18.1758Z" fill="#363636"/>
<path d="M15.2 20.0742H14.25V21.0242H15.2V20.0742Z" fill="#363636"/>
<path d="M1.89922 9.15039H0.949219V10.1004H1.89922V9.15039Z" fill="#363636"/>
<path d="M3.325 11.5254H2.375V12.4754H3.325V11.5254Z" fill="#363636"/>
<path d="M11.4012 13.4258H10.4512V14.3758H11.4012V13.4258Z" fill="#363636"/>
<path d="M10.45 11.5254H9.5V12.4754H10.45V11.5254Z" fill="#363636"/>
<path d="M9.97539 9.625H9.02539V10.575H9.97539V9.625Z" fill="#363636"/>
<path d="M10.45 20.0742H9.5V21.0242H10.45V20.0742Z" fill="#363636"/>
<path d="M9.02617 18.1758H8.07617V19.1258H9.02617V18.1758Z" fill="#363636"/>
</svg>
