<svg width="18" height="18" viewBox="0 0 18 18" fill="none" xmlns="http://www.w3.org/2000/svg">
<g clip-path="url(#clip0_109_4224)">
<path d="M9 0.5C4.30563 0.5 0.5 4.30563 0.5 9C0.5 13.6944 4.30563 17.5 9 17.5C13.6944 17.5 17.5 13.6944 17.5 9C17.4947 4.30785 13.6922 0.505257 9 0.5ZM16.3513 11.9778L13.934 12.3949C14.2107 11.3801 14.3601 10.3349 14.3788 9.28333H16.9263C16.8943 10.2083 16.6997 11.1204 16.3513 11.9778ZM1.07372 9.28333H3.62123C3.63991 10.3349 3.78932 11.3801 4.06602 12.3949L1.64869 11.9778C1.30033 11.1204 1.10568 10.2083 1.07372 9.28333ZM1.64869 6.02223L4.06602 5.60512C3.78932 6.61989 3.63991 7.6651 3.62123 8.71667H1.07372C1.10568 7.79168 1.30033 6.87957 1.64869 6.02223ZM9.28333 5.04924C10.3014 5.06225 11.317 5.15494 12.3207 5.32663L13.3208 5.49915C13.6281 6.54477 13.7934 7.62691 13.8124 8.71667H9.28333V5.04924ZM12.4173 4.76812C11.3818 4.59118 10.3338 4.49558 9.28333 4.48258V1.08258C10.9077 1.23863 12.3187 2.72585 13.1183 4.89028L12.4173 4.76812ZM8.71667 4.48258C7.6662 4.49558 6.61851 4.59118 5.58298 4.76812L4.88171 4.88945C5.68135 2.72447 7.09234 1.23669 8.71667 1.08133V4.48258ZM5.67955 5.32663C6.68311 5.15494 7.69858 5.06225 8.71667 5.04924V8.71667H4.18762C4.20658 7.62691 4.3719 6.54477 4.67917 5.49915L5.67955 5.32663ZM4.18762 9.28333H8.71667V12.9508C7.69858 12.9378 6.68298 12.8451 5.67927 12.6734L4.67917 12.5009C4.3719 11.4552 4.20658 10.3731 4.18762 9.28333ZM5.58271 13.2319C6.61823 13.4091 7.66606 13.5051 8.71667 13.5189V16.9189C7.09234 16.7628 5.68135 15.2755 4.88171 13.1111L5.58271 13.2319ZM9.28333 13.5189C10.3338 13.5051 11.3815 13.4091 12.417 13.2319L13.1183 13.1105C12.3187 15.2755 10.9077 16.7633 9.28333 16.9187V13.5189ZM12.3205 12.6734C11.3169 12.8451 10.3014 12.9378 9.28333 12.9508V9.28333H13.8124C13.7934 10.3731 13.6281 11.4552 13.3208 12.5009L12.3205 12.6734ZM14.3788 8.71667C14.3601 7.6651 14.2107 6.61989 13.934 5.60512L16.3513 6.02223C16.6997 6.87957 16.8943 7.79168 16.9263 8.71667H14.3788ZM16.0647 5.39774L13.7475 4.99792C13.3309 3.63894 12.5516 2.41928 11.4933 1.47036C13.4723 2.13083 15.1135 3.54071 16.0647 5.39774ZM6.50672 1.47036C5.44837 2.41928 4.66907 3.63894 4.25251 4.99792L1.93534 5.39774C2.88647 3.54071 4.52768 2.13083 6.50672 1.47036ZM1.93534 12.6023L4.25251 13.0021C4.66907 14.3611 5.44837 15.5807 6.50672 16.5296C4.52768 15.8692 2.88647 14.4593 1.93534 12.6023ZM11.4933 16.5296C12.5516 15.5807 13.3309 14.3611 13.7475 13.0021L16.0647 12.6023C15.1135 14.4593 13.4723 15.8692 11.4933 16.5296Z" fill="#363636"/>
</g>
<defs>
<clipPath id="clip0_109_4224">
<rect width="17" height="17" fill="white" transform="translate(0.5 0.5)"/>
</clipPath>
</defs>
</svg>
