<svg height="512pt" viewBox="0 -28 512 512" width="512pt" xmlns="http://www.w3.org/2000/svg"><path d="m494.578125 321.046875c-63.222656-13.308594-89.152344-56.058594-99.597656-84.777344 14.675781-2.101562 29.152343-5.496093 43.21875-10.148437 10.3125-3.410156 18.71875-11.074219 23.0625-21.035156 4.347656-9.964844 4.246093-21.347657-.28125-31.25l-.191407-.410157c-8.121093-17.761719-28.253906-26.535156-46.84375-20.402343-8.226562 2.714843-16.664062 4.8125-25.214843 6.273437v-26.566406c0-73.1875-59.542969-132.730469-132.730469-132.730469s-132.730469 59.542969-132.730469 132.730469v26.890625c-9.226562-1.464844-18.324219-3.671875-27.1875-6.597656-18.578125-6.132813-38.71875 2.640624-46.835937 20.386718l-.199219.441406c-4.523437 9.886719-4.625 21.269532-.277344 31.234376 4.34375 9.957031 12.75 17.625 23.0625 21.035156 14.664063 4.847656 29.765625 8.328125 45.089844 10.402344-10.496094 28.6875-36.464844 71.25-99.5 84.523437l-17.421875 3.667969 6.589844 16.539062c.671875 1.691406 15.804687 38.113282 67.382812 42.5.863282 10.089844 4.058594 22.210938 13.492188 29.757813 9.511718 7.609375 20.320312 4.683593 29.859375 2.097656 14.035156-3.800781 33.257812-9.011719 62.769531 10.664063 28.730469 19.152343 52.316406 28.730468 75.90625 28.730468s47.175781-9.578125 75.90625-28.730468c29.511719-19.675782 48.734375-14.46875 62.769531-10.664063 9.539063 2.585937 20.34375 5.511719 29.859375-2.097656 9.433594-7.546875 12.628906-19.667969 13.492188-29.757813 51.570312-4.390625 66.707031-40.808594 67.382812-42.5l6.589844-16.539062zm-71.171875 33.089844-17.867188-.765625 2.414063 17.707031c.808594 6.25.175781 13.136719-.992187 16.773437-1.429688-.347656-3.070313-.792968-4.449219-1.164062-16.210938-4.394531-46.394531-12.574219-87.226563 14.652344-24.867187 16.574218-42.597656 23.648437-59.285156 23.648437s-34.417969-7.074219-59.285156-23.648437c-22.660156-15.109375-42.039063-19.3125-57.570313-19.3125-12.457031 0-22.441406 2.703125-29.65625 4.660156-1.382812.375-3.035156.820312-4.464843 1.167969-1.292969-3.957031-1.671876-11.414063-.984376-16.722657l2.414063-17.710937-17.859375.714844c-20.199219.816406-33.375-4.410157-41.667969-10.207031 30.03125-10.4375 54.710938-28.007813 73.570313-52.433594 19.371094-25.089844 27.453125-51.335938 30.546875-64.746094l3.980469-17.261719-17.679688-1.0625c-19.117188-1.148437-37.992188-4.769531-56.105469-10.757812-3.0625-1.011719-4.449219-3.292969-5.003906-4.5625-.554687-1.273438-1.285156-3.847657.089844-6.847657l.167969-.367187c1.761718-3.851563 6.144531-5.746094 10.199218-4.410156 16.34375 5.394531 33.363282 8.703125 50.582032 9.832031l15.964843 1.046875v-59.628906c0-56.664063 46.097657-102.761719 102.761719-102.761719s102.761719 46.097656 102.761719 102.761719v59.660156l16.121093-1.226563c16.492188-1.253906 32.796876-4.511718 48.457032-9.683593 4.050781-1.335938 8.4375.558593 10.210937 4.429687l.1875.410156c1.34375 2.941407.613281 5.515626.058594 6.785157-.554687 1.273437-1.941406 3.554687-5.003906 4.566406-17.546875 5.800781-35.8125 9.382813-54.285157 10.648437l-17.511718 1.199219 3.929687 17.101563c3.082031 13.410156 11.140625 39.652344 30.492188 64.765625 18.867187 24.484375 43.578125 42.09375 73.660156 52.542969-8.296875 5.796874-21.457031 11.023437-41.671875 10.207031zm0 0"/></svg>