<svg width="19" height="20" viewBox="0 0 19 20" fill="none" xmlns="http://www.w3.org/2000/svg">
<path d="M6.81928 9.42364C6.68079 9.18443 6.76262 8.87597 7.00183 8.73748C7.24105 8.59899 7.5495 8.68082 7.68799 8.92003L8.34897 10.0657L10.697 7.71768C10.8922 7.52254 11.2132 7.52254 11.4084 7.71768C11.6035 7.91283 11.6035 8.23387 11.4084 8.42902L8.59448 11.2429C8.36156 11.4758 7.97127 11.4255 7.8076 11.1422L6.81928 9.42364ZM9.15474 4.10433C11.8931 4.10433 14.1152 6.32648 14.1152 9.06482C14.1152 11.8032 11.8931 14.0253 9.15474 14.0253C6.41639 14.0253 4.19424 11.8032 4.19424 9.06482C4.19424 6.32648 6.41639 4.10433 9.15474 4.10433ZM11.9497 6.26982C10.4075 4.72754 7.90203 4.72754 6.35974 6.26982C4.81745 7.81211 4.81745 10.3175 6.35974 11.8598C7.90203 13.4021 10.4075 13.4021 11.9497 11.8598C13.492 10.3112 13.492 7.81211 11.9497 6.26982ZM9.15474 0.988281C13.6116 0.988281 17.225 4.60163 17.225 9.05852C17.225 10.7456 16.7088 12.3131 15.8212 13.6098L18.2322 17.7835C18.4651 18.1737 18.1441 18.6144 17.7286 18.5514L15.2609 18.1612L13.939 19.7853C13.7061 20.0874 13.2717 20.0371 13.1017 19.7349L11.4147 16.814C9.94162 17.2421 8.36156 17.2421 6.89482 16.814L5.20775 19.7349C5.03778 20.0371 4.60342 20.0874 4.37051 19.7853L3.04855 18.1612L0.580891 18.5514C0.159123 18.6207 -0.136744 18.1612 0.0646975 17.8023L2.48829 13.6098C0.297614 10.4057 0.706791 6.09356 3.45143 3.34892C4.90558 1.89477 6.92629 0.988281 9.15474 0.988281ZM15.1539 14.4597C14.3859 15.3158 13.4417 16.002 12.3715 16.4678L13.6053 18.6018L14.6629 17.305C14.7825 17.1539 14.9651 17.0973 15.1413 17.1288L16.841 17.3995L15.1539 14.4597ZM5.93168 16.4678C4.86781 16.002 3.92356 15.3158 3.15556 14.466L1.4622 17.3995L3.16186 17.1288C3.33182 17.0973 3.52067 17.1602 3.64028 17.305L4.69785 18.6018L5.93168 16.4678ZM14.153 4.06656C11.3958 1.30933 6.92 1.30933 4.16277 4.06656C1.40554 6.82379 1.40554 11.2996 4.16277 14.0568C6.92629 16.814 11.3958 16.814 14.153 14.0568C16.9102 11.2996 16.9102 6.82379 14.153 4.06656Z" fill="#363636"/>
</svg>
