<svg width="24" height="24" viewBox="0 0 24 24" fill="none" xmlns="http://www.w3.org/2000/svg">
<path d="M11.9995 0C15.3108 0 18.3108 1.34385 20.4825 3.51502C22.6561 5.689 24 8.68888 24 12C24 15.3111 22.6561 18.311 20.4853 20.4826C18.3108 22.6561 15.3108 24 11.9995 24C8.68594 24 5.68547 22.6561 3.51469 20.4854L3.47531 20.4428C1.3275 18.2744 0 15.2914 0 12C0 8.68888 1.34391 5.689 3.51469 3.51783C5.68547 1.34385 8.68594 0 11.9995 0ZM11.9428 8.81544C12.6933 8.03359 13.2183 7.35721 14.3742 7.22503C16.5441 6.97613 18.5405 9.19745 17.4445 11.3846C17.1323 12.007 16.4977 12.7481 15.795 13.4746C15.0244 14.2729 14.1713 15.0547 13.5736 15.6472L11.9438 17.2643L10.5975 15.9683C8.97703 14.4074 6.33469 12.4434 6.2475 10.0107C6.18656 8.30639 7.53141 7.21425 9.07875 7.23394C10.4611 7.25222 11.0428 7.94031 11.9428 8.81544ZM19.4602 4.54013C17.5523 2.63287 14.9137 1.45213 11.9995 1.45213C9.08672 1.45213 6.44906 2.63333 4.54125 4.54107C2.6325 6.44787 1.45219 9.0859 1.45219 12C1.45219 14.8963 2.61891 17.5203 4.50563 19.4256L4.54125 19.4589C6.44906 21.3667 9.08672 22.5479 11.9995 22.5479C14.9137 22.5479 17.5523 21.3671 19.4602 19.4599C21.367 17.5521 22.5478 14.9141 22.5478 12C22.5478 9.0859 21.367 6.44787 19.4602 4.54013Z" fill="white"/>
</svg>
