<svg width="14" height="17" viewBox="0 0 14 17" fill="none" xmlns="http://www.w3.org/2000/svg">
<g clip-path="url(#clip0_660_18733)">
<path d="M7.17684 16.0001H4.35538C3.8841 16.0001 3.50074 15.6512 3.50074 15.2224V9.43181H1.85464C1.38336 9.43181 1 9.08286 1 8.65417V6.17288C1 5.74407 1.38336 5.39524 1.85464 5.39524H3.50074V4.1527C3.50074 2.92068 3.92591 1.87249 4.73014 1.12164C5.538 0.367356 6.66699 -0.03125 7.99505 -0.03125L10.1468 -0.02807C10.6173 -0.0273361 11 0.32149 11 0.749572V3.05339C11 3.4822 10.6168 3.83103 10.1456 3.83103L8.69686 3.83152C8.25502 3.83152 8.14251 3.91212 8.11845 3.93683C8.0788 3.9778 8.03162 4.09363 8.03162 4.41347V5.39512H10.0368C10.1877 5.39512 10.334 5.429 10.4596 5.49284C10.7308 5.63069 10.8993 5.89133 10.8993 6.17301L10.8982 8.65429C10.8982 9.08286 10.5149 9.43169 10.0436 9.43169H8.03162V15.2224C8.03162 15.6512 7.64812 16.0001 7.17684 16.0001ZM4.53362 15.0602H6.9986V9.01107C6.9986 8.72474 7.25467 8.49187 7.56921 8.49187H9.86537L9.86631 6.33507H7.56908C7.25454 6.33507 6.9986 6.10219 6.9986 5.81586V4.41347C6.9986 4.04629 7.0396 3.62873 7.34419 3.31488C7.71223 2.93548 8.29225 2.8917 8.69659 2.8917L9.96712 2.89121V0.911509L7.99425 0.908574C5.85994 0.908574 4.53362 2.15172 4.53362 4.1527V5.81586C4.53362 6.10207 4.27768 6.33507 3.96314 6.33507H2.03288V8.49187H3.96314C4.27768 8.49187 4.53362 8.72474 4.53362 9.01107V15.0602Z" fill="#2E9CB7"/>
</g>
<defs>
<clipPath id="clip0_660_18733">
<rect width="14" height="16.0313" fill="white"/>
</clipPath>
</defs>
</svg>
