<svg width="18" height="18" viewBox="0 0 18 18" fill="none" xmlns="http://www.w3.org/2000/svg">
<path d="M9.00016 10.7272C7.67796 10.7272 6.59766 9.65271 6.59766 8.32469C6.59766 6.99835 7.67627 5.92969 9.00016 5.92969C10.3224 5.92969 11.4027 7.00417 11.4027 8.33219C11.4027 9.65852 10.324 10.7272 9.00016 10.7272ZM9.00016 6.05469C7.75039 6.05469 6.72266 7.07217 6.72266 8.33219C6.72266 9.59083 7.74151 10.6097 9.00016 10.6097C10.2588 10.6097 11.2777 9.59083 11.2777 8.33219C11.2777 7.07217 10.2499 6.05469 9.00016 6.05469Z" fill="#363636" stroke="#363636"/>
<path d="M2.6562 6.95835L2.65633 6.95779C3.42487 3.57204 6.37689 2.03711 9.00123 2.03711H9.00124H9.00124H9.00124H9.00125H9.00125H9.00126H9.00126H9.00126H9.00127H9.00127H9.00128H9.00128H9.00128H9.00129H9.00129H9.0013H9.0013H9.00131H9.00131H9.00131H9.00132H9.00132H9.00133H9.00133H9.00134H9.00134H9.00135H9.00135H9.00136H9.00137H9.00137H9.00138H9.00139H9.00139H9.0014H9.00141H9.00141H9.00142H9.00142H9.00143H9.00143H9.00144H9.00144H9.00144H9.00145H9.00145H9.00146H9.00146H9.00146H9.00147H9.00147H9.00148H9.00148H9.00149H9.00149H9.0015H9.0015H9.00151H9.00151H9.00152H9.00152H9.00153H9.00153H9.00154H9.00154H9.00155H9.00155H9.00156H9.00156H9.00157H9.00157H9.00158H9.00159H9.00159H9.0016H9.0016H9.00161H9.00162H9.00162H9.00163H9.00163H9.00164H9.00165H9.00165H9.00166H9.00167H9.00167H9.00168H9.00169H9.00169H9.0017H9.00171H9.00171H9.00172H9.00173H9.00173H9.00174H9.00175H9.00176H9.00176H9.00177H9.00178H9.00179H9.00179H9.0018H9.00181H9.00182H9.00183H9.00183H9.00184H9.00185H9.00186H9.00187H9.00188H9.00189H9.00189H9.0019H9.00191H9.00192H9.00193H9.00194H9.00195H9.00196H9.00197H9.00198H9.00199H9.00199H9.002H9.00201H9.00202H9.00203H9.00204H9.00205H9.00206H9.00207H9.00208H9.00209H9.0021H9.00212H9.00213H9.00214H9.00215H9.00216H9.00217H9.00218H9.00219H9.0022H9.00221H9.00223H9.00224H9.00225H9.00226H9.00227H9.00228H9.0023H9.00231H9.00232H9.00233H9.00234H9.00236H9.00237H9.00238H9.00239H9.00241H9.00242H9.00243H9.00245H9.00246H9.00247H9.00248H9.0025H9.00251H9.00253H9.00254H9.00255H9.00257H9.00258H9.00259H9.00261H9.00262H9.00264H9.00265H9.00267H9.00268H9.0027H9.00271H9.00273H9.00274H9.00276H9.00277H9.00279H9.0028H9.00282H9.00283H9.00285H9.00286H9.00288H9.0029H9.00291H9.00293H9.00295H9.00296H9.00298H9.003H9.00301H9.00303H9.00305H9.00306H9.00308H9.0031H9.00311H9.00313H9.00315H9.00317H9.00319H9.0032H9.00322H9.00324H9.00326H9.00328H9.00329H9.00331H9.00333H9.00335H9.00337H9.00339H9.00341H9.00343H9.00345H9.00347H9.00349H9.00351H9.00353H9.00355H9.00357H9.00359H9.00361H9.00363H9.00365H9.00367H9.00369H9.00371H9.00373H9.00375H9.00377H9.0038H9.00382H9.00384H9.00386H9.00388H9.0039H9.00393H9.00395H9.00397H9.00399H9.00402H9.00404H9.00406H9.00409H9.00411H9.00413H9.00416H9.00418H9.0042H9.00423H9.00425H9.00427H9.0043H9.00432H9.00435H9.00437H9.0044H9.00442H9.00445H9.00447H9.0045H9.00452H9.00455H9.00457H9.0046H9.00462H9.00465H9.00468H9.0047H9.00473H9.00475H9.00478H9.00481H9.00484H9.00486H9.00489H9.00492H9.00494H9.00497H9.005H9.00503H9.00505H9.00508H9.00511H9.00514H9.00517H9.0052H9.00523H9.00525H9.00528H9.00531H9.00534H9.00537H9.0054H9.00543H9.00546H9.00549H9.00552H9.00555H9.00558H9.00561H9.00564H9.00567H9.00571H9.00574H9.00577H9.0058H9.00583H9.00586H9.0059H9.00593H9.00596H9.00599H9.00602H9.00606H9.00609H9.00612H9.00616H9.00619H9.00622H9.00626H9.00629H9.00632H9.00636H9.00639H9.00643H9.00646H9.0065H9.00653H9.00657H9.0066H9.00664H9.00667H9.00671H9.00674H9.00678H9.00681H9.00685H9.00689H9.00692H9.00696H9.007H9.00703H9.00707H9.00711H9.00715H9.00718H9.00722H9.00726H9.0073H9.00733H9.00737H9.00741H9.00745H9.00749H9.00753H9.00757H9.00761H9.00765H9.00769H9.00773H9.00777H9.00781H9.00785H9.00789H9.00793H9.00797H9.00801H9.00805H9.00809H9.00813H9.00817H9.00822H9.00826H9.0083H9.00834H9.00839H9.00843H9.00847H9.00851H9.00856H9.0086H9.00864H9.00869H9.00873C11.6327 2.03711 14.5848 3.5717 15.3536 6.96499C16.2074 10.7373 13.9353 13.9548 11.7524 16.0565C10.9776 16.7976 9.98499 17.1696 9.00123 17.1696C8.01747 17.1696 7.0249 16.7976 6.2501 16.0565C4.06737 13.955 1.79542 10.7304 2.6562 6.95835ZM15.234 6.98483L15.2336 6.98283C14.4147 3.41256 11.3324 2.16211 9.00123 2.16211C6.66967 2.16211 3.59474 3.41296 2.78376 6.98338C1.91098 10.7909 4.31114 14.0098 6.34462 15.96C7.83572 17.3987 10.1744 17.3987 11.6655 15.9598C13.6913 14.0098 16.0907 10.7916 15.234 6.98483Z" fill="#363636" stroke="#363636"/>
</svg>
