<svg width="24" height="25" viewBox="0 0 24 25" fill="none" xmlns="http://www.w3.org/2000/svg">
<path fill-rule="evenodd" clip-rule="evenodd" d="M22.7796 8.25803L22.7254 8.33354C22.7312 8.43506 22.7359 8.53222 22.7396 8.62312L22.752 9.1912C22.7507 9.2251 22.7514 9.26045 22.7543 9.29725V18.7943C22.7543 19.1902 22.2534 20.0279 21.9015 20.2259C21.775 20.297 21.1668 20.6467 20.4243 21.0736L20.418 21.0772L20.4158 21.0784C19.0936 21.8386 17.3507 22.8406 17.1398 22.9531C16.8099 23.1291 15.8202 23.1181 15.4903 22.9531L9.71695 20.3728C9.33206 20.1859 8.8152 19.9659 8.34234 19.9659C7.94699 19.9659 7.68187 20.1533 7.39932 20.353C7.29677 20.4255 7.19191 20.4996 7.0777 20.5669L4.49344 22.0405C3.88861 22.3814 2.64597 22.0624 2.29407 21.8534C1.94217 21.6555 1.85928 20.9167 1.85928 20.2239V9.52398C1.85928 8.72428 2.49201 8.3053 2.84391 8.10736L7.60555 5.38014C7.93546 5.20419 8.8372 5.05024 9.1671 5.21519L13.8582 7.56522C13.8565 7.56236 13.8548 7.55949 13.853 7.55662C13.515 6.99739 13.274 6.38872 13.1362 5.74986L9.82588 4.09153C9.00112 3.67365 7.78047 3.70664 6.9777 4.16851L2.21606 6.89573C1.34731 7.39059 0.6875 8.52326 0.6875 9.52398V20.2129C0.6875 21.5105 1.18236 22.5443 2.06211 23.0501C2.93086 23.567 4.08553 23.479 5.20721 22.8412L7.80246 21.3566C8.12137 21.1696 8.77018 21.1586 9.10009 21.3236L14.8734 24.2158C15.2583 24.4027 15.7312 24.5017 16.2041 24.5017C16.7429 24.5017 17.2927 24.3807 17.7106 24.1608L22.4723 21.4336C23.341 20.9387 24.0008 19.806 24.0008 18.8053V9.22037C24.0008 8.54569 23.1817 8.40257 22.8699 8.82861L22.7796 8.25803ZM22.7537 9.16131C22.7604 9.07016 22.7821 8.99 22.815 8.92074L22.7396 8.62312C22.749 8.85265 22.7524 9.04227 22.7537 9.16131ZM22.7537 9.16131C22.7546 9.24799 22.7543 9.29725 22.7543 9.29725L22.752 9.1912C22.7524 9.18111 22.7529 9.17115 22.7537 9.16131Z" fill="#2E9CB7"/>
<path d="M8.34281 20.755C8.04223 20.755 7.79297 20.3683 7.79297 19.9018V5.11297C7.79297 4.64655 8.04223 4.25977 8.34281 4.25977C8.64339 4.25977 8.89265 4.64655 8.89265 5.11297V19.9018C8.89265 20.3683 8.64339 20.755 8.34281 20.755Z" fill="#2E9CB7"/>
<path d="M15.5342 23.5906C15.2336 23.5906 14.9844 23.3393 14.9844 23.0363V13.148C14.9844 12.845 15.2336 12.5938 15.5342 12.5938C15.8348 12.5938 16.0841 12.845 16.0841 13.148V23.0363C16.0841 23.3393 15.8348 23.5906 15.5342 23.5906Z" fill="#2E9CB7"/>
<path d="M18.1879 6.49914C18.9786 6.49914 19.6219 5.82643 19.6219 4.99957C19.6219 4.17271 18.9786 3.5 18.1879 3.5C17.3972 3.5 16.7539 4.17271 16.7539 4.99957C16.7539 5.82643 17.3972 6.49914 18.1879 6.49914ZM18.1879 4.49971C18.4515 4.49971 18.6659 4.72395 18.6659 4.99957C18.6659 5.27519 18.4515 5.49943 18.1879 5.49943C17.9243 5.49943 17.7099 5.27519 17.7099 4.99957C17.7099 4.72395 17.9243 4.49971 18.1879 4.49971Z" fill="#2E9CB7"/>
<path d="M22.4908 4.99871C22.4908 2.51812 20.5609 0.5 18.1887 0.5C15.8166 0.5 13.8867 2.51812 13.8867 4.99871C13.8867 5.98006 14.1836 6.91269 14.7453 7.69579L17.0411 10.8965C17.3108 11.2724 17.7398 11.4969 18.1887 11.4969C18.6377 11.4969 19.0667 11.2724 19.3364 10.8965L21.6322 7.69579C22.1939 6.91269 22.4908 5.98006 22.4908 4.99871ZM21.1074 7.39426L18.5127 10.696C18.4213 10.8234 18.2817 10.8965 18.1298 10.8965C17.9779 10.8965 17.8384 10.8234 17.747 10.696L15.4564 7.39426C15.0199 6.78559 14.5146 5.76202 14.5146 4.99871C14.5146 3.06936 16.3437 1.1566 18.1887 1.1566C20.0337 1.1566 21.962 3.06936 21.962 4.99871C21.962 5.76202 21.544 6.78559 21.1074 7.39426Z" fill="#2E9CB7"/>
</svg>
