<svg width="24" height="24" viewBox="0 0 24 24" fill="none" xmlns="http://www.w3.org/2000/svg">
<path d="M23.8326 17.3776C23.6801 16.4507 22.892 15.7529 21.9589 15.7183C20.0353 15.6463 18.1005 15.6047 16.1637 15.5925C16.1699 14.2601 16.1311 12.9157 16.047 11.5905C15.9561 10.152 14.8028 9.00525 13.3642 8.92298C11.6024 8.82275 9.82534 8.77194 8.08225 8.77194C7.10199 8.77194 6.11081 8.78858 5.11766 8.8205C5.12259 8.06713 5.1336 7.30416 5.15137 6.54586C5.15592 6.35174 5.00225 6.19067 4.80813 6.18613C4.61251 6.18116 4.45294 6.33524 4.44839 6.52936C4.4303 7.30158 4.41914 8.07871 4.41431 8.84572C3.87597 8.86705 3.33758 8.89241 2.80065 8.92298C2.69199 8.92921 2.58515 8.9422 2.48005 8.96025C2.48769 7.65536 2.51287 6.34387 2.55702 5.05422C2.62073 3.1854 4.07886 1.67261 5.9488 1.53536C6.65487 1.48341 7.37266 1.45707 8.0822 1.45707C8.79207 1.45707 9.51 1.48341 10.2161 1.53536C12.086 1.67266 13.5441 3.18549 13.6079 5.05455C13.6202 5.40683 13.6313 8.67769 13.6406 9.04657L11.7286 8.89447C11.7196 8.55452 11.6877 5.45788 11.6761 5.1205C11.6455 4.24118 10.957 3.52878 10.0743 3.46343C9.41315 3.41524 8.74294 3.39077 8.0822 3.39077C7.42179 3.39077 6.75172 3.41519 6.09019 3.46343C5.20786 3.52873 4.51937 4.24113 4.48876 5.12046C4.482 5.31453 4.63384 5.47729 4.82787 5.48409C5.02175 5.49093 5.18475 5.339 5.1915 5.14497C5.20959 4.62492 5.61827 4.20349 6.14171 4.16472C6.7859 4.11775 7.43876 4.09393 8.0822 4.09393C8.72592 4.09393 9.37898 4.11775 10.0227 4.16467C10.5466 4.20344 10.9552 4.62487 10.9733 5.14474C10.9887 5.59326 11.0235 8.80424 11.0342 9.2544C11.0387 9.44524 11.1997 9.53516 11.3906 9.53516L14.0221 9.59764C14.1167 9.59764 14.2073 9.55953 14.2734 9.49188C14.3396 9.42428 14.3757 9.33283 14.3736 9.23823C14.3626 8.74325 14.327 5.49913 14.3106 5.03026C14.2346 2.80171 12.4965 0.997763 10.2677 0.834067C9.5445 0.780861 8.80923 0.753906 8.0822 0.753906C7.35555 0.753906 6.62037 0.780861 5.89729 0.834067C3.6684 0.997716 1.93027 2.80171 1.85428 5.03022C1.80736 6.39947 1.78139 7.79346 1.77544 9.17799C0.846369 9.60505 0.185724 10.5163 0.11747 11.5906C-0.0394763 14.0737 -0.0391481 16.5951 0.118407 19.0847C0.209209 20.5233 1.36254 21.67 2.80098 21.7523C3.94502 21.8179 5.1006 21.8617 6.24104 21.8846C6.53023 22.5904 7.21051 23.0863 7.99313 23.1157C10.3084 23.2022 12.6433 23.2455 14.976 23.2455C16.637 23.2455 18.2969 23.2235 19.9473 23.1796C20.1415 23.1745 20.2946 23.0129 20.2894 22.8188C20.2842 22.6247 20.1205 22.4721 19.9286 22.4767C15.9751 22.582 11.9682 22.5606 8.01943 22.4131C7.41898 22.3905 6.91172 21.9399 6.81323 21.3416C6.60256 20.0645 6.60256 18.7693 6.81323 17.492C6.91172 16.8938 7.41888 16.4434 8.01934 16.4211C12.6355 16.2483 17.3165 16.2483 21.9327 16.4211C22.5331 16.4434 23.0403 16.8938 23.1388 17.4921C23.3494 18.7693 23.3494 20.0645 23.1388 21.3417C23.0403 21.9399 22.533 22.3905 21.9327 22.4131C21.7309 22.4206 21.5292 22.4276 21.3274 22.4346C21.1333 22.4413 20.9815 22.6041 20.9882 22.7982C20.995 22.9922 21.158 23.1442 21.3518 23.1373C21.5541 23.1303 21.7564 23.1233 21.9589 23.1157C22.892 23.0806 23.68 22.3826 23.8325 21.4561C24.0558 20.1029 24.0558 18.7307 23.8326 17.3776ZM7.99327 15.7183C7.06008 15.7529 6.27202 16.4507 6.11948 17.3775C5.91154 18.638 5.89752 19.9149 6.07697 21.1775C5.0031 21.1539 3.91718 21.1119 2.84124 21.0502C1.75748 20.9882 0.888653 20.1242 0.820211 19.0403C0.664531 16.5801 0.664203 14.0886 0.819274 11.635C0.888137 10.551 1.7572 9.68689 2.84068 9.62497C4.58921 9.5255 6.35275 9.47506 8.08225 9.47506C9.81208 9.47506 11.5757 9.5255 13.3242 9.62497C14.408 9.68694 15.2768 10.551 15.3452 11.6349C15.4283 12.9444 15.4667 14.2728 15.4605 15.5894C12.966 15.583 10.4703 15.6256 7.99327 15.7183Z" fill="#787878"/>
<path d="M10.7741 18.4414C10.677 18.2732 10.462 18.2157 10.2938 18.3128L9.43407 18.8092V17.8164C9.43407 17.6223 9.27665 17.4648 9.08249 17.4648C8.88832 17.4648 8.73091 17.6223 8.73091 17.8164V18.8092L7.87117 18.3128C7.70297 18.2157 7.48795 18.2733 7.39091 18.4415C7.29383 18.6096 7.35144 18.8247 7.51959 18.9218L8.37932 19.4181L7.51959 19.9145C7.35144 20.0116 7.29383 20.2266 7.39091 20.3948C7.45602 20.5076 7.5742 20.5706 7.69571 20.5706C7.75534 20.5706 7.81581 20.5554 7.87117 20.5235L8.73091 20.0271V21.0199C8.73091 21.214 8.88832 21.3714 9.08249 21.3714C9.27665 21.3714 9.43407 21.214 9.43407 21.0199V20.0271L10.2938 20.5235C10.3492 20.5555 10.4096 20.5707 10.4693 20.5707C10.5908 20.5707 10.709 20.5076 10.7741 20.3948C10.8711 20.2267 10.8135 20.0117 10.6454 19.9146L9.78565 19.4182L10.6454 18.9218C10.8136 18.8247 10.8712 18.6096 10.7741 18.4414Z" fill="#787878"/>
<path d="M14.6413 18.4415C14.5442 18.2733 14.3291 18.2157 14.161 18.3128L13.3013 18.8092V17.8164C13.3013 17.6223 13.1438 17.4648 12.9497 17.4648C12.7555 17.4648 12.5981 17.6223 12.5981 17.8164V18.8092L11.7384 18.3128C11.5702 18.2157 11.3552 18.2733 11.2581 18.4415C11.161 18.6096 11.2186 18.8247 11.3868 18.9218L12.2465 19.4181L11.3868 19.9145C11.2186 20.0116 11.161 20.2266 11.2581 20.3948C11.3232 20.5076 11.4414 20.5706 11.5629 20.5706C11.6225 20.5706 11.683 20.5554 11.7384 20.5235L12.5981 20.0271V21.0199C12.5981 21.214 12.7555 21.3714 12.9497 21.3714C13.1438 21.3714 13.3013 21.214 13.3013 21.0199V20.0271L14.161 20.5235C14.2164 20.5554 14.2768 20.5706 14.3365 20.5706C14.458 20.5706 14.5761 20.5075 14.6413 20.3948C14.7383 20.2266 14.6807 20.0116 14.5126 19.9145L13.6528 19.4181L14.5126 18.9218C14.6807 18.8247 14.7383 18.6097 14.6413 18.4415Z" fill="#787878"/>
<path d="M18.5084 18.4415C18.4114 18.2733 18.1963 18.2157 18.0282 18.3128L17.1684 18.8092V17.8164C17.1684 17.6223 17.011 17.4648 16.8169 17.4648C16.6227 17.4648 16.4653 17.6223 16.4653 17.8164V18.8092L15.6055 18.3128C15.4374 18.2157 15.2224 18.2733 15.1253 18.4415C15.0282 18.6096 15.0858 18.8247 15.254 18.9218L16.1137 19.4181L15.254 19.9145C15.0858 20.0116 15.0282 20.2266 15.1253 20.3948C15.1904 20.5076 15.3086 20.5706 15.4301 20.5706C15.4897 20.5706 15.5502 20.5554 15.6055 20.5235L16.4653 20.0271V21.0199C16.4653 21.214 16.6227 21.3714 16.8169 21.3714C17.011 21.3714 17.1684 21.214 17.1684 21.0199V20.0271L18.0282 20.5235C18.0835 20.5554 18.144 20.5706 18.2036 20.5706C18.3251 20.5706 18.4433 20.5075 18.5084 20.3948C18.6055 20.2266 18.5479 20.0116 18.3798 19.9145L17.52 19.4181L18.3798 18.9218C18.5479 18.8247 18.6055 18.6097 18.5084 18.4415Z" fill="#787878"/>
<path d="M21.0396 20.0271L21.8993 20.5235C21.9547 20.5554 22.0152 20.5706 22.0748 20.5706C22.1963 20.5706 22.3145 20.5075 22.3796 20.3948C22.4767 20.2266 22.4191 20.0116 22.2509 19.9145L21.3911 19.4181L22.2509 18.9217C22.419 18.8246 22.4766 18.6096 22.3795 18.4414C22.2825 18.2732 22.0674 18.2157 21.8993 18.3128L21.0395 18.8092V17.8164C21.0395 17.6223 20.8821 17.4648 20.688 17.4648C20.4938 17.4648 20.3364 17.6223 20.3364 17.8164V18.8092L19.4766 18.3128C19.3085 18.2157 19.0935 18.2733 18.9964 18.4415C18.8993 18.6096 18.9569 18.8247 19.1251 18.9218L19.9848 19.4181L19.1251 19.9145C18.9569 20.0116 18.8993 20.2266 18.9964 20.3948C19.0615 20.5076 19.1797 20.5706 19.3012 20.5706C19.3608 20.5706 19.4213 20.5554 19.4766 20.5235L20.3364 20.0271V21.0199C20.3364 21.214 20.4938 21.3714 20.688 21.3714C20.8821 21.3714 21.0395 21.214 21.0395 21.0199V20.0271H21.0396Z" fill="#787878"/>
</svg>
