<svg width="24" height="27" viewBox="0 0 24 27" fill="none" xmlns="http://www.w3.org/2000/svg">
<g filter="url(#filter0_d_2145_33342)">
<path d="M8.80236 24.4609L8.80253 24.461C9.52054 24.9813 10.4999 25.25 11.495 25.25C12.4899 25.25 13.4729 24.9814 14.198 24.4606C14.1981 24.4605 14.1982 24.4604 14.1983 24.4604L19.9524 20.2977L8.80236 24.4609ZM8.80236 24.4609L3.04713 20.2974C3.04712 20.2974 3.04711 20.2974 3.04711 20.2974C2.58678 19.9643 2.13422 19.3871 1.79591 18.733C1.45746 18.0786 1.25 17.3794 1.25 16.8164V7.17941C1.25 6.6483 1.47581 6.04953 1.84765 5.52819M8.80236 24.4609L1.84765 5.52819M3.22717 4.40515L9.90528 1.97994C9.90533 1.97992 9.90539 1.9799 9.90544 1.97988C10.3172 1.83103 10.8981 1.7516 11.4956 1.75002C12.0918 1.74845 12.6766 1.82444 13.0967 1.96767L19.7705 4.39131C19.7709 4.39148 19.7714 4.39164 19.7718 4.39181C20.2829 4.58451 20.7808 5.00407 21.1523 5.52494C21.5246 6.04684 21.75 6.64233 21.75 7.16644V16.8164C21.75 17.3799 21.5456 18.0761 21.209 18.7283C20.8727 19.3801 20.4203 19.9575 19.9529 20.2974L3.22717 4.40515ZM3.22717 4.40515C3.22712 4.40517 3.22708 4.40519 3.22703 4.4052M3.22717 4.40515L3.22703 4.4052M1.84765 5.52819C2.21923 5.00721 2.71687 4.59137 3.22703 4.4052M1.84765 5.52819L3.22703 4.4052" fill="white" fill-opacity="0.3" stroke="white" stroke-width="0.5"/>
<path d="M15.25 11.2188C14.9938 11.2188 14.7812 11.0062 14.7812 10.75V9.5C14.7812 7.53125 14.225 6.21875 11.5 6.21875C8.775 6.21875 8.21875 7.53125 8.21875 9.5V10.75C8.21875 11.0062 8.00625 11.2188 7.75 11.2188C7.49375 11.2188 7.28125 11.0062 7.28125 10.75V9.5C7.28125 7.6875 7.71875 5.28125 11.5 5.28125C15.2812 5.28125 15.7188 7.6875 15.7188 9.5V10.75C15.7188 11.0062 15.5063 11.2188 15.25 11.2188Z" fill="#363636"/>
<path d="M14.625 18.7188H8.375C5.61875 18.7188 4.78125 17.8812 4.78125 15.125V13.875C4.78125 11.1188 5.61875 10.2812 8.375 10.2812H14.625C17.3813 10.2812 18.2188 11.1188 18.2188 13.875V15.125C18.2188 17.8812 17.3813 18.7188 14.625 18.7188ZM8.375 11.2188C6.1375 11.2188 5.71875 11.6438 5.71875 13.875V15.125C5.71875 17.3562 6.1375 17.7812 8.375 17.7812H14.625C16.8625 17.7812 17.2812 17.3562 17.2812 15.125V13.875C17.2812 11.6438 16.8625 11.2188 14.625 11.2188H8.375Z" fill="#363636"/>
<path d="M9 15.1243C8.91875 15.1243 8.8375 15.1056 8.7625 15.0743C8.68125 15.0431 8.61876 14.9993 8.55626 14.9431C8.44376 14.8243 8.375 14.6681 8.375 14.4993C8.375 14.4181 8.39374 14.3368 8.42499 14.2618C8.45624 14.1806 8.50001 14.1181 8.55626 14.0556C8.61876 13.9993 8.68125 13.9556 8.7625 13.9243C8.9875 13.8243 9.26874 13.8806 9.44374 14.0556C9.49999 14.1181 9.54376 14.1868 9.57501 14.2618C9.60626 14.3368 9.625 14.4181 9.625 14.4993C9.625 14.6618 9.55624 14.8243 9.44374 14.9431C9.32499 15.0556 9.1625 15.1243 9 15.1243Z" fill="#363636"/>
<path d="M11.5 15.1256C11.3375 15.1256 11.175 15.0568 11.0563 14.9443C10.9438 14.8256 10.875 14.6693 10.875 14.5006C10.875 14.4193 10.8875 14.3381 10.925 14.2631C10.9562 14.1881 11 14.1193 11.0563 14.0568C11.2 13.9131 11.4188 13.8443 11.6188 13.888C11.6625 13.8943 11.7 13.9068 11.7375 13.9255C11.775 13.938 11.8125 13.9568 11.85 13.9818C11.8812 14.0006 11.9125 14.0318 11.9437 14.0568C12 14.1193 12.0438 14.1881 12.075 14.2631C12.1063 14.3381 12.125 14.4193 12.125 14.5006C12.125 14.6693 12.0562 14.8256 11.9437 14.9443C11.9125 14.9693 11.8812 14.9943 11.85 15.0193C11.8125 15.0443 11.775 15.0631 11.7375 15.0756C11.7 15.0943 11.6625 15.1068 11.6188 15.1131C11.5813 15.1193 11.5375 15.1256 11.5 15.1256Z" fill="#363636"/>
<path d="M14 15.1256C13.8312 15.1256 13.675 15.0568 13.5563 14.9443C13.5 14.8818 13.4562 14.8131 13.425 14.7381C13.3937 14.6631 13.375 14.5818 13.375 14.5006C13.375 14.3381 13.4438 14.1756 13.5563 14.0568C13.5875 14.0318 13.6188 14.0068 13.65 13.9818C13.6875 13.9568 13.725 13.938 13.7625 13.9255C13.8 13.9068 13.8375 13.8943 13.875 13.888C14.0812 13.8443 14.2937 13.9131 14.4437 14.0568C14.5562 14.1756 14.625 14.3318 14.625 14.5006C14.625 14.5818 14.6063 14.6631 14.575 14.7381C14.5438 14.8193 14.5 14.8818 14.4437 14.9443C14.325 15.0568 14.1625 15.1256 14 15.1256Z" fill="#363636"/>
</g>
<defs>
<filter id="filter0_d_2145_33342" x="-1" y="0.5" width="26" height="26.2305" filterUnits="userSpaceOnUse" color-interpolation-filters="sRGB">
<feFlood flood-opacity="0" result="BackgroundImageFix"/>
<feColorMatrix in="SourceAlpha" type="matrix" values="0 0 0 0 0 0 0 0 0 0 0 0 0 0 0 0 0 0 127 0" result="hardAlpha"/>
<feOffset/>
<feGaussianBlur stdDeviation="0.5"/>
<feComposite in2="hardAlpha" operator="out"/>
<feColorMatrix type="matrix" values="0 0 0 0 0 0 0 0 0 0 0 0 0 0 0 0 0 0 0.25 0"/>
<feBlend mode="normal" in2="BackgroundImageFix" result="effect1_dropShadow_2145_33342"/>
<feBlend mode="normal" in="SourceGraphic" in2="effect1_dropShadow_2145_33342" result="shape"/>
</filter>
</defs>
</svg>
