<svg width="22" height="28" viewBox="0 0 22 28" fill="none" xmlns="http://www.w3.org/2000/svg">
<path fill-rule="evenodd" clip-rule="evenodd" d="M8.91819 8.96334C7.93793 8.96334 6.94675 8.97999 5.9536 9.01191C5.95852 8.25854 5.96954 7.49556 5.98731 6.73727C5.99185 6.54315 5.83819 6.38208 5.64407 6.37753C5.44845 6.37256 5.28888 6.52665 5.28433 6.72077C5.26624 7.49298 5.25508 8.27012 5.25025 9.03713C4.71191 9.05846 4.17352 9.08382 3.63659 9.11438C3.52792 9.12062 3.42109 9.1336 3.31599 9.15165C3.32363 7.84677 3.3488 6.53527 3.39296 5.24563C3.45667 3.3768 4.9148 1.86402 6.78474 1.72676C7.49081 1.67482 8.2086 1.64848 8.91814 1.64848C9.62801 1.64848 10.3459 1.67482 11.0521 1.72676C12.922 1.86407 14.3801 3.3769 14.4438 5.24595C14.4506 5.43797 14.4569 6.49702 14.4628 7.48064V7.48068L14.4628 7.48153V7.48171V7.48172C14.4671 8.19573 14.4711 8.86981 14.4749 9.1434C14.3846 9.12944 14.293 9.11969 14.2002 9.11438C13.6556 9.0834 13.1095 9.05714 12.5634 9.03565C12.5591 8.81535 12.5512 8.17265 12.5427 7.47995L12.5427 7.47975L12.5427 7.47957L12.5427 7.47937L12.5427 7.4792L12.5427 7.47898C12.5312 6.53526 12.5185 5.49906 12.5121 5.31191C12.4814 4.43258 11.793 3.72018 10.9102 3.65484C10.2491 3.60665 9.57888 3.58218 8.91814 3.58218C8.25773 3.58218 7.58766 3.6066 6.92612 3.65484C6.04379 3.72014 5.3553 4.43253 5.32469 5.31186C5.31794 5.50594 5.46978 5.6687 5.66381 5.67549C5.85769 5.68234 6.02068 5.53041 6.02743 5.33638C6.04553 4.81632 6.45421 4.39489 6.97764 4.35612C7.62183 4.30915 8.2747 4.28534 8.91814 4.28534C9.56186 4.28534 10.2149 4.30915 10.8587 4.35608C11.3825 4.39485 11.7912 4.81627 11.8093 5.33615C11.8182 5.59804 11.8338 6.80173 11.8474 7.84773L11.8474 7.84794L11.8474 7.84806L11.8474 7.8495C11.8532 8.29297 11.8586 8.70798 11.8629 9.01068C10.8765 8.97921 9.89201 8.96334 8.91819 8.96334ZM11.8629 9.01068L12.5634 9.03565C12.3299 9.02645 12.0963 9.01813 11.8629 9.01068ZM11.8701 9.44581L11.8629 9.01068C11.8659 9.2163 11.8683 9.3701 11.8701 9.44581ZM12.1465 9.72096C12.1588 9.72276 12.1714 9.72412 12.1842 9.72505C11.0903 9.6861 9.99767 9.66646 8.91819 9.66646C7.18869 9.66646 5.42515 9.7169 3.67662 9.81638C2.59314 9.8783 1.72407 10.7424 1.65521 11.8264C1.50014 14.28 1.50047 16.7716 1.65615 19.2317C1.72459 20.3156 2.59342 21.1796 3.67718 21.2416C4.75311 21.3033 5.83903 21.3453 6.9129 21.3689L7.07698 22.076C5.93654 22.0532 4.78096 22.0093 3.63691 21.9437C2.19848 21.8614 1.04515 20.7147 0.954345 19.2761C0.796789 16.7866 0.796461 14.2652 0.953407 11.782C1.02166 10.7077 1.68231 9.79645 2.61137 9.3694C2.61733 7.98487 2.6433 6.59087 2.69022 5.22162C2.76621 2.99311 4.50434 1.18912 6.73322 1.02547C7.45631 0.972267 8.19149 0.945312 8.91814 0.945312C9.64516 0.945312 10.3804 0.972267 11.1036 1.02547C13.3325 1.18917 15.0705 2.99311 15.1466 5.22167C15.1564 5.50281 15.1731 6.78175 15.1873 7.86753L15.1873 7.86893L15.1873 7.87035L15.1873 7.87067L15.1873 7.87164L15.1874 7.87214L15.1874 7.87259L15.1874 7.87384C15.1959 8.52713 15.2035 9.10957 15.2081 9.36119C16.1465 9.78479 16.8147 10.701 16.8829 11.782C16.8971 12.0056 16.91 12.2297 16.9216 12.4542C16.6882 12.3747 16.4496 12.3063 16.2064 12.2497C16.1985 12.1084 16.1901 11.9672 16.1812 11.8263C16.1127 10.7424 15.2439 9.87835 14.1601 9.81638C13.5169 9.77978 12.8715 9.74982 12.2266 9.72657L14.858 9.78905C14.9526 9.78905 15.0432 9.75093 15.1094 9.68329L14.858 9.78905L12.1465 9.72096ZM12.1842 9.72505C12.1981 9.72606 12.2123 9.72657 12.2266 9.72657L12.1842 9.72505Z" fill="#787878"/>
<path d="M14.5009 20.8612C12.9113 20.8612 11.625 19.5749 11.625 17.9853C11.625 16.3957 12.9113 15.1094 14.5009 15.1094C16.0905 15.1094 17.3768 16.3957 17.3768 17.9853C17.3768 19.5749 16.0905 20.8612 14.5009 20.8612ZM14.5009 16.6781C13.7793 16.6781 13.1937 17.2637 13.1937 17.9853C13.1937 18.7069 13.7793 19.2925 14.5009 19.2925C15.2225 19.2925 15.8082 18.7069 15.8082 17.9853C15.8082 17.2637 15.2225 16.6781 14.5009 16.6781Z" fill="#AEAEAE"/>
<path d="M14.5031 23.999C14.0743 23.999 13.7188 23.6435 13.7188 23.2147V20.0773C13.7188 19.6485 14.0743 19.293 14.5031 19.293C14.9319 19.293 15.2874 19.6485 15.2874 20.0773V23.2147C15.2874 23.6435 14.9319 23.999 14.5031 23.999Z" fill="#AEAEAE"/>
</svg>
