<svg width="22" height="28" viewBox="0 0 22 28" fill="none" xmlns="http://www.w3.org/2000/svg">
<path fill-rule="evenodd" clip-rule="evenodd" d="M13.9628 6.98851C13.9671 7.7029 13.9711 8.37749 13.9749 8.65121C13.8846 8.63725 13.793 8.62751 13.7002 8.6222C13.1556 8.59122 12.6095 8.56496 12.0634 8.54346C12.0591 8.32318 12.0512 7.68055 12.0427 6.9879C12.0312 6.04388 12.0185 5.00694 12.0121 4.81972C11.9814 3.94039 11.293 3.228 10.4102 3.16265C9.74909 3.11446 9.07888 3.08999 8.41814 3.08999C7.75773 3.08999 7.08766 3.11441 6.42612 3.16265C5.54379 3.22795 4.8553 3.94035 4.82469 4.81968C4.81794 5.01375 4.96978 5.17651 5.16381 5.18331C5.35769 5.19015 5.52068 5.03822 5.52743 4.84419C5.54553 4.32413 5.95421 3.9027 6.47764 3.86394C7.12183 3.81697 7.7747 3.79315 8.41814 3.79315C9.06186 3.79315 9.71491 3.81697 10.3587 3.86389C10.8825 3.90266 11.2912 4.32409 11.3093 4.84396C11.3182 5.10585 11.3338 6.30954 11.3474 7.35554L11.3474 7.35575L11.3474 7.35587L11.3474 7.35731C11.3532 7.80078 11.3586 8.21579 11.3629 8.51849C10.3765 8.48702 9.39201 8.47116 8.41819 8.47116C7.43793 8.47116 6.44675 8.4878 5.4536 8.51972C5.45852 7.76635 5.46954 7.00337 5.48731 6.24508C5.49185 6.05096 5.33819 5.88989 5.14407 5.88534C4.94845 5.88037 4.78888 6.03446 4.78433 6.22858C4.76624 7.0008 4.75508 7.77793 4.75025 8.54494C4.21191 8.56627 3.67352 8.59163 3.13659 8.6222C3.02792 8.62843 2.92109 8.64142 2.81599 8.65946C2.82363 7.35458 2.8488 6.04309 2.89296 4.75344C2.95667 2.88462 4.4148 1.37183 6.28474 1.23457C6.99081 1.18263 7.7086 1.15629 8.41814 1.15629C9.12801 1.15629 9.84594 1.18263 10.5521 1.23457C12.422 1.37188 13.8801 2.88471 13.9438 4.75377C13.9506 4.94578 13.9569 6.0048 13.9628 6.98841V6.98851ZM16.3829 11.2898C16.3147 10.2088 15.6465 9.2926 14.7081 8.869C14.7035 8.61781 14.6959 8.03694 14.6874 7.385L14.6874 7.38398L14.6874 7.38161L14.6874 7.38042L14.6873 7.37977L14.6873 7.3794C14.6732 6.29275 14.6564 5.01097 14.6466 4.72948C14.5705 2.50092 12.8325 0.696982 10.6036 0.533286C9.88044 0.48008 9.14516 0.453125 8.41814 0.453125C7.69149 0.453125 6.95631 0.48008 6.23322 0.533286C4.00434 0.696935 2.26621 2.50092 2.19022 4.72944C2.1433 6.09868 2.11733 7.49268 2.11137 8.87721C1.18231 9.30427 0.521661 10.2155 0.453407 11.2898C0.296461 13.773 0.296789 16.2944 0.454345 18.7839C0.545147 20.2225 1.69848 21.3692 3.13691 21.4515C4.28096 21.5171 5.43654 21.561 6.57698 21.5838L6.4129 20.8767C5.33903 20.8531 4.25311 20.8112 3.17718 20.7494C2.09342 20.6875 1.22459 19.8234 1.15615 18.7395C1.00047 16.2794 1.00014 13.7878 1.15521 11.3342C1.22407 10.2503 2.09314 9.38611 3.17662 9.32419C4.92515 9.22471 6.68869 9.17427 8.41819 9.17427C9.49767 9.17427 10.5903 9.19392 11.6842 9.23286L14.358 9.29686L11.7266 9.23438C12.3715 9.25763 13.0169 9.28759 13.6601 9.32419C14.7439 9.38616 15.6127 10.2502 15.6812 11.3342C15.7088 11.7699 15.7315 12.2077 15.7493 12.6465C15.9899 12.6869 16.2267 12.7387 16.459 12.8014C16.4401 12.2959 16.4148 11.7914 16.3829 11.2898Z" fill="#787878"/>
<g clip-path="url(#clip0_2155_34207)">
<path d="M19.8249 23.2687L19.0214 22.8048C18.8977 22.7334 18.7381 22.7754 18.6657 22.8986C17.518 24.8504 15.1276 25.7506 12.9815 25.0387C12.8663 25.0005 12.742 25.0629 12.7038 25.1781C12.6656 25.2933 12.728 25.4176 12.8432 25.4558C13.9711 25.8299 15.2097 25.8076 16.3306 25.3931C17.411 24.9936 18.3358 24.2441 18.9523 23.2723L19.4476 23.5583C17.7878 26.2007 14.2967 27.0803 11.5761 25.5096C10.945 25.1452 10.3956 24.6751 9.94307 24.1123C9.85466 24.0024 9.69285 23.9842 9.58243 24.072L9.30472 24.2926L9.44951 23.0293L10.7127 23.1741L10.4334 23.396C10.3792 23.439 10.3451 23.5006 10.3375 23.5695C10.3299 23.6382 10.3495 23.7057 10.393 23.7596C10.8005 24.265 11.2947 24.6873 11.8618 25.0147C11.9668 25.0754 12.1012 25.0394 12.1619 24.9343C12.2226 24.8292 12.1866 24.6948 12.0815 24.6342C11.6149 24.3648 11.2023 24.0255 10.8527 23.6241L11.3299 23.2451C11.4118 23.18 11.4461 23.073 11.4173 22.9725C11.3886 22.872 11.3028 22.7994 11.199 22.7875L9.31879 22.572C9.1776 22.5557 9.04975 22.6575 9.03361 22.7986L8.8181 24.6788C8.80621 24.7827 8.8576 24.8826 8.949 24.9333C9.04038 24.984 9.15229 24.9748 9.23421 24.9098L9.71596 24.5271C10.1796 25.071 10.7307 25.529 11.3563 25.8902C12.8066 26.7274 14.4935 26.9497 16.1059 26.5232C17.7207 26.096 19.0751 25.0675 19.9197 23.6272C19.9552 23.5668 19.9648 23.4961 19.9469 23.4283C19.929 23.3605 19.8857 23.3038 19.8249 23.2687Z" fill="#787878"/>
<path d="M9.17382 16.816L9.97734 17.2799C10.101 17.3514 10.2605 17.3093 10.333 17.1861C11.6733 14.9068 14.6269 14.1283 16.9172 15.4506C17.3837 15.7199 17.7964 16.0592 18.146 16.4606L17.6687 16.8396C17.5869 16.9047 17.5526 17.0116 17.5813 17.1122C17.6101 17.2127 17.6958 17.2853 17.7996 17.2972L19.6799 17.5127C19.8198 17.5288 19.9488 17.4281 19.965 17.2861L20.1805 15.4059C20.1924 15.302 20.141 15.2021 20.0496 15.1514C19.9582 15.1007 19.8463 15.1099 19.7644 15.1749L19.2827 15.5576C18.819 15.0138 18.268 14.5558 17.6423 14.1946C16.6148 13.6013 15.448 13.3115 14.268 13.356C13.1201 13.3995 12.0066 13.7549 11.0477 14.3841C10.9462 14.4506 10.9179 14.5868 10.9845 14.6883C11.0511 14.7898 11.1873 14.818 11.2887 14.7515C13.1479 13.5317 15.4983 13.4642 17.4226 14.5751C18.0537 14.9395 18.6032 15.4096 19.0557 15.9724C19.1441 16.0823 19.3058 16.1003 19.4163 16.0127L19.6939 15.7921L19.5492 17.0553L18.2859 16.9106L18.5653 16.6887C18.6195 16.6456 18.6535 16.584 18.6612 16.5152C18.6688 16.4464 18.6491 16.379 18.6057 16.3251C18.1981 15.8196 17.704 15.3973 17.1369 15.07C15.9234 14.3693 14.509 14.1804 13.1542 14.538C11.8573 14.8803 10.76 15.6849 10.0463 16.8123L9.5511 16.5264C9.81976 16.0985 10.1408 15.7087 10.5072 15.366C10.5958 15.2831 10.6004 15.144 10.5175 15.0554C10.4346 14.9668 10.2956 14.9622 10.207 15.045C9.76635 15.4572 9.38684 15.9324 9.07896 16.4575C9.04351 16.5179 9.03384 16.5886 9.05177 16.6563C9.0697 16.7242 9.11303 16.7809 9.17382 16.816Z" fill="#787878"/>
<path d="M9.35149 19.628C9.29081 19.5229 9.15637 19.487 9.05134 19.5476L8.85552 19.6607V19.4346C8.85552 19.3132 8.75714 19.2148 8.63579 19.2148C8.51444 19.2148 8.41607 19.3132 8.41607 19.4346V19.6607L8.22025 19.5476C8.11513 19.487 7.98077 19.5229 7.9201 19.628C7.85942 19.7331 7.89543 19.8675 8.00052 19.9282L8.19634 20.0412L8.00052 20.1543C7.89543 20.215 7.85942 20.3494 7.9201 20.4545C7.98107 20.5601 8.11566 20.5953 8.22025 20.5349L8.41607 20.4218V20.6479C8.41607 20.7693 8.51444 20.8677 8.63579 20.8677C8.75714 20.8677 8.85552 20.7693 8.85552 20.6479V20.4218L9.05134 20.5349C9.15596 20.5953 9.29055 20.56 9.35149 20.4545C9.41216 20.3494 9.37615 20.215 9.27107 20.1543L9.07525 20.0413L9.27107 19.9282C9.37615 19.8675 9.41216 19.7331 9.35149 19.628Z" fill="#787878"/>
<path d="M11.6991 19.628C11.6385 19.5229 11.5041 19.487 11.399 19.5476L11.2032 19.6607V19.4346C11.2032 19.3132 11.1048 19.2148 10.9834 19.2148C10.8621 19.2148 10.7637 19.3132 10.7637 19.4346V19.6607L10.5679 19.5476C10.4628 19.487 10.3284 19.5229 10.2678 19.628C10.2071 19.7331 10.2431 19.8675 10.3482 19.9282L10.544 20.0412L10.3482 20.1543C10.2431 20.215 10.2071 20.3493 10.2678 20.4544C10.3287 20.56 10.4633 20.5952 10.5679 20.5348L10.7637 20.4218V20.6479C10.7637 20.7692 10.8621 20.8676 10.9834 20.8676C11.1048 20.8676 11.2032 20.7692 11.2032 20.6479V20.4218L11.399 20.5348C11.5036 20.5952 11.6382 20.56 11.6991 20.4544C11.7598 20.3493 11.7238 20.2149 11.6187 20.1542L11.4229 20.0412L11.6187 19.9281C11.7238 19.8675 11.7598 19.7331 11.6991 19.628Z" fill="#787878"/>
<path d="M14.0429 19.628C13.9822 19.5229 13.8479 19.487 13.7427 19.5476L13.5469 19.6607V19.4346C13.5469 19.3132 13.4485 19.2148 13.3272 19.2148C13.2059 19.2148 13.1075 19.3132 13.1075 19.4346V19.6607L12.9117 19.5476C12.8065 19.487 12.6722 19.5229 12.6115 19.628C12.5508 19.7331 12.5868 19.8675 12.6919 19.9282L12.8877 20.0413L12.6919 20.1543C12.5868 20.215 12.5508 20.3494 12.6115 20.4545C12.6724 20.5599 12.8068 20.5954 12.9117 20.5349L13.1075 20.4218V20.6479C13.1075 20.7693 13.2059 20.8677 13.3272 20.8677C13.4485 20.8677 13.5469 20.7693 13.5469 20.6479V20.4218L13.7427 20.5349C13.8474 20.5953 13.982 20.56 14.0429 20.4545C14.1036 20.3494 14.0676 20.215 13.9625 20.1543L13.7667 20.0413L13.9625 19.9282C14.0676 19.8675 14.1036 19.7331 14.0429 19.628Z" fill="#787878"/>
<path d="M16.3866 19.628C16.326 19.5229 16.1915 19.487 16.0865 19.5476L15.8907 19.6607V19.4346C15.8907 19.3132 15.7923 19.2148 15.6709 19.2148C15.5496 19.2148 15.4512 19.3132 15.4512 19.4346V19.6607L15.2554 19.5476C15.1503 19.487 15.0159 19.5229 14.9553 19.628C14.8946 19.7331 14.9306 19.8675 15.0357 19.9282L15.2315 20.0412L15.0357 20.1543C14.9306 20.215 14.8946 20.3494 14.9553 20.4545C15.0162 20.5601 15.1508 20.5953 15.2554 20.5349L15.4512 20.4218V20.6479C15.4512 20.7693 15.5496 20.8677 15.6709 20.8677C15.7923 20.8677 15.8907 20.7693 15.8907 20.6479V20.4218L16.0865 20.5349C16.1911 20.5953 16.3257 20.56 16.3866 20.4545C16.4473 20.3494 16.4113 20.215 16.3062 20.1543L16.1104 20.0413L16.3062 19.9282C16.4113 19.8675 16.4473 19.7331 16.3866 19.628Z" fill="#787878"/>
<path d="M18.0186 20.8677C18.14 20.8677 18.2383 20.7693 18.2383 20.6479V20.4218L18.4342 20.5349C18.5388 20.5953 18.6734 20.56 18.7343 20.4545C18.795 20.3494 18.759 20.215 18.6539 20.1543L18.4581 20.0413L18.6539 19.9282C18.759 19.8675 18.795 19.7331 18.7343 19.628C18.6736 19.5229 18.5392 19.487 18.4342 19.5476L18.2383 19.6607V19.4346C18.2383 19.3132 18.14 19.2148 18.0186 19.2148C17.8973 19.2148 17.7989 19.3132 17.7989 19.4346V19.6607L17.6031 19.5476C17.4979 19.487 17.3636 19.5229 17.3029 19.628C17.2422 19.7331 17.2782 19.8675 17.3833 19.9282L17.5792 20.0413L17.3833 20.1543C17.2782 20.215 17.2422 20.3494 17.3029 20.4545C17.3638 20.5599 17.4982 20.5954 17.6031 20.5349L17.7989 20.4218V20.6479C17.7989 20.7693 17.8973 20.8677 18.0186 20.8677Z" fill="#787878"/>
<path d="M19.6467 20.4544C19.7076 20.56 19.8422 20.5952 19.9468 20.5348L20.1426 20.4218V20.6479C20.1426 20.7692 20.241 20.8676 20.3624 20.8676C20.4837 20.8676 20.5821 20.7692 20.5821 20.6479V20.4218L20.7779 20.5348C20.8825 20.5952 21.0171 20.56 21.078 20.4544C21.1387 20.3493 21.1027 20.215 20.9976 20.1543L20.8018 20.0412L20.9976 19.9282C21.1027 19.8675 21.1387 19.7331 21.078 19.628C21.0174 19.5229 20.8829 19.487 20.7779 19.5476L20.5821 19.6607V19.4346C20.5821 19.3132 20.4837 19.2148 20.3624 19.2148C20.241 19.2148 20.1426 19.3132 20.1426 19.4346V19.6607L19.9468 19.5476C19.8417 19.487 19.7073 19.5229 19.6467 19.628C19.586 19.7331 19.622 19.8675 19.7271 19.9282L19.9229 20.0412L19.7271 20.1543C19.622 20.2149 19.586 20.3493 19.6467 20.4544Z" fill="#787878"/>
<path d="M21.7333 18.2031H7.26666C7.11962 18.2031 7 18.3227 7 18.4698V21.6116C7 21.7587 7.11962 21.8783 7.26666 21.8783H18.0979C18.2192 21.8783 18.3176 21.7799 18.3176 21.6585C18.3176 21.5372 18.2192 21.4388 18.0979 21.4388H7.43945V18.6426H21.5605V21.4388H19.1233C19.002 21.4388 18.9036 21.5372 18.9036 21.6585C18.9036 21.7799 19.002 21.8783 19.1233 21.8783H21.7333C21.8804 21.8783 22 21.7587 22 21.6116V18.4698C22 18.3227 21.8804 18.2031 21.7333 18.2031Z" fill="#787878"/>
</g>
<defs>
<clipPath id="clip0_2155_34207">
<rect width="15" height="15" fill="white" transform="translate(7 12.543)"/>
</clipPath>
</defs>
</svg>
