<svg width="193" height="61" viewBox="0 0 193 61" fill="none" xmlns="http://www.w3.org/2000/svg">
<g clip-path="url(#clip0_2369_49412)">
<path d="M36.7416 8.05413C23.2742 -7.12038 2.79733 1.36527 0.196557 16.6243C-1.66637 27.4926 8.2428 37.6512 17.2769 45.5359C17.3013 45.5329 17.3226 45.5299 17.347 45.5268C-9.26136 16.9565 18.7252 -2.71147 32.6712 11.3366C39.2082 17.8141 34.5188 17.7869 40.1716 11.4665C50.6235 -0.488891 67.7648 5.59601 70.0028 19.4448C70.6522 4.24012 50.6784 -5.5229 36.7416 8.05413Z" fill="#29D9AF"/>
<path d="M143.883 49.6851L164.021 48.7127C164.39 48.7127 165.21 47.4534 165.72 46.6683C165.848 46.472 165.957 46.3029 166.064 46.1519V46.1489C166.262 45.8771 166.528 45.8228 166.854 45.9677L166.86 45.9707C167.207 46.1308 167.311 47.0186 167.424 48C167.47 48.3805 167.515 48.7822 167.573 49.1808L167.756 48.8335L167.958 48.456C168.275 47.8672 168.497 47.5833 168.945 47.6377H168.948C169.391 47.692 169.503 48.0121 169.613 48.6342C169.65 48.8486 169.686 49.0721 169.723 49.3076C169.952 47.7645 170.25 45.5751 170.546 43.3828C171.104 39.2668 171.665 35.1478 172.013 34.8246L172.016 34.8216C172.263 34.5951 172.531 34.574 172.821 34.7733L172.824 34.7763H172.827C173.232 35.1025 173.424 40.1516 173.626 45.409C173.726 48.0453 173.83 50.7329 173.918 52.8347C173.973 52.1643 174.028 51.4698 174.08 50.7994C174.251 48.6251 174.4 46.7015 174.613 46.4448H174.616C174.86 46.1549 175.147 46.1187 175.473 46.2908C175.766 46.4479 175.879 46.8918 176.013 47.4202C176.162 48.003 176.351 48.7429 176.421 48.755C177.074 48.8939 193.066 49.6277 193.066 49.6277C193.02 49.6277 176.906 49.7787 176.132 49.6156C175.772 49.5371 175.525 49.2472 175.342 48.8727C175.296 49.4616 175.242 50.1411 175.187 50.8507C174.964 53.7105 174.705 57.0111 174.287 57.4007C174.025 57.6453 173.741 57.6694 173.433 57.458C172.961 57.1349 172.735 51.1587 172.516 45.4302C172.427 43.0898 172.339 40.7918 172.266 38.992C172.077 40.3267 171.863 41.9 171.65 43.4703C171.098 47.535 170.546 51.5906 170.217 51.968L170.214 51.9741C169.979 52.2217 169.708 52.2549 169.403 52.0647C168.982 51.802 168.796 50.585 168.637 49.5401L168.628 49.4737L168.586 49.5522C168.14 50.3857 167.814 50.8084 167.354 50.7933C166.826 50.7782 166.622 50.3102 166.485 49.362C166.433 49.0117 166.378 48.5345 166.326 48.0785C166.311 47.9396 166.305 47.8098 166.305 47.686C165.689 48.5859 164.869 49.5975 164.027 49.5975L143.883 49.6851Z" fill="#0DE0FE"/>
<path d="M110.544 41.6541C110.633 41.5877 110.742 41.5575 110.877 41.5575C111.011 41.5575 111.142 41.5937 111.276 41.6662L111.435 41.4186C111.282 41.325 111.093 41.2766 110.871 41.2676C110.636 41.2676 110.434 41.331 110.27 41.4578C110.105 41.5847 110.023 41.7568 110.023 41.9742V42.2037H109.688V42.4604H110.023V44.23H110.41V42.4604H111.163V42.2037H110.41V41.9319C110.41 41.8111 110.456 41.7205 110.544 41.6541Z" fill="#026985"/>
<path d="M113.587 42.4257C113.337 42.2294 113.017 42.1328 112.629 42.1328C112.236 42.1328 111.916 42.2294 111.669 42.4257C111.419 42.619 111.297 42.8727 111.297 43.1837C111.297 43.4947 111.422 43.7484 111.669 43.9477C111.919 44.147 112.239 44.2437 112.629 44.2437C113.017 44.2437 113.337 44.144 113.587 43.9477C113.837 43.7514 113.962 43.4947 113.962 43.1837C113.962 42.8757 113.837 42.622 113.587 42.4257ZM113.303 43.7514C113.126 43.8964 112.901 43.9689 112.626 43.9689C112.349 43.9689 112.12 43.8964 111.943 43.7514C111.766 43.6065 111.678 43.4192 111.678 43.1897C111.678 42.9633 111.766 42.776 111.943 42.6311C112.12 42.4861 112.346 42.4137 112.626 42.4137C112.901 42.4137 113.126 42.4861 113.303 42.6311C113.48 42.776 113.568 42.9633 113.568 43.1897C113.568 43.4192 113.48 43.6065 113.303 43.7514Z" fill="#026985"/>
<path d="M115.028 42.6032V42.1412H114.641V44.2278H115.028V43.1166C115.052 42.9082 115.147 42.7421 115.311 42.6183C115.479 42.4945 115.699 42.4341 115.973 42.4371V42.123C115.522 42.1321 115.208 42.2922 115.028 42.6032Z" fill="#026985"/>
<path d="M122.232 42.127C121.698 42.133 121.35 42.3142 121.192 42.6735C121.137 42.4984 121.027 42.3655 120.863 42.2689C120.698 42.1753 120.494 42.127 120.247 42.127C119.75 42.133 119.414 42.2961 119.24 42.6131V42.142H118.859V44.2287H119.24V43.202C119.24 42.9755 119.317 42.7913 119.472 42.6494C119.628 42.5105 119.838 42.435 120.103 42.4289C120.335 42.4289 120.515 42.4803 120.64 42.586C120.768 42.6917 120.832 42.8366 120.832 43.0238V44.2287H121.231V43.202C121.231 42.9755 121.308 42.7913 121.457 42.6494C121.607 42.5105 121.82 42.435 122.088 42.4289C122.317 42.4289 122.494 42.4803 122.622 42.586C122.75 42.6917 122.817 42.8366 122.817 43.0238V44.2287H123.204V42.9393C123.204 42.6856 123.119 42.4893 122.945 42.3444C122.774 42.1994 122.536 42.127 122.232 42.127Z" fill="#026985"/>
<path d="M126.038 42.4439C125.827 42.2325 125.513 42.1299 125.099 42.1329C124.715 42.1329 124.401 42.2295 124.16 42.4258C123.916 42.6221 123.797 42.8758 123.797 43.1868C123.797 43.4978 123.919 43.7515 124.16 43.9478C124.404 44.1441 124.715 44.2407 125.099 44.2407C125.544 44.2407 125.901 44.1229 126.163 43.8904L125.946 43.7092C125.739 43.8844 125.468 43.9719 125.135 43.9719C124.876 43.9719 124.66 43.9115 124.489 43.7908C124.315 43.67 124.212 43.5069 124.178 43.3015H126.328C126.346 42.9392 126.251 42.6523 126.038 42.4439ZM124.178 43.0539C124.205 42.8546 124.303 42.6946 124.471 42.5768C124.638 42.459 124.849 42.3986 125.099 42.3986C125.355 42.3986 125.559 42.459 125.718 42.5768C125.876 42.6946 125.962 42.8546 125.974 43.0539H124.178Z" fill="#026985"/>
<path d="M129.027 42.5876C128.93 42.4396 128.792 42.3218 128.613 42.2433C128.436 42.1618 128.228 42.1225 128 42.1225C127.628 42.1225 127.323 42.2222 127.088 42.4185C126.853 42.6178 126.734 42.8714 126.734 43.1855C126.734 43.4996 126.853 43.7532 127.088 43.9525C127.323 44.1518 127.628 44.2485 128.006 44.2485C128.238 44.2485 128.442 44.2092 128.616 44.1277C128.792 44.0461 128.93 43.9314 129.027 43.7834V44.2303H129.414V41.2891H129.027V42.5876ZM128.762 43.7502C128.585 43.8951 128.356 43.9676 128.079 43.9676C127.802 43.9676 127.573 43.8951 127.393 43.7502C127.216 43.6052 127.125 43.418 127.125 43.1915C127.125 42.962 127.213 42.7718 127.393 42.6238C127.57 42.4758 127.798 42.4034 128.079 42.4034C128.356 42.4034 128.585 42.4789 128.762 42.6238C128.939 42.7718 129.03 42.962 129.03 43.1915C129.027 43.418 128.939 43.6052 128.762 43.7502Z" fill="#026985"/>
<path d="M130.581 41.3223C130.508 41.3223 130.447 41.3434 130.398 41.3827C130.353 41.4219 130.328 41.4733 130.328 41.5367C130.328 41.6001 130.353 41.6514 130.398 41.6907C130.444 41.7299 130.505 41.7511 130.581 41.7511C130.654 41.7511 130.715 41.7299 130.764 41.6907C130.81 41.6514 130.834 41.6001 130.834 41.5367C130.834 41.4733 130.81 41.4219 130.764 41.3827C130.715 41.3434 130.657 41.3223 130.581 41.3223Z" fill="#026985"/>
<path d="M130.772 42.1406H130.391V44.2273H130.772V42.1406Z" fill="#026985"/>
<path d="M132.783 43.962C132.508 43.962 132.283 43.8895 132.109 43.7446C131.935 43.5996 131.847 43.4124 131.847 43.1859C131.847 42.9594 131.932 42.7722 132.109 42.6303C132.283 42.4883 132.508 42.4158 132.783 42.4158C133.091 42.4158 133.356 42.4974 133.569 42.6574L133.78 42.437C133.521 42.2286 133.185 42.126 132.771 42.129C132.386 42.129 132.072 42.2256 131.832 42.4219C131.588 42.6182 131.469 42.8718 131.469 43.1829C131.469 43.4939 131.591 43.7476 131.832 43.9439C132.072 44.1402 132.386 44.2368 132.771 44.2368C133.222 44.2368 133.573 44.116 133.823 43.8774L133.6 43.6872C133.402 43.8714 133.13 43.962 132.783 43.962Z" fill="#026985"/>
<path d="M136.273 42.3192C136.096 42.1923 135.849 42.1289 135.526 42.1289C135.316 42.1289 135.13 42.1531 134.971 42.1953C134.813 42.2406 134.639 42.3101 134.45 42.4067L134.614 42.6362C134.901 42.4762 135.178 42.3977 135.45 42.3977C135.681 42.3977 135.855 42.4399 135.977 42.5245C136.096 42.6091 136.157 42.7298 136.157 42.8808V43.0077H135.294C134.989 43.0107 134.748 43.065 134.575 43.1707C134.401 43.2764 134.312 43.4214 134.312 43.6056C134.312 43.7898 134.395 43.9408 134.559 44.0646C134.724 44.1854 134.941 44.2458 135.206 44.2458C135.636 44.2458 135.959 44.1341 136.169 43.9106V44.2277H136.544L136.538 42.8506C136.538 42.6241 136.45 42.446 136.273 42.3192ZM136.163 43.5089C136.111 43.6509 136.008 43.7656 135.849 43.8502C135.691 43.9347 135.499 43.977 135.276 43.977C135.093 43.977 134.947 43.9408 134.837 43.8713C134.73 43.8019 134.675 43.7083 134.675 43.5935C134.675 43.37 134.898 43.2583 135.34 43.2583H136.163V43.5089Z" fill="#026985"/>
<path d="M137.825 41.2871H137.438V44.2284H137.825V41.2871Z" fill="#026985"/>
<path d="M142.587 42.1257C142.077 42.1318 141.736 42.2918 141.559 42.6059V41.2832H141.172V44.2245H141.559V43.1978C141.559 42.9713 141.638 42.7871 141.797 42.6451C141.955 42.5062 142.175 42.4338 142.452 42.4307C142.684 42.4307 142.864 42.4821 142.995 42.5878C143.126 42.6935 143.193 42.8354 143.193 43.0196V44.2245H143.587V42.935C143.587 42.6814 143.498 42.4851 143.321 42.3401C143.145 42.1982 142.901 42.1257 142.587 42.1257Z" fill="#026985"/>
<path d="M146.429 42.4439C146.218 42.2325 145.904 42.1299 145.489 42.1329C145.105 42.1329 144.791 42.2295 144.55 42.4258C144.306 42.6221 144.188 42.8758 144.188 43.1868C144.188 43.4978 144.309 43.7515 144.55 43.9478C144.794 44.1441 145.105 44.2407 145.489 44.2407C145.935 44.2407 146.291 44.1229 146.554 43.8904L146.337 43.7092C146.13 43.8844 145.858 43.9719 145.526 43.9719C145.267 43.9719 145.05 43.9115 144.88 43.7908C144.706 43.67 144.602 43.5069 144.569 43.3015H146.718C146.736 42.9392 146.642 42.6523 146.429 42.4439ZM144.566 43.0539C144.593 42.8546 144.691 42.6946 144.858 42.5768C145.026 42.459 145.236 42.3986 145.486 42.3986C145.742 42.3986 145.947 42.459 146.105 42.5768C146.264 42.6946 146.349 42.8546 146.361 43.0539H144.566Z" fill="#026985"/>
<path d="M149.132 42.3192C148.956 42.1923 148.709 42.1289 148.385 42.1289C148.175 42.1289 147.989 42.1531 147.83 42.1953C147.672 42.2406 147.498 42.3101 147.309 42.4067L147.474 42.6362C147.76 42.4762 148.038 42.3977 148.309 42.3977C148.541 42.3977 148.715 42.4399 148.837 42.5245C148.956 42.6091 149.016 42.7298 149.016 42.8808V43.0077H148.154C147.849 43.0107 147.608 43.065 147.434 43.1707C147.26 43.2764 147.172 43.4214 147.172 43.6056C147.172 43.7898 147.254 43.9408 147.419 44.0646C147.583 44.1854 147.8 44.2458 148.065 44.2458C148.495 44.2458 148.818 44.1341 149.029 43.9106V44.2277H149.404L149.398 42.8506C149.398 42.6241 149.309 42.446 149.132 42.3192ZM149.02 43.5089C148.968 43.6509 148.864 43.7656 148.705 43.8502C148.547 43.9347 148.355 43.977 148.132 43.977C147.949 43.977 147.803 43.9408 147.693 43.8713C147.587 43.8019 147.532 43.7083 147.532 43.5935C147.532 43.37 147.754 43.2583 148.196 43.2583H149.02V43.5089Z" fill="#026985"/>
<path d="M150.684 41.2871H150.297V44.2284H150.684V41.2871Z" fill="#026985"/>
<path d="M152.491 43.9433C152.256 43.9433 152.137 43.8255 152.137 43.593V42.4576H152.973V42.2009L152.137 42.2069V41.6543H151.756V42.2069H151.375V42.4606H151.756V43.6504C151.756 43.8497 151.817 43.9977 151.939 44.0973C152.061 44.197 152.223 44.2453 152.427 44.2453C152.634 44.2423 152.832 44.1879 153.021 44.0852L152.909 43.8316C152.771 43.9071 152.631 43.9433 152.491 43.9433Z" fill="#026985"/>
<path d="M155.04 42.1257C154.531 42.1318 154.189 42.2918 154.012 42.6059V41.2832H153.625V44.2245H154.012V43.1978C154.012 42.9713 154.091 42.7871 154.25 42.6451C154.409 42.5062 154.628 42.4338 154.906 42.4307C155.137 42.4307 155.317 42.4821 155.448 42.5878C155.579 42.6935 155.646 42.8354 155.646 43.0196V44.2245H156.04V42.935C156.04 42.6814 155.951 42.4851 155.775 42.3401C155.598 42.1982 155.354 42.1257 155.04 42.1257Z" fill="#026985"/>
<path d="M160.314 43.962C160.04 43.962 159.814 43.8895 159.64 43.7446C159.466 43.5996 159.378 43.4124 159.378 43.1859C159.378 42.9594 159.463 42.7722 159.64 42.6303C159.814 42.4883 160.04 42.4158 160.314 42.4158C160.622 42.4158 160.887 42.4974 161.101 42.6574L161.311 42.437C161.052 42.2286 160.717 42.126 160.302 42.129C159.918 42.129 159.604 42.2256 159.363 42.4219C159.119 42.6182 159 42.8718 159 43.1829C159 43.4939 159.122 43.7476 159.363 43.9439C159.607 44.1402 159.918 44.2368 160.302 44.2368C160.753 44.2368 161.104 44.116 161.354 43.8774L161.131 43.6872C160.936 43.8714 160.662 43.962 160.314 43.962Z" fill="#026985"/>
<path d="M163.804 42.3192C163.627 42.1923 163.38 42.1289 163.057 42.1289C162.847 42.1289 162.661 42.1531 162.502 42.1953C162.344 42.2406 162.17 42.3101 161.981 42.4067L162.146 42.6362C162.432 42.4762 162.71 42.3977 162.981 42.3977C163.213 42.3977 163.387 42.4399 163.508 42.5245C163.627 42.6091 163.688 42.7298 163.688 42.8808V43.0077H162.826C162.521 43.0107 162.28 43.065 162.106 43.1707C161.932 43.2764 161.844 43.4214 161.844 43.6056C161.844 43.7898 161.926 43.9408 162.091 44.0646C162.255 44.1854 162.472 44.2458 162.737 44.2458C163.167 44.2458 163.49 44.1341 163.701 43.9106V44.2277H164.076L164.069 42.8506C164.066 42.6241 163.978 42.446 163.804 42.3192ZM163.691 43.5089C163.64 43.6509 163.536 43.7656 163.377 43.8502C163.219 43.9347 163.027 43.977 162.804 43.977C162.621 43.977 162.475 43.9408 162.365 43.8713C162.258 43.8019 162.204 43.7083 162.204 43.5935C162.204 43.37 162.426 43.2583 162.868 43.2583H163.691V43.5089Z" fill="#026985"/>
<path d="M165.34 42.6032V42.1412H164.953V44.2278H165.34V43.1166C165.365 42.9082 165.459 42.7421 165.624 42.6183C165.792 42.4945 166.011 42.4341 166.286 42.4371V42.123C165.834 42.1321 165.52 42.2922 165.34 42.6032Z" fill="#026985"/>
<path d="M168.788 42.4439C168.578 42.2325 168.263 42.1299 167.849 42.1329C167.465 42.1329 167.151 42.2295 166.91 42.4258C166.666 42.6221 166.547 42.8758 166.547 43.1868C166.547 43.4978 166.669 43.7515 166.91 43.9478C167.151 44.1441 167.465 44.2407 167.849 44.2407C168.294 44.2407 168.651 44.1229 168.913 43.8904L168.696 43.7092C168.489 43.8844 168.218 43.9719 167.885 43.9719C167.626 43.9719 167.41 43.9115 167.239 43.7908C167.065 43.67 166.962 43.5069 166.928 43.3015H169.078C169.096 42.9392 168.998 42.6523 168.788 42.4439ZM166.925 43.0539C166.952 42.8546 167.05 42.6946 167.218 42.5768C167.385 42.459 167.596 42.3986 167.846 42.3986C168.102 42.3986 168.306 42.459 168.465 42.5768C168.623 42.6946 168.709 42.8546 168.721 43.0539H166.925Z" fill="#026985"/>
<path d="M66.3456 23.016V22.9375H63.0405L57.6774 28.8473V22.9375H55.0156V36.9131H57.6774V30.7256L63.5832 36.9131H66.87V36.7531L60.0769 29.7049L66.3456 23.016Z" fill="#026985"/>
<path d="M77.3322 30.9645C77.3322 33.3592 76.0821 34.8177 73.8838 34.8177C71.6855 34.8177 70.2342 33.48 70.2342 30.9645V22.959H67.5938V30.9645C67.5938 35.1771 70.475 37.2155 73.8624 37.2155C77.4114 37.2155 79.9695 35.0986 79.9695 30.9645V22.959H77.3291V30.9645H77.3322Z" fill="#026985"/>
<path d="M94.3872 27.5715C94.3872 25.1556 92.634 22.9602 89.3076 22.9391C87.0696 22.9391 84.8317 22.918 82.5938 22.918V36.9147H85.2555V32.2431H87.8166L91.9297 36.9147H95.0945V36.7366L90.8199 31.9653C93.503 31.4248 94.3872 29.4891 94.3872 27.5715ZM85.2555 29.8665V25.3942H89.3076C90.9815 25.3942 91.7254 26.5115 91.7254 27.6289C91.7254 28.7462 90.9998 29.8665 89.3076 29.8665H85.2555Z" fill="#026985"/>
<path d="M101.543 22.9375C99.8082 22.9375 97.7318 22.9375 96 22.9375V36.9131C97.7349 36.9131 99.8112 36.9131 101.543 36.9131C106.482 36.9131 108.659 33.3377 108.598 29.8045C108.537 26.3529 106.382 22.9375 101.543 22.9375ZM101.543 34.3765H98.6404V25.4319H101.543C104.607 25.4319 105.897 27.6091 105.958 29.7834C106.019 32.0603 104.748 34.3765 101.543 34.3765Z" fill="#026985"/>
<path d="M113.211 22.9375H110.57V36.9131H113.211V22.9375Z" fill="#026985"/>
<path d="M127.371 32.8219C127.371 29.488 124.63 28.73 121.688 28.3707C119.995 28.1714 118.541 27.8301 118.541 26.6132C118.541 25.5744 119.489 24.756 121.465 24.756C122.996 24.756 124.328 25.514 124.81 26.3142L126.926 25.2361C125.859 23.08 123.581 22.4609 121.383 22.4609C118.782 22.4821 115.919 23.6598 115.919 26.5346C115.919 29.6692 118.581 30.4272 121.462 30.7684C123.337 30.9677 124.727 31.5083 124.727 32.8249C124.727 34.3408 123.154 34.9206 121.483 34.9206C119.77 34.9206 118.139 34.2412 117.513 32.7041L115.297 33.8426C116.346 36.3973 118.562 37.2761 121.447 37.2761C124.587 37.2731 127.371 35.9353 127.371 32.8219Z" fill="#026985"/>
<path d="M128.594 25.3322H133.07V36.9131H135.731V25.3322H140.207V22.9375C136.116 22.9375 132.667 22.9375 128.597 22.9375V25.3322H128.594Z" fill="#026985"/>
<path d="M149.607 22.9375H146.705L140.375 36.9131H143.256L144.467 34.2769H151.845L153.034 36.9131H155.937L149.607 22.9375ZM145.534 31.8218L148.156 25.8727L150.775 31.8218H145.534Z" fill="#026985"/>
<path d="M166.414 22.918V31.6029L159.502 22.9391H157.344V36.9147H160.005V27.4899L167.424 36.9359V36.9147H169.076V22.918H166.414Z" fill="#026985"/>
<path d="M27.9337 22.9316C27.8361 22.9316 27.7294 22.9316 27.6318 22.9316V25.429H27.9337C30.9979 25.429 32.2906 27.6063 32.3486 29.7836C32.4096 32.0605 31.1381 34.3767 27.9337 34.3767H25.031V27.9083H22.3906V36.9133C24.1255 36.9133 26.2018 36.9133 27.9367 36.9133C32.876 36.9133 35.0561 33.3379 34.9951 29.8017C34.9311 26.347 32.7724 22.9316 27.9337 22.9316Z" fill="#026985"/>
<path d="M48.5495 27.5676C48.5495 25.1517 46.7964 22.9533 43.4669 22.9352C41.2289 22.9352 38.991 22.9141 36.75 22.9141V36.9139H39.4118V32.2392H41.9729L46.086 36.9139H49.2508V36.7357L44.9761 31.9614C47.6592 31.4208 48.5495 29.4852 48.5495 27.5676ZM39.4118 29.8626V25.3873H43.4669C45.1408 25.3873 45.8878 26.5046 45.8878 27.625C45.8878 28.7423 45.1621 29.8626 43.4669 29.8626H39.4118Z" fill="#026985"/>
<path d="M22.3824 27.3713H25.0228V25.4235H27.0625V22.9321H25.0228V20.9844H22.3824V22.9321H20.2969V25.4235H22.3824V27.3713Z" fill="#026985"/>
</g>
<defs>
<clipPath id="clip0_2369_49412">
<rect width="193" height="61" fill="white"/>
</clipPath>
</defs>
</svg>
