<svg width="193" height="61" viewBox="0 0 193 61" fill="none" xmlns="http://www.w3.org/2000/svg">
<g clip-path="url(#clip0_109_16108)">
<path d="M36.7396 8.05413C23.2723 -7.12038 2.79538 1.36527 0.194604 16.6243C-1.66832 27.4926 8.24084 37.6512 17.275 45.5359C17.2993 45.5329 17.3207 45.5299 17.3451 45.5268C-9.26331 16.9565 18.7232 -2.71147 32.6692 11.3366C39.2062 17.8141 34.5169 17.7869 40.1697 11.4665C50.6216 -0.488891 67.7629 5.59601 70.0008 19.4448C70.6503 4.24012 50.6765 -5.5229 36.7396 8.05413Z" fill="#29D9AF"/>
<path d="M143.885 49.6851L164.023 48.7127C164.392 48.7127 165.212 47.4534 165.722 46.6683C165.85 46.472 165.959 46.3029 166.066 46.1519V46.1489C166.264 45.8771 166.529 45.8228 166.856 45.9677L166.862 45.9707C167.209 46.1308 167.313 47.0186 167.426 48C167.472 48.3805 167.517 48.7822 167.575 49.1808L167.758 48.8335L167.959 48.456C168.277 47.8672 168.499 47.5833 168.947 47.6377H168.95C169.392 47.692 169.505 48.0121 169.615 48.6342C169.652 48.8486 169.688 49.0721 169.725 49.3076C169.953 47.7645 170.252 45.5751 170.548 43.3828C171.106 39.2668 171.667 35.1478 172.015 34.8246L172.018 34.8216C172.265 34.5951 172.533 34.574 172.823 34.7733L172.826 34.7763H172.829C173.234 35.1025 173.426 40.1516 173.628 45.409C173.728 48.0453 173.832 50.7329 173.92 52.8347C173.975 52.1643 174.03 51.4698 174.082 50.7994C174.253 48.6251 174.402 46.7015 174.615 46.4448H174.618C174.862 46.1549 175.149 46.1187 175.475 46.2908C175.768 46.4479 175.881 46.8918 176.015 47.4202C176.164 48.003 176.353 48.7429 176.423 48.755C177.076 48.8939 193.068 49.6277 193.068 49.6277C193.022 49.6277 176.908 49.7787 176.134 49.6156C175.774 49.5371 175.527 49.2472 175.344 48.8727C175.298 49.4616 175.243 50.1411 175.189 50.8507C174.966 53.7105 174.707 57.0111 174.289 57.4007C174.027 57.6453 173.743 57.6694 173.435 57.458C172.963 57.1349 172.737 51.1587 172.518 45.4302C172.429 43.0898 172.341 40.7918 172.268 38.992C172.079 40.3267 171.865 41.9 171.652 43.4703C171.1 47.535 170.548 51.5906 170.219 51.968L170.216 51.9741C169.981 52.2217 169.71 52.2549 169.405 52.0647C168.984 51.802 168.798 50.585 168.639 49.5401L168.63 49.4737L168.588 49.5522C168.142 50.3857 167.816 50.8084 167.356 50.7933C166.828 50.7782 166.624 50.3102 166.487 49.362C166.435 49.0117 166.38 48.5345 166.328 48.0785C166.313 47.9396 166.307 47.8098 166.307 47.686C165.691 48.5859 164.871 49.5975 164.029 49.5975L143.885 49.6851Z" fill="#0DE0FE"/>
<path d="M110.548 41.6541C110.637 41.5877 110.746 41.5575 110.881 41.5575C111.015 41.5575 111.146 41.5937 111.28 41.6662L111.438 41.4186C111.286 41.325 111.097 41.2766 110.874 41.2676C110.64 41.2676 110.438 41.331 110.274 41.4578C110.109 41.5847 110.027 41.7568 110.027 41.9742V42.2037H109.691V42.4604H110.027V44.23H110.414V42.4604H111.167V42.2037H110.414V41.9319C110.414 41.8111 110.46 41.7205 110.548 41.6541Z" fill="#026985"/>
<path d="M113.593 42.4257C113.343 42.2294 113.022 42.1328 112.635 42.1328C112.242 42.1328 111.922 42.2294 111.675 42.4257C111.425 42.619 111.303 42.8727 111.303 43.1837C111.303 43.4947 111.428 43.7484 111.675 43.9477C111.925 44.147 112.245 44.2437 112.635 44.2437C113.022 44.2437 113.343 44.144 113.593 43.9477C113.843 43.7514 113.968 43.4947 113.968 43.1837C113.968 42.8757 113.843 42.622 113.593 42.4257ZM113.309 43.7514C113.132 43.8964 112.906 43.9689 112.632 43.9689C112.355 43.9689 112.126 43.8964 111.949 43.7514C111.772 43.6065 111.684 43.4192 111.684 43.1897C111.684 42.9633 111.772 42.776 111.949 42.6311C112.126 42.4861 112.352 42.4137 112.632 42.4137C112.906 42.4137 113.132 42.4861 113.309 42.6311C113.486 42.776 113.574 42.9633 113.574 43.1897C113.574 43.4192 113.486 43.6065 113.309 43.7514Z" fill="#026985"/>
<path d="M115.038 42.6032V42.1412H114.65V44.2278H115.038V43.1166C115.062 42.9082 115.157 42.7421 115.321 42.6183C115.489 42.4945 115.708 42.4341 115.983 42.4371V42.123C115.532 42.1321 115.217 42.2922 115.038 42.6032Z" fill="#026985"/>
<path d="M122.232 42.127C121.698 42.133 121.35 42.3142 121.192 42.6735C121.137 42.4984 121.027 42.3655 120.863 42.2689C120.698 42.1753 120.494 42.127 120.247 42.127C119.75 42.133 119.414 42.2961 119.24 42.6131V42.142H118.859V44.2287H119.24V43.202C119.24 42.9755 119.317 42.7913 119.472 42.6494C119.628 42.5105 119.838 42.435 120.103 42.4289C120.335 42.4289 120.515 42.4803 120.64 42.586C120.768 42.6917 120.832 42.8366 120.832 43.0238V44.2287H121.231V43.202C121.231 42.9755 121.308 42.7913 121.457 42.6494C121.607 42.5105 121.82 42.435 122.088 42.4289C122.317 42.4289 122.494 42.4803 122.622 42.586C122.75 42.6917 122.817 42.8366 122.817 43.0238V44.2287H123.204V42.9393C123.204 42.6856 123.119 42.4893 122.945 42.3444C122.774 42.1994 122.536 42.127 122.232 42.127Z" fill="#026985"/>
<path d="M126.048 42.4439C125.837 42.2325 125.523 42.1299 125.109 42.1329C124.724 42.1329 124.41 42.2295 124.169 42.4258C123.926 42.6221 123.807 42.8758 123.807 43.1868C123.807 43.4978 123.929 43.7515 124.169 43.9478C124.413 44.1441 124.724 44.2407 125.109 44.2407C125.554 44.2407 125.91 44.1229 126.173 43.8904L125.956 43.7092C125.749 43.8844 125.477 43.9719 125.145 43.9719C124.886 43.9719 124.67 43.9115 124.499 43.7908C124.325 43.67 124.221 43.5069 124.188 43.3015H126.337C126.356 42.9392 126.261 42.6523 126.048 42.4439ZM124.188 43.0539C124.215 42.8546 124.313 42.6946 124.48 42.5768C124.648 42.459 124.859 42.3986 125.109 42.3986C125.365 42.3986 125.569 42.459 125.727 42.5768C125.886 42.6946 125.971 42.8546 125.984 43.0539H124.188Z" fill="#026985"/>
<path d="M129.033 42.5876C128.936 42.4396 128.798 42.3218 128.618 42.2433C128.442 42.1618 128.234 42.1225 128.006 42.1225C127.634 42.1225 127.329 42.2222 127.094 42.4185C126.859 42.6178 126.74 42.8714 126.74 43.1855C126.74 43.4996 126.859 43.7532 127.094 43.9525C127.329 44.1518 127.634 44.2485 128.012 44.2485C128.243 44.2485 128.448 44.2092 128.621 44.1277C128.798 44.0461 128.936 43.9314 129.033 43.7834V44.2303H129.42V41.2891H129.033V42.5876ZM128.768 43.7502C128.591 43.8951 128.362 43.9676 128.085 43.9676C127.807 43.9676 127.579 43.8951 127.399 43.7502C127.222 43.6052 127.131 43.418 127.131 43.1915C127.131 42.962 127.219 42.7718 127.399 42.6238C127.576 42.4758 127.804 42.4034 128.085 42.4034C128.362 42.4034 128.591 42.4789 128.768 42.6238C128.945 42.7718 129.036 42.962 129.036 43.1915C129.033 43.418 128.945 43.6052 128.768 43.7502Z" fill="#026985"/>
<path d="M130.585 41.3223C130.512 41.3223 130.451 41.3434 130.402 41.3827C130.356 41.4219 130.332 41.4733 130.332 41.5367C130.332 41.6001 130.356 41.6514 130.402 41.6907C130.448 41.7299 130.509 41.7511 130.585 41.7511C130.658 41.7511 130.719 41.7299 130.768 41.6907C130.814 41.6514 130.838 41.6001 130.838 41.5367C130.838 41.4733 130.814 41.4219 130.768 41.3827C130.719 41.3434 130.661 41.3223 130.585 41.3223Z" fill="#026985"/>
<path d="M130.778 42.1406H130.396V44.2273H130.778V42.1406Z" fill="#026985"/>
<path d="M132.783 43.962C132.508 43.962 132.283 43.8895 132.109 43.7446C131.935 43.5996 131.847 43.4124 131.847 43.1859C131.847 42.9594 131.932 42.7722 132.109 42.6303C132.283 42.4883 132.508 42.4158 132.783 42.4158C133.091 42.4158 133.356 42.4974 133.569 42.6574L133.78 42.437C133.521 42.2286 133.185 42.126 132.771 42.129C132.386 42.129 132.072 42.2256 131.832 42.4219C131.588 42.6182 131.469 42.8718 131.469 43.1829C131.469 43.4939 131.591 43.7476 131.832 43.9439C132.072 44.1402 132.386 44.2368 132.771 44.2368C133.222 44.2368 133.573 44.116 133.823 43.8774L133.6 43.6872C133.402 43.8714 133.13 43.962 132.783 43.962Z" fill="#026985"/>
<path d="M136.271 42.3192C136.094 42.1923 135.847 42.1289 135.524 42.1289C135.314 42.1289 135.128 42.1531 134.969 42.1953C134.811 42.2406 134.637 42.3101 134.448 42.4067L134.612 42.6362C134.899 42.4762 135.176 42.3977 135.448 42.3977C135.68 42.3977 135.853 42.4399 135.975 42.5245C136.094 42.6091 136.155 42.7298 136.155 42.8808V43.0077H135.292C134.987 43.0107 134.747 43.065 134.573 43.1707C134.399 43.2764 134.311 43.4214 134.311 43.6056C134.311 43.7898 134.393 43.9408 134.558 44.0646C134.722 44.1854 134.939 44.2458 135.204 44.2458C135.634 44.2458 135.957 44.1341 136.167 43.9106V44.2277H136.542L136.536 42.8506C136.536 42.6241 136.448 42.446 136.271 42.3192ZM136.161 43.5089C136.109 43.6509 136.006 43.7656 135.847 43.8502C135.689 43.9347 135.497 43.977 135.274 43.977C135.091 43.977 134.945 43.9408 134.835 43.8713C134.728 43.8019 134.673 43.7083 134.673 43.5935C134.673 43.37 134.896 43.2583 135.338 43.2583H136.161V43.5089Z" fill="#026985"/>
<path d="M137.823 41.2871H137.436V44.2284H137.823V41.2871Z" fill="#026985"/>
<path d="M142.589 42.1257C142.079 42.1318 141.738 42.2918 141.561 42.6059V41.2832H141.174V44.2245H141.561V43.1978C141.561 42.9713 141.64 42.7871 141.799 42.6451C141.957 42.5062 142.177 42.4338 142.454 42.4307C142.686 42.4307 142.866 42.4821 142.997 42.5878C143.128 42.6935 143.195 42.8354 143.195 43.0196V44.2245H143.589V42.935C143.589 42.6814 143.5 42.4851 143.323 42.3401C143.147 42.1982 142.903 42.1257 142.589 42.1257Z" fill="#026985"/>
<path d="M146.436 42.4439C146.226 42.2325 145.912 42.1299 145.497 42.1329C145.113 42.1329 144.799 42.2295 144.558 42.4258C144.314 42.6221 144.195 42.8758 144.195 43.1868C144.195 43.4978 144.317 43.7515 144.558 43.9478C144.802 44.1441 145.113 44.2407 145.497 44.2407C145.942 44.2407 146.299 44.1229 146.561 43.8904L146.345 43.7092C146.138 43.8844 145.866 43.9719 145.534 43.9719C145.275 43.9719 145.058 43.9115 144.887 43.7908C144.714 43.67 144.61 43.5069 144.576 43.3015H146.726C146.744 42.9392 146.65 42.6523 146.436 42.4439ZM144.573 43.0539C144.601 42.8546 144.698 42.6946 144.866 42.5768C145.034 42.459 145.244 42.3986 145.494 42.3986C145.75 42.3986 145.955 42.459 146.113 42.5768C146.272 42.6946 146.357 42.8546 146.369 43.0539H144.573Z" fill="#026985"/>
<path d="M149.134 42.3192C148.957 42.1923 148.711 42.1289 148.387 42.1289C148.177 42.1289 147.991 42.1531 147.832 42.1953C147.674 42.2406 147.5 42.3101 147.311 42.4067L147.476 42.6362C147.762 42.4762 148.04 42.3977 148.311 42.3977C148.543 42.3977 148.717 42.4399 148.839 42.5245C148.957 42.6091 149.018 42.7298 149.018 42.8808V43.0077H148.156C147.851 43.0107 147.61 43.065 147.436 43.1707C147.262 43.2764 147.174 43.4214 147.174 43.6056C147.174 43.7898 147.256 43.9408 147.421 44.0646C147.585 44.1854 147.802 44.2458 148.067 44.2458C148.497 44.2458 148.82 44.1341 149.031 43.9106V44.2277H149.406L149.4 42.8506C149.4 42.6241 149.311 42.446 149.134 42.3192ZM149.022 43.5089C148.97 43.6509 148.866 43.7656 148.707 43.8502C148.549 43.9347 148.357 43.977 148.134 43.977C147.951 43.977 147.805 43.9408 147.695 43.8713C147.588 43.8019 147.534 43.7083 147.534 43.5935C147.534 43.37 147.756 43.2583 148.198 43.2583H149.022V43.5089Z" fill="#026985"/>
<path d="M150.684 41.2871H150.297V44.2284H150.684V41.2871Z" fill="#026985"/>
<path d="M152.489 43.9433C152.254 43.9433 152.135 43.8255 152.135 43.593V42.4576H152.971V42.2009L152.135 42.2069V41.6543H151.754V42.2069H151.373V42.4606H151.754V43.6504C151.754 43.8497 151.815 43.9977 151.937 44.0973C152.059 44.197 152.221 44.2453 152.425 44.2453C152.632 44.2423 152.83 44.1879 153.019 44.0852L152.907 43.8316C152.769 43.9071 152.629 43.9433 152.489 43.9433Z" fill="#026985"/>
<path d="M155.049 42.1257C154.54 42.1318 154.199 42.2918 154.022 42.6059V41.2832H153.635V44.2245H154.022V43.1978C154.022 42.9713 154.101 42.7871 154.26 42.6451C154.418 42.5062 154.638 42.4338 154.915 42.4307C155.147 42.4307 155.327 42.4821 155.458 42.5878C155.589 42.6935 155.656 42.8354 155.656 43.0196V44.2245H156.05V42.935C156.05 42.6814 155.961 42.4851 155.784 42.3401C155.607 42.1982 155.364 42.1257 155.049 42.1257Z" fill="#026985"/>
<path d="M160.322 43.962C160.048 43.962 159.822 43.8895 159.648 43.7446C159.474 43.5996 159.386 43.4124 159.386 43.1859C159.386 42.9594 159.471 42.7722 159.648 42.6303C159.822 42.4883 160.048 42.4158 160.322 42.4158C160.63 42.4158 160.895 42.4974 161.109 42.6574L161.319 42.437C161.06 42.2286 160.724 42.126 160.31 42.129C159.926 42.129 159.612 42.2256 159.371 42.4219C159.127 42.6182 159.008 42.8718 159.008 43.1829C159.008 43.4939 159.13 43.7476 159.371 43.9439C159.615 44.1402 159.926 44.2368 160.31 44.2368C160.761 44.2368 161.112 44.116 161.362 43.8774L161.139 43.6872C160.944 43.8714 160.67 43.962 160.322 43.962Z" fill="#026985"/>
<path d="M163.812 42.3192C163.635 42.1923 163.388 42.1289 163.065 42.1289C162.855 42.1289 162.669 42.1531 162.51 42.1953C162.352 42.2406 162.178 42.3101 161.989 42.4067L162.153 42.6362C162.44 42.4762 162.717 42.3977 162.989 42.3977C163.221 42.3977 163.394 42.4399 163.516 42.5245C163.635 42.6091 163.696 42.7298 163.696 42.8808V43.0077H162.833C162.528 43.0107 162.288 43.065 162.114 43.1707C161.94 43.2764 161.852 43.4214 161.852 43.6056C161.852 43.7898 161.934 43.9408 162.099 44.0646C162.263 44.1854 162.48 44.2458 162.745 44.2458C163.175 44.2458 163.498 44.1341 163.708 43.9106V44.2277H164.083L164.077 42.8506C164.074 42.6241 163.986 42.446 163.812 42.3192ZM163.699 43.5089C163.647 43.6509 163.544 43.7656 163.385 43.8502C163.227 43.9347 163.035 43.977 162.812 43.977C162.629 43.977 162.483 43.9408 162.373 43.8713C162.266 43.8019 162.211 43.7083 162.211 43.5935C162.211 43.37 162.434 43.2583 162.876 43.2583H163.699V43.5089Z" fill="#026985"/>
<path d="M165.34 42.6032V42.1412H164.953V44.2278H165.34V43.1166C165.365 42.9082 165.459 42.7421 165.624 42.6183C165.792 42.4945 166.011 42.4341 166.286 42.4371V42.123C165.834 42.1321 165.52 42.2922 165.34 42.6032Z" fill="#026985"/>
<path d="M168.79 42.4439C168.579 42.2325 168.265 42.1299 167.851 42.1329C167.467 42.1329 167.153 42.2295 166.912 42.4258C166.668 42.6221 166.549 42.8758 166.549 43.1868C166.549 43.4978 166.671 43.7515 166.912 43.9478C167.153 44.1441 167.467 44.2407 167.851 44.2407C168.296 44.2407 168.653 44.1229 168.915 43.8904L168.698 43.7092C168.491 43.8844 168.22 43.9719 167.887 43.9719C167.628 43.9719 167.412 43.9115 167.241 43.7908C167.067 43.67 166.963 43.5069 166.93 43.3015H169.079C169.098 42.9392 169 42.6523 168.79 42.4439ZM166.927 43.0539C166.954 42.8546 167.052 42.6946 167.22 42.5768C167.387 42.459 167.598 42.3986 167.848 42.3986C168.104 42.3986 168.308 42.459 168.467 42.5768C168.625 42.6946 168.711 42.8546 168.723 43.0539H166.927Z" fill="#026985"/>
<path d="M66.3437 23.016V22.9375H63.0386L57.6754 28.8473V22.9375H55.0137V36.9131H57.6754V30.7256L63.5813 36.9131H66.8681V36.7531L60.075 29.7049L66.3437 23.016Z" fill="#026985"/>
<path d="M77.3322 30.9645C77.3322 33.3592 76.0821 34.8177 73.8838 34.8177C71.6855 34.8177 70.2342 33.48 70.2342 30.9645V22.959H67.5938V30.9645C67.5938 35.1771 70.475 37.2155 73.8624 37.2155C77.4114 37.2155 79.9695 35.0986 79.9695 30.9645V22.959H77.3291V30.9645H77.3322Z" fill="#026985"/>
<path d="M94.3852 27.5715C94.3852 25.1556 92.6321 22.9602 89.3056 22.9391C87.0677 22.9391 84.8297 22.918 82.5918 22.918V36.9147H85.2535V32.2431H87.8147L91.9278 36.9147H95.0926V36.7366L90.8179 31.9653C93.501 31.4248 94.3852 29.4891 94.3852 27.5715ZM85.2535 29.8665V25.3942H89.3056C90.9795 25.3942 91.7235 26.5115 91.7235 27.6289C91.7235 28.7462 90.9978 29.8665 89.3056 29.8665H85.2535Z" fill="#026985"/>
<path d="M101.543 22.9375C99.8082 22.9375 97.7318 22.9375 96 22.9375V36.9131C97.7349 36.9131 99.8112 36.9131 101.543 36.9131C106.482 36.9131 108.659 33.3377 108.598 29.8045C108.537 26.3529 106.382 22.9375 101.543 22.9375ZM101.543 34.3765H98.6404V25.4319H101.543C104.607 25.4319 105.897 27.6091 105.958 29.7834C106.019 32.0603 104.748 34.3765 101.543 34.3765Z" fill="#026985"/>
<path d="M113.215 22.9375H110.574V36.9131H113.215V22.9375Z" fill="#026985"/>
<path d="M127.369 32.8219C127.369 29.488 124.628 28.73 121.686 28.3707C119.993 28.1714 118.539 27.8301 118.539 26.6132C118.539 25.5744 119.487 24.756 121.463 24.756C122.994 24.756 124.326 25.514 124.808 26.3142L126.924 25.2361C125.857 23.08 123.579 22.4609 121.381 22.4609C118.78 22.4821 115.917 23.6598 115.917 26.5346C115.917 29.6692 118.579 30.4272 121.46 30.7684C123.335 30.9677 124.725 31.5083 124.725 32.8249C124.725 34.3408 123.152 34.9206 121.481 34.9206C119.768 34.9206 118.137 34.2412 117.512 32.7041L115.295 33.8426C116.344 36.3973 118.56 37.2761 121.445 37.2761C124.585 37.2731 127.369 35.9353 127.369 32.8219Z" fill="#026985"/>
<path d="M128.598 25.3322H133.074V36.9131H135.735V25.3322H140.211V22.9375C136.119 22.9375 132.671 22.9375 128.601 22.9375V25.3322H128.598Z" fill="#026985"/>
<path d="M149.605 22.9375H146.703L140.373 36.9131H143.254L144.465 34.2769H151.843L153.032 36.9131H155.935L149.605 22.9375ZM145.532 31.8218L148.154 25.8727L150.773 31.8218H145.532Z" fill="#026985"/>
<path d="M166.416 22.918V31.6029L159.504 22.9391H157.346V36.9147H160.007V27.4899L167.426 36.9359V36.9147H169.078V22.918H166.416Z" fill="#026985"/>
<path d="M27.9317 22.9316C27.8341 22.9316 27.7274 22.9316 27.6299 22.9316V25.429H27.9317C30.9959 25.429 32.2887 27.6063 32.3466 29.7836C32.4076 32.0605 31.1362 34.3767 27.9317 34.3767H25.0291V27.9083H22.3887V36.9133C24.1235 36.9133 26.1999 36.9133 27.9348 36.9133C32.8741 36.9133 35.0541 33.3379 34.9931 29.8017C34.9291 26.347 32.7704 22.9316 27.9317 22.9316Z" fill="#026985"/>
<path d="M48.5593 27.5676C48.5593 25.1517 46.8061 22.9533 43.4767 22.9352C41.2387 22.9352 39.0008 22.9141 36.7598 22.9141V36.9139H39.4215V32.2392H41.9827L46.0957 36.9139H49.2606V36.7357L44.9859 31.9614C47.669 31.4208 48.5593 29.4852 48.5593 27.5676ZM39.4215 29.8626V25.3873H43.4767C45.1505 25.3873 45.8975 26.5046 45.8975 27.625C45.8975 28.7423 45.1719 29.8626 43.4767 29.8626H39.4215Z" fill="#026985"/>
<path d="M22.3863 27.3713H25.0267V25.4235H27.0665V22.9321H25.0267V20.9844H22.3863V22.9321H20.3008V25.4235H22.3863V27.3713Z" fill="#026985"/>
</g>
<defs>
<clipPath id="clip0_109_16108">
<rect width="193" height="61" fill="white"/>
</clipPath>
</defs>
</svg>
