<svg width="21" height="21" viewBox="0 0 21 21" fill="none" xmlns="http://www.w3.org/2000/svg">
<path d="M7.93428 18.63H8.03719C11.5522 18.63 13.2464 17.2446 13.5393 14.1412C13.5709 13.8166 13.3334 13.5237 13.0009 13.4921C12.6843 13.4604 12.3834 13.7058 12.3518 14.0304C12.1222 16.5162 10.9505 17.4425 8.02928 17.4425H7.92636C4.70427 17.4425 3.56427 16.3025 3.56427 13.0804V7.91872C3.56427 4.69664 4.70427 3.55664 7.92636 3.55664H8.02928C10.9664 3.55664 12.138 4.49872 12.3518 7.03206C12.3914 7.35664 12.6684 7.60206 13.0009 7.57039C13.3334 7.54664 13.5709 7.25372 13.5472 6.92914C13.278 3.77831 11.5759 2.36914 8.03719 2.36914H7.93428C4.04719 2.36914 2.38469 4.03164 2.38469 7.91872V13.0804C2.38469 16.9675 4.04719 18.63 7.93428 18.63Z" fill="black"/>
<path d="M8.1256 11.0938H17.1348C17.4593 11.0938 17.7285 10.8246 17.7285 10.5C17.7285 10.1754 17.4593 9.90625 17.1348 9.90625H8.1256C7.80102 9.90625 7.53185 10.1754 7.53185 10.5C7.53185 10.8246 7.80102 11.0938 8.1256 11.0938Z" fill="black"/>
<path d="M15.3694 13.7455C15.5198 13.7455 15.6703 13.6901 15.789 13.5714L18.4411 10.9193C18.6707 10.6897 18.6707 10.3097 18.4411 10.0801L15.789 7.42805C15.5594 7.19846 15.1794 7.19846 14.9498 7.42805C14.7203 7.65763 14.7203 8.03763 14.9498 8.26721L17.1823 10.4997L14.9498 12.7322C14.7203 12.9618 14.7203 13.3418 14.9498 13.5714C15.0607 13.6901 15.219 13.7455 15.3694 13.7455Z" fill="black"/>
</svg>
