<svg width="52" height="77" viewBox="0 0 52 77" fill="none" xmlns="http://www.w3.org/2000/svg">
<path d="M22.5906 62.8844L22.5878 62.8794C22.2904 62.357 21.9936 61.8346 21.6978 61.314C19.8141 57.9985 17.9703 54.7533 16.2512 52.0151C15.17 50.2942 13.9828 48.5916 12.7307 46.796C12.1427 45.9527 11.5403 45.0889 10.9279 44.193C9.06195 41.4633 7.17583 38.535 5.72082 35.4418C2.75811 29.1433 1.51777 21.974 5.63122 14.0961C9.35688 6.96004 17.2417 3.27105 24.9228 3.01461C32.6505 2.75661 40.9022 5.94224 45.3964 13.4625L45.3965 13.4626C50.2631 21.6067 49.6247 28.8281 46.8689 35.2755C45.5326 38.402 43.7084 41.3368 41.8781 44.0754C41.223 45.0556 40.5788 45.9945 39.9494 46.9119C38.7632 48.6409 37.6295 50.2933 36.5741 52.0013L22.5906 62.8844ZM22.5906 62.8844C22.8523 63.3419 23.2102 63.8911 23.6936 64.3628C24.1764 64.8339 25.0277 65.4598 26.2337 65.52C27.4793 65.5822 28.4246 65.0107 29.0038 64.4944C29.5607 63.9982 29.975 63.39 30.2893 62.8467L30.2916 62.8428M22.5906 62.8844L30.2916 62.8428M30.2916 62.8428C30.9481 61.7038 31.5909 60.5708 32.2283 59.4475M30.2916 62.8428L32.2283 59.4475M32.2283 59.4475C33.6727 56.9015 35.089 54.4051 36.5739 52.0016L32.2283 59.4475Z" fill="white" stroke="#29D9AF" stroke-width="6"/>
<path d="M33.5828 26.8347C33.5805 26.8338 33.5782 26.8331 33.5758 26.8323L28.8434 25.2956C28.6203 25.1722 28.3863 25.0607 28.1427 24.9622V24.0874C29.028 23.5309 29.6442 22.697 29.8012 21.7436C30.8771 21.7403 31.7511 21.0157 31.7511 20.1254C31.7511 19.6735 31.5257 19.2645 31.1634 18.9706V17.6857C31.1634 15.102 28.6215 13 25.4971 13C22.3727 13 19.8308 15.102 19.8308 17.6857V18.9707C19.4686 19.2646 19.2432 19.6735 19.2432 20.1254C19.2432 21.0157 20.1173 21.7403 21.1931 21.7436C21.3502 22.6969 21.9663 23.5309 22.8516 24.0874V24.9658C22.6116 25.0632 22.3813 25.1727 22.1622 25.2939L17.4243 26.8324C17.4219 26.8331 17.4196 26.8339 17.4173 26.8348C17.3185 26.8684 15 27.6822 15 29.9211V37.6053C15 37.8233 15.2136 38 15.4773 38H28.9706C29.2343 38 29.4479 37.8233 29.4479 37.6053C29.4479 37.3872 29.2343 37.2106 28.9706 37.2106H23.1791V33.3948C23.1791 33.1767 22.9655 33.0001 22.7018 33.0001C22.4381 33.0001 22.2244 33.1768 22.2244 33.3948V37.2106H19.5656V33.2193C19.5656 33.0012 19.352 32.8246 19.0882 32.8246C18.8245 32.8246 18.6109 33.0013 18.6109 33.2193V37.2106H15.9547V29.921C15.9547 28.2344 17.679 27.6006 17.7782 27.5656L20.4887 26.6854C19.8738 27.4532 19.5143 28.3613 19.4883 29.317C19.4882 29.3199 19.4882 29.3229 19.4882 29.3259V30.0783C19.0163 30.2353 18.6819 30.617 18.6819 31.0627C18.6819 31.648 19.2577 32.1242 19.9655 32.1242C20.6732 32.1242 21.249 31.648 21.249 31.0627C21.249 30.617 20.9147 30.2353 20.4428 30.0783V29.3305C20.4814 27.984 21.3053 26.7493 22.611 25.9962L22.8587 25.9158C22.8767 26.0047 22.9304 26.0867 23.0133 26.1471L24.7729 27.4285L22.3878 29.1499C22.2839 29.2248 22.2244 29.3332 22.2244 29.4473V32.2367C22.2244 32.4548 22.4381 32.6314 22.7017 32.6314C22.9653 32.6314 23.179 32.4547 23.179 32.2367V29.6266L25.7796 27.7497C25.792 27.7424 25.804 27.7345 25.8157 27.726L27.9839 26.1471C28.0029 26.1332 28.02 26.1178 28.036 26.1018C28.0384 26.0994 28.0408 26.0972 28.0431 26.0948C28.0581 26.0791 28.0716 26.0624 28.0835 26.0449C28.0853 26.0423 28.087 26.0396 28.0887 26.037C28.1123 26.0005 28.1289 25.9611 28.1378 25.9201C28.1381 25.9183 28.139 25.9167 28.1393 25.915L28.3899 25.9964C29.155 26.4367 29.7618 27.0446 30.1372 27.7557H30.0003C29.1864 27.7557 28.5242 28.3032 28.5242 28.9762V30.9034C28.5242 31.5764 29.1863 32.1239 30.0003 32.1239C30.264 32.1239 30.4777 31.9473 30.4777 31.7292C30.4777 31.5112 30.264 31.3345 30.0003 31.3345C29.7128 31.3345 29.4789 31.1411 29.4789 30.9034V28.9762C29.4789 28.7385 29.7128 28.5451 30.0003 28.5451H31.6648C31.9524 28.5451 32.1863 28.7385 32.1863 28.9762V30.9034C32.1863 31.1411 31.9523 31.3345 31.6648 31.3345C31.4011 31.3345 31.1875 31.5112 31.1875 31.7292C31.1875 31.9473 31.4011 32.1239 31.6648 32.1239C32.4788 32.1239 33.141 31.5764 33.141 30.9034V28.9762C33.141 28.3032 32.4788 27.7557 31.6648 27.7557H31.164C31.0001 27.3763 30.7825 27.0181 30.5181 26.6874L33.2219 27.5654C33.2949 27.5913 35.0453 28.2324 35.0453 29.9208V37.2103H32.3893V33.2191C32.3893 33.001 32.1757 32.8243 31.912 32.8243C31.6483 32.8243 31.4347 33.001 31.4347 33.2191V37.2103H30.3918C30.1281 37.2103 29.9145 37.387 29.9145 37.605C29.9145 37.8231 30.1281 37.9998 30.3918 37.9998H35.5227C35.7864 37.9998 36 37.8231 36 37.605V29.921C36.0002 27.6822 33.6816 26.8683 33.5828 26.8347ZM19.9656 31.3347C19.7842 31.3347 19.6366 31.2127 19.6366 31.0627C19.6366 30.9127 19.7842 30.7908 19.9656 30.7908C20.1469 30.7908 20.2943 30.9127 20.2943 31.0627C20.2944 31.2127 20.1469 31.3347 19.9656 31.3347ZM30.2235 19.3769C30.2458 19.3857 30.2676 19.3951 30.2889 19.4052C30.2948 19.4079 30.3008 19.4108 30.3067 19.4137C30.3266 19.4236 30.3459 19.4341 30.365 19.4449C30.371 19.4484 30.3771 19.4518 30.383 19.4553C30.6333 19.6062 30.7964 19.8502 30.7964 20.1254C30.7964 20.5693 30.3724 20.9328 29.8417 20.9534V19.298C29.8463 19.2982 29.8509 19.2982 29.8556 19.2985C29.8784 19.2997 29.9009 19.3015 29.9233 19.3039C29.9306 19.3047 29.938 19.3052 29.9453 19.3061C30.0074 19.3139 30.0677 19.3263 30.1256 19.3431C30.1274 19.3437 30.1293 19.3444 30.1311 19.3449C30.1578 19.3528 30.1837 19.3616 30.2092 19.3712C30.214 19.373 30.2188 19.375 30.2235 19.3769ZM21.1526 20.9533C20.6219 20.9328 20.1979 20.5692 20.1979 20.1254C20.1979 19.8502 20.3612 19.606 20.6115 19.4552C20.6173 19.4518 20.6231 19.4486 20.6288 19.4452C20.6481 19.4342 20.6677 19.4236 20.6878 19.4136C20.6936 19.4108 20.6994 19.408 20.7052 19.4052C20.7266 19.3951 20.7485 19.3856 20.7709 19.3768C20.7756 19.375 20.7802 19.373 20.785 19.3713C20.8105 19.3616 20.8366 19.3528 20.8633 19.3448C20.8651 19.3443 20.8669 19.3437 20.8687 19.3432C20.9266 19.3263 20.9869 19.314 21.049 19.3061C21.0563 19.3052 21.0637 19.3047 21.071 19.3039C21.0933 19.3015 21.1159 19.2997 21.1387 19.2985C21.1433 19.2983 21.1479 19.2983 21.1526 19.298V20.9533ZM21.3134 18.0817C21.2111 18.1567 21.1525 18.2642 21.1525 18.3772V18.5074C21.1425 18.5076 21.1325 18.5082 21.1224 18.5086C21.1092 18.509 21.096 18.5095 21.0829 18.5101C21.0622 18.5111 21.0415 18.5124 21.021 18.514C21.0105 18.5148 20.9999 18.5155 20.9894 18.5165C20.9645 18.5187 20.9397 18.5214 20.915 18.5243C20.9093 18.525 20.9035 18.5256 20.8978 18.5263C20.8602 18.5312 20.8227 18.5366 20.7856 18.5432V17.6857C20.7856 15.5373 22.8992 13.7895 25.4971 13.7895C28.095 13.7895 30.2087 15.5373 30.2087 17.6857V18.5431C30.1714 18.5365 30.1337 18.5311 30.0959 18.5262C30.0907 18.5256 30.0854 18.525 30.0802 18.5244C30.055 18.5213 30.0297 18.5187 30.0044 18.5164C29.9943 18.5155 29.9839 18.5148 29.9737 18.514C29.9529 18.5124 29.9321 18.5111 29.9111 18.51C29.8981 18.5094 29.885 18.5089 29.8718 18.5085C29.8618 18.5082 29.8517 18.5075 29.8416 18.5074V18.3771C29.8416 18.2774 29.7959 18.1813 29.7138 18.1083L28.194 16.7574C28.032 16.6133 27.7675 16.5909 27.5736 16.7018C27.5681 16.7049 27.5625 16.7077 27.5573 16.711C27.536 16.7242 25.4002 18.0301 22.587 18.0301C22.2857 18.0301 21.9831 18.0151 21.6874 17.9853C21.5515 17.9717 21.4156 18.0068 21.3134 18.0817ZM27.1879 25.6727L25.4987 26.9028L23.8095 25.6727V25.217C23.8095 25.2026 23.8081 25.1884 23.8062 25.1742V24.5424C23.8555 24.5593 23.9055 24.5747 23.9556 24.5899C23.961 24.5915 23.9662 24.5933 23.9717 24.595C24.0274 24.6118 24.0837 24.6273 24.1402 24.6422C24.1515 24.6452 24.1626 24.6485 24.1739 24.6514C24.2254 24.6646 24.2774 24.6765 24.3294 24.688C24.3462 24.6918 24.3628 24.696 24.3796 24.6995C24.4275 24.7096 24.4758 24.7184 24.5241 24.7271C24.5454 24.731 24.5665 24.7353 24.588 24.7389C24.6332 24.7465 24.6788 24.7528 24.7244 24.7591C24.7492 24.7626 24.7737 24.7666 24.7986 24.7698C24.8427 24.7752 24.8871 24.7794 24.9316 24.7838C24.9582 24.7864 24.9846 24.7897 25.0114 24.7919C25.0586 24.7958 25.1062 24.7982 25.1536 24.8008C25.1777 24.8022 25.2015 24.8042 25.2256 24.8052C25.2975 24.8081 25.3696 24.8097 25.4419 24.8097H25.5523C25.6245 24.8097 25.6967 24.8082 25.7685 24.8052C25.7928 24.8042 25.8166 24.8021 25.8406 24.8008C25.8881 24.7982 25.9355 24.7958 25.9828 24.7919C26.0096 24.7897 26.0361 24.7864 26.0628 24.7838C26.1071 24.7794 26.1514 24.7753 26.1955 24.7698C26.2206 24.7666 26.2453 24.7626 26.2702 24.7591C26.3156 24.7528 26.361 24.7465 26.4061 24.739C26.4277 24.7354 26.4491 24.731 26.4706 24.727C26.5187 24.7183 26.5668 24.7095 26.6145 24.6995C26.6316 24.6959 26.6484 24.6916 26.6654 24.6878C26.7172 24.6764 26.7689 24.6645 26.82 24.6515C26.8317 24.6485 26.8433 24.645 26.8551 24.6419C26.9112 24.6272 26.9669 24.6118 27.0222 24.5951C27.0282 24.5933 27.0341 24.5913 27.0401 24.5895C27.0897 24.5743 27.1391 24.5591 27.1879 24.5424V25.6727ZM26.6994 23.852C26.698 23.8524 26.6968 23.8528 26.6955 23.8532C26.5941 23.8838 26.4905 23.9107 26.3848 23.9332C26.3846 23.9332 26.3844 23.9333 26.3841 23.9333C26.336 23.9435 26.2875 23.9526 26.2386 23.9611C26.2282 23.9629 26.2177 23.9647 26.2073 23.9664C26.1633 23.9737 26.119 23.9803 26.0743 23.9861C26.0677 23.9869 26.0611 23.988 26.0545 23.9888C26.0044 23.9951 25.954 24.0003 25.9032 24.0048C25.8916 24.0058 25.8798 24.0065 25.8682 24.0075C25.8284 24.0106 25.7885 24.0131 25.7484 24.015C25.7341 24.0157 25.7198 24.0165 25.7054 24.017C25.6545 24.0189 25.6035 24.0202 25.552 24.0202H25.4417C25.3902 24.0202 25.3392 24.0189 25.2883 24.017C25.274 24.0165 25.2597 24.0157 25.2453 24.015C25.2052 24.0131 25.1653 24.0106 25.1255 24.0075C25.1138 24.0066 25.1021 24.0059 25.0905 24.0048C25.0397 24.0004 24.9893 23.9952 24.9392 23.9889C24.9327 23.988 24.9261 23.987 24.9196 23.9862C24.8748 23.9803 24.8305 23.9738 24.7863 23.9665C24.7759 23.9647 24.7656 23.963 24.7552 23.9612C24.7062 23.9526 24.6574 23.9436 24.6092 23.9333H24.6092C24.5032 23.9107 24.3994 23.8838 24.2979 23.8531C24.2969 23.8528 24.2959 23.8525 24.2948 23.8522C23.0195 23.4646 22.1072 22.4501 22.1072 21.2626V18.9543V18.8084C22.2668 18.8158 22.4271 18.8196 22.587 18.8196C25.0506 18.8196 26.9993 17.9486 27.7735 17.5428L28.8869 18.5324V18.9543V21.2626C28.887 22.45 27.9747 23.4644 26.6994 23.852Z" fill="#415A77"/>
<circle cx="26" cy="75" r="1.5" fill="#13B2B2" stroke="#29D9AF"/>
</svg>
