<svg width="21" height="22" viewBox="0 0 21 22" fill="none" xmlns="http://www.w3.org/2000/svg">
<path d="M16.2735 12.0143C16.2718 12.0137 16.2701 12.0132 16.2684 12.0125L12.8882 10.8447C12.7288 10.7509 12.5617 10.6662 12.3876 10.5913V9.92643C13.02 9.5035 13.4601 8.86971 13.5723 8.14515C14.3408 8.14266 14.9651 7.59196 14.9651 6.91528C14.9651 6.57183 14.8041 6.261 14.5453 6.03764V5.06111C14.5453 3.09752 12.7297 1.5 10.4979 1.5C8.2662 1.5 6.45059 3.09752 6.45059 5.06111V6.03772C6.19184 6.26108 6.03089 6.57187 6.03089 6.91528C6.03089 7.59196 6.65523 8.14266 7.42364 8.14515C7.53583 8.86967 7.9759 9.50346 8.60826 9.92639V10.594C8.43685 10.6681 8.27236 10.7513 8.11589 10.8434L4.73164 12.0126C4.72995 12.0132 4.72827 12.0138 4.72662 12.0144C4.6561 12.0399 3 12.6585 3 14.36V20.2C3 20.3657 3.15259 20.5 3.34096 20.5H12.979C13.1673 20.5 13.3199 20.3657 13.3199 20.2C13.3199 20.0343 13.1673 19.9 12.979 19.9H8.84221V17C8.84221 16.8343 8.68961 16.7001 8.50125 16.7001C8.31289 16.7001 8.1603 16.8344 8.1603 17V19.9H6.26113V16.8667C6.26113 16.7009 6.10854 16.5667 5.92018 16.5667C5.73182 16.5667 5.57922 16.701 5.57922 16.8667V19.9H3.68191V14.3599C3.68191 13.0782 4.91355 12.5964 4.98441 12.5699L6.92052 11.9009C6.48129 12.4844 6.22452 13.1746 6.20592 13.9009C6.20588 13.9031 6.20584 13.9054 6.20584 13.9077V14.4795C5.86876 14.5988 5.62992 14.8889 5.62992 15.2277C5.62992 15.6725 6.04122 16.0344 6.54679 16.0344C7.05228 16.0344 7.46358 15.6725 7.46358 15.2277C7.46358 14.8889 7.22478 14.5989 6.88775 14.4795V13.9111C6.91529 12.8878 7.50382 11.9494 8.43643 11.3771L8.61336 11.316C8.62618 11.3836 8.6646 11.4459 8.72382 11.4918L9.98064 12.4656L8.277 13.7739C8.20281 13.8309 8.16026 13.9133 8.16026 13.9999V16.1199C8.16026 16.2856 8.31289 16.4199 8.50121 16.4199C8.68953 16.4199 8.84217 16.2856 8.84217 16.1199V14.1363L10.6997 12.7098C10.7086 12.7042 10.7172 12.6982 10.7255 12.6918L12.2742 11.4918C12.2878 11.4812 12.3 11.4695 12.3114 11.4574C12.3131 11.4556 12.3149 11.4538 12.3165 11.4521C12.3272 11.4401 12.3369 11.4274 12.3454 11.4141C12.3467 11.4121 12.3478 11.4101 12.3491 11.4081C12.3659 11.3804 12.3778 11.3505 12.3841 11.3193C12.3844 11.3179 12.385 11.3167 12.3852 11.3154L12.5642 11.3773C13.1107 11.7119 13.5441 12.1739 13.8123 12.7143H13.7145C13.1331 12.7143 12.6601 13.1304 12.6601 13.6419V15.1066C12.6601 15.6181 13.1331 16.0342 13.7145 16.0342C13.9029 16.0342 14.0555 15.8999 14.0555 15.7342C14.0555 15.5685 13.9029 15.4342 13.7145 15.4342C13.5092 15.4342 13.3421 15.2872 13.3421 15.1066V13.6419C13.3421 13.4612 13.5092 13.3143 13.7145 13.3143H14.9034C15.1088 13.3143 15.2759 13.4613 15.2759 13.6419V15.1066C15.2759 15.2873 15.1088 15.4342 14.9034 15.4342C14.7151 15.4342 14.5625 15.5685 14.5625 15.7342C14.5625 15.8999 14.7151 16.0342 14.9034 16.0342C15.4848 16.0342 15.9579 15.6181 15.9579 15.1066V13.6419C15.9579 13.1304 15.4849 12.7143 14.9034 12.7143H14.5457C14.4286 12.426 14.2732 12.1537 14.0843 11.9025L16.0156 12.5697C16.0678 12.5894 17.3181 13.0766 17.3181 14.3598V19.8998H15.4209V16.8665C15.4209 16.7008 15.2684 16.5665 15.08 16.5665C14.8916 16.5665 14.739 16.7008 14.739 16.8665V19.8998H13.9942C13.8058 19.8998 13.6532 20.0341 13.6532 20.1998C13.6532 20.3656 13.8058 20.4998 13.9942 20.4998H17.659C17.8474 20.4998 18 20.3656 18 20.1998V14.3599C18.0001 12.6585 16.344 12.0399 16.2735 12.0143ZM6.54684 15.4344C6.41727 15.4344 6.31187 15.3416 6.31187 15.2276C6.31187 15.1137 6.41727 15.021 6.54684 15.021C6.67636 15.021 6.78167 15.1137 6.78167 15.2276C6.78172 15.3417 6.67636 15.4344 6.54684 15.4344ZM13.874 6.34643C13.8899 6.35311 13.9054 6.36027 13.9206 6.36791C13.9249 6.37003 13.9291 6.37218 13.9333 6.37441C13.9476 6.3819 13.9614 6.38988 13.975 6.39816C13.9793 6.40079 13.9837 6.40335 13.9879 6.40606C14.1666 6.52069 14.2831 6.70617 14.2831 6.91531C14.2831 7.25264 13.9803 7.52891 13.6012 7.54457V6.2865C13.6045 6.28661 13.6078 6.28665 13.6112 6.28687C13.6274 6.28776 13.6435 6.28913 13.6595 6.29099C13.6647 6.29158 13.67 6.29195 13.6752 6.29266C13.7196 6.29859 13.7627 6.30802 13.804 6.32079C13.8053 6.32119 13.8066 6.32171 13.8079 6.32212C13.827 6.32813 13.8455 6.33481 13.8637 6.34212C13.8672 6.3435 13.8706 6.34498 13.874 6.34643ZM7.39471 7.54454C7.01567 7.52891 6.7128 7.2526 6.7128 6.91531C6.7128 6.70617 6.82942 6.52058 7.00825 6.40595C7.01234 6.40335 7.01651 6.4009 7.0206 6.39838C7.03435 6.38999 7.04836 6.3819 7.06274 6.37433C7.06683 6.37218 7.07101 6.37007 7.07514 6.36799C7.09045 6.36031 7.1061 6.35307 7.12208 6.34639C7.12545 6.34498 7.12875 6.3435 7.13212 6.34216C7.15038 6.33481 7.16902 6.3281 7.18809 6.32208C7.18935 6.32168 7.19062 6.32119 7.19193 6.32082C7.23326 6.30802 7.27636 6.29863 7.32073 6.29266C7.32592 6.29199 7.33119 6.29158 7.33642 6.29099C7.35237 6.28913 7.36852 6.28776 7.3848 6.28687C7.38809 6.28672 7.39138 6.28668 7.39471 6.2865V7.54454ZM7.50956 5.36211C7.43651 5.41907 7.39467 5.50078 7.39467 5.58665V5.68562C7.3875 5.68577 7.38033 5.68626 7.37316 5.68652C7.36371 5.68685 7.35431 5.68718 7.3449 5.68767C7.33014 5.68841 7.31538 5.68945 7.3007 5.69063C7.29319 5.69123 7.28564 5.69178 7.27818 5.69253C7.26034 5.6942 7.24266 5.69624 7.22499 5.6985C7.2209 5.69902 7.21681 5.69947 7.21272 5.70002C7.18585 5.70373 7.15907 5.70782 7.13254 5.71283V5.06111C7.13254 3.42834 8.64229 2.10002 10.4979 2.10002C12.3536 2.10002 13.8633 3.42838 13.8633 5.06111V5.71275C13.8367 5.7077 13.8098 5.70362 13.7828 5.69995C13.7791 5.69943 13.7753 5.69902 13.7715 5.69854C13.7536 5.6962 13.7355 5.6942 13.7174 5.69245C13.7102 5.69178 13.7028 5.69123 13.6955 5.69063C13.6807 5.68945 13.6658 5.68841 13.6508 5.68763C13.6415 5.68715 13.6321 5.68677 13.6227 5.68648C13.6155 5.68625 13.6083 5.6857 13.6012 5.68559V5.58662C13.6012 5.5108 13.5685 5.43777 13.5098 5.38229L12.4243 4.35559C12.3086 4.24612 12.1196 4.22905 11.9811 4.31336C11.9772 4.31574 11.9732 4.31782 11.9695 4.32034C11.9543 4.33039 10.4287 5.32288 8.4193 5.32288C8.20408 5.32288 7.98792 5.31145 7.77675 5.28885C7.67965 5.2785 7.58261 5.30518 7.50956 5.36211ZM11.7057 11.1312L10.4991 12.0661L9.29249 11.1312V10.7849C9.29249 10.774 9.29152 10.7632 9.29017 10.7524V10.2723C9.32538 10.2851 9.36106 10.2967 9.39683 10.3083C9.40071 10.3095 9.40446 10.3109 9.40834 10.3122C9.44816 10.325 9.48835 10.3368 9.52872 10.3481C9.53677 10.3504 9.5447 10.3529 9.5528 10.3551C9.58958 10.3651 9.62673 10.3741 9.66389 10.3829C9.67587 10.3858 9.68768 10.3889 9.6997 10.3916C9.73391 10.3993 9.76841 10.406 9.80291 10.4126C9.81813 10.4156 9.83323 10.4188 9.84854 10.4216C9.88085 10.4273 9.91341 10.4321 9.94597 10.4369C9.96368 10.4396 9.98119 10.4426 9.99903 10.445C10.0305 10.4492 10.0622 10.4523 10.094 10.4557C10.113 10.4577 10.1319 10.4602 10.151 10.4618C10.1847 10.4648 10.2187 10.4667 10.2526 10.4686C10.2698 10.4696 10.2868 10.4712 10.304 10.4719C10.3553 10.4742 10.4068 10.4754 10.4585 10.4754H10.5373C10.589 10.4754 10.6405 10.4742 10.6918 10.4719C10.7091 10.4712 10.7261 10.4696 10.7433 10.4686C10.7772 10.4666 10.8111 10.4648 10.8448 10.4618C10.864 10.4602 10.8829 10.4577 10.902 10.4557C10.9337 10.4524 10.9653 10.4492 10.9968 10.445C11.0147 10.4426 11.0324 10.4395 11.0501 10.4369C11.0826 10.4321 11.115 10.4273 11.1472 10.4216C11.1627 10.4189 11.1779 10.4155 11.1933 10.4125C11.2276 10.4059 11.262 10.3992 11.296 10.3916C11.3083 10.3888 11.3203 10.3856 11.3324 10.3828C11.3694 10.374 11.4063 10.365 11.4429 10.3551C11.4513 10.3529 11.4595 10.3502 11.4679 10.3479C11.508 10.3366 11.5478 10.3249 11.5873 10.3123C11.5916 10.3109 11.5958 10.3094 11.6001 10.308C11.6355 10.2965 11.6708 10.2849 11.7057 10.2723V11.1312ZM11.3567 9.74753C11.3557 9.74786 11.3548 9.74812 11.3539 9.74842C11.2815 9.77172 11.2075 9.79209 11.132 9.8092C11.1318 9.80924 11.1317 9.80928 11.1315 9.80928C11.0972 9.81707 11.0625 9.82401 11.0276 9.83043C11.0201 9.8318 11.0127 9.83314 11.0052 9.83447C10.9738 9.84 10.9421 9.84501 10.9102 9.84943C10.9055 9.85006 10.9008 9.85088 10.896 9.85151C10.8603 9.85626 10.8243 9.86026 10.788 9.86364C10.7797 9.86442 10.7713 9.86498 10.763 9.86568C10.7346 9.86806 10.7061 9.86995 10.6774 9.87143C10.6672 9.87195 10.657 9.87251 10.6467 9.87292C10.6104 9.87437 10.5739 9.87537 10.5372 9.87537H10.4583C10.4216 9.87537 10.3852 9.87437 10.3488 9.87292C10.3385 9.87251 10.3283 9.87195 10.3181 9.87143C10.2895 9.86995 10.2609 9.86802 10.2325 9.86568C10.2242 9.86501 10.2158 9.86446 10.2075 9.86368C10.1712 9.8603 10.1352 9.85633 10.0994 9.85154C10.0948 9.85091 10.0901 9.85013 10.0854 9.8495C10.0534 9.84505 10.0218 9.84008 9.99021 9.83451C9.98279 9.83317 9.97545 9.83188 9.96803 9.8305C9.93302 9.82401 9.89814 9.81711 9.86372 9.80928H9.86368C9.78802 9.79213 9.71387 9.77172 9.64133 9.74834C9.64061 9.74812 9.63994 9.7479 9.63918 9.74767C8.72825 9.4531 8.07654 8.68208 8.07654 7.77955V6.02525V5.91437C8.19058 5.92004 8.30505 5.9229 8.41926 5.9229C10.179 5.9229 11.5709 5.26095 12.1239 4.95249L12.9192 5.70466V6.02525V7.77955C12.9193 8.68197 12.2677 9.45295 11.3567 9.74753Z" fill="#363636"/>
</svg>
