<svg width="25" height="25" viewBox="0 0 25 25" fill="none" xmlns="http://www.w3.org/2000/svg">
<path d="M16.1491 21.9102C15.7191 21.9102 15.2891 21.8202 14.9391 21.6502L9.68906 19.0202C9.38906 18.8702 8.79906 18.8802 8.50906 19.0502L6.14906 20.4002C5.12906 20.9802 4.07906 21.0602 3.28906 20.5902C2.48906 20.1302 2.03906 19.1902 2.03906 18.0102V8.29016C2.03906 7.38016 2.63906 6.35016 3.42906 5.90016L7.75906 3.42016C8.48906 3.00016 9.59906 2.97016 10.3491 3.35016L15.5991 5.98016C15.8991 6.13016 16.4791 6.11016 16.7791 5.95016L19.1291 4.61016C20.1491 4.03016 21.1991 3.95016 21.9891 4.42016C22.7891 4.88016 23.2391 5.82016 23.2391 7.00016V16.7302C23.2391 17.6402 22.6391 18.6702 21.8491 19.1202L17.5191 21.6002C17.1391 21.8002 16.6391 21.9102 16.1491 21.9102ZM9.13906 17.4202C9.56906 17.4202 9.99906 17.5102 10.3491 17.6802L15.5991 20.3102C15.8991 20.4602 16.4791 20.4402 16.7791 20.2802L21.1091 17.8002C21.4291 17.6202 21.7391 17.0802 21.7391 16.7202V6.99016C21.7391 6.36016 21.5591 5.89016 21.2291 5.71016C20.9091 5.53016 20.4091 5.60016 19.8691 5.91016L17.5191 7.25016C16.7891 7.67016 15.6791 7.70016 14.9291 7.32016L9.67906 4.69016C9.37906 4.54016 8.79906 4.56016 8.49906 4.72016L4.16906 7.20016C3.84906 7.38016 3.53906 7.92016 3.53906 8.29016V18.0202C3.53906 18.6502 3.71906 19.1202 4.03906 19.3002C4.35906 19.4902 4.85906 19.4102 5.40906 19.1002L7.75906 17.7602C8.14906 17.5302 8.64906 17.4202 9.13906 17.4202Z" fill="#363636"/>
<path d="M9.05859 18.25C8.64859 18.25 8.30859 17.91 8.30859 17.5V4.5C8.30859 4.09 8.64859 3.75 9.05859 3.75C9.46859 3.75 9.80859 4.09 9.80859 4.5V17.5C9.80859 17.91 9.46859 18.25 9.05859 18.25Z" fill="#363636"/>
<path d="M16.2305 21.2491C15.8205 21.2491 15.4805 20.9091 15.4805 20.4991V7.11914C15.4805 6.70914 15.8205 6.36914 16.2305 6.36914C16.6405 6.36914 16.9805 6.70914 16.9805 7.11914V20.4991C16.9805 20.9091 16.6405 21.2491 16.2305 21.2491Z" fill="#363636"/>
</svg>
