<svg width="16" height="16" viewBox="0 0 16 16" fill="none" xmlns="http://www.w3.org/2000/svg">
<path d="M9.33147 8V13.2533C9.35813 13.4533 9.29147 13.6667 9.13813 13.8067C9.07646 13.8685 9.0032 13.9175 8.92255 13.951C8.8419 13.9844 8.75545 14.0016 8.66813 14.0016C8.58082 14.0016 8.49437 13.9844 8.41372 13.951C8.33307 13.9175 8.25981 13.8685 8.19813 13.8067L6.85813 12.4667C6.78542 12.3956 6.73014 12.3087 6.6966 12.2127C6.66306 12.1167 6.65218 12.0142 6.6648 11.9133V8H6.6448L2.8048 3.08C2.69654 2.94102 2.64769 2.76484 2.66893 2.58995C2.69016 2.41507 2.77976 2.2557 2.91813 2.14667C3.0448 2.05333 3.1848 2 3.33147 2H12.6648C12.8115 2 12.9515 2.05333 13.0781 2.14667C13.2165 2.2557 13.3061 2.41507 13.3273 2.58995C13.3486 2.76484 13.2997 2.94102 13.1915 3.08L9.35147 8H9.33147Z" fill="#026985"/>
</svg>
