<svg width="16" height="16" viewBox="0 0 16 16" fill="none" xmlns="http://www.w3.org/2000/svg">
<path d="M0.742856 0H6.5532C6.96228 0 7.29605 0.334082 7.29605 0.742856V6.5532C7.29605 6.9601 6.96009 7.29605 6.5532 7.29605H0.742856C0.33502 7.29605 0 6.96103 0 6.5532V0.742856C0 0.332832 0.332832 0 0.742856 0ZM9.44743 8.70364H15.2581C15.665 8.70364 16.0009 9.03959 16.0009 9.44649V15.2571C16.0009 15.6634 15.664 16 15.2581 16H9.44743C9.24429 16 9.05834 15.9159 8.92396 15.7822C8.78864 15.6456 8.70457 15.46 8.70457 15.2571V9.44649C8.70457 9.03647 9.0374 8.70364 9.44743 8.70364ZM15.1324 9.57181H9.57275V15.1315H15.1324V9.57181ZM9.44743 0H15.2581C15.665 0 16.0009 0.335957 16.0009 0.742856V6.5532C16.0009 6.9601 15.665 7.29605 15.2581 7.29605H9.44743C9.03959 7.29605 8.70457 6.96103 8.70457 6.5532V0.742856C8.70457 0.332832 9.0374 0 9.44743 0ZM15.1324 0.868488H9.57275V6.42756H15.1324V0.868488ZM0.742856 8.70364H6.5532C6.96228 8.70364 7.29605 9.03741 7.29605 9.44649V15.2571C7.29605 15.6637 6.96009 16 6.5532 16H0.742856C0.335957 16 0 15.6637 0 15.2571V9.44649C0 9.03647 0.332832 8.70364 0.742856 8.70364ZM6.42756 9.57181H0.868488V15.1315H6.42756V9.57181ZM6.42756 0.868488H0.868488V6.42756H6.42756V0.868488Z" fill="#2E9CB7"/>
</svg>
