<svg width="30" height="30" viewBox="0 0 30 30" fill="none" xmlns="http://www.w3.org/2000/svg">
<path d="M10.6641 8.229C10.2199 8.229 9.85156 7.86067 9.85156 7.4165V4.1665C9.85156 3.72234 10.2199 3.354 10.6641 3.354C11.1082 3.354 11.4766 3.72234 11.4766 4.1665V7.4165C11.4766 7.86067 11.1082 8.229 10.6641 8.229Z" fill="white"/>
<path d="M19.3359 8.229C18.8918 8.229 18.5234 7.86067 18.5234 7.4165V4.1665C18.5234 3.72234 18.8918 3.354 19.3359 3.354C19.7801 3.354 20.1484 3.72234 20.1484 4.1665V7.4165C20.1484 7.86067 19.7801 8.229 19.3359 8.229Z" fill="white"/>
<path d="M24.2057 12.6602H5.78906C5.3449 12.6602 4.97656 12.2918 4.97656 11.8477C4.97656 11.4035 5.3449 11.0352 5.78906 11.0352H24.2057C24.6499 11.0352 25.0182 11.4035 25.0182 11.8477C25.0182 12.2918 24.6499 12.6602 24.2057 12.6602Z" fill="white"/>
<path d="M19.3333 26.6457H10.6667C6.7125 26.6457 4.4375 24.3707 4.4375 20.4165V11.2082C4.4375 7.254 6.7125 4.979 10.6667 4.979H19.3333C23.2875 4.979 25.5625 7.254 25.5625 11.2082V20.4165C25.5625 24.3707 23.2875 26.6457 19.3333 26.6457ZM10.6667 6.604C7.56833 6.604 6.0625 8.10984 6.0625 11.2082V20.4165C6.0625 23.5148 7.56833 25.0207 10.6667 25.0207H19.3333C22.4317 25.0207 23.9375 23.5148 23.9375 20.4165V11.2082C23.9375 8.10984 22.4317 6.604 19.3333 6.604H10.6667Z" fill="white"/>
</svg>
