<svg width="19" height="19" viewBox="0 0 19 19" fill="none" xmlns="http://www.w3.org/2000/svg">
<path d="M9.30829 8.16041C8.99028 8.16041 8.72656 7.89669 8.72656 7.57868V4.99579C8.72656 4.67778 8.99028 4.41406 9.30829 4.41406C9.62631 4.41406 9.89002 4.67778 9.89002 4.99579V7.57868C9.89002 7.90445 9.62631 8.16041 9.30829 8.16041Z" fill="#F3F4F6"/>
<path d="M9.32411 15.7834C7.32296 15.7834 5.32956 15.4654 3.42924 14.8294C2.7234 14.5967 2.18821 14.0925 1.95552 13.4565C1.72283 12.8205 1.80039 12.0914 2.18046 11.4554L3.16552 9.811C3.3827 9.44645 3.57661 8.76389 3.57661 8.33728V6.70844C3.57661 3.53607 6.15174 0.960938 9.32411 0.960938C12.4965 0.960938 15.0716 3.53607 15.0716 6.70844V8.33728C15.0716 8.75613 15.2655 9.44645 15.4827 9.811L16.4678 11.4554C16.8323 12.0604 16.8944 12.7817 16.6539 13.441C16.4135 14.1003 15.886 14.6045 15.219 14.8294C13.3187 15.4732 11.3253 15.7834 9.32411 15.7834ZM9.32411 2.13216C6.79552 2.13216 4.74007 4.1876 4.74007 6.71619V8.34504C4.74007 8.97331 4.49187 9.88081 4.1661 10.416L3.18103 12.0681C2.97937 12.4016 2.93283 12.7584 3.04917 13.0687C3.16552 13.3789 3.42924 13.6116 3.80155 13.7357C7.36949 14.9225 11.2942 14.9225 14.8622 13.7357C15.1957 13.6272 15.4517 13.3789 15.568 13.0532C15.6921 12.7274 15.6533 12.3706 15.4749 12.0681L14.4899 10.4238C14.1641 9.88856 13.9159 8.98107 13.9159 8.3528V6.72395C13.9081 4.1876 11.8527 2.13216 9.32411 2.13216Z" fill="#F3F4F6"/>
<path d="M9.30915 17.7623C8.47921 17.7623 7.66479 17.421 7.0753 16.8315C6.48581 16.242 6.14453 15.4276 6.14453 14.5977H7.30799C7.30799 15.1251 7.52517 15.637 7.89748 16.0093C8.26979 16.3816 8.78171 16.5988 9.30915 16.5988C10.4106 16.5988 11.3103 15.6991 11.3103 14.5977H12.4738C12.4738 16.3428 11.0543 17.7623 9.30915 17.7623Z" fill="#F3F4F6"/>
</svg>
