<svg width="39" height="40" viewBox="0 0 39 40" fill="none" xmlns="http://www.w3.org/2000/svg">
<g clip-path="url(#clip0_2044_30608)">
<path d="M4.78546 1.26028C4.62628 1.40657 3.48214 2.52811 2.24847 3.75531L0 5.99026L0.019898 19.977L0.0497449 33.9719L0.328316 34.2645C0.785969 34.7521 1.08444 34.8334 2.51709 34.8741L3.78061 34.9066V35.6786C3.78061 36.4832 3.92985 36.8733 4.35765 37.1903C4.84515 37.556 5.04413 37.5641 10.5559 37.5723H15.789L15.8388 38.1655C15.8985 38.9051 16.187 39.3683 16.7939 39.7259L17.2316 39.9698L26.7429 39.9941C33.4286 40.0104 36.3735 39.9941 36.6421 39.9291C37.1296 39.8153 37.6967 39.4009 37.9156 38.9945C38.0847 38.7019 38.1046 38.3931 38.1046 35.5567V32.4522L38.5523 32.1027L39 31.7451V29.0469C39 26.0643 38.99 25.9911 38.3732 25.7392C38.2041 25.6579 37.7564 25.5848 37.3883 25.5604L36.7117 25.5197V19.4081V13.2965L37.6668 12.1831C39.0696 10.5496 39.0597 10.2651 37.5375 9.37114L36.7615 8.91603L36.7117 6.76234C36.662 4.53551 36.6421 4.45424 36.1944 4.1129C35.7566 3.77156 35.299 3.68216 34.0753 3.68216H32.9311V2.91821C32.9311 2.06487 32.8416 1.79667 32.4536 1.45533C31.8964 0.97583 32.7122 1.00021 18.3161 1.00021H5.07398L4.78546 1.26028ZM31.6378 2.05674C31.8367 2.21928 31.8367 2.32493 31.8367 7.37187V12.5245L29.8469 14.8082C28.7526 16.0679 27.7875 17.1813 27.7079 17.2788C27.5885 17.4251 27.1607 19.8876 27.1607 20.424C27.1607 20.6272 27.4194 20.8304 27.6781 20.8304C28.0064 20.8304 31.1702 19.6194 31.3592 19.4244C31.8666 18.8799 31.8268 18.7824 31.8367 20.4809V22.0495H26.8324C21.2411 22.0495 21.062 22.0657 20.1268 22.5858C19.2015 23.106 18.7041 23.9431 18.7041 24.9833V25.5279L17.2913 25.5604C16.0974 25.5766 15.8189 25.6091 15.5503 25.7473C14.9434 26.0399 14.9235 26.1455 14.9235 29.0144C14.9235 31.8508 14.9036 31.7532 15.5403 32.1921C15.8089 32.379 15.8189 32.4115 15.8189 33.1917V33.9963L8.66556 33.9801C1.79082 33.9557 1.5023 33.9476 1.30332 33.8013L1.09439 33.6469V20.1233V6.60793H2.83546C4.74566 6.60793 5.02423 6.55916 5.49184 6.15281C5.92959 5.7627 5.96939 5.56765 5.96939 3.67403V1.8942H18.7041C31.3094 1.8942 31.4388 1.8942 31.6378 2.05674ZM4.82525 5.36448C4.73571 5.66518 4.46709 5.72207 3.05434 5.69769L1.72117 5.67331L3.27321 4.13728L4.82525 2.60938L4.8551 3.89347C4.86505 4.60865 4.8551 5.26695 4.82525 5.36448ZM35.3985 4.70618C35.6173 4.82809 35.6173 4.85246 35.6173 6.75421V8.68034L35.289 8.80225C35.0702 8.88352 34.6821 9.24924 34.0554 9.97255C33.548 10.5577 33.0903 11.0616 33.0306 11.1103C32.961 11.1672 32.9311 10.1026 32.9311 7.88388V4.57615H34.0554C34.911 4.57615 35.2293 4.60865 35.3985 4.70618ZM36.7714 10.0294C37.3684 10.3789 37.6071 10.5658 37.5773 10.6634C37.5077 10.899 30.8319 18.5142 30.7025 18.506C30.6429 18.4979 30.1952 18.2703 29.7176 17.994L28.8421 17.482L29.0809 17.2301C29.2102 17.0838 30.7423 15.3202 32.4834 13.3128C35.2592 10.1107 35.7765 9.54181 35.886 9.53369C35.9059 9.53369 36.2939 9.76125 36.7714 10.0294ZM35.6173 20.0583V25.5441H35.2691H34.9209V25.0727C34.9209 23.9431 34.3538 23.0328 33.3092 22.4883L32.9311 22.2933V19.9689V17.6446L34.2543 16.1085C34.9707 15.2633 35.5775 14.5806 35.5974 14.5725C35.6074 14.5725 35.6173 17.0431 35.6173 20.0583ZM29.2003 18.7742C29.4987 18.9449 29.7375 19.0993 29.7474 19.1237C29.7474 19.1481 29.4291 19.2781 29.051 19.4244L28.3446 19.6845L28.4043 19.1806C28.474 18.6198 28.5138 18.4735 28.6033 18.4735C28.6431 18.4735 28.9117 18.6117 29.2003 18.7742ZM32.1651 23.0572C33.2196 23.3173 33.7171 23.8781 33.7967 24.8939L33.8564 25.5441H33.4883H33.1301V25.0727C33.1301 24.4063 32.8217 23.9349 32.2347 23.6911L31.787 23.5042L26.6533 23.5286L21.5196 23.553L21.1615 23.7805C20.6541 24.0975 20.4949 24.3819 20.4949 25.0159V25.5441H20.1467H19.7985V25.0484C19.7985 24.772 19.8482 24.4063 19.9079 24.2357C20.1268 23.6586 20.7735 23.171 21.5395 23.0166C21.7087 22.9841 24.0566 22.9597 26.7727 22.9516C30.7025 22.9434 31.7969 22.9678 32.1651 23.0572ZM31.8566 24.5445C31.986 24.642 32.0357 24.7883 32.0357 25.1134V25.5441H26.8125H21.5893V25.1053C21.5893 24.3576 21.2212 24.4063 26.7827 24.4063C31.1901 24.4063 31.6875 24.4226 31.8566 24.5445ZM37.8857 29.0144L37.9056 31.5501L37.1893 31.8345C35.8263 32.3628 32.3839 33.0211 28.852 33.4274C27.0612 33.6387 26.6633 33.6225 23.9571 33.2649C20.5944 32.8098 17.4306 32.1515 16.4656 31.6963L16.0676 31.5094L16.0378 29.0388C16.0179 27.1208 16.0477 26.56 16.1372 26.5031C16.2069 26.4706 21.1217 26.4462 27.0612 26.4625L37.8559 26.4787L37.8857 29.0144ZM17.6694 33.0211C19.5696 33.5656 25.4893 34.4839 27.0712 34.4839C28.7227 34.4839 34.6224 33.5575 36.5923 32.9886L37.0102 32.8667V35.6624C37.0102 37.6535 36.9804 38.5231 36.8908 38.6694C36.6321 39.1327 37.0301 39.1164 26.9219 39.1164H17.6097L17.2913 38.8807L16.963 38.645L16.9332 35.7518C16.9232 34.1182 16.9431 32.8585 16.9929 32.8585C17.0426 32.8585 17.3411 32.9317 17.6694 33.0211ZM15.8189 35.7843V36.6783H10.6056C4.3676 36.6783 4.875 36.7758 4.875 35.6136V34.8903H10.3469H15.8189V35.7843Z" fill="#363636"/>
<path d="M9.45897 7.34833C7.60846 7.64904 6.61357 9.38824 7.51892 10.7536C7.84724 11.2575 8.21535 11.5257 8.94163 11.7939C9.38933 11.9645 9.57836 11.9889 10.1852 11.9564C11.7771 11.867 12.8814 10.9324 12.8715 9.65644C12.8615 8.14479 11.2597 7.05576 9.45897 7.34833ZM10.8518 8.36422C11.7074 8.72182 12.0457 9.63205 11.5781 10.3635C11.1006 11.1193 9.69775 11.3144 8.88193 10.7292C7.31994 9.60767 8.99137 7.59215 10.8518 8.36422Z" fill="#363636"/>
<path d="M18.0686 10.9646C17.8397 11.1434 17.8696 11.4522 18.1283 11.5985C18.3272 11.7123 18.9739 11.7285 23.2321 11.7285C28.5349 11.7285 28.5548 11.7285 28.5548 11.2815C28.5548 10.8264 28.6841 10.8345 23.2321 10.8345C18.8147 10.8345 18.2079 10.8508 18.0686 10.9646Z" fill="#363636"/>
<path d="M6.53507 12.5009C5.98787 12.6716 5.33124 13.0779 4.99297 13.468C4.44578 14.0857 4.36619 14.4433 4.39604 16.1581L4.42588 17.6941L4.67461 17.7998C4.87359 17.8811 6.06746 17.8973 10.1764 17.8811C15.3101 17.8648 15.4394 17.8648 15.5787 17.7023C15.708 17.5722 15.7279 17.2553 15.6981 15.9549C15.6682 14.5327 15.6483 14.3295 15.4494 13.9882C15.1608 13.4762 14.4943 12.8991 13.8774 12.6391L13.38 12.4196L10.1465 12.4034C7.56976 12.3871 6.83354 12.4115 6.53507 12.5009ZM13.6386 13.5574C13.9073 13.7118 14.1759 13.9638 14.345 14.2401C14.6136 14.6546 14.6236 14.7196 14.6236 15.8411V17.0115H14.0764H13.5292V16.5807C13.5292 16.0687 13.37 15.8493 12.982 15.8493C12.594 15.8493 12.4348 16.0687 12.4348 16.5807V17.0115H10.0471H7.6593V16.6214C7.6593 16.1419 7.45037 15.8737 7.07231 15.8737C6.6843 15.8737 6.58481 16.0037 6.54502 16.5238L6.51517 16.9708L5.99782 16.9952L5.47053 17.0196V15.833C5.47053 14.5408 5.56007 14.2401 6.04757 13.8094C6.1968 13.6793 6.49527 13.5087 6.71415 13.4274C7.08226 13.2892 7.36083 13.273 10.1664 13.2974L13.2108 13.3136L13.6386 13.5574Z" fill="#363636"/>
<path d="M18.0096 14.0768C17.8504 14.3288 17.8902 14.5563 18.129 14.6864C18.3279 14.8002 18.9746 14.8164 23.2328 14.8164C27.4909 14.8164 28.1376 14.8002 28.3366 14.6864C28.5754 14.5563 28.6152 14.3288 28.456 14.0768C28.3565 13.9305 28.1874 13.9224 23.2328 13.9224C18.2782 13.9224 18.1091 13.9305 18.0096 14.0768Z" fill="#363636"/>
<path d="M16.7331 17.1078C16.5341 17.2704 16.5938 17.6361 16.8326 17.7743C17.0315 17.888 17.6285 17.9043 21.3593 17.9043C23.8764 17.9043 25.7568 17.8718 25.906 17.823C26.2443 17.7255 26.3438 17.3842 26.115 17.1729C25.9458 17.0184 25.7767 17.0103 21.3892 17.0103C17.9966 17.0103 16.8226 17.0347 16.7331 17.1078Z" fill="#363636"/>
<path d="M4.70384 20.0994C4.35563 20.2132 4.23624 20.4814 4.42527 20.7171L4.5745 20.9121H15.0209H25.4674L25.6166 20.7171C25.8056 20.4895 25.7061 20.2457 25.3679 20.0994C25.1291 19.9937 5.02221 19.9937 4.70384 20.0994Z" fill="#363636"/>
<path d="M4.65584 23.1954C4.33747 23.3417 4.24793 23.5855 4.42701 23.8049L4.57624 24H11.1724C16.1668 24 17.7984 23.9756 17.888 23.9025C18.087 23.7399 18.0273 23.3742 17.7885 23.2361C17.5895 23.1223 16.8035 23.106 11.1923 23.106C7.08339 23.1141 4.76527 23.1385 4.65584 23.1954Z" fill="#363636"/>
<path d="M4.66956 26.2528C4.58002 26.269 4.46063 26.3828 4.39099 26.4966C4.30145 26.6672 4.30145 26.7404 4.43078 26.8948L4.58002 27.0898H9.08691C12.4596 27.0898 13.6236 27.0655 13.7132 26.9923C13.9122 26.8298 13.8525 26.4641 13.6137 26.3259C13.4147 26.2121 12.8377 26.1959 9.1068 26.204C6.75885 26.2121 4.7591 26.2284 4.66956 26.2528Z" fill="#363636"/>
<path d="M4.59968 29.3406C4.35095 29.4219 4.26141 29.7714 4.43054 29.9827L4.57978 30.1777H9.05682C13.9119 30.1777 13.8323 30.1859 13.8323 29.7307C13.8323 29.2919 13.7627 29.2837 9.05682 29.2919C6.67901 29.2919 4.66932 29.3162 4.59968 29.3406Z" fill="#363636"/>
<path d="M26.562 30.4947C25.209 30.8442 24.7613 31.9576 25.6865 32.6728C26.1541 33.0304 26.3829 33.1035 26.9799 33.1035C28.0245 33.1035 28.8005 32.4777 28.7209 31.7057C28.6812 31.2749 28.313 30.8198 27.8753 30.6329C27.5171 30.4866 26.8704 30.4134 26.562 30.4947ZM27.3082 31.4131C27.9051 31.6325 27.6465 32.2095 26.95 32.2095C26.2536 32.2095 26.0646 31.6 26.6914 31.3968C26.9898 31.2993 27.0097 31.2993 27.3082 31.4131Z" fill="#363636"/>
</g>
<defs>
<clipPath id="clip0_2044_30608">
<rect width="39" height="39" fill="white" transform="translate(0 0.728516)"/>
</clipPath>
</defs>
</svg>
