<svg width="21" height="21" viewBox="0 0 21 21" fill="none" xmlns="http://www.w3.org/2000/svg">
<g clip-path="url(#clip0_101_29521)">
<path d="M2.05078 8.85938C2.2773 8.85938 2.46094 8.67574 2.46094 8.44922C2.46094 8.2227 2.2773 8.03906 2.05078 8.03906C1.82426 8.03906 1.64062 8.2227 1.64062 8.44922C1.64062 8.67574 1.82426 8.85938 2.05078 8.85938Z" fill="#363636"/>
<path d="M2.05078 10.5C2.2773 10.5 2.46094 10.3164 2.46094 10.0898C2.46094 9.86332 2.2773 9.67969 2.05078 9.67969C1.82426 9.67969 1.64062 9.86332 1.64062 10.0898C1.64062 10.3164 1.82426 10.5 2.05078 10.5Z" fill="#363636"/>
<path d="M7.42864 10.6744C7.30272 10.8627 7.35325 11.1174 7.54155 11.2434C8.41896 11.8301 9.44156 12.1403 10.4988 12.1403C11.556 12.1403 12.5786 11.8301 13.456 11.2433C13.6443 11.1174 13.6948 10.8627 13.5689 10.6744C13.4429 10.486 13.1883 10.4355 13 10.5615C12.258 11.0577 11.3931 11.32 10.4988 11.32C9.60443 11.32 8.73954 11.0577 7.99765 10.5615C7.80934 10.4356 7.55456 10.4861 7.42864 10.6744Z" fill="#363636"/>
<path d="M8.33885 9.31097C8.2129 9.49923 8.26334 9.75398 8.45157 9.87998C9.05897 10.2864 9.76698 10.5013 10.4992 10.5013C11.2314 10.5013 11.9394 10.2864 12.5468 9.87998C12.735 9.75398 12.7855 9.49923 12.6595 9.31097C12.5335 9.12267 12.2787 9.0723 12.0905 9.19822C11.6186 9.51408 11.0684 9.68101 10.4992 9.68101C9.93001 9.68101 9.37975 9.51408 8.90786 9.19822C8.71956 9.0723 8.46485 9.12271 8.33885 9.31097Z" fill="#363636"/>
<path d="M10.4996 8.85814C10.9065 8.85814 11.2999 8.73871 11.6374 8.51279C11.8257 8.38679 11.8761 8.13204 11.7502 7.94378C11.6242 7.75552 11.3694 7.70507 11.1811 7.83107C10.9791 7.96634 10.7434 8.03783 10.4996 8.03783C10.2557 8.03783 10.0201 7.96634 9.81803 7.83111C9.62981 7.70515 9.37506 7.75556 9.24902 7.94382C9.12306 8.13208 9.17347 8.38683 9.36173 8.51283C9.69925 8.7387 10.0927 8.85814 10.4996 8.85814Z" fill="#363636"/>
<path d="M10.5 16.2422C10.7265 16.2422 10.9102 16.0586 10.9102 15.832C10.9102 15.6055 10.7265 15.4219 10.5 15.4219C10.2735 15.4219 10.0898 15.6055 10.0898 15.832C10.0898 16.0586 10.2735 16.2422 10.5 16.2422Z" fill="#363636"/>
<path d="M20.0927 13.8246C20.1486 13.6842 20.1797 13.5312 20.1797 13.3711C20.1797 12.6926 19.6277 12.1406 18.9492 12.1406H16.4883C15.8098 12.1406 15.2578 12.6926 15.2578 13.3711C15.2578 13.5149 15.2828 13.6529 15.3284 13.7812H3.28125V12.1406H3.69141C3.91789 12.1406 4.10156 11.957 4.10156 11.7305V6.80859C4.10156 6.58206 3.91789 6.39844 3.69141 6.39844H2.46094V4.75781H8.44922V5.98828C8.44922 6.21481 8.63289 6.39844 8.85938 6.39844H10.0898V6.80859C10.0898 7.03512 10.2735 7.21875 10.5 7.21875C10.7265 7.21875 10.9102 7.03512 10.9102 6.80859V6.39844H12.1406C12.3671 6.39844 12.5508 6.21481 12.5508 5.98828V1.06641C12.5508 0.839877 12.3671 0.65625 12.1406 0.65625H8.85938C8.63289 0.65625 8.44922 0.839877 8.44922 1.06641V2.29688H0.410156C0.183668 2.29688 0 2.4805 0 2.70703V4.34766C0 4.57419 0.183668 4.75781 0.410156 4.75781H1.64062V6.39844H0.410156C0.183668 6.39844 0 6.58206 0 6.80859V11.7305C0 11.957 0.183668 12.1406 0.410156 12.1406H0.820312V13.8518C0.342932 14.0211 0 14.477 0 15.0117C0 15.6902 0.551988 16.2422 1.23047 16.2422H3.28125V17.4727C3.28125 17.6992 3.46492 17.8828 3.69141 17.8828H4.92188V19.5234H2.05078C1.82429 19.5234 1.64062 19.7071 1.64062 19.9336C1.64062 20.1601 1.82429 20.3438 2.05078 20.3438H18.9492C19.1757 20.3438 19.3594 20.1601 19.3594 19.9336C19.3594 19.7071 19.1757 19.5234 18.9492 19.5234H16.0781V17.8828H17.3086C17.5351 17.8828 17.7188 17.6992 17.7188 17.4727V16.2422H19.7695C20.448 16.2422 21 15.6902 21 15.0117C21 14.4451 20.6149 13.9669 20.0927 13.8246ZM9.26953 1.47656H11.7305V5.57812H9.26953V1.47656ZM16.4883 12.9609H18.9492C19.1754 12.9609 19.3594 13.1449 19.3594 13.3711C19.3594 13.5973 19.1754 13.7812 18.9492 13.7812H16.4883C16.2621 13.7812 16.0781 13.5973 16.0781 13.3711C16.0781 13.1449 16.2621 12.9609 16.4883 12.9609ZM0.820312 3.9375V3.11719H8.44922V3.9375H0.820312ZM0.820312 7.21875H3.28125V11.3203H0.820312V7.21875ZM2.46094 12.1406V13.7812H1.64062V12.1406H2.46094ZM15.2578 19.5234H5.74219V17.8828H15.2578V19.5234ZM19.7695 15.4219H12.3457C12.1192 15.4219 11.9355 15.6055 11.9355 15.832C11.9355 16.0586 12.1192 16.2422 12.3457 16.2422H16.8984V17.0625H4.10156V16.2422H8.6543C8.88078 16.2422 9.06445 16.0586 9.06445 15.832C9.06445 15.6055 8.88078 15.4219 8.6543 15.4219H1.23047C1.00431 15.4219 0.820312 15.2379 0.820312 15.0117C0.820312 14.7856 1.00431 14.6016 1.23047 14.6016H19.7695C19.9957 14.6016 20.1797 14.7856 20.1797 15.0117C20.1797 15.2379 19.9957 15.4219 19.7695 15.4219Z" fill="#363636"/>
</g>
<defs>
<clipPath id="clip0_101_29521">
<rect width="21" height="21" fill="white"/>
</clipPath>
</defs>
</svg>
