<svg width="32" height="32" viewBox="0 0 32 32" fill="none" xmlns="http://www.w3.org/2000/svg">
<path d="M24.6669 5.47912L18.0135 2.98578C16.9069 2.57245 15.0935 2.57245 13.9869 2.98578L7.33354 5.47912C5.80021 6.05245 4.54688 7.86578 4.54688 9.49245V19.3991C4.54688 20.9724 5.58687 23.0391 6.85354 23.9858L12.5869 28.2658C14.4669 29.6791 17.5602 29.6791 19.4402 28.2658L25.1735 23.9858C26.4402 23.0391 27.4802 20.9724 27.4802 19.3991V9.49245C27.4535 7.86578 26.2002 6.05245 24.6669 5.47912ZM15.9069 9.37245C17.4802 9.37245 18.7602 10.6524 18.7602 12.2258C18.7602 13.7724 17.5469 15.0124 16.0135 15.0658H15.9869H15.9602C15.9335 15.0658 15.9069 15.0658 15.8802 15.0658C14.2802 15.0124 13.0802 13.7724 13.0802 12.2258C13.0669 10.6524 14.3469 9.37245 15.9069 9.37245ZM18.9202 21.8125C18.1069 22.3458 17.0535 22.6258 16.0002 22.6258C14.9469 22.6258 13.8802 22.3591 13.0802 21.8125C12.3202 21.3058 11.9069 20.6124 11.8935 19.8524C11.8935 19.1058 12.3202 18.3858 13.0802 17.8791C14.6935 16.8124 17.3202 16.8124 18.9335 17.8791C19.6935 18.3858 20.1202 19.0791 20.1202 19.8391C20.1069 20.5858 19.6802 21.3058 18.9202 21.8125Z" fill="#3D79AF"/>
</svg>
