<svg width="22" height="24" viewBox="0 0 22 24" fill="none" xmlns="http://www.w3.org/2000/svg">
<path d="M5.60902 6.31641C5.36771 6.31641 5.17188 6.51225 5.17188 6.75355C5.17188 6.99485 5.36771 7.19069 5.60902 7.19069C5.85032 7.19069 6.04616 6.99485 6.04616 6.75355C6.04616 6.51225 5.85032 6.31641 5.60902 6.31641Z" fill="#363636"/>
<path d="M9.54343 14.4907H8.23209V13.1793C8.23209 12.9379 8.03634 12.7422 7.79495 12.7422C7.55356 12.7422 7.35785 12.9379 7.35785 13.1793V14.4907H6.04652C5.80513 14.4907 5.60938 14.6864 5.60938 14.9278C5.60938 15.1691 5.80513 15.3649 6.04652 15.3649H7.35785V16.6762C7.35785 16.9176 7.55361 17.1134 7.79495 17.1134C8.0363 17.1134 8.23209 16.9176 8.23209 16.6762V15.3649H9.54343C9.78482 15.3649 9.98057 15.1692 9.98057 14.9278C9.98057 14.6864 9.78487 14.4907 9.54343 14.4907Z" fill="#363636"/>
<path d="M21.3411 14.8839C20.3748 13.2102 18.2382 12.6374 16.5642 13.604L14.7887 14.629V10.8331C14.7887 10.3638 14.6335 9.89813 14.3516 9.52175L12.166 6.60772V5.36685C12.6747 5.18639 13.0402 4.70055 13.0402 4.13065V2.11993C13.0401 1.39686 12.4519 0.808594 11.7288 0.808594H3.86064C3.13757 0.808594 2.54926 1.39686 2.54926 2.11993V4.1307C2.54926 4.70051 2.91476 5.18644 3.4235 5.36689V6.60776L1.23775 9.52197C0.955967 9.89817 0.800781 10.3638 0.800781 10.8331V19.2988C0.800781 20.5039 1.78125 21.4844 2.98636 21.4844H10.0113C10.9914 23.1273 13.1048 23.6771 14.7615 22.7205L20.0612 19.6607C21.7204 18.7026 22.3122 16.5666 21.3411 14.8839ZM3.4235 2.11993C3.4235 1.87889 3.6196 1.68279 3.8606 1.68279H11.7288C11.9698 1.68279 12.1659 1.87889 12.1659 2.11993V4.1307C12.1659 4.37174 11.9698 4.56779 11.7288 4.56779H3.86064C3.6196 4.56779 3.42354 4.37169 3.42354 4.1307V2.11993H3.4235ZM1.93735 10.0462L4.21031 7.0157C4.26705 6.94008 4.29774 6.84801 4.29774 6.75342V5.44208H11.2917V6.31632H7.3576C7.11621 6.31632 6.92046 6.51207 6.92046 6.75346C6.92046 6.99485 7.11621 7.1906 7.3576 7.1906H11.5102L13.6519 10.0461C13.7919 10.233 13.8788 10.4566 13.9051 10.6876H1.68433C1.71056 10.4565 1.79751 10.2329 1.93735 10.0462ZM2.9864 20.6101C2.26333 20.6101 1.67506 20.0218 1.67506 19.2988V18.8573H9.61684C9.47822 19.4241 9.47914 20.0294 9.63786 20.6102H2.9864V20.6101ZM9.95969 17.9874H1.67502V11.5617H13.9144V15.1337L11.2645 16.6638C10.712 16.983 10.2654 17.4373 9.95969 17.9874ZM14.3244 21.9634C13.07 22.6878 11.467 22.2594 10.7421 21.0041C10.0138 19.7366 10.4551 18.1409 11.7017 17.4209L14.0744 16.0509L16.6971 20.5935L14.3244 21.9634ZM19.6241 18.9036L17.4542 20.1564L14.8315 15.6138L17.0013 14.3611C18.2566 13.6364 19.8591 14.0655 20.5839 15.3209C21.312 16.5826 20.8693 18.1845 19.6241 18.9036Z" fill="#363636"/>
</svg>
