<svg width="20" height="19" viewBox="0 0 20 19" fill="none" xmlns="http://www.w3.org/2000/svg">
<path d="M11.5981 6.92468V7.32468H11.9981H16.7512C16.7814 7.32468 16.8112 7.33677 16.8338 7.35962C16.8566 7.38261 16.8701 7.41466 16.8701 7.44894V11.854C16.8701 11.8883 16.8566 11.9203 16.8338 11.9433C16.8112 11.9662 16.7814 11.9782 16.7512 11.9782H11.9968H11.5968V12.3782V17.1726C11.5968 17.2068 11.5832 17.2389 11.5605 17.2619C11.5379 17.2847 11.5081 17.2968 11.4779 17.2968H7.11778C7.08758 17.2968 7.05777 17.2847 7.03515 17.2619C7.01239 17.2389 6.99888 17.2068 6.99888 17.1726V12.3782V11.9782H6.59888H1.84703C1.81683 11.9782 1.78702 11.9662 1.7644 11.9433C1.74164 11.9203 1.72813 11.8883 1.72813 11.854V7.44763C1.72813 7.41335 1.74164 7.3813 1.7644 7.35831C1.78702 7.33545 1.81682 7.32337 1.84703 7.32337H6.59888H6.99888V6.92337V2.13168C6.99888 2.09741 7.01239 2.06535 7.03515 2.04236C7.05777 2.0195 7.08758 2.00742 7.11778 2.00742H11.4792C11.5094 2.00742 11.5392 2.01951 11.5618 2.04236C11.5845 2.06535 11.5981 2.0974 11.5981 2.13168V6.92468Z" stroke="#363636" stroke-width="0.8"/>
<path d="M15.5195 2.79141C15.9029 2.73027 16.2638 2.57444 16.5674 2.33883C16.8475 2.08475 17.0316 1.6839 17.1529 0.976562C17.2696 1.65713 17.4446 2.05413 17.7071 2.30934C17.9696 2.56455 18.3196 2.67798 18.7863 2.79141C18.3196 2.90484 17.9696 3.01826 17.7071 3.27348C17.4446 3.52869 17.2696 3.92569 17.1529 4.60625C17.0404 3.95064 16.8729 3.55818 16.6272 3.30206C16.3616 3.02666 16.0032 2.90892 15.5195 2.79141Z" stroke="#363636" stroke-width="0.8" stroke-linecap="round" stroke-linejoin="round"/>
<path d="M1 16.1618C1.39967 16.1008 1.77383 15.9339 2.08053 15.6797C2.34162 15.4245 2.51676 15.0276 2.63336 14.3469C2.74996 15.0274 2.9251 15.4245 3.18745 15.6797C3.49386 15.9336 3.86753 16.1005 4.26672 16.1618C3.70736 16.2978 3.3156 16.4338 3.0412 16.8137C2.81869 17.168 2.67948 17.5649 2.63336 17.9766C2.52405 17.3388 2.36348 16.9499 2.12752 16.6941C1.86015 16.4037 1.49604 16.2828 1 16.1618Z" stroke="#363636" stroke-width="0.6" stroke-linecap="round" stroke-linejoin="round"/>
</svg>
