<svg width="28" height="28" viewBox="0 0 28 28" fill="none" xmlns="http://www.w3.org/2000/svg">
<g clip-path="url(#clip0_72_15854)">
<path d="M14.914 5.2108C14.7601 5.2108 14.6061 5.15207 14.4887 5.0346C14.2538 4.79966 14.2538 4.41882 14.4887 4.18388L17.5822 1.09027C17.8172 0.855328 18.1981 0.855328 18.433 1.09027C18.6679 1.3252 18.6679 1.70605 18.433 1.94098L15.3394 5.0346C15.2219 5.15207 15.068 5.2108 14.914 5.2108Z" fill="#026985"/>
<path d="M23.664 5.2108C23.5101 5.2108 23.3561 5.15207 23.2387 5.0346C23.0038 4.79966 23.0038 4.41882 23.2387 4.18388L26.3323 1.09027C26.5672 0.855328 26.9481 0.855328 27.1831 1.09027C27.4179 1.3252 27.4179 1.70605 27.1831 1.94098L24.0894 5.0346C23.972 5.15207 23.818 5.2108 23.664 5.2108Z" fill="#026985"/>
<path d="M22.5513 10.7862C22.4127 10.7862 22.2735 10.7386 22.1601 10.6414L20.4992 9.21772C20.2469 9.00149 20.2177 8.62174 20.4339 8.36952C20.6501 8.11724 21.0298 8.08804 21.2821 8.30428L22.943 9.72796C23.1953 9.94419 23.2245 10.3239 23.0083 10.5762C22.8894 10.715 22.7208 10.7862 22.5513 10.7862Z" fill="#026985"/>
<path d="M13.7266 12.4138H6.07031C5.73809 12.4138 5.46875 12.1445 5.46875 11.8123C5.46875 11.48 5.73809 11.2107 6.07031 11.2107H13.7266C14.0588 11.2107 14.3281 11.48 14.3281 11.8123C14.3281 12.1445 14.0588 12.4138 13.7266 12.4138Z" fill="#026985"/>
<path d="M13.9275 24.4959C13.8336 24.4959 13.7398 24.474 13.654 24.4302C10.182 22.658 9.69352 20.7441 9.7114 19.7609C9.7382 18.2866 10.8339 17.1509 12.2048 17.1762C13.0453 17.1915 13.6543 17.545 14.0371 17.8676C14.4314 17.5591 15.0537 17.2282 15.8932 17.2432C16.5861 17.2558 17.2144 17.555 17.6624 18.0856C18.0803 18.5805 18.3035 19.2309 18.291 19.9169C18.2732 20.9 17.7155 22.795 14.1813 24.4397C14.1008 24.4772 14.0142 24.4959 13.9275 24.4959ZM12.159 18.3789C11.3669 18.3789 10.9268 19.0982 10.9144 19.7828C10.8936 20.9278 11.9921 22.172 13.9398 23.2215C15.9243 22.2435 17.0674 21.04 17.0882 19.895C17.0954 19.5007 16.9729 19.1337 16.7432 18.8617C16.5868 18.6765 16.3087 18.4541 15.8714 18.4461C14.9907 18.4303 14.5176 19.0642 14.513 19.0706C14.3968 19.2352 14.2095 19.336 14.0076 19.3303C13.8071 19.3245 13.6261 19.2245 13.5193 19.0548C13.4818 19.0013 13.0374 18.3946 12.183 18.379C12.175 18.379 12.1669 18.3789 12.159 18.3789Z" fill="#026985"/>
<path d="M27.7321 15.6869L24.4543 13.5018C24.3541 13.4343 24.2341 13.3981 24.1133 13.3984H14.3281V11.2993C14.3281 10.359 13.6909 9.54291 12.7786 9.31481C12.4029 9.22091 12.1406 8.88491 12.1406 8.49762V7.56689C12.1406 7.23467 11.8713 6.96533 11.5391 6.96533C11.2068 6.96533 10.9375 7.23467 10.9375 7.56689V8.49762C10.9375 9.43802 11.5747 10.2541 12.4868 10.4821C12.8625 10.576 13.125 10.9121 13.125 11.2993V13.3984H6.67189V11.2993C6.67189 10.9121 6.93427 10.576 7.30992 10.4821C8.22221 10.2541 8.85938 9.43802 8.85938 8.49762V7.64838C8.85938 7.31615 8.59004 7.04682 8.25782 7.04682C7.92559 7.04682 7.65626 7.31615 7.65626 7.64838V8.49762C7.65626 8.88491 7.39392 9.22096 7.01816 9.31486C6.10587 9.54296 5.46877 10.359 5.46877 11.2994V13.3985H3.88666C3.76591 13.3982 3.64587 13.4344 3.54563 13.5018L0.26795 15.6869C-0.00849448 15.8712 -0.0831973 16.2447 0.101099 16.5211C0.217036 16.695 0.407785 16.7891 0.602198 16.7891C0.716823 16.7891 0.83276 16.7563 0.935299 16.688L3.28127 15.124V25.4843C3.28127 26.7206 4.28714 27.7264 5.52345 27.7264H22.4765C23.7128 27.7264 24.7187 26.7206 24.7187 25.4843V15.124L27.0647 16.688C27.1672 16.7564 27.2831 16.7891 27.3978 16.7891C27.5922 16.7891 27.7829 16.6951 27.8989 16.5212C28.0832 16.2447 28.0085 15.8712 27.7321 15.6869ZM23.5156 25.4843C23.5156 26.0573 23.0495 26.5234 22.4765 26.5234H5.52345C4.95049 26.5234 4.48439 26.0573 4.48439 25.4843V14.6015H23.5156V25.4843Z" fill="#026985"/>
<path d="M16.4596 5.8502C15.7454 5.8502 15.0311 5.57834 14.4874 5.0347C13.4 3.94713 13.4 2.17771 14.4874 1.0903C15.0142 0.563555 15.7146 0.273438 16.4596 0.273438C17.2046 0.273438 17.905 0.563555 18.4317 1.09036C18.9585 1.61711 19.2487 2.31755 19.2487 3.0625C19.2487 3.80751 18.9585 4.50789 18.4317 5.0347C17.888 5.57834 17.1738 5.8502 16.4596 5.8502ZM15.3382 1.94102C14.7198 2.55938 14.7198 3.56552 15.3382 4.18392C15.9565 4.80222 16.9626 4.80216 17.581 4.18392C17.8806 3.88434 18.0456 3.48605 18.0456 3.06245C18.0456 2.63884 17.8806 2.2406 17.581 1.94102C17.2814 1.64145 16.8832 1.47651 16.4596 1.47651C16.036 1.47651 15.6377 1.6415 15.3382 1.94102Z" fill="#026985"/>
<path d="M25.2096 5.85014C24.4954 5.85014 23.7811 5.57829 23.2374 5.03464C22.15 3.94707 22.15 2.17766 23.2374 1.09025C24.3249 0.00279296 26.0943 0.00279296 27.1818 1.09025C28.2692 2.17766 28.2692 3.94707 27.1818 5.03459C26.638 5.57829 25.9238 5.85014 25.2096 5.85014ZM24.0881 1.94097C23.4698 2.55932 23.4698 3.56547 24.0881 4.18387C24.7065 4.80211 25.7127 4.80217 26.331 4.18387C26.9493 3.56552 26.9493 2.55932 26.331 1.94097C25.7127 1.32268 24.7066 1.32273 24.0881 1.94097Z" fill="#026985"/>
<path d="M24.4805 8.09734C24.4458 7.64584 24.2373 7.23486 23.8935 6.94015C23.1836 6.33175 22.1113 6.41422 21.503 7.12401L21.1622 7.52159L20.4826 6.72851C20.1879 6.38491 19.7769 6.17666 19.3254 6.14204C18.8735 6.10742 18.4358 6.2507 18.093 6.54487C17.749 6.83892 17.5403 7.24935 17.5052 7.70052C17.4701 8.15257 17.6133 8.59122 17.9084 8.93564L19.0275 10.2417C18.9706 10.4359 18.9485 10.6408 18.9645 10.8487C18.9992 11.3002 19.2077 11.7111 19.5515 12.0058C19.5515 12.0059 19.5516 12.0059 19.5516 12.0059C19.8707 12.2793 20.263 12.4132 20.6536 12.4132C21.1316 12.4132 21.6072 12.2125 21.942 11.8219L24.0773 9.33059C24.372 8.98683 24.5152 8.54884 24.4805 8.09734ZM18.7047 7.79366C18.7148 7.66317 18.7753 7.54445 18.8756 7.45864C18.9753 7.37317 19.1019 7.33149 19.2334 7.34167C19.3645 7.35173 19.4839 7.41221 19.5692 7.51169L20.3698 8.44602L19.7214 9.20257L18.822 8.1529C18.7362 8.05266 18.6945 7.92507 18.7047 7.79366ZM22.4164 7.90702C22.5931 7.70102 22.9043 7.67701 23.1105 7.85365C23.2103 7.93918 23.2708 8.05851 23.2809 8.18959C23.2909 8.32068 23.2494 8.44783 23.1638 8.54763L21.0284 11.039C20.8518 11.245 20.5404 11.2689 20.3344 11.0924C20.2346 11.0068 20.174 10.8874 20.164 10.7564C20.1539 10.6253 20.1955 10.4982 20.281 10.3984L22.4164 7.90702Z" fill="#026985"/>
<path d="M12.6328 8.03901H7.16406C6.83184 8.03901 6.5625 7.76967 6.5625 7.43745V5.25C6.5625 4.91777 6.83184 4.64844 7.16406 4.64844H12.6328C12.965 4.64844 13.2343 4.91777 13.2343 5.25V7.43745C13.2343 7.76967 12.965 8.03901 12.6328 8.03901ZM7.76563 6.83588H12.0312V5.85156H7.76563V6.83588Z" fill="#026985"/>
</g>
<defs>
<clipPath id="clip0_72_15854">
<rect width="28" height="28" fill="white"/>
</clipPath>
</defs>
</svg>
