<svg width="28" height="26" viewBox="0 0 28 26" fill="none" xmlns="http://www.w3.org/2000/svg">
<path d="M19.1562 20.0632H24.1562C24.5662 20.0632 24.9062 20.4032 24.9062 20.8132C24.9062 21.2232 24.5662 21.5632 24.1562 21.5632H19.1562C18.7463 21.5632 18.4062 21.2232 18.4062 20.8132C18.4062 20.4032 18.7463 20.0632 19.1562 20.0632Z" fill="#026985"/>
<path d="M19.2109 16.2507H26.2109C26.6209 16.2507 26.9609 16.5907 26.9609 17.0007C26.9609 17.4107 26.6209 17.7507 26.2109 17.7507H19.2109C18.8009 17.7507 18.4609 17.4107 18.4609 17.0007C18.4609 16.5907 18.8009 16.2507 19.2109 16.2507Z" fill="#026985"/>
<g clip-path="url(#clip0_72_15879)">
<path d="M22.4057 2.95897C22.2982 2.86644 22.1582 2.83407 22.0264 2.87123L19.9286 3.4619C19.5917 3.55668 19.2447 3.60477 18.8973 3.60477H15.8187C14.82 3.60477 13.9858 4.39827 13.8352 5.49163C13.7508 6.10442 13.2832 6.54914 12.7234 6.54914H12.6108V5.52918C13.3713 5.02781 13.8821 4.10863 13.8821 3.05941C13.8821 1.47543 12.7184 0.186768 11.288 0.186768C9.85753 0.186768 8.69385 1.47543 8.69385 3.05941C8.69385 4.10863 9.20468 5.02781 9.96516 5.52918V6.54914H9.8525C9.29278 6.54914 8.82516 6.10442 8.74077 5.49163C8.59015 4.39827 7.75594 3.60477 6.75726 3.60477H3.67869C3.33123 3.60477 2.98426 3.55672 2.64743 3.4619L0.549583 2.87128C0.417831 2.83417 0.277746 2.86649 0.170246 2.95902C0.0628334 3.0515 0 3.19379 0 3.34447C0 4.37518 0.359099 5.31448 0.945456 6.01819C0.958331 7.20319 1.46536 8.25827 2.2486 8.94313L2.66339 9.55699C3.60915 10.9568 5.1164 11.7925 6.69522 11.7925C7.9063 11.7925 9.05401 11.3211 9.96516 10.4572V12.1985H9.56969C7.99744 12.1985 6.71828 13.615 6.71828 15.3561C6.71828 15.8881 6.8402 16.4143 7.07077 16.8778C7.15111 17.0393 7.30186 17.1305 7.45738 17.1305C7.52934 17.1305 7.60232 17.111 7.66973 17.0699C7.88306 16.9397 7.96071 16.6428 7.8432 16.4066C7.68424 16.087 7.60016 15.7238 7.60016 15.3561C7.60016 14.1535 8.48366 13.1751 9.56969 13.1751H9.96516V17.537H8.92896C7.76599 17.537 6.81983 18.5848 6.81983 19.8727C6.81983 21.1605 7.76599 22.2083 8.92896 22.2083H10.1549C10.3078 23.1252 10.5523 24.0219 10.8883 24.8907C10.9577 25.0704 11.1172 25.1868 11.2936 25.1868H11.2944C11.4711 25.1864 11.6306 25.0693 11.6995 24.8891L11.7082 24.8664C12.0371 24.005 12.2763 23.1164 12.4258 22.2083H12.9268C13.4252 22.2083 13.8307 22.6573 13.8307 23.2092C13.8307 23.7612 13.4252 24.2102 12.9268 24.2102H12.8969C12.6534 24.2102 12.4559 24.4289 12.4559 24.6985C12.4559 24.9681 12.6534 25.1868 12.8969 25.1868H12.9268C13.9115 25.1868 14.7126 24.2997 14.7126 23.2092C14.7126 22.1188 13.9115 21.2317 12.9268 21.2317H12.5512C12.5907 20.8032 12.6108 20.3712 12.6108 19.9362V18.5136H12.9048C14.477 18.5136 15.7561 17.0972 15.7561 15.3561C15.7561 13.615 14.477 12.1985 12.9048 12.1985H12.6108V10.4572C13.522 11.3211 14.6696 11.7925 15.8807 11.7925C17.4595 11.7925 18.9667 10.9568 19.9126 9.55699L20.3273 8.94313C21.1106 8.25827 21.6176 7.20315 21.6305 6.01814C22.2169 5.31448 22.5759 4.37518 22.5759 3.34447C22.5759 3.19379 22.5131 3.0515 22.4057 2.95897ZM9.61607 9.48654C8.83337 10.3439 7.79606 10.816 6.69522 10.816C5.71445 10.816 4.76727 10.4249 4.0261 9.73858C4.13678 9.7506 4.24891 9.75709 4.3624 9.75709H5.1008C5.34428 9.75709 5.54173 9.53844 5.54173 9.26881C5.54173 8.99918 5.34428 8.78053 5.1008 8.78053H4.3624C3.24644 8.78053 2.29715 7.9777 1.95899 6.86648C2.4416 7.13728 2.98651 7.29099 3.56352 7.29108L4.4755 7.29123C4.71894 7.29123 4.91644 7.07263 4.91648 6.803C4.91653 6.53337 4.71912 6.31472 4.47559 6.31467L3.5636 6.31453C2.2852 6.31433 1.21284 5.31839 0.945809 3.99041L2.43022 4.40833C2.838 4.52318 3.25803 4.58133 3.67869 4.58133H6.75726C7.31703 4.58133 7.7846 5.02605 7.86899 5.63885C8.01962 6.7322 8.85383 7.5257 9.8525 7.5257H9.96516V9.10421L9.61607 9.48654ZM8.92896 21.2317C8.25226 21.2317 7.7017 20.622 7.7017 19.8726C7.7017 19.1232 8.25226 18.5136 8.92896 18.5136H9.96516V19.907C9.96516 20.352 9.98628 20.7937 10.0276 21.2317H8.92896ZM11.7289 19.9361C11.7289 21.073 11.5822 22.1888 11.2919 23.2668C10.9963 22.1798 10.847 21.0546 10.847 19.907V18.5136H11.7289V19.9361ZM11.7289 17.537H10.847V5.88972C10.9904 5.91707 11.1376 5.93211 11.288 5.93211C11.4383 5.93211 11.5855 5.91707 11.7289 5.88972V17.537ZM12.9048 13.175C13.9907 13.175 14.8742 14.1534 14.8742 15.356C14.8742 16.5586 13.9907 17.537 12.9048 17.537H12.6108V13.175H12.9048ZM11.288 4.9555C10.3438 4.9555 9.57573 4.10492 9.57573 3.05941C9.57573 2.01391 10.3438 1.16333 11.288 1.16333C12.2321 1.16333 13.0002 2.01391 13.0002 3.05941C13.0002 4.10492 12.2321 4.9555 11.288 4.9555ZM19.0123 6.31453L18.1004 6.31467C17.8569 6.31472 17.6595 6.53337 17.6595 6.803C17.6596 7.07268 17.857 7.29128 18.1005 7.29123L19.0125 7.29108C19.5895 7.29099 20.1344 7.13733 20.617 6.86648C20.2789 7.9777 19.3295 8.78053 18.2136 8.78053H17.4752C17.2317 8.78053 17.0343 8.99918 17.0343 9.26881C17.0343 9.53844 17.2317 9.75709 17.4752 9.75709H18.2136C18.3271 9.75709 18.4392 9.7506 18.5498 9.73858C17.8086 10.4249 16.8615 10.816 15.8808 10.816C14.7799 10.816 13.7426 10.3439 12.9599 9.48658L12.6108 9.10421V7.5257H12.7234C13.7221 7.5257 14.5563 6.7322 14.7069 5.63885C14.7913 5.02605 15.2589 4.58133 15.8187 4.58133H18.8973C19.3179 4.58133 19.7379 4.52318 20.1458 4.40833L21.6301 3.99041C21.3631 5.31834 20.2907 6.31433 19.0123 6.31453Z" fill="#026985"/>
<path d="M9.83857 24.3533C9.7566 24.2624 9.64284 24.2102 9.52687 24.2102C9.41091 24.2102 9.29715 24.2624 9.21513 24.3533C9.13312 24.4441 9.08594 24.5701 9.08594 24.6985C9.08594 24.8269 9.13307 24.9529 9.21513 25.0436C9.29715 25.1345 9.41091 25.1868 9.52687 25.1868C9.64284 25.1868 9.7566 25.1345 9.83857 25.0436C9.92059 24.9529 9.96781 24.8269 9.96781 24.6985C9.96781 24.5701 9.92063 24.4441 9.83857 24.3533Z" fill="#026985"/>
</g>
<defs>
<clipPath id="clip0_72_15879">
<rect width="22.576" height="25" fill="white" transform="translate(0 0.186768)"/>
</clipPath>
</defs>
</svg>
