<svg width="21" height="21" viewBox="0 0 21 21" fill="none" xmlns="http://www.w3.org/2000/svg">
<path fill-rule="evenodd" clip-rule="evenodd" d="M14.5573 19.2742C13.4458 19.2742 11.9902 18.5188 10.9644 17.8857C9.57624 17.0275 8.07907 15.84 6.74952 14.542L6.32228 14.1133C5.0276 12.7819 3.84269 11.281 2.98711 9.88917C2.35479 8.86114 1.60156 7.40142 1.60156 6.28846C1.60156 5.1054 2.459 3.83186 2.82764 3.33935C3.41138 2.55868 4.26102 1.72461 4.89409 1.72461C5.1982 1.72461 5.55831 1.95121 6.02634 2.43778C6.46989 2.89876 6.89712 3.4736 7.1775 3.87488C7.55429 4.41448 7.9029 4.97931 8.1588 5.46551C8.60643 6.31553 8.60643 6.61185 8.60643 6.70939C8.60643 7.02647 8.43435 7.3061 8.09575 7.54086C7.85469 7.70775 7.55541 7.83718 7.2665 7.9629L7.26316 7.96439C6.9776 8.08789 6.71132 8.20767 6.58189 8.31077L6.49474 8.3805L6.52033 8.48879C6.54554 8.59708 6.67646 9.01987 7.27874 9.90623C7.7527 10.6038 8.36723 11.3615 8.92204 11.9323L8.92538 11.936C9.49613 12.4937 10.2523 13.1094 10.9477 13.5837C11.8322 14.1871 12.2535 14.3177 12.3618 14.3429L12.4705 14.3688L12.5402 14.2813C12.6429 14.1515 12.7627 13.8837 12.8866 13.5982C13.0119 13.307 13.1414 13.007 13.3086 12.7637C13.5423 12.4248 13.8211 12.2531 14.1375 12.2531C14.2343 12.2531 14.5302 12.2531 15.3777 12.7014C15.8631 12.957 16.4261 13.307 16.9646 13.6842C17.3651 13.9653 17.9392 14.3933 18.3987 14.838C18.8845 15.3075 19.11 15.668 19.11 15.9732C19.11 16.6085 18.2782 17.4603 17.4994 18.0456C17.0076 18.4146 15.7374 19.2742 14.5573 19.2742ZM4.824 2.4426C4.75613 2.46337 4.56513 2.54162 4.24916 2.81569C3.9558 3.07047 3.63686 3.42465 3.35093 3.81368C2.69487 4.70524 2.30361 5.63017 2.30361 6.28808C2.30361 7.01757 2.7709 8.19544 3.58457 9.51905C4.41345 10.8675 5.56387 12.3239 6.82295 13.6193L7.24128 14.0395C8.53486 15.3019 9.9879 16.4546 11.3326 17.2853C12.6537 18.1008 13.8289 18.5696 14.5569 18.5696C15.2134 18.5696 16.1361 18.1769 17.0265 17.5201C17.4137 17.2334 17.7671 16.913 18.0219 16.6189C18.296 16.3021 18.3731 16.1111 18.3943 16.0429L18.4143 15.9784L18.3857 15.9176C18.2856 15.7017 17.7686 15.0961 16.4684 14.1971C15.9777 13.8582 15.4696 13.5451 15.0368 13.3171C14.498 13.0337 14.2532 12.9729 14.1735 12.9607L14.1037 12.9499L14.0459 12.9896C13.9784 13.0359 13.9053 13.125 13.8278 13.2555C13.7236 13.4317 13.6264 13.656 13.5322 13.8734L13.5308 13.8771C13.4202 14.1326 13.3064 14.397 13.1707 14.6051C12.9682 14.9129 12.7367 15.0627 12.4638 15.0627C12.4623 15.0627 12.4545 15.0627 12.4515 15.0627L12.4486 15.062C12.3789 15.0612 12.2342 15.0575 11.9513 14.9511C11.5815 14.8113 11.1101 14.5468 10.5516 14.166C9.8199 13.666 9.02699 13.0193 8.4299 12.4355L8.42211 12.4281C7.83949 11.8292 7.19456 11.0344 6.6976 10.3031C6.31709 9.74268 6.05304 9.2702 5.91359 8.89933C5.80716 8.61562 5.80419 8.47062 5.8027 8.40089C5.79677 8.122 5.94475 7.88651 6.25516 7.68031C6.4621 7.54309 6.72764 7.42812 6.98502 7.31649C7.20383 7.22155 7.42931 7.12364 7.60547 7.01869C7.73602 6.94081 7.82836 6.86441 7.87249 6.79839L7.91069 6.74128L7.90031 6.67341C7.88807 6.59368 7.82836 6.34891 7.54465 5.80819C7.31805 5.37613 7.00653 4.86657 6.66719 4.37332C5.77007 3.0701 5.16593 2.55201 4.95083 2.4515L4.88927 2.42257L4.824 2.4426Z" fill="#363636"/>
<path fill-rule="evenodd" clip-rule="evenodd" d="M13.6395 10.0607C13.4804 10.0607 13.3454 9.94651 13.3172 9.78926C13.2197 9.23557 12.9004 8.75456 12.4171 8.43524C12.0459 8.18973 11.6105 8.05993 11.1569 8.05993C11.0171 8.05993 10.8754 8.07254 10.736 8.09701C10.7171 8.10035 10.6978 8.10221 10.6789 8.10221C10.5198 8.10221 10.3841 7.98761 10.357 7.83073C10.3251 7.65235 10.4445 7.48138 10.6225 7.45023C10.7998 7.41871 10.9785 7.40313 11.158 7.40313C11.7396 7.40313 12.2999 7.57039 12.7784 7.88711C13.4129 8.30692 13.8338 8.94221 13.9629 9.67541C13.9944 9.8538 13.875 10.0248 13.697 10.0559C13.6781 10.0593 13.6588 10.0607 13.6395 10.0607ZM15.9659 9.06015C15.8068 9.06015 15.6715 8.94592 15.6436 8.78867C15.4575 7.72949 14.847 6.81012 13.9247 6.20005C13.22 5.7335 12.3927 5.48725 11.5322 5.48725C11.2656 5.48725 10.9989 5.51061 10.736 5.55734C10.7171 5.56068 10.6978 5.56253 10.6789 5.56253C10.5198 5.56253 10.3841 5.44831 10.3566 5.29106C10.3251 5.11231 10.4445 4.94171 10.6225 4.91019C10.924 4.85678 11.2311 4.83008 11.5341 4.83008C12.5221 4.83008 13.4737 5.11416 14.2863 5.65154C15.3603 6.36212 16.072 7.43576 16.2897 8.67482C16.3049 8.76049 16.2856 8.84875 16.2355 8.91996C16.1862 8.99154 16.1098 9.04049 16.0241 9.0557C16.0045 9.05866 15.9856 9.06015 15.9659 9.06015Z" fill="#363636"/>
<path fill-rule="evenodd" clip-rule="evenodd" d="M19.0727 8.77275C18.9136 8.77275 18.7779 8.65815 18.7504 8.5009C18.4341 6.70444 17.3997 5.1457 15.8377 4.11248C14.6457 3.32439 13.2483 2.90754 11.7952 2.90754C11.3483 2.90754 10.8963 2.94722 10.4509 3.02585C10.4316 3.02956 10.4123 3.03104 10.3934 3.03104C10.2346 3.03104 10.0989 2.91681 10.0715 2.75957C10.0399 2.58118 10.159 2.41058 10.3377 2.37906C10.821 2.29376 11.312 2.25 11.7967 2.25C13.3773 2.25 14.9001 2.70431 16.1992 3.5636C17.9137 4.6977 19.0493 6.41109 19.3968 8.38705C19.4284 8.56543 19.3089 8.73603 19.1309 8.76756C19.1113 8.77089 19.092 8.77275 19.0727 8.77275Z" fill="#363636"/>
</svg>
