<svg width="22" height="28" viewBox="0 0 22 28" fill="none" xmlns="http://www.w3.org/2000/svg">
<path d="M20.351 27.4984H1.3986C1.2173 27.4984 1.07031 27.3514 1.07031 27.1701V16.2801C1.07031 15.8202 1.36429 15.4148 1.80179 15.2713L4.38785 14.4234C4.56019 14.3669 4.74558 14.4608 4.80206 14.6331C4.85854 14.8054 4.76471 14.9908 4.59238 15.0473L2.00632 15.8952C1.83914 15.95 1.72682 16.1047 1.72682 16.2801V26.8418H20.0227V16.2801C20.0227 16.1047 19.9106 15.95 19.7437 15.8951L17.1571 15.0466C16.9848 14.99 16.891 14.8046 16.9475 14.6323C17.004 14.4601 17.1895 14.3662 17.3618 14.4227L19.9485 15.2713C20.3857 15.415 20.6793 15.8204 20.6793 16.2801V27.1701C20.6793 27.3514 20.5323 27.4984 20.351 27.4984Z" fill="#363636"/>
<path d="M17.2612 27.5007H4.49234C4.31105 27.5007 4.16406 27.3537 4.16406 27.1724V6.29686C4.16406 5.71105 4.64038 5.23438 5.22584 5.23438H7.63673C7.81802 5.23438 7.96501 5.38136 7.96501 5.56265C7.96501 5.74395 7.81802 5.89093 7.63673 5.89093H5.22584C5.0024 5.89093 4.82062 6.07307 4.82062 6.29686V26.8441H16.9329V6.29686C16.9329 6.07307 16.7512 5.89093 16.5277 5.89093H14.1168C13.9355 5.89093 13.7886 5.74395 13.7886 5.56265C13.7886 5.38136 13.9355 5.23438 14.1168 5.23438H16.5277C17.1132 5.23438 17.5895 5.71098 17.5895 6.29686V27.1724C17.5895 27.3537 17.4425 27.5007 17.2612 27.5007Z" fill="#363636"/>
<path d="M9.28862 12.1169H7.32829C7.14699 12.1169 7 11.9699 7 11.7886V9.82829C7 9.64699 7.14699 9.5 7.32829 9.5H9.28862C9.46992 9.5 9.61691 9.64699 9.61691 9.82829V11.7886C9.61691 11.97 9.46992 12.1169 9.28862 12.1169ZM7.65658 11.4603H8.96034V10.1566H7.65658V11.4603Z" fill="#363636"/>
<path d="M9.28862 16.6169H7.32829C7.14699 16.6169 7 16.4699 7 16.2886V14.3283C7 14.147 7.14699 14 7.32829 14H9.28862C9.46992 14 9.61691 14.147 9.61691 14.3283V16.2886C9.61691 16.47 9.46992 16.6169 9.28862 16.6169ZM7.65658 15.9603H8.96034V14.6566H7.65658V15.9603Z" fill="#363636"/>
<path d="M9.28862 21.1169H7.32829C7.14699 21.1169 7 20.9699 7 20.7886V18.8283C7 18.647 7.14699 18.5 7.32829 18.5H9.28862C9.46992 18.5 9.61691 18.647 9.61691 18.8283V20.7886C9.61691 20.97 9.46992 21.1169 9.28862 21.1169ZM7.65658 20.4603H8.96034V19.1566H7.65658V20.4603Z" fill="#363636"/>
<path d="M14.7886 12.1169H12.8283C12.647 12.1169 12.5 11.9699 12.5 11.7886V9.82829C12.5 9.64699 12.647 9.5 12.8283 9.5H14.7886C14.9699 9.5 15.1168 9.64699 15.1168 9.82829V11.7886C15.1168 11.97 14.9699 12.1169 14.7886 12.1169ZM13.1566 11.4603H14.4603V10.1566H13.1566V11.4603Z" fill="#363636"/>
<path d="M14.7886 16.6169H12.8283C12.647 16.6169 12.5 16.4699 12.5 16.2886V14.3283C12.5 14.147 12.647 14 12.8283 14H14.7886C14.9699 14 15.1168 14.147 15.1168 14.3283V16.2886C15.1168 16.47 14.9699 16.6169 14.7886 16.6169ZM13.1566 15.9603H14.4603V14.6566H13.1566V15.9603Z" fill="#363636"/>
<path d="M14.7886 21.1169H12.8283C12.647 21.1169 12.5 20.9699 12.5 20.7886V18.8283C12.5 18.647 12.647 18.5 12.8283 18.5H14.7886C14.9699 18.5 15.1168 18.647 15.1168 18.8283V20.7886C15.1168 20.97 14.9699 21.1169 14.7886 21.1169ZM13.1566 20.4603H14.4603V19.1566H13.1566V20.4603Z" fill="#363636"/>
<path d="M13.5569 27.4973H8.19157C8.01027 27.4973 7.86328 27.3503 7.86328 27.169V24.2384C7.86328 24.0571 8.01027 23.9102 8.19157 23.9102H13.5569C13.7382 23.9102 13.8852 24.0571 13.8852 24.2384V27.169C13.8852 27.3504 13.7383 27.4973 13.5569 27.4973ZM8.51986 26.8408H13.2286V24.5668H8.51986V26.8408Z" fill="#363636"/>
<path d="M21.3146 27.4964H0.437651C0.256358 27.4964 0.109375 27.3494 0.109375 27.1681C0.109375 26.9868 0.256358 26.8398 0.437651 26.8398H21.3147C21.496 26.8398 21.643 26.9868 21.643 27.1681C21.643 27.3494 21.496 27.4964 21.3146 27.4964Z" fill="#363636"/>
<path d="M10.8768 8.10512C8.78004 8.10512 7.07422 6.39929 7.07422 4.30256C7.07422 2.20582 8.78004 0.5 10.8768 0.5C12.9735 0.5 14.6793 2.20582 14.6793 4.30256C14.6793 6.39929 12.9735 8.10512 10.8768 8.10512ZM10.8768 1.1565C9.14208 1.1565 7.73072 2.56779 7.73072 4.30256C7.73072 6.03726 9.14201 7.44854 10.8768 7.44854C12.6115 7.44854 14.0228 6.03726 14.0228 4.30256C14.0228 2.56786 12.6115 1.1565 10.8768 1.1565Z" fill="#363636"/>
<path d="M10.8673 5.75751C10.6861 5.75751 10.5391 5.61052 10.5391 5.42922V3.17399C10.5391 2.99269 10.6861 2.8457 10.8673 2.8457C11.0486 2.8457 11.1956 2.99269 11.1956 3.17399V5.42922C11.1956 5.61052 11.0486 5.75751 10.8673 5.75751Z" fill="#363636"/>
<path d="M12.0015 4.62435H9.74626C9.56496 4.62435 9.41797 4.47736 9.41797 4.29606C9.41797 4.11476 9.56496 3.96777 9.74626 3.96777H12.0015C12.1828 3.96777 12.3298 4.11476 12.3298 4.29606C12.3298 4.47736 12.1828 4.62435 12.0015 4.62435Z" fill="#363636"/>
<path d="M20.1569 7.56718C20.0729 7.56718 19.9889 7.53513 19.9248 7.47102L19.4751 7.0213C19.3469 6.89309 19.3469 6.68525 19.4751 6.55704C19.6033 6.4289 19.8111 6.4289 19.9393 6.55704L20.389 7.00676C20.5173 7.13497 20.5173 7.34281 20.389 7.47102C20.3249 7.53513 20.2409 7.56718 20.1569 7.56718Z" fill="#363636"/>
<path d="M21.5632 8.97245C21.4792 8.97245 21.3951 8.9404 21.331 8.8763L20.8813 8.42658C20.7531 8.29837 20.7531 8.09052 20.8813 7.96231C21.0095 7.83418 21.2174 7.83418 21.3456 7.96231L21.7953 8.41203C21.9235 8.54024 21.9235 8.74809 21.7953 8.8763C21.7312 8.9404 21.6472 8.97245 21.5632 8.97245Z" fill="#363636"/>
<path d="M21.1134 7.56718C21.0294 7.56718 20.9454 7.53513 20.8813 7.47102C20.7531 7.34281 20.7531 7.13497 20.8813 7.00676L21.331 6.55704C21.4592 6.4289 21.6671 6.4289 21.7953 6.55704C21.9235 6.68525 21.9235 6.89309 21.7953 7.0213L21.3456 7.47102C21.2815 7.53513 21.1975 7.56718 21.1134 7.56718Z" fill="#363636"/>
<path d="M19.7072 8.97245C19.6232 8.97245 19.5392 8.9404 19.4751 8.8763C19.3469 8.74809 19.3469 8.54024 19.4751 8.41203L19.9248 7.96231C20.053 7.83418 20.2608 7.83418 20.389 7.96231C20.5173 8.09052 20.5173 8.29837 20.389 8.42658L19.9393 8.8763C19.8752 8.9404 19.7912 8.97245 19.7072 8.97245Z" fill="#363636"/>
<path d="M1.01629 3.47929C0.932274 3.47929 0.84826 3.44724 0.784156 3.38313L0.334438 2.93341C0.206229 2.8052 0.206229 2.59736 0.334438 2.46915C0.462646 2.34101 0.670491 2.34101 0.7987 2.46915L1.24842 2.91887C1.37663 3.04708 1.37663 3.25492 1.24842 3.38313C1.18431 3.44724 1.1003 3.47929 1.01629 3.47929Z" fill="#363636"/>
<path d="M2.42254 4.88456C2.33852 4.88456 2.25451 4.85251 2.19041 4.7884L1.74069 4.33869C1.61248 4.21048 1.61248 4.00263 1.74069 3.87442C1.8689 3.74629 2.07674 3.74629 2.20495 3.87442L2.65467 4.32414C2.78288 4.45235 2.78288 4.6602 2.65467 4.7884C2.59056 4.85251 2.50655 4.88456 2.42254 4.88456Z" fill="#363636"/>
<path d="M1.97282 3.47929C1.88881 3.47929 1.80479 3.44724 1.74069 3.38313C1.61248 3.25492 1.61248 3.04708 1.74069 2.91887L2.19041 2.46915C2.31862 2.34101 2.52646 2.34101 2.65467 2.46915C2.78288 2.59736 2.78288 2.8052 2.65467 2.93341L2.20495 3.38313C2.14077 3.44724 2.05683 3.47929 1.97282 3.47929Z" fill="#363636"/>
<path d="M0.566569 4.88456C0.482556 4.88456 0.398542 4.85251 0.334438 4.7884C0.206229 4.6602 0.206229 4.45235 0.334438 4.32414L0.784156 3.87442C0.912365 3.74629 1.12021 3.74629 1.24842 3.87442C1.37663 4.00263 1.37663 4.21048 1.24842 4.33869L0.7987 4.7884C0.734595 4.85251 0.650582 4.88456 0.566569 4.88456Z" fill="#363636"/>
</svg>
