<svg width="30" height="30" viewBox="0 0 30 30" fill="none" xmlns="http://www.w3.org/2000/svg">
<g clip-path="url(#clip0_101_29377)">
<path d="M29.2241 21.8719H27.5038C27.9238 21.5179 28.2416 21.0187 28.4092 20.3141C28.5196 19.8492 28.4694 19.4151 28.4163 18.9555C28.3552 18.4281 28.2921 17.8828 28.4505 17.1763C28.5723 16.6329 28.4837 16.2251 28.1871 15.9642C27.8281 15.6484 27.2418 15.6351 26.4442 15.9247C26.1915 16.0166 25.9652 16.1554 25.7729 16.3322C25.2961 16.1524 24.7824 16.0862 24.2693 16.1407C23.339 16.2399 22.4782 16.798 21.9299 17.6096C21.3713 17.2338 20.6874 16.9346 19.9229 16.7349C19.6956 16.6755 19.4638 16.8116 19.4045 17.0386C19.3452 17.2656 19.4811 17.4976 19.7082 17.5569C20.4212 17.7432 21.047 18.0226 21.5387 18.3717C21.5256 18.4073 21.5128 18.4431 21.5008 18.4792C21.3608 18.9051 21.3098 19.3458 21.3535 19.7535C21.4428 20.5912 21.7932 21.3272 22.3324 21.8719H18.1756V20.5507H19.3049C19.5395 20.5507 19.7297 20.3606 19.7297 20.1259C19.7297 19.8913 19.5395 19.7011 19.3049 19.7011H14.4153V18.1136C14.4663 18.0911 14.5196 18.0642 14.5758 18.0314C15.3993 17.55 16.5809 17.2857 17.8177 17.3058C17.82 17.3059 17.8224 17.3059 17.8247 17.3059C18.0561 17.3059 18.2455 17.1202 18.2494 16.888C18.2532 16.6534 18.0661 16.4601 17.8316 16.4563C17.3418 16.4485 16.8648 16.4803 16.4095 16.5478V14.2899C16.786 14.0146 17.1415 13.6584 17.4172 13.1803C17.8233 12.4755 17.8395 12.0895 17.8689 11.3888C17.8736 11.2766 17.8788 11.1538 17.886 11.0172C17.8862 11.0134 17.8859 11.0097 17.886 11.0059C17.8861 11.0022 17.8865 10.9986 17.8865 10.9948V9.95283C17.8865 8.71727 16.8813 7.71201 15.6458 7.71201H15.4973C16.1266 7.06869 16.5475 6.23443 16.5475 5.48439V4.61264C16.5475 3.51755 16.1968 2.58705 15.5334 1.92187C14.939 1.32589 14.1391 0.990185 13.2811 0.976647C13.2767 0.976534 13.2722 0.976534 13.2677 0.976647C12.4097 0.990185 11.6096 1.32589 11.0148 1.92181C10.3507 2.58711 9.99978 3.5176 9.99978 4.61269V5.48445C9.99978 6.2342 10.4207 7.06846 11.0506 7.71207H10.9014C9.80001 7.71207 9.25762 8.38535 8.9453 8.89195L6.47181 12.9088C6.19206 12.4065 5.49855 11.3261 4.67851 11.2633C4.45025 11.246 4.16404 11.253 3.97322 11.4643C3.77243 11.6869 3.82284 11.9654 3.8596 12.1688L4.45727 15.5768C4.51029 15.879 4.55209 16.1177 4.75163 16.2798C4.96063 16.4497 5.20107 16.424 5.47963 16.3941C5.53678 16.3881 5.60113 16.3811 5.67408 16.3745C6.85306 16.2658 7.74741 16.6086 8.07706 16.7609C8.43395 16.9259 8.74995 17.1055 9.02975 17.2909V19.5677C9.01656 19.5677 9.0041 19.5679 8.99078 19.5679H5.57252C5.0729 19.5679 5.05942 19.5394 4.99496 19.4035C4.91181 19.2274 4.15271 17.68 3.118 17.6007C2.88912 17.583 2.60201 17.5901 2.41124 17.8023C2.21034 18.0255 2.25984 18.2944 2.2996 18.5104L2.88815 21.872H1.61804C1.23419 21.8719 0.921875 22.1843 0.921875 22.5681V25.8981C0.921875 26.2829 1.23419 26.5959 1.61804 26.5959H2.67677V27.3849C2.67677 28.2885 3.41185 29.0236 4.31538 29.0236H26.5268C27.4303 29.0236 28.1654 28.2885 28.1654 27.3849V26.5959H29.2241C29.6088 26.5959 29.9219 26.2829 29.9219 25.8981V22.5681C29.9219 22.1843 29.6089 21.8719 29.2241 21.8719ZM26.2432 19.3463C25.9015 18.6037 25.8332 17.9074 26.0509 17.3857C26.1842 17.0664 26.4205 16.8373 26.7344 16.7233C27.0721 16.6006 27.3001 16.5662 27.4419 16.5662C27.5497 16.5662 27.6077 16.5862 27.6259 16.6022C27.6405 16.6151 27.6825 16.7185 27.6215 16.9905V16.9905C27.4315 17.8375 27.5096 18.5116 27.5722 19.0532C27.6185 19.4531 27.6584 19.7984 27.5826 20.1177C27.3415 21.1314 26.7543 21.6198 25.3701 21.7941C25.3737 21.791 25.3774 21.7879 25.381 21.7847C26.5559 20.7705 26.4982 19.8986 26.2432 19.3463ZM22.1983 19.6633C22.1673 19.3744 22.2052 19.0567 22.3074 18.7461C22.5721 17.9505 23.3093 17.0976 24.3594 16.9856C24.6663 16.9528 24.9733 16.9795 25.266 17.0607C24.9568 17.8037 25.0296 18.7414 25.4716 19.702C25.8874 20.6023 24.3049 21.5599 23.803 21.8356C22.9158 21.4991 22.3068 20.6818 22.1983 19.6633ZM17.326 20.5508V21.8719H13.6286C13.293 21.8399 13.0297 21.5567 13.0297 21.2129C13.0297 20.8478 13.3267 20.5508 13.6918 20.5508H17.326ZM15.5599 16.7226C15.0392 16.8626 14.5617 17.0554 14.147 17.2978C14.1388 17.3026 14.1313 17.3069 14.1242 17.311C14.0769 17.2551 14.0157 17.1765 13.9591 17.104C13.89 17.0155 13.804 16.9051 13.7007 16.7785C13.4806 16.5103 13.1657 16.1879 12.8408 15.8923L15.1805 14.9483C15.3026 14.8989 15.43 14.8442 15.5598 14.7838V16.7226H15.5599ZM11.8705 15.3677C11.741 15.4195 11.5982 15.4173 11.4682 15.3617C11.3384 15.3061 11.2384 15.2041 11.1863 15.0735C11.1342 14.9441 11.136 14.8012 11.1916 14.6713C11.2472 14.541 11.3496 14.4406 11.4796 14.3887C11.4834 14.3872 11.4872 14.3856 11.491 14.384L13.637 13.4541L14.1416 14.4515L11.8705 15.3677ZM13.2744 1.8262C14.3314 1.84585 15.4589 2.56763 15.6647 4.09987C14.7366 3.92292 12.8433 3.54394 12.6232 3.4869C12.6231 3.48685 12.623 3.48685 12.6229 3.48679C12.4996 3.45496 12.3857 3.44108 12.2797 3.44108C11.878 3.44108 11.5922 3.63989 11.3527 3.80647C11.2058 3.90871 11.0635 4.00766 10.8852 4.08004C11.0983 2.56145 12.2213 1.8458 13.2744 1.8262ZM10.8493 5.48445V4.97814C11.3044 4.87409 11.6054 4.6656 11.8379 4.50389C12.1166 4.31006 12.206 4.25648 12.4102 4.30933C12.5627 4.34875 14.7659 4.79944 15.6978 4.97094V5.48445C15.6978 6.2146 15.0009 7.28466 14.0404 7.74186C14.0269 7.74718 14.0138 7.75308 14.0011 7.75965C13.9484 7.78361 13.8952 7.8062 13.8411 7.82631C13.6204 7.90719 13.4456 7.94322 13.2744 7.94322C13.1045 7.94322 12.9239 7.90606 12.7081 7.82699C12.6564 7.80779 12.6051 7.78598 12.554 7.7627C12.5405 7.7554 12.5263 7.74894 12.5119 7.74311C11.6194 7.31473 10.8493 6.28999 10.8493 5.48445ZM14.2545 8.57623V8.70367C14.2545 9.32202 13.8149 9.8251 13.2745 9.8251C12.7331 9.8251 12.2928 9.32202 12.2928 8.70367V8.57606C12.3329 8.59294 12.3733 8.60897 12.4139 8.62409C12.7282 8.73924 13.0017 8.79288 13.2745 8.79288C13.5461 8.79288 13.8191 8.73924 14.1353 8.62341C14.1752 8.60858 14.215 8.59277 14.2545 8.57623ZM9.66866 9.33765C10.0084 8.78654 10.3656 8.56173 10.9014 8.56173H11.4431V8.70373C11.4431 9.79055 12.2646 10.6748 13.2744 10.6748C14.2833 10.6748 15.1041 9.79061 15.1041 8.70373V8.56173H15.6458C16.4128 8.56173 17.0369 9.18586 17.0369 9.95294V10.9842C17.0298 11.1193 17.0247 11.2416 17.02 11.3533C16.9917 12.0282 16.9831 12.2319 16.6811 12.7561C16.3374 13.3519 15.8112 13.7659 14.9318 14.1316L14.414 13.108C14.6118 13.0045 14.7526 12.8951 14.9514 12.6866C14.9725 12.6645 14.9911 12.6402 15.007 12.6141L15.5191 11.7711C15.641 11.5706 15.5772 11.3093 15.3767 11.1875C15.1762 11.0655 14.9149 11.1294 14.7931 11.3299L14.3053 12.1327C14.1432 12.2991 14.0694 12.34 13.8248 12.4468L11.1583 13.6022C10.9193 13.699 10.7177 13.8586 10.5685 14.0623C10.1892 13.8533 9.78013 13.7 9.35787 13.5855L10.2228 12.1793C10.3457 11.9795 10.2834 11.7179 10.0836 11.5949C9.88373 11.472 9.6221 11.5344 9.49919 11.7342L8.47519 13.3989C8.06477 13.3331 7.65288 13.2914 7.25367 13.2596L9.66866 9.33765ZM6.87973 15.5537C6.49809 15.5036 6.06592 15.4851 5.59648 15.5284C5.51894 15.5355 5.34098 15.5545 5.31713 15.557C5.30841 15.5114 4.71697 12.1379 4.71697 12.1379C5.05256 12.2806 5.55808 12.9415 5.83551 13.5238C5.99325 13.8577 6.16085 13.9991 6.38532 14.0528C6.64971 14.0868 6.84224 14.0811 6.92941 14.0871C7.04178 14.0952 7.15586 14.1041 7.2705 14.1136L6.87973 15.5537ZM9.87936 17.9666C10.5459 18.6049 10.8332 19.1986 10.8692 19.4222C10.741 19.4878 10.4091 19.5313 9.87936 19.5526V17.9666ZM6.31525 20.4175H8.99078C10.6398 20.4175 11.2073 20.3202 11.5209 19.9836C11.6231 19.8739 11.7406 19.6821 11.7202 19.3922C11.6665 18.6082 10.5849 16.9846 8.43361 15.9897C8.28431 15.9207 8.03764 15.8189 7.71331 15.7263L8.12571 14.2062C8.90384 14.3149 9.6733 14.5049 10.2988 14.8883C10.3 15.0583 10.3327 15.228 10.3978 15.3897C10.5337 15.7302 10.7951 15.9975 11.1337 16.1426C11.3085 16.2176 11.4927 16.2551 11.677 16.2551C11.7631 16.2551 11.8493 16.2468 11.9345 16.2304C12.332 16.5577 12.7765 16.9915 13.0433 17.3166C13.1398 17.435 13.2191 17.5367 13.2891 17.6265C13.3817 17.7453 13.4709 17.8593 13.5658 17.9539V19.7069C12.791 19.7713 12.1802 20.4219 12.1802 21.213C12.1802 21.4491 12.2346 21.6727 12.3316 21.872H6.31525V20.4175ZM4.22697 19.7669C4.51312 20.3702 5.00765 20.414 5.46564 20.4172V21.8719H3.75068L3.15595 18.473C3.49398 18.6057 3.96954 19.2216 4.22697 19.7669ZM29.0723 25.7463H16.4358C16.2012 25.7463 16.011 25.9365 16.011 26.1711C16.011 26.4058 16.2012 26.5959 16.4358 26.5959H27.3158V27.385C27.3158 27.8201 26.9618 28.1741 26.5268 28.1741H4.31538C3.88033 28.1741 3.52638 27.8201 3.52638 27.385V26.5959H14.5669C14.8015 26.5959 14.9917 26.4058 14.9917 26.1711C14.9917 25.9365 14.8015 25.7463 14.5669 25.7463H1.77148V22.7216H3.39203C3.39243 22.7216 3.39288 22.7217 3.39328 22.7217C3.39356 22.7217 29.0723 22.7216 29.0723 22.7216V25.7463Z" fill="#026985"/>
<path d="M21.6406 9.30413C22.1269 9.21691 22.5845 8.99457 22.9696 8.65843C23.3247 8.29593 23.5582 7.72402 23.7121 6.71484C23.86 7.68583 24.082 8.25223 24.4149 8.61635C24.7478 8.98047 25.1916 9.1423 25.7835 9.30413C25.1916 9.46596 24.7478 9.62779 24.4149 9.99191C24.082 10.356 23.86 10.9224 23.7121 11.8934C23.5694 10.958 23.357 10.3981 23.0454 10.0327C22.7086 9.63977 22.2541 9.47179 21.6406 9.30413Z" stroke="#026985" stroke-width="0.8" stroke-linecap="round" stroke-linejoin="round"/>
</g>
<defs>
<clipPath id="clip0_101_29377">
<rect width="29" height="29" fill="white" transform="translate(0.921875 0.5)"/>
</clipPath>
</defs>
</svg>
