<svg width="25" height="26" viewBox="0 0 25 26" fill="none" xmlns="http://www.w3.org/2000/svg">
<path d="M7.75 1.14441e-05H13.75C19.18 1.14441e-05 21.5 2.32001 21.5 7.75001V9.99902C21.5 10.409 21.16 10.749 20.75 10.749C20.34 10.749 20 10.409 20 9.99902V7.75001C20 3.14001 18.36 1.50001 13.75 1.50001H7.75C3.14 1.50001 1.5 3.14001 1.5 7.75001V13.75C1.5 16.65 2.18002 18.33 3.71002 19.2C3.87002 19.29 4.39998 19.53 5.91998 19.77C6.32998 19.83 6.60998 20.22 6.53998 20.63C6.46998 21.04 6.07999 21.32 5.67999 21.25C4.36999 21.04 3.47997 20.8 2.96997 20.51C0.949971 19.36 0 17.21 0 13.75V7.75001C0 2.32001 2.32 1.14441e-05 7.75 1.14441e-05Z" fill="#026985"/>
<path d="M4.75 4.99902H11.75C12.16 4.99902 12.5 5.33902 12.5 5.74902C12.5 6.15902 12.16 6.49902 11.75 6.49902H4.75C4.34 6.49902 4 6.15902 4 5.74902C4 5.33902 4.34 4.99902 4.75 4.99902Z" fill="#026985"/>
<path d="M4.22266 8.99902H9.22266C9.63266 8.99902 9.97266 9.33902 9.97266 9.74902C9.97266 10.159 9.63266 10.499 9.22266 10.499H4.22266C3.81266 10.499 3.47266 10.159 3.47266 9.74902C3.47266 9.33902 3.81266 8.99902 4.22266 8.99902Z" fill="#026985"/>
<path d="M18.2231 23.0625H14.9323C14.6308 23.0625 14.3868 22.8184 14.3868 22.5169V19.7533H11.6237C11.3222 19.7533 11.0781 19.5092 11.0781 19.2077V15.9186C11.0781 15.6172 11.3226 15.3732 11.6237 15.3732H14.3868V12.608C14.3868 12.3066 14.6311 12.0625 14.9323 12.0625H18.2231C18.5245 12.0625 18.7689 12.3066 18.7689 12.608V15.3732H21.5323C21.8337 15.3732 22.0781 15.6172 22.0781 15.9186V19.2081C22.0781 19.5095 21.8337 19.7536 21.5323 19.7536H18.7689V22.5173C18.7689 22.8184 18.5245 23.0625 18.2231 23.0625ZM15.4781 21.9717H17.6779V19.2081C17.6779 18.9066 17.922 18.6625 18.2235 18.6625H20.9868V16.4641H18.2235C17.922 16.4641 17.6779 16.22 17.6779 15.9186V13.1534H15.4781V15.9186C15.4781 16.22 15.2336 16.4641 14.9325 16.4641H12.1694V18.6625H14.9325C15.234 18.6625 15.4781 18.9066 15.4781 19.2081V21.9717Z" fill="#026985"/>
</svg>
