<svg width="22" height="24" viewBox="0 0 22 24" fill="none" xmlns="http://www.w3.org/2000/svg">
<path d="M20.9332 5.77409C20.8904 5.73114 20.8324 5.70703 20.772 5.70703C20.7117 5.70703 20.6537 5.73114 20.6109 5.77409L14.279 11.3245C13.4735 12.0286 12.9704 13.0206 12.8755 14.0916L12.0869 22.7042C12.0842 22.7345 12.0874 22.765 12.0964 22.794C12.1054 22.823 12.12 22.85 12.1393 22.8733C12.1586 22.8967 12.1823 22.9159 12.209 22.9301C12.2357 22.9442 12.2649 22.9528 12.2949 22.9555C12.3555 22.9611 12.4158 22.942 12.4625 22.9027C12.5093 22.8633 12.5386 22.8069 12.544 22.7457L13.3327 14.1331C13.4189 13.1808 13.867 12.2992 14.583 11.6726L20.9103 6.10845C20.9344 6.08851 20.9541 6.06385 20.9683 6.03595C20.9826 6.00806 20.991 5.97753 20.9932 5.94623C20.9953 5.91493 20.9911 5.88352 20.9808 5.85392C20.9705 5.82432 20.9543 5.79716 20.9332 5.77409Z" fill="#363636" stroke="#363636" stroke-width="0.4"/>
<path d="M9.13804 7.58286C8.93816 7.78727 8.80472 8.04824 8.75549 8.33103C8.70627 8.61383 8.74357 8.90504 8.86246 9.16592C8.98134 9.4268 9.17615 9.64497 9.42098 9.7914C9.6658 9.93783 9.94903 10.0056 10.233 9.98564C10.216 10.2201 10.2576 10.4552 10.3537 10.6693C10.4499 10.8835 10.5977 11.07 10.7836 11.2118C10.9695 11.3536 11.1877 11.4462 11.4181 11.4812C11.6486 11.5162 11.8841 11.4924 12.1032 11.4121C12.3222 11.3317 12.5178 11.1974 12.6722 11.0213C12.8266 10.8451 12.9349 10.6328 12.9871 10.4037C13.0393 10.1745 13.0339 9.93587 12.9713 9.70939C12.9086 9.48292 12.7908 9.27586 12.6286 9.10708L17.8129 3.90952C17.8344 3.88808 17.8514 3.86258 17.863 3.83448C17.8746 3.80638 17.8805 3.77624 17.8805 3.7458C17.8805 3.71536 17.8746 3.68522 17.863 3.65712C17.8514 3.62902 17.8344 3.60351 17.8129 3.58208C17.7701 3.53913 17.7122 3.51502 17.6518 3.51502C17.5914 3.51502 17.5335 3.53913 17.4906 3.58208L12.1371 8.95719C12.1134 8.98111 12.0952 9.00999 12.0839 9.04178C12.0725 9.07357 12.0682 9.1075 12.0712 9.14116C12.0743 9.17482 12.0846 9.20739 12.1015 9.23657C12.1184 9.26575 12.1415 9.29082 12.1691 9.31C12.295 9.39641 12.3979 9.51266 12.4688 9.64856C12.5398 9.78445 12.5766 9.93582 12.576 10.0894C12.5755 10.2277 12.5451 10.3643 12.4868 10.4896C12.4286 10.6148 12.3439 10.7257 12.2388 10.8145C12.1336 10.9033 12.0105 10.9679 11.8781 11.0037C11.7456 11.0395 11.607 11.0457 11.4719 11.0219C11.3368 10.998 11.2085 10.9447 11.096 10.8657C10.9834 10.7866 10.8894 10.6837 10.8204 10.5641C10.7513 10.4446 10.7091 10.3113 10.6964 10.1735C10.6838 10.0357 10.7012 9.89686 10.7473 9.76657C10.765 9.72432 10.7697 9.67771 10.761 9.63271C10.7523 9.5877 10.7304 9.54634 10.6983 9.51392C10.6662 9.48149 10.6252 9.45947 10.5805 9.45066C10.5359 9.44186 10.4897 9.44668 10.4478 9.4645C10.2892 9.52273 10.1179 9.53684 9.9519 9.50537C9.78594 9.4739 9.63143 9.39799 9.50454 9.2856C9.37764 9.17321 9.28304 9.02847 9.23063 8.86653C9.17822 8.7046 9.16994 8.53143 9.20665 8.36516C9.24336 8.19889 9.32371 8.04563 9.43929 7.92144C9.55486 7.79724 9.70142 7.70668 9.8636 7.65924C10.0258 7.61179 10.1976 7.60921 10.3611 7.65176C10.5246 7.6943 10.6738 7.78042 10.793 7.90108C10.9073 8.01638 10.9233 8.11784 11.0673 8.13167C11.1008 8.13478 11.1345 8.1304 11.1662 8.11884C11.1978 8.10728 11.2265 8.08883 11.2502 8.0648L16.4963 2.77731C16.5177 2.75587 16.5347 2.73037 16.5463 2.70227C16.5579 2.67417 16.5639 2.64403 16.5639 2.61359C16.5639 2.58315 16.5579 2.55301 16.5463 2.52491C16.5347 2.49681 16.5177 2.4713 16.4963 2.44987C16.4534 2.40692 16.3955 2.38281 16.3351 2.38281C16.2747 2.38281 16.2168 2.40692 16.174 2.44987L11.1039 7.56903C10.84 7.31062 10.4859 7.16723 10.1182 7.16982C9.75037 7.17241 9.39835 7.32076 9.13804 7.58286Z" fill="#363636" stroke="#363636" stroke-width="0.4"/>
<path d="M11.2675 12.0401C9.30624 11.0163 9.69484 11.2999 8.2776 9.91172C8.12798 9.77366 7.93711 9.68968 7.73502 9.673C7.53292 9.65631 7.33106 9.70787 7.16118 9.81956C6.9913 9.93126 6.86305 10.0967 6.79659 10.29C6.73014 10.4833 6.72925 10.6933 6.79406 10.8871L6.8535 11.0508C7.09345 11.7107 7.52427 12.2827 8.09016 12.6927L8.30731 12.8518V21.7757C8.30731 21.8369 8.3314 21.8955 8.37427 21.9388C8.41713 21.982 8.47528 22.0063 8.5359 22.0063C8.59653 22.0063 8.65467 21.982 8.69754 21.9388C8.74041 21.8955 8.76449 21.8369 8.76449 21.7757V12.7273C8.76458 12.6909 8.75614 12.655 8.73985 12.6225C8.72356 12.5901 8.69989 12.5619 8.67077 12.5405L8.3576 12.3099C7.86669 11.953 7.49195 11.457 7.28096 10.8848L7.22152 10.7234C7.19162 10.6273 7.19371 10.524 7.22748 10.4293C7.26124 10.3345 7.32482 10.2535 7.40851 10.1986C7.4922 10.1437 7.59139 10.118 7.69095 10.1253C7.79051 10.1326 7.88495 10.1726 7.95986 10.2392C9.42054 11.6711 9.06623 11.4083 11.0572 12.4459C11.1226 12.482 11.1728 12.5408 11.1986 12.6113C11.2243 12.6818 11.224 12.7593 11.1975 12.8296C11.171 12.8998 11.1203 12.958 11.0546 12.9935C10.9889 13.0289 10.9127 13.0392 10.8401 13.0224L10.3052 12.8841C10.2708 12.8751 10.2348 12.8743 10.2001 12.8818C10.1654 12.8893 10.1328 12.9049 10.1051 12.9272C10.0774 12.9496 10.0552 12.9782 10.0403 13.0107C10.0255 13.0433 10.0183 13.0788 10.0194 13.1147V21.7711C10.0194 21.8323 10.0435 21.8909 10.0864 21.9342C10.1293 21.9774 10.1874 22.0017 10.248 22.0017C10.3086 22.0017 10.3668 21.9774 10.4097 21.9342C10.4525 21.8909 10.4766 21.8323 10.4766 21.7711V13.4052L10.7372 13.4721C10.9199 13.5221 11.1146 13.5018 11.2833 13.4152C11.4521 13.3286 11.5829 13.1818 11.6504 13.0034C11.7179 12.8249 11.7173 12.6275 11.6487 12.4495C11.58 12.2715 11.4483 12.1256 11.279 12.0401H11.2675Z" fill="#363636" stroke="#363636" stroke-width="0.4"/>
<path d="M6.32242 15.6901L6.00011 10.5249C5.95268 9.76805 6.08976 9.01104 6.39939 8.32004C6.70901 7.62903 7.18174 7.02507 7.77624 6.56097L14.2864 1.45795C14.3343 1.42034 14.3654 1.36508 14.3729 1.30432C14.3804 1.24356 14.3637 1.18228 14.3264 1.13397C14.2891 1.08565 14.2343 1.05426 14.1741 1.04669C14.1139 1.03913 14.0531 1.056 14.0052 1.09362L7.49507 6.19202C6.84209 6.70271 6.32299 7.36691 5.9831 8.12661C5.64321 8.88631 5.49288 9.71841 5.54522 10.5502L5.84467 15.3811C5.32083 15.1122 4.73579 14.9877 4.14888 15.0204C3.56198 15.0532 2.99409 15.2419 2.50283 15.5675C2.01156 15.893 1.61439 16.3439 1.35161 16.8743C1.08882 17.4047 0.969769 17.9958 1.00652 18.5876C1.04328 19.1794 1.23453 19.7508 1.56088 20.244C1.88724 20.7372 2.33708 21.1345 2.86479 21.3957C3.39249 21.6569 3.97929 21.7726 4.56565 21.7312C5.15202 21.6898 5.71709 21.4926 6.20356 21.1598L6.28585 22.4811C6.28979 22.5422 6.31765 22.5993 6.3633 22.6397C6.40896 22.6802 6.46867 22.7007 6.52929 22.6967C6.58992 22.6927 6.64649 22.6646 6.68658 22.6186C6.72666 22.5725 6.74696 22.5123 6.74302 22.4511L6.6493 20.8024C6.99821 20.4645 7.26976 20.0538 7.44498 19.5991C7.62019 19.1444 7.69484 18.6565 7.66371 18.1696C7.63258 17.6827 7.49642 17.2086 7.26474 16.7803C7.03306 16.352 6.71147 15.98 6.32242 15.6901ZM6.25156 20.5326C5.84995 20.8983 5.35427 21.1424 4.8214 21.2369C4.28853 21.3314 3.74004 21.2724 3.23887 21.0668C2.73769 20.8612 2.30413 20.5172 1.98791 20.0743C1.6717 19.6315 1.48564 19.1077 1.45109 18.563C1.41654 18.0183 1.53489 17.4748 1.79257 16.9949C2.05025 16.515 2.43681 16.1181 2.90792 15.8497C3.37902 15.5813 3.91559 15.4523 4.45605 15.4775C4.99652 15.5027 5.51899 15.6811 5.96354 15.9922C6.31917 16.2421 6.61434 16.5698 6.8271 16.9507C7.03986 17.3316 7.16473 17.756 7.19241 18.1924C7.22009 18.6287 7.14987 19.0657 6.98697 19.4709C6.82408 19.8761 6.57271 20.239 6.25156 20.5326Z" fill="#363636" stroke="#363636" stroke-width="0.4"/>
<path d="M5.73553 17.6974H5.00862V16.9572C5.00862 16.896 4.98454 16.8373 4.94167 16.7941C4.8988 16.7509 4.84066 16.7266 4.78003 16.7266H3.88854C3.82791 16.7266 3.76977 16.7509 3.7269 16.7941C3.68404 16.8373 3.65995 16.896 3.65995 16.9572V17.6974H2.9239C2.86327 17.6974 2.80513 17.7217 2.76226 17.7649C2.7194 17.8081 2.69531 17.8668 2.69531 17.928V18.8273C2.69531 18.8884 2.7194 18.9471 2.76226 18.9903C2.80513 19.0336 2.86327 19.0579 2.9239 19.0579H3.65995V19.8004C3.65995 19.8615 3.68404 19.9202 3.7269 19.9634C3.76977 20.0067 3.82791 20.031 3.88854 20.031H4.78003C4.84066 20.031 4.8988 20.0067 4.94167 19.9634C4.98454 19.9202 5.00862 19.8615 5.00862 19.8004V19.0579H5.73553C5.79615 19.0579 5.85429 19.0336 5.89716 18.9903C5.94003 18.9471 5.96411 18.8884 5.96411 18.8273V17.928C5.96411 17.8668 5.94003 17.8081 5.89716 17.7649C5.85429 17.7217 5.79615 17.6974 5.73553 17.6974ZM5.50694 18.5967H4.78003C4.71941 18.5967 4.66126 18.621 4.6184 18.6642C4.57553 18.7075 4.55144 18.7661 4.55144 18.8273V19.5698H4.11713V18.8273C4.11713 18.7661 4.09304 18.7075 4.05018 18.6642C4.00731 18.621 3.94916 18.5967 3.88854 18.5967H3.15249V18.1585H3.88854C3.94916 18.1585 4.00731 18.1342 4.05018 18.091C4.09304 18.0478 4.11713 17.9891 4.11713 17.928V17.1877H4.55144V17.928C4.55144 17.9891 4.57553 18.0478 4.6184 18.091C4.66126 18.1342 4.71941 18.1585 4.78003 18.1585H5.50694V18.5967Z" fill="#363636" stroke="#363636" stroke-width="0.4"/>
</svg>
