<svg width="20" height="20" viewBox="0 0 20 20" fill="none" xmlns="http://www.w3.org/2000/svg">
<path d="M5.83464 1.66602H5.0013C2.5013 1.66602 1.66797 3.15768 1.66797 4.99935V5.83268V17.4993C1.66797 18.191 2.4513 18.5827 3.0013 18.166L4.4263 17.0993C4.75964 16.8493 5.2263 16.8827 5.5263 17.1827L6.90964 18.5744C7.23464 18.8994 7.76797 18.8994 8.09297 18.5744L9.49297 17.1743C9.78464 16.8827 10.2513 16.8493 10.5763 17.0993L12.0013 18.166C12.5513 18.5743 13.3346 18.1827 13.3346 17.4993V3.33268C13.3346 2.41602 14.0846 1.66602 15.0013 1.66602H5.83464ZM4.9763 11.6743C4.51797 11.6743 4.14297 11.2993 4.14297 10.841C4.14297 10.3827 4.51797 10.0077 4.9763 10.0077C5.43464 10.0077 5.80964 10.3827 5.80964 10.841C5.80964 11.2993 5.43464 11.6743 4.9763 11.6743ZM4.9763 8.34102C4.51797 8.34102 4.14297 7.96602 4.14297 7.50768C4.14297 7.04935 4.51797 6.67435 4.9763 6.67435C5.43464 6.67435 5.80964 7.04935 5.80964 7.50768C5.80964 7.96602 5.43464 8.34102 4.9763 8.34102ZM10.0013 11.466H7.5013C7.15964 11.466 6.8763 11.1827 6.8763 10.841C6.8763 10.4993 7.15964 10.216 7.5013 10.216H10.0013C10.343 10.216 10.6263 10.4993 10.6263 10.841C10.6263 11.1827 10.343 11.466 10.0013 11.466ZM10.0013 8.13268H7.5013C7.15964 8.13268 6.8763 7.84935 6.8763 7.50768C6.8763 7.16602 7.15964 6.88268 7.5013 6.88268H10.0013C10.343 6.88268 10.6263 7.16602 10.6263 7.50768C10.6263 7.84935 10.343 8.13268 10.0013 8.13268Z" fill="#2E9CB7"/>
<path d="M15.007 1.66602V2.91602C15.557 2.91602 16.082 3.14102 16.4654 3.51602C16.8654 3.92435 17.082 4.44935 17.082 4.99935V7.01602C17.082 7.63268 16.807 7.91602 16.182 7.91602H14.582V3.34102C14.582 3.10768 14.7737 2.91602 15.007 2.91602V1.66602ZM15.007 1.66602C14.082 1.66602 13.332 2.41602 13.332 3.34102V9.16602H16.182C17.4987 9.16602 18.332 8.33268 18.332 7.01602V4.99935C18.332 4.08268 17.957 3.24935 17.357 2.64102C16.7487 2.04102 15.9237 1.67435 15.007 1.66602C15.0154 1.66602 15.007 1.66602 15.007 1.66602Z" fill="#2E9CB7"/>
</svg>
