<svg width="18" height="18" viewBox="0 0 18 18" fill="none" xmlns="http://www.w3.org/2000/svg">
<path d="M6.07328 15.5732C5.5137 15.5732 4.98245 15.4386 4.51495 15.1694C3.40995 14.5319 2.80078 13.2357 2.80078 11.5286V6.47818C2.80078 4.76402 3.40995 3.47485 4.51495 2.83735C5.61995 2.19985 7.0437 2.32027 8.5312 3.17735L12.9016 5.69902C14.382 6.5561 15.2037 7.73193 15.2037 9.00693C15.2037 10.2819 14.3891 11.4578 12.9016 12.3148L8.5312 14.8365C7.67411 15.3253 6.83828 15.5732 6.07328 15.5732ZM6.07328 3.48902C5.69078 3.48902 5.35078 3.57402 5.0462 3.7511C4.2812 4.19027 3.86328 5.16068 3.86328 6.47818V11.5215C3.86328 12.839 4.2812 13.8023 5.0462 14.2486C5.8112 14.6948 6.85953 14.5673 7.99995 13.9086L12.3704 11.3869C13.5108 10.7282 14.1412 9.88527 14.1412 8.99985C14.1412 8.11443 13.5108 7.27152 12.3704 6.61277L7.99995 4.0911C7.30578 3.69443 6.65411 3.48902 6.07328 3.48902Z" fill="#363636"/>
</svg>
