<svg width="20" height="20" viewBox="0 0 20 20" fill="none" xmlns="http://www.w3.org/2000/svg">
<path d="M10.0015 18.9576C9.11814 18.9576 8.24314 18.8243 7.39314 18.566C7.05981 18.466 6.87647 18.116 6.97647 17.7827C7.07647 17.4493 7.42647 17.266 7.75981 17.366C8.48481 17.591 9.24314 17.6993 10.0015 17.6993C14.2515 17.6993 17.7098 14.241 17.7098 9.99097C17.7098 9.55764 17.6681 9.10763 17.5848 8.63263C17.5265 8.29097 17.7515 7.96597 18.0931 7.90764C18.4348 7.8493 18.7598 8.07429 18.8181 8.41596C18.9181 8.96596 18.9682 9.48264 18.9682 9.99931C18.9598 14.941 14.9431 18.9576 10.0015 18.9576Z" fill="#026985"/>
<path d="M16.8673 5.90681C16.6673 5.90681 16.4757 5.81513 16.3507 5.63179C14.909 3.5318 12.534 2.28178 10.0007 2.28178C9.24233 2.28178 8.48399 2.39013 7.75899 2.61513C7.43399 2.71513 7.08399 2.5318 6.97566 2.19847C6.86733 1.86513 7.05899 1.51513 7.39233 1.41513C8.24233 1.1568 9.11733 1.02344 10.0007 1.02344C12.9507 1.02344 15.709 2.48181 17.384 4.91514C17.5757 5.19847 17.509 5.59012 17.2257 5.78179C17.1173 5.87346 16.9923 5.90681 16.8673 5.90681Z" fill="#026985"/>
<path d="M2.15196 7.85003C2.0853 7.85003 2.0103 7.84172 1.94363 7.81672C1.61863 7.70005 1.45197 7.3417 1.5603 7.0167C2.11864 5.45003 3.08531 4.07506 4.37698 3.03339C4.64364 2.81672 5.0353 2.85838 5.25197 3.12504C5.46863 3.39171 5.42698 3.78338 5.16031 4.00838C4.05198 4.90004 3.21865 6.08336 2.74365 7.43336C2.65198 7.6917 2.4103 7.85003 2.15196 7.85003Z" fill="#026985"/>
<path d="M2.15129 13.4C1.89296 13.4 1.6513 13.2417 1.55963 12.9833C1.21796 12.0083 1.04297 11.0083 1.04297 10C1.04297 9.65833 1.3263 9.375 1.66797 9.375C2.00964 9.375 2.29297 9.65833 2.29297 10C2.29297 10.8667 2.44298 11.7333 2.74298 12.5667C2.85964 12.8917 2.68462 13.25 2.35962 13.3666C2.29296 13.3916 2.21796 13.4 2.15129 13.4Z" fill="#026985"/>
<path d="M4.76783 17.0811C4.62616 17.0811 4.49283 17.0395 4.37616 16.9395C3.90116 16.5561 3.51781 16.1894 3.19281 15.8144C2.96781 15.5561 3.00116 15.1561 3.2595 14.9311C3.51783 14.7061 3.91783 14.7394 4.14283 14.9978C4.41783 15.3144 4.75116 15.6311 5.15949 15.9644C5.42616 16.1811 5.46782 16.5728 5.25115 16.8395C5.13448 16.9978 4.95116 17.0811 4.76783 17.0811Z" fill="#026985"/>
<path d="M6.86719 10.0008V8.6091C6.86719 6.87577 8.09219 6.16744 9.59219 7.0341L10.8005 7.7341L12.0089 8.4341C13.5089 9.30077 13.5089 10.7174 12.0089 11.5841L10.8005 12.2841L9.59219 12.9841C8.09219 13.8508 6.86719 13.1424 6.86719 11.4091V10.0008Z" fill="#026985"/>
</svg>
