<svg width="32" height="33" viewBox="0 0 32 33" fill="none" xmlns="http://www.w3.org/2000/svg">
<path d="M17 21.4375H10.75C10.2375 21.4375 9.8125 21.0125 9.8125 20.5C9.8125 19.9875 10.2375 19.5625 10.75 19.5625H17C17.5125 19.5625 17.9375 19.9875 17.9375 20.5C17.9375 21.0125 17.5125 21.4375 17 21.4375Z" fill="white"/>
<path d="M20.75 16.4375H10.75C10.2375 16.4375 9.8125 16.0125 9.8125 15.5C9.8125 14.9875 10.2375 14.5625 10.75 14.5625H20.75C21.2625 14.5625 21.6875 14.9875 21.6875 15.5C21.6875 16.0125 21.2625 16.4375 20.75 16.4375Z" fill="white"/>
<path d="M28.251 23.9375C27.7385 23.9375 27.3135 23.5125 27.3135 23V12.9875C27.3135 7.7 25.5135 6.625 21.951 6.4375H15.5703C15.0578 6.4375 14.6328 6.0125 14.6328 5.5C14.6328 4.9875 15.0578 4.5625 15.5703 4.5625H22.001C27.126 4.8375 29.1885 7.275 29.1885 12.9875V23C29.1885 23.5125 28.7635 23.9375 28.251 23.9375Z" fill="white"/>
<path d="M20.75 31.4371H13.25C6.225 31.4371 4.8125 28.1996 4.8125 22.9746V15.0117C4.8125 14.4992 5.2375 14.0742 5.75 14.0742C6.2625 14.0742 6.6875 14.4992 6.6875 15.0117V22.9746C6.6875 27.6246 7.6 29.5621 13.25 29.5621H20.75C21.2625 29.5621 21.6875 29.9871 21.6875 30.4996C21.6875 31.0121 21.2625 31.4371 20.75 31.4371Z" fill="white"/>
<path d="M20.75 31.4375C20.625 31.4375 20.5125 31.4125 20.3875 31.3625C20.0375 31.2125 19.8125 30.875 19.8125 30.5V26.75C19.8125 23.725 21.475 22.0625 24.5 22.0625H28.25C28.625 22.0625 28.975 22.2875 29.1125 22.6375C29.25 22.9875 29.175 23.3875 28.9125 23.6625L21.4125 31.1625C21.2375 31.3375 20.9875 31.4375 20.75 31.4375ZM24.5 23.9375C22.525 23.9375 21.6875 24.775 21.6875 26.75V28.2375L25.9875 23.9375H24.5Z" fill="white"/>
<path d="M7.4974 13.2709C4.03823 13.2709 1.22656 10.4592 1.22656 7.00008C1.22656 3.54091 4.03823 0.729248 7.4974 0.729248C10.9566 0.729248 13.7682 3.54091 13.7682 7.00008C13.7682 10.4592 10.9566 13.2709 7.4974 13.2709ZM7.4974 1.60425C4.5224 1.60425 2.10156 4.02508 2.10156 7.00008C2.10156 9.97508 4.5224 12.3959 7.4974 12.3959C10.4724 12.3959 12.8932 9.97508 12.8932 7.00008C12.8932 4.02508 10.4724 1.60425 7.4974 1.60425Z" fill="white"/>
<path d="M6.67281 9.08827C6.55615 9.08827 6.44531 9.0416 6.36365 8.95993L4.71281 7.3091C4.54365 7.13993 4.54365 6.85993 4.71281 6.69077C4.88198 6.5216 5.16198 6.5216 5.33115 6.69077L6.67281 8.03243L9.67115 5.0341C9.84031 4.86493 10.1203 4.86493 10.2895 5.0341C10.4586 5.20327 10.4586 5.48327 10.2895 5.65243L6.98198 8.95993C6.90031 9.0416 6.78948 9.08827 6.67281 9.08827Z" fill="white"/>
</svg>
