<svg width="47" height="47" viewBox="0 0 47 47" fill="none" xmlns="http://www.w3.org/2000/svg">
<path fill-rule="evenodd" clip-rule="evenodd" d="M22.4644 29.6147L28.3396 32.9274C29.0894 33.3518 29.5509 34.1335 29.5509 34.9791C29.5509 35.8248 29.0894 36.6065 28.3396 37.0308L22.4644 40.3436C21.712 40.7674 20.7849 40.7673 20.0326 40.3432C19.2803 39.9191 18.8172 39.1356 18.8177 38.2879V31.6703C18.8172 30.8226 19.2803 30.0391 20.0326 29.615C20.7849 29.191 21.712 29.1908 22.4644 29.6147ZM21.7351 39.1102L27.6103 35.8053C27.9126 35.637 28.0984 35.3227 28.0965 34.9831C28.0997 34.6411 27.9139 34.3239 27.6103 34.1529L21.7351 30.848C21.5881 30.7619 21.4203 30.7155 21.2489 30.7136C20.7073 30.7136 20.2683 31.142 20.2683 31.6703V38.2879C20.2683 38.5417 20.3716 38.785 20.5555 38.9644C20.7394 39.1438 20.9888 39.2446 21.2489 39.2446C21.4203 39.2428 21.5881 39.1964 21.7351 39.1102Z" fill="black"/>
<path d="M8.68298 25.0391L11.9077 18.7586" stroke="black" stroke-width="1.5"/>
<path d="M17.4357 25.0391L21.121 18.7581" stroke="black" stroke-width="1.5"/>
<path d="M27.1099 25.0391L30.7952 18.7581" stroke="black" stroke-width="1.5"/>
<path d="M36.3231 25.6087L39.5478 18.7568" stroke="black" stroke-width="1.5"/>
<path d="M3 20.7461C3 19.9177 3.67157 19.2461 4.5 19.2461H43.4732C44.3016 19.2461 44.9732 19.9177 44.9732 20.7461V38.4194C44.9732 42.2854 41.8392 45.4194 37.9732 45.4194H10C6.13401 45.4194 3 42.2854 3 38.4194V20.7461Z" stroke="black" stroke-width="2"/>
<line x1="2.67529" y1="25.3711" x2="46.0774" y2="25.3711" stroke="black" stroke-width="2"/>
<rect x="21" y="44" width="7" height="3" rx="1.5" fill="white"/>
<ellipse cx="24.5" cy="45.5" rx="0.5" ry="0.5" fill="black"/>
<path d="M2.47447 15.5495C1.99615 13.3636 3.40402 11.2104 5.5983 10.772L39.7562 3.94722C41.9225 3.51439 44.0295 4.91966 44.4624 7.08598L44.9964 9.7588L3.15195 18.6456L2.47447 15.5495Z" stroke="black" stroke-width="2"/>
<path d="M5.8032 9.94662L12.3079 16.4512" stroke="black" stroke-width="1.5"/>
<path d="M15.735 8.05835L22.1844 14.508" stroke="black" stroke-width="1.5"/>
<path d="M24.839 6.36398L30.7045 12.7897" stroke="black" stroke-width="1.5"/>
<path d="M34.3309 4.76953L40.3665 11.3816" stroke="black" stroke-width="1.5"/>
</svg>
