<svg width="30" height="30" viewBox="0 0 30 30" fill="none" xmlns="http://www.w3.org/2000/svg">
<path d="M8.60156 23.6251C8.08906 23.6251 7.66406 23.2001 7.66406 22.6876V20.1001C7.66406 19.5876 8.08906 19.1626 8.60156 19.1626C9.11406 19.1626 9.53906 19.5876 9.53906 20.1001V22.6876C9.53906 23.2126 9.11406 23.6251 8.60156 23.6251Z" fill="#363636"/>
<path d="M15 23.625C14.4875 23.625 14.0625 23.2 14.0625 22.6875V17.5C14.0625 16.9875 14.4875 16.5625 15 16.5625C15.5125 16.5625 15.9375 16.9875 15.9375 17.5V22.6875C15.9375 23.2125 15.5125 23.625 15 23.625Z" fill="#363636"/>
<path d="M21.3984 23.6246C20.8859 23.6246 20.4609 23.1996 20.4609 22.6871V14.9121C20.4609 14.3996 20.8859 13.9746 21.3984 13.9746C21.9109 13.9746 22.3359 14.3996 22.3359 14.9121V22.6871C22.3359 23.2121 21.9234 23.6246 21.3984 23.6246Z" fill="#363636"/>
<path d="M8.60485 16.4743C8.17985 16.4743 7.80485 16.1868 7.69235 15.7618C7.56735 15.2618 7.86735 14.7493 8.37985 14.6243C12.9799 13.4743 17.0299 10.9618 20.1174 7.37429L20.6924 6.69929C21.0299 6.31179 21.6174 6.26179 22.0174 6.59929C22.4049 6.93679 22.4549 7.52429 22.1174 7.92429L21.5424 8.59929C18.2049 12.4993 13.8049 15.2118 8.82985 16.4493C8.75485 16.4743 8.67985 16.4743 8.60485 16.4743Z" fill="#363636"/>
<path d="M21.4047 11.8995C20.8922 11.8995 20.4672 11.4745 20.4672 10.962V8.24951H17.7422C17.2297 8.24951 16.8047 7.82451 16.8047 7.31201C16.8047 6.79951 17.2297 6.37451 17.7422 6.37451H21.4047C21.9172 6.37451 22.3422 6.79951 22.3422 7.31201V10.9745C22.3422 11.487 21.9297 11.8995 21.4047 11.8995Z" fill="#363636"/>
<path d="M18.75 28.4375H11.25C4.4625 28.4375 1.5625 25.5375 1.5625 18.75V11.25C1.5625 4.4625 4.4625 1.5625 11.25 1.5625H18.75C25.5375 1.5625 28.4375 4.4625 28.4375 11.25V18.75C28.4375 25.5375 25.5375 28.4375 18.75 28.4375ZM11.25 3.4375C5.4875 3.4375 3.4375 5.4875 3.4375 11.25V18.75C3.4375 24.5125 5.4875 26.5625 11.25 26.5625H18.75C24.5125 26.5625 26.5625 24.5125 26.5625 18.75V11.25C26.5625 5.4875 24.5125 3.4375 18.75 3.4375H11.25Z" fill="#363636"/>
</svg>
