<svg width="16" height="17" viewBox="0 0 16 17" fill="none" xmlns="http://www.w3.org/2000/svg">
<path d="M13.8453 13.6367L10.873 10.6613C11.5762 9.79865 12.0002 8.70066 12.0002 7.5022C12.0002 4.74498 9.75802 2.5 6.99885 2.5C4.23968 2.5 2 4.74498 2 7.5022C2 10.2594 4.24213 12.5019 7.0013 12.5019C8.1971 12.5019 9.29734 12.0779 10.1599 11.3745L13.1322 14.3474C13.3356 14.5509 13.6444 14.5509 13.8478 14.3474C14.0512 14.144 14.0512 13.8401 13.8453 13.6367ZM2.99732 7.5022C2.99732 5.29397 4.79102 3.49995 6.99885 3.49995C9.20668 3.49995 11.0028 5.29643 11.0028 7.50465C11.0028 9.71287 9.20668 11.5093 6.99885 11.5093C4.79102 11.5093 2.99732 9.71042 2.99732 7.5022Z" fill="#363636"/>
</svg>
