<svg width="16" height="16" viewBox="0 0 16 16" fill="none" xmlns="http://www.w3.org/2000/svg">
<path d="M13.8453 13.1367L10.873 10.1613C11.5762 9.29865 12.0002 8.20066 12.0002 7.0022C12.0002 4.24498 9.75802 2 6.99885 2C4.23968 2 2 4.24498 2 7.0022C2 9.75941 4.24213 12.0019 7.0013 12.0019C8.1971 12.0019 9.29734 11.5779 10.1599 10.8745L13.1322 13.8474C13.3356 14.0509 13.6444 14.0509 13.8478 13.8474C14.0512 13.644 14.0512 13.3401 13.8453 13.1367ZM2.99732 7.0022C2.99732 4.79397 4.79102 2.99995 6.99885 2.99995C9.20668 2.99995 11.0028 4.79643 11.0028 7.00465C11.0028 9.21287 9.20668 11.0093 6.99885 11.0093C4.79102 11.0093 2.99732 9.21042 2.99732 7.0022Z" fill="#363636"/>
</svg>
