<svg width="20" height="20" viewBox="0 0 20 20" fill="none" xmlns="http://www.w3.org/2000/svg">
<path d="M17.0846 13.3333V15.4167C17.0846 17.025 15.7763 18.3333 14.168 18.3333H5.83464C4.2263 18.3333 2.91797 17.025 2.91797 15.4167V14.875C2.91797 13.5667 3.98464 12.5 5.29297 12.5H16.2513C16.7096 12.5 17.0846 12.875 17.0846 13.3333Z" fill="#2E9CB7"/>
<path d="M12.918 1.66602H7.08464C3.7513 1.66602 2.91797 2.49935 2.91797 5.83268V12.1493C3.5513 11.591 4.38464 11.2493 5.29297 11.2493H16.2513C16.7096 11.2493 17.0846 10.8743 17.0846 10.416V5.83268C17.0846 2.49935 16.2513 1.66602 12.918 1.66602ZM10.8346 8.95768H6.66797C6.3263 8.95768 6.04297 8.67435 6.04297 8.33268C6.04297 7.99101 6.3263 7.70768 6.66797 7.70768H10.8346C11.1763 7.70768 11.4596 7.99101 11.4596 8.33268C11.4596 8.67435 11.1763 8.95768 10.8346 8.95768ZM13.3346 6.04102H6.66797C6.3263 6.04102 6.04297 5.75768 6.04297 5.41602C6.04297 5.07435 6.3263 4.79102 6.66797 4.79102H13.3346C13.6763 4.79102 13.9596 5.07435 13.9596 5.41602C13.9596 5.75768 13.6763 6.04102 13.3346 6.04102Z" fill="#2E9CB7"/>
</svg>
