<svg width="24" height="25" viewBox="0 0 24 25" fill="none" xmlns="http://www.w3.org/2000/svg">
<path d="M11.9984 23.2595C10.9084 23.2595 9.82844 22.9395 8.97844 22.3095L4.67844 19.0995C3.53844 18.2495 2.64844 16.4695 2.64844 15.0595V7.61945C2.64844 6.07945 3.77844 4.43945 5.22844 3.89945L10.2184 2.02945C11.2084 1.65945 12.7684 1.65945 13.7584 2.02945L18.7484 3.89945C20.1984 4.43945 21.3284 6.07945 21.3284 7.61945V15.0495C21.3284 16.4695 20.4384 18.2395 19.2984 19.0895L14.9984 22.2995C14.1684 22.9395 13.0884 23.2595 11.9984 23.2595ZM10.7484 3.43945L5.75844 5.30945C4.90844 5.62945 4.15844 6.70945 4.15844 7.62945V15.0595C4.15844 16.0095 4.82844 17.3395 5.57844 17.8995L9.87844 21.1095C11.0284 21.9695 12.9684 21.9695 14.1284 21.1095L18.4284 17.8995C19.1884 17.3295 19.8484 16.0095 19.8484 15.0595V7.61945C19.8484 6.70945 19.0984 5.62945 18.2484 5.29945L13.2584 3.42945C12.5784 3.18945 11.4184 3.18945 10.7484 3.43945Z" fill="#026985"/>
<path d="M10.6583 14.7291C10.4683 14.7291 10.2783 14.6591 10.1283 14.5091L8.51828 12.8991C8.22828 12.6091 8.22828 12.1291 8.51828 11.8391C8.80828 11.5491 9.28828 11.5491 9.57828 11.8391L10.6583 12.9191L14.4283 9.14914C14.7183 8.85914 15.1983 8.85914 15.4883 9.14914C15.7783 9.43914 15.7783 9.91914 15.4883 10.2091L11.1883 14.5091C11.0383 14.6591 10.8483 14.7291 10.6583 14.7291Z" fill="#026985"/>
</svg>
