<svg width="24" height="25" viewBox="0 0 24 25" fill="none" xmlns="http://www.w3.org/2000/svg">
<path d="M12 20.25C11.59 20.25 11.25 19.91 11.25 19.5V17.5C11.25 17.09 11.59 16.75 12 16.75C12.41 16.75 12.75 17.09 12.75 17.5V19.5C12.75 19.91 12.41 20.25 12 20.25Z" fill="#363636"/>
<path d="M12 15.25C11.59 15.25 11.25 14.91 11.25 14.5V11.5C11.25 7.23 14.73 3.75 19 3.75H22C22.41 3.75 22.75 4.09 22.75 4.5C22.75 4.91 22.41 5.25 22 5.25H19C15.55 5.25 12.75 8.05 12.75 11.5V14.5C12.75 14.91 12.41 15.25 12 15.25Z" fill="#363636"/>
<path d="M20.0014 7.24945C19.8114 7.24945 19.6214 7.17945 19.4714 7.02945C19.1814 6.73945 19.1814 6.25945 19.4714 5.96945L20.9414 4.49945L19.4714 3.02945C19.1814 2.73945 19.1814 2.25945 19.4714 1.96945C19.7614 1.67945 20.2415 1.67945 20.5315 1.96945L22.5315 3.96945C22.8215 4.25945 22.8215 4.73945 22.5315 5.02945L20.5315 7.02945C20.3815 7.17945 20.1914 7.24945 20.0014 7.24945Z" fill="#363636"/>
</svg>
