<svg width="73" height="73" viewBox="0 0 73 73" fill="none" xmlns="http://www.w3.org/2000/svg">
<g clip-path="url(#clip0_265_16063)">
<path d="M49.0344 15.4055H53.6763C54.2519 15.4055 54.7153 14.9335 54.7153 14.3547C54.7153 13.7759 54.2519 13.304 53.6763 13.304H49.0344C48.4588 13.304 47.9954 13.7759 47.9954 14.3547C47.9954 14.9335 48.4588 15.4055 49.0344 15.4055Z" fill="white" stroke="white" stroke-width="0.267066"/>
<path d="M26.0619 61.4163V57.6644H45.2319V61.4163V61.4164C45.2321 61.6422 45.3039 61.8622 45.4377 62.0437C45.4377 62.0437 45.4377 62.0438 45.4377 62.0438L46.9319 64.0733H24.362L25.8562 62.0438C25.8562 62.0438 25.8562 62.0437 25.8563 62.0437C25.99 61.8622 26.0619 61.6422 26.0619 61.4163ZM62.0473 13.304H57.5363C56.9608 13.304 56.4973 13.7759 56.4973 14.3547C56.4973 14.9335 56.9608 15.4055 57.5363 15.4055H62.0473C63.3777 15.4055 64.4631 16.5025 64.4631 17.8544V50.1577H15.9033C15.3278 50.1577 14.8643 50.6297 14.8643 51.2084C14.8643 51.7872 15.3278 52.2592 15.9033 52.2592H64.4633V53.1138C64.4633 54.4657 63.3777 55.5628 62.0474 55.5628H9.12593C7.79555 55.5628 6.71007 54.4656 6.71007 53.1138V52.2592H12.0446C12.6202 52.2592 13.0836 51.7872 13.0836 51.2084C13.0836 50.6297 12.6202 50.1577 12.0446 50.1577H6.71007V17.8546C6.71007 16.5026 7.79566 15.4056 9.12593 15.4056H22.1377C22.7132 15.4056 23.1766 14.9336 23.1766 14.3548C23.1766 13.776 22.7132 13.3041 22.1377 13.3041H9.12593C6.64628 13.3041 4.63209 15.3469 4.63209 17.8546V53.1138C4.63209 55.6214 6.64628 57.6643 9.12593 57.6643H23.9841V61.0681L21.7716 64.0733H20.7458C20.1703 64.0733 19.7068 64.5452 19.7068 65.124C19.7068 65.7028 20.1703 66.1748 20.7458 66.1748H50.6801C51.2556 66.1748 51.7191 65.7028 51.7191 65.124C51.7191 64.5452 51.2556 64.0733 50.6801 64.0733H49.5226L47.3101 61.0681V57.6643H62.0475C64.5272 57.6643 66.5414 55.6214 66.5414 53.1138V17.8546C66.5411 15.3469 64.5269 13.304 62.0473 13.304Z" fill="white" stroke="white" stroke-width="0.267066"/>
<path d="M35.588 25.3598C41.5814 25.3598 46.4541 20.4212 46.4541 14.3543C46.4541 8.28743 41.5813 3.34889 35.588 3.34889C29.5947 3.34889 24.7219 8.28743 24.7219 14.3542C24.7218 20.4212 29.5946 25.3598 35.588 25.3598ZM35.588 5.45038C40.432 5.45038 44.3761 9.44305 44.3761 14.3542C44.3761 19.2654 40.432 23.2582 35.588 23.2582C30.744 23.2582 26.7999 19.2654 26.7999 14.3542C26.7999 9.44305 30.744 5.45038 35.588 5.45038Z" fill="white" stroke="white" stroke-width="0.267066"/>
<path d="M33.6871 19.0013L33.6872 19.0013C33.8855 19.1839 34.1361 19.2751 34.3865 19.2751C34.6474 19.2751 34.9081 19.1761 35.109 18.9797L35.109 18.9797L41.5476 12.6822L41.5476 12.6822C41.9595 12.2793 41.9711 11.615 41.5734 11.1977L41.5733 11.1977C41.1746 10.7796 40.5162 10.7677 40.1031 11.1716L40.103 11.1716L34.3654 16.7836L32.6441 15.1984L32.6441 15.1984C32.2195 14.8074 31.5613 14.8388 31.1751 15.2692C30.7901 15.6982 30.821 16.362 31.2451 16.7523L33.6871 19.0013Z" fill="white" stroke="white" stroke-width="0.267066"/>
<path d="M18.8737 31.0226H44.3471C44.9226 31.0226 45.3861 30.5507 45.3861 29.9719C45.3861 29.3931 44.9226 28.9212 44.3471 28.9212H18.8737C17.4979 28.9212 16.3821 30.0543 16.3821 31.4435V36.8633C16.3821 38.2527 17.4981 39.3857 18.8737 39.3857H33.75C34.3256 39.3857 34.789 38.9137 34.789 38.3349C34.789 37.7561 34.3256 37.2842 33.75 37.2842H18.8737C18.6474 37.2842 18.4601 37.097 18.4601 36.8633V31.4435C18.4601 31.2099 18.6474 31.0226 18.8737 31.0226Z" fill="white" stroke="white" stroke-width="0.267066"/>
<path d="M48.2062 31.0226H52.299C52.5253 31.0226 52.7126 31.2098 52.7126 31.4435V36.8633C52.7126 37.097 52.5253 37.2842 52.299 37.2842H48.8393C48.2638 37.2842 47.8003 37.7561 47.8003 38.3349C47.8003 38.9137 48.2638 39.3857 48.8393 39.3857H52.299C53.6747 39.3857 54.7906 38.2526 54.7906 36.8633V31.4435C54.7906 30.0541 53.6746 28.9212 52.299 28.9212H48.2062C47.6307 28.9212 47.1672 29.3931 47.1672 29.9719C47.1672 30.5507 47.6307 31.0226 48.2062 31.0226Z" fill="white" stroke="white" stroke-width="0.267066"/>
<path d="M45.3064 37.9567L45.3064 37.9567C45.8917 38.1456 46.3106 38.6458 46.4002 39.2592C46.4898 39.8724 46.2317 40.4734 45.7261 40.8253L45.7261 40.8253L44.4833 41.6903L46.069 44.028L45.9585 44.1029L46.069 44.028C46.5567 44.7469 46.3766 45.7339 45.6658 46.229L45.6657 46.229L43.4851 47.7467C43.485 47.7467 43.485 47.7467 43.485 47.7467C43.2216 47.9301 42.9153 48.026 42.6011 48.026C42.5052 48.026 42.4086 48.0172 42.3124 47.999M45.3064 37.9567L37.0926 35.9625C36.6837 36.247 36.4328 36.6982 36.4039 37.1985L36.4039 37.1985L35.9864 44.4422L35.9864 44.4422C35.9508 45.0611 36.2602 45.6367 36.7948 45.9421L36.7948 45.9421C37.3297 46.2477 37.9776 46.2184 38.4835 45.8666L38.4836 45.8666L39.7238 45.0033L41.3075 47.3381C41.5438 47.6866 41.9009 47.9218 42.3124 47.999M45.3064 37.9567L38.4815 35.7543M45.3064 37.9567L38.4815 35.7543M42.3124 47.999C42.3123 47.999 42.3123 47.999 42.3123 47.999L42.3371 47.8678L42.3124 47.999C42.3124 47.999 42.3124 47.999 42.3124 47.999ZM42.7303 45.7209L40.8485 42.9468L40.8485 42.9467C40.6927 42.717 40.453 42.559 40.1815 42.508C40.1183 42.4961 40.0549 42.4904 39.9918 42.4904C39.7828 42.4904 39.5771 42.5542 39.4028 42.6755L39.4028 42.6755L38.1181 43.5697L38.4422 37.9476L43.7392 39.6569L42.4504 40.554L42.4504 40.554C42.2233 40.7121 42.0679 40.9547 42.0179 41.2283C42.0179 41.2283 42.0179 41.2283 42.0179 41.2283L42.1492 41.2523M42.7303 45.7209L42.1826 42.0139L42.2931 41.9389M42.7303 45.7209L44.0664 44.791M42.7303 45.7209L44.0664 44.791M42.1492 41.2523C42.1054 41.4914 42.1572 41.7386 42.2931 41.9389M42.1492 41.2523C42.1929 41.0131 42.3287 40.8014 42.5267 40.6636L42.1492 41.2523ZM42.2931 41.9389L42.1826 42.0139L44.0664 44.791M42.2931 41.9389L44.251 44.8252M44.251 44.8252L44.1747 44.7156L44.0664 44.791M44.251 44.8252L44.1404 44.9002L44.0664 44.791M44.251 44.8252L44.0664 44.791M38.4815 35.7543C38.0082 35.6013 37.5012 35.6779 37.0926 35.9624L38.4815 35.7543Z" fill="white" stroke="white" stroke-width="0.267066"/>
</g>
<defs>
<clipPath id="clip0_265_16063">
<rect width="61.7564" height="63.7791" fill="white" transform="translate(4.70703 2.26172)"/>
</clipPath>
</defs>
</svg>
