<svg width="73" height="72" viewBox="0 0 73 72" fill="none" xmlns="http://www.w3.org/2000/svg">
<path d="M35.7034 37.3359C50.2312 37.3359 62.0052 49.2269 62.0052 63.8916C62.0052 64.9614 61.1438 65.8283 60.0808 65.8283H11.3268C10.2643 65.8283 9.40234 64.9614 9.40234 63.8916C9.40234 49.2274 21.1766 37.3359 35.7042 37.3359H35.7034ZM35.7034 41.2094C23.9688 41.2094 14.3349 50.3042 13.3366 61.8991L13.3308 61.9544H58.0738L58.0034 61.2329C56.7256 50.1743 47.5743 41.5466 36.3654 41.218L35.7034 41.2094ZM35.7034 5.14258C42.9815 5.14258 48.8793 11.0986 48.8793 18.4421C48.8793 25.7855 42.9816 31.7415 35.7034 31.7415C28.4256 31.7415 22.5279 25.7855 22.5279 18.4421C22.5279 11.0986 28.4256 5.14258 35.7034 5.14258ZM35.7034 9.01659C30.5543 9.01659 26.3768 13.2351 26.3768 18.4421C26.3768 23.6494 30.5543 27.8681 35.7034 27.8681C40.8529 27.8681 45.0299 23.6496 45.0299 18.4421C45.0299 13.2352 40.8529 9.01659 35.7034 9.01659Z" fill="white"/>
</svg>
