<svg width="74" height="73" viewBox="0 0 74 73" fill="none" xmlns="http://www.w3.org/2000/svg">
<path d="M62.518 14.2686C59.2436 13.1469 56.6206 10.5163 55.5008 7.23167C54.7887 5.14306 52.8281 3.74023 50.6213 3.74023H22.1885C19.9822 3.74023 18.0211 5.14306 17.309 7.23167C16.1892 10.5163 13.5662 13.1469 10.2918 14.2686C8.20835 14.9827 6.80859 16.9438 6.80859 19.149V26.3218C6.80859 35.6819 9.62104 44.6944 14.9421 52.3853C19.8107 59.4223 26.5196 64.9289 34.3443 68.3108C34.9992 68.5939 35.7018 68.7353 36.4049 68.7353C37.1075 68.7353 37.8101 68.5939 38.465 68.3108C46.2898 64.9294 52.9986 59.4223 57.8672 52.3853C63.1883 44.6944 66.0012 35.6814 66.0012 26.3218V19.149C66.0012 16.9438 64.6015 14.9827 62.518 14.2686ZM62.1824 26.3218C62.1824 34.9053 59.6031 43.17 54.7236 50.2228C50.2618 56.6722 44.1143 61.7187 36.9464 64.8164C36.6028 64.9651 36.2075 64.9656 35.8629 64.8164C28.6946 61.7187 22.5476 56.6722 18.0857 50.2228C13.2067 43.1705 10.6275 34.9058 10.6275 26.3218V19.149C10.6275 18.5698 10.9915 18.0561 11.533 17.8706C15.9162 16.3686 19.4273 12.8499 20.9245 8.45747C21.11 7.91399 21.6177 7.54854 22.1885 7.54854H50.6213C51.1916 7.54854 51.6998 7.91399 51.8853 8.45747C53.3825 12.8499 56.8936 16.3686 61.2769 17.8706C61.8184 18.0561 62.1824 18.5698 62.1824 19.149V26.3218Z" fill="white"/>
<path d="M44.5167 28.4295H44.387V23.0067C44.387 18.6167 40.8053 15.0449 36.4031 15.0449C32.001 15.0449 28.4193 18.6167 28.4193 23.0067V28.4295H28.2895C25.754 28.4295 23.6914 30.4869 23.6914 33.0153V43.9741C23.6914 48.6829 27.5332 52.5145 32.2545 52.5145H40.5517C45.2735 52.5145 49.1148 48.6829 49.1148 43.9741V33.0153C49.1148 30.4869 47.0522 28.4295 44.5167 28.4295ZM32.2381 23.0067C32.2381 20.7167 34.1068 18.8532 36.4031 18.8532C38.6994 18.8532 40.5681 20.7167 40.5681 23.0067V28.43H32.2381V23.0067ZM45.2959 43.9741C45.2959 46.5834 43.1677 48.7057 40.5517 48.7057H32.2545C29.6385 48.7057 27.5103 46.5834 27.5103 43.9741V33.0153C27.5103 32.5869 27.8599 32.2383 28.2895 32.2383H44.5167C44.9464 32.2383 45.2959 32.5869 45.2959 33.0153V43.9741Z" fill="white"/>
<path d="M36.4055 36.7695C35.3509 36.7695 34.4961 37.6219 34.4961 38.6737V42.2712C34.4961 43.323 35.3509 44.1754 36.4055 44.1754C37.4602 44.1754 38.315 43.323 38.315 42.2712V38.6737C38.315 37.6219 37.4602 36.7695 36.4055 36.7695Z" fill="white"/>
</svg>
