<svg width="64" height="64" viewBox="0 0 64 64" fill="none" xmlns="http://www.w3.org/2000/svg">
<path d="M33.6249 0.628906H39.6162V3.61654H36.6203V6.60364H30.6281V15.568H24.6367V12.5798H27.6321V3.61654H33.6249V0.628906Z" fill="white"/>
<path d="M0.667969 0.628906V21.5427H21.6399V0.628906H0.667969ZM18.6428 18.5539H3.66377V3.61641H18.6441L18.6428 18.5539Z" fill="white"/>
<path d="M42.6133 0.628906V21.5427H63.5852V0.628906H42.6133ZM60.5881 18.5539H45.6091V3.61641H60.5894V18.5539H60.5881Z" fill="white"/>
<path d="M6.66016 6.60352H15.6483V15.5668H6.66016V6.60352Z" fill="white"/>
<path d="M48.6016 6.60352H57.5898V15.5668H48.6016V6.60352Z" fill="white"/>
<path d="M33.625 9.59375H36.6209V12.5814H33.625V9.59375Z" fill="white"/>
<path d="M36.6213 12.5801H39.6172V24.531H36.6213V18.5548H33.6259V21.5435H30.6289V15.5682H36.6212L36.6213 12.5801Z" fill="white"/>
<path d="M24.6372 18.5547H27.6326V21.5434H30.6285V24.531H27.6326V30.5058H30.6285V27.5181H33.6255V24.531H36.6209V33.4943H30.6287V36.4814H27.6327V33.4943H24.6373V27.5181H18.6445V24.531H24.6373L24.6372 18.5547Z" fill="white"/>
<path d="M6.66016 24.5312H12.6515V27.5199H6.66016V24.5312Z" fill="white"/>
<path d="M39.6173 24.5312H45.6096V27.5184H42.6142V30.506H39.6172L39.6173 24.5312Z" fill="white"/>
<path d="M48.6016 24.5312H51.5986V27.5199H48.6016V24.5312Z" fill="white"/>
<path d="M0.667969 27.5176H6.6593V30.5052H9.65629V33.4939H6.6593V36.481H3.6639V30.5053H0.667969V27.5176Z" fill="white"/>
<path d="M12.6523 27.5176H18.6437V30.5052H15.6483V33.4939H18.6437V36.481H12.6523V27.5176Z" fill="white"/>
<path d="M51.6011 27.5176H54.5981V30.5052H57.5935V39.4685H54.5981V36.4809H48.6042V39.4685H45.6094V33.4938H51.6012L51.6011 27.5176Z" fill="white"/>
<path d="M18.6445 30.5059H21.6405V33.4946H18.6445V30.5059Z" fill="white"/>
<path d="M60.5859 30.5059H63.5829V33.4946H60.5859V30.5059Z" fill="white"/>
<path d="M21.6414 33.4941H24.6373V39.4689H18.6445V36.4812H21.6415L21.6414 33.4941Z" fill="white"/>
<path d="M36.6211 33.4941H39.6181V36.4818H36.6211V33.4941Z" fill="white"/>
<path d="M0.667969 36.4824H3.6639V39.4711H0.667969V36.4824Z" fill="white"/>
<path d="M6.66016 36.4824H9.65609V39.4711H6.66016V36.4824Z" fill="white"/>
<path d="M30.6282 36.4824H36.6204V39.4701H33.625V45.4457H30.6281V51.421H27.6321V45.4457H24.6367V39.4701H27.6321V42.4577H30.6281L30.6282 36.4824Z" fill="white"/>
<path d="M39.6172 36.4824H42.6142V39.4711H39.6172V36.4824Z" fill="white"/>
<path d="M60.5859 36.4824H63.5829V39.4711H60.5859V36.4824Z" fill="white"/>
<path d="M36.6211 39.4688H39.6181V45.4435H36.6211V39.4688Z" fill="white"/>
<path d="M51.6016 39.4688H54.5986V45.4435H51.6016V39.4688Z" fill="white"/>
<path d="M57.5938 39.4688H60.5897V42.4564H57.5938V39.4688Z" fill="white"/>
<path d="M45.606 42.457H48.6008V45.4452H51.5978V51.4205H60.5849V54.4081H48.6008V60.3828H45.606V54.4081H42.6106V57.3963H39.6136V60.3828H42.6106V63.3715H27.6289V60.3828H36.6171V54.4081H39.613V45.4453H45.6053L45.606 42.457Z" fill="white"/>
<path d="M0.667969 42.457V63.3709H21.6399V42.457H0.667969ZM18.6428 60.382H3.66377V45.4445H18.6441L18.6428 60.382Z" fill="white"/>
<path d="M33.625 45.4434H36.6209V48.431H33.625V45.4434Z" fill="white"/>
<path d="M54.5977 45.4434H60.5885V48.431H54.5977V45.4434Z" fill="white"/>
<path d="M6.66016 48.4316H15.6483V57.3949H6.66016V48.4316Z" fill="white"/>
<path d="M60.5859 48.4316H63.5829V51.4203H60.5859V48.4316Z" fill="white"/>
<path d="M24.6367 51.4199H27.6321V54.4076H30.6281V57.3957H24.6367V51.4199Z" fill="white"/>
<path d="M30.6289 51.4199H36.6202V54.4076H30.6289V51.4199Z" fill="white"/>
<path d="M54.5977 57.3965H57.5936V60.3841H54.5977V57.3965Z" fill="white"/>
<path d="M60.5859 57.3965H63.5829V60.3841H60.5859V57.3965Z" fill="white"/>
<path d="M48.6016 60.3809H51.5986V63.3696H48.6016V60.3809Z" fill="white"/>
</svg>
