<svg width="64" height="64" viewBox="0 0 64 64" fill="none" xmlns="http://www.w3.org/2000/svg">
<path d="M31.6988 0.876953C14.3116 0.876953 0.240234 14.9079 0.240234 32.2484C0.240234 49.5875 14.3102 63.6198 31.6988 63.6198C49.0861 63.6198 63.1574 49.5888 63.1574 32.2484C63.1574 14.9093 49.0874 0.876953 31.6988 0.876953ZM19.5266 7.34155C18.5746 9.92712 17.7754 12.5555 17.1304 15.2206C15.2452 14.6494 13.3908 13.9645 11.5707 13.1665C13.8753 10.752 16.5608 8.78598 19.5266 7.34155ZM9.12949 16.1019C11.4853 17.1899 13.8963 18.0994 16.3554 18.8289C15.6419 22.6269 15.2339 26.4926 15.1371 30.4102H3.98847C4.32801 25.2093 6.10529 20.2868 9.12949 16.1019ZM9.12949 48.3949C6.10529 44.21 4.32801 39.2875 3.98847 34.0866H15.1371C15.2339 38.0042 15.6419 41.8699 16.3554 45.6679C13.8963 46.3974 11.4854 47.3069 9.12949 48.3949ZM11.5707 51.3304C13.3908 50.5323 15.2451 49.8474 17.1304 49.2763C17.7756 51.9414 18.5746 54.5698 19.5266 57.1553C16.5623 55.7116 13.8765 53.746 11.5707 51.3304ZM29.8555 59.882C27.9196 59.7563 26.0219 59.4341 24.1862 58.923C22.7282 55.4771 21.5645 51.9439 20.6965 48.3397C23.6849 47.6734 26.7424 47.2839 29.8555 47.1737V59.882ZM29.8555 43.4952C26.4826 43.6063 23.17 44.023 19.9324 44.7421C19.2893 41.246 18.9186 37.6896 18.8249 34.0866H29.8555V43.4952ZM29.8555 30.4102H18.8249C18.9186 26.8072 19.2893 23.2508 19.9324 19.7547C23.17 20.4738 26.4826 20.8905 29.8555 21.0016V30.4102ZM29.8555 17.3231C26.7424 17.2129 23.6849 16.8233 20.6965 16.157C21.5645 12.5529 22.7282 9.01968 24.1862 5.57372C26.0219 5.06271 27.9196 4.74042 29.8555 4.61481V17.3231ZM54.2681 16.1019C57.2923 20.2868 59.0696 25.2093 59.4091 30.4102H48.2605C48.1637 26.4926 47.7557 22.6269 47.0422 18.8289C49.5013 18.0994 51.9122 17.1899 54.2681 16.1019ZM51.8269 13.1663C50.0068 13.9645 48.1525 14.6494 46.2672 15.2204C45.6221 12.5553 44.823 9.927 43.8711 7.34143C46.8353 8.78513 49.5211 10.7507 51.8269 13.1663ZM33.5421 4.61481C35.478 4.74042 37.3757 5.06271 39.2114 5.57372C40.6694 9.01968 41.8331 12.5529 42.7011 16.157C39.7128 16.8233 36.6553 17.2129 33.5421 17.3231V4.61481ZM33.5421 21.0016C36.915 20.8905 40.2276 20.4738 43.4652 19.7547C44.1084 23.2508 44.479 26.8072 44.5727 30.4102H33.5421V21.0016ZM39.2113 58.9229C37.3757 59.4341 35.478 59.7563 33.5421 59.882V47.1737C36.6553 47.2839 39.7128 47.6734 42.7011 48.3397C41.833 51.9439 40.6694 55.4771 39.2113 58.9229ZM33.5421 43.4952V34.0866H44.5727C44.479 37.6896 44.1084 41.246 43.4652 44.7421C40.2276 44.023 36.915 43.6063 33.5421 43.4952ZM43.8711 57.1552C44.823 54.5696 45.6222 51.9413 46.2672 49.2762C48.1524 49.8474 50.0068 50.5323 51.8269 51.3303C49.5223 53.7448 46.8368 55.7108 43.8711 57.1552ZM54.2681 48.3949C51.9123 47.3069 49.5013 46.3974 47.0422 45.6679C47.7557 41.8699 48.1637 38.0042 48.2605 34.0866H59.4091C59.0696 39.2875 57.2923 44.21 54.2681 48.3949Z" fill="white"/>
</svg>
