<svg width="24" height="18" viewBox="0 0 24 18" fill="none" xmlns="http://www.w3.org/2000/svg">
<path d="M12.5989 2.80905C7.98481 -2.5313 0.969114 0.455046 0.07805 5.82516C-0.560215 9.65002 2.83481 13.2251 5.93003 16C5.93839 15.9989 5.9457 15.9979 5.95406 15.9968C-3.16237 5.94206 6.42623 -0.979678 11.2043 3.96427C13.444 6.24388 11.8374 6.23432 13.7741 4.00997C17.3551 -0.197488 23.228 1.94397 23.9947 6.81777C24.2172 1.46679 17.3739 -1.9691 12.5989 2.80905Z" fill="#29D9AF"/>
<path d="M11.9494 8.00781C11.8988 8.00781 11.8436 8.00781 11.793 8.00781V9.30144H11.9494C13.5366 9.30144 14.2063 10.4293 14.2363 11.5571C14.2679 12.7365 13.6093 13.9363 11.9494 13.9363H10.4458V10.5857H9.07812V15.2503C9.97678 15.2503 11.0523 15.2503 11.951 15.2503C14.5095 15.2503 15.6388 13.3982 15.6072 11.5665C15.574 9.77697 14.4558 8.00781 11.9494 8.00781Z" fill="#026985"/>
<path d="M22.6355 10.4105C22.6355 9.1591 21.7274 8.02033 20.0028 8.01095C18.8435 8.01095 17.6843 8 16.5234 8V15.2518H17.9022V12.8304H19.2289L21.3594 15.2518H22.9988V15.1595L20.7845 12.6865C22.1744 12.4065 22.6355 11.4038 22.6355 10.4105ZM17.9022 11.5993V9.28111H20.0028C20.8698 9.28111 21.2568 9.85988 21.2568 10.4402C21.2568 11.019 20.8809 11.5993 20.0028 11.5993H17.9022Z" fill="#026985"/>
<path d="M9.08028 10.3084H10.448V9.29943H11.5046V8.00894H10.448V7H9.08028V8.00894H8V9.29943H9.08028V10.3084Z" fill="#026985"/>
</svg>
