<svg width="20" height="20" viewBox="0 0 20 20" fill="none" xmlns="http://www.w3.org/2000/svg">
<g clip-path="url(#clip0_109_16011)">
<path d="M9.13163 0.0189209C6.23362 0.295782 3.70911 1.71012 1.9583 4.04177C0.20749 6.37676 -0.416133 9.4456 0.277522 12.3443C0.944498 15.143 2.79869 17.5113 5.37989 18.8689C7.01064 19.7262 9.01491 20.1298 10.8324 19.9631C13.7271 19.7029 16.2583 18.2985 17.9991 15.9969C20.667 12.4611 20.667 7.53091 17.9991 3.9884C16.3683 1.82687 14.0006 0.442553 11.296 0.0689564C10.8424 0.00557709 9.57517 -0.0211086 9.13163 0.0189209ZM11.0659 1.26981C13.637 1.59003 15.9248 3.01104 17.3421 5.17257C18.0324 6.22665 18.466 7.34411 18.6894 8.65837C18.7594 9.08201 18.7894 10.3996 18.7394 10.9C18.5293 12.9247 17.5755 14.8861 16.1149 16.2971C14.7109 17.6514 12.9867 18.4753 11.0492 18.7155C10.5256 18.7822 9.46511 18.7789 8.93487 18.7155C6.64381 18.432 4.57285 17.2711 3.12217 15.4632C2.29179 14.4258 1.65483 13.0615 1.39804 11.7739C1.26131 11.0968 1.22796 10.7365 1.22796 9.99265C1.22796 9.24879 1.26131 8.88854 1.39804 8.21139C1.65816 6.91047 2.31847 5.50948 3.16219 4.46874C4.60953 2.69081 6.74385 1.51331 8.99823 1.25646C9.4351 1.20643 10.6156 1.21643 11.0659 1.26981Z" fill="#FF0079"/>
<path d="M6.71236 6.85099C6.35219 7.07115 6.13543 7.60819 6.10541 8.35873C6.0754 9.04254 6.22213 9.62629 6.50226 9.94318C6.66234 10.1233 6.78239 10.1934 6.9458 10.1934C7.26262 10.1934 7.54275 9.84978 7.70282 9.26604C7.80287 8.89911 7.80287 8.08853 7.70282 7.71827C7.50606 6.99443 7.08587 6.62416 6.71236 6.85099Z" fill="#FF0079"/>
<path d="M12.7858 6.85361C12.6258 6.95368 12.5124 7.09045 12.4056 7.32395C12.2256 7.70755 12.1855 7.92104 12.1855 8.49144C12.1855 8.88172 12.2022 9.06184 12.2456 9.22529C12.5924 10.4995 13.4195 10.5229 13.7763 9.26866C13.8797 8.90173 13.883 8.09783 13.7763 7.71756C13.5762 6.99038 13.156 6.62345 12.7858 6.85361Z" fill="#FF0079"/>
<path d="M4.57271 11.349C4.31234 11.4436 4.08177 11.7915 4.00163 12.2066L4.22852 11.8648L4.14211 12.2035C4.2921 12.0662 4.54957 11.8861 4.59433 11.8861C4.60329 11.8861 4.60753 11.9106 4.60558 11.938C4.59779 12.0479 4.7894 12.7132 4.91188 13.0062C5.12156 13.5006 5.3446 13.8485 5.70977 14.2544C6.09154 14.6786 6.43703 14.9411 6.94431 15.1944C7.68511 15.5637 8.38135 15.7193 9.42347 15.7529C10.0847 15.7712 10.4629 15.7407 11.0532 15.6217C12.9152 15.2463 14.3683 14.0286 15.1774 12.17L15.3128 11.8587L15.4615 11.9502C15.5446 11.9991 15.6794 12.1181 15.7655 12.2096L15.9203 12.3836L15.9067 12.2798C15.8659 11.9289 15.8453 11.8404 15.77 11.6817C15.5784 11.2697 15.1715 11.1995 14.5169 11.468L14.2863 11.5626L14.5393 11.6145C14.8688 11.6817 15.1141 11.758 15.1351 11.7976C15.1775 11.8739 14.2753 12.7712 13.7388 13.1832C12.0501 14.4833 10.171 14.9747 8.35116 14.5871C7.45436 14.3979 6.56721 13.9462 5.871 13.3266C5.46125 12.9604 4.69078 11.9991 4.7003 11.8648C4.70397 11.8129 5.00379 11.7091 5.37371 11.6267L5.69182 11.5596L5.57612 11.5077C5.17748 11.3215 4.80557 11.2636 4.57271 11.349Z" fill="#FF0079"/>
</g>
<defs>
<clipPath id="clip0_109_16011">
<rect width="20" height="20" fill="white"/>
</clipPath>
</defs>
</svg>
