<svg width="20" height="20" viewBox="0 0 20 20" fill="none" xmlns="http://www.w3.org/2000/svg">
<path d="M19.5 15.4233C18.0076 15.1541 16.9473 14.2104 16.2688 13.3596C15.6196 12.5455 15.2844 11.7733 15.2224 11.6216L15.2148 11.6051C15.0571 11.2625 14.9599 10.8594 15.1114 10.484C15.2524 10.1327 15.5618 9.92296 15.7949 9.79911C16.0352 9.67148 16.2993 9.58206 16.4779 9.52157L16.4912 9.5171L16.4928 9.51654C16.6013 9.4802 16.6864 9.45078 16.7517 9.42383C17.0802 9.28568 17.2675 9.15418 17.3726 9.03991C17.4307 8.97587 17.4568 8.92325 17.4694 8.88768C17.4823 8.85118 17.4845 8.82266 17.4842 8.80515C17.4826 8.71911 17.417 8.56577 17.1647 8.47033L17.153 8.46589L17.1415 8.46086C17.0771 8.43277 16.9945 8.41467 16.9066 8.41467C16.8775 8.41467 16.8439 8.41679 16.8102 8.42297C16.7763 8.42917 16.748 8.43843 16.7257 8.44963L16.7249 8.45003C16.3764 8.624 16.0269 8.73876 15.6926 8.75538L15.6671 8.75665L15.6417 8.75532C15.4479 8.74519 15.2938 8.6993 15.1764 8.64336L14.8734 8.49898L14.8923 8.16392C14.8936 8.14043 14.8949 8.11672 14.8963 8.0928C14.9025 7.98204 14.9089 7.86684 14.9162 7.7491L14.9199 7.68885C14.9199 7.68862 14.9199 7.68838 14.9199 7.68815C14.9633 6.96261 15.0098 6.17402 14.9918 5.43602C14.9736 4.68788 14.8892 4.04953 14.7029 3.60544L14.7029 3.60529C14.4189 2.92782 14.0419 2.35555 13.5856 1.89649L13.5854 1.89635C13.2031 1.5114 12.759 1.19876 12.2646 0.967603L12.2633 0.967017C11.4006 0.560699 10.5927 0.5 10.1925 0.5H10.1913H10.1912H10.1911H10.191H10.1909H10.1907H10.1906H10.1905H10.1904H10.1903H10.1902H10.1901H10.19H10.1899H10.1898H10.1897H10.1896H10.1895H10.1894H10.1893H10.1892H10.1891H10.189H10.1889H10.1888H10.1887H10.1886H10.1885H10.1884H10.1883H10.1882H10.1881H10.188H10.1879H10.1878H10.1877H10.1876H10.1875H10.1874H10.1873H10.1872H10.1871H10.187H10.1869H10.1868H10.1867H10.1866H10.1865H10.1864H10.1863H10.1862H10.1861H10.186H10.1859H10.1858H10.1857H10.1856H10.1855H10.1854H10.1853H10.1852H10.1851H10.185H10.1849H10.1848H10.1847H10.1846H10.1845H10.1844H10.1843H10.1842H10.1841H10.184H10.1839H10.1838H10.1837H10.1835H10.1834H10.1833H10.1832H10.1831H10.183H10.1829H10.1828H10.1827H10.1826H10.1825H10.1824H10.1823H10.1822H10.1821H10.182H10.1819H10.1818H10.1817H10.1816H10.1815H10.1814H10.1813H10.1812H10.1811H10.181H10.1809H10.1809H10.1808H10.1807H10.1806H10.1805H10.1804H10.1803H10.1802H10.1801H10.18H10.1799H10.1798H10.1797H10.1796H10.1795H10.1794H10.1793H10.1792H10.1791H10.179H10.1789H10.1788H10.1787H10.1786H10.1785H10.1784H10.1783H10.1782H10.1781H10.178H10.1779H10.1778H10.1777H10.1776H10.1775H10.1774H10.1773H10.1772H10.1771H10.177H10.1769H10.1768H10.1767H10.1766H10.1765H10.1764H10.1763H10.1762H10.1761H10.176H10.1759H10.1758H10.1757H10.1756H10.1755H10.1754H10.1753H10.1752H10.1751H10.175H10.1749H10.1748H10.1747H10.1746H10.1745H10.1744H10.1743H10.1742H10.1741H10.174H10.1739H10.1739H10.1738H10.1737H10.1736H10.1735H10.1734H10.1733H10.1732H10.1731H10.173H10.1729H10.1728H10.1727H10.1726H10.1725H10.1724H10.1723H10.1722H10.1721H10.172H10.1719H10.1718H10.1717H10.1716H10.1715H10.1714H10.1713H10.1712H10.1711H10.171H10.1709H10.1708H10.1707H10.1706H10.1705H10.1705H10.1704H10.1703H10.1702H10.1701H10.17H10.1699H10.1698H10.1697H10.1696H10.1695H10.1694H10.1693H10.1692H10.1691H10.169H10.1689H10.1688H10.1687H10.1686H10.1685H10.1684H10.1683H10.1682H10.1681H10.168H10.168H10.1679H10.1678H10.1677H10.1676H10.1675H10.1674H10.1673H10.1672H10.1671H10.167H10.1669H10.1668H10.1667H10.1666H10.1665H10.1664H10.1663H10.1662H10.1661H10.166H10.1659H10.1659H10.1658H10.1657H10.1656H10.1655H10.1654H10.1653H10.1652H10.1651H10.165H10.1649H10.1648H10.1647H10.1646H10.1645H10.1644H10.1643H10.1642H10.1641H10.164H10.164H10.1639H10.1638H10.1637H10.1636H10.1635H10.1634H10.1633H10.1632H10.1631H10.163H10.1629H10.1628H10.1627H10.1626H10.1625H10.1624H10.1623H10.1623H10.1622H10.1621H10.162H10.1619H10.1618H10.1617H10.1616H10.1615H10.1614H10.1613H10.1612H10.1611H10.161H10.1609H10.1608H10.1608H10.1607H10.1606H10.1605H10.1604H10.1603H10.1602H10.1601H10.16H10.1599H10.1598H10.1597H10.1596H10.1595H10.1594H10.1594H10.1593H10.1592H10.1591H10.159H10.1589H10.1588H10.1587H10.1586H10.1585H10.1584H10.1583H10.1582H10.1581H10.158H10.158H10.1579H10.1578H10.1577H10.1576H10.1575H10.1574H10.1573H10.1572H10.1571H10.157H10.1569H10.1568H10.1568H10.1567H10.1566H10.1565H10.1564H10.1563H10.1562H10.1561H10.156H10.1559H10.1558H10.1557H10.1556H10.1556H10.1555H10.1554H10.1553H10.1552H10.1551H10.155H10.1549H10.1548H10.1547H10.1546H10.1545H10.1545H10.1544H10.1543H10.1542H10.1541H10.154H10.1539H10.1538H10.1537H10.1536H10.1535H10.1534H10.1534H10.1533H10.1532H10.1531H10.153H10.1529H10.1528H10.1527H10.1526H10.1525H10.1524H10.1523H10.1523H10.1522H10.1521H10.152H10.1519H10.1518H10.1517H10.1516H10.1515H10.1514H10.1513H10.1513H10.1512H10.1511H10.151H10.1509H10.1508H10.1507H10.1506H10.1505H10.1504H10.1504H10.1503H10.1502H10.1501H10.15H10.1499H10.1498H10.1497H10.1496H10.1495H10.1494H10.1494H10.1493H10.1492H10.1491H10.149H10.1489H10.1488H10.1487H10.1486H10.1486H10.1485H10.1484H10.1483H10.1482H10.1481H10.148H10.1479H10.1478H10.1477H10.1477H10.1476H10.1475H10.1474H10.1473H10.1472H10.1471H10.147H10.1469H10.1468H10.1468H10.1467H10.1466H10.1465H10.1464H10.1463H10.1462H10.1461H10.146H10.146H10.1459H10.1458H10.1457H10.1456H10.1455H10.1454H10.1453H10.1452H10.1452C10.0936 0.500559 10.0255 0.501389 9.96314 0.502149C9.88227 0.503134 9.81119 0.504 9.79874 0.504C9.39991 0.504 8.59051 0.564678 7.72495 0.97123L7.72456 0.971418C7.23131 1.20257 6.78978 1.51381 6.40884 1.89849C5.95448 2.35792 5.5786 2.92919 5.29592 3.60388L5.29574 3.60431C5.10951 4.04763 5.02517 4.68553 5.00678 5.43346C4.98863 6.17147 5.0349 6.95998 5.07763 7.68526L5.0785 7.69995V7.70316C5.08206 7.76572 5.08602 7.83286 5.09005 7.90098C5.09526 7.98923 5.10057 8.07914 5.10523 8.1629L5.12393 8.49917L4.81934 8.64287C4.69148 8.70319 4.51267 8.756 4.27848 8.756C3.92031 8.756 3.54179 8.63739 3.16523 8.44937C3.14099 8.43756 3.10431 8.42667 3.04843 8.42667C2.94655 8.42667 2.82468 8.45988 2.71655 8.52814L2.71467 8.52933C2.57817 8.61464 2.53 8.70707 2.51812 8.77041C2.51502 8.78889 2.51244 8.82347 2.52453 8.86761C2.53591 8.90916 2.56603 8.98121 2.65884 9.0716C2.7705 9.17915 2.96005 9.30274 3.24956 9.42435L3.25092 9.42492C3.3085 9.44931 3.37864 9.47304 3.4776 9.50652C3.48771 9.50994 3.49812 9.51346 3.50885 9.5171C3.50886 9.5171 3.50887 9.51711 3.50889 9.51711L3.52322 9.52196C3.70172 9.58239 3.96549 9.67168 4.20543 9.79897C4.43882 9.92277 4.74922 10.1328 4.89017 10.4848L4.89056 10.4858C5.03852 10.8576 4.94443 11.2566 4.78824 11.5984L4.78358 11.6097C4.74002 11.716 4.39947 12.5326 3.70239 13.3955C3.30463 13.8883 2.86118 14.3081 2.38169 14.6373C1.8005 15.037 1.16746 15.3018 0.500088 15.422C0.499992 15.4233 0.499967 15.4247 0.500056 15.4264L0.500133 15.4278C0.500977 15.4443 0.504706 15.4627 0.51267 15.4822L0.520054 15.5004C0.556941 15.5771 0.659025 15.6985 0.948004 15.8408L0.94849 15.841C1.32313 16.0261 1.92398 16.199 2.76535 16.3388L3.01738 16.3806L3.13113 16.6094C3.18146 16.7106 3.21467 16.8404 3.23395 16.9197C3.2557 17.0092 3.27552 17.1048 3.2904 17.1766L3.29299 17.1891L3.29341 17.1911C3.32619 17.3525 3.35674 17.5012 3.40001 17.6562L3.40024 17.6571C3.4057 17.6768 3.41165 17.6911 3.41666 17.7006C3.4173 17.7018 3.4179 17.7028 3.41845 17.7038C3.41913 17.7039 3.41987 17.704 3.42067 17.7042C3.42718 17.7053 3.43822 17.7067 3.45469 17.7067C3.52488 17.7067 3.61856 17.6888 3.81395 17.6489C3.81418 17.6489 3.81442 17.6488 3.81466 17.6488L3.8223 17.6472C4.08223 17.5933 4.47492 17.512 4.96352 17.512C5.23794 17.512 5.51988 17.5375 5.80145 17.5878M19.5 15.4233L5.80145 17.5878M19.5 15.4233C19.5 15.4238 19.5 15.4243 19.5 15.4248L19.4998 15.4274C19.4991 15.4416 19.4958 15.4597 19.4861 15.4836L19.4859 15.4841C19.4556 15.5588 19.3597 15.6873 19.0515 15.8397L19.5 15.4233ZM5.80145 17.5878C5.80118 17.5877 5.8009 17.5877 5.80063 17.5876L5.71357 18.0799L5.80148 17.5878L5.80145 17.5878ZM12.5515 18.4782L12.5863 18.452C12.6024 18.44 12.6184 18.4279 12.6346 18.4158C13.0847 18.0777 13.5915 17.697 14.1998 17.5891L12.5515 18.4782ZM12.5515 18.4782L12.5501 18.4796L12.5515 18.4782ZM16.6006 17.6505L16.6009 17.6496C16.6435 17.4953 16.6744 17.3498 16.7079 17.1867C16.708 17.1864 16.708 17.1861 16.7081 17.1859L16.6006 17.6505ZM16.6006 17.6505C16.5945 17.6729 16.588 17.6854 16.5845 17.691M16.6006 17.6505L16.5845 17.691M16.1879 17.6424C15.8764 17.5779 15.5063 17.5133 15.0377 17.5133C14.7634 17.5133 14.4816 17.5388 14.2002 17.5891L16.1879 17.6424ZM16.1879 17.6424C16.3696 17.6799 16.4808 17.692 16.5466 17.692H16.5578H16.5691C16.5762 17.692 16.5813 17.6915 16.5845 17.691M16.1879 17.6424L16.5845 17.691M0.478217 15.4259L0.478329 15.4258L0.478217 15.4259ZM15.215 11.6036L15.215 11.6037L15.215 11.6036Z" stroke="#363636"/>
</svg>
