<svg width="20" height="20" viewBox="0 0 20 20" fill="none" xmlns="http://www.w3.org/2000/svg">
<path d="M15.4294 18.8518C15.1781 18.8518 14.9025 18.7693 14.6044 18.605L7.8525 13.62C7.77687 13.5643 7.73062 13.4775 7.72562 13.3837C7.72125 13.29 7.75875 13.1993 7.82875 13.1362L15.8262 5.93934C15.9544 5.82372 16.1519 5.83372 16.2675 5.96247C16.3831 6.09059 16.3725 6.28809 16.2444 6.40372L8.53187 13.345L14.9406 18.08C15.11 18.1706 15.3962 18.2856 15.6 18.1912C15.8075 18.0962 15.91 17.7931 15.96 17.5556L18.6944 4.66997C18.8006 4.24434 18.7494 3.90184 18.56 3.74434C18.4156 3.62434 18.2006 3.61559 17.9681 3.72059L1.89562 9.91934C1.4025 10.1175 1.2475 10.3212 1.25 10.3887C1.25187 10.4331 1.35812 10.5556 1.675 10.6525L5.65937 11.8962L10.0337 9.13622C10.18 9.04497 10.3725 9.08809 10.4644 9.23372C10.5562 9.37934 10.5131 9.57247 10.3669 9.66434L5.87062 12.5012C5.79312 12.55 5.6975 12.5625 5.61062 12.5356L1.49062 11.2493C0.75937 11.0256 0.63437 10.6306 0.62562 10.415C0.61312 10.1193 0.783745 9.69184 1.6675 9.33809L17.7269 3.14559C18.1625 2.94684 18.63 2.98934 18.9606 3.26497C19.3437 3.58434 19.4687 4.14809 19.3037 4.81122L16.5719 17.685C16.4569 18.2337 16.2181 18.5956 15.8612 18.7593C15.7269 18.8212 15.5831 18.8518 15.4294 18.8518Z" fill="#363636"/>
<path d="M15.4294 18.8518C15.1781 18.8518 14.9025 18.7693 14.6044 18.605L10.4044 15.5056C10.2656 15.4031 10.2356 15.2068 10.3387 15.0687C10.4412 14.93 10.6375 14.9 10.7756 15.0031L14.9406 18.08C15.11 18.1706 15.3962 18.2856 15.6 18.1912C15.8075 18.0962 15.91 17.7931 15.96 17.5556L18.6944 4.66997C18.8006 4.24434 18.7494 3.90184 18.56 3.74434C18.4156 3.62434 18.2006 3.61559 17.9681 3.72059L1.89562 9.91934C1.4025 10.1175 1.2475 10.3212 1.25 10.3887C1.25187 10.4331 1.35812 10.5556 1.675 10.6525L5.79625 11.9387C5.895 11.9693 5.97187 12.0475 6.0025 12.1462L7.41937 16.8093C7.4575 16.9137 7.48687 17.0175 7.5125 17.1075C7.5325 17.1787 7.5575 17.2675 7.57437 17.2937C7.57187 17.2906 7.62187 17.3056 7.755 17.3062C8.03437 17.3062 8.14062 17.2018 8.35312 16.995L9.39062 15.9862C9.51437 15.865 9.71187 15.8687 9.8325 15.9925C9.9525 16.1162 9.95 16.3143 9.82625 16.4343L8.80625 17.425C8.555 17.6706 8.28875 17.9306 7.755 17.9306C7.1425 17.9306 7.01875 17.6593 6.91062 17.2768C6.88875 17.1993 6.86375 17.11 6.82625 17.0068L5.4525 12.4862L1.49062 11.2493C0.75937 11.0256 0.63437 10.6306 0.62562 10.415C0.61312 10.1193 0.783745 9.69184 1.6675 9.33809L17.7269 3.14559C18.1625 2.94684 18.63 2.98934 18.9606 3.26497C19.3437 3.58434 19.4687 4.14809 19.3037 4.81122L16.5719 17.685C16.4569 18.2337 16.2181 18.5956 15.8612 18.7593C15.7269 18.8212 15.5831 18.8518 15.4294 18.8518Z" fill="#363636"/>
<path d="M11.5625 8.75C11.5625 8.92188 11.4219 9.0625 11.25 9.0625C11.0781 9.0625 10.9375 8.92188 10.9375 8.75C10.9375 8.57812 11.0781 8.4375 11.25 8.4375C11.4219 8.4375 11.5625 8.57812 11.5625 8.75Z" fill="#363636"/>
</svg>
