<svg width="16" height="17" viewBox="0 0 16 17" fill="none" xmlns="http://www.w3.org/2000/svg">
<path d="M12.3605 3.24591L8.69385 1.87258C8.31385 1.73258 7.69385 1.73258 7.31385 1.87258L3.64719 3.24591C2.94052 3.51258 2.36719 4.33924 2.36719 5.09258V10.4926C2.36719 11.0326 2.72052 11.7459 3.15385 12.0659L6.82052 14.8059C7.46719 15.2926 8.52719 15.2926 9.17385 14.8059L12.8405 12.0659C13.2739 11.7392 13.6272 11.0326 13.6272 10.4926V5.09258C13.6339 4.33924 13.0605 3.51258 12.3605 3.24591ZM10.3205 6.97924L7.45385 9.84591C7.35385 9.94591 7.22719 9.99258 7.10052 9.99258C6.97385 9.99258 6.84719 9.94591 6.74719 9.84591L5.68052 8.76591C5.48719 8.57258 5.48719 8.25258 5.68052 8.05924C5.87385 7.86591 6.19385 7.86591 6.38719 8.05924L7.10719 8.77924L9.62052 6.26591C9.81385 6.07258 10.1339 6.07258 10.3272 6.26591C10.5205 6.45924 10.5205 6.78591 10.3205 6.97924Z" fill="#32936F"/>
</svg>
