<svg width="20" height="20" viewBox="0 0 20 20" fill="none" xmlns="http://www.w3.org/2000/svg">
<path d="M7.6221 20C6.16624 20 4.79319 19.5355 3.65139 18.6566C3.43811 18.4926 3.23303 18.3133 3.04163 18.1242C1.70881 16.807 1.03811 15.0527 1.15335 13.1844C1.24046 11.7723 1.80921 10.4109 2.75569 9.35117C4.00921 7.94766 5.73733 7.17461 7.62249 7.17461C7.94632 7.17461 8.27327 7.19883 8.59514 7.24648L9.09514 7.3207V11.7578L8.32522 11.5035C8.101 11.4293 7.8678 11.3918 7.63186 11.3918C7.03577 11.3918 6.47757 11.6254 6.05999 12.0492C5.64436 12.4711 5.42053 13.0289 5.42913 13.6207C5.44046 14.3836 5.84241 15.075 6.50413 15.4711C6.80882 15.6531 7.15569 15.7598 7.50803 15.7793C7.78616 15.7945 8.06077 15.7582 8.32483 15.6711C9.22757 15.373 9.83421 14.5355 9.83421 13.5875L9.83811 8.98594V0H14.0787L14.0838 0.580469C14.0862 0.843359 14.1131 1.10625 14.1639 1.36094C14.3631 2.3625 14.9248 3.25508 15.7455 3.87383C16.4741 4.42344 17.3436 4.71367 18.2592 4.71367C18.2807 4.71367 18.2807 4.71367 18.4764 4.72734L19.0213 4.76562V8.35938V8.94531L18.826 8.94492H18.4366C18.4334 8.94492 18.4303 8.94492 18.4268 8.94492H18.2397C18.2389 8.94492 18.2377 8.94492 18.2366 8.94492C17.1073 8.94492 16.0491 8.72969 15.0002 8.28711C14.6877 8.15508 14.3834 8.0043 14.0897 7.83594L14.103 13.6098C14.0959 15.3176 13.4209 16.9195 12.2026 18.1238C11.2139 19.1008 9.96624 19.725 8.59436 19.9281C8.27444 19.9758 7.94749 20 7.6221 20ZM7.6221 8.34648C6.07561 8.34648 4.65764 8.98047 3.62952 10.1316C2.85764 10.9961 2.39358 12.1059 2.32249 13.2562C2.22874 14.7816 2.77639 16.2145 3.86507 17.2902C4.02249 17.4457 4.19085 17.593 4.36585 17.7277C5.301 18.4477 6.42717 18.8281 7.6221 18.8281C7.89007 18.8281 8.15921 18.8082 8.42288 18.7691C9.54671 18.6027 10.569 18.0914 11.3791 17.2906C12.3744 16.307 12.9256 14.9996 12.9315 13.609L12.9131 5.54688L13.8596 6.27695C14.3483 6.65391 14.8858 6.96719 15.4565 7.2082C16.2366 7.5375 17.0229 7.72031 17.8491 7.76367V5.87109C16.828 5.79453 15.8635 5.43164 15.0397 4.81016C13.9889 4.01797 13.2698 2.87422 13.0143 1.59023C12.9869 1.45234 12.9647 1.31289 12.9483 1.17227H11.0096V8.98633L11.0057 13.5879C11.0057 15.0422 10.076 16.3266 8.69202 16.7836C8.2885 16.9168 7.86858 16.9723 7.44358 16.9492C6.90217 16.9195 6.36936 16.7559 5.90217 16.4766C4.88928 15.8707 4.27405 14.8094 4.25686 13.6379C4.24358 12.7301 4.58694 11.8738 5.22444 11.2266C5.86389 10.5773 6.71858 10.2199 7.63108 10.2199C7.72874 10.2199 7.82561 10.2242 7.92249 10.2324V8.35469C7.82249 8.34922 7.7221 8.34648 7.6221 8.34648Z" fill="#363636"/>
</svg>
