<svg width="22" height="22" viewBox="0 0 22 22" fill="none" xmlns="http://www.w3.org/2000/svg">
<path d="M21.9882 5.5085C20.5569 5.5085 19.2363 5.09192 18.1759 4.38916C16.9596 3.58354 16.0858 2.40179 15.7772 1.03973C15.7008 0.703194 15.6596 0.355901 15.6557 0H11.5671V9.81546L11.5622 15.1918C11.5622 16.6292 10.4969 17.848 9.02003 18.2766C8.59143 18.401 8.12854 18.4599 7.64655 18.4367C7.03133 18.407 6.4548 18.2439 5.95371 17.9805C4.88736 17.4202 4.16437 16.4037 4.14478 15.2409C4.11392 13.4235 5.78619 11.9418 7.85326 11.9418C8.26128 11.9418 8.65315 12.0004 9.02003 12.1066V9.42384V8.45942C8.63306 8.40907 8.23924 8.38282 7.84101 8.38282C5.5785 8.38282 3.46245 9.20909 1.94987 10.6977C0.806612 11.8226 0.120855 13.2578 0.0150521 14.7628C-0.123569 16.7398 0.69983 18.6192 2.29666 20.0058C2.53129 20.2093 2.77767 20.3982 3.03532 20.5725C4.40439 21.4982 6.07813 22 7.84101 22C8.23924 22 8.63306 21.9742 9.02003 21.9238C10.6668 21.7095 12.1863 21.0472 13.3854 20.0058C14.8588 18.7263 15.6729 17.0277 15.6817 15.2198L15.6606 7.19117C16.3635 7.66757 17.132 8.06178 17.9569 8.36775C19.2398 8.84329 20.6 9.08429 21.9999 9.08386V6.4755V5.50764C22.0009 5.5085 21.9892 5.5085 21.9882 5.5085Z" fill="white"/>
</svg>
