<svg width="43" height="43" viewBox="0 0 43 43" fill="none" xmlns="http://www.w3.org/2000/svg">
<g clip-path="url(#clip0_2338_49712)">
<path d="M14.3359 9.19952C13.6014 9.19952 12.9922 8.59036 12.9922 7.85577V2.48077C12.9922 1.74619 13.6014 1.13702 14.3359 1.13702C15.0705 1.13702 15.6797 1.74619 15.6797 2.48077V7.85577C15.6797 8.59036 15.0705 9.19952 14.3359 9.19952Z" fill="#363636"/>
<path d="M28.6641 9.19952C27.9295 9.19952 27.3203 8.59036 27.3203 7.85577V2.48077C27.3203 1.74619 27.9295 1.13702 28.6641 1.13702C29.3986 1.13702 30.0078 1.74619 30.0078 2.48077V7.85577C30.0078 8.59036 29.3986 9.19952 28.6641 9.19952Z" fill="#363636"/>
<path d="M15.2292 24.8767C14.7633 24.8767 14.2975 24.6796 13.9571 24.3571C13.6346 24.0166 13.4375 23.5687 13.4375 23.085C13.4375 22.8521 13.4913 22.6191 13.5808 22.4041C13.6704 22.1891 13.7958 21.9921 13.9571 21.8129C14.62 21.15 15.8204 21.15 16.5012 21.8129C16.8237 22.1533 17.0208 22.6192 17.0208 23.085C17.0208 23.1925 17.0029 23.3179 16.985 23.4433C16.9671 23.5508 16.9312 23.6583 16.8775 23.7658C16.8417 23.8733 16.7879 23.9808 16.7163 24.0883C16.6446 24.1779 16.5729 24.2675 16.5012 24.3571C16.1608 24.6796 15.695 24.8767 15.2292 24.8767Z" fill="#363636"/>
<path d="M21.5026 24.8766C21.2697 24.8766 21.0368 24.8229 20.8218 24.7333C20.5889 24.6437 20.4097 24.5183 20.2305 24.357C19.908 24.0166 19.7109 23.5687 19.7109 23.0849C19.7109 22.852 19.7647 22.6191 19.8543 22.4041C19.9439 22.1891 20.0693 21.992 20.2305 21.8129C20.4097 21.6516 20.5889 21.5262 20.8218 21.4366C21.4847 21.1678 22.273 21.3112 22.7747 21.8129C23.0972 22.1533 23.2943 22.6191 23.2943 23.0849C23.2943 23.1924 23.2764 23.3179 23.2584 23.4433C23.2405 23.5508 23.2047 23.6583 23.1509 23.7658C23.1151 23.8733 23.0614 23.9808 22.9897 24.0883C22.9359 24.1779 22.8464 24.2674 22.7747 24.357C22.4343 24.6795 21.9684 24.8766 21.5026 24.8766Z" fill="#363636"/>
<path d="M15.2292 31.1475C14.9963 31.1475 14.7633 31.0938 14.5483 31.0042C14.3154 30.9146 14.1183 30.7891 13.9571 30.6279C13.7958 30.4666 13.6704 30.2696 13.5808 30.0367C13.4913 29.8217 13.4375 29.5887 13.4375 29.3558C13.4375 29.1229 13.4913 28.89 13.5808 28.675C13.6704 28.4421 13.7958 28.245 13.9571 28.0837C14.1183 27.9225 14.3154 27.797 14.5483 27.7075C14.9783 27.5283 15.48 27.5104 15.91 27.7075C16.1429 27.797 16.34 27.9225 16.5012 28.0837C16.6625 28.245 16.7879 28.4421 16.8775 28.675C16.9671 28.89 17.0208 29.1229 17.0208 29.3558C17.0208 29.5887 16.9671 29.8217 16.8775 30.0367C16.7879 30.2696 16.6625 30.4666 16.5012 30.6279C16.34 30.7891 16.1429 30.9146 15.91 31.0042C15.695 31.0938 15.4621 31.1475 15.2292 31.1475Z" fill="#363636"/>
<path d="M36.7318 16.5274H6.27344C5.53885 16.5274 4.92969 15.9182 4.92969 15.1837C4.92969 14.4491 5.53885 13.8399 6.27344 13.8399H36.7318C37.4664 13.8399 38.0755 14.4491 38.0755 15.1837C38.0755 15.9182 37.4664 16.5274 36.7318 16.5274Z" fill="#363636"/>
<path d="M32.2526 41.4495C30.1564 41.4495 28.1676 40.697 26.6447 39.3175C25.9997 38.78 25.4264 38.0991 24.9605 37.3108C24.1722 36.0208 23.7422 34.4979 23.7422 32.9391C23.7422 28.245 27.5584 24.4287 32.2526 24.4287C34.6893 24.4287 37.0184 25.4858 38.6309 27.3133C40.0105 28.8899 40.763 30.8787 40.763 32.9391C40.763 34.4979 40.333 36.0208 39.5268 37.3287C38.0218 39.8729 35.2268 41.4495 32.2526 41.4495ZM32.2526 27.1162C29.0455 27.1162 26.4297 29.732 26.4297 32.9391C26.4297 33.9962 26.7164 35.0354 27.2718 35.9312C27.5764 36.4687 27.9705 36.9166 28.4005 37.2929C29.4755 38.2604 30.8193 38.762 32.2526 38.762C34.313 38.762 36.1764 37.7049 37.2334 35.9491C37.7889 35.0354 38.0755 34.0141 38.0755 32.9391C38.0755 31.5416 37.5559 30.18 36.6243 29.0871C35.5134 27.8329 33.9189 27.1162 32.2526 27.1162Z" fill="#363636"/>
<path d="M31.2302 36.0566C30.8898 36.0566 30.5494 35.9312 30.2806 35.6624L28.5069 33.8887C27.9873 33.3691 27.9873 32.5091 28.5069 31.9895C29.0265 31.4699 29.8865 31.4699 30.406 31.9895L31.266 32.8495L34.1327 30.1978C34.6702 29.6962 35.5302 29.732 36.0319 30.2695C36.5335 30.807 36.4977 31.667 35.9602 32.1687L32.144 35.6983C31.8752 35.9312 31.5527 36.0566 31.2302 36.0566Z" fill="#363636"/>
<path d="M27.5379 39.6579H14.3333C7.79375 39.6579 4.03125 35.8954 4.03125 29.3558V14.1266C4.03125 7.58702 7.79375 3.82452 14.3333 3.82452H28.6667C35.2062 3.82452 38.9688 7.58702 38.9688 14.1266V28.2091C38.9688 28.7645 38.6283 29.2662 38.0908 29.4633C37.5713 29.6604 36.98 29.517 36.6037 29.087C35.4929 27.8329 33.8983 27.1162 32.2321 27.1162C29.025 27.1162 26.4092 29.732 26.4092 32.9391C26.4092 33.9962 26.6958 35.0354 27.2512 35.9312C27.5558 36.4687 27.95 36.9166 28.38 37.2928C28.81 37.6512 28.9712 38.2425 28.7742 38.78C28.6129 39.2995 28.1113 39.6579 27.5379 39.6579ZM14.3333 6.51202C9.20917 6.51202 6.71875 9.00244 6.71875 14.1266V29.3558C6.71875 34.4799 9.20917 36.9704 14.3333 36.9704H24.7608C24.0979 35.752 23.7396 34.3724 23.7396 32.9391C23.7396 28.2449 27.5558 24.4287 32.25 24.4287C33.6654 24.4287 35.0629 24.787 36.2812 25.45V14.1266C36.2812 9.00244 33.7908 6.51202 28.6667 6.51202H14.3333Z" fill="#363636"/>
</g>
<defs>
<clipPath id="clip0_2338_49712">
<rect width="43" height="43" fill="white"/>
</clipPath>
</defs>
</svg>
