<svg width="23" height="21" viewBox="0 0 23 21" fill="none" xmlns="http://www.w3.org/2000/svg">
<path d="M16.558 10.5079C16.7279 10.5079 16.8657 10.3691 16.8657 10.1978C16.8657 10.0266 16.7279 9.88778 16.558 9.88778H14.8356C14.8726 9.59424 14.8916 9.29715 14.8916 9.00042C14.8916 7.40523 14.3429 5.84352 13.3465 4.60285C13.2397 4.46974 13.0459 4.44923 12.9139 4.55692C12.7818 4.66465 12.7614 4.85989 12.8683 4.99299C13.7763 6.12363 14.2764 7.54681 14.2764 9.00042C14.2764 9.29748 14.2557 9.59486 14.2152 9.88778H12.6938C12.7474 9.5961 12.775 9.29909 12.775 9.00042C12.775 6.31668 10.6086 4.13329 7.94583 4.13329C5.28302 4.13329 3.11665 6.31668 3.11665 9.00042C3.11665 9.65265 3.24491 10.2752 3.47685 10.8441C3.72696 11.4588 4.10423 12.0205 4.57673 12.4837C5.35565 13.2492 6.38937 13.7523 7.53604 13.8499C7.67222 13.8616 7.80921 13.8676 7.94587 13.8676H12.033C10.8956 14.8363 9.44278 15.3808 7.94587 15.3808C4.45512 15.3808 1.61523 12.5186 1.61523 9.00046C1.61523 5.48235 4.45511 2.62011 7.94583 2.62011C9.41046 2.62011 10.8396 3.13816 11.97 4.0788C12.101 4.18785 12.295 4.16917 12.4031 4.03714C12.5113 3.9051 12.4928 3.70966 12.3617 3.60065C11.1213 2.56844 9.55307 2 7.94583 2C4.11587 2.00004 1 5.14041 1 9.00046C1 11.6937 2.51713 14.0363 4.73505 15.2066L3.59559 18.1283C3.51889 18.3249 3.54358 18.5466 3.66163 18.7212C3.77967 18.8958 3.97527 19 4.1849 19H11.7067C11.9163 19 12.112 18.8958 12.23 18.7212C12.3481 18.5466 12.3728 18.3249 12.2961 18.1283L11.879 17.0589C11.8168 16.8996 11.6383 16.8212 11.4801 16.8838C11.322 16.9465 11.2442 17.1264 11.3064 17.2858L11.7235 18.3551C11.7248 18.3585 11.7269 18.3641 11.7216 18.372C11.7162 18.3799 11.7102 18.3799 11.7067 18.3799H9.59163V17.2674C9.59163 16.8685 9.26965 16.544 8.87385 16.544H7.01773C6.62197 16.544 6.29996 16.8685 6.29996 17.2674V18.3799H4.1849C4.18134 18.3799 4.17539 18.3799 4.17002 18.372C4.16464 18.3641 4.16682 18.3584 4.16813 18.3551L5.29335 15.47C6.11108 15.8118 7.00686 16.0009 7.94579 16.0009C8.86175 16.0009 9.76258 15.8149 10.5968 15.4664L10.8036 15.9965C10.8512 16.1186 10.9672 16.1932 11.0899 16.1932C11.1274 16.1932 11.1654 16.1862 11.2024 16.1716C11.3605 16.1089 11.4383 15.929 11.3761 15.7696L11.1553 15.2036C11.8098 14.8593 12.4117 14.4099 12.9332 13.8676H14.9812V18.2766C14.9812 18.6755 15.3032 19 15.6989 19H19.4475C19.8432 19 20.1652 18.6755 20.1652 18.2766V13.8676H20.8783C21.4968 13.8676 22 13.3604 22 12.737V11.0183C22 10.395 21.4968 9.88778 20.8783 9.88778H17.8987C17.7288 9.88778 17.5911 10.0266 17.5911 10.1978C17.5911 10.3691 17.7288 10.5079 17.8987 10.5079H20.8783C21.1575 10.5079 21.3848 10.7369 21.3848 11.0183V12.737C21.3848 13.0185 21.1575 13.2475 20.8783 13.2475H7.94583C7.80055 13.2475 7.59334 13.2646 7.45705 13.2188C6.49228 13.1048 5.61077 12.6578 4.94738 11.9814C4.53678 11.5632 4.21427 11.0576 4.0064 10.5079H16.558ZM6.91523 17.2674C6.91523 17.2104 6.96125 17.1641 7.01777 17.1641H8.87389C8.93041 17.1641 8.97643 17.2104 8.97643 17.2674V18.3799H6.91523V17.2674ZM7.94583 4.75336C10.2694 4.75336 12.1598 6.65858 12.1598 9.00042C12.1598 9.29988 12.1282 9.5973 12.0668 9.88778H3.82466C3.76404 9.60148 3.73189 9.30471 3.73189 9.00042C3.73189 6.65858 5.62226 4.75336 7.94583 4.75336ZM19.5501 16.544H15.5964V15.7035H19.5501V16.544ZM19.4475 18.3799H15.699C15.6425 18.3799 15.5964 18.3335 15.5964 18.2765V17.1641H19.5501V18.2765C19.5501 18.3335 19.504 18.3799 19.4475 18.3799ZM19.5501 15.0834H15.5964V13.8676H19.5501V15.0834Z" fill="#363636" stroke="#363636" stroke-width="0.3"/>
</svg>
