<svg width="28" height="27" viewBox="0 0 28 27" fill="none" xmlns="http://www.w3.org/2000/svg">
<path d="M14 14.3438C10.4337 14.3438 7.53125 11.4412 7.53125 7.875C7.53125 4.30875 10.4337 1.40625 14 1.40625C17.5662 1.40625 20.4688 4.30875 20.4688 7.875C20.4688 11.4412 17.5662 14.3438 14 14.3438ZM14 3.09375C11.3675 3.09375 9.21875 5.2425 9.21875 7.875C9.21875 10.5075 11.3675 12.6562 14 12.6562C16.6325 12.6562 18.7812 10.5075 18.7812 7.875C18.7812 5.2425 16.6325 3.09375 14 3.09375Z" fill="white"/>
<path d="M18.299 25.5933C17.8715 25.5933 17.4665 25.4358 17.174 25.1433C16.8252 24.7945 16.6677 24.2883 16.7465 23.7596L16.9602 22.2408C17.0165 21.8471 17.2527 21.3858 17.534 21.0933L21.5165 17.1108C23.114 15.5133 24.5202 16.4246 25.2065 17.1108C25.7915 17.6958 26.0952 18.3258 26.0952 18.9558C26.0952 19.597 25.8027 20.1933 25.2065 20.7895L21.2239 24.7721C20.9427 25.0533 20.4702 25.2896 20.0765 25.3458L18.5577 25.5595C18.4677 25.582 18.389 25.5933 18.299 25.5933ZM23.3502 17.9095C23.1477 17.9095 22.9677 18.0446 22.7089 18.3033L18.7265 22.2858C18.6927 22.3196 18.6365 22.432 18.6365 22.477L18.434 23.8833L19.8402 23.6808C19.8852 23.6695 19.9977 23.6133 20.0314 23.5796L24.014 19.597C24.194 19.417 24.4077 19.1583 24.4077 18.9558C24.4077 18.787 24.2727 18.5508 24.014 18.3033C23.744 18.0333 23.5415 17.9095 23.3502 17.9095Z" fill="white"/>
<path d="M24.0337 21.6215C23.955 21.6215 23.8762 21.6103 23.8087 21.5878C22.3237 21.1716 21.1425 19.9903 20.7262 18.5053C20.6025 18.0553 20.8612 17.5941 21.3112 17.4703C21.7612 17.3466 22.2225 17.6053 22.3462 18.0553C22.605 18.9778 23.3362 19.7091 24.2587 19.9678C24.7087 20.0916 24.9675 20.564 24.8437 21.0028C24.7425 21.374 24.405 21.6215 24.0337 21.6215Z" fill="white"/>
<path d="M4.33594 25.5938C3.87469 25.5938 3.49219 25.2113 3.49219 24.75C3.49219 19.9462 8.20597 16.0312 13.9997 16.0312C15.226 16.0312 16.441 16.2113 17.5772 16.5488C18.0272 16.6838 18.2747 17.1563 18.1397 17.595C18.0047 18.045 17.5322 18.2925 17.0935 18.1575C16.1035 17.865 15.0685 17.7075 13.9997 17.7075C9.13972 17.7075 5.17969 20.8575 5.17969 24.7387C5.17969 25.2112 4.79719 25.5938 4.33594 25.5938Z" fill="white"/>
</svg>
