<svg width="19" height="19" viewBox="0 0 19 19" fill="none" xmlns="http://www.w3.org/2000/svg">
<path d="M8.94328 10.1607C5.99083 10.1607 3.58789 7.89122 3.58789 5.10279C3.58789 2.31437 5.99083 0.0449219 8.94328 0.0449219C11.8957 0.0449219 14.2987 2.31437 14.2987 5.10279C14.2987 7.89122 11.8957 10.1607 8.94328 10.1607ZM8.94328 1.36437C6.76387 1.36437 4.98495 3.04446 4.98495 5.10279C4.98495 7.16113 6.76387 8.84122 8.94328 8.84122C11.1227 8.84122 12.9016 7.16113 12.9016 5.10279C12.9016 3.04446 11.1227 1.36437 8.94328 1.36437Z" fill="#363636"/>
<path d="M0.94267 18.9573C0.560807 18.9573 0.244141 18.6582 0.244141 18.2976C0.244141 14.5416 4.14659 11.4805 8.94316 11.4805C9.88384 11.4805 10.8059 11.5948 11.7 11.8323C12.0726 11.9291 12.2868 12.2897 12.1843 12.6416C12.0819 12.9934 11.7 13.1958 11.3275 13.099C10.5637 12.8967 9.76277 12.7999 8.94316 12.7999C4.91963 12.7999 1.6412 15.2629 1.6412 18.2976C1.6412 18.6582 1.32453 18.9573 0.94267 18.9573Z" fill="#363636"/>
<path d="M14.5295 18.9561C12.9834 18.9561 11.5305 18.182 10.7481 16.9241C10.329 16.2908 10.1055 15.5431 10.1055 14.7779C10.1055 13.4936 10.7109 12.3061 11.7633 11.5144C12.5457 10.9251 13.5329 10.5996 14.5295 10.5996C16.9697 10.5996 18.9535 12.4732 18.9535 14.7779C18.9535 15.5431 18.73 16.2908 18.3109 16.933C18.078 17.3024 17.78 17.6367 17.426 17.9181C16.653 18.5867 15.6192 18.9561 14.5295 18.9561ZM14.5295 11.9191C13.8403 11.9191 13.1883 12.1389 12.6388 12.5524C11.9216 13.0889 11.5025 13.907 11.5025 14.7779C11.5025 15.2968 11.6515 15.807 11.9403 16.2468C12.4805 17.1089 13.477 17.6366 14.5295 17.6366C15.2653 17.6366 15.9731 17.3816 16.5133 16.9241C16.7555 16.7306 16.9604 16.5019 17.1094 16.2556C17.4074 15.807 17.5564 15.2968 17.5564 14.7779C17.5564 13.2033 16.1966 11.9191 14.5295 11.9191Z" fill="#363636"/>
<path d="M13.9991 16.3104C13.8221 16.3104 13.6452 16.2488 13.5055 16.1169L12.5834 15.2461C12.3133 14.991 12.3133 14.5687 12.5834 14.3136C12.8535 14.0585 13.3006 14.0585 13.5707 14.3136L14.0178 14.7359L15.5079 13.434C15.7873 13.1877 16.2344 13.2053 16.4952 13.4692C16.756 13.7331 16.7374 14.1553 16.4579 14.4016L14.4741 16.1345C14.3344 16.2488 14.1668 16.3104 13.9991 16.3104Z" fill="#363636"/>
</svg>
