<svg width="30" height="30" viewBox="0 0 30 30" fill="none" xmlns="http://www.w3.org/2000/svg">
<g filter="url(#filter0_d_2369_49453)">
<path d="M14.9974 15.8752C11.2991 15.8752 8.28906 12.8652 8.28906 9.16683C8.28906 5.4685 11.2991 2.4585 14.9974 2.4585C18.6957 2.4585 21.7057 5.4685 21.7057 9.16683C21.7057 12.8652 18.6957 15.8752 14.9974 15.8752ZM14.9974 4.2085C12.2674 4.2085 10.0391 6.43683 10.0391 9.16683C10.0391 11.8968 12.2674 14.1252 14.9974 14.1252C17.7274 14.1252 19.9557 11.8968 19.9557 9.16683C19.9557 6.43683 17.7274 4.2085 14.9974 4.2085Z" fill="#363636"/>
<path d="M4.97656 27.5417C4.49823 27.5417 4.10156 27.145 4.10156 26.6667C4.10156 21.685 8.98989 17.625 14.9982 17.625C16.1766 17.625 17.3315 17.7767 18.4515 18.0917C18.9182 18.22 19.1866 18.6983 19.0582 19.165C18.9299 19.6317 18.4516 19.9 17.9849 19.7717C17.0282 19.5034 16.0249 19.375 14.9982 19.375C9.95822 19.375 5.85156 22.6417 5.85156 26.6667C5.85156 27.145 5.4549 27.5417 4.97656 27.5417Z" fill="#363636"/>
<path d="M22.0026 27.5418C20.0659 27.5418 18.2459 26.5152 17.2659 24.8468C16.7409 24.0068 16.4609 23.0152 16.4609 22.0002C16.4609 20.2968 17.2193 18.7218 18.5376 17.6718C19.5176 16.8901 20.7543 16.4585 22.0026 16.4585C25.0593 16.4585 27.5443 18.9435 27.5443 22.0002C27.5443 23.0152 27.2643 24.0068 26.7393 24.8585C26.4476 25.3485 26.0743 25.7918 25.6309 26.1652C24.6626 27.0518 23.3676 27.5418 22.0026 27.5418ZM22.0026 18.2085C21.1393 18.2085 20.3226 18.5001 19.6343 19.0485C18.7359 19.7601 18.2109 20.8452 18.2109 22.0002C18.2109 22.6885 18.3976 23.3651 18.7593 23.9485C19.4359 25.0918 20.6843 25.7918 22.0026 25.7918C22.9243 25.7918 23.8109 25.4535 24.4876 24.8468C24.7909 24.5902 25.0476 24.2868 25.2343 23.9602C25.6076 23.3652 25.7943 22.6885 25.7943 22.0002C25.7943 19.9118 24.0909 18.2085 22.0026 18.2085Z" fill="#363636"/>
<path d="M21.3318 24.03C21.1101 24.03 20.8884 23.9484 20.7134 23.7734L19.5584 22.6184C19.2201 22.28 19.2201 21.72 19.5584 21.3816C19.8968 21.0433 20.4568 21.0433 20.7951 21.3816L21.3551 21.9417L23.2218 20.215C23.5718 19.8883 24.1318 19.9117 24.4584 20.2617C24.7851 20.6117 24.7618 21.1717 24.4118 21.4983L21.9268 23.7966C21.7518 23.9483 21.5418 24.03 21.3318 24.03Z" fill="#363636"/>
</g>
<defs>
<filter id="filter0_d_2369_49453" x="0.5" y="0.5" width="29" height="29" filterUnits="userSpaceOnUse" color-interpolation-filters="sRGB">
<feFlood flood-opacity="0" result="BackgroundImageFix"/>
<feColorMatrix in="SourceAlpha" type="matrix" values="0 0 0 0 0 0 0 0 0 0 0 0 0 0 0 0 0 0 127 0" result="hardAlpha"/>
<feOffset/>
<feGaussianBlur stdDeviation="0.25"/>
<feComposite in2="hardAlpha" operator="out"/>
<feColorMatrix type="matrix" values="0 0 0 0 0.129412 0 0 0 0 0.105882 0 0 0 0 0.32549 0 0 0 1 0"/>
<feBlend mode="normal" in2="BackgroundImageFix" result="effect1_dropShadow_2369_49453"/>
<feBlend mode="normal" in="SourceGraphic" in2="effect1_dropShadow_2369_49453" result="shape"/>
</filter>
</defs>
</svg>
