<svg width="26" height="26" viewBox="0 0 26 26" fill="none" xmlns="http://www.w3.org/2000/svg">
<path d="M12.7053 15.5109C14.9846 15.5109 16.8324 13.5921 16.8324 11.2252C16.8324 8.85823 14.9846 6.93945 12.7053 6.93945C10.4259 6.93945 8.57812 8.85823 8.57812 11.2252C8.57812 13.5921 10.4259 15.5109 12.7053 15.5109Z" fill="#026985"/>
<path d="M14.8561 17.2969H10.557C8.06357 17.2969 6 19.4398 6 22.0291C6 22.6541 6.25794 23.1898 6.77384 23.4577C7.54767 23.9041 9.26732 24.4397 12.7066 24.4397C16.1459 24.4397 17.8655 23.9041 18.6393 23.4577C19.0692 23.1898 19.4132 22.6541 19.4132 22.0291C19.4132 19.3505 17.3496 17.2969 14.8561 17.2969Z" fill="#026985"/>
<circle cx="13" cy="13" r="12" stroke="#026985"/>
</svg>
