<svg width="24" height="23" viewBox="0 0 24 23" fill="none" xmlns="http://www.w3.org/2000/svg">
<path d="M21.6074 10.2923L20.3041 8.77812C20.0549 8.49062 19.8536 7.95396 19.8536 7.57062V5.94146C19.8536 4.92562 19.0199 4.09187 18.0041 4.09187H16.3749C16.0011 4.09187 15.4549 3.89062 15.1674 3.64146L13.6532 2.33812C12.992 1.77271 11.9091 1.77271 11.2382 2.33812L9.73365 3.65104C9.44615 3.89062 8.8999 4.09187 8.52615 4.09187H6.86823C5.8524 4.09187 5.01865 4.92562 5.01865 5.94146V7.58021C5.01865 7.95396 4.8174 8.49062 4.57781 8.77812L3.28406 10.3019C2.72823 10.9631 2.72823 12.0365 3.28406 12.6977L4.57781 14.2215C4.8174 14.509 5.01865 15.0456 5.01865 15.4194V17.0581C5.01865 18.074 5.8524 18.9077 6.86823 18.9077H8.52615C8.8999 18.9077 9.44615 19.109 9.73365 19.3581L11.2478 20.6615C11.9091 21.2269 12.992 21.2269 13.6628 20.6615L15.177 19.3581C15.4645 19.109 16.0011 18.9077 16.3845 18.9077H18.0136C19.0295 18.9077 19.8632 18.074 19.8632 17.0581V15.429C19.8632 15.0552 20.0645 14.509 20.3136 14.2215L21.617 12.7073C22.1728 12.046 22.1728 10.9535 21.6074 10.2923ZM16.4324 9.68854L11.8036 14.3173C11.6695 14.4515 11.4874 14.5281 11.2957 14.5281C11.1041 14.5281 10.922 14.4515 10.7878 14.3173L8.46865 11.9981C8.19073 11.7202 8.19073 11.2602 8.46865 10.9823C8.74656 10.7044 9.20656 10.7044 9.48448 10.9823L11.2957 12.7935L15.4166 8.67271C15.6945 8.39479 16.1545 8.39479 16.4324 8.67271C16.7103 8.95062 16.7103 9.41062 16.4324 9.68854Z" fill="#13B2B2"/>
<path d="M9.50561 2.46801L9.50569 2.46811L9.51426 2.46064L11.3164 0.888549C11.9368 0.368651 12.9597 0.372379 13.564 0.888368C13.5641 0.888517 13.5643 0.888666 13.5645 0.888815L15.3791 2.45025C15.3793 2.45045 15.3795 2.45064 15.3797 2.45084C15.6114 2.65136 15.9197 2.81248 16.2181 2.92334C16.5168 3.03429 16.8536 3.11272 17.1556 3.11272H19.1107C20.0538 3.11272 20.8303 3.88926 20.8303 4.83167V6.78618C20.8303 7.09317 20.9085 7.42997 21.0201 7.72866C21.1316 8.02697 21.2929 8.3312 21.4924 8.56154C21.4926 8.56181 21.4928 8.56207 21.4931 8.56234L23.055 10.3764C23.0552 10.3766 23.0554 10.3768 23.0556 10.3771C23.5731 10.9829 23.574 12.0177 23.0655 12.6248L21.5046 14.4377C21.5044 14.4379 21.5042 14.4381 21.504 14.4383C21.3034 14.6699 21.1422 14.9781 21.0313 15.2765C20.9203 15.5751 20.8418 15.9119 20.8418 16.2138V18.1683C20.8418 19.1107 20.0653 19.8873 19.1222 19.8873H17.1671C16.8601 19.8873 16.5232 19.9654 16.2244 20.077C15.9259 20.1885 15.6214 20.3499 15.391 20.5494C15.3908 20.5495 15.3907 20.5496 15.3906 20.5497L13.5787 22.1089C13.5781 22.1094 13.5775 22.1099 13.5769 22.1104C12.9567 22.6314 11.9327 22.628 11.3281 22.1116C11.3279 22.1115 11.3277 22.1113 11.3276 22.1112L9.51298 20.5497C9.51272 20.5495 9.51247 20.5493 9.51221 20.5491C9.28054 20.3486 8.97235 20.1875 8.67395 20.0767C8.37529 19.9657 8.03842 19.8873 7.73648 19.8873H5.74686C4.80378 19.8873 4.02722 19.1107 4.02722 18.1683V16.2023C4.02722 15.9001 3.94858 15.5661 3.83941 15.2713C3.72999 14.9758 3.57291 14.6738 3.38225 14.445L3.38227 14.445L3.37929 14.4415L1.82829 12.6154C1.82804 12.6151 1.8278 12.6148 1.82756 12.6145C1.31789 12.0074 1.3179 10.9926 1.82757 10.3855C1.82781 10.3852 1.82805 10.3849 1.82829 10.3846L3.37929 8.55849L3.3793 8.5585L3.38225 8.55497C3.57291 8.32624 3.72999 8.02417 3.83941 7.72867C3.94858 7.43385 4.02722 7.09992 4.02722 6.79768V4.83167C4.02722 3.88926 4.80378 3.11272 5.74686 3.11272H7.73648C8.03819 3.11272 8.37454 3.03437 8.6717 2.92561C8.96921 2.81672 9.27543 2.65976 9.50561 2.46801Z" stroke="#13B2B2"/>
</svg>
