<svg width="25" height="25" viewBox="0 0 25 25" fill="none" xmlns="http://www.w3.org/2000/svg">
<path d="M22.4596 11.1868L21.043 9.54102C20.7721 9.22852 20.5534 8.64518 20.5534 8.22852V6.45768C20.5534 5.35352 19.6471 4.44727 18.543 4.44727H16.7721C16.3659 4.44727 15.7721 4.22852 15.4596 3.95768L13.8138 2.54102C13.0951 1.92643 11.918 1.92643 11.1888 2.54102L9.55339 3.9681C9.24089 4.22852 8.64714 4.44727 8.24089 4.44727H6.4388C5.33464 4.44727 4.42839 5.35352 4.42839 6.45768V8.23893C4.42839 8.64518 4.20964 9.22852 3.94922 9.54102L2.54297 11.1973C1.9388 11.916 1.9388 13.0827 2.54297 13.8014L3.94922 15.4577C4.20964 15.7702 4.42839 16.3535 4.42839 16.7598V18.541C4.42839 19.6452 5.33464 20.5514 6.4388 20.5514H8.24089C8.64714 20.5514 9.24089 20.7702 9.55339 21.041L11.1992 22.4577C11.918 23.0723 13.0951 23.0723 13.8242 22.4577L15.4701 21.041C15.7826 20.7702 16.3659 20.5514 16.7826 20.5514H18.5534C19.6576 20.5514 20.5638 19.6452 20.5638 18.541V16.7702C20.5638 16.3639 20.7826 15.7702 21.0534 15.4577L22.4701 13.8118C23.0742 13.0931 23.0742 11.9056 22.4596 11.1868ZM16.8346 10.5306L11.8034 15.5618C11.6576 15.7077 11.4596 15.791 11.2513 15.791C11.043 15.791 10.8451 15.7077 10.6992 15.5618L8.17839 13.041C7.8763 12.7389 7.8763 12.2389 8.17839 11.9368C8.48047 11.6348 8.98047 11.6348 9.28255 11.9368L11.2513 13.9056L15.7305 9.42643C16.0326 9.12435 16.5326 9.12435 16.8346 9.42643C17.1367 9.72852 17.1367 10.2285 16.8346 10.5306Z" fill="#29D9AF"/>
<path d="M9.27684 2.64922L9.27692 2.64932L9.28549 2.64184L11.2447 0.932773C11.9351 0.3539 13.071 0.357639 13.7442 0.93262C13.7444 0.932764 13.7446 0.932909 13.7447 0.933054L15.7173 2.63046C15.7176 2.63065 15.7178 2.63084 15.718 2.63104C15.9647 2.84456 16.2947 3.01743 16.616 3.13679C16.9375 3.25623 17.2984 3.33991 17.6198 3.33991H19.745C20.7941 3.33991 21.6576 4.20343 21.6576 5.25181V7.37628C21.6576 7.70327 21.741 8.06406 21.8612 8.38549C21.9811 8.70655 22.1542 9.03227 22.3667 9.27762C22.3669 9.27788 22.3671 9.27815 22.3674 9.27841L24.0653 11.2504C24.0655 11.2506 24.0656 11.2508 24.0658 11.251C24.6424 11.9258 24.6434 13.0746 24.0768 13.7507L22.3799 15.7216C22.3796 15.7219 22.3794 15.7221 22.3792 15.7224C22.1656 15.969 21.9927 16.2988 21.8733 16.62C21.7539 16.9415 21.6701 17.3023 21.6701 17.6237V19.7482C21.6701 20.7966 20.8066 21.6601 19.7575 21.6601H17.6323C17.3053 21.6601 16.9445 21.7434 16.623 21.8635C16.3018 21.9835 15.976 22.1565 15.7306 22.3689C15.7304 22.3691 15.7301 22.3693 15.7298 22.3695L13.7599 24.0646C13.7593 24.0652 13.7587 24.0657 13.7581 24.0662C13.0679 24.646 11.9313 24.6427 11.2576 24.0676C11.2573 24.0674 11.2571 24.0672 11.2568 24.0669L9.28421 22.3695C9.28396 22.3693 9.2837 22.3691 9.28345 22.3689C9.03677 22.1554 8.70683 21.9826 8.38556 21.8632C8.06402 21.7438 7.70315 21.6601 7.38171 21.6601H5.21907C4.16999 21.6601 3.30642 20.7966 3.30642 19.7482V17.6112C3.30642 17.2895 3.22253 16.9318 3.10499 16.6144C2.98719 16.2962 2.81861 15.9727 2.61545 15.729L2.61547 15.7289L2.61249 15.7254L0.926478 13.7403C0.926233 13.74 0.925988 13.7397 0.925744 13.7395C0.358087 13.0634 0.358086 11.9366 0.925738 11.2606C0.925985 11.2603 0.926231 11.26 0.926477 11.2597L2.61249 9.27456L2.6125 9.27457L2.61545 9.27104C2.81861 9.02732 2.98719 8.70375 3.10499 8.38563C3.22253 8.0682 3.30642 7.71052 3.30642 7.38878V5.25181C3.30642 4.20343 4.16999 3.33991 5.21907 3.33991H7.38171C7.70291 3.33991 8.06327 3.25632 8.3833 3.13918C8.70369 3.02192 9.03167 2.85347 9.27684 2.64922Z" stroke="#29D9AF"/>
</svg>
