<svg width="140" height="130" viewBox="0 0 140 130" fill="none" xmlns="http://www.w3.org/2000/svg">
<g filter="url(#filter0_d_463_29186)">
<path d="M122.282 58.1755L114.916 49.6172C113.507 47.9922 112.37 44.9589 112.37 42.7922V33.5839C112.37 27.8422 107.657 23.1297 101.916 23.1297H92.7073C90.5948 23.1297 87.5073 21.9922 85.8823 20.5839L77.324 13.2172C73.5865 10.0214 67.4656 10.0214 63.674 13.2172L55.1698 20.638C53.5448 21.9922 50.4573 23.1297 48.3448 23.1297H38.974C33.2323 23.1297 28.5198 27.8422 28.5198 33.5839V42.8464C28.5198 44.9589 27.3823 47.9922 26.0281 49.6172L18.7156 58.2297C15.574 61.9672 15.574 68.0339 18.7156 71.7714L26.0281 80.3839C27.3823 82.0089 28.5198 85.0422 28.5198 87.1547V96.4172C28.5198 102.159 33.2323 106.871 38.974 106.871H48.3448C50.4573 106.871 53.5448 108.009 55.1698 109.417L63.7281 116.784C67.4656 119.98 73.5865 119.98 77.3781 116.784L85.9365 109.417C87.5615 108.009 90.5948 106.871 92.7615 106.871H101.97C107.711 106.871 112.424 102.159 112.424 96.4172V87.2089C112.424 85.0964 113.561 82.0089 114.97 80.3839L122.336 71.8255C125.478 68.088 125.478 61.913 122.282 58.1755ZM93.0323 54.763L66.8698 80.9255C66.1115 81.6838 65.0823 82.1172 63.999 82.1172C62.9156 82.1172 61.8865 81.6838 61.1281 80.9255L48.0198 67.8172C46.449 66.2464 46.449 63.6464 48.0198 62.0755C49.5906 60.5047 52.1906 60.5047 53.7615 62.0755L63.999 72.313L87.2906 49.0214C88.8615 47.4505 91.4615 47.4505 93.0323 49.0214C94.6031 50.5922 94.6031 53.1922 93.0323 54.763Z" fill="#026985"/>
</g>
<defs>
<filter id="filter0_d_463_29186" x="12.3594" y="6.82031" width="116.328" height="116.361" filterUnits="userSpaceOnUse" color-interpolation-filters="sRGB">
<feFlood flood-opacity="0" result="BackgroundImageFix"/>
<feColorMatrix in="SourceAlpha" type="matrix" values="0 0 0 0 0 0 0 0 0 0 0 0 0 0 0 0 0 0 127 0" result="hardAlpha"/>
<feOffset/>
<feGaussianBlur stdDeviation="2"/>
<feComposite in2="hardAlpha" operator="out"/>
<feColorMatrix type="matrix" values="0 0 0 0 0.0509804 0 0 0 0 0.878431 0 0 0 0 0.996078 0 0 0 1 0"/>
<feBlend mode="normal" in2="BackgroundImageFix" result="effect1_dropShadow_463_29186"/>
<feBlend mode="normal" in="SourceGraphic" in2="effect1_dropShadow_463_29186" result="shape"/>
</filter>
</defs>
</svg>
