<svg width="26" height="25" viewBox="0 0 26 25" fill="none" xmlns="http://www.w3.org/2000/svg">
<path d="M22.6042 11.1868L21.1875 9.54102C20.9167 9.22852 20.6979 8.64518 20.6979 8.22852V6.45768C20.6979 5.35352 19.7917 4.44727 18.6875 4.44727H16.9167C16.5104 4.44727 15.9167 4.22852 15.6042 3.95768L13.9583 2.54102C13.2396 1.92643 12.0625 1.92643 11.3333 2.54102L9.69792 3.9681C9.38542 4.22852 8.79167 4.44727 8.38542 4.44727H6.58333C5.47917 4.44727 4.57292 5.35352 4.57292 6.45768V8.23893C4.57292 8.64518 4.35417 9.22852 4.09375 9.54102L2.6875 11.1973C2.08333 11.916 2.08333 13.0827 2.6875 13.8014L4.09375 15.4577C4.35417 15.7702 4.57292 16.3535 4.57292 16.7598V18.541C4.57292 19.6452 5.47917 20.5514 6.58333 20.5514H8.38542C8.79167 20.5514 9.38542 20.7702 9.69792 21.041L11.3438 22.4577C12.0625 23.0723 13.2396 23.0723 13.9688 22.4577L15.6146 21.041C15.9271 20.7702 16.5104 20.5514 16.9271 20.5514H18.6979C19.8021 20.5514 20.7083 19.6452 20.7083 18.541V16.7702C20.7083 16.3639 20.9271 15.7702 21.1979 15.4577L22.6146 13.8118C23.2188 13.0931 23.2188 11.9056 22.6042 11.1868ZM16.9792 10.5306L11.9479 15.5618C11.8021 15.7077 11.6042 15.791 11.3958 15.791C11.1875 15.791 10.9896 15.7077 10.8438 15.5618L8.32292 13.041C8.02083 12.7389 8.02083 12.2389 8.32292 11.9368C8.625 11.6348 9.125 11.6348 9.42708 11.9368L11.3958 13.9056L15.875 9.42643C16.1771 9.12435 16.6771 9.12435 16.9792 9.42643C17.2813 9.72852 17.2813 10.2285 16.9792 10.5306Z" fill="#FF0079"/>
<path d="M9.42137 2.64922L9.42145 2.64932L9.43002 2.64184L11.3892 0.932773C12.0796 0.3539 13.2155 0.357639 13.8888 0.93262C13.8889 0.932764 13.8891 0.932909 13.8893 0.933054L15.8619 2.63046C15.8621 2.63065 15.8623 2.63084 15.8625 2.63104C16.1092 2.84456 16.4392 3.01743 16.7605 3.13679C17.0821 3.25623 17.4429 3.33991 17.7644 3.33991H19.8895C20.9386 3.33991 21.8022 4.20343 21.8022 5.25181V7.37628C21.8022 7.70327 21.8856 8.06406 22.0057 8.38549C22.1257 8.70655 22.2988 9.03227 22.5112 9.27762C22.5114 9.27788 22.5117 9.27815 22.5119 9.27841L24.2098 11.2504C24.21 11.2506 24.2102 11.2508 24.2104 11.251C24.7869 11.9258 24.7879 13.0746 24.2214 13.7507L22.5244 15.7216C22.5242 15.7219 22.5239 15.7221 22.5237 15.7224C22.3102 15.969 22.1373 16.2988 22.0179 16.62C21.8984 16.9415 21.8147 17.3023 21.8147 17.6237V19.7482C21.8147 20.7966 20.9511 21.6601 19.902 21.6601H17.7769C17.4499 21.6601 17.089 21.7434 16.7675 21.8635C16.4464 21.9835 16.1206 22.1565 15.8751 22.3689C15.8749 22.3691 15.8746 22.3693 15.8744 22.3695L13.9045 24.0646C13.9039 24.0652 13.9032 24.0657 13.9026 24.0662C13.2125 24.646 12.0758 24.6427 11.4021 24.0676C11.4019 24.0674 11.4016 24.0672 11.4013 24.0669L9.42874 22.3695C9.42849 22.3693 9.42823 22.3691 9.42798 22.3689C9.1813 22.1554 8.85136 21.9826 8.53009 21.8632C8.20855 21.7438 7.84768 21.6601 7.52624 21.6601H5.36361C4.31452 21.6601 3.45096 20.7966 3.45096 19.7482V17.6112C3.45096 17.2895 3.36706 16.9318 3.24952 16.6144C3.13173 16.2962 2.96314 15.9727 2.75998 15.729L2.76 15.7289L2.75702 15.7254L1.07101 13.7403C1.07076 13.74 1.07052 13.7397 1.07028 13.7395C0.502618 13.0634 0.502617 11.9366 1.07027 11.2606C1.07052 11.2603 1.07076 11.26 1.07101 11.2597L2.75702 9.27456L2.75703 9.27457L2.75998 9.27104C2.96314 9.02732 3.13172 8.70375 3.24952 8.38563C3.36706 8.0682 3.45096 7.71052 3.45096 7.38878V5.25181C3.45096 4.20343 4.31452 3.33991 5.36361 3.33991H7.52624C7.84745 3.33991 8.2078 3.25632 8.52783 3.13918C8.84823 3.02192 9.1762 2.85347 9.42137 2.64922Z" stroke="#FF0079"/>
</svg>
