<svg width="20" height="20" viewBox="0 0 20 20" fill="none" xmlns="http://www.w3.org/2000/svg">
<path d="M13.8021 11.6583C13.5938 11.5583 12.5771 11.0583 12.3938 10.9833C12.2021 10.9166 12.0688 10.8833 11.9271 11.0833C11.7854 11.2916 11.3937 11.7583 11.2771 11.8916C11.1604 12.0333 11.0354 12.0499 10.8271 11.9416C10.6188 11.8416 9.95208 11.6166 9.16875 10.9166C8.55208 10.3666 8.14375 9.69161 8.01875 9.48328C7.90208 9.27494 8.00208 9.16661 8.11042 9.05828C8.20208 8.96661 8.31875 8.81661 8.41875 8.69994C8.51875 8.58328 8.56042 8.49161 8.62708 8.35828C8.69375 8.21661 8.66042 8.09994 8.61042 7.99994C8.56042 7.89994 8.14375 6.88328 7.97708 6.46661C7.81042 6.06661 7.63542 6.11661 7.51042 6.10828H7.11042C6.96875 6.10828 6.75208 6.15828 6.56042 6.36661C6.37708 6.57494 5.84375 7.07494 5.84375 8.09161C5.84375 9.10828 6.58542 10.0916 6.68542 10.2249C6.78542 10.3666 8.14375 12.4499 10.2104 13.3416C10.7021 13.5583 11.0854 13.6833 11.3854 13.7749C11.8771 13.9333 12.3271 13.9083 12.6854 13.8583C13.0854 13.7999 13.9104 13.3583 14.0771 12.8749C14.2521 12.3916 14.2521 11.9833 14.1938 11.8916C14.1354 11.7999 14.0104 11.7583 13.8021 11.6583Z" fill="black"/>
<path d="M1.66043 18.9583C1.49377 18.9583 1.33541 18.8917 1.21874 18.775C1.06041 18.6167 0.993784 18.3833 1.05212 18.1667L2.10213 14.2417C1.40213 12.9417 1.03543 11.475 1.03543 9.99166C1.03543 5.04999 5.0521 1.03333 9.99377 1.03333C14.9354 1.03333 18.9521 5.04999 18.9521 9.99166C18.9521 14.9333 14.9354 18.95 9.99377 18.95C8.48543 18.95 7.01046 18.575 5.69379 17.8583L1.82711 18.9333C1.76878 18.95 1.71877 18.9583 1.66043 18.9583ZM5.7771 16.5667C5.88544 16.5667 5.99377 16.6 6.09377 16.65C7.26877 17.3417 8.61877 17.7083 9.99377 17.7083C14.2438 17.7083 17.7021 14.25 17.7021 10C17.7021 5.75 14.2438 2.29167 9.99377 2.29167C5.74377 2.29167 2.28543 5.75 2.28543 10C2.28543 11.3583 2.64376 12.6833 3.31876 13.85C3.40209 13.9917 3.42711 14.1667 3.38544 14.325L2.55211 17.4417L5.61877 16.5917C5.66877 16.575 5.7271 16.5667 5.7771 16.5667Z" fill="black"/>
</svg>
