<svg width="21" height="20" viewBox="0 0 21 20" fill="none" xmlns="http://www.w3.org/2000/svg">
<path d="M10.7511 1.3044C10.665 1.30887 10.5788 1.29533 10.498 1.2646C10.4171 1.23386 10.3431 1.18657 10.2806 1.12561C10.2181 1.06465 10.1683 0.991279 10.1343 0.909968C10.1003 0.828656 10.0827 0.741099 10.0827 0.652618C10.0827 0.564137 10.1003 0.47658 10.1343 0.395268C10.1683 0.313957 10.2181 0.24059 10.2806 0.179626C10.3431 0.118663 10.4171 0.0713758 10.498 0.04064C10.5788 0.00990418 10.665 -0.00363867 10.7511 0.000834588C12.8977 0.000672339 14.9844 0.727341 16.6872 2.06807C18.3901 3.4088 19.6139 5.2886 20.1687 7.41575C20.7236 9.54291 20.5784 11.7984 19.7558 13.8323C18.9332 15.8662 17.4792 17.5647 15.6193 18.6642C13.7594 19.7637 11.5978 20.2027 9.46981 19.9131C7.34184 19.6235 5.36655 18.6215 3.8505 17.0626C2.33446 15.5037 1.36243 13.475 1.08527 11.2915C0.808113 9.10794 1.24133 6.8916 2.31768 4.98644L1.62127 5.26017C1.41607 5.34007 1.18833 5.33308 0.988157 5.24074C0.78798 5.1484 0.631762 4.97827 0.553869 4.76778C0.475975 4.55729 0.482787 4.32368 0.572805 4.11834C0.662824 3.913 0.828675 3.75276 1.03387 3.67285L3.18494 2.8383C3.26687 2.80699 3.35306 2.78897 3.4404 2.78489C3.63725 2.75192 3.83907 2.79352 4.00822 2.90193C4.17737 3.01033 4.30231 3.17815 4.35974 3.37408L5.035 5.6257C5.07004 5.73303 5.08374 5.84648 5.07529 5.95933C5.06683 6.07219 5.03639 6.18216 4.98576 6.28273C4.93514 6.3833 4.86536 6.47244 4.78055 6.54485C4.69575 6.61727 4.59764 6.6715 4.49204 6.70433C4.38645 6.73716 4.2755 6.74793 4.16577 6.736C4.05604 6.72406 3.94976 6.68967 3.85323 6.63485C3.75669 6.58003 3.67185 6.5059 3.60374 6.41685C3.53562 6.3278 3.48561 6.22564 3.45668 6.11642L3.34928 5.75756C2.35136 7.58956 2.03322 9.73005 2.4536 11.7839C2.87398 13.8377 4.00449 15.6662 5.63644 16.9318C7.26838 18.1974 9.29157 18.8146 11.3325 18.6696C13.3735 18.5246 15.2944 17.627 16.7406 16.1427C17.9252 14.9271 18.732 13.3786 19.0588 11.6928C19.3857 10.007 19.218 8.25964 18.577 6.67158C17.936 5.08352 16.8504 3.72604 15.4574 2.77073C14.0645 1.81541 12.4267 1.30514 10.7511 1.3044ZM8.45686 10.8183C7.9199 10.2257 8.74323 9.34112 9.34039 9.90026C9.55192 10.0972 9.85782 10.386 10.0693 10.5813L12.1342 8.07761C12.7053 7.47339 13.5986 8.36135 13.0421 8.97058L10.5591 11.9199C10.4459 12.0415 10.2911 12.1134 10.1273 12.1205C9.96353 12.1277 9.80339 12.0695 9.68046 11.9583C9.33226 11.6244 8.82134 11.1237 8.45523 10.8133L8.45686 10.8183ZM7.06078 5.61068C6.98828 5.4812 6.96889 5.32748 7.00688 5.18333C7.04487 5.03919 7.13713 4.91643 7.26336 4.84206C7.38958 4.76769 7.53944 4.7478 7.67996 4.78677C7.82048 4.82574 7.94015 4.92038 8.01265 5.04986L8.28438 5.5339C8.35231 5.66286 8.36848 5.81392 8.32945 5.95493C8.29042 6.09593 8.19927 6.21574 8.07541 6.28884C7.95156 6.36194 7.80477 6.38255 7.66632 6.34629C7.52787 6.31004 7.40868 6.21977 7.33414 6.09472L7.06078 5.61068ZM5.43364 7.86897C5.37114 7.83182 5.31639 7.7824 5.2725 7.72354C5.22862 7.66468 5.19647 7.59753 5.17789 7.52593C5.1593 7.45432 5.15465 7.37966 5.16419 7.30621C5.17373 7.23276 5.19729 7.16196 5.23351 7.09785C5.26972 7.03373 5.3179 6.97757 5.37528 6.93255C5.43266 6.88754 5.49812 6.85456 5.56792 6.83549C5.63773 6.81643 5.71051 6.81165 5.78212 6.82144C5.85372 6.83123 5.92274 6.85539 5.98524 6.89255L6.46199 7.17796C6.52449 7.21512 6.57925 7.26453 6.62313 7.32339C6.66702 7.38225 6.69917 7.4494 6.71775 7.52101C6.73634 7.59261 6.74099 7.66727 6.73145 7.74072C6.7219 7.81417 6.69835 7.88497 6.66213 7.94909C6.62591 8.0132 6.57774 8.06937 6.52036 8.11438C6.46298 8.1594 6.39752 8.19238 6.32771 8.21144C6.18673 8.24994 6.03662 8.22942 5.91039 8.15439L5.43853 7.87398L5.43364 7.86897ZM6.23094 13.6107C6.10522 13.6804 5.95796 13.6969 5.8205 13.6569C5.68304 13.6169 5.56624 13.5234 5.49498 13.3963C5.42372 13.2693 5.40362 13.1187 5.43897 12.9767C5.47432 12.8346 5.56231 12.7124 5.68422 12.6359L6.1626 12.3522C6.28883 12.2778 6.43868 12.2579 6.5792 12.2969C6.71972 12.3359 6.8394 12.4305 6.91189 12.56C6.98439 12.6895 7.00378 12.8432 6.96579 12.9873C6.9278 13.1315 6.83554 13.2542 6.70932 13.3286L6.23582 13.6073L6.23094 13.6107ZM4.9634 10.5596C4.81797 10.5596 4.6785 10.5003 4.57566 10.3948C4.47283 10.2893 4.41506 10.1463 4.41506 9.99707C4.41506 9.84789 4.47283 9.70482 4.57566 9.59933C4.6785 9.49385 4.81797 9.43459 4.9634 9.43459H5.51012C5.65555 9.43459 5.79502 9.49385 5.89786 9.59933C6.00069 9.70482 6.05846 9.84789 6.05846 9.99707C6.05846 10.1463 6.00069 10.2893 5.89786 10.3948C5.79502 10.5003 5.65555 10.5596 5.51012 10.5596H4.9634ZM11.1107 15.7338C11.1031 15.8779 11.0419 16.0135 10.9397 16.1127C10.8376 16.2119 10.7022 16.2672 10.5616 16.2672C10.4209 16.2672 10.2855 16.2119 10.1834 16.1127C10.0812 16.0135 10.02 15.8779 10.0124 15.7338V15.1796C10.02 15.0355 10.0812 14.8999 10.1834 14.8007C10.2855 14.7014 10.4209 14.6461 10.5616 14.6461C10.7022 14.6461 10.8376 14.7014 10.9397 14.8007C11.0419 14.8999 11.1031 15.0355 11.1107 15.1796V15.7388V15.7338ZM10.0124 4.25036C10.0083 4.17381 10.0195 4.0972 10.0453 4.02523C10.071 3.95326 10.1108 3.88743 10.1622 3.83177C10.2136 3.7761 10.2755 3.73176 10.3442 3.70146C10.4129 3.67116 10.4868 3.65553 10.5616 3.65553C10.6363 3.65553 10.7103 3.67116 10.7789 3.70146C10.8476 3.73176 10.9095 3.7761 10.9609 3.83177C11.0123 3.88743 11.0521 3.95326 11.0778 4.02523C11.1036 4.0972 11.1148 4.17381 11.1107 4.25036V4.80951C11.1031 4.95361 11.0419 5.08922 10.9397 5.18846C10.8376 5.28769 10.7022 5.34299 10.5616 5.34299C10.4209 5.34299 10.2855 5.28769 10.1834 5.18846C10.0812 5.08922 10.02 4.95361 10.0124 4.80951V4.25537V4.25036ZM8.23882 15.2514C8.20493 15.3195 8.15788 15.3799 8.10053 15.4288C8.04319 15.4777 7.97674 15.5142 7.90524 15.5359C7.83374 15.5576 7.75867 15.5642 7.68461 15.5553C7.61054 15.5464 7.53902 15.522 7.4744 15.4839C7.40977 15.4457 7.3534 15.3944 7.3087 15.3332C7.26399 15.2719 7.2319 15.202 7.21437 15.1276C7.19683 15.0533 7.19423 14.9761 7.20671 14.9006C7.21918 14.8252 7.24648 14.7532 7.28695 14.6889L7.56031 14.2049C7.59642 14.1409 7.64447 14.0848 7.70171 14.0398C7.75895 13.9949 7.82426 13.9619 7.89391 13.9429C7.96357 13.9238 8.0362 13.919 8.10766 13.9287C8.17913 13.9385 8.24802 13.9625 8.31042 13.9996C8.37281 14.0366 8.42748 14.0859 8.47131 14.1446C8.51513 14.2033 8.54725 14.2703 8.56584 14.3418C8.58442 14.4132 8.58911 14.4877 8.57962 14.561C8.57014 14.6344 8.54667 14.705 8.51055 14.769L8.23882 15.2531V15.2514ZM14.0851 14.6889C14.121 14.753 14.1442 14.8238 14.1535 14.8971C14.1627 14.9704 14.1578 15.0449 14.139 15.1163C14.1202 15.1876 14.0879 15.2545 14.0439 15.3131C13.9999 15.3716 13.945 15.4207 13.8825 15.4575C13.82 15.4944 13.7511 15.5182 13.6796 15.5277C13.6081 15.5372 13.5355 15.5321 13.4659 15.5128C13.3964 15.4935 13.3312 15.4604 13.2741 15.4152C13.217 15.3701 13.1691 15.3138 13.1332 15.2497L12.8664 14.7657C12.7939 14.6362 12.7745 14.4825 12.8125 14.3383C12.8505 14.1942 12.9427 14.0714 13.069 13.9971C13.1952 13.9227 13.3451 13.9028 13.4856 13.9418C13.6261 13.9808 13.7458 14.0754 13.8183 14.2049L14.0851 14.6889ZM15.6846 12.6359C15.8106 12.7107 15.9025 12.8338 15.94 12.9781C15.9775 13.1224 15.9577 13.2761 15.8847 13.4054C15.8118 13.5346 15.6918 13.6289 15.5511 13.6674C15.4104 13.7059 15.2606 13.6855 15.1346 13.6107L14.6562 13.3319C14.5296 13.2562 14.4374 13.132 14.4 12.9866C14.3627 12.8412 14.3831 12.6866 14.4569 12.5566C14.5307 12.4267 14.6518 12.3322 14.7935 12.2938C14.9353 12.2555 15.0861 12.2765 15.2127 12.3522L15.6846 12.6326V12.6359ZM15.3852 6.89255C15.5114 6.81818 15.6613 6.79829 15.8018 6.83726C15.9423 6.87623 16.062 6.97087 16.1345 7.10035C16.207 7.22983 16.2264 7.38355 16.1884 7.5277C16.1504 7.67184 16.0581 7.7946 15.9319 7.86897L15.46 8.14938C15.3355 8.21065 15.1929 8.22141 15.0609 8.17952C14.9289 8.13762 14.8172 8.04615 14.7481 7.9234C14.679 7.80065 14.6577 7.65567 14.6883 7.51747C14.7189 7.37926 14.7993 7.25801 14.9133 7.17796L15.3852 6.89755V6.89255ZM13.4684 5.26017C13.5416 5.13069 13.6619 5.03631 13.8029 4.99781C13.9438 4.95931 14.0939 4.97984 14.2202 5.05487C14.3464 5.1299 14.4384 5.2533 14.4759 5.39791C14.5135 5.54253 14.4935 5.69651 14.4203 5.82599L14.1469 6.31003C14.1107 6.37436 14.0625 6.43075 14.0051 6.47597C13.9476 6.52118 13.882 6.55435 13.8121 6.57357C13.7421 6.59279 13.6691 6.59768 13.5973 6.58798C13.5255 6.57827 13.4563 6.55415 13.3936 6.517C13.3309 6.47985 13.2759 6.43039 13.2318 6.37144C13.1877 6.3125 13.1554 6.24523 13.1367 6.17347C13.1179 6.10171 13.1132 6.02686 13.1226 5.95321C13.1321 5.87956 13.1556 5.80854 13.1918 5.74421L13.4636 5.26017H13.4684ZM16.5356 9.43292C16.681 9.43292 16.8205 9.49218 16.9233 9.59767C17.0262 9.70315 17.0839 9.84622 17.0839 9.9954C17.0839 10.1446 17.0262 10.2877 16.9233 10.3931C16.8205 10.4986 16.681 10.5579 16.5356 10.5579H15.9579C15.8125 10.5579 15.673 10.4986 15.5702 10.3931C15.4674 10.2877 15.4096 10.1446 15.4096 9.9954C15.4096 9.84622 15.4674 9.70315 15.5702 9.59767C15.673 9.49218 15.8125 9.43292 15.9579 9.43292H16.5356Z" fill="#363636"/>
</svg>
