<svg width="30" height="31" viewBox="0 0 30 31" fill="none" xmlns="http://www.w3.org/2000/svg">
<path d="M17.2406 2.00173C17.2406 1.44377 17.7844 0.988281 18.4629 0.988281C19.1408 0.988281 19.6857 1.4414 19.6857 2.00173V6.43518C19.6857 6.99314 19.1408 7.44863 18.4629 7.44863C17.7844 7.44863 17.2406 6.99551 17.2406 6.43518V2.00173ZM20.6865 19.8629H21.7365C21.9281 19.8629 22.0857 20.0222 22.0857 20.2159V23.5826H24.9105C25.1039 23.5826 25.2615 23.7425 25.2615 23.9368V24.9982C25.2615 25.1943 25.1039 25.3524 24.9105 25.3524H20.335V20.2159C20.335 20.0222 20.4932 19.8629 20.6865 19.8629ZM22.1379 15.0918C24.3047 15.0918 26.2723 15.9827 27.6943 17.4226C29.1187 18.8583 30 20.8455 30 23.0406C30 25.2334 29.1199 27.223 27.6973 28.6605L27.6574 28.6984C26.2377 30.1128 24.2883 30.9883 22.1379 30.9883C19.9664 30.9883 18.0006 30.0974 16.5785 28.6599L16.541 28.619C15.1406 27.1833 14.2746 25.2115 14.2746 23.0406C14.2746 20.8455 15.1559 18.8583 16.5785 17.4208C18.0006 15.9827 19.9682 15.0918 22.1379 15.0918ZM26.7516 18.3738C25.5744 17.1827 23.9414 16.4441 22.1379 16.4441C20.3361 16.4441 18.7037 17.1827 17.5236 18.3762C16.343 19.5691 15.6123 21.2193 15.6123 23.0406C15.6123 24.8472 16.3301 26.4843 17.4885 27.6719L17.5236 27.7045C18.7037 28.8974 20.3361 29.6366 22.1379 29.6366C23.9238 29.6366 25.5434 28.9105 26.7205 27.7395L26.7521 27.7051C27.9328 26.5116 28.6629 24.862 28.6629 23.0406C28.6629 21.2193 27.9316 19.5691 26.7516 18.3738ZM3.32812 15.3388C3.25957 15.3388 3.19746 15.0308 3.19746 14.6541C3.19746 14.2756 3.25137 13.9706 3.32812 13.9706H6.66445C6.73359 13.9706 6.7957 14.2786 6.7957 14.6541C6.7957 15.032 6.7418 15.3388 6.66445 15.3388H3.32812ZM8.64668 15.3388C8.57812 15.3388 8.51602 15.0308 8.51602 14.6541C8.51602 14.2756 8.56992 13.9706 8.64668 13.9706H11.983C12.0521 13.9706 12.1143 14.2786 12.1143 14.6541C12.1143 15.032 12.0604 15.3388 11.983 15.3388H8.64668ZM13.9652 15.3388C13.8973 15.3388 13.8352 15.0308 13.8352 14.6541C13.8352 14.2756 13.8891 13.9706 13.9652 13.9706H17.3016C17.3713 13.9706 17.4334 14.2756 17.4334 14.6511C17.0994 14.8614 16.7771 15.0918 16.4707 15.3388H13.9652ZM3.33633 19.2623C3.26719 19.2623 3.20508 18.9543 3.20508 18.577C3.20508 18.1991 3.25957 17.8911 3.33633 17.8911H6.67266C6.7418 17.8911 6.80273 18.1991 6.80273 18.577C6.80273 18.9543 6.74941 19.2623 6.67266 19.2623H3.33633ZM8.65488 19.2623C8.58574 19.2623 8.52363 18.9543 8.52363 18.577C8.52363 18.1991 8.57812 17.8911 8.65488 17.8911H11.9912C12.0604 17.8911 12.1219 18.1991 12.1219 18.577C12.1219 18.9543 12.068 19.2623 11.9912 19.2623H8.65488ZM3.34336 23.1881C3.27422 23.1881 3.21211 22.8801 3.21211 22.5022C3.21211 22.1249 3.26719 21.8169 3.34336 21.8169H6.67969C6.74941 21.8169 6.81094 22.1249 6.81094 22.5022C6.81094 22.8801 6.75645 23.1881 6.67969 23.1881H3.34336ZM8.6625 23.1881C8.59277 23.1881 8.53066 22.8801 8.53066 22.5022C8.53066 22.1249 8.58574 21.8169 8.6625 21.8169H11.9988C12.068 21.8169 12.1301 22.1249 12.1301 22.5022C12.1301 22.8801 12.075 23.1881 11.9988 23.1881H8.6625ZM6.25957 2.00173C6.25957 1.44377 6.80273 0.988281 7.48184 0.988281C8.15977 0.988281 8.7041 1.4414 8.7041 2.00173V6.43518C8.7041 6.99314 8.15684 7.44863 7.48184 7.44863C6.80273 7.44863 6.25957 6.99551 6.25957 6.43518V2.00173ZM1.3459 10.6809H24.6305V5.57633C24.6305 5.40219 24.5607 5.24878 24.4494 5.13624C24.3381 5.0237 24.1805 4.95381 24.0146 4.95381H21.7822C21.4078 4.95381 21.1031 4.64581 21.1031 4.2685C21.1031 3.89061 21.4078 3.58261 21.7822 3.58261H24.0146C24.5607 3.58261 25.0518 3.80591 25.4104 4.1684C25.7689 4.53149 25.9893 5.02666 25.9893 5.57929V13.6827C25.5434 13.5275 25.0863 13.4025 24.6158 13.3101V12.0438H24.6305H1.3459V25.2624C1.3459 25.4365 1.41504 25.5894 1.52637 25.7019C1.63828 25.8144 1.79648 25.8849 1.9623 25.8849H13.0277C13.1543 26.3594 13.3125 26.8226 13.5029 27.268H1.9752C1.43027 27.268 0.938086 27.0459 0.57832 26.6822C0.219727 26.3226 0 25.8275 0 25.2743V5.58166C0 5.0314 0.219727 4.53327 0.57832 4.17077C0.938086 3.80769 1.42793 3.58557 1.9752 3.58557H4.3582C4.73203 3.58557 5.03613 3.89357 5.03613 4.27028C5.03613 4.64877 4.73203 4.95677 4.3582 4.95677H1.9752C1.80176 4.95677 1.65059 5.02666 1.53926 5.1392C1.42793 5.25174 1.3582 5.41107 1.3582 5.57929V10.6826H1.3459V10.6809ZM10.6594 4.95381C10.285 4.95381 9.98145 4.64581 9.98145 4.2685C9.98145 3.89061 10.285 3.58261 10.6594 3.58261H15.2033C15.5777 3.58261 15.8813 3.89061 15.8813 4.2685C15.8813 4.64581 15.5777 4.95381 15.2033 4.95381H10.6594Z" fill="#363636"/>
</svg>
