<svg width="20" height="20" viewBox="0 0 20 20" fill="none" xmlns="http://www.w3.org/2000/svg">
<path d="M14.6221 17.1606H5.43248C2.27124 17.1606 0.148438 15.1439 0.148438 12.1407V6.90265C0.148438 3.89948 2.27124 1.88281 5.43248 1.88281H14.6221C17.7834 1.88281 19.9062 3.89948 19.9062 6.90265V12.1407C19.9062 15.1439 17.7834 17.1606 14.6221 17.1606ZM5.43248 3C3.06155 3 1.27964 4.65027 1.27964 6.90265V12.1407C1.27964 14.3931 3.06155 16.1264 5.43248 16.1264H14.6221C16.993 16.1264 18.7596 14.3931 18.7596 12.1407V6.90265C18.7596 4.65027 16.993 3 14.6221 3H5.43248Z" fill="#363636"/>
<path d="M8.73186 12.6039C8.46536 12.6039 8.20804 12.5428 7.9783 12.4206C7.4453 12.1325 7.13281 11.5475 7.13281 10.8229V8.23882C7.13281 7.51422 7.43611 6.92931 7.9783 6.64121C8.5113 6.35312 9.2005 6.40548 9.85297 6.78087L12.1228 8.07295C12.7477 8.43088 13.1061 8.96343 13.1061 9.53089C13.1061 10.0984 12.7477 10.6309 12.1228 10.9888L9.85297 12.2809C9.47619 12.4904 9.09025 12.6039 8.73186 12.6039ZM8.73186 7.74994C8.6951 7.74994 8.6675 7.75866 8.64913 7.76739C8.5848 7.80231 8.51126 7.95945 8.51126 8.23008V10.8142C8.51126 11.0761 8.5848 11.2333 8.64913 11.2769C8.72264 11.3118 8.89727 11.2944 9.1362 11.1547L11.406 9.86265C11.6358 9.73169 11.7185 9.60073 11.7185 9.52216C11.7185 9.44358 11.6358 9.32135 11.406 9.18167L9.1362 7.88962C8.97079 7.79359 8.82375 7.74994 8.73186 7.74994Z" fill="#363636"/>
</svg>
