<svg width="19" height="20" viewBox="0 0 19 20" fill="none" xmlns="http://www.w3.org/2000/svg">
<path d="M13.8867 17.1606H5.15656C2.15339 17.1606 0.136719 15.1439 0.136719 12.1407V6.90265C0.136719 3.89948 2.15339 1.88281 5.15656 1.88281H13.8867C16.8899 1.88281 18.9066 3.89948 18.9066 6.90265V12.1407C18.9066 15.1439 16.8899 17.1606 13.8867 17.1606ZM5.15656 3C2.90418 3 1.21136 4.65027 1.21136 6.90265V12.1407C1.21136 14.3931 2.90418 16.1264 5.15656 16.1264H13.8867C16.1391 16.1264 17.8173 14.3931 17.8173 12.1407V6.90265C17.8173 4.65027 16.1391 3 13.8867 3H5.15656Z" fill="#2E9CB7"/>
<path d="M8.29253 12.6039C8.03936 12.6039 7.7949 12.5428 7.57665 12.4206C7.0703 12.1325 6.77344 11.5475 6.77344 10.8229V8.23882C6.77344 7.51422 7.06157 6.92931 7.57665 6.64121C8.083 6.35312 8.73774 6.40548 9.35758 6.78087L11.514 8.07295C12.1076 8.43088 12.448 8.96343 12.448 9.53089C12.448 10.0984 12.1076 10.6309 11.514 10.9888L9.35758 12.2809C8.99965 12.4904 8.63301 12.6039 8.29253 12.6039ZM8.29253 7.74994C8.25761 7.74994 8.2314 7.75866 8.21393 7.76739C8.15282 7.80231 8.08296 7.95945 8.08296 8.23008V10.8142C8.08296 11.0761 8.15282 11.2333 8.21393 11.2769C8.28378 11.3118 8.44967 11.2944 8.67666 11.1547L10.833 9.86265C11.0512 9.73169 11.1298 9.60073 11.1298 9.52216C11.1298 9.44358 11.0512 9.32135 10.833 9.18167L8.67666 7.88962C8.51952 7.79359 8.37983 7.74994 8.29253 7.74994Z" fill="#2E9CB7"/>
</svg>
